/* XPM */
static char * _11_xpm[] = {
"40 40 380 2",
"  	c #1D2619",
". 	c #212B1D",
"+ 	c #232E20",
"@ 	c #202B1D",
"# 	c #1F2A1D",
"$ 	c #1F2A1C",
"% 	c #242F21",
"& 	c #242F20",
"* 	c #2A3626",
"= 	c #2C3828",
"- 	c #273224",
"; 	c #212C1E",
"> 	c #263223",
", 	c #222C1F",
"' 	c #20291D",
") 	c #1A2018",
"! 	c #191F17",
"~ 	c #1C2419",
"{ 	c #222D1F",
"] 	c #273223",
"^ 	c #283424",
"/ 	c #2C3728",
"( 	c #2B3627",
"_ 	c #273324",
": 	c #253022",
"< 	c #1F291C",
"[ 	c #1C2518",
"} 	c #52331A",
"| 	c #7F4A1D",
"1 	c #8A5D39",
"2 	c #9B7655",
"3 	c #916946",
"4 	c #683E1C",
"5 	c #1E261B",
"6 	c #283325",
"7 	c #242E20",
"8 	c #1E271A",
"9 	c #1A2217",
"0 	c #3C2A18",
"a 	c #78461C",
"b 	c #9B5A22",
"c 	c #A06432",
"d 	c #A16E45",
"e 	c #8C5F39",
"f 	c #8C5220",
"g 	c #925420",
"h 	c #263122",
"i 	c #2A3526",
"j 	c #293426",
"k 	c #263123",
"l 	c #3B2816",
"m 	c #643C1A",
"n 	c #824C1E",
"o 	c #965721",
"p 	c #844D1F",
"q 	c #77471D",
"r 	c #23301B",
"s 	c #22301B",
"t 	c #212F1A",
"u 	c #212E1A",
"v 	c #493419",
"w 	c #70431C",
"x 	c #9F683B",
"y 	c #A67C56",
"z 	c #A27148",
"A 	c #273124",
"B 	c #1F281B",
"C 	c #1D271A",
"D 	c #436728",
"E 	c #639939",
"F 	c #688231",
"G 	c #8A501F",
"H 	c #633D1A",
"I 	c #65441D",
"J 	c #78532F",
"K 	c #926844",
"L 	c #845D39",
"M 	c #523819",
"N 	c #232D1F",
"O 	c #375324",
"P 	c #609438",
"Q 	c #72AF42",
"R 	c #679E3D",
"S 	c #6C9D3C",
"T 	c #759A3A",
"U 	c #738331",
"V 	c #6A3E1A",
"W 	c #253419",
"X 	c #2E441E",
"Y 	c #1A2215",
"Z 	c #322C17",
"` 	c #4B391A",
" .	c #3E3218",
"..	c #181E14",
"+.	c #191E16",
"@.	c #1E281A",
"#.	c #202B1C",
"$.	c #375424",
"%.	c #5C8E36",
"&.	c #63993B",
"*.	c #517A30",
"=.	c #5E9038",
"-.	c #5B3719",
";.	c #365022",
">.	c #44672A",
",.	c #141412",
"'.	c #375123",
").	c #2D421E",
"!.	c #253020",
"~.	c #365224",
"{.	c #4F792F",
"].	c #4D732F",
"^.	c #3F5E27",
"/.	c #4B6A29",
"(.	c #596625",
"_.	c #472B14",
":.	c #3B5A25",
"<.	c #578435",
"[.	c #416228",
"}.	c #5B8B36",
"|.	c #558332",
"1.	c #1E2A17",
"2.	c #1B2315",
"3.	c #1F291B",
"4.	c #1E291B",
"5.	c #242E21",
"6.	c #232D20",
"7.	c #1E281B",
"8.	c #2E4223",
"9.	c #375323",
"0.	c #2B3F1D",
"a.	c #322F16",
"b.	c #44280F",
"c.	c #382210",
"d.	c #5D8D38",
"e.	c #547E33",
"f.	c #4C712E",
"g.	c #233219",
"h.	c #202A1C",
"i.	c #252E22",
"j.	c #271F12",
"k.	c #3A2C13",
"l.	c #3E2B12",
"m.	c #909E63",
"n.	c #A69E77",
"o.	c #44652A",
"p.	c #4E772F",
"q.	c #81795C",
"r.	c #9F8973",
"s.	c #1A2016",
"t.	c #28291C",
"u.	c #2C1D11",
"v.	c #2E2413",
"w.	c #3D5021",
"x.	c #8A9160",
"y.	c #D6BF9B",
"z.	c #C4AD8E",
"A.	c #476B2C",
"B.	c #8B9261",
"C.	c #D4B99A",
"D.	c #C1A68D",
"E.	c #171B14",
"F.	c #212B1E",
"G.	c #181E16",
"H.	c #503017",
"I.	c #7F4B1E",
"J.	c #6E5522",
"K.	c #9D9370",
"L.	c #E2C09F",
"M.	c #AD936F",
"N.	c #406027",
"O.	c #AA8A6D",
"P.	c #1D231A",
"Q.	c #293425",
"R.	c #293525",
"S.	c #283425",
"T.	c #1B2419",
"U.	c #4C5021",
"V.	c #787D31",
"W.	c #7B6F2C",
"X.	c #896748",
"Y.	c #8E7A61",
"Z.	c #675939",
"`.	c #293B1C",
" +	c #1E2916",
".+	c #6F5E47",
"++	c #9B7C61",
"@+	c #644F38",
"#+	c #283224",
"$+	c #2B3727",
"%+	c #273323",
"&+	c #365124",
"*+	c #537D32",
"=+	c #688836",
"-+	c #75491E",
";+	c #5D3D1B",
">+	c #5C3B1A",
",+	c #513116",
"'+	c #482E15",
")+	c #72461D",
"!+	c #73431C",
"~+	c #263321",
"{+	c #8D5320",
"]+	c #99765B",
"^+	c #BC9A7C",
"/+	c #B08D6D",
"(+	c #BB9374",
"_+	c #283324",
":+	c #334B20",
"<+	c #527C32",
"[+	c #716A2A",
"}+	c #896448",
"|+	c #9E7C61",
"1+	c #927155",
"2+	c #A67B5C",
"3+	c #263023",
"4+	c #24301D",
"5+	c #31481F",
"6+	c #3D5C26",
"7+	c #415623",
"8+	c #6D4B1D",
"9+	c #835B38",
"0+	c #906946",
"a+	c #6B401B",
"b+	c #52341B",
"c+	c #222B1F",
"d+	c #253023",
"e+	c #2A3325",
"f+	c #21281B",
"g+	c #1D241A",
"h+	c #1E261C",
"i+	c #3F2C16",
"j+	c #653C18",
"k+	c #623917",
"l+	c #4B2E16",
"m+	c #60432B",
"n+	c #6B4F35",
"o+	c #3F2C1A",
"p+	c #372D1C",
"q+	c #2F3122",
"r+	c #252F22",
"s+	c #95653E",
"t+	c #92623C",
"u+	c #373020",
"v+	c #2A3125",
"w+	c #7A6F64",
"x+	c #7A665A",
"y+	c #8A796D",
"z+	c #7B665A",
"A+	c #89766A",
"B+	c #68452B",
"C+	c #664326",
"D+	c #674124",
"E+	c #6A4225",
"F+	c #684225",
"G+	c #684125",
"H+	c #694225",
"I+	c #623D22",
"J+	c #5C3921",
"K+	c #422C1A",
"L+	c #946038",
"M+	c #5A391F",
"N+	c #5D3D23",
"O+	c #241B13",
"P+	c #A76D40",
"Q+	c #E3985F",
"R+	c #CE8B56",
"S+	c #90613B",
"T+	c #342F20",
"U+	c #232E21",
"V+	c #37382F",
"W+	c #C7B8AB",
"X+	c #A89588",
"Y+	c #D1C0B2",
"Z+	c #D1BCAD",
"`+	c #AE7144",
" @	c #AC6D3C",
".@	c #9D6336",
"+@	c #945D32",
"@@	c #684020",
"#@	c #B67A4C",
"$@	c #895730",
"%@	c #965E33",
"&@	c #402612",
"*@	c #9D663B",
"=@	c #D88F56",
"-@	c #C7814C",
";@	c #E0965C",
">@	c #CE8A55",
",@	c #8E603B",
"'@	c #523F28",
")@	c #2B3223",
"!@	c #3F3E35",
"~@	c #33322A",
"{@	c #413F37",
"]@	c #34342B",
"^@	c #403D35",
"/@	c #3A2719",
"(@	c #4B2D17",
"_@	c #5A351A",
":@	c #653B1B",
"<@	c #69524C",
"[@	c #5F5C61",
"}@	c #75441D",
"|@	c #74431D",
"1@	c #61391A",
"2@	c #261E16",
"3@	c #6A4528",
"4@	c #282219",
"5@	c #302A1D",
"6@	c #151F19",
"7@	c #9C663B",
"8@	c #C88553",
"9@	c #83522D",
"0@	c #8E5930",
"a@	c #A36A3E",
"b@	c #B6794A",
"c@	c #7E522F",
"d@	c #392B19",
"e@	c #242E22",
"f@	c #1A1E18",
"g@	c #1F1812",
"h@	c #382313",
"i@	c #472C16",
"j@	c #5D5557",
"k@	c #6F8493",
"l@	c #637987",
"m@	c #6E4018",
"n@	c #5F3715",
"o@	c #2F2114",
"p@	c #1B2319",
"q@	c #543C24",
"r@	c #5C432B",
"s@	c #282E20",
"t@	c #21291C",
"u@	c #2A2F21",
"v@	c #2A2F20",
"w@	c #47692D",
"x@	c #405F29",
"y@	c #4E7531",
"z@	c #2D411F",
"A@	c #251A11",
"B@	c #614C44",
"C@	c #69666A",
"D@	c #675A57",
"E@	c #633B18",
"F@	c #593515",
"G@	c #171914",
"H@	c #385425",
"I@	c #395423",
"J@	c #3B5725",
"K@	c #313F1C",
"L@	c #362110",
"M@	c #573415",
"N@	c #683E1A",
"O@	c #4B2D13",
"P@	c #1B2317",
"Q@	c #222E1A",
"R@	c #324A20",
"S@	c #3F5D27",
"T@	c #344C21",
"U@	c #3F2714",
"V@	c #232F1B",
"W@	c #4A6F2D",
"X@	c #2B3E1C",
"Y@	c #171B15",
"Z@	c #1E271C",
"`@	c #1B2119",
" #	c #161814",
".#	c #1C241A",
"+#	c #1D251A",
"@#	c #293B1B",
"##	c #426328",
"$#	c #4F7730",
"%#	c #26351B",
"&#	c #161813",
"*#	c #27391A",
"=#	c #334B22",
"-#	c #181C16",
";#	c #1D2719",
"  . + + + + + + + + + @ # $ $ $ @ + + + % % % % % % % & + @ # $ $ @ + + + + + + ",
"+ + + + + + + + + + + + + $ $ $ @ + + + * = = = = = = - + + + + $ $ $ ; + + + + ",
"> > > , . + ' ) ) ) ) ) ) ! ~ @ ; + { { ] ^ = = = / ( _ : { { { $ $ @ { + + + + ",
"= = = < [ ' } | | | 1 2 3 | 4 5 + + ; $ $ $ = = = ( 6 6 6 ; $ $ $ @ + + + + + + ",
"= ] 7 8 9 0 a b b b c d e f g 4 5 + { ; @ $ : h i j 6 6 6 ; $ $ % : k k k % + k ",
"= + [ 9 l m n b b b b o p q f g 4 5 + + @ $ $ @ 6 6 6 6 6 ; $ $ 6 6 6 6 6 % + 6 ",
"r s t u v w n b b b b b x y z b | ) : - - k k - 6 6 6 6 6 - k A 6 6 6 7 B 8 C ; ",
"D E E E F w q f G H I I J K L I M ) k 6 6 6 6 6 6 6 6 6 6 6 6 6 6 6 6 N [ [ [ $ ",
"O P Q R S T U q V W X Y Z `  .Y ..+.$ $ k 6 6 6 6 k + k 6 6 6 6 6 : [ @.$ $ $ $ ",
"#.$.%.&.*.=.S U -.;.>.,.W '.).,.,.+.$ $ k 6 6 6 6 k + k 6 6 6 6 6 : [ @.$ $ $ $ ",
"+ !.~.{.].^./.(._.:.<.>.[.}.|.1.2.+.3.4.5.: 6 6 6 - % k - 6 6 6 : 6.[ 7.@ @ @ @ ",
"= = i 8.9.0.a.b.c.:.d.e.f.R E g.1.+.C [ [ [ 6 6 6 6 6 : + - 6 6 [ [ [ h.+ + + + ",
"= = = i.j.k.l.b.c.:.m.n.o.*.p.'.q.r.s.[ C @.% % k k k % + % % 5.@.7.h.; + + + ; ",
"= = = i t.u.u.v.w.x.y.z.A.e.e.B.C.D.E.[ 4.$ $ # + + + + + @ $ $ $ @ + + + + + $ ",
"j j j % F.G.H.I.J.K.L.M.^.N.N.K.L.O.P.^ Q.R.R.S.+ + + + + { { { { { + + + < @.  ",
"6 6 6 ; $ T.U.V.W.X.Y.Z.`.Y  +.+++@+#+= = = = $++ + + + + + + + + + + + + @.[ [ ",
"6 6 6 6 %+&+*+d.=+W.-+;+>+,+'+)+!+) S.= = = = / 6 k + + + + + + + + + ; $ $ $ + ",
"6 6 6 6 ~+N.d.d.d.V.{+w ]+^+/+(+| ) _+$+= = = $+6 k + + + + + + + + + ; $ $ $ + ",
"+ k 6 6 7 :+<+d.<.[+{+w }+|+1+2+| ) + + * = 6 6 6 k + k 6 6 6 6 6 - + + + + + + ",
"+ k 6 6 3+4+5+6+7+8+{+w w 9+0+a+b+c+: : k _ 6 6 6 - : - 6 6 6 6 d+: { { + % : : ",
"+ 3+e+e+e+f+g+h+i+j+k+l+l+m+n+o+p+q+- r+s+t+u+#+6 6 6 6 6 6 6 6 $ $ $ ; + - 6 6 ",
"v+w+x+y+z+A+B+C+D+E+F+G+H+I+J+K+L+M+N+O+P+Q+R+S+T+A 6 6 6 % U++ $ @ ; % k - 6 6 ",
"V+W+X+Y+X+Z+`+ @ @ @ @ @ @.@+@@@#@$@%@&@*@=@-@;@>@,@'@)@6 ; $ $ $ @ + k 6 6 6 6 ",
"5.!@~@{@]@^@/@(@_@:@<@[@}@|@1@2@3@4@5@6@7@8@9@0@a@b@c@d@% + { { { + - - 6 6 6 { ",
"+ + + - e@f@g@h@i@j@k@l@m@m@n@o@p@{ k - q@r@5.s@t@F.u@v@+ + + + + % 6 6 6 6 6 $ ",
"w@x@y@w@z@A@c.c._.B@C@D@E@E@F@c.G@5 + + + + + + + + + + + + + + + + + + + - 6 6 ",
"H@I@f.A.J@K@u.L@M@w w w w N@O@A@,.G@5 + + + + + + + + + + + + + + + + + % - 6 - ",
"P@Q@R@S@S@J@T@K@h@i@i@i@i@U@A@,.,.,.G@5 + + + + $ @ + + + + + + + + + k 6 6 6 $ ",
"[ < V@R@S@A.e.W@X@Y@~ 5 Z@Z@`@,.,.,.,. #.#< +#; $ @ { { { + + + + + + : k k k ; ",
"[ @ F.V@@###d.$#%#' + + + + F.! ,.,.,.,.&#Y@+.$ $ $ $ $ $ { + + + + + + + + + + ",
"[ @ + F.`@*#:.=#' + + + + + + 7.G.,.,.,.,.,.+.$ $ $ $ $ $ { + + + + + + + + + + ",
"F.{ + + F.Z@Z@' + + + + + + + { ' G.,.,.,.-#< { { ; $ ; { + + + + + + + + + + + ",
"+ + + + + + + + + + + + + + + + { 7.+#Z@Z@' + + + { $ ; + + + + + + + + + + + + ",
"6 6 6 B   + + + + + + + + + + + + + + + + + + + $ $ $ ; + + + + + { $ $ $ { + + ",
"6 6 6 7.[ + + + + + + + + + + + + + + + + + + { $ $ $ ; + + + + + { $ $ $ { + + ",
"6 F.[ [ [ + + + : 6 6 6 6 6 6 + + + + + + + [ [ [ [ [ @.$ $ $ $ $ $ $ ; + + + 6 ",
"k .   8 @.+ + + % k k - 6 6 6 % % { + + , ; [ [ [ [   4.$ @ @ @ @ @ @ { + + + k ",
"$ $ $ { + + + + ; $ $ k 6 6 6 6 : $ ; + 8 [ [ [ [ ;#$ $ $ { + + + + + + + + + $ ",
"$ @ ; + + + + + { ; ; + % 6 6 6 - % { ; 4.@.@.@.@.7.$ $ $ ; ; ; + + + + + + + ; ",
"$ ; + + + + + + + + + @ $ 6 6 6 6 6 + $ $ $ $ $ $ $ $ $ $ $ $ $ + + + + + + + + "};
