/* XPM */
static char * _22_xpm[] = {
"40 40 390 2",
"  	c #1D2619",
". 	c #212B1D",
"+ 	c #232E20",
"@ 	c #202B1D",
"# 	c #1F2A1D",
"$ 	c #1F2A1C",
"% 	c #242F21",
"& 	c #242F20",
"* 	c #222D1F",
"= 	c #222C1F",
"- 	c #1E291B",
"; 	c #1F291C",
"> 	c #2A3626",
", 	c #2C3828",
"' 	c #273224",
") 	c #212C1E",
"! 	c #263223",
"~ 	c #2F2619",
"{ 	c #352214",
"] 	c #3D2D1F",
"^ 	c #413225",
"/ 	c #3A281B",
"( 	c #29271A",
"_ 	c #202A1D",
": 	c #273223",
"< 	c #283424",
"[ 	c #2C3728",
"} 	c #2B3627",
"| 	c #273324",
"1 	c #253022",
"2 	c #1C2418",
"3 	c #262218",
"4 	c #804A1D",
"5 	c #9B5A22",
"6 	c #B07E53",
"7 	c #B98C64",
"8 	c #A46F43",
"9 	c #9A5922",
"0 	c #693D1A",
"a 	c #2A291C",
"b 	c #232D20",
"c 	c #283325",
"d 	c #242E20",
"e 	c #1E261A",
"f 	c #241F15",
"g 	c #5E3819",
"h 	c #8D5320",
"i 	c #844E1F",
"j 	c #72441C",
"k 	c #8B5120",
"l 	c #263122",
"m 	c #2A3526",
"n 	c #293426",
"o 	c #263123",
"p 	c #2B3727",
"q 	c #232E1F",
"r 	c #1D2618",
"s 	c #191E15",
"t 	c #5C3819",
"u 	c #70431C",
"v 	c #875327",
"w 	c #7A4E2A",
"x 	c #905625",
"y 	c #633A19",
"z 	c #1E271C",
"A 	c #2D441D",
"B 	c #324C20",
"C 	c #5F461D",
"D 	c #975821",
"E 	c #955721",
"F 	c #AC7C53",
"G 	c #B88C64",
"H 	c #A36E43",
"I 	c #5F3819",
"J 	c #273124",
"K 	c #1F281B",
"L 	c #1E271A",
"M 	c #1D271A",
"N 	c #5F9337",
"O 	c #75B544",
"P 	c #76B644",
"Q 	c #728331",
"R 	c #715722",
"S 	c #704B1E",
"T 	c #603819",
"U 	c #212E18",
"V 	c #243319",
"W 	c #223018",
"X 	c #593C1B",
"Y 	c #6C421C",
"Z 	c #48371A",
"` 	c #1A2115",
" .	c #232D1F",
"..	c #1C2518",
"+.	c #212F1A",
"@.	c #679E3D",
"#.	c #5D8D38",
"$.	c #6BA53F",
"%.	c #74B444",
"&.	c #472C16",
"*.	c #375122",
"=.	c #2B3F1C",
"-.	c #141412",
";.	c #26381B",
">.	c #1C2515",
",.	c #1B2419",
"'.	c #1E281A",
").	c #22301B",
"!.	c #5F9237",
"~.	c #578634",
"{.	c #405F28",
"].	c #517A31",
"^.	c #6BA33E",
"/.	c #6F792E",
"(.	c #452B16",
"_.	c #4C732E",
":.	c #3F6027",
"<.	c #1E2816",
"[.	c #385223",
"}.	c #45672A",
"|.	c #2E441E",
"1.	c #161813",
"2.	c #151612",
"3.	c #253021",
"4.	c #1D231A",
"5.	c #496F2D",
"6.	c #496D2C",
"7.	c #3A2C13",
"8.	c #44280F",
"9.	c #2C1D11",
"0.	c #4C712E",
"a.	c #547E33",
"b.	c #6EAA41",
"c.	c #4F7A2E",
"d.	c #233219",
"e.	c #1A2215",
"f.	c #1F291B",
"g.	c #242E21",
"h.	c #1E281B",
"i.	c #1F251C",
"j.	c #222916",
"k.	c #273118",
"l.	c #3B2C13",
"m.	c #6D9246",
"n.	c #577538",
"o.	c #527C32",
"p.	c #4E782E",
"q.	c #454131",
"r.	c #37352A",
"s.	c #202A1C",
"t.	c #20271D",
"u.	c #362211",
"v.	c #41270F",
"w.	c #422810",
"x.	c #302E15",
"y.	c #607B3F",
"z.	c #CBB992",
"A.	c #9D9270",
"B.	c #416128",
"C.	c #426329",
"D.	c #586A3B",
"E.	c #C8B091",
"F.	c #97826D",
"G.	c #1A2117",
"H.	c #2C1D13",
"I.	c #2A2B17",
"J.	c #4B722E",
"K.	c #C7B68F",
"L.	c #EAC8A9",
"M.	c #9B8F6D",
"N.	c #598836",
"O.	c #957F6A",
"P.	c #192016",
"Q.	c #222F1B",
"R.	c #7C5321",
"S.	c #995C23",
"T.	c #322E17",
"U.	c #BBA287",
"V.	c #C7A380",
"W.	c #7B6F44",
"X.	c #2E431E",
"Y.	c #233119",
"Z.	c #BCA287",
"`.	c #C8A280",
" +	c #745940",
".+	c #232C1F",
"++	c #293425",
"@+	c #293525",
"#+	c #283425",
"$+	c #283324",
"%+	c #222F1A",
"&+	c #4E762F",
"*+	c #85732D",
"=+	c #523B1B",
"-+	c #303419",
";+	c #252415",
">+	c #1C1612",
",+	c #2A2C17",
"'+	c #63401B",
")+	c #4A2D16",
"!+	c #252E22",
"~+	c #25321E",
"{+	c #89702B",
"]+	c #824C1E",
"^+	c #7C5334",
"/+	c #6A492F",
"(+	c #593C23",
"_+	c #755236",
":+	c #935A2E",
"<+	c #24311D",
"[+	c #5C8C38",
"}+	c #5C8B37",
"|+	c #886E2B",
"1+	c #C4A487",
"2+	c #C8A380",
"3+	c #B68B64",
"4+	c #D5B291",
"5+	c #BA8D6B",
"6+	c #1E241B",
"7+	c #334920",
"8+	c #507931",
"9+	c #598736",
"0+	c #4A6D2C",
"a+	c #835A23",
"b+	c #623F21",
"c+	c #68411F",
"d+	c #89501F",
"e+	c #1F271C",
"f+	c #161814",
"g+	c #1E2917",
"h+	c #442F14",
"i+	c #844C1D",
"j+	c #965721",
"k+	c #7D4A1D",
"l+	c #6C411B",
"m+	c #A07752",
"n+	c #B58B64",
"o+	c #8C6441",
"p+	c #452B17",
"q+	c #20291E",
"r+	c #253023",
"s+	c #263023",
"t+	c #2A3325",
"u+	c #1C2017",
"v+	c #77461D",
"w+	c #7B481D",
"x+	c #533114",
"y+	c #322011",
"z+	c #271C12",
"A+	c #291D12",
"B+	c #2A1D12",
"C+	c #281E13",
"D+	c #282C1F",
"E+	c #39301E",
"F+	c #2F3122",
"G+	c #252F22",
"H+	c #95653E",
"I+	c #92623C",
"J+	c #373020",
"K+	c #283224",
"L+	c #2A3125",
"M+	c #7A6F64",
"N+	c #7A665A",
"O+	c #8A796D",
"P+	c #7B665A",
"Q+	c #89766A",
"R+	c #68432A",
"S+	c #674124",
"T+	c #684124",
"U+	c #694125",
"V+	c #694225",
"W+	c #6B4325",
"X+	c #6B4429",
"Y+	c #643F25",
"Z+	c #5C3A22",
"`+	c #422D1B",
" @	c #946038",
".@	c #5A391F",
"+@	c #5D3D23",
"@@	c #241B13",
"#@	c #A76D40",
"$@	c #E3985F",
"%@	c #CE8B56",
"&@	c #90613B",
"*@	c #342F20",
"=@	c #232E21",
"-@	c #37382F",
";@	c #C7B8AB",
">@	c #A89588",
",@	c #D1C0B2",
"'@	c #D1BCAD",
")@	c #AE7144",
"!@	c #AC6D3C",
"~@	c #9D6336",
"{@	c #945D32",
"]@	c #684020",
"^@	c #B67A4C",
"/@	c #895730",
"(@	c #965E33",
"_@	c #402612",
":@	c #9D663B",
"<@	c #D88F56",
"[@	c #C7814C",
"}@	c #E0965C",
"|@	c #CE8A55",
"1@	c #8E603B",
"2@	c #523F28",
"3@	c #2B3223",
"4@	c #3F3E35",
"5@	c #33322A",
"6@	c #413F37",
"7@	c #34342B",
"8@	c #3F3A33",
"9@	c #3C2517",
"0@	c #502F19",
"a@	c #57341A",
"b@	c #693D1C",
"c@	c #72421D",
"d@	c #724629",
"e@	c #5E5D63",
"f@	c #65514C",
"g@	c #4D2E17",
"h@	c #282218",
"i@	c #6A4528",
"j@	c #282219",
"k@	c #302A1D",
"l@	c #151F19",
"m@	c #9C663B",
"n@	c #C88553",
"o@	c #83522D",
"p@	c #8E5930",
"q@	c #A36A3E",
"r@	c #B6794A",
"s@	c #7E522F",
"t@	c #392B19",
"u@	c #20221A",
"v@	c #241A13",
"w@	c #3F2611",
"x@	c #492B11",
"y@	c #577281",
"z@	c #5E899E",
"A@	c #525C64",
"B@	c #1D2319",
"C@	c #543C24",
"D@	c #5C432B",
"E@	c #282E20",
"F@	c #21291C",
"G@	c #212B1E",
"H@	c #2A2F21",
"I@	c #2A2F20",
"J@	c #1A2018",
"K@	c #362110",
"L@	c #43280F",
"M@	c #633B18",
"N@	c #6E421B",
"O@	c #543214",
"P@	c #2B1C11",
"Q@	c #1A1F17",
"R@	c #5F3818",
"S@	c #6B401B",
"T@	c #151713",
"U@	c #151513",
"V@	c #191E14",
"W@	c #202C17",
"X@	c #223118",
"Y@	c #1A2114",
"Z@	c #151613",
"`@	c #20281D",
" #	c #354E21",
".#	c #5B8937",
"+#	c #3A5724",
"@#	c #1D251A",
"##	c #191E17",
"$#	c #1E2916",
"%#	c #375022",
"&#	c #3F5D27",
"*#	c #3D5B26",
"=#	c #28391B",
"-#	c #1B2318",
";#	c #29391B",
">#	c #1C2419",
",#	c #1B2118",
"'#	c #1B2119",
")#	c #4A6F2D",
"!#	c #2C3F1D",
"~#	c #161714",
"{#	c #334A21",
"]#	c #517932",
"^#	c #3D5C2A",
"/#	c #1D2719",
"  . + + + + + + + + + @ # $ $ $ @ + + + % % % % % % % & + @ # $ $ @ + + + + + + ",
"+ + + + + + * = = = = = = - ; $ @ + + + > , , , , , , ' + + + + $ $ $ ) + + + + ",
"! ! ! = . * ~ { { { ] ^ / { ( _ ) + * * : < , , , [ } | 1 * * * $ $ @ * + + + + ",
", , , ; 2 3 4 5 5 5 6 7 8 9 0 a b + ) $ $ $ , , , } c c c ) $ $ $ @ + + + + + + ",
", : d e f g h 5 5 5 5 i j k 9 0 a b * ) @ $ 1 l m n c c c ) $ $ % 1 o o o % + o ",
"p q r s t u h 5 5 5 5 5 v w x 5 y z + + @ $ $ @ c c c c c ) $ $ c c c c c % + c ",
"A B B B C u k 9 D E E E F G H E I z 1 ' ' o o ' c c c c c ' o J c c c d K L M ) ",
"N O P O Q R S k T U V W X Y Z W ` z o c c c c c c c c c c c c c c c c  .......$ ",
"+.N @.#.$.%.Q S &.*.=.-.U ;.>.-.-.,.$ $ o c c c c o + o c c c c c 1 ..'.$ $ $ $ ",
"$ ).!.~.{.].^./.(._.:.<.[.}.|.1.2.,.$ $ o c c c c o + o c c c c c 1 ..'.$ $ $ $ ",
"+ 3.4.5.6.|.7.8.9._.#.0.a.b.c.d.e.,.f.- g.1 c c c ' % o ' c c c 1 b ..h.@ @ @ @ ",
", , , i.j.k.l.8.9._.m.n.o.$.p.;.q.r.M ......c c c c c 1 + ' c c ......s.+ + + + ",
", , , t.u.v.v.w.x.y.z.A.B.C.C.D.E.F.G...M '.% % o o o % + % % g.'.h.s.) + + + ) ",
", , , , i.H.{ I.J.K.L.M.].N.N.K.L.O.P...- $ $ # + + + + + @ $ $ $ @ + + + + + $ ",
"n n n + Q.R.S.0 T.U.V.W.X.W Y.Z.`. +.+< ++@+@+#++ + + + + * * * * * + + + ; '.  ",
"c c $+%+&+#.*+S.i =+-+-+;+>+,+'+)+!+, , , , , p + + + + + + + + + + + + + '.....",
"c c ~+&+#.#.#.{+5 ]+u ^+/+(+_+:+y z #+, , , , [ c o + + + + + + + + + ) $ $ $ + ",
"c c <+_.[+#.}+|+5 ]+u 1+2+3+4+5+y z $+p , , , p c o + + + + + + + + + ) $ $ $ + ",
"+ o 6+7+8+9+0+a+5 ]+u u b+(+c+d+I e++ + > , c c c o + o c c c c c ' + + + + + + ",
"+ o c 6+f+g+h+i+j+k+l+l+m+n+o+p+q+1 1 1 o | c c c ' 1 ' c c c c r+1 * * + % 1 1 ",
"+ s+t+t+t+u+v+w+x+y+z+A+B+B+C+D+E+F+' G+H+I+J+K+c c c c c c c c $ $ $ ) + ' c c ",
"L+M+N+O+P+Q+R+S+T+U+V+W+X+Y+Z+`+ @.@+@@@#@$@%@&@*@J c c c % =@+ $ @ ) % o ' c c ",
"-@;@>@,@>@'@)@!@!@!@!@!@!@~@{@]@^@/@(@_@:@<@[@}@|@1@2@3@c ) $ $ $ @ + o c c c c ",
"g.4@5@6@7@8@9@0@a@b@c@d@e@f@g@h@i@j@k@l@m@n@o@p@q@r@s@t@% + * * * + ' ' c c c * ",
"+ + + ' ' u@>+>+v@w@x@y@z@A@x@y+B@= o ' C@D@g.E@F@G@H@I@+ + + + + % c c c c c $ ",
"+ + + + J@K@L@8.M@u u u u u N@O@P@z + + + + + + + + + + + + + + + + + + + ' c c ",
"* + + * Q@-.K@v.R@S@S@S@S@S@O@P@-.z + + + + + + + + + + + + + + + + + + % ' c ' ",
"..@ * Q@-.-.-.-.T@T@T@U@V@W@X@Y@Z@e++ + + + + + $ @ + + + + + + + + + o c c c $ ",
"..$ Q@-.-.-.-.T@`@$ ;    #o..#+#@#G@G@G@) * * ) $ @ * * * + + + + + + 1 o o o ) ",
"..##-.-.-.-.Z@e++ J@$#%#&#&#*#=#-#......- $ $ $ $ $ $ $ $ * + + + + + + + + + + ",
"..##-.-.-.Z@e++ + J@_.0.&#*#;#>#h.......- $ $ $ $ $ $ $ $ * + + + + + + + + + + ",
"G@,#U@-.-.z + + + '#5.)#B.!#e+* G@h.s.G@= * * * * ) $ ) * + + + + + + + + + + + ",
"+ + '#~#~#e++ + + + '#{#]#^#+ + * $ ) + + + + + + * $ ) + + + + + + + + + + + + ",
"c c c K   + + + + + + + + + + + + + + + + + + + $ $ $ ) + + + + + * $ $ $ * + + ",
"c c c h...+ + + + + + + + + + + + + + + + + + * $ $ $ ) + + + + + * $ $ $ * + + ",
"c G@......+ + + 1 c c c c c c + + + + + + + ..........'.$ $ $ $ $ $ $ ) + + + c ",
"o .   L '.+ + + % o o ' c c c % % * + + = ) ........  - $ @ @ @ @ @ @ * + + + o ",
"$ $ $ * + + + + ) $ $ o c c c c 1 $ ) + L ......../#$ $ $ * + + + + + + + + + $ ",
"$ @ ) + + + + + * ) ) + % c c c ' % * ) - '.'.'.'.h.$ $ $ ) ) ) + + + + + + + ) ",
"$ ) + + + + + + + + + @ $ c c c c c + $ $ $ $ $ $ $ $ $ $ $ $ $ + + + + + + + + "};
