/* XPM */
static char * _33_xpm[] = {
"40 40 229 2",
"  	c #1D2619",
". 	c #212B1D",
"+ 	c #232E20",
"@ 	c #202B1D",
"# 	c #1F2A1D",
"$ 	c #1F2A1C",
"% 	c #242F21",
"& 	c #242F20",
"* 	c #2A3626",
"= 	c #2C3828",
"- 	c #273224",
"; 	c #212C1E",
"> 	c #263223",
", 	c #222C1F",
"' 	c #222D1F",
") 	c #273223",
"! 	c #283424",
"~ 	c #2C3728",
"{ 	c #2B3627",
"] 	c #273324",
"^ 	c #253022",
"/ 	c #1F291C",
"( 	c #1C2518",
"_ 	c #1A2018",
": 	c #191F17",
"< 	c #191E16",
"[ 	c #283325",
"} 	c #242E20",
"| 	c #1E271A",
"1 	c #263123",
"2 	c #7F4A1D",
"3 	c #9B7655",
"4 	c #1B2119",
"5 	c #263122",
"6 	c #2A3526",
"7 	c #293426",
"8 	c #1D231A",
"9 	c #5B3719",
"0 	c #9B5A22",
"a 	c #A87246",
"b 	c #926844",
"c 	c #824C1E",
"d 	c #191E17",
"e 	c #1E291B",
"f 	c #1C2219",
"g 	c #70431C",
"h 	c #8D5320",
"i 	c #273124",
"j 	c #1F281B",
"k 	c #1D271A",
"l 	c #23311C",
"m 	c #22301B",
"n 	c #222F1A",
"o 	c #1E2A17",
"p 	c #A67C56",
"q 	c #141412",
"r 	c #232D1F",
"s 	c #233219",
"t 	c #639939",
"u 	c #633A19",
"v 	c #65441D",
"w 	c #1E281A",
"x 	c #23301E",
"y 	c #4F7A2E",
"z 	c #77B845",
"A 	c #679E3D",
"B 	c #759A3A",
"C 	c #375123",
"D 	c #1A2215",
"E 	c #4B391A",
"F 	c #253021",
"G 	c #222F1D",
"H 	c #6EAA41",
"I 	c #4C712E",
"J 	c #588734",
"K 	c #547E33",
"L 	c #232D20",
"M 	c #1E281B",
"N 	c #4C752C",
"O 	c #3F5D27",
"P 	c #406027",
"Q 	c #5B782C",
"R 	c #573415",
"S 	c #5D8D38",
"T 	c #4C732E",
"U 	c #344C21",
"V 	c #679F3C",
"W 	c #202A1C",
"X 	c #202A1D",
"Y 	c #1E271C",
"Z 	c #3B5A25",
"` 	c #2F451F",
" .	c #44280F",
"..	c #242E21",
"+.	c #1F291B",
"@.	c #3A2C13",
"#.	c #C7B890",
"$.	c #C1A68D",
"%.	c #2C1D11",
"&.	c #322F16",
"*.	c #ECCBAC",
"=.	c #C4AD8E",
"-.	c #804E1F",
";.	c #D0A986",
">.	c #787D31",
",.	c #98866E",
"'.	c #7A6243",
").	c #AB8A6E",
"!.	c #785C42",
"~.	c #21291E",
"{.	c #23301B",
"].	c #5D3D1B",
"^.	c #382210",
"/.	c #CAAA8D",
"(.	c #9F7855",
"_.	c #253023",
":.	c #826041",
"<.	c #222A1F",
"[.	c #293B1B",
"}.	c #42411A",
"|.	c #263023",
"1.	c #283224",
"2.	c #2A3325",
"3.	c #273022",
"4.	c #21281D",
"5.	c #20251A",
"6.	c #824B1C",
"7.	c #804B1E",
"8.	c #6C3F18",
"9.	c #4B2E16",
"0.	c #795D41",
"a.	c #21281E",
"b.	c #39301E",
"c.	c #2F3122",
"d.	c #252F22",
"e.	c #95653E",
"f.	c #92623C",
"g.	c #352D1D",
"h.	c #2E3529",
"i.	c #7A6F65",
"j.	c #7A665A",
"k.	c #8A796D",
"l.	c #7B6659",
"m.	c #887669",
"n.	c #68442A",
"o.	c #6E4525",
"p.	c #6A4224",
"q.	c #694125",
"r.	c #674125",
"s.	c #684125",
"t.	c #6A4225",
"u.	c #623D22",
"v.	c #5A3A22",
"w.	c #422D1B",
"x.	c #946038",
"y.	c #5A391F",
"z.	c #5D3D23",
"A.	c #241B13",
"B.	c #A76D40",
"C.	c #E3985F",
"D.	c #CE8B56",
"E.	c #90603A",
"F.	c #302919",
"G.	c #383930",
"H.	c #C7B8AB",
"I.	c #A89588",
"J.	c #D1C0B2",
"K.	c #D1BCAD",
"L.	c #AE7144",
"M.	c #AC6D3C",
"N.	c #9D6336",
"O.	c #945D32",
"P.	c #684020",
"Q.	c #B67A4C",
"R.	c #895730",
"S.	c #965E33",
"T.	c #402612",
"U.	c #9D663B",
"V.	c #D88F56",
"W.	c #C7814C",
"X.	c #E0965C",
"Y.	c #CE8A55",
"Z.	c #8E603A",
"`.	c #523E27",
" +	c #2A3122",
".+	c #3D3C34",
"++	c #323129",
"@+	c #3F3D35",
"#+	c #323128",
"$+	c #3E3933",
"%+	c #422816",
"&+	c #5A361A",
"*+	c #5A351A",
"=+	c #75441D",
"-+	c #4E6775",
";+	c #74431D",
">+	c #2A1C14",
",+	c #2B281D",
"'+	c #6A4528",
")+	c #292319",
"!+	c #302B1F",
"~+	c #131D17",
"{+	c #9C663B",
"]+	c #C88553",
"^+	c #83522D",
"/+	c #8E5930",
"(+	c #A36A3E",
"_+	c #B6794A",
":+	c #7E522F",
"<+	c #3A2C1A",
"[+	c #472C16",
"}+	c #6E4018",
"|+	c #787E88",
"1+	c #5C8EA5",
"2+	c #202A1E",
"3+	c #533A22",
"4+	c #5B4128",
"5+	c #1F291D",
"6+	c #252B1C",
"7+	c #21291C",
"8+	c #262B1C",
"9+	c #282D1F",
"0+	c #633B18",
"a+	c #69666A",
"b+	c #1D251A",
"c+	c #212B1E",
"d+	c #1A1F17",
"e+	c #192016",
"f+	c #1D2719",
"  . + + + + + + + + + @ # $ $ $ @ + + + % % % % % % % & + @ # $ $ @ + + + + + + ",
"+ + + + + + + + + + + + + $ $ $ @ + + + * = = = = = = - + + + + $ $ $ ; + + + + ",
"> > > , . + + + + + + + + ; @ @ ; + ' ' ) ! = = = ~ { ] ^ ' ' ' $ $ @ ' + + + + ",
"= = = / ( + + + + + + + + + _ _ _ _ : < < < = = = { [ [ [ ; $ $ $ @ + + + + + + ",
"= ) } | ( + + + % 1 1 1 1 _ 2 2 2 2 3 3 2 2 4 5 6 7 [ [ [ ; $ $ % ^ 1 1 1 % + 1 ",
"= + ( ( ( + + + ^ [ [ [ 8 9 0 0 0 0 a b c 0 2 d [ [ [ [ [ ; $ $ [ [ [ [ [ % + [ ",
"' @ e ; , + + + ' ; ; f 9 g 0 0 0 0 0 h g c 0 2 8 [ [ [ [ - 1 i [ [ [ } j | k ; ",
"$ $ $ ' + + + l m n n o g g 0 0 0 0 0 0 p p 0 0 q [ [ [ [ [ [ [ [ [ [ r ( ( ( $ ",
"$ ; + + + + + s t t t t g g c 0 u v v v b b v v q 1 + 1 [ [ [ [ [ ^ ( w $ $ $ $ ",
"$ ; + + + + + x y z A A B B g c q C D D E E D D q 1 + 1 [ [ [ [ [ ^ ( w $ $ $ $ ",
"+ F 5 5 5 5 ^ ' G y H I J A B g q K q q C C q q q - % 1 - [ [ [ ^ L ( M @ @ @ @ ",
"= = = = = = * $ ; x N K O P Q R q S T U K V o o q [ [ ^ + - [ [ ( ( ( W + + + + ",
"= = = = = F } w X + Y Z ` s  . .q S S O S z s s q 1 1 % + % % ..w M W ; + + + ; ",
"= = = = = ( ( ( +.+ + q @.@. . .q S #.O I J C C $._ + + + @ $ $ $ @ + + + + + $ ",
"7 7 7 % + e +.; ' + + Y %.%.%.&.T #.*.O K K K =.*.q + + + ' ' ' ' ' + + + / w   ",
"[ [ [ ; $ $ @ + + + + + Y q 2 -.P *.;.O P P P *.;.q + + + + + + + + + + + w ( ( ",
"[ [ [ [ [ [ [ [ ^ $ $ ' _ T >.0 -.,.'.` D D s ).!.~.+ + + + + + + + + ; $ $ $ + ",
"[ [ [ [ [ [ [ - % $ $ {.T S S >.0 -.].].9 ^.].h q 1 + + + + + + + + + ; $ $ $ + ",
"+ 1 [ [ [ [ - $ $ $ $ s S S S S 0 0 g g /.(./.0 q 1 + 1 [ [ [ [ [ - + + + + + + ",
"+ 1 [ [ [ _.^ ' ' ' ' D I S S I 0 0 g g ).:.).0 q - ^ - [ [ [ [ _.^ ' ' + % ^ ^ ",
"+ 1 [ [ [ $ ; [ [ [ [ <.[.Z P }.0 0 g g g (.g u <.[ [ [ |.1 [ [ $ $ $ ; + - [ [ ",
"+ 1 [ 1 ^ % ^ [ [ 1.2.3.4.5.D 6.7.8.9.9.9.0.9.a.b.c.- d.e.f.g.r $ @ ; % 1 - [ [ ",
"+ 1 [ % + [ [ [ h.i.j.k.l.m.n.o.p.q.r.s.t.u.v.w.x.y.z.A.B.C.D.E.F./ + 1 [ [ [ [ ",
"+ % % 1 - [ [ [ G.H.I.J.I.K.L.M.M.M.M.M.M.N.O.P.Q.R.S.T.U.V.W.X.Y.Z.`. +[ [ [ ' ",
"+ + + - [ [ [ [ |..+++@+#+$+%+&+*+=+=+-+=+;+>+,+'+)+!+~+{+]+^+/+(+_+:+<+[ [ [ $ ",
"+ + + + + + % [ [ [ [ % + q %.[+[+}+|+1+}+}+^._ 2+' + ' 3+4+5+6+7+/ 8+9++ - [ [ ",
"' + + + + % % [ [ - - % _ ^.^.^.9 0+a+a+0+0+0+q + + + + + + + + + + + + % - [ - ",
"( @ + + + [ [ [ ^ $ $ ' q %. . .g g g g g g R q $ @ + + + + + + + + + 1 [ [ [ $ ",
"( @ + + + 1 1 1 % @ @ ' q q %.%.[+[+[+[+[+[+%.b+$ @ ' ' ' + + + + + + ^ 1 1 1 ; ",
"( @ + + + + + + + + + + q U U U U U T T q q q $ $ $ $ $ $ ' + + + + + + + + + + ",
"( @ + + + + + + + + + + T O O O O O S S q q q < $ $ $ $ $ ' + + + + + + + + + + ",
"c+' + + + + + + + + + + I O O O O O I Z q q q q ' ; $ ; ' + + + + + + + + + + + ",
"+ + + + + + + + + + + + K [.[.[.[.[.[.q q q q Y + ' $ ; + + + + + + + + + + + + ",
"[ [ [ j   + + + + + + + Z q Y Y Y Y q q q q q + $ $ $ ; + + + + + ' $ $ $ ' + + ",
"[ [ [ M ( + + + + + + + Y Y + + + + q q q q q d+$ $ $ ; + + + + + ' $ $ $ ' + + ",
"[ c+( ( ( + + + ^ [ [ [ [ [ [ + + + Y Y Y Y e+e+( ( ( w $ $ $ $ $ $ $ ; + + + [ ",
"1 .   | w + + + % 1 1 - [ [ [ % % ' + + , ; ( ( ( (   e $ @ @ @ @ @ @ ' + + + 1 ",
"$ $ $ ' + + + + ; $ $ 1 [ [ [ [ ^ $ ; + | ( ( ( ( f+$ $ $ ' + + + + + + + + + $ ",
"$ @ ; + + + + + ' ; ; + % [ [ [ - % ' ; e w w w w M $ $ $ ; ; ; + + + + + + + ; ",
"$ ; + + + + + + + + + @ $ [ [ [ [ [ + $ $ $ $ $ $ $ $ $ $ $ $ $ + + + + + + + + "};
