/* XPM */
static char * 11_xpm[] = {
"40 40 388 2",
"  	c #1D2619",
". 	c #212B1D",
"+ 	c #232E20",
"@ 	c #202B1D",
"# 	c #1F2A1D",
"$ 	c #1F2A1C",
"% 	c #242F21",
"& 	c #242F20",
"* 	c #2A3626",
"= 	c #2C3828",
"- 	c #273224",
"; 	c #212C1E",
"> 	c #263223",
", 	c #222C1F",
"' 	c #222D1F",
") 	c #273223",
"! 	c #283424",
"~ 	c #2C3728",
"{ 	c #2B3627",
"] 	c #273324",
"^ 	c #253022",
"/ 	c #1F291C",
"( 	c #1C2518",
"_ 	c #181D16",
": 	c #151713",
"< 	c #171915",
"[ 	c #161814",
"} 	c #242D21",
"| 	c #283325",
"1 	c #242E20",
"2 	c #1E271A",
"3 	c #263123",
"4 	c #1A1F17",
"5 	c #814B1E",
"6 	c #955621",
"7 	c #AD7F57",
"8 	c #B58B64",
"9 	c #9E683C",
"0 	c #543218",
"a 	c #1A1F18",
"b 	c #5D3919",
"c 	c #905420",
"d 	c #9B5A22",
"e 	c #9E5F2B",
"f 	c #85542B",
"g 	c #764821",
"h 	c #925521",
"i 	c #965721",
"j 	c #1E271B",
"k 	c #1E291B",
"l 	c #6F421C",
"m 	c #915420",
"n 	c #995922",
"o 	c #7C4A1E",
"p 	c #73451C",
"q 	c #222C20",
"r 	c #273124",
"s 	c #1F281B",
"t 	c #1D271A",
"u 	c #25321E",
"v 	c #23321A",
"w 	c #223119",
"x 	c #623E1B",
"y 	c #70431C",
"z 	c #B08158",
"A 	c #B88C64",
"B 	c #A36B3D",
"C 	c #573317",
"D 	c #232D1F",
"E 	c #22301A",
"F 	c #649B3A",
"G 	c #72B142",
"H 	c #716F2A",
"I 	c #5F3818",
"J 	c #3A3218",
"K 	c #3C371A",
"L 	c #6D4926",
"M 	c #7A4E2A",
"N 	c #533E1F",
"O 	c #242114",
"P 	c #1E281A",
"Q 	c #1F2B1C",
"R 	c #304621",
"S 	c #6AA33D",
"T 	c #679D3D",
"U 	c #609239",
"V 	c #71A940",
"W 	c #76B142",
"X 	c #72702A",
"Y 	c #412815",
"Z 	c #354E22",
"` 	c #253419",
" .	c #161813",
"..	c #2B2E18",
"+.	c #303419",
"@.	c #1F2215",
"#.	c #141512",
"$.	c #253021",
"%.	c #263122",
"&.	c #2F4621",
"*.	c #68A13C",
"=.	c #548032",
"-.	c #45682A",
";.	c #5A8836",
">.	c #3F2715",
",.	c #4F7730",
"'.	c #334D20",
").	c #141412",
"!.	c #3D5A26",
"~.	c #243319",
"{.	c #232D20",
"].	c #1E281B",
"^.	c #283B1C",
"/.	c #517B31",
"(.	c #486B2C",
"_.	c #324A20",
":.	c #44451A",
"<.	c #4A3413",
"[.	c #2A1C12",
"}.	c #517A31",
"|.	c #5A8936",
"1.	c #46682B",
"2.	c #547F33",
"3.	c #6DA840",
"4.	c #446A29",
"5.	c #223018",
"6.	c #191E14",
"7.	c #202A1C",
"8.	c #202A1D",
"9.	c #1F291B",
"0.	c #212E19",
"a.	c #25361A",
"b.	c #243419",
"c.	c #3D2B12",
"d.	c #44280F",
"e.	c #281B11",
"f.	c #5D8D38",
"g.	c #496D2C",
"h.	c #568234",
"i.	c #71AE42",
"j.	c #476D2A",
"k.	c #233219",
"l.	c #191F14",
"m.	c #20291E",
"n.	c #242E21",
"o.	c #161A14",
"p.	c #392411",
"q.	c #422910",
"r.	c #43280F",
"s.	c #CAB992",
"t.	c #888560",
"u.	c #416128",
"v.	c #405F27",
"w.	c #C6AE90",
"x.	c #7F6E5C",
"y.	c #1D261A",
"z.	c #293426",
"A.	c #1F2018",
"B.	c #1C1612",
"C.	c #252C17",
"D.	c #CAB892",
"E.	c #EACAAA",
"F.	c #8D8764",
"G.	c #5B8937",
"H.	c #C9B791",
"I.	c #EAC9AA",
"J.	c #857260",
"K.	c #1F281C",
"L.	c #1A2018",
"M.	c #814C1E",
"N.	c #613815",
"O.	c #271D12",
"P.	c #27391B",
"Q.	c #CEB396",
"R.	c #CFA884",
"S.	c #777145",
"T.	c #2C411D",
"U.	c #6D553F",
"V.	c #20291D",
"W.	c #4D762F",
"X.	c #628936",
"Y.	c #8F6A29",
"Z.	c #975821",
"`.	c #79471D",
" +	c #503114",
".+	c #514935",
"++	c #4B472F",
"@+	c #313B1F",
"#+	c #1B2415",
"$+	c #202D17",
"%+	c #725237",
"&+	c #59412D",
"*+	c #261F18",
"=+	c #23311C",
"-+	c #4E7730",
";+	c #5C8B37",
">+	c #638A37",
",+	c #7A481D",
"'+	c #6C411C",
")+	c #6C421C",
"!+	c #503013",
"~+	c #41270F",
"{+	c #623C19",
"]+	c #8D5320",
"^+	c #553217",
"/+	c #23311B",
"(+	c #527C32",
"_+	c #8D6B29",
":+	c #7E4A1E",
"<+	c #CDAC8F",
"[+	c #C49D7A",
"}+	c #B68B64",
"|+	c #D9B697",
"1+	c #B3825F",
"2+	c #253023",
"3+	c #1A2017",
"4+	c #3A5624",
"5+	c #578334",
"6+	c #4B702E",
"7+	c #8A5C24",
"8+	c #7D5537",
"9+	c #66462C",
"0+	c #593C23",
"a+	c #795438",
"b+	c #955A2C",
"c+	c #1F271A",
"d+	c #212D17",
"e+	c #2A3D1C",
"f+	c #3E3516",
"g+	c #8A511E",
"h+	c #A77D57",
"i+	c #885E3A",
"j+	c #4B2D16",
"k+	c #211813",
"l+	c #232B20",
"m+	c #283225",
"n+	c #1D281A",
"o+	c #232E21",
"p+	c #242D1F",
"q+	c #262F21",
"r+	c #282F22",
"s+	c #1E2219",
"t+	c #804B1E",
"u+	c #7D4A1E",
"v+	c #5B3515",
"w+	c #3C2513",
"x+	c #332113",
"y+	c #423021",
"z+	c #473524",
"A+	c #392819",
"B+	c #3A2D1A",
"C+	c #2C2C1D",
"D+	c #222D21",
"E+	c #95643D",
"F+	c #92623B",
"G+	c #342B1B",
"H+	c #272E22",
"I+	c #7A6E64",
"J+	c #7A6659",
"K+	c #8A796D",
"L+	c #7B665A",
"M+	c #89766A",
"N+	c #69442A",
"O+	c #684224",
"P+	c #674124",
"Q+	c #684025",
"R+	c #674125",
"S+	c #684125",
"T+	c #6A4225",
"U+	c #623D22",
"V+	c #5D3A20",
"W+	c #442D1A",
"X+	c #946038",
"Y+	c #5A391E",
"Z+	c #5C3C22",
"`+	c #231911",
" @	c #A76D40",
".@	c #E3985F",
"+@	c #CE8B56",
"@@	c #90613B",
"#@	c #342F20",
"$@	c #263023",
"%@	c #36362D",
"&@	c #C7B8AB",
"*@	c #A89588",
"=@	c #D1C0B2",
"-@	c #D1BCAD",
";@	c #AE7144",
">@	c #AC6D3C",
",@	c #9D6336",
"'@	c #945D32",
")@	c #684020",
"!@	c #B67A4C",
"~@	c #895730",
"{@	c #965E33",
"]@	c #402612",
"^@	c #9D663B",
"/@	c #D88F56",
"(@	c #C7814C",
"_@	c #E0965C",
":@	c #CE8A55",
"<@	c #8E603B",
"[@	c #523F28",
"}@	c #262C1E",
"|@	c #3E3E35",
"1@	c #33322A",
"2@	c #403E36",
"3@	c #403D34",
"4@	c #34251A",
"5@	c #3E2616",
"6@	c #543219",
"7@	c #5A361A",
"8@	c #6F401C",
"9@	c #75441D",
"0@	c #5A5E67",
"a@	c #6A4F44",
"b@	c #452915",
"c@	c #6A4428",
"d@	c #282218",
"e@	c #2F281C",
"f@	c #121C16",
"g@	c #9C663B",
"h@	c #C88553",
"i@	c #83522D",
"j@	c #8E5930",
"k@	c #A36A3E",
"l@	c #B6794A",
"m@	c #7E522F",
"n@	c #372814",
"o@	c #191D17",
"p@	c #1A1612",
"q@	c #251A13",
"r@	c #281C13",
"s@	c #482B12",
"t@	c #512F11",
"u@	c #5F7A89",
"v@	c #5E8DA3",
"w@	c #54575C",
"x@	c #462910",
"y@	c #231A11",
"z@	c #20281D",
"A@	c #533A22",
"B@	c #5B4128",
"C@	c #1F291D",
"D@	c #252B1C",
"E@	c #21291C",
"F@	c #2A2F21",
"G@	c #2C3223",
"H@	c #392311",
"I@	c #623A18",
"J@	c #6C411B",
"K@	c #6D411B",
"L@	c #6E4B35",
"M@	c #6E4E3C",
"N@	c #6D4527",
"O@	c #3D2615",
"P@	c #3C2410",
"Q@	c #663D19",
"R@	c #563314",
"S@	c #181C16",
"T@	c #201812",
"U@	c #161512",
"V@	c #354D21",
"W@	c #527D32",
"X@	c #598736",
"Y@	c #324B20",
"Z@	c #1C2419",
"`@	c #375123",
" #	c #344F21",
".#	c #1C251A",
"+#	c #212B1E",
"@#	c #171B15",
"##	c #1E261B",
"$#	c #426329",
"%#	c #27371A",
"&#	c #171C15",
"*#	c #3F5D27",
"=#	c #1F271C",
"-#	c #191D16",
";#	c #537D32",
">#	c #334C21",
",#	c #1C2418",
"'#	c #24341B",
")#	c #27391C",
"!#	c #23311A",
"~#	c #27381D",
"{#	c #212F1C",
"]#	c #1D2719",
"  . + + + + + + + + + @ # $ $ $ @ + + + % % % % % % % & + @ # $ $ @ + + + + + + ",
"+ + + + + + + + + + + + + $ $ $ @ + + + * = = = = = = - + + + + $ $ $ ; + + + + ",
"> > > , . + + + + + + + + ; @ @ ; + ' ' ) ! = = = ~ { ] ^ ' ' ' $ $ @ ' + + + + ",
"= = = / ( + + + + + + + + + + + + + ; _ : : < < < < [ } | ; $ $ $ @ + + + + + + ",
"= ) 1 2 ( + + + % 3 3 3 3 + + + + + 4 5 6 6 6 7 8 9 6 0 } ; $ $ % ^ 3 3 3 % + 3 ",
"= + ( ( ( + + + ^ | | | | + + + + a b c d d d e f g h i 0 j $ $ | | | | | % + | ",
"' @ k ; , + + + ' ; ; 3 | - - + a b l m d d d d n o p h i 0 q r | | | 1 s 2 t ; ",
"$ $ $ ' + + + + ; $ $ 3 u v v v w x y m d d d d d z A B d C } | | | | D ( ( ( $ ",
"$ ; + + + + + + + + + @ E F G G G H y p h I J K K L M N K O } | | ^ ( P $ $ $ $ ",
"$ ; + + + + + + + + + @ Q R S T U V W X p Y Z `  ...+.@. .#.} | | ^ ( P $ $ $ $ ",
"+ $.%.%.%.%.^ ' ' + + ; @ ) &.*.=.-.;.V X >.,.'.).Z !.~.).).} | ^ {.( ].@ @ @ @ ",
"= = = = = = * $ ; + + + + + + ^./.(._.:.<.[.}.|.1.2.3.4.5.6.} | ( ( ( 7.+ + + + ",
"= = = = = $.1 P 8.+ + + + + + 9.0.a.b.c.d.e.}.f.g.h.i.j.k.l.m.n.P ].7.; + + + ; ",
"= = = = = ( ( ( 9.+ + + + + ' ( o.p.q.r.d.e.}.s.t.u.-.v.!.w.x.y.$ @ + + + + + $ ",
"z.z.z.% + k 9.; ' + + + + ].P k . A.B.B.C.,.D.E.F.2.G.G.H.I.J.K.' ' + + + / P   ",
"| | | ; $ $ @ + + + + + + ( ( $ L.M.6 N.O.P.Q.R.S._.T.T.Q.R.U.V.+ + + + + P ( ( ",
"| | | | | | | | ^ $ $ ' + + + a W.X.Y.Z.`. +.+++@+#+ .$+%+&+*+V.+ + + ; $ $ $ + ",
"| | | | | | | - % $ $ ' + + =+-+;+f.>+Y.n ,+'+)+)+!+~+{+]+^+).V.+ + + ; $ $ $ + ",
"+ 3 | | | | - $ $ $ $ ' + + /+(+f.f.f._+d :+y y <+[+}+|+1+C ).} | - + + + + + + ",
"+ 3 | | | 2+^ ' ' ' ' % ^ + 3+4+5+f.6+7+d :+y y 8+9+0+a+b+C ).} 2+^ ' ' + % ^ ^ ",
"+ 3 | | | $ ; | | | | | | + ' c+d+e+f+g+d :+y y y h+}+i+j+k+l+m+n+].$ ; + - | | ",
"+ 3 | 3 ^ % ^ | | | | ^ o+; p+q+r+s+t+u+v+w+x+x+x+y+z+A+B+C+D+8.E+F+G+1 3 - | | ",
"+ 3 | % + | | | | | | ' H+I+J+K+L+M+N+O+P+Q+R+S+T+U+V+W+X+Y+Z+`+ @.@+@@@#@r | | ",
"+ % % 3 - | | | $@; ; @ %@&@*@=@*@-@;@>@>@>@>@>@>@,@'@)@!@~@{@]@^@/@(@_@:@<@[@}@",
"+ + + - | | | | ^ $ $ $ . |@1@2@1@3@4@5@6@7@8@9@9@0@a@b@c@d@e@f@g@h@i@j@k@l@m@n@",
"+ + + + + + % | | | | % + + + + + + o@p@q@r@s@t@u@v@w@x@y@z@+ ' A@B@C@D@E@{.F@G@",
"' + + + + % % | | - - % + + + + + a H@~+~+I@J@K@L@M@N@K@O@V.+ + + + + + % - | - ",
"( @ + + + | | | ^ $ $ ' + + + + + o@p@P@d.Q@y y y y y R@[.V.+ + + + + 3 | | | $ ",
"( @ + + + 3 3 3 % @ @ ' + + + ' ; S@).p@B.q@r@r@r@r@r@T@U@V.+ + + + + ^ 3 3 3 ; ",
"( @ + + + + + + + + + + + + + $ ].o.).).).).).).V@W@X@Y@Z@' + + + + + + + + + + ",
"( @ + + + + + + + + + + + + + $ ].o.).).).).).).`@h.f. #.#' + + + + + + + + + + ",
"+#' + + + + + + + + + + + + + ' +#@#).).).).##S@`@u.$#%#K.+ + + + + + + + + + + ",
"+ + + + + + + + + + + + + + + + ' &#).).).).V.o@`@*#*#` V.+ + + + + + + + + + + ",
"| | | s   + + + + + + + + + + + + o@).=#, , + o@`@*#*#` V.+ + + + ' $ $ $ ' + + ",
"| | | ].( + + + + + + + + + + + + ' , + + + + -#,.G.(.;#>#V.+ + + ' $ $ $ ' + + ",
"| +#( ( ( + + + ^ | | | | | | + + + + + + + ( ,#'#)#!#~#{#$ $ $ $ $ $ ; + + + | ",
"3 .   2 P + + + % 3 3 - | | | % % ' + + , ; ( ( ( (   k $ @ @ @ @ @ @ ' + + + 3 ",
"$ $ $ ' + + + + ; $ $ 3 | | | | ^ $ ; + 2 ( ( ( ( ]#$ $ $ ' + + + + + + + + + $ ",
"$ @ ; + + + + + ' ; ; + % | | | - % ' ; k P P P P ].$ $ $ ; ; ; + + + + + + + ; ",
"$ ; + + + + + + + + + @ $ | | | | | + $ $ $ $ $ $ $ $ $ $ $ $ $ + + + + + + + + "};
