/* XPM */
static char * 22_xpm[] = {
"40 40 236 2",
"  	c #1D2619",
". 	c #212B1D",
"+ 	c #232E20",
"@ 	c #202B1D",
"# 	c #1F2A1D",
"$ 	c #1F2A1C",
"% 	c #242F21",
"& 	c #242F20",
"* 	c #2A3626",
"= 	c #2C3828",
"- 	c #273224",
"; 	c #212C1E",
"> 	c #263223",
", 	c #222C1F",
"' 	c #222D1F",
") 	c #273223",
"! 	c #283424",
"~ 	c #232B20",
"{ 	c #222A1F",
"] 	c #20281D",
"^ 	c #1E261C",
"/ 	c #1C241A",
"( 	c #1B2218",
"_ 	c #1F291C",
": 	c #1C2518",
"< 	c #232C20",
"[ 	c #6D3F1A",
"} 	c #856649",
"| 	c #1B2219",
"1 	c #242E20",
"2 	c #1E271A",
"3 	c #263123",
"4 	c #253022",
"5 	c #1F271C",
"6 	c #4F3017",
"7 	c #9B5A22",
"8 	c #AF7C51",
"9 	c #A07650",
"0 	c #8A511F",
"a 	c #283325",
"b 	c #70431C",
"c 	c #864E1F",
"d 	c #20281E",
"e 	c #1E291B",
"f 	c #24311E",
"g 	c #25321F",
"h 	c #25311F",
"i 	c #1C2515",
"j 	c #996F4A",
"k 	c #141412",
"l 	c #1F281B",
"m 	c #1D271A",
"n 	c #233219",
"o 	c #568532",
"p 	c #76451C",
"q 	c #784B1E",
"r 	c #212F1A",
"s 	c #5D8F36",
"t 	c #77B845",
"u 	c #6CA63F",
"v 	c #738933",
"w 	c #324920",
"x 	c #1D2716",
"y 	c #573C1B",
"z 	c #6AA23E",
"A 	c #517A31",
"B 	c #62973A",
"C 	c #4E7630",
"D 	c #253021",
"E 	c #263122",
"F 	c #1F291B",
"G 	c #23301D",
"H 	c #5B8D35",
"I 	c #3F5D27",
"J 	c #496F2D",
"K 	c #648E34",
"L 	c #5F3917",
"M 	c #5D8D38",
"N 	c #416328",
"O 	c #2D411D",
"P 	c #5E9037",
"Q 	c #181D15",
"R 	c #476B2B",
"S 	c #344D21",
"T 	c #44280F",
"U 	c #1E281A",
"V 	c #202A1D",
"W 	c #202A1C",
"X 	c #352E15",
"Y 	c #B1AD7E",
"Z 	c #A78F79",
"` 	c #1D251A",
" .	c #1A2017",
"..	c #342010",
"+.	c #382D14",
"@.	c #ECCBAC",
"#.	c #AB9C7B",
"$.	c #293426",
"%.	c #1E281B",
"&.	c #222C1E",
"*.	c #293425",
"=.	c #293525",
"-.	c #D8B492",
";.	c #83752D",
">.	c #513A1A",
",.	c #B69E84",
"'.	c #917250",
").	c #C1A084",
"!.	c #906F4F",
"~.	c #1C2219",
"{.	c #283425",
"].	c #283522",
"^.	c #301F11",
"/.	c #283324",
"(.	c #2B3727",
"_.	c #B6957A",
":.	c #8C6948",
"<.	c #96714F",
"[.	c #253023",
"}.	c #1F271D",
"|.	c #31471F",
"1.	c #414A1E",
"2.	c #1F251C",
"3.	c #764419",
"4.	c #7D481B",
"5.	c #583518",
"6.	c #926F4F",
"7.	c #906D4E",
"8.	c #1C2017",
"9.	c #2B2F1F",
"0.	c #353423",
"a.	c #2A3224",
"b.	c #232E21",
"c.	c #2B3527",
"d.	c #424439",
"e.	c #524F43",
"f.	c #565247",
"g.	c #464336",
"h.	c #504C40",
"i.	c #433B29",
"j.	c #3D301F",
"k.	c #79481F",
"l.	c #603A1C",
"m.	c #472C15",
"n.	c #3B2716",
"o.	c #382616",
"p.	c #412814",
"q.	c #3A2412",
"r.	c #472A13",
"s.	c #342919",
"t.	c #323020",
"u.	c #795434",
"v.	c #AA7247",
"w.	c #594027",
"x.	c #363726",
"y.	c #293325",
"z.	c #343B2F",
"A.	c #776E65",
"B.	c #A08D80",
"C.	c #AD9B8E",
"D.	c #897465",
"E.	c #A99487",
"F.	c #8D5F3F",
"G.	c #885730",
"H.	c #88562F",
"I.	c #89572F",
"J.	c #84542E",
"K.	c #80512C",
"L.	c #553C2D",
"M.	c #825430",
"N.	c #82522E",
"O.	c #55361D",
"P.	c #7B502F",
"Q.	c #DF965E",
"R.	c #DB945D",
"S.	c #AF7549",
"T.	c #503B25",
"U.	c #263023",
"V.	c #30372B",
"W.	c #6D655D",
"X.	c #897D73",
"Y.	c #988C81",
"Z.	c #6D5F55",
"`.	c #99897D",
" +	c #855A3B",
".+	c #83532E",
"++	c #85542D",
"@+	c #88562E",
"#+	c #89562E",
"$+	c #8D582F",
"%+	c #88552E",
"&+	c #82522C",
"*+	c #554036",
"=+	c #815433",
"-+	c #85542F",
";+	c #56361D",
">+	c #7B4F2E",
",+	c #DD945C",
"'+	c #C37F4A",
")+	c #D28B54",
"!+	c #D6905B",
"~+	c #2E3629",
"{+	c #31392C",
"]+	c #2D3528",
"^+	c #333A2D",
"/+	c #303525",
"(+	c #251B14",
"_+	c #3C2513",
":+	c #59371A",
"<+	c #5A371A",
"[+	c #7E491D",
"}+	c #837272",
"|+	c #59859A",
"1+	c #5D381B",
"2+	c #412916",
"3+	c #322C1E",
"4+	c #6B482A",
"5+	c #B3784A",
"6+	c #614227",
"7+	c #6C4829",
"8+	c #764E2E",
"9+	c #5B3616",
"0+	c #66747F",
"a+	c #583516",
"b+	c #161512",
"c+	c #343221",
"d+	c #4D3E28",
"e+	c #2A3123",
"f+	c #293123",
"g+	c #283022",
"h+	c #553418",
"i+	c #212B1E",
"j+	c #1A2117",
"k+	c #344C24",
"l+	c #496F2F",
"m+	c #1D2719",
"  . + + + + + + + + + @ # $ $ $ @ + + + % % % % % % % & + @ # $ $ @ + + + + + + ",
"+ + + + + + + + + + + + + $ $ $ @ + + + * = = = = = = - + + + + $ $ $ ; + + + + ",
"> > > , . + + + + + + + + ; @ @ ; + ' ' ) ! = = = ~ { ] ^ / / / ( $ @ ' + + + + ",
"= = = _ : + + + + + + + + + + + + + ; $ $ $ = = < [ [ [ [ } } [ [ | + + + + + + ",
"= ) 1 2 : + + + % 3 3 3 3 + + + + + ' ; @ $ 4 5 6 7 7 7 7 8 9 0 7 [ 5 3 3 % + 3 ",
"= + : : : + + + 4 a a a a + + + + + + + @ $ ( 6 b 7 7 7 7 7 c b 0 7 [ d a % + a ",
"' @ e ; , + + + ' ; ; 3 a - - + + + f g g h i b b 7 7 7 7 7 7 j j 7 7 k l 2 m ; ",
"$ $ $ ' + + + + ; $ $ 3 a a a + + + n o o o o b b 0 7 p q q q 9 9 q q k : : : $ ",
"$ ; + + + + + + + + + @ $ a - $ $ $ r s t u u v v b 0 k w x x y y x x k $ $ $ $ ",
"$ ; + + + + + + + + + @ $ a - $ $ $ $ r s z A B u v b k C k k w w k k k $ $ $ $ ",
"+ D E E E E 4 ' ' + + ; @ - 3 @ @ $ F e G H C I J K L k M N O C P i i k @ @ @ @ ",
"= = = = = = * $ ; + + + + + + + ' $ m : : Q R S n T T k M M I M t n n k + + + + ",
"= = = = = D 1 U V + + + + + + W _ U   : m U k X X T T k M Y I A B w w Z ` + + ; ",
"= = = = = : : : F + + + + + ' : : : : : e $  .......+.N Y @.I C C C #.@.k + + $ ",
"$.$.$.% + e F ; ' + + + + %.U e &.! ! ! *.=.=.k [ [ x J @.-.I J J J @.-.k _ U   ",
"a a a ; $ $ @ + + + + + + : : $ & = = = = = < N ;.7 [ >.,.'.S x x n ).!.~.U : : ",
"a a a a a a a a 4 $ $ ' + + + + + + {.= = ].N M M ;.7 c >.>.>.^.^.>.c k $ $ $ + ",
"a a a a a a a - % $ $ ' + + + + + + /.(.= n M M M M 7 7 b b _.:.:._.7 k $ $ $ + ",
"+ 3 a a a a - $ $ $ $ ' + + + + + + + + * x A M M A 7 7 b b ).<.<.).7 k + + + + ",
"+ 3 a a a [.4 ' ' ' ' % 4 + + 4 4 4 4 4 {.}.|.R J 1.7 7 b b b :.:.b p | + % 4 4 ",
"+ 3 a a a $ ; a a a a a a + + a a a a a % + 2.2.x 3.0 4.5.5.5.6.7.5.8.9.0.a.a a ",
"+ 3 a 3 4 % 4 a a a a 4 b.; ; 4 3 c.d.e.f.g.h.i.j.k.l.m.n.o.p.q.r.s.t.u.v.w.x.y.",
"+ 3 a % + a a a a a a ' $ $ $ + 4 z.A.B.C.D.E.F.G.H.H.H.I.J.K.L.M.N.O.P.Q.R.S.T.",
"+ % % 3 - a a a U.; ; @ $ ' ' + + V.W.X.Y.Z.`. +.+++@+#+$+%+&+*+=+-+;+>+,+'+)+!+",
"+ + + - a a a a 4 $ $ $ $ + + + + + y.~+{+]+^+/+(+_+:+<+[+[+}+|+1+2+3+4+5+6+7+8+",
"+ + + + + + % a a a a % + + + + + + + + + + + ` ^.^.^.6 9+9+0+0+a+9+b+c+d+e+f+g+",
"' + + + + % % a a - - % + + + + + + + + + + + k ..T T b b b b b L h+k ` % - a - ",
": @ + + + a a a 4 $ $ ' + + + + + + + + + + ` k k ....h+h+h+h+h+..k k k a a a $ ",
": @ + + + 3 3 3 % @ @ ' + + + ' ; i+i+i+; / O O N N k | | ~.~.k k k k k 3 3 3 ; ",
": @ + + + + + + + + + + + + + $ %.: : : j+O I I A R  .$ $ / ` k k k k k + + + + ",
": @ + + + + + + + + + + + + + $ %.: : : k C I I |. .$ $ $ k k k k k k k + + + + ",
"i+' + + + + + + + + + + + + + ' i+%.W i+k M I |.| ; $ ; ' k k k k k k ~.+ + + + ",
"+ + + + + + + + + + + + + + + + ' $ ; + ~.R I N + ' $ ; + k k ~.~.~.~.+ + + + + ",
"a a a l   + + + + + + + + + + + + + + + + ~.k+l+$ $ $ ; + ~.~.+ + ' $ $ $ ' + + ",
"a a a %.: + + + + + + + + + + + + + + + + + + ' $ $ $ ; + + + + + ' $ $ $ ' + + ",
"a i+: : : + + + 4 a a a a a a + + + + + + + : : : : : U $ $ $ $ $ $ $ ; + + + a ",
"3 .   2 U + + + % 3 3 - a a a % % ' + + , ; : : : :   e $ @ @ @ @ @ @ ' + + + 3 ",
"$ $ $ ' + + + + ; $ $ 3 a a a a 4 $ ; + 2 : : : : m+$ $ $ ' + + + + + + + + + $ ",
"$ @ ; + + + + + ' ; ; + % a a a - % ' ; e U U U U %.$ $ $ ; ; ; + + + + + + + ; ",
"$ ; + + + + + + + + + @ $ a a a a a + $ $ $ $ $ $ $ $ $ $ $ $ $ + + + + + + + + "};
