/* XPM */
static char * 33_xpm[] = {
"40 40 230 2",
"  	c #1D2619",
". 	c #212B1D",
"+ 	c #232E20",
"@ 	c #202B1D",
"# 	c #1F2A1D",
"$ 	c #1F2A1C",
"% 	c #242F21",
"& 	c #242F20",
"* 	c #2A3626",
"= 	c #2C3828",
"- 	c #2A3627",
"; 	c #263023",
"> 	c #222C1F",
", 	c #1E291B",
"' 	c #212C1E",
") 	c #263223",
"! 	c #222D1F",
"~ 	c #273223",
"{ 	c #283424",
"] 	c #352214",
"^ 	c #413225",
"/ 	c #1F291C",
"( 	c #1C2518",
"_ 	c #281C13",
": 	c #9B5A22",
"< 	c #BA8D64",
"[ 	c #B88C64",
"} 	c #985821",
"| 	c #242E20",
"1 	c #1E271A",
"2 	c #263123",
"3 	c #242E21",
"4 	c #70431C",
"5 	c #75451D",
"6 	c #252F22",
"7 	c #253022",
"8 	c #283325",
"9 	c #232E1F",
"0 	c #202C1D",
"a 	c #1F2B1C",
"b 	c #161813",
"c 	c #7A4E2A",
"d 	c #141412",
"e 	c #273224",
"f 	c #233219",
"g 	c #324C20",
"h 	c #955621",
"i 	c #955721",
"j 	c #1F281B",
"k 	c #1D271A",
"l 	c #23321A",
"m 	c #72B142",
"n 	c #77B845",
"o 	c #75B544",
"p 	c #715722",
"q 	c #26381B",
"r 	c #223018",
"s 	c #6C421C",
"t 	c #233119",
"u 	c #609239",
"v 	c #5B8937",
"w 	c #73B243",
"x 	c #426329",
"y 	c #72B042",
"z 	c #3F5D27",
"A 	c #598836",
"B 	c #73B142",
"C 	c #6D411B",
"D 	c #5D8D38",
"E 	c #223118",
"F 	c #1B2215",
"G 	c #466A2B",
"H 	c #253021",
"I 	c #263122",
"J 	c #1F291B",
"K 	c #161814",
"L 	c #598736",
"M 	c #3D5A26",
"N 	c #44280F",
"O 	c #273118",
"P 	c #74944D",
"Q 	c #51463A",
"R 	c #1E281A",
"S 	c #202A1D",
"T 	c #202A1C",
"U 	c #41270F",
"V 	c #422910",
"W 	c #ECCBAC",
"X 	c #626D43",
"Y 	c #151713",
"Z 	c #3C371A",
"` 	c #E8C7A7",
" .	c #293426",
"..	c #1E281B",
"+.	c #222C1E",
"@.	c #293425",
"#.	c #293525",
"$.	c #283425",
"%.	c #976025",
"&.	c #E2C3A5",
"*.	c #B58C64",
"=.	c #E4C3A5",
"-.	c #B58B64",
";.	c #161714",
">.	c #2A3726",
",.	c #303419",
"'.	c #1C1612",
").	c #825B3E",
"!.	c #593C23",
"~.	c #283324",
"{.	c #2B3727",
"].	c #B68B64",
"^.	c #3C5926",
"/.	c #3F5A25",
"(.	c #253023",
"_.	c #293526",
":.	c #492B11",
"<.	c #965721",
"[.	c #6C411B",
"}.	c #6B401B",
"|.	c #241D16",
"1.	c #343322",
"2.	c #262E20",
"3.	c #2B3527",
"4.	c #424439",
"5.	c #524F43",
"6.	c #575348",
"7.	c #464235",
"8.	c #4F4B40",
"9.	c #443C2A",
"0.	c #413A27",
"a.	c #3F3927",
"b.	c #3E3926",
"c.	c #332217",
"d.	c #6F441E",
"e.	c #4B2D14",
"f.	c #362415",
"g.	c #2F2013",
"h.	c #432913",
"i.	c #382515",
"j.	c #362617",
"k.	c #785333",
"l.	c #AA7247",
"m.	c #583E25",
"n.	c #363625",
"o.	c #293325",
"p.	c #232E21",
"q.	c #33392D",
"r.	c #776E65",
"s.	c #A08D80",
"t.	c #AD9B8E",
"u.	c #897465",
"v.	c #A99487",
"w.	c #8D5F3F",
"x.	c #885730",
"y.	c #88562F",
"z.	c #87552F",
"A.	c #82522D",
"B.	c #7C502E",
"C.	c #54341B",
"D.	c #805430",
"E.	c #84532E",
"F.	c #55361D",
"G.	c #7B502F",
"H.	c #DF965E",
"I.	c #DB945D",
"J.	c #AF7549",
"K.	c #503B25",
"L.	c #313525",
"M.	c #31372B",
"N.	c #6D665D",
"O.	c #897D73",
"P.	c #988C81",
"Q.	c #6D5F55",
"R.	c #99897D",
"S.	c #855A3B",
"T.	c #83542E",
"U.	c #84542F",
"V.	c #85542D",
"W.	c #89562E",
"X.	c #88552E",
"Y.	c #7E5842",
"Z.	c #5C381D",
"`.	c #815433",
" +	c #89562F",
".+	c #56351D",
"++	c #7B4F2E",
"@+	c #DD945C",
"#+	c #C37F4A",
"$+	c #D28B54",
"%+	c #D7915B",
"&+	c #A06B42",
"*+	c #273123",
"=+	c #2C3427",
"-+	c #31392C",
";+	c #2D3528",
">+	c #333A2D",
",+	c #303525",
"'+	c #313324",
")+	c #261C15",
"!+	c #482C12",
"~+	c #6E421D",
"{+	c #965F3D",
"]+	c #608A9F",
"^+	c #8D5220",
"/+	c #6C401E",
"(+	c #925523",
"_+	c #302015",
":+	c #6B472A",
"<+	c #B3784A",
"[+	c #614227",
"}+	c #6C4829",
"|+	c #775030",
"1+	c #5F3F23",
"2+	c #2E4025",
"3+	c #2B3825",
"4+	c #304227",
"5+	c #5E899E",
"6+	c #472A11",
"7+	c #2C1F16",
"8+	c #4E402B",
"9+	c #2B3224",
"0+	c #293123",
"a+	c #283022",
"b+	c #23281A",
"c+	c #5A8836",
"d+	c #273124",
"e+	c #212B1E",
"f+	c #161713",
"g+	c #1D2719",
"  . + + + + + + + + + @ # $ $ $ @ + + + % % % % % % % & + @ # $ $ @ + + + + + + ",
"+ + + + + + + + + + + + + $ $ $ @ + + + * = = = = - - ; > > > > , $ $ ' + + + + ",
") ) ) > . + + + + + + + + ' @ @ ' + ! ! ~ { = = - ] ] ] ] ^ ^ ] ] , @ ! + + + + ",
"= = = / ( + + + + + + + + + + + + + ' $ $ $ = - _ : : : : < [ } : ] > + + + + + ",
"= ~ | 1 ( + + + % 2 2 2 2 + + + + + ! ' @ $ 3 _ 4 : : : : : 5 4 } : ] 6 2 % + 2 ",
"= + ( ( ( + + + 7 8 8 8 8 + + + + + 9 9 0 a b 4 4 : : : : : : c c : : d 8 % + 8 ",
"! @ , ' > + + + ! ' ' 2 8 e e + + + f g g g g 4 4 } : h i i i [ [ i i d j 1 k ' ",
"$ $ $ ! + + + + ' $ $ 2 8 8 8 + + + l m n o o p p 4 } d q r r s s r r d ( ( ( $ ",
"$ ' + + + + + + + + + @ $ 8 e $ $ $ $ t m u v w o p 4 d x d d q q d d d $ $ $ $ ",
"$ ' + + + + + + + + + @ $ 8 e $ $ $ $ $ l y x z A B C d D E F x G b b d $ $ $ $ ",
"+ H I I I I 7 ! ! + + ' @ e 2 @ @ $ J , 3 K L M f N N d D D z D n f f d @ @ @ @ ",
"= = = = = = * $ ' + + + + + + + ! $ k ( ( ( d O O N N d D P z v w q q Q > + + + ",
"= = = = = H | R S + + + + + + T / R   ( k R K U U U V E P W z x x x X W d + + ' ",
"= = = = = ( ( ( J + + + + + ! ( ( ( ( ( , $ $ Y d ] Z A W ` z A A A W ` d + + $ ",
" . . .% + , J ' ! + + + + ..R , +.{ { { @.#.#.$.d %.%.Z &.*.M r r f =.-.;./ R   ",
"8 8 8 ' $ $ @ + + + + + + ( ( $ & = = = = = = >.E D D %.Z ,.,._ '.,.5 d + R ( ( ",
"8 8 8 8 8 8 8 8 7 $ $ ! + + + + + + $.= = = = f D D D D : 4 4 ).!.).: d $ $ $ + ",
"8 8 8 8 8 8 8 e % $ $ ! + + + + + + ~.{.= = = r v D D v : 4 4 =.].=.: d $ $ $ + ",
"+ 2 8 8 8 8 e $ $ $ $ ! + + + + + + + + * = 8 K ^.L A /.: 4 4 4 !.4 h ;.+ + + + ",
"+ 2 8 8 8 (.7 ! ! ! ! % 7 + + 7 7 7 7 7 $._.8 8 K K r :.<.[.[.}.-.[.|.1.2.% 7 7 ",
"+ 2 8 8 8 $ ' 8 8 8 8 8 8 + + 8 3.4.5.6.7.8.9.0.a.b.c.d.e.f.g.h.i.j.k.l.m.n.o.8 ",
"+ 2 8 2 7 % 7 8 8 8 8 7 p.' ' 7 q.r.s.t.u.v.w.x.x.y.z.z.A.B.C.D.E.F.G.H.I.J.K.L.",
"+ 2 8 % + 8 8 8 8 8 8 ! $ $ $ + M.N.O.P.Q.R.S.T.U.V.W.W.X.Y.Z.`. +.+++@+#+$+%+&+",
"+ % % 2 e 8 8 8 ; ' ' @ $ ! ! + + *+=+-+;+>+,+'+)+!+~+~+{+]+^+/+(+_+:+<+[+}+|+1+",
"+ + + e 8 8 8 8 7 $ $ $ $ + + + + + 2+3+4+4+3+d '.'.'._ 5+5+:.6+:.N 7+8+9+0+a+b+",
"+ + + + + + % 8 8 8 8 % + + + + + + c+^.v v z F U U N 4 4 4 4 4 C U d d > e 8 8 ",
"! + + + + % % 8 8 e e % + + + + + + + ;.^.z z z F F U }.}.}.}.}.U d d d d ; 8 e ",
"( @ + + + 8 8 8 7 $ $ ! + + + + + + + + ;.^.z z x x F d ;.;.;.;.;.d d d d d d+$ ",
"( @ + + + 2 2 2 % @ @ ! + + + ! ' e+e+e+' f+^.^.D D ^.f+! + + + + ;.d d d d d S ",
"( @ + + + + + + + + + + + + + $ ..( ( ( , $ Y d L L Y $ $ ! + + + + ;.d d d d d ",
"( @ + + + + + + + + + + + + + $ ..( ( ( , $ $ Y Y Y $ $ $ ! + + + + + ;.d d d d ",
"e+! + + + + + + + + + + + + + ! e+..T e+> ! ! ! ! ' $ ' ! + + + + + + + ;.;.;.;.",
"+ + + + + + + + + + + + + + + + ! $ ' + + + + + + ! $ ' + + + + + + + + + + + + ",
"8 8 8 j   + + + + + + + + + + + + + + + + + + + $ $ $ ' + + + + + ! $ $ $ ! + + ",
"8 8 8 ..( + + + + + + + + + + + + + + + + + + ! $ $ $ ' + + + + + ! $ $ $ ! + + ",
"8 e+( ( ( + + + 7 8 8 8 8 8 8 + + + + + + + ( ( ( ( ( R $ $ $ $ $ $ $ ' + + + 8 ",
"2 .   1 R + + + % 2 2 e 8 8 8 % % ! + + > ' ( ( ( (   , $ @ @ @ @ @ @ ! + + + 2 ",
"$ $ $ ! + + + + ' $ $ 2 8 8 8 8 7 $ ' + 1 ( ( ( ( g+$ $ $ ! + + + + + + + + + $ ",
"$ @ ' + + + + + ! ' ' + % 8 8 8 e % ! ' , R R R R ..$ $ $ ' ' ' + + + + + + + ' ",
"$ ' + + + + + + + + + @ $ 8 8 8 8 8 + $ $ $ $ $ $ $ $ $ $ $ $ $ + + + + + + + + "};
