/* XPM */
static char * rogue_run_right_xpm[] = {
"40 40 493 2",
"  	c #1F281B",
". 	c #212B1E",
"+ 	c #232E20",
"@ 	c #222D1F",
"# 	c #212C1E",
"$ 	c #202C1D",
"% 	c #222D1E",
"& 	c #232E1F",
"* 	c #2B3727",
"= 	c #2C3828",
"- 	c #2C3728",
"; 	c #2A3527",
"> 	c #293425",
", 	c #283325",
"' 	c #273224",
") 	c #202B1D",
"! 	c #1F2A1C",
"~ 	c #1D2619",
"{ 	c #242F21",
"] 	c #253022",
"^ 	c #283324",
"/ 	c #283425",
"( 	c #2A3626",
"_ 	c #2A3627",
": 	c #293426",
"< 	c #1C2518",
"[ 	c #273122",
"} 	c #232B1D",
"| 	c #21291B",
"1 	c #212A1B",
"2 	c #232C1D",
"3 	c #252E1F",
"4 	c #262E20",
"5 	c #263022",
"6 	c #1E271A",
"7 	c #263123",
"8 	c #283123",
"9 	c #293122",
"0 	c #35361F",
"a 	c #4A451F",
"b 	c #4F491F",
"c 	c #50491F",
"d 	c #4E481F",
"e 	c #47431F",
"f 	c #38371E",
"g 	c #30331F",
"h 	c #273022",
"i 	c #242E21",
"j 	c #222C1F",
"k 	c #2A3222",
"l 	c #31331E",
"m 	c #3F3D1D",
"n 	c #5B5323",
"o 	c #80722B",
"p 	c #897A2D",
"q 	c #8A7B2D",
"r 	c #87782D",
"s 	c #7A6D2A",
"t 	c #615724",
"u 	c #4D461F",
"v 	c #2B2C1A",
"w 	c #1F2619",
"x 	c #242F22",
"y 	c #263124",
"z 	c #36371F",
"A 	c #595122",
"B 	c #82742C",
"C 	c #908130",
"D 	c #928230",
"E 	c #8F7F2F",
"F 	c #7B6E2B",
"G 	c #49431D",
"H 	c #272918",
"I 	c #1B2418",
"J 	c #262F22",
"K 	c #30321E",
"L 	c #47421F",
"M 	c #635A25",
"N 	c #80722C",
"O 	c #908030",
"P 	c #8D7E2F",
"Q 	c #8B7C2E",
"R 	c #8C7D2E",
"S 	c #8D7E2E",
"T 	c #776A29",
"U 	c #4C441D",
"V 	c #282B19",
"W 	c #1E281B",
"X 	c #273124",
"Y 	c #23291D",
"Z 	c #2F301C",
"` 	c #3D3D20",
" .	c #4B4822",
"..	c #625A26",
"+.	c #82752C",
"@.	c #8A7B2E",
"#.	c #766929",
"$.	c #5D5322",
"%.	c #52491E",
"&.	c #5F5522",
"*.	c #7B6E2A",
"=.	c #605521",
"-.	c #34331B",
";.	c #1E291B",
">.	c #212B1D",
",.	c #252F21",
"'.	c #263023",
").	c #252E22",
"!.	c #252A1C",
"~.	c #30321D",
"{.	c #373A20",
"].	c #3A3C20",
"^.	c #484622",
"/.	c #716628",
"(.	c #685D24",
"_.	c #48401C",
":.	c #2C2816",
"<.	c #1A1913",
"[.	c #302C17",
"}.	c #574E21",
"|.	c #615722",
"1.	c #38361C",
"2.	c #293525",
"3.	c #263122",
"4.	c #1E281A",
"5.	c #202A1C",
"6.	c #283224",
"7.	c #21281D",
"8.	c #2B2E1C",
"9.	c #34371E",
"0.	c #393B20",
"a.	c #464422",
"b.	c #756929",
"c.	c #665B23",
"d.	c #3B3518",
"e.	c #141412",
"f.	c #191813",
"g.	c #2D2917",
"h.	c #736727",
"i.	c #5D5321",
"j.	c #38371D",
"k.	c #2B3627",
"l.	c #2A3526",
"m.	c #1F291C",
"n.	c #1C2619",
"o.	c #1D271A",
"p.	c #242E22",
"q.	c #22261A",
"r.	c #31331D",
"s.	c #3F4021",
"t.	c #595325",
"u.	c #7C6F2A",
"v.	c #49411B",
"w.	c #222014",
"x.	c #133448",
"y.	c #13354B",
"z.	c #141E25",
"A.	c #133042",
"B.	c #133449",
"C.	c #695F2E",
"D.	c #574D1F",
"E.	c #36361D",
"F.	c #273123",
"G.	c #232D1F",
"H.	c #1D281A",
"I.	c #1C221A",
"J.	c #2D301C",
"K.	c #393B1F",
"L.	c #3D3E21",
"M.	c #3C3D21",
"N.	c #6E6428",
"O.	c #675B26",
"P.	c #383118",
"Q.	c #1B1E1C",
"R.	c #135579",
"S.	c #13587C",
"T.	c #142C3C",
"U.	c #134F6F",
"V.	c #13577A",
"W.	c #57553C",
"X.	c #48411D",
"Y.	c #2F311D",
"Z.	c #1D2719",
"`.	c #151613",
" +	c #36371D",
".+	c #4E4A23",
"++	c #575024",
"@+	c #524D23",
"#+	c #585224",
"$+	c #776B2B",
"%+	c #584A2D",
"&+	c #2B241C",
"*+	c #192B34",
"=+	c #194862",
"-+	c #16445E",
";+	c #15242E",
">+	c #163E55",
",+	c #1A4963",
"'+	c #484A3A",
")+	c #3C3820",
"!+	c #2A2D1C",
"~+	c #202A1D",
"{+	c #212C1D",
"]+	c #273223",
"^+	c #293325",
"/+	c #161914",
"(+	c #222316",
"_+	c #403D1F",
":+	c #554E24",
"<+	c #5D5525",
"[+	c #655C26",
"}+	c #7D6F2C",
"|+	c #5A4B31",
"1+	c #2D251E",
"2+	c #171C20",
"3+	c #15232C",
"4+	c #152128",
"5+	c #141718",
"6+	c #141F25",
"7+	c #16242D",
"8+	c #333624",
"9+	c #2B2B1A",
"0+	c #212518",
"a+	c #293526",
"b+	c #2B3728",
"c+	c #1C1F17",
"d+	c #242316",
"e+	c #33301A",
"f+	c #3E3C1E",
"g+	c #4C4822",
"h+	c #5F5627",
"i+	c #493B2F",
"j+	c #4F2B49",
"k+	c #3B213A",
"l+	c #221923",
"m+	c #141514",
"n+	c #141616",
"o+	c #2A2225",
"p+	c #241D1F",
"q+	c #1D2019",
"r+	c #222E1F",
"s+	c #202419",
"t+	c #34321A",
"u+	c #3F3E1F",
"v+	c #434221",
"w+	c #514C24",
"x+	c #544A29",
"y+	c #603F4F",
"z+	c #573051",
"A+	c #52274F",
"B+	c #63265E",
"C+	c #76256F",
"D+	c #64275F",
"E+	c #401F3D",
"F+	c #242121",
"G+	c #252F22",
"H+	c #2B3626",
"I+	c #403D1E",
"J+	c #665C25",
"K+	c #736829",
"L+	c #6D6328",
"M+	c #5D5725",
"N+	c #504B23",
"O+	c #595124",
"P+	c #756140",
"Q+	c #6D4D52",
"R+	c #6B3F5C",
"S+	c #7E3E70",
"T+	c #913A84",
"U+	c #8E3584",
"V+	c #7D3F6F",
"W+	c #512E46",
"X+	c #282123",
"Y+	c #1C2419",
"Z+	c #232D20",
"`+	c #243021",
" @	c #263223",
".@	c #293121",
"+@	c #685E25",
"@@	c #88792D",
"#@	c #8C7D2F",
"$@	c #7B6F2B",
"%@	c #5C5525",
"&@	c #84762D",
"*@	c #816C42",
"=@	c #7E634D",
"-@	c #85615B",
";@	c #8B5A69",
">@	c #844F69",
",@	c #8B5969",
"'@	c #85625A",
")@	c #5B463A",
"!@	c #2D261D",
"~@	c #1A2118",
"{@	c #252818",
"]@	c #81732B",
"^@	c #918130",
"/@	c #706429",
"(@	c #514C23",
"_@	c #90802F",
":@	c #88792E",
"<@	c #7E702C",
"[@	c #675B23",
"}@	c #352F17",
"|@	c #1C2219",
"1@	c #273324",
"2@	c #283223",
"3@	c #706527",
"4@	c #897A2E",
"5@	c #7D712C",
"6@	c #5F5725",
"7@	c #4E4923",
"8@	c #6F6428",
"9@	c #1E241B",
"0@	c #242E20",
"a@	c #272E1F",
"b@	c #5E5522",
"c@	c #655C23",
"d@	c #605722",
"e@	c #524B1F",
"f@	c #3D3D1F",
"g@	c #3A3B20",
"h@	c #494622",
"i@	c #81732C",
"j@	c #85772D",
"k@	c #594F20",
"l@	c #302F1C",
"m@	c #242D21",
"n@	c #2C321E",
"o@	c #35371F",
"p@	c #36341C",
"q@	c #343118",
"r@	c #34341B",
"s@	c #36381F",
"t@	c #655B24",
"u@	c #625722",
"v@	c #554C1F",
"w@	c #3B391E",
"x@	c #2A3021",
"y@	c #292C1F",
"z@	c #322817",
"A@	c #4F3418",
"B@	c #774C23",
"C@	c #5E3F1D",
"D@	c #835326",
"E@	c #915E2A",
"F@	c #AD7139",
"G@	c #BB7A40",
"H@	c #AD6F38",
"I@	c #935C28",
"J@	c #69431F",
"K@	c #3D331F",
"L@	c #2D2E1F",
"M@	c #3B2B17",
"N@	c #5F3816",
"O@	c #905726",
"P@	c #70431B",
"Q@	c #9F5F2A",
"R@	c #C57B3D",
"S@	c #DF8E4B",
"T@	c #E89450",
"U@	c #DC8C4A",
"V@	c #C3783B",
"W@	c #B0692F",
"X@	c #7C4A22",
"Y@	c #453521",
"Z@	c #31311D",
"`@	c #463A1B",
" #	c #64491D",
".#	c #865A26",
"+#	c #6E4E20",
"@#	c #916029",
"##	c #BC7C3F",
"$#	c #DD8F4C",
"%#	c #E99550",
"&#	c #DE8D4B",
"*#	c #BE783D",
"=#	c #975F2B",
"-#	c #6D4822",
";#	c #3E321E",
">#	c #252E20",
",#	c #3F3D1E",
"'#	c #5F5623",
")#	c #736729",
"!#	c #655B26",
"~#	c #A46F39",
"{#	c #C57D43",
"]#	c #B0703A",
"^#	c #7B5126",
"/#	c #484522",
"(#	c #474522",
"_#	c #35331B",
":#	c #292E1E",
"<#	c #2A301E",
"[#	c #524C21",
"}#	c #7A6D29",
"|#	c #6C6228",
"1#	c #3B371B",
"2#	c #242115",
"3#	c #433C1C",
"4#	c #5E5525",
"5#	c #5F5625",
"6#	c #4E461F",
"7#	c #36351E",
"8#	c #272F22",
"9#	c #3A391D",
"0#	c #87792D",
"a#	c #81742C",
"b#	c #534D21",
"c#	c #242417",
"d#	c #211F14",
"e#	c #3C371C",
"f#	c #443E1D",
"g#	c #272B1D",
"h#	c #1F271C",
"i#	c #423D1C",
"j#	c #756827",
"k#	c #615824",
"l#	c #36351C",
"m#	c #1A1E16",
"n#	c #191913",
"o#	c #2A2817",
"p#	c #44401F",
"q#	c #453F1D",
"r#	c #212D1E",
"s#	c #191E17",
"t#	c #332F17",
"u#	c #5C5220",
"v#	c #716526",
"w#	c #433C1B",
"x#	c #272C1C",
"y#	c #1E261C",
"z#	c #1A2119",
"A#	c #191D16",
"B#	c #1B1B14",
"C#	c #2B2B18",
"D#	c #403C1C",
"E#	c #48411E",
"F#	c #363119",
"G#	c #22271B",
"H#	c #1B1B15",
"I#	c #302312",
"J#	c #453515",
"K#	c #4E3E18",
"L#	c #4C3E18",
"M#	c #463C19",
"N#	c #433E1C",
"O#	c #232C1E",
"P#	c #1F281C",
"Q#	c #1A2018",
"R#	c #181C16",
"S#	c #151512",
"T#	c #191A13",
"U#	c #252315",
"V#	c #2A2716",
"W#	c #242517",
"X#	c #20281C",
"Y#	c #2C2216",
"Z#	c #603819",
"`#	c #5C3515",
" $	c #40250E",
".$	c #382210",
"+$	c #251F15",
"@$	c #1D2519",
"#$	c #1D241A",
"$$	c #151713",
"%$	c #1F2A1D",
"&$	c #3D2A19",
"*$	c #8B5225",
"=$	c #874F22",
"-$	c #543215",
";$	c #2F2314",
">$	c #1F261A",
",$	c #171914",
"'$	c #1E261B",
")$	c #3D2B1B",
"!$	c #925728",
"~$	c #A2602B",
"{$	c #7E4C24",
"]$	c #332B1B",
"^$	c #1E251B",
"/$	c #232C1F",
"($	c #4E351D",
"_$	c #8A5326",
":$	c #995D2B",
"<$	c #6F4824",
"[$	c #2B2D1D",
"}$	c #40331E",
"|$	c #47361F",
"1$	c #37311E",
"2$	c #1F291B",
"3$	c #222C1E",
"4$	c #1C2618",
"  . + + + + + + + + + @ @ @ @ + @ # $ % & * = = - ; > , ' @ ) ) ! ! # @ + + + + ",
"~ ) + + + { ] ] ] ] { + + + + + @ # ) ! ) ^ / ( _ : , , , @ ! ! # + + ] ] ] { + ",
"< ) + + + { ' ' ' ' ] + + + + + + @ # ) ! @ + ' : , , , [ } | 1 2 3 4 5 ' ' ] + ",
"6 # + + + { 7 7 ' , ' ] { + + + + { + @ # # @ 7 , ^ 8 9 0 a b c d e f g h ] i j ",
"@ + + + + @ ) ) { ' , ' 7 + + + { 7 ' ' ' ' ' , , k l m n o p q r s t u v w ~ ~ ",
"+ + + + + @ ! ! + ' , , ' + + + x y , , , , , , 8 z A B C D D D D D E F G H I < ",
"+ + + + + + @ @ @ # { ' ' ) ) ) ) ) + ' , , , J K L M N C D D O P Q R S T U V W ",
"+ + + + + + + + @ ) + ' ' ! ! ! ! ! @ 7 , , X Y Z `  ...+.E @.#.$.%.&.*.r =.-.;.",
"] ] ] { @ + + + @ # + 7 7 ) ) ! ! ;.>.,.'., ).!.~.{.].^./.o (._.:.<.[.}.o |.1.! ",
"2.2.2.3.# # + + + @ + { { @ # ! ;.4.W 5.. 6.7.8.9.{.0.a.b.c.d.e.e.e.f.g.h.i.j.# ",
"= k.l.] m.) + + + + + + + @ # ! 4.~ < n.o.p.q.r.{.{.s.t.u.v.w.x.y.z.A.B.C.D.E.@ ",
"= F.G.5.o.m.+ + + + + + @   W o.~ < n.H.W I.J.K.L.M. .N.O.P.Q.R.S.T.U.V.W.X.Y.@ ",
"= & Z.< ~   + + + + + + j < < < < < Z.! m.`. +.+++@+#+$+%+&+*+=+-+;+>+,+'+)+!+@ ",
"+ ) m.~+# @ + + + + # 4.6 m.{+]+> > > l.^+/+(+_+:+<+[+}+|+1+2+3+4+5+6+7+8+9+0+~ ",
") ! ! . + + + + + + >.~ ~ ! % a+- - - - b+6.c+d+e+f+g+h+i+j+k+l+m+e.m+n+o+p+q+< ",
"] ] ] ] 7 { # # # + @ >.>.@ r+3.> k.= = = = s+t+f+u+v+w+x+y+z+A+B+C+C+C+D+E+F+o.",
", , , , ' G+! ! ) @ + + + + + + 3.2.* = = H+I+J+K+L+M+N+O+P+Q+R+S+T+U+T+V+W+X+Y+",
", , , 7 i Z+! ! ) @ + + + + + + `+ @2.* = .@+@@@D #@$@%@@+&@*@=@-@;@>@,@'@)@!@~@",
", ' ' { ) ) ) ) # + + + + { { { { { 3.( H+{@]@^@D ^@@./@(@N E D _@:@<@:@^@[@}@|@",
", ] { { { { { { ] 7 ] + { 7 7 7 7 7  @1@2@{@3@4@_@#@5@6@7@8@@.D D D D D ^@c.}@9@",
", + ) + , , , , , , 7 { { , , , , , ' { 0@a@L b@c@d@e@f@g@h@i@D D D D D j@k@l@m@",
"] ] ] 7 , , , , 7 { @ # # ] 7 ' , , ' 7 7 ,.n@o@p@q@r@s@{.].M+t@u@u@u@u@v@w@x@X ",
"{ 7 ' , , , , , ] # ) ! ) + { ' , , , , ' { 0@J y@z@A@B@C@D@E@F@G@H@I@I@J@K@F., ",
"7 ' , , , ' { { @ ) ) # # + + ] 7 ' , , , 7 7 '.L@M@N@O@P@Q@R@S@T@U@V@W@X@Y@7 , ",
"' , , , ' ] ! ! ! ! # + + + + + x y , , , , ' { Z@`@ #.#+#@###$#%#&#*#=#-#;#J , ",
"7 7 7 ' , 7 @ @ # # @ + + + + + { ] 7 7 7 7 7 >#,#'#)#)#)#)#!#~#{#]#^#/#(#_#:#X ",
"+ + + ] , , , , 7 { + + + + + + + + + + + + + <#[#}#D D D ^@|#1#e.2#3#4#5#6#7#8#",
"+ { ] 7 , ' ] ] { + + + + + + + + + + + + + G.9#+@0#D D D a#b#c#e.d#e#O+4#4#f#g#",
"+ 7 ' , ^ ] ) ) # @ + + + + + + + + + + + + h#i#j#O D D D k#l#m#e.n#o#p#++4#q#g#",
"+ ] 7 7 7 { # # r#@ + + + # # >.~+~+>.# # # s#t#u#v#v#v#v#w#x#y#z#A#B#C#D#E#F#G#",
"+ { { { { + + + + + + + @ ! ! 6 ~ ~ 4.! ! ! H#I#J#K#L#M#N#v O#P#Q#R#S#T#U#V#W#X#",
"+ + + + + + + + + + + + @ ! ;.~ < < ~ ;.! ! Y#Z#`# $.$+$@$~+@ #$/+$$e.e.e.e.|@# ",
"+ + + + + + + + + + + + + ) ! o.Z.6 W %$) ) &$*$=$-$;$>$) @ + |@e.e.e.e.e.,$'$Z+",
"+ + + + + + + + + + + + + + @ ) ) @ + + + + )$!$~${$]$@ + + + #$,$,$,$,$,$^$j + ",
"@ + + + + + + + + + + + + + @ ) # @ + + + + /$($_$:$<$@ + + + + + + Z+@ @ @ + + ",
"6 >.+ + + + + + + + + + + + + + + + + + + + + [$}$|$1$@ + + + + + + @ ) %$%$@ + ",
"~ ) + + + + { { { { { { { + + + + + + + + # . ! ;.;.2$# @ @ @ @ @ @ # ! ) ) @ + ",
"< ) + + + { ' ' ' ' ' ' 7 + + + + + + + + W 6 Z.~ ~ o.m.) ) ) ) ) ) ) ! # @ + + ",
"W # + + + { 7 7 ' , , , ' { { @ @ + G.3$. 4$< < < ~ o.;.! ) ) ) ) ) ) ) @ + + + ",
"# Z++ + + & # # ] ' , , , ' ] # # @ @ 2$6 < < < ~ o.;.m.! # @ @ @ @ @ @ + + + + "};
