/* XPM */
static char * rogue_left_xpm[] = {
"40 40 537 2",
"  	c #1F281B",
". 	c #1D2619",
"+ 	c #222D1F",
"@ 	c #232E20",
"# 	c #242F21",
"$ 	c #253022",
"% 	c #212C1E",
"& 	c #202B1D",
"* 	c #1F2A1C",
"= 	c #263122",
"- 	c #283324",
"; 	c #293425",
"> 	c #2A3627",
", 	c #2A3527",
"' 	c #283325",
") 	c #273224",
"! 	c #202A1D",
"~ 	c #293426",
"{ 	c #1E271A",
"] 	c #283224",
"^ 	c #232D1F",
"/ 	c #222C1E",
"( 	c #202A1C",
"_ 	c #202A1B",
": 	c #242E21",
"< 	c #222C1F",
"[ 	c #212B1E",
"} 	c #232E21",
"| 	c #263123",
"1 	c #242B1D",
"2 	c #252817",
"3 	c #252717",
"4 	c #242717",
"5 	c #273021",
"6 	c #263023",
"7 	c #2B2F1F",
"8 	c #403C1D",
"9 	c #5A5323",
"0 	c #675D25",
"a 	c #796C29",
"b 	c #7E702A",
"c 	c #7A6D29",
"d 	c #615724",
"e 	c #44411F",
"f 	c #32341D",
"g 	c #2B3120",
"h 	c #2A2F1F",
"i 	c #494420",
"j 	c #685D25",
"k 	c #7F722C",
"l 	c #85772D",
"m 	c #8F7F2F",
"n 	c #928230",
"o 	c #90802F",
"p 	c #82742C",
"q 	c #766A28",
"r 	c #5F5523",
"s 	c #423F1F",
"t 	c #2D3321",
"u 	c #273123",
"v 	c #232D20",
"w 	c #212B1D",
"x 	c #20291D",
"y 	c #45401E",
"z 	c #6A5F26",
"A 	c #82752D",
"B 	c #8D7D2F",
"C 	c #8B7C2E",
"D 	c #8C7D2E",
"E 	c #918130",
"F 	c #756929",
"G 	c #514B22",
"H 	c #3A391E",
"I 	c #252D1F",
"J 	c #1E281B",
"K 	c #1D2719",
"L 	c #232F20",
"M 	c #171914",
"N 	c #695E25",
"O 	c #84762D",
"P 	c #887A2E",
"Q 	c #7B6E2A",
"R 	c #746727",
"S 	c #776A28",
"T 	c #8C7C2E",
"U 	c #908130",
"V 	c #695F27",
"W 	c #4F4A22",
"X 	c #464220",
"Y 	c #272A1A",
"Z 	c #212A1D",
"` 	c #1E281A",
" .	c #273324",
"..	c #1F291D",
"+.	c #171915",
"@.	c #6D6226",
"#.	c #453E1C",
"$.	c #2E2A16",
"%.	c #3C3619",
"&.	c #584E20",
"*.	c #756827",
"=.	c #8A7B2D",
"-.	c #82752C",
";.	c #645B26",
">.	c #494622",
",.	c #3A3C20",
"'.	c #383A1F",
").	c #2E301C",
"!.	c #23281B",
"~.	c #232C20",
"{.	c #1D271A",
"].	c #2B3727",
"^.	c #171A15",
"/.	c #80722B",
"(.	c #756928",
"_.	c #48411C",
":.	c #242215",
"<.	c #151512",
"[.	c #1E1D13",
"}.	c #302B16",
"|.	c #4D451C",
"1.	c #6C6024",
"2.	c #7D6F2B",
"3.	c #565024",
"4.	c #3C3D20",
"5.	c #373A20",
"6.	c #363920",
"7.	c #32351E",
"8.	c #282C1C",
"9.	c #232A1E",
"0.	c #1C2518",
"a.	c #2C3828",
"b.	c #273223",
"c.	c #1F291B",
"d.	c #212C1F",
"e.	c #171B15",
"f.	c #6A5F24",
"g.	c #262315",
"h.	c #141412",
"i.	c #282514",
"j.	c #81722B",
"k.	c #5D5525",
"l.	c #404021",
"m.	c #35381F",
"n.	c #2C2F1C",
"o.	c #24291C",
"p.	c #212A1E",
"q.	c #2B3627",
"r.	c #776A29",
"s.	c #5F572D",
"t.	c #133347",
"u.	c #13445F",
"v.	c #141A1E",
"w.	c #13354A",
"x.	c #133950",
"y.	c #142D3E",
"z.	c #332E16",
"A.	c #6E6327",
"B.	c #534E24",
"C.	c #30331D",
"D.	c #272B1B",
"E.	c #21291C",
"F.	c #1E291B",
"G.	c #293525",
"H.	c #1F291C",
"I.	c #5B5323",
"J.	c #494B3D",
"K.	c #125376",
"L.	c #116F9D",
"M.	c #14232E",
"N.	c #12567A",
"O.	c #125C83",
"P.	c #134866",
"Q.	c #1D1B14",
"R.	c #3A331B",
"S.	c #7D6F2A",
"T.	c #696027",
"U.	c #393B20",
"V.	c #3C3D21",
"W.	c #2F311C",
"X.	c #23281A",
"Y.	c #544D22",
"Z.	c #444027",
"`.	c #162F3E",
" +	c #183E53",
".+	c #14191B",
"++	c #173140",
"@+	c #173445",
"#+	c #162A36",
"$+	c #1A1618",
"%+	c #2F202B",
"&+	c #80712F",
"*+	c #6D6328",
"=+	c #5B5325",
"-+	c #504B23",
";+	c #3B391D",
">+	c #24281A",
",+	c #3E3B20",
"'+	c #32301D",
")+	c #151C1F",
"!+	c #162128",
"~+	c #141514",
"{+	c #151C20",
"]+	c #161E23",
"^+	c #191B20",
"/+	c #20171F",
"(+	c #301D2F",
"_+	c #7F702F",
":+	c #746829",
"<+	c #575024",
"[+	c #5B5324",
"}+	c #554E23",
"|+	c #403D1F",
"1+	c #2A2A19",
"2+	c #1D2118",
"3+	c #342A2D",
"4+	c #382432",
"5+	c #361832",
"6+	c #30182D",
"7+	c #2D1A2B",
"8+	c #351E33",
"9+	c #42233F",
"0+	c #3C2735",
"a+	c #6E602D",
"b+	c #4C4822",
"c+	c #494521",
"d+	c #3E3A1D",
"e+	c #2B2B19",
"f+	c #1E2117",
"g+	c #1D241A",
"h+	c #171A14",
"i+	c #412340",
"j+	c #5B2457",
"k+	c #672160",
"l+	c #5B2257",
"m+	c #4F234C",
"n+	c #512D4B",
"o+	c #5D3951",
"p+	c #503E38",
"q+	c #594F29",
"r+	c #4B4822",
"s+	c #3D3E20",
"t+	c #444120",
"u+	c #3D3A1C",
"v+	c #333019",
"w+	c #1E261B",
"x+	c #161814",
"y+	c #56304F",
"z+	c #803576",
"A+	c #923388",
"B+	c #913088",
"C+	c #923288",
"D+	c #83357A",
"E+	c #703668",
"F+	c #684258",
"G+	c #6F544E",
"H+	c #625630",
"I+	c #575026",
"J+	c #685F27",
"K+	c #585122",
"L+	c #3F3D1E",
"M+	c #272E1F",
"N+	c #181D16",
"O+	c #141512",
"P+	c #695144",
"Q+	c #865B63",
"R+	c #8B5270",
"S+	c #824370",
"T+	c #874C70",
"U+	c #865965",
"V+	c #7E5C58",
"W+	c #7E6648",
"X+	c #84723A",
"Y+	c #605728",
"Z+	c #514C23",
"`+	c #605926",
" @	c #7A6E2B",
".@	c #8E7F2F",
"+@	c #81742B",
"@@	c #645B25",
"#@	c #3E3E21",
"$@	c #283223",
"%@	c #191C16",
"&@	c #7A6A33",
"*@	c #8E7842",
"=@	c #8B7248",
"-@	c #816847",
";@	c #866D47",
">@	c #8D7644",
",@	c #8D793E",
"'@	c #897737",
")@	c #7E702F",
"!@	c #5C5525",
"~@	c #5A5224",
"{@	c #766B2A",
"]@	c #8C7D2F",
"^@	c #191D17",
"/@	c #80722A",
"(@	c #8A7B2E",
"_@	c #88792E",
":@	c #524D23",
"<@	c #534D23",
"[@	c #716629",
"}@	c #897A2E",
"|@	c #736728",
"1@	c #4C4821",
"2@	c #273022",
"3@	c #1A2018",
"4@	c #151613",
"5@	c #8D7E2F",
"6@	c #7D702B",
"7@	c #585124",
"8@	c #444222",
"9@	c #424121",
"0@	c #585123",
"a@	c #706527",
"b@	c #786B29",
"c@	c #5F5624",
"d@	c #3D3D20",
"e@	c #1D261A",
"f@	c #595122",
"g@	c #7C6F2A",
"h@	c #81732C",
"i@	c #454322",
"j@	c #383B20",
"k@	c #32331B",
"l@	c #373318",
"m@	c #45401B",
"n@	c #45411C",
"o@	c #403D1C",
"p@	c #35361E",
"q@	c #2B3221",
"r@	c #292917",
"s@	c #373118",
"t@	c #3E3719",
"u@	c #3F3A1C",
"v@	c #3E3C1F",
"w@	c #3A3B20",
"x@	c #292B1A",
"y@	c #1A1A13",
"z@	c #1F1F14",
"A@	c #24271A",
"B@	c #293021",
"C@	c #2A3324",
"D@	c #1A1E16",
"E@	c #774821",
"F@	c #A2632E",
"G@	c #B26F38",
"H@	c #CC8346",
"I@	c #BF783F",
"J@	c #AB6A34",
"K@	c #9D612C",
"L@	c #955C2A",
"M@	c #5C3B1A",
"N@	c #8E5728",
"O@	c #74461F",
"P@	c #3B2410",
"Q@	c #352515",
"R@	c #242C1F",
"S@	c #273124",
"T@	c #1F2A1D",
"U@	c #1C2017",
"V@	c #895327",
"W@	c #C1773A",
"X@	c #DD8B49",
"Y@	c #EF9952",
"Z@	c #E4914D",
"`@	c #CD8141",
" #	c #B77034",
".#	c #A6652C",
"+#	c #673F19",
"@#	c #9F602A",
"##	c #845022",
"$#	c #472F12",
"%#	c #402E17",
"&#	c #272F20",
"*#	c #202B1E",
"=#	c #1E261C",
"-#	c #2B2C1A",
";#	c #795027",
">#	c #B47239",
",#	c #DB8B49",
"'#	c #E5934F",
")#	c #DA8D4B",
"!#	c #C07E40",
"~#	c #A66F33",
"{#	c #94642B",
"]#	c #6A4F20",
"^#	c #8F6229",
"/#	c #7C5824",
"(#	c #57461C",
"_#	c #4C401C",
":#	c #292F1E",
"<#	c #263022",
"[#	c #222B1E",
"}#	c #1D1F16",
"|#	c #524823",
"1#	c #7B5729",
"2#	c #AA6D35",
"3#	c #C17B42",
"4#	c #A6703A",
"5#	c #84672F",
"6#	c #706528",
"7#	c #766A2A",
"8#	c #726628",
"9#	c #645A24",
"0#	c #2E311B",
"a#	c #242D1E",
"b#	c #252A1C",
"c#	c #3B371B",
"d#	c #564E23",
"e#	c #5E5525",
"f#	c #605324",
"g#	c #5F4C22",
"h#	c #4B321D",
"i#	c #4D3C1F",
"j#	c #6A5D26",
"k#	c #83752C",
"l#	c #8F802F",
"m#	c #413E1E",
"n#	c #2A301E",
"o#	c #282A19",
"p#	c #514921",
"q#	c #5C5324",
"r#	c #5F5625",
"s#	c #4E471F",
"t#	c #1C1A13",
"u#	c #252417",
"v#	c #514A20",
"w#	c #746929",
"x#	c #86772D",
"y#	c #625924",
"z#	c #3A3A1E",
"A#	c #232D1E",
"B#	c #2A2918",
"C#	c #584F22",
"D#	c #5E5524",
"E#	c #564E22",
"F#	c #413B1C",
"G#	c #191813",
"H#	c #1A1B14",
"I#	c #35331A",
"J#	c #605723",
"K#	c #87782D",
"L#	c #736727",
"M#	c #413D1D",
"N#	c #20281B",
"O#	c #262718",
"P#	c #4E461F",
"Q#	c #534B21",
"R#	c #524B21",
"S#	c #46401D",
"T#	c #292616",
"U#	c #171713",
"V#	c #171C14",
"W#	c #1B2016",
"X#	c #48421D",
"Y#	c #81732B",
"Z#	c #6B6024",
"`#	c #3B3619",
" $	c #1B2118",
".$	c #1C1F16",
"+$	c #2D2715",
"@$	c #302916",
"#$	c #2F2916",
"$$	c #272214",
"%$	c #171B14",
"&$	c #1A2216",
"*$	c #192016",
"=$	c #272716",
"-$	c #423C1A",
";$	c #433C1A",
">$	c #4C3F1B",
",$	c #56421C",
"'$	c #503B1B",
")$	c #392816",
"!$	c #252116",
"~$	c #1C2619",
"{$	c #211E15",
"]$	c #3E250F",
"^$	c #42270E",
"/$	c #41260F",
"($	c #352111",
"_$	c #1B2317",
":$	c #1C2418",
"<$	c #1E2619",
"[$	c #232A1B",
"}$	c #242C1B",
"|$	c #1F2015",
"1$	c #734621",
"2$	c #A9652D",
"3$	c #A8652D",
"4$	c #8A5226",
"5$	c #59391D",
"6$	c #212319",
"7$	c #2B1F14",
"8$	c #382213",
"9$	c #392313",
"0$	c #321F12",
"a$	c #241B12",
"b$	c #272318",
"c$	c #503017",
"d$	c #77461D",
"e$	c #7E4B21",
"f$	c #6C411E",
"g$	c #4B301A",
"h$	c #262419",
"i$	c #1F281C",
"j$	c #46301C",
"k$	c #714421",
"l$	c #7D4B23",
"m$	c #7D4B24",
"n$	c #5D381B",
"o$	c #291F13",
"p$	c #1A1F17",
"q$	c #1F241A",
"r$	c #3F2918",
"s$	c #714724",
"t$	c #A96B38",
"u$	c #AA6C39",
"v$	c #8D5A30",
"w$	c #5C3F24",
"x$	c #232E1F",
"y$	c #202A1E",
"z$	c #503820",
"A$	c #805027",
"B$	c #8E582A",
"C$	c #8F582A",
"D$	c #6A4321",
"E$	c #302818",
"F$	c #1E251B",
"G$	c #40301E",
"H$	c #764E2B",
"I$	c #B97841",
"J$	c #BD7A42",
"K$	c #9F6738",
"L$	c #694829",
"  . + @ @ @ # $ $ $ $ $ @ @ @ @ @ @ + % & * * = - ; > , ; ' ' ) % ! * % @ @ $ $ ",
". . + @ @ @ $ ) ) ) ) ) # @ @ @ @ @ + + + & * % + $ ~ ~ ' ' ' ) % ! & + ) ) ) ) ",
". { + @ @ @ # ) ) ) ' ] $ # @ @ ^ ^ ^ ^ / ( _ & % : ' ' ' ' ' ) < [ % } ' ' ' ' ",
"% + @ @ @ @ + & & @ | ' ' ' $ 1 2 2 2 2 2 3 4 5 ) ' ' ' ' ' ' ' ) ) ) ' ' ' ' $ ",
"+ @ @ @ @ @ + * * + 6 ) ' ) 7 8 9 0 a b b c d e f g ] ' ' ' ' ' ' ' ' ' ' ' ) # ",
"@ @ @ @ @ @ + % % + @ # 6 h i j k l m n n o p q r s t u | | ) ' ' ' ' ' ' | v w ",
"@ @ @ @ @ @ @ @ @ + & * x y z A B C D m E n n m F G H I ^ # ) ' ' ' ' ' ) # J K ",
"L L L L @ @ @ @ @ + & J M N O P Q R S p T E U O V W X Y Z : ) ' ' ' ' ' ) # ` K ",
" . . . .# + + @ @ + + ..+.b l @.#.$.%.&.*.=.-.;.>.,.'.).!.~.| | ' ' ' u v [ {.{ ",
"].].].].$ & % @ @ @ @ [ ^./.(._.:.<.[.}.|.1.2.3.4.5.6.7.8.9.v # ) ' ] # { { 0.J ",
"a.].- b.+ c.& @ @ @ @ d.e./.f.g.h.h.h.h.i.|.j.k.l.5.5.m.n.o.p.@ # $ $ + {.` J & ",
"a.q./ ( { K * @ @ @ @ d.e.r.s.t.u.v.w.x.y.z.*.A.B.5.5.5.C.D.E.+ % % % & F.* % + ",
"].G.c.. . {.H.@ @ @ @ d.e.I.J.K.L.M.N.O.P.Q.R.S.T.U.V.V.U.W.X.! & & * * & & + @ ",
"@ % * * % + @ @ @ @ @ d.e.Y.Z.`. +.+++@+#+$+%+&+*+>.=+=+-+;+>+! v @ @ @ @ @ @ @ ",
"+ & & & + @ @ @ @ @ @ d.e.,+'+)+!+~+{+]+^+/+(+_+:+<+[+}+|+1+2+! @ @ @ @ @ @ @ @ ",
"$ # # # $ $ # % % + @ d.e.3+4+5+5+5+6+7+8+9+0+a+;.b+c+d+e+f+g+< @ @ @ @ @ @ @ + ",
"' ' ' ' ' ) $ * * % + p.h+i+j+k+k+k+l+m+n+o+p+q+r+s+t+u+v+Y Z # # # # # # @ @ + ",
"' ' ' ' | # @ * * % [ w+x+y+z+A+B+C+D+E+F+G+H+I+b+B.J+J+K+L+M+$ $ $ $ $ $ # @ + ",
"' ' ' ' # & * * * % H.N+O+P+Q+R+S+T+U+V+W+X+Y+Z+`+ @.@.@+@@@#@$@' ' ' ' ) | # @ ",
"' ' $ $ @ @ @ @ @ @ p.%@O+&@*@=@-@;@>@,@'@)@!@~@{@]@n n .@q W u ' ' ' ) # @ + + ",
"' ) + % # | | | | | ~.^@O+/@E .@(@D E n _@*+:@<@[@}@n n B |@1@2@' ' ' $ % % & % ",
") | + + $ ' ' ' ' ) v 3@4@S 5@n n n n m 6@7@8@9@0@a@+@+@b@c@d@u | | | @ * * & % ",
"$ # | ) ' ' ' ' ' | + e@h+f@g@T T T T h@V i@j@5.k@l@m@n@o@p@q@b.+ % % & * & + # ",
"# # ) ' ' ' ' ' ' $ + H.J r@s@t@t@t@t@u@v@w@5.5.x@y@z@A@B@C@' ) < ! * * * & + $ ",
"| ) ' ' ' ' | + + % & * < D@E@F@G@H@I@J@K@L@M@N@O@P@Q@R@S@) $ # v + + + + @ | ) ",
") - - - ' ) $ & & & T@& d.U@V@W@X@Y@Z@`@ #.#+#@###$#%#&#) | # @ @ @ @ @ @ # ) - ",
"$ | | | ) ' | @ @ + % *#=#-#;#>#,#'#)#!#~#{#]#^#/#(#_#:#<#$ # @ @ @ @ @ @ # $ | ",
"@ @ @ @ | ' ' ' ' | # [#}#s |#1#2#3#4#5#6#7#7#7#7#8#9#0#a#@ @ @ @ @ @ @ @ @ @ @ ",
"@ @ $ $ ) ' ) $ # # < b#c#d#e#f#g#h#i#j#k#l#l#l#l#C Q m#n#^ @ @ @ @ @ @ @ @ @ @ ",
"@ # | ) ' ) | % % + x o#p#q#r#[+s#t#u#v#w#5@n n n o x#y#z#A#@ @ @ @ @ @ @ @ @ # ",
"@ @ $ | ) | # % % + ..B#C#D#e#E#F#G#H#I#J#K#E n n E D L#M#N#[ + @ @ @ @ @ @ @ # ",
"@ @ # # # # # + + @ x O#P#Q#R#S#T#U#V#W#X#L#/@Y#Y#Y#b Z#`# $J & @ @ @ @ @ @ @ @ ",
"@ @ @ @ @ @ @ @ @ @ x .$+$@$#$$$4@%$&$*$=$`#-$-$;$>$,$'$)$!$~$* + @ @ @ @ @ @ @ ",
"@ @ @ @ @ @ @ @ @ @ x {$]$^$/$($h+_$:$:$<$[$}$|$Q@1$2$3$4$5$~$* + @ @ @ @ @ @ @ ",
"@ @ @ @ @ @ @ @ @ x 6$7$8$9$0$a$N+J * & % < + x b$c$d$e$f$g$h$! v @ @ @ @ @ @ @ ",
"@ @ @ @ @ @ @ @ @ i$j$k$l$m$n$o$p$* % + @ @ @ @ q$r$s$t$u$v$w$! @ @ @ @ @ @ @ x$",
"/ [ @ @ @ @ @ @ @ y$z$A$B$C$D$E$F$% % + @ @ @ @ i$G$H$I$J$K$L$% @ @ @ @ @ @ + % ",
"c.. + @ @ @ @ @ @ @ @ @ @ @ @ @ @ @ @ @ @ @ @ @ @ % * * * & + @ @ @ @ @ @ + & * ",
"{ . + @ @ @ # $ $ $ $ $ $ $ # @ @ @ @ @ @ @ @ [ ! ( ` ` ` * & % % % % % % % & * ",
". . + @ @ @ # ) ) ) ) ) ) ) $ @ @ @ @ @ @ @ @ c.{.. . . . ` * & & & & & & & * & "};
