/* XPM */
static char * rogue_death_left_xpm[] = {
"40 40 451 2",
"  	c #253022",
". 	c #232E20",
"+ 	c #222C1F",
"@ 	c #212C1E",
"# 	c #202B1D",
"$ 	c #222D1F",
"% 	c #283425",
"& 	c #2B3727",
"* 	c #2C3828",
"= 	c #293525",
"- 	c #273223",
"; 	c #242F21",
"> 	c #1F2A1C",
", 	c #293526",
"' 	c #232D1F",
") 	c #1D2619",
"! 	c #243021",
"~ 	c #283325",
"{ 	c #263123",
"] 	c #263122",
"^ 	c #212A1D",
"/ 	c #1C2518",
"( 	c #283324",
"_ 	c #283424",
": 	c #2A3627",
"< 	c #2A3626",
"[ 	c #293425",
"} 	c #20291C",
"| 	c #1E271A",
"1 	c #273224",
"2 	c #232E1F",
"3 	c #1D271A",
"4 	c #1E281B",
"5 	c #263124",
"6 	c #263023",
"7 	c #212B1E",
"8 	c #242F22",
"9 	c #273124",
"0 	c #232D20",
"a 	c #1F281B",
"b 	c #252F21",
"c 	c #202A1D",
"d 	c #252F22",
"e 	c #222C1E",
"f 	c #1D2719",
"g 	c #1E281A",
"h 	c #1E281C",
"i 	c #1E291B",
"j 	c #212B1D",
"k 	c #222C1D",
"l 	c #242D1E",
"m 	c #2C2E1C",
"n 	c #3F3B1C",
"o 	c #48421E",
"p 	c #4A451F",
"q 	c #423E1D",
"r 	c #2D2E1A",
"s 	c #1F281C",
"t 	c #1F291C",
"u 	c #1F291B",
"v 	c #202A1C",
"w 	c #2A3526",
"x 	c #222A1B",
"y 	c #2D301C",
"z 	c #3B3A1D",
"A 	c #46421F",
"B 	c #595122",
"C 	c #6F6426",
"D 	c #796C28",
"E 	c #7B6E29",
"F 	c #6A5F25",
"G 	c #3F3C1D",
"H 	c #23281A",
"I 	c #222719",
"J 	c #202519",
"K 	c #1C2317",
"L 	c #1B2418",
"M 	c #1C2519",
"N 	c #253021",
"O 	c #33341B",
"P 	c #4E4820",
"Q 	c #645A24",
"R 	c #6F6327",
"S 	c #7F712B",
"T 	c #8B7C2E",
"U 	c #918130",
"V 	c #928230",
"W 	c #7D702B",
"X 	c #484521",
"Y 	c #2E311C",
"Z 	c #2A2D1B",
"` 	c #242719",
" .	c #1F2518",
"..	c #1E2619",
"+.	c #252918",
"@.	c #4E481F",
"#.	c #726628",
"$.	c #86772D",
"%.	c #8B7C2F",
"&.	c #918230",
"*.	c #82742C",
"=.	c #585224",
"-.	c #373A20",
";.	c #34371F",
">.	c #30331D",
",.	c #272A1A",
"'.	c #1F2519",
").	c #1E271B",
"!.	c #222D1E",
"~.	c #31311A",
"{.	c #685E24",
"].	c #8C7D2E",
"^.	c #90802F",
"/.	c #8E7E2F",
"(.	c #8C7C2E",
"_.	c #8B7B2E",
":.	c #88792D",
"<.	c #786C2A",
"[.	c #444422",
"}.	c #31321C",
"|.	c #272818",
"1.	c #21271B",
"2.	c #242F20",
"3.	c #192017",
"4.	c #4A441F",
"5.	c #796C2A",
"6.	c #7F722B",
"7.	c #6F6428",
"8.	c #5A5121",
"9.	c #4A431C",
"0.	c #6B5F24",
"a.	c #8C7D2F",
"b.	c #766B2A",
"c.	c #393C20",
"d.	c #464321",
"e.	c #474320",
"f.	c #34341D",
"g.	c #20261C",
"h.	c #1B2119",
"i.	c #6D6225",
"j.	c #695E27",
"k.	c #5C5222",
"l.	c #3F391A",
"m.	c #342F18",
"n.	c #292615",
"o.	c #211F13",
"p.	c #353017",
"q.	c #605521",
"r.	c #83752C",
"s.	c #524D23",
"t.	c #3C3D20",
"u.	c #464522",
"v.	c #564F24",
"w.	c #514C23",
"x.	c #38371D",
"y.	c #1E2219",
"z.	c #1C2119",
"A.	c #736727",
"B.	c #353018",
"C.	c #2D2916",
"D.	c #1C1B13",
"E.	c #181713",
"F.	c #161512",
"G.	c #141412",
"H.	c #443D1B",
"I.	c #736729",
"J.	c #565024",
"K.	c #544D23",
"L.	c #413D1E",
"M.	c #252517",
"N.	c #1B1F18",
"O.	c #1E241B",
"P.	c #6D6226",
"Q.	c #5E5422",
"R.	c #2F2A16",
"S.	c #5A5122",
"T.	c #86772E",
"U.	c #726729",
"V.	c #625925",
"W.	c #4D4721",
"X.	c #33311A",
"Y.	c #201F15",
"Z.	c #252618",
"`.	c #2A3425",
" +	c #283224",
".+	c #222B1F",
"++	c #524B21",
"@+	c #6D6125",
"#+	c #615622",
"$+	c #1E1B14",
"%+	c #3E361E",
"&+	c #756630",
"*+	c #776B2B",
"=+	c #5C5525",
"-+	c #454220",
";+	c #403D1E",
">+	c #48431E",
",+	c #514A20",
"'+	c #424021",
")+	c #2A301F",
"!+	c #273123",
"~+	c #282C1C",
"{+	c #5C5221",
"]+	c #282516",
"^+	c #211F14",
"/+	c #151512",
"(+	c #181516",
"_+	c #292021",
":+	c #504230",
"<+	c #665B29",
"[+	c #4E4B23",
"}+	c #4A4822",
"|+	c #605826",
"1+	c #736829",
"2+	c #7A6E2A",
"3+	c #46411E",
"4+	c #2E3422",
"5+	c #262C1E",
"6+	c #4A4420",
"7+	c #5B5121",
"8+	c #463F1D",
"9+	c #373219",
"0+	c #191813",
"a+	c #1C161A",
"b+	c #2A1B27",
"c+	c #38272F",
"d+	c #4E412E",
"e+	c #585026",
"f+	c #4C4922",
"g+	c #605825",
"h+	c #8F802F",
"i+	c #8F8030",
"j+	c #3D3D21",
"k+	c #283223",
"l+	c #283225",
"m+	c #2A2F1F",
"n+	c #413C1C",
"o+	c #595123",
"p+	c #46401E",
"q+	c #1D1B14",
"r+	c #191517",
"s+	c #21161F",
"t+	c #3A1D37",
"u+	c #512B4B",
"v+	c #5B4047",
"w+	c #70622F",
"x+	c #5E5526",
"y+	c #534D23",
"z+	c #88792E",
"A+	c #85782C",
"B+	c #494520",
"C+	c #273022",
"D+	c #283022",
"E+	c #30311D",
"F+	c #3C361C",
"G+	c #352D22",
"H+	c #22191F",
"I+	c #171515",
"J+	c #3A1F38",
"K+	c #62255D",
"L+	c #792973",
"M+	c #7B3472",
"N+	c #6E4E52",
"O+	c #8C7C30",
"P+	c #5D5525",
"Q+	c #655B27",
"R+	c #8E7F2F",
"S+	c #8D7E2F",
"T+	c #5D5421",
"U+	c #37361C",
"V+	c #242A1E",
"W+	c #261F1E",
"X+	c #3F233B",
"Y+	c #672761",
"Z+	c #75266F",
"`+	c #7D2976",
" @	c #872B80",
".@	c #843B76",
"+@	c #785751",
"@@	c #87733F",
"#@	c #5E5625",
"$@	c #4E4A22",
"%@	c #534D22",
"&@	c #5C5321",
"*@	c #47421E",
"=@	c #34371E",
"-@	c #28301F",
";@	c #1F231D",
">@	c #30222E",
",@	c #5B2757",
"'@	c #7F2B78",
")@	c #8C2C85",
"!@	c #843C76",
"~@	c #7E5B55",
"{@	c #887638",
"]@	c #907F33",
"^@	c #434221",
"/@	c #37361D",
"(@	c #302D18",
"_@	c #2F2B16",
":@	c #252516",
"<@	c #282920",
"[@	c #5F4B3A",
"}@	c #85605A",
"|@	c #906565",
"1@	c #8A6A53",
"2@	c #877636",
"3@	c #81742C",
"4@	c #434121",
"5@	c #39371F",
"6@	c #352D19",
"7@	c #362210",
"8@	c #352211",
"9@	c #22261A",
"0@	c #253023",
"a@	c #293021",
"b@	c #574F22",
"c@	c #7E702B",
"d@	c #8F7E2F",
"e@	c #8F7B2F",
"f@	c #7C672B",
"g@	c #625226",
"h@	c #684C25",
"i@	c #795027",
"j@	c #744B22",
"k@	c #4E3012",
"l@	c #482E11",
"m@	c #3E371B",
"n@	c #2C2F1D",
"o@	c #242D1F",
"p@	c #20281D",
"q@	c #5A5223",
"r@	c #7E702A",
"s@	c #8D7D2E",
"t@	c #8D7A2E",
"u@	c #91732F",
"v@	c #A47734",
"w@	c #A06A37",
"x@	c #916032",
"y@	c #97602E",
"z@	c #A7662D",
"A@	c #9C602A",
"B@	c #5D441B",
"C@	c #58471B",
"D@	c #5F5524",
"E@	c #48421F",
"F@	c #31321D",
"G@	c #1F271C",
"H@	c #595222",
"I@	c #716527",
"J@	c #7A6A28",
"K@	c #8A6B2E",
"L@	c #AD6D3A",
"M@	c #D78846",
"N@	c #E99550",
"O@	c #CF8344",
"P@	c #AD6D34",
"Q@	c #9C652C",
"R@	c #8F632B",
"S@	c #6C5D27",
"T@	c #766929",
"U@	c #6D6227",
"V@	c #2E301C",
"W@	c #20281C",
"X@	c #1A1E17",
"Y@	c #56351C",
"Z@	c #A86936",
"`@	c #EF9953",
" #	c #EA9550",
".#	c #D38647",
"+#	c #A36836",
"@#	c #795C2A",
"##	c #706327",
"$#	c #776B2A",
"%#	c #7C702B",
"&#	c #47411D",
"*#	c #1D2419",
"=#	c #1E261B",
"-#	c #1C231A",
";#	c #5E401F",
">#	c #9E6A32",
",#	c #BE8042",
"'#	c #B67A3E",
")#	c #8C5D2D",
"!#	c #593D1F",
"~#	c #5A4E22",
"{#	c #544C1F",
"]#	c #462F19",
"^#	c #704420",
"/#	c #855127",
"(#	c #A66A39",
"_#	c #4C3722",
":#	c #212B1F",
"<#	c #1D241A",
"[#	c #493C1C",
"}#	c #745C29",
"|#	c #7E622D",
"1#	c #7A602C",
"2#	c #5D4A21",
"3#	c #332B17",
"4#	c #383319",
"5#	c #5F5523",
"6#	c #91812F",
"7#	c #80722A",
"8#	c #554C1E",
"9#	c #5C391C",
"0#	c #955928",
"a#	c #B16B32",
"b#	c #DC8C4B",
"c#	c #B5743F",
"d#	c #654528",
"e#	c #20291D",
"f#	c #34341E",
"g#	c #4A4723",
"h#	c #4A4622",
"i#	c #494621",
"j#	c #3E3C1E",
"k#	c #272B1B",
"l#	c #24281A",
"m#	c #3D3C1F",
"n#	c #5B5425",
"o#	c #6F6529",
"p#	c #706629",
"q#	c #423F1E",
"r#	c #4C351E",
"s#	c #794D26",
"t#	c #8F5A2C",
"u#	c #B3743F",
"v#	c #A26A3A",
"w#	c #5E4227",
"x#	c #273020",
"y#	c #2F3520",
"z#	c #2E3420",
"A#	c #2C311D",
"B#	c #29301E",
"C#	c #272F1F",
"D#	c #333721",
"E#	c #3E3F22",
"F#	c #3E4022",
"G#	c #3E3F21",
"H#	c #37391F",
"I#	c #2A301D",
"J#	c #2F2F1F",
"K#	c #433721",
"L#	c #4D3B23",
"M#	c #5F4529",
"N#	c #604629",
"O#	c #3C3522",
"P#	c #1C2619",
"Q#	c #1C2618",
"R#	c #1D281A",
"  . + . . . . . . . . . @ # # # # . . $   % & * * * * & = - ; . $ $ # > > @ $ . ",
", ' ) @ . . . . . . . . . . . . . . $ # # # ! & * * & , ~ ~ { @ > > > # @ . . . ",
"] ^ / @ . . . .         ; . . . . . $ @ # > $ ( _ : < [ ~ ~ { @ > > @ . ;     ; ",
"} | / @ . . .   1 1 1 1   . . . . . . $ @ # # $ 2 % [ ~ ~ ~ { @ > > ; { 1 1 1 1 ",
"3 4 4 $ . . . ;     5 ~ {   ; . . . ;   ; . $ $ . ~ ~ ~ ~ ~ 1 . $ $ { ~ ~ 1 6 ; ",
"> 7 + . . . . $ @ @ 8 1 ~ 1 { . . .   1 1 { { { 1 ~ ~ ~ ~ ~ ~ 1 { 1 ~ ~ ~ 9 0 a ",
"# $ . . . . . @ # # . { 1 ~ { $ $ $ ; { 1 ~ ~ ~ ~ ~ ~ 1 1 ~ ~ ~ ~ ~ ~ ~ 1 b c ) ",
". . . . . . . . . . @ # d 1   > > > > # . { ~ ~ ~ ~ 1 ;   1 ~ ~ ~ ~ ~ { e f g > ",
". . . . . . . . . . @ > ; 1   > > > > > . { ~ ~ ~ ~ 1 ;   1 ~ ~ ~ ~ ~ { @ ) g > ",
"          . $ $ . . # 4 + d 0 h # > > i +   1 ~ ~ ~ 1     { 1 ~ ~ ~ 1   j ) 4 # ",
"< < < < < ! # k l l m n o p q r s 3 3 ) | t + 1 ~ ~ ~ 1 {     1 ~ ~ + u | ) v $ ",
"* * * w [ 2 x y z A B C D E F G H I J K L M v   { 1 1 1 { ; ;   { { v ) 3 a @ . ",
"* * * N ' x O P Q R S T U V W X Y Y Z `  ...t $ $       ; . . $ $ $ > i v @ $ . ",
"& : < 7 3 +.@.#.$.%.&.V V V *.=.-.-.;.>.,.'.).@ !.. . . . . $ # # # # # $ . . . ",
"%   2 # ).~.{.].V V ^./.(._.:.<.[.-.-.-.}.|.1.{ _ 2.. . . . . $ $ $ $ $ . . . . ",
"1 . > > 3.4.5.V V U 6.7.8.9.0.a.b.c.-.-.d.e.f.g.* ; . . . . . . . . . . . . . . ",
"~ 1 { { h.i.T *.j.k.l.m.n.o.p.q.r.s.t.u.v.w.x.y.* ~ { ; . . . . . . . . . $ @ c ",
"~ ~ ~ ~ z.A.].A.B.C.D.E.F.G.D.H.I.b.s.J.K.L.M.N.* ~ 1 ; . . . . . . . . . $ @ > ",
"~ ~ ~ ~ O.P.S Q.G.G.G.G.G.G.F.R.S.T.U.V.W.X.Y.Z.`. +1 ; ;   { { { { { { ; . $ @ ",
"~ ~ ~ 1 .+++@+#+G.G.G.G.G.G.G.$+%+&+*+=+-+;+>+,+'+)+!+    1 ~ ~ ~ ~ 1 9   . . . ",
"~ ~ ~   ; ~+{+0.]+^+/+G.G.G.G.(+_+:+<+[+}+|+1+2+P.3+4+{ { 1 ~ ~ ~ ~   . $ @ $ . ",
"~ ~ 1 ' @ 5+6+7+8+9+0+G.G.G.a+b+c+d+e+f+g+W h+V i+P.j+k+~ ~ ~ 1 1 1 $ > > # $ ; ",
"l+9   ; ; { m+n+o+p+q+G.r+s+t+u+v+w+x+y+7.z+V V ^.A+B+C+~ ~ 1 ; . . # # @ $ ; { ",
"1   . {  +~ D+E+F+G+H+I+J+K+L+M+N+O+I.P+Q+W R+S+I.T+U+C+~ ~ { @ > > > # @ ; { ~ ",
"  { { ~ ~ ~ !+V+W+X+Y+Z+`+ @.@+@@@U S #@$@%@&@&@*@=@-@!+1 { ; $ @ @ @ $   1 ~ ~ ",
"; { ~ ~ ~ ~ 1 0 ;@>@,@'@)@!@~@{@]@V *.#@^@/@(@_@:@' b 1 1   . . . . . . { ~ ~ ~ ",
".         1 ~ { 0 <@[@}@|@1@2@U V U 3@#@4@5@6@7@8@9@0     ; . . . . . . ;     0@",
". . . . . { ~ ~ 1 a@b@c@S+V V U d@e@f@g@h@i@j@k@l@m@n@o@. . . . . . . . . . . ; ",
". . .     1 ~ 1     p@q@r@T s@t@u@v@w@x@y@z@A@B@C@D@E@F@o@. . . . . . . . . ;   ",
". . . {  +~ 1 ; > > @ G@H@I@J@K@L@M@N@O@P@Q@R@S@T@T@U@P V@7 $ $ $ . . . . ; { ~ ",
". . . 6 { { { ; @ @ $ . W@X@Y@Z@`@ #.#+#@###$#%#V V s@I@&#*#=#=#=#$ . . . ;   { ",
". . . . . . . . . . . . 0 -#;#>#,#'#)#!#~#5.a.h+V V U r@{#]#^#/#(#_#:#. . . . . ",
". . . . . . . . . . . . . <#[#}#|#1#2#3#4#5#S 6#V V V 7#8#9#0#a#b#c#d#7 . . . . ",
". . . . . . . . . . . . . e#f#g#h#i#j#k#l#m#n#o#p#p#p#V.q#r#s#t#u#v#w#7 . . . . ",
". . . . . . . . . . . . . $ x#y#z#A#B#l @ C#D#E#F#F#G#H#I#J#K#L#M#N#O#0 . . . . ",
"; $ 7 $ . . . . . . . . . . . . $ # @ . . . . . . $ @ # # $ . . . . . . $ $ $ $ ",
"{ j / @ . . . . . . . . . . . . . . . . . . . . . > > > # $ . . . . . $ @ > > > ",
"; v / @ . . . . ; ; ; ; ; ; ; . . . . . . . . $ e u u u v @ $ $ $ $ $ $ @ > > # ",
") / / @ . . .   ~ ~ ~ ~ ~ ~ { . . . . . . . @ ) P#/ / / f u > > > > > > > # @ . ",
"3 g g e . . . ; { { 1 ~ ~ ~ 1 ; ; @ $ . $ @ > / / / Q#) R#i > # @ @ @ @ @ @ $ . "};
