/* XPM */
static char * rogue_death_right_xpm[] = {
"40 40 465 2",
"  	c #232D1F",
". 	c #1F291B",
"+ 	c #212B1D",
"@ 	c #232E20",
"# 	c #222D1F",
"$ 	c #202B1D",
"% 	c #212C1E",
"& 	c #222E1F",
"* 	c #263122",
"= 	c #2C3828",
"- 	c #2B3728",
"; 	c #2A3627",
"> 	c #293425",
", 	c #283324",
"' 	c #273224",
") 	c #1F2A1C",
"! 	c #212C1D",
"~ 	c #1D2719",
"{ 	c #202A1C",
"] 	c #242F21",
"^ 	c #293526",
"/ 	c #2B3727",
"( 	c #293426",
"_ 	c #283325",
": 	c #222C1F",
"< 	c #1F281B",
"[ 	c #1D2619",
"} 	c #263123",
"| 	c #253122",
"1 	c #283425",
"2 	c #253022",
"3 	c #212B1E",
"4 	c #263023",
"5 	c #252F22",
"6 	c #283224",
"7 	c #242E20",
"8 	c #283225",
"9 	c #1F291C",
"0 	c #1E271A",
"a 	c #242F20",
"b 	c #273124",
"c 	c #242E21",
"d 	c #273123",
"e 	c #273223",
"f 	c #1E281B",
"g 	c #232D20",
"h 	c #252F21",
"i 	c #283123",
"j 	c #2C3120",
"k 	c #343621",
"l 	c #353720",
"m 	c #31341F",
"n 	c #2C301F",
"o 	c #273021",
"p 	c #212A1D",
"q 	c #1E281A",
"r 	c #1D271A",
"s 	c #1C2518",
"t 	c #1B2317",
"u 	c #1B2217",
"v 	c #1E2519",
"w 	c #292E1F",
"x 	c #413B1B",
"y 	c #584E1F",
"z 	c #5D5220",
"A 	c #564D1F",
"B 	c #48411D",
"C 	c #32341D",
"D 	c #292F1D",
"E 	c #20291C",
"F 	c #293525",
"G 	c #202A1D",
"H 	c #1B2418",
"I 	c #1A2117",
"J 	c #202417",
"K 	c #252718",
"L 	c #272919",
"M 	c #33331C",
"N 	c #5C5524",
"O 	c #86772D",
"P 	c #8E7E2F",
"Q 	c #88792D",
"R 	c #7A6D2A",
"S 	c #655B24",
"T 	c #4C461F",
"U 	c #32351F",
"V 	c #1C2619",
"W 	c #1C2418",
"X 	c #222618",
"Y 	c #262A19",
"Z 	c #2E311C",
"` 	c #32351E",
" .	c #34371E",
"..	c #3C3D1F",
"+.	c #5F5725",
"@.	c #8A7B2E",
"#.	c #928230",
"$.	c #908130",
"%.	c #8D7E2F",
"&.	c #87792D",
"*.	c #786C2A",
"=.	c #544E22",
"-.	c #34351D",
";.	c #212A1C",
">.	c #1D281A",
",.	c #1B2318",
"'.	c #1A1E15",
").	c #272A19",
"!.	c #30331D",
"~.	c #35381F",
"{.	c #373A20",
"].	c #383B20",
"^.	c #474522",
"/.	c #776B2A",
"(.	c #918130",
"_.	c #8C7D2F",
":.	c #786B2A",
"<.	c #4B451E",
"[.	c #222A1B",
"}.	c #232E1F",
"|.	c #1E291B",
"1.	c #1E261A",
"2.	c #242719",
"3.	c #312F1A",
"4.	c #38371D",
"5.	c #373A1F",
"6.	c #484622",
"7.	c #6A6127",
"8.	c #87782D",
"9.	c #7C6F29",
"0.	c #80732B",
"a.	c #8E7F2F",
"b.	c #615723",
"c.	c #32321C",
"d.	c #20261A",
"e.	c #2F2E1A",
"f.	c #474321",
"g.	c #4D4822",
"h.	c #404021",
"i.	c #393B20",
"j.	c #3C3E20",
"k.	c #5E5725",
"l.	c #7A6C28",
"m.	c #4E451C",
"n.	c #48411B",
"o.	c #564E20",
"p.	c #675D25",
"q.	c #796C29",
"r.	c #86782D",
"s.	c #8F802F",
"t.	c #786B29",
"u.	c #4D461F",
"v.	c #1D241A",
"w.	c #212B1F",
"x.	c #21271B",
"y.	c #2F2F1A",
"z.	c #4B4722",
"A.	c #5C5325",
"B.	c #4E4923",
"C.	c #4E4A23",
"D.	c #6F6428",
"E.	c #84752C",
"F.	c #312C16",
"G.	c #191813",
"H.	c #181713",
"I.	c #1C1B13",
"J.	c #222014",
"K.	c #332E17",
"L.	c #574E22",
"M.	c #675D24",
"N.	c #1C2219",
"O.	c #1D231A",
"P.	c #1C1D14",
"Q.	c #2F2F1B",
"R.	c #4F4A23",
"S.	c #5B5324",
"T.	c #504B23",
"U.	c #6C6228",
"V.	c #81722C",
"W.	c #5A5123",
"X.	c #1D1B13",
"Y.	c #141412",
"Z.	c #151512",
"`.	c #181712",
" +	c #1F1D14",
".+	c #7F722B",
"++	c #695E24",
"@+	c #242C1E",
"#+	c #24281A",
"$+	c #232215",
"%+	c #252517",
"&+	c #47421F",
"*+	c #575023",
"=+	c #726629",
"-+	c #83752E",
";+	c #786A2A",
">+	c #2D2917",
",+	c #161512",
"'+	c #665C25",
")+	c #80722B",
"!+	c #635924",
"~+	c #20271D",
"{+	c #262C1C",
"]+	c #413E1E",
"^+	c #534C21",
"/+	c #544D21",
"(+	c #45421F",
"_+	c #424020",
":+	c #4A4622",
"<+	c #706529",
"[+	c #75672F",
"}+	c #55492B",
"|+	c #756828",
"1+	c #665C24",
"2+	c #434020",
"3+	c #242E1F",
"4+	c #46421E",
"5+	c #6A5F25",
"6+	c #7B6E2A",
"7+	c #7B6F2B",
"8+	c #6C6328",
"9+	c #4F4B23",
"0+	c #615926",
"a+	c #5C502D",
"b+	c #35252C",
"c+	c #1B161A",
"d+	c #181813",
"e+	c #292616",
"f+	c #766A27",
"g+	c #4F481F",
"h+	c #212A1F",
"i+	c #252B1C",
"j+	c #695F25",
"k+	c #908030",
"l+	c #87792E",
"m+	c #665D27",
"n+	c #524D23",
"o+	c #565024",
"p+	c #564B2B",
"q+	c #483731",
"r+	c #331D31",
"s+	c #281926",
"t+	c #191517",
"u+	c #201E14",
"v+	c #433D1C",
"w+	c #5C5320",
"x+	c #3E3C1F",
"y+	c #253023",
"z+	c #252818",
"A+	c #7C6F2A",
"B+	c #746929",
"C+	c #595224",
"D+	c #5B5325",
"E+	c #6B5F2B",
"F+	c #6D5B3B",
"G+	c #50274E",
"H+	c #4F244B",
"I+	c #361A32",
"J+	c #231621",
"K+	c #151413",
"L+	c #272317",
"M+	c #524A21",
"N+	c #2F2C17",
"O+	c #232A1C",
"P+	c #242717",
"Q+	c #716527",
"R+	c #85772D",
"S+	c #8F7F2F",
"T+	c #84752D",
"U+	c #6C6028",
"V+	c #575024",
"W+	c #84762D",
"X+	c #847041",
"Y+	c #652E62",
"Z+	c #802C79",
"`+	c #72286C",
" @	c #53234F",
".@	c #2E1B2D",
"+@	c #1A1619",
"@@	c #281E23",
"#@	c #38321E",
"$@	c #26281A",
"%@	c #232B1D",
"&@	c #45411F",
"*@	c #5D5422",
"=@	c #574F22",
"-@	c #75692A",
";@	c #8C7C2F",
">@	c #8D7C37",
",@	c #806749",
"'@	c #784861",
")@	c #87327E",
"!@	c #822B7B",
"~@	c #7B2874",
"{@	c #71266B",
"]@	c #5B2657",
"^@	c #30212A",
"/@	c #24291F",
"(@	c #26291A",
"_@	c #2C2A16",
":@	c #322F18",
"<@	c #35341B",
"[@	c #3B3C20",
"}@	c #4F4A22",
"|@	c #918132",
"1@	c #8D7B37",
"2@	c #826C43",
"3@	c #804C68",
"4@	c #8A357F",
"5@	c #882C81",
"6@	c #742A6E",
"7@	c #4E254B",
"8@	c #272525",
"9@	c #232C20",
"0@	c #22281C",
"a@	c #2D2215",
"b@	c #332211",
"c@	c #332916",
"d@	c #36341D",
"e@	c #393A20",
"f@	c #8D7E31",
"g@	c #866E46",
"h@	c #8D6461",
"i@	c #8D6165",
"j@	c #795753",
"k@	c #493A30",
"l@	c #222A1F",
"m@	c #252C1E",
"n@	c #37331B",
"o@	c #433014",
"p@	c #503214",
"q@	c #62401D",
"r@	c #744F26",
"s@	c #604723",
"t@	c #5D4D25",
"u@	c #746229",
"v@	c #89762D",
"w@	c #928030",
"x@	c #8B7C2E",
"y@	c #766928",
"z@	c #47421E",
"A@	c #262D1E",
"B@	c #39351B",
"C@	c #595022",
"D@	c #58491E",
"E@	c #64441C",
"F@	c #8B5625",
"G@	c #AF6A2F",
"H@	c #925C2A",
"I@	c #875B2F",
"J@	c #895A30",
"K@	c #946B31",
"L@	c #997A30",
"M@	c #89762E",
"N@	c #4D4720",
"O@	c #202A1E",
"P@	c #252B1B",
"Q@	c #39351A",
"R@	c #6A5F27",
"S@	c #6E6328",
"T@	c #725F28",
"U@	c #865E29",
"V@	c #A3662D",
"W@	c #A1622B",
"X@	c #CE8243",
"Y@	c #E7934F",
"Z@	c #E08E4A",
"`@	c #BB753A",
" #	c #885D2E",
".#	c #7F6F2A",
"+#	c #7E702A",
"@#	c #6E6226",
"##	c #4C4720",
"$#	c #1E271B",
"%#	c #1C2419",
"&#	c #1C2318",
"*#	c #38351A",
"=#	c #695E26",
"-#	c #897A2E",
";#	c #8D7D2F",
">#	c #81732C",
",#	c #7A692A",
"'#	c #7E682A",
")#	c #6F5623",
"!#	c #A36A37",
"~#	c #CB8144",
"{#	c #E18F4B",
"]#	c #E6934E",
"^#	c #D58949",
"/#	c #785024",
"(#	c #4A3B1A",
"_#	c #35331B",
":#	c #2B2F1D",
"<#	c #282F21",
"[#	c #594026",
"}#	c #7E512C",
"|#	c #6D4524",
"1#	c #402C19",
"2#	c #453F1B",
"3#	c #88792E",
"4#	c #7F722C",
"5#	c #5E5422",
"6#	c #634624",
"7#	c #905E2E",
"8#	c #B7783C",
"9#	c #CA8546",
"0#	c #C28043",
"a#	c #815526",
"b#	c #3E2C18",
"c#	c #2E3020",
"d#	c #523C24",
"e#	c #A46A3A",
"f#	c #BB763E",
"g#	c #9A5F30",
"h#	c #59371B",
"i#	c #87782C",
"j#	c #887A2E",
"k#	c #736728",
"l#	c #4B441E",
"m#	c #282616",
"n#	c #59431F",
"o#	c #805E2C",
"p#	c #916A33",
"q#	c #8E6832",
"r#	c #725525",
"s#	c #382E19",
"t#	c #1D261A",
"u#	c #333121",
"v#	c #604226",
"w#	c #B57540",
"x#	c #BD7940",
"y#	c #986031",
"z#	c #58391E",
"A#	c #3F3B1C",
"B#	c #766A29",
"C#	c #80732C",
"D#	c #7D702C",
"E#	c #706528",
"F#	c #504A20",
"G#	c #2C2B19",
"H#	c #1D2017",
"I#	c #3E3B1E",
"J#	c #504A22",
"K#	c #544E24",
"L#	c #534D23",
"M#	c #2B2C1A",
"N#	c #2A2F20",
"O#	c #413622",
"P#	c #6F4F2D",
"Q#	c #6C4C2B",
"R#	c #553F25",
"S#	c #36311F",
"T#	c #2C321F",
"U#	c #444423",
"V#	c #494723",
"W#	c #494823",
"X#	c #474523",
"Y#	c #3E3E21",
"Z#	c #2A2F1D",
"`#	c #333720",
" $	c #353821",
".$	c #343821",
"+$	c #323621",
"@$	c #252E1F",
"#$	c #222C1E",
"  . + @ @ @ @ @ @ @ @ @ # # # # @ @ # $ % & * = = = - ; > , ' # $ $ $ ) $ # @ @ ",
"! ~ { @ @ @ @ ] ] ] ] ] @ @ @ @ @ @ # $ ) ) # ^ ^ / ; ( _ _ _ : ) ) $ % @ ] ] ] ",
"< [ { @ @ @ ] } } } } } @ @ @ @ @ @ # # $ ) ! ] | 1 ^ 1 _ _ _ : ) $ # 2 } } } } ",
"[ [ $ @ @ @ ] } ' ' _ _ ] ] @ @ @ @ @ ] # % 3 % # ' _ _ _ _ _ @ % % ] _ _ _ ' ' ",
"$ % # @ @ @ @ # # ] } _ ' } ] @ @ @ 2 ' } } 4 4 } _ _ _ _ _ _ } 4 } ' _ _ _ 5 3 ",
"% # @ @ @ @ # $ ) # } _ _ _ 2 @ @ @ } ' _ _ _ _ _ _ _ _ _ _ _ _ _ _ _ _ _ _ @ < ",
"@ @ @ @ @ @ @ # # # # @ _ 6 7 $ $ $ % # 2 ' _ _ _ _ ' } 2 ' _ _ _ _ _ 8 5 3 9 . ",
"@ @ @ @ @ @ @ @ @ # $ $ ' 6 @ ) ) ) ) ) ] ' _ _ _ _ ' 2 ] } _ _ _ _ _ ' 7 0 0 9 ",
"] ] ] ] a @ @ @ @ # $ $ ' ' @ ) ) ) ) ) @ } ' _ ' b 4 c @ } _ _ _ _ _ d   [ 0 9 ",
"e e e e | % # @ @ # % % } } @ % $ ) 9 f + g h i j k l m n o * 6 _ _ } @ p [ q $ ",
"= = = / > ) $ # @ @ @ @ @ @ @ # % ) r s t u v w x y z A B C D i 6 ' g s s s E # ",
"= = F * a q { # @ @ @ @ @ @ % G ) q H I J K L M N O P Q R S T U o ] % r f 9 3 # ",
"= = * . q [ f # @ @ @ @ @ g E [ V W X Y Z `  ...+.@.#.$.%.&.*.=.-.;.G ) $ # g @ ",
"1 ,   >.q 9 G # @ @ @ @ + G f [ ,.'.).!.~.{.].^./.%.#.#.#.(._.:.<.[.% % # @ @ @ ",
"2 }.$ |.) : # @ @ @ @ @ f r 0 1.2.3.4.5.{.{.6.7.8.9.9.0.8.a.#._.b.c.G # # @ @ @ ",
"] # % % # ] ] # # # @ @ |.0 f d.e.f.g.h.i.j.k.&.l.m.n.o.p.q.r.s.t.u.v.@ @ @ @ # ",
"_ ' ' ' ' _ 2 % ) $ # @ g g w.x.y.z.A.B.h.C.D.E.F.G.H.I.J.K.L.8.P M.N.@ @ @ # $ ",
"_ _ _ _ _ _ 2 % ) $ # @ @ @ : O.P.Q.R.S.T.U.V.W.X.Y.Y.Z.Z.`. +.+P ++N.@ @ @ # $ ",
"_ _ _ _ } % % ) ) $ # @ @   @+#+$+%+&+*+=+-+;+>+,+Y.Y.Y.Y.Y.Y.'+)+!+~+' 2 @ @ # ",
"_ _ ' } 2 % % % % # @ ] @ {+]+^+/+(+_+:+<+[+}+Y.Y.Y.Y.Y.Y.Y.Y.|+1+2+5 } 2 @ @ @ ",
"_ _ 2 @ @ 2 2 2 2 2 } } 3+4+5+6+7+8+9+^.0+a+b+c+Y.Y.Y.Y.Y.d+e+f+g+h+} @ # % # @ ",
"_ ' ] % @ _ _ _ _ _ ' } i+j+&.#.k+l+m+n+o+p+q+r+s+t+Y.Y.Y.u+v+w+x+g ] ) ) $ # @ ",
"} 2 2 2 y+_ _ _ _ ' ]   z+A+a.$.#.P B+C+D+E+F+G+H+I+J+t+K+L+M+N+O+@ % ) $ % @ 2 ",
"2 ] } _ _ _ _ _ _ } % { P+o.Q+R+S+T+U+V+U.W+X+Y+Z+`+ @.@+@@@#@$@. ) ) ) % @ 2 ' ",
"} } ' _ _ _ ' ] @ # $ ) %@` &@o.*@=@g.T.-@;@>@,@'@)@!@~@{@]@^@/@% % % # @ } ' _ ",
"} ' _ _ _ _ } % $ $ ) )     (@_@:@<@[@}@*.%.|@1@2@3@4@5@6@7@8@9@g @ @ @ 2 ' _ _ ",
"2 } } } } _ ' ] ] @ # % g 0@a@b@c@d@e@}@*.%.#.(.f@g@h@i@j@k@l@g @ @ @ @ ] 2 } } ",
"@ @ @ @ ] _ _ _ _ ' ] g m@n@o@p@q@r@s@t@u@v@w@s.#.#.(.x@y@z@: @ @ @ @ @ @ @ @ @ ",
"@ @ ] 2 2 _ _ } } 2 7 A@B@C@D@E@F@G@H@I@J@K@L@M@S+S+x@|+N@O@@ @ @ @ @ @ @ @ ] ] ",
"@ @ } _ _ _ 2 % ) ) P@Q@R@D.S@T@U@V@W@X@Y@Z@`@ #.#+#@###p @ @ @ @ @ @ @ @ @ 2 ' ",
"@ @ 2 } } } c $#%#&#*#=#-#;#@.>#,#'#)#!#~#{#]#^#/#(#_#:#% % % @ @ @ @ @ @ @ 2 } ",
"@ @ ] ] ] <#[#}#|#1#2#)+k+#.(.P 3#4#5#6#7#8#9#0#a#b#%#9 $ $ $ # @ @ @ @ @ @ @ ] ",
"@ @ @ @ c#d#e#f#g#h#n.i#(.#.#.$.j#k#l#m#n#o#p#q#r#s#t#) ) ) ) # @ @ @ @ @ @ @ @ ",
"@ @ @ @ u#v#w#x#y#z#A#B#4#C#C#D#E#F#G#H#I#J#K#L#g.M#f ) ) $ $ @ @ @ @ @ @ @ @ @ ",
"@ @ @ @ N#O#P#Q#R#S#T#U#V#W#W#X#Y#Z#E G T#`# $.$+$@$% $ $ % # @ @ @ @ @ @ @ @ @ ",
"@ @ @ @ @ @ @ @ @ @ @ @ @ @ @ @ % ) % @ @ @ @ @ @ @ # $ $ # @ @ @ @ @ @ @ @ @ @ ",
"#$q $ @ @ @ @ @ @ @ @ @ @ @ @ @ @ # @ @ @ @ @ @ # $ ) ) $ # @ @ @ @ @ @ % $ $ $ ",
"+ [ { @ @ @ @ 7 ] ] ] ] ] ] @ @ @ @ @ @ @ @ @ # #${ . . { % # # # # # # % ) ) ) ",
"f V { @ @ @ ] } } } } } } } ] @ @ @ @ @ @ @ # . < 0 ~ ~ q G $ $ $ $ $ $ $ ) $ % ",
"[ [ $ @ @ @ ] } ' ' _ _ _ _ } ] @ # @ @ g # $ s s s s V ~ |.) ) $ $ $ $ $ $ % @ "};
