/* XPM */
static char * rogue_death_c_right_xpm[] = {
"40 40 419 2",
"  	c #273123",
". 	c #212A1D",
"+ 	c #1F291B",
"@ 	c #222D1F",
"# 	c #232E20",
"$ 	c #212C1E",
"% 	c #202B1D",
"& 	c #263122",
"* 	c #2B3727",
"= 	c #2C3828",
"- 	c #293526",
"; 	c #283325",
"> 	c #263123",
", 	c #1F2A1C",
"' 	c #242E20",
") 	c #1F281B",
"! 	c #1E281B",
"~ 	c #212D1E",
"{ 	c #242F21",
"] 	c #253022",
"^ 	c #232E1F",
"/ 	c #273324",
"( 	c #283425",
"_ 	c #2B3627",
": 	c #2A3626",
"< 	c #293425",
"[ 	c #273124",
"} 	c #1D2619",
"| 	c #273224",
"1 	c #1D271A",
"2 	c #1E271A",
"3 	c #202A1C",
"4 	c #232D20",
"5 	c #222C1F",
"6 	c #1F291C",
"7 	c #1C2618",
"8 	c #1E281A",
"9 	c #1E291B",
"0 	c #252F22",
"a 	c #212B1E",
"b 	c #1C2619",
"c 	c #242E21",
"d 	c #1C2518",
"e 	c #212B1D",
"f 	c #293525",
"g 	c #252F21",
"h 	c #222C1E",
"i 	c #283324",
"j 	c #20291C",
"k 	c #273323",
"l 	c #283424",
"m 	c #243021",
"n 	c #242F22",
"o 	c #202A1D",
"p 	c #273223",
"q 	c #2B3728",
"r 	c #2A3425",
"s 	c #262E20",
"t 	c #242B1F",
"u 	c #232A1E",
"v 	c #21281C",
"w 	c #21291D",
"x 	c #222B1E",
"y 	c #263022",
"z 	c #2A3526",
"A 	c #293020",
"B 	c #2C2C19",
"C 	c #272818",
"D 	c #262818",
"E 	c #25281A",
"F 	c #23281B",
"G 	c #22281C",
"H 	c #22291D",
"I 	c #252F20",
"J 	c #1F2A1D",
"K 	c #29301F",
"L 	c #32351E",
"M 	c #303520",
"N 	c #2B3221",
"O 	c #262C1E",
"P 	c #31321C",
"Q 	c #474522",
"R 	c #383A20",
"S 	c #373A20",
"T 	c #33361E",
"U 	c #2C2E1B",
"V 	c #262718",
"W 	c #262819",
"X 	c #2B311F",
"Y 	c #323621",
"Z 	c #2C3423",
"` 	c #253021",
" .	c #2E3420",
"..	c #47431F",
"+.	c #665C24",
"@.	c #585021",
"#.	c #3E391B",
"$.	c #282818",
"%.	c #3D3B1D",
"&.	c #5A5324",
"*.	c #383B20",
"=.	c #363920",
"-.	c #423F1E",
";.	c #5F5623",
">.	c #454322",
",.	c #252E21",
"'.	c #2F3522",
").	c #504B22",
"!.	c #786C28",
"~.	c #8B7C2E",
"{.	c #82752C",
"].	c #635A24",
"^.	c #38351A",
"/.	c #38341A",
"(.	c #5D5425",
"_.	c #4A4723",
":.	c #3B3C20",
"<.	c #3C3D20",
"[.	c #4D4922",
"}.	c #716628",
"|.	c #86772D",
"1.	c #736728",
"2.	c #4C4720",
"3.	c #212A1C",
"4.	c #343720",
"5.	c #605723",
"6.	c #8C7D2E",
"7.	c #928230",
"8.	c #8F802F",
"9.	c #766A29",
"0.	c #4F4921",
"a.	c #3F3C1D",
"b.	c #5E5525",
"c.	c #595124",
"d.	c #575124",
"e.	c #665E27",
"f.	c #6D6428",
"g.	c #6F6529",
"h.	c #766A2A",
"i.	c #897A2E",
"j.	c #908030",
"k.	c #88792D",
"l.	c #685E25",
"m.	c #37371D",
"n.	c #222B1C",
"o.	c #2D301D",
"p.	c #544C1E",
"q.	c #80732B",
"r.	c #8A7B2E",
"s.	c #706629",
"t.	c #4E4A22",
"u.	c #3F3E20",
"v.	c #776A2A",
"w.	c #756929",
"x.	c #6A5F26",
"y.	c #695F25",
"z.	c #88792E",
"A.	c #918130",
"B.	c #8E7F2F",
"C.	c #44401F",
"D.	c #242B1C",
"E.	c #1F291D",
"F.	c #1F2318",
"G.	c #353017",
"H.	c #5B5120",
"I.	c #7D6F2A",
"J.	c #82742C",
"K.	c #776B2A",
"L.	c #5E5625",
"M.	c #434221",
"N.	c #3F3F21",
"O.	c #544E24",
"P.	c #74662E",
"Q.	c #6E6227",
"R.	c #594F20",
"S.	c #433C1B",
"T.	c #423B1A",
"U.	c #584F20",
"V.	c #736727",
"W.	c #81732C",
"X.	c #8F7F2F",
"Y.	c #7D702B",
"Z.	c #564F22",
"`.	c #252C1D",
" +	c #252418",
".+	c #261A12",
"++	c #231B12",
"@+	c #272516",
"#+	c #443F1E",
"$+	c #5C5324",
"%+	c #605725",
"&+	c #554F23",
"*+	c #484622",
"=+	c #494523",
"-+	c #534929",
";+	c #3A2A2E",
">+	c #29231B",
",+	c #1E1C13",
"'+	c #171612",
")+	c #161612",
"!+	c #1C1B13",
"~+	c #2B2716",
"{+	c #524B20",
"]+	c #87782D",
"^+	c #897B2E",
"/+	c #6D6227",
"(+	c #303420",
"_+	c #232D1E",
":+	c #3C2A15",
"<+	c #47280E",
"[+	c #3F2812",
"}+	c #2C2C1A",
"|+	c #4D4823",
"1+	c #5B5325",
"2+	c #635A26",
"3+	c #665C27",
"4+	c #5C512B",
"5+	c #331E32",
"6+	c #2E1C2C",
"7+	c #1A1518",
"8+	c #141412",
"9+	c #7D702A",
"0+	c #90802F",
"a+	c #8C7D2F",
"b+	c #484625",
"c+	c #212A1E",
"d+	c #2A2A1A",
"e+	c #2D2A18",
"f+	c #3F2912",
"g+	c #573313",
"h+	c #603E1C",
"i+	c #524122",
"j+	c #3B3D20",
"k+	c #4F4A23",
"l+	c #615826",
"m+	c #7B6E2B",
"n+	c #887833",
"o+	c #7A6839",
"p+	c #3A2038",
"q+	c #191517",
"r+	c #151413",
"s+	c #544C21",
"t+	c #75692A",
"u+	c #434122",
"v+	c #2F3421",
"w+	c #423F1F",
"x+	c #4F481F",
"y+	c #544C22",
"z+	c #564E22",
"A+	c #53421B",
"B+	c #825022",
"C+	c #A2622C",
"D+	c #8B5929",
"E+	c #615926",
"F+	c #7A6D2B",
"G+	c #846F41",
"H+	c #6E4858",
"I+	c #63295F",
"J+	c #1B1519",
"K+	c #2E2A16",
"L+	c #796B29",
"M+	c #85772D",
"N+	c #675D25",
"O+	c #2D311D",
"P+	c #232C20",
"Q+	c #242C21",
"R+	c #2E321F",
"S+	c #464220",
"T+	c #5E5524",
"U+	c #726627",
"V+	c #7F722A",
"W+	c #716528",
"X+	c #6E6026",
"Y+	c #8A6129",
"Z+	c #AC6A33",
"`+	c #B27138",
" @	c #7B592D",
".@	c #736428",
"+@	c #908130",
"@@	c #826E3F",
"#@	c #70425F",
"$@	c #812B7A",
"%@	c #371D35",
"&@	c #1C161A",
"*@	c #4C431C",
"=@	c #7B6E29",
"-@	c #776A29",
";@	c #4B4620",
">@	c #242C1D",
",@	c #493A25",
"'@	c #7F542F",
")@	c #684223",
"!@	c #35291B",
"~@	c #3C381B",
"{@	c #675C24",
"]@	c #81732B",
"^@	c #8B7B2E",
"/@	c #918230",
"(@	c #86782D",
"_@	c #7E702B",
":@	c #7F622A",
"<@	c #A76B37",
"[@	c #D58948",
"}@	c #AB723C",
"|@	c #7F6A2B",
"1@	c #827234",
"2@	c #744C59",
"3@	c #8D2C86",
"4@	c #61265C",
"5@	c #2D182A",
"6@	c #1D1B13",
"7@	c #4B431B",
"8@	c #756827",
"9@	c #7A6C29",
"0@	c #5E5523",
"a@	c #2F321D",
"b@	c #242E1F",
"c@	c #4D3A24",
"d@	c #8C5C33",
"e@	c #C37D43",
"f@	c #9D5E2B",
"g@	c #4C2E18",
"h@	c #443D1A",
"i@	c #776B28",
"j@	c #635124",
"k@	c #935F33",
"l@	c #D68949",
"m@	c #C17D40",
"n@	c #896B2D",
"o@	c #8A792E",
"p@	c #795B4E",
"q@	c #882D81",
"r@	c #802B79",
"s@	c #511E4D",
"t@	c #291626",
"u@	c #1F1D14",
"v@	c #2B2816",
"w@	c #383218",
"x@	c #4A421B",
"y@	c #655A22",
"z@	c #7C6E29",
"A@	c #655B24",
"B@	c #3E3C1F",
"C@	c #202A1E",
"D@	c #714C2C",
"E@	c #B87741",
"F@	c #D88B4B",
"G@	c #AB6730",
"H@	c #53341C",
"I@	c #3F3B1B",
"J@	c #6F6427",
"K@	c #887A2E",
"L@	c #514A20",
"M@	c #362D19",
"N@	c #613E22",
"O@	c #996032",
"P@	c #AD6C34",
"Q@	c #89612A",
"R@	c #7F6C2B",
"S@	c #84762D",
"T@	c #796441",
"U@	c #6F2D69",
"V@	c #862C7E",
"W@	c #6C2666",
"X@	c #3E1D3A",
"Y@	c #2C2A17",
"Z@	c #413C1C",
"`@	c #554D21",
" #	c #6B6026",
".#	c #564E20",
"+#	c #50481E",
"@#	c #37371E",
"##	c #463924",
"$#	c #694A2B",
"%#	c #6F4F2D",
"&#	c #584024",
"*#	c #312F1F",
"=#	c #2A311F",
"-#	c #3D3E21",
";#	c #484623",
">#	c #3B3D21",
",#	c #292F1D",
"'#	c #25271A",
")#	c #3A2D1A",
"!#	c #553A1E",
"~#	c #48361C",
"{#	c #413C1E",
"]#	c #434220",
"^#	c #464421",
"/#	c #413F25",
"(#	c #362B32",
"_#	c #472B42",
":#	c #402A3C",
"<#	c #2B2828",
"[#	c #242B1B",
"}#	c #36381F",
"|#	c #414122",
"1#	c #2A301F",
"2#	c #292F21",
"3#	c #323222",
"4#	c #343322",
"5#	c #2D3020",
"6#	c #252E20",
"7#	c #273020",
"8#	c #293220",
"9#	c #232A1C",
"0#	c #2A2D1D",
"a#	c #292F1F",
"b#	c #283020",
"c#	c #283120",
"d#	c #293120",
"e#	c #283021",
"f#	c #262E23",
"g#	c #292E26",
"h#	c #272D24",
"i#	c #232D1F",
"j#	c #262F20",
"k#	c #222D1E",
"l#	c #1D2719",
"  . + @ # # # # # # # # # @ @ @ # # $ % % $ & * = = * - ; ; > $ % % , , $ @ # # ",
"' ) ! ~ # # # { ] ] ] ] { # # # # # @ % % , ^ / ( _ : < ; ; [ $ , , $ # { ] ] ] ",
") } ! ~ # # # > | | | | { # # # # # @ @ $ , % @ # < < ; ; ; [ $ , , { > | | | | ",
"1 2 3 @ # # { ] > > | ; ] ] { # # # { { # @ @ @ @ ; ; ; ; ; | # @ @ > ; ; ; > ] ",
"% $ 4 # # # # $ $ @ ] ; | | ] # # # ] | | | > > | ; ; ; ; ; ; | > > | ; ; | 4 ) ",
"$ @ # # # # @ % , $ ] ; ; ; ] # # # ] | ; ; ; ; ; ; ; ; ; ; ; ; ; ; ; ; ; > 5 } ",
"# # # # # # # # # @ $ % > ; # , , , % % { | ; ; ; ; | ] ] | ; ; ; ; ; | 4 2 ! 6 ",
"# # # # # # # # # @ $ , ] ; # , , , , , # | ; ; ; ; | { ] | ; ; ; ; ; | @ 7 8 , ",
"] ] ] ] ] # @ # # # $ % ] | # % , , 6 9 @ ] | ; ; ; | ] ] | ; ; ; ; | 0 a b ! , ",
"< < < < ( $ $ @ # # @ @ { ] # $ % , + 1 + . c ; ; ; ; | > ] > ; ; ; c . ) } 6 $ ",
"= = * : < , , @ # # # # # # @ $ % 9 2 d d } e > | | | | > { { > > | e } } 2 e # ",
"= = f g h 1 2 $ # # # # # # % ) ! 1 } d 1 8 % @ # ] ] ] { { # # @ @ 3 9 , a h # ",
"= = i j d d } a # # # # # # + d d d d d 2 6 , , % # # # # # @ % , , , % $ # # # ",
"/ ] @ , 9 a $ @ # # # # 3 ! ! + @ k k k i < f f l # # # # # # @ @ @ @ @ @ # # # ",
"> @ % , , 4 # # # # # # ) } ! % m * * * * * * * _ # # # # # # # # # # # # # # # ",
"| ] { { n > ] @ $ $ @ # a o $ @ { i f = = = = = _ ] 0 # 4 # # # # # # # # # @ $ ",
"; ; ; ; ; | | @ , % $ # # # # # # { p _ q = q r s t u v w x 5 @ # # # # # # $ % ",
"; ; ; ; ; { { $ , % $ # # # # # # # y i z _ < A B C D D E F G H I g ] ] { # @ $ ",
"; ; ; ; | % J J J % @ # # # # # I K L L M N O P Q R S S T U V W X Y Z | ] # # # ",
"; ; | ] { # # # # # { ] { # { `  ...+.+.@.#.$.%.&.*.S S S S =.R -.;.>.,.4 $ @ # ",
"; ; > $ $ | | | | | | | { # > '.).!.~.~.{.].^./.(._.:.S S S <.[.}.|.1.2.3.% $ # ",
"| > ] { { ; ; ; ; | > { @ $ { 4.5.6.7.7.8.9.0.a.b.c.d.e.f.f.g.h.i.j.k.l.m.n.# ] ",
"| ] ] > | ; ; ; ; | { % % % @ o.p.q.7.7.r.s.t.u.d.v.w.}.x.y.w.z.A.7.B.1.C.D.] | ",
"> ] > ; ; ; ; > ] { @ , % % E.F.G.H.I.J.K.L.M.N.O.P.Q.R.S.T.U.V.W.X.j.Y.Z.`.| ; ",
"] | ; ; ; ; | # % % , , @ #  +.+++@+#+$+%+&+*+=+-+;+>+,+'+)+!+~+{+]+7.^+/+(+; ; ",
"{ > ; ; ; ; | # $ % , , h _+:+<+[+}+R |+1+2+3+4+5+6+7+8+8+8+8+8+8+9+0+a+K.b+; ; ",
"# # # # { ; ; ; | > # c+d+e+f+g+h+i+j+k+l+m+n+o+p+q+r+8+8+8+8+8+8+s+J.a+t+u+# # ",
"# # # { ] ; ; [ 0 v+w+x+y+z+A+B+C+D+Q E+F+r.G+H+I+J+8+8+8+8+8+8+8+K+L+M+N+O+{ { ",
"# # { ] P+Q+P+R+S+T+U+V+w.W+X+Y+Z+`+ @.@]++@@@#@$@%@&@8+8+8+8+8+8+*@=@-@;@>@] | ",
"# # # ,@'@)@!@~@{@]@^@/@^+(@_@:@<@[@}@|@~.7.1@2@3@4@5@8+8+8+8+6@7@8@9@0@a@b@] > ",
"# @ c@d@e@f@g@h@i@7.7.7.7.a+-@j@k@l@m@n@o@A.|.p@q@r@s@t@u@v@w@x@y@z@A@B@a # { { ",
"# C@D@E@F@G@H@I@J@K@K@K@K@t+L@M@N@O@P@Q@R@S@S@T@U@V@W@X@Y@Z@`@ #.#+#@#5 # # # # ",
"# @ ##$#%#&#*#=#-#;#;#;#;#>#,#1 '#)#!#~#{#]#^#/#(#_#:#<#[#O+}#|#1#h @ # # # # # ",
"# # 2#3#4#5#6#' 7#8#8#8#8#7#' @ h 9#0#a#b#c#d#e#f#g#h#x e i#j#c#' # # # # # # # ",
"# # # # # # # # # # # # # # # # k#, $ # # # # # # # @ % % @ # # # # # # # # # # ",
"c e o @ # # # # # # # # # # # # ^ @ @ # # # # # # $ % , % @ # # # # # # @ $ $ $ ",
"4 ! ! ~ # # # { { { { { { { # # # # # # # # # @ 5 6 6 6 o $ # # # # # @ $ , , , ",
"o 1 ! ~ # # # ] > > > > > > { # # # # # # # @ o 6 2 1 1 9 % $ $ $ $ $ $ % , % $ ",
"b } ! @ # # { > | | ; ; ; ; ] # # # # # # 4 o } d d d d l#9 , , , , , , , % $ # ",
"+ o a @ # # # # # { > ; ; ; | > { $ @ # h 3 2 d d d b 1 9 9 , $ $ $ $ $ $ $ @ # "};
