/* XPM */
static char * rogue_right_xpm[] = {
"40 40 572 2",
"  	c #2A3626",
". 	c #273323",
"+ 	c #242E20",
"@ 	c #20291C",
"# 	c #1D2619",
"$ 	c #202A1D",
"% 	c #222D1F",
"& 	c #232E20",
"* 	c #242F21",
"= 	c #253022",
"- 	c #263123",
"; 	c #212C1E",
"> 	c #202B1D",
", 	c #1F2A1C",
"' 	c #232E1F",
") 	c #263122",
"! 	c #263223",
"~ 	c #2A3627",
"{ 	c #293526",
"] 	c #293426",
"^ 	c #283325",
"/ 	c #293525",
"( 	c #1E271A",
"_ 	c #1C2518",
": 	c #212C1F",
"< 	c #283425",
"[ 	c #253021",
"} 	c #212B1D",
"| 	c #1E281A",
"1 	c #1E291B",
"2 	c #1F291C",
"3 	c #273224",
"4 	c #232D1F",
"5 	c #232C1E",
"6 	c #242B1C",
"7 	c #232A1A",
"8 	c #22291A",
"9 	c #21291A",
"0 	c #232A1C",
"a 	c #242C1E",
"b 	c #2B301D",
"c 	c #3F3D1E",
"d 	c #514B20",
"e 	c #5C5322",
"f 	c #5B5322",
"g 	c #504A20",
"h 	c #403D1D",
"i 	c #3C3A1E",
"j 	c #282F20",
"k 	c #273124",
"l 	c #273223",
"m 	c #272F1E",
"n 	c #38371C",
"o 	c #4D471F",
"p 	c #675D25",
"q 	c #7D6F2B",
"r 	c #8A7B2E",
"s 	c #7C6F2A",
"t 	c #685E26",
"u 	c #625825",
"v 	c #38351C",
"w 	c #293122",
"x 	c #343219",
"y 	c #655B25",
"z 	c #85772D",
"A 	c #908130",
"B 	c #918130",
"C 	c #928230",
"D 	c #908030",
"E 	c #8B7C2E",
"F 	c #5F5624",
"G 	c #36341B",
"H 	c #1F271C",
"I 	c #232E21",
"J 	c #222A1F",
"K 	c #33321C",
"L 	c #564F23",
"M 	c #675D26",
"N 	c #84772D",
"O 	c #90812F",
"P 	c #8E7F2F",
"Q 	c #8D7E2E",
"R 	c #8D7E2F",
"S 	c #84762C",
"T 	c #635924",
"U 	c #3D391D",
"V 	c #20281D",
"W 	c #1E271C",
"X 	c #252A1B",
"Y 	c #36361E",
"Z 	c #4A4722",
"` 	c #524D23",
" .	c #706628",
"..	c #8F7F2F",
"+.	c #8C7D2E",
"@.	c #6A5F25",
"#.	c #605621",
"$.	c #645923",
"%.	c #756829",
"&.	c #897A2D",
"*.	c #796C29",
"=.	c #544C21",
"-.	c #273324",
";.	c #283324",
">.	c #1D2318",
",.	c #2A2D1B",
"'.	c #363920",
").	c #373A20",
"!.	c #3B3D21",
"~.	c #575124",
"{.	c #746829",
"].	c #81742B",
"^.	c #766927",
"/.	c #594F20",
"(.	c #383218",
"_.	c #1D1B13",
":.	c #2A2616",
"<.	c #4D461F",
"[.	c #776A29",
"}.	c #7D6F2A",
"|.	c #5E5523",
"1.	c #1F271D",
"2.	c #253023",
"3.	c #283225",
"4.	c #232D20",
"5.	c #2C3828",
"6.	c #2B3727",
"7.	c #283424",
"8.	c #1F281D",
"9.	c #24291A",
"0.	c #2F311D",
"a.	c #383B20",
"b.	c #4E4A23",
"c.	c #665D26",
"d.	c #6C6126",
"e.	c #4A421B",
"f.	c #211F14",
"g.	c #141412",
"h.	c #151512",
"i.	c #232014",
"j.	c #554C20",
"k.	c #736627",
"l.	c #5F5524",
"m.	c #222C1F",
"n.	c #222D20",
"o.	c #1B2118",
"p.	c #2C2F1C",
"q.	c #35381F",
"r.	c #3B3D20",
"s.	c #5D5625",
"t.	c #6C6227",
"u.	c #615722",
"v.	c #1A1913",
"w.	c #3F3819",
"x.	c #6E6226",
"y.	c #242E21",
"z.	c #1E281B",
"A.	c #20291D",
"B.	c #25291A",
"C.	c #30331D",
"D.	c #36391F",
"E.	c #484622",
"F.	c #695F27",
"G.	c #675C24",
"H.	c #4A421C",
"I.	c #141F28",
"J.	c #125578",
"K.	c #13435F",
"L.	c #142836",
"M.	c #133B52",
"N.	c #16668F",
"O.	c #363D3C",
"P.	c #5F5522",
"Q.	c #524A21",
"R.	c #1E251B",
"S.	c #202B1E",
"T.	c #202A1C",
"U.	c #1E241A",
"V.	c #2B2E1C",
"W.	c #403E20",
"X.	c #494622",
"Y.	c #4A4622",
"Z.	c #504C23",
"`.	c #6F6329",
" +	c #625627",
".+	c #312A1D",
"++	c #141F27",
"@+	c #155577",
"#+	c #14435E",
"$+	c #143B52",
"%+	c #18668E",
"&+	c #2E383B",
"*+	c #50481F",
"=+	c #45401E",
"-+	c #1D251B",
";+	c #222E1F",
">+	c #212B1E",
",+	c #1C2218",
"'+	c #272A1A",
")+	c #413E1F",
"!+	c #514C23",
"~+	c #585124",
"{+	c #5C5525",
"]+	c #73672C",
"^+	c #60532A",
"/+	c #211820",
"(+	c #141A1E",
"_+	c #163F57",
":+	c #153345",
"<+	c #142028",
"[+	c #152D3C",
"}+	c #194C68",
"|+	c #262C2C",
"1+	c #403B1D",
"2+	c #38361D",
"3+	c #1C2319",
"4+	c #1B1D15",
"5+	c #30301A",
"6+	c #484320",
"7+	c #574F23",
"8+	c #5A5224",
"9+	c #615826",
"0+	c #70642D",
"a+	c #5E502F",
"b+	c #2E1B2C",
"c+	c #241823",
"d+	c #1A1A1F",
"e+	c #151719",
"f+	c #141514",
"g+	c #141716",
"h+	c #161C1E",
"i+	c #1E1E17",
"j+	c #302D1D",
"k+	c #2B2B1D",
"l+	c #283224",
"m+	c #1A1F17",
"n+	c #181A14",
"o+	c #1B1B14",
"p+	c #282818",
"q+	c #444222",
"r+	c #524928",
"s+	c #513D3A",
"t+	c #492547",
"u+	c #462444",
"v+	c #281926",
"w+	c #191517",
"x+	c #151413",
"y+	c #1B1719",
"z+	c #281B26",
"A+	c #261F23",
"B+	c #1B2018",
"C+	c #2F301B",
"D+	c #39391E",
"E+	c #3D3D1F",
"F+	c #3F3F21",
"G+	c #414021",
"H+	c #554E25",
"I+	c #5D4D36",
"J+	c #5D3F4A",
"K+	c #5C2F57",
"L+	c #572B54",
"M+	c #732A6D",
"N+	c #81297A",
"O+	c #85297E",
"P+	c #84297D",
"Q+	c #802978",
"R+	c #60275B",
"S+	c #3A2438",
"T+	c #202B1C",
"U+	c #232D1D",
"V+	c #33331B",
"W+	c #635A24",
"X+	c #766A29",
"Y+	c #796D2A",
"Z+	c #746929",
"`+	c #514D23",
" @	c #504B23",
".@	c #61562D",
"+@	c #705D3E",
"@@	c #735451",
"#@	c #684257",
"$@	c #813E73",
"%@	c #8D3981",
"&@	c #8F3485",
"*@	c #8F3584",
"=@	c #8D3C7F",
"-@	c #6C3860",
";@	c #422B39",
">@	c #1A1F18",
",@	c #222B1F",
"'@	c #263023",
")@	c #2A2F1C",
"!@	c #5A5222",
"~@	c #80732B",
"{@	c #8F802F",
"]@	c #918230",
"^@	c #8E7E2F",
"/@	c #716629",
"(@	c #5A5325",
"_@	c #615926",
":@	c #776930",
"<@	c #846F40",
"[@	c #7D6548",
"}@	c #89645D",
"|@	c #895B66",
"1@	c #834F68",
"2@	c #845168",
"3@	c #8E6165",
"4@	c #785A4E",
"5@	c #4F4030",
"6@	c #181B16",
"7@	c #21291F",
"8@	c #252F22",
"9@	c #242D1F",
"0@	c #30311C",
"a@	c #756828",
"b@	c #887A2E",
"c@	c #6A6027",
"d@	c #706529",
"e@	c #88792D",
"f@	c #7B6E2A",
"g@	c #7C6F2B",
"h@	c #5D5321",
"i@	c #273123",
"j@	c #2F321E",
"k@	c #685F26",
"l@	c #85772C",
"m@	c #8F8030",
"n@	c #605825",
"o@	c #5F5725",
"p@	c #7D702B",
"q@	c #282F1F",
"r@	c #48431F",
"s@	c #655B24",
"t@	c #716526",
"u@	c #726727",
"v@	c #6F6326",
"w@	c #554D21",
"x@	c #444220",
"y@	c #3D3E21",
"z@	c #4C4922",
"A@	c #6C6228",
"B@	c #897A2E",
"C@	c #90802F",
"D@	c #524A1F",
"E@	c #1C221A",
"F@	c #242D22",
"G@	c #242F22",
"H@	c #242E1F",
"I@	c #2E311C",
"J@	c #3F3D1D",
"K@	c #46421D",
"L@	c #46401B",
"M@	c #443E1B",
"N@	c #333019",
"O@	c #35361E",
"P@	c #544E23",
"Q@	c #6B6026",
"R@	c #726627",
"S@	c #746827",
"T@	c #746727",
"U@	c #5B5222",
"V@	c #3D3B1F",
"W@	c #232B20",
"X@	c #273225",
"Y@	c #212A1C",
"Z@	c #1F271A",
"`@	c #222217",
" #	c #2F2012",
".#	c #402A16",
"+#	c #5C3F1F",
"@#	c #604422",
"##	c #634622",
"$#	c #765126",
"%#	c #7B5625",
"&#	c #8F632F",
"*#	c #9A6A34",
"=#	c #956731",
"-#	c #7D5724",
";#	c #755223",
">#	c #4D3B1E",
",#	c #2A2E1F",
"'#	c #263124",
")#	c #2C2A1B",
"!#	c #44270F",
"~#	c #5F3717",
"{#	c #844F22",
"]#	c #885224",
"^#	c #8B5425",
"/#	c #A8662E",
"(#	c #AF6B32",
"_#	c #CB8043",
":#	c #D98B4A",
"<#	c #D38646",
"[#	c #B26D34",
"}#	c #9D5E2B",
"|#	c #5D3B1F",
"1#	c #302D1C",
"2#	c #4A2A0E",
"3#	c #663B17",
"4#	c #8E5323",
"5#	c #925625",
"6#	c #955826",
"7#	c #B86E32",
"8#	c #D78745",
"9#	c #E99550",
"0#	c #EF9953",
"a#	c #EE9952",
"b#	c #E5924D",
"c#	c #B16B32",
"d#	c #663F20",
"e#	c #242B1D",
"f#	c #3A361B",
"g#	c #5D5022",
"h#	c #625223",
"i#	c #6C5625",
"j#	c #6D5725",
"k#	c #6E5725",
"l#	c #785C28",
"m#	c #83622D",
"n#	c #C78445",
"o#	c #E69550",
"p#	c #E2904C",
"q#	c #B87136",
"r#	c #6E4D26",
"s#	c #41381E",
"t#	c #272B1C",
"u#	c #282D1C",
"v#	c #4F481E",
"w#	c #81732C",
"x#	c #80722C",
"y#	c #6D6228",
"z#	c #886130",
"A#	c #986335",
"B#	c #976333",
"C#	c #835D29",
"D#	c #5B4F24",
"E#	c #4C4721",
"F#	c #3A371D",
"G#	c #22281B",
"H#	c #3E3C1E",
"I#	c #8C7D2F",
"J#	c #433E1C",
"K#	c #1F1E14",
"L#	c #363119",
"M#	c #5F5625",
"N#	c #5B5223",
"O#	c #4B4520",
"P#	c #23291A",
"Q#	c #564F21",
"R#	c #7E712B",
"S#	c #575022",
"T#	c #323018",
"U#	c #181813",
"V#	c #342F18",
"W#	c #5C5324",
"X#	c #564E22",
"Y#	c #423D1E",
"Z#	c #1D251A",
"`#	c #1F291D",
" $	c #1F2419",
".$	c #675D24",
"+$	c #31311A",
"@$	c #191C15",
"#$	c #151513",
"$$	c #2C2916",
"%$	c #4E471F",
"&$	c #5D5424",
"*$	c #423D1D",
"=$	c #1D241A",
"-$	c #1C2219",
";$	c #181B15",
">$	c #50481D",
",$	c #726526",
"'$	c #736727",
")$	c #6B6024",
"!$	c #4E461D",
"~$	c #282B19",
"{$	c #1B2218",
"]$	c #171C15",
"^$	c #1B1A13",
"/$	c #2C2917",
"($	c #48411E",
"_$	c #4B441F",
":$	c #443E1D",
"<$	c #34311A",
"[$	c #1B2219",
"}$	c #5B381D",
"|$	c #794E22",
"1$	c #845A26",
"2$	c #7F5725",
"3$	c #51431C",
"4$	c #463F1B",
"5$	c #423D1B",
"6$	c #312F18",
"7$	c #202819",
"8$	c #1D271A",
"9$	c #1C2419",
"0$	c #191D15",
"a$	c #1D1913",
"b$	c #3B2D15",
"c$	c #3F3015",
"d$	c #392C15",
"e$	c #2C2515",
"f$	c #1A2218",
"g$	c #1E291C",
"h$	c #222C1E",
"i$	c #202A1E",
"j$	c #191E17",
"k$	c #673E1D",
"l$	c #814C22",
"m$	c #854F23",
"n$	c #7D4A21",
"o$	c #352315",
"p$	c #181C15",
"q$	c #1B2217",
"r$	c #1C2519",
"s$	c #1D261A",
"t$	c #1F2A1D",
"u$	c #1D2419",
"v$	c #1A1612",
"w$	c #311E10",
"x$	c #331F10",
"y$	c #2F1D10",
"z$	c #251C12",
"A$	c #191F17",
"B$	c #25261B",
"C$	c #5C3C22",
"D$	c #825028",
"E$	c #90592B",
"F$	c #885327",
"G$	c #5F3818",
"H$	c #2A1F15",
"I$	c #1B2418",
"J$	c #1F291B",
"K$	c #1F281C",
"L$	c #362112",
"M$	c #513017",
"N$	c #593519",
"O$	c #513119",
"P$	c #3B2818",
"Q$	c #24281C",
"R$	c #3B2E1D",
"S$	c #B6753F",
"T$	c #D88A4A",
"U$	c #E2904E",
"V$	c #C57E43",
"W$	c #1F1811",
"X$	c #231913",
"Y$	c #593416",
"Z$	c #965927",
"`$	c #A9642D",
" %	c #9D5E2A",
".%	c #744622",
"+%	c #342C1D",
"@%	c #292E1F",
"#%	c #5B4428",
"$%	c #6C4C2C",
"%%	c #704E2D",
"&%	c #63472A",
"*%	c #222B1E",
"=%	c #232B1E",
"-%	c #312C1B",
";%	c #4B371E",
">%	c #543B20",
",%	c #4F3920",
"'%	c #3D331F",
")%	c #272E1F",
"!%	c #262F21",
"~%	c #272F21",
"{%	c #222D1E",
"]%	c #1C2618",
"  . + @ # $ % & & * = - - - - * & & & & & & % ; > , ' ) ! ~ { ] ^ ^ ^ & > , , & ",
"/ + ( # _ $ % & & * - ^ ^ ^ ^ = & & & & & & & % > , > ; : ^ < ^ ^ ^ ^ & > , > - ",
"[ } | 1 2 ; & & & & * = = 3 ^ 3 - = & & 4 5 6 6 7 8 9 8 0 3 ^ ^ ^ ^ ^ = * & * 3 ",
"; , , ; % & & & & & ; ; % - ^ ^ 3 - ' a b c d e e f g h i j k ^ ^ ^ ^ 3 3 3 3 ^ ",
", > > % & & & & & % ; > ; * - 3 ^ l m n o p q r r r s t u v j - 3 ^ ^ ^ ^ ^ ^ ^ ",
"> % & & & & & & & & & & % ; , = 3 w x y z A B C C C B D E F G H * - ^ ^ ^ ^ ^ ^ ",
"> % & & & & & & & & & & % ; , I J K L M N A C C O P Q R R S T U V - ^ ^ ^ ^ ^ ^ ",
"% & * * * * * * % % & & % ; > W X Y Z `  .z ..+.s @.#.$.%.&.*.=.H - 3 ^ ^ ^ ^ k ",
"l -.;.;.;.;.;.- ; ; % & & % > >.,.'.).!.~.{.].^./.(._.:.<.[.}.|.1.- 2.3 ^ ^ 3.4.",
"5.5.5.5.5.6.6.7., $ % & & & 8.9.0.'.).a.b.c.d.e.f.g.g.h.i.j.k.l.V = & = 3 3 - ( ",
"5.5.5.5.5.< - + | 2 m.& & n.o.p.q.).).r.s.t.u.h.g.g.g.g.v.w.x.|.H * & * * * y.z.",
"5.5.5.5.5.* 2 ( # ( ; & % A.B.C.D.).a.E.F.G.H.I.J.K.L.M.N.O.P.Q.R.& & % S.> > , ",
"~ ~   7.-.m.z.| 2 T.% & ; U.V.W.X.Z Y.Z.`. +.+++@+#+L.$+%+&+*+=+-+& & % ; ; ; ; ",
"] ] ^ [ ;+> 2 , m.% & & >+,+'+)+!+~+~+{+]+^+/+(+_+:+<+[+}+|+1+2+-+& & & % % % % ",
"^ ^ 3 * ; ; ; % * * & % >+3+4+5+6+7+8+9+0+a+b+c+d+e+f+g+h+i+j+k+-+& & & & & & & ",
"^ ^ ^ ^ l+l+l+l+^ - % , > >+m+n+o+p+r.q+r+s+t+u+v+w+g.g.x+y+z+A+-+& & & & & & & ",
"^ ^ ^ ^ ^ ^ ^ ^ ^ - % , > >+B+C+D+E+F+G+H+I+J+K+L+M+N+O+P+Q+R+S+-+& & & & & & & ",
"- 3 ^ ^ ^ ^ ^ 3 & % > , T+U+V+W+X+Y+Z+`+ @.@+@@@#@$@%@&@*@=@-@;@>@,@'@- - - - - ",
"* - ^ ^ ^ 3 3 '@> > > > } )@!@~@{@]@^@/@(@_@:@<@[@}@|@1@2@3@4@5@6@7@3 ^ ^ ^ ^ 3 ",
"* - ^ ^ ^ - 8@* & & & & 9@0@a@E C C B b@c@s.d@r B C e@f@g@{@S h@6@7@3 ^ ^ ^ ^ 8@",
"* - ^ ^ ^ & > % ^ ^ ^ ^ i@j@k@l@O C m@g@n@!+o@p@{@C C C C C S h@6@7@3 ^ ^ ^ 3 > ",
"* - ^ - - * & * ^ ^ ^ ^ i@q@r@s@t@u@v@w@x@y@z@A@B@C@C C C {@*.D@E@F@3.- G@* * > ",
"* - 3 = * = - 3 ^ ^ ^ ^ 3 H@I@J@K@L@M@N@O@).F+P@Q@R@S@S@T@t@U@V@W@k ^ * : ; ; , ",
"* = - = = - ^ ^ ^ X@- = * % T.Y@Z@`@ #.#+#@###$#%#&#*#=#-#;#>#,#k 3 3 & ; > > > ",
"& & * - 3 ^ ^ ^ ^ '#& ; > > , ; : )#!#~#{#]#^#/#(#_#:#<#[#}#|#J 3 - * & & % % % ",
"& & * - ^ ^ ^ ^ ^ - % , , , , ; % 1#2#3#4#5#6#7#8#9#0#a#b#c#d#J 3 = & & & & & & ",
"& & & * * * * = ^ ^ 3 - - * % & e#f#g#h#i#j#k#l#m#n#o#p#q#r#s#t#V & & & & & & & ",
"% & & & & & * = ^ ^ ^ 3 3 = & & u#v#w#w#w#w#w#x#y#z#A#B#C#D#E#F#G#% & & & & & & ",
"> % & & & * = - ^ 3 = * * & & a H#p C C C C B I#t.J#K#L#M#M#N#O#K $ 4.& & & & & ",
"| } & & & - 3 ^ 3 - % , > ; % P#Q#R#C C C C P x#S#T#U#V#W#M#M#X#Y#Z#% & & & & & ",
"| } & & & = - - - = % ; ; % `# $.$C@C C C C e@y +$@$#$$$%$&$M#X#*$=$; & & & & & ",
"| } & & & & * * * & & & & % -$;$>$,$'$'$'$'$)$!$~${$]$^$/$($_$:$<$[$, ; & & & & ",
"| } & & & & & & & & & & & n.o.}$|$1$2$3$4$L@5$6$7$8$9$0$a$b$c$d$e$f$g$; % & & & ",
"T.h$& & & & & & & & & & % i$j$k$l$m$n$o$p$q$r$s$2 > t$u$v$w$x$y$z$A$z.; & & & & ",
"% & & & & & & & & & & & : B$C$D$E$F$G$H$I$J$} ; % % % K$v$L$M$N$O$P$Q$m.& & & & ",
"& & & & & & & & & & & & >+R$S$T$U$V$W$n+s$> % & & & & A.X$Y$Z$`$ %.%+%m.& & & & ",
"3 3 - } | } & & & & & & 4.@%#%$%%%&%*%>+% % & & & & & 4 =%-%;%>%,%'%)%& & & & & ",
"^ 3.- $ # $ % & & & & * * * !%~%~%!%& & & & & & & & & % % T.T.Y@} {%& & & & & & ",
"k 8@h$z._ $ % & & & = - - - - - - = & & & & & & & & h$$ , z.( ( z.> ; ; ; ; ; ; ",
"8@$ _ ]%# > % & & * - 3 3 ^ ^ ^ ^ 3 & & & & & & & 4 T.# _ _ _ _ # | , , , , , , "};
