/* XPM */
static char * rogue_run_left_xpm[] = {
"40 40 574 2",
"  	c #293425",
". 	c #252F21",
"+ 	c #212B1E",
"@ 	c #1D2619",
"# 	c #202A1C",
"$ 	c #232C1E",
"% 	c #242D1F",
"& 	c #252E20",
"* 	c #253022",
"= 	c #242F21",
"- 	c #232E20",
"; 	c #222D1F",
"> 	c #212C1E",
", 	c #202B1D",
"' 	c #1F2A1C",
") 	c #243021",
"! 	c #273223",
"~ 	c #283424",
"{ 	c #2B3627",
"] 	c #2A3526",
"^ 	c #283325",
"/ 	c #273224",
"( 	c #1F2A1D",
"_ 	c #253021",
": 	c #1F291B",
"< 	c #1E271A",
"[ 	c #1C2418",
"} 	c #272C1B",
"| 	c #2E311D",
"1 	c #36371E",
"2 	c #403F1F",
"3 	c #404021",
"4 	c #3E3E21",
"5 	c #373921",
"6 	c #2B3221",
"7 	c #273122",
"8 	c #232E1F",
"9 	c #222718",
"0 	c #3D3B1C",
"a 	c #4A451F",
"b 	c #585022",
"c 	c #685E25",
"d 	c #695F25",
"e 	c #645B25",
"f 	c #585123",
"g 	c #434121",
"h 	c #343721",
"i 	c #2A3120",
"j 	c #252F22",
"k 	c #1F291C",
"l 	c #232A1C",
"m 	c #36331B",
"n 	c #5C5423",
"o 	c #6E6327",
"p 	c #7C6F2B",
"q 	c #8D7E2E",
"r 	c #8E7E2E",
"s 	c #897A2D",
"t 	c #7C6F2A",
"u 	c #675C25",
"v 	c #504A20",
"w 	c #393A20",
"x 	c #2B3322",
"y 	c #263123",
"z 	c #23291B",
"A 	c #33321B",
"B 	c #5A5122",
"C 	c #7D702B",
"D 	c #8C7C2E",
"E 	c #908030",
"F 	c #928230",
"G 	c #918130",
"H 	c #8B7C2E",
"I 	c #736728",
"J 	c #524C21",
"K 	c #36371F",
"L 	c #30321C",
"M 	c #524A1F",
"N 	c #7A6D2A",
"O 	c #83752D",
"P 	c #81732B",
"Q 	c #7D6F2A",
"R 	c #85772D",
"S 	c #8E7E2F",
"T 	c #8F7F2F",
"U 	c #86772D",
"V 	c #6B6027",
"W 	c #554F23",
"X 	c #3D3B1E",
"Y 	c #272B1B",
"Z 	c #1E271B",
"` 	c #20291D",
" .	c #39381E",
"..	c #635822",
"+.	c #82742C",
"@.	c #766A29",
"#.	c #625823",
"$.	c #534A1E",
"%.	c #544B1F",
"&.	c #665C25",
"*.	c #7B6E29",
"=.	c #88782D",
"-.	c #746829",
";.	c #554F24",
">.	c #484622",
",.	c #3B3B1F",
"'.	c #2B2D1B",
").	c #1B2117",
"!.	c #1E291B",
"~.	c #242E21",
"{.	c #3E3C1F",
"].	c #695D24",
"^.	c #5D5322",
"/.	c #383319",
"(.	c #1B1913",
"_.	c #1D1B13",
":.	c #3C361A",
"<.	c #5B5120",
"[.	c #746727",
"}.	c #786B29",
"|.	c #635A26",
"1.	c #3F4021",
"2.	c #393B20",
"3.	c #373A20",
"4.	c #2F321D",
"5.	c #202317",
"6.	c #1D261A",
"7.	c #283224",
"8.	c #232D20",
"9.	c #3F3D20",
"0.	c #665B23",
"a.	c #695E24",
"b.	c #423E26",
"c.	c #1D2020",
"d.	c #141616",
"e.	c #142028",
"f.	c #2B291C",
"g.	c #564D1F",
"h.	c #6A5F26",
"i.	c #3E3F20",
"j.	c #383B20",
"k.	c #34361E",
"l.	c #1E281B",
"m.	c #1E281A",
"n.	c #1F281B",
"o.	c #232D1F",
"p.	c #283225",
"q.	c #263023",
"r.	c #222C1F",
"s.	c #202A1D",
"t.	c #3E3D22",
"u.	c #625722",
"v.	c #5E5421",
"w.	c #374449",
"x.	c #143042",
"y.	c #141D24",
"z.	c #141E26",
"A.	c #13405A",
"B.	c #152632",
"C.	c #433B1A",
"D.	c #635823",
"E.	c #6F6428",
"F.	c #4B4822",
"G.	c #3C3D20",
"H.	c #33351E",
"I.	c #1E2016",
"J.	c #1D2719",
"K.	c #1C2518",
"L.	c #283324",
"M.	c #373821",
"N.	c #524920",
"O.	c #4F4924",
"P.	c #2F5974",
"Q.	c #144C6A",
"R.	c #142938",
"S.	c #142B3A",
"T.	c #13668F",
"U.	c #153B52",
"V.	c #302C1C",
"W.	c #544A21",
"X.	c #6E6228",
"Y.	c #5C5525",
"Z.	c #464422",
"`.	c #3C3C20",
" +	c #2B2E1B",
".+	c #1E2318",
"++	c #1C2419",
"@+	c #1D271A",
"#+	c #313421",
"$+	c #443E1E",
"%+	c #43412B",
"&+	c #294F66",
"*+	c #16435D",
"=+	c #142531",
"-+	c #142633",
";+	c #16597C",
">+	c #17394C",
",+	c #232324",
"'+	c #4C4124",
")+	c #6E612C",
"!+	c #665D27",
"~+	c #544E24",
"{+	c #504B23",
"]+	c #4F4B23",
"^+	c #464421",
"/+	c #2D301B",
"(+	c #1D2016",
"_+	c #1B2217",
":+	c #1C2619",
"<+	c #2A2F20",
"[+	c #36331D",
"}+	c #353629",
"|+	c #233742",
"1+	c #162C3A",
"2+	c #141B20",
"3+	c #151C21",
"4+	c #18394C",
"5+	c #1D2B38",
"6+	c #261F2B",
"7+	c #4A3D2C",
"8+	c #6B5D2E",
"9+	c #6A6028",
"0+	c #5A5325",
"a+	c #564F23",
"b+	c #514B22",
"c+	c #423F1F",
"d+	c #262918",
"e+	c #242F20",
"f+	c #252A21",
"g+	c #2C2523",
"h+	c #34262D",
"i+	c #301D2D",
"j+	c #2E182C",
"k+	c #2E172C",
"l+	c #2D172A",
"m+	c #231923",
"n+	c #2F1D2E",
"o+	c #392137",
"p+	c #4E3B37",
"q+	c #63562D",
"r+	c #645B26",
"s+	c #544F23",
"t+	c #4D4821",
"u+	c #423E1E",
"v+	c #2D2E1A",
"w+	c #181B15",
"x+	c #222A1E",
"y+	c #2B3727",
"z+	c #293525",
"A+	c #262F23",
"B+	c #282826",
"C+	c #361E35",
"D+	c #52224F",
"E+	c #5C2157",
"F+	c #5E2059",
"G+	c #5B2056",
"H+	c #41213F",
"I+	c #4A2648",
"J+	c #54304D",
"K+	c #573D43",
"L+	c #524928",
"M+	c #494622",
"N+	c #3E3E20",
"O+	c #33331D",
"P+	c #2C2C1A",
"Q+	c #282819",
"R+	c #1A1E17",
"S+	c #293426",
"T+	c #2C3828",
"U+	c #293526",
"V+	c #232C21",
"W+	c #2C2528",
"X+	c #4A2843",
"Y+	c #77336D",
"Z+	c #85317C",
"`+	c #892F80",
" @	c #8A3080",
".@	c #86347B",
"+@	c #613459",
"@@	c #633D55",
"#@	c #694D4C",
"$@	c #65543A",
"%@	c #554E24",
"&@	c #5A5425",
"*@	c #625A26",
"=@	c #5B5323",
"-@	c #2B2B18",
";@	c #262F20",
">@	c #2A3627",
",@	c #20271D",
"'@	c #312823",
")@	c #59413E",
"!@	c #835563",
"~@	c #894F70",
"{@	c #884773",
"]@	c #8B4B74",
"^@	c #8F5770",
"/@	c #775852",
"(@	c #795F4C",
"_@	c #7A6640",
":@	c #6E612F",
"<@	c #5D5625",
"[@	c #796D2B",
"}@	c #585021",
"|@	c #32351E",
"1@	c #283425",
"2@	c #1D231A",
"3@	c #362E1C",
"4@	c #645430",
"5@	c #8A7049",
"6@	c #886A51",
"7@	c #836352",
"8@	c #876753",
"9@	c #917352",
"0@	c #887341",
"a@	c #89763D",
"b@	c #827333",
"c@	c #6F6529",
"d@	c #585124",
"e@	c #716629",
"f@	c #897A2E",
"g@	c #908130",
"h@	c #8C7D2E",
"i@	c #746828",
"j@	c #3C3B1E",
"k@	c #242E1F",
"l@	c #263122",
"m@	c #273324",
"n@	c #1C2219",
"o@	c #3A3418",
"p@	c #6A5E24",
"q@	c #8D7E2F",
"r@	c #88792D",
"s@	c #8A7B2E",
"t@	c #81742C",
"u@	c #695F27",
"v@	c #595224",
"w@	c #8E7F2F",
"x@	c #7B6F2A",
"y@	c #3F3D1E",
"z@	c #242D1E",
"A@	c #1D241A",
"B@	c #38341A",
"C@	c #655A23",
"D@	c #90802F",
"E@	c #746929",
"F@	c #565023",
"G@	c #494621",
"H@	c #5C5424",
"I@	c #776B29",
"J@	c #83752B",
"K@	c #7D702A",
"L@	c #615825",
"M@	c #262F21",
"N@	c #222B1F",
"O@	c #31321E",
"P@	c #504920",
"Q@	c #766928",
"R@	c #82732B",
"S@	c #84752C",
"T@	c #615926",
"U@	c #414021",
"V@	c #3A3B20",
"W@	c #3E3B1E",
"X@	c #4E471F",
"Y@	c #544C1F",
"Z@	c #564F20",
"`@	c #524D21",
" #	c #2D3322",
".#	c #2A3121",
"+#	c #3A371E",
"@#	c #614D20",
"##	c #725824",
"$#	c #775B25",
"%#	c #7E5F28",
"&#	c #8B672F",
"*#	c #8A662E",
"=#	c #7B5F29",
"-#	c #654F24",
";#	c #534221",
">#	c #4F3F20",
",#	c #4A3B1E",
"'#	c #3C3219",
")#	c #342F17",
"!#	c #33331B",
"~#	c #33361F",
"{#	c #2B311F",
"]#	c #253023",
"^#	c #312D1E",
"/#	c #704721",
"(#	c #8C5727",
"_#	c #9B602C",
":#	c #AC6E36",
"<#	c #C37E43",
"[#	c #C17D41",
"}#	c #A96D35",
"|#	c #8E5B2A",
"1#	c #7A4E24",
"2#	c #724921",
"3#	c #69441F",
"4#	c #482E15",
"5#	c #2D2515",
"6#	c #22281B",
"7#	c #242E20",
"8#	c #342D1E",
"9#	c #814F25",
"0#	c #A1622C",
"a#	c #BB7337",
"b#	c #D58645",
"c#	c #EC9852",
"d#	c #EA9650",
"e#	c #CD8242",
"f#	c #AA6A31",
"g#	c #8F5826",
"h#	c #865223",
"i#	c #7B4C20",
"j#	c #583815",
"k#	c #382D18",
"l#	c #252C1D",
"m#	c #222A1D",
"n#	c #322D1B",
"o#	c #6E4A23",
"p#	c #875728",
"q#	c #B17037",
"r#	c #D58746",
"s#	c #E79450",
"t#	c #E5934F",
"u#	c #C48243",
"v#	c #9F6B33",
"w#	c #835B27",
"x#	c #7C5825",
"y#	c #765423",
"z#	c #5F4A1E",
"A#	c #433B1C",
"B#	c #2A2F1E",
"C#	c #222C1E",
"D#	c #292D1C",
"E#	c #3B381D",
"F#	c #504822",
"G#	c #564B24",
"H#	c #765127",
"I#	c #9C6232",
"J#	c #B9763F",
"K#	c #B4753E",
"L#	c #876530",
"M#	c #78672A",
"N#	c #7C6C2B",
"O#	c #7B6C2A",
"P#	c #7A6B2A",
"Q#	c #786B2A",
"R#	c #595121",
"S#	c #32341C",
"T#	c #272D1D",
"U#	c #38361D",
"V#	c #4F4821",
"W#	c #595124",
"X#	c #544520",
"Y#	c #583A1F",
"Z#	c #674225",
"`#	c #664424",
" $	c #625325",
".$	c #796C2A",
"+$	c #8C7C2F",
"@$	c #706427",
"#$	c #47431F",
"$$	c #242C1D",
"%$	c #2B2E1C",
"&$	c #423D1D",
"*$	c #5A5224",
"=$	c #5D5524",
"-$	c #575023",
";$	c #413C1D",
">$	c #211F14",
",$	c #151512",
"'$	c #1A1A13",
")$	c #45401D",
"!$	c #6F6427",
"~$	c #88792E",
"{$	c #5E5623",
"]$	c #23291A",
"^$	c #2C2D1A",
"/$	c #443E1D",
"($	c #5C5324",
"_$	c #494520",
":$	c #34321A",
"<$	c #1C1C14",
"[$	c #161814",
"}$	c #171915",
"|$	c #595122",
"1$	c #887A2E",
"2$	c #6A5F25",
"3$	c #1F281C",
"4$	c #282817",
"5$	c #3D381B",
"6$	c #514A21",
"7$	c #48431F",
"8$	c #212116",
"9$	c #171914",
"0$	c #1A1E18",
"a$	c #1B1F18",
"b$	c #1D2419",
"c$	c #413D1D",
"d$	c #655A24",
"e$	c #7E702A",
"f$	c #655923",
"g$	c #1B1B14",
"h$	c #1E2317",
"i$	c #262516",
"j$	c #2F2B17",
"k$	c #292716",
"l$	c #1E1D14",
"m$	c #171713",
"n$	c #1E261B",
"o$	c #1F261C",
"p$	c #3B371B",
"q$	c #49421C",
"r$	c #4D421B",
"s$	c #4E421B",
"t$	c #4F421B",
"u$	c #423617",
"v$	c #241A12",
"w$	c #171913",
"x$	c #1D2519",
"y$	c #1E2218",
"z$	c #1C1A13",
"A$	c #191913",
"B$	c #161612",
"C$	c #141412",
"D$	c #151713",
"E$	c #181C16",
"F$	c #191E17",
"G$	c #242C1E",
"H$	c #272C1D",
"I$	c #2D2C1B",
"J$	c #372A15",
"K$	c #412C12",
"L$	c #452D11",
"M$	c #543415",
"N$	c #5C3718",
"O$	c #151813",
"P$	c #1B2318",
"Q$	c #1D241B",
"R$	c #151613",
"S$	c #161914",
"T$	c #22291D",
"U$	c #272318",
"V$	c #382412",
"W$	c #563314",
"X$	c #7D4A1E",
"Y$	c #8B5324",
"Z$	c #1B2317",
"`$	c #1B2018",
" %	c #171B15",
".%	c #171A15",
"+%	c #212A1E",
"@%	c #462F19",
"#%	c #78481F",
"$%	c #985A27",
"%%	c #965A29",
"&%	c #1C2519",
"*%	c #202B1E",
"=%	c #1D251A",
"-%	c #1C241A",
";%	c #1D251B",
">%	c #614021",
",%	c #925929",
"'%	c #995C2A",
")%	c #754823",
"!%	c #6A4725",
"~%	c #805027",
"{%	c #6C4524",
"]%	c #24281C",
"^%	c #3C3421",
"/%	c #453722",
"  . + @ # $ % % % & . . * * = - - - - - ; > > , ' ) ! ~ { ] ^ ^ ^ / + ( ' > - = ",
"_ : < [ } | 1 2 2 3 4 5 6 7 . - - - - - - 8 ; , ' > ; _     ^ ^ ^ / + ( , - / / ",
"; @ @ 9 0 a b c d d e f g h i . = - - - - = = ; ; ; ; = ^ ^ ^ ^ ^ / - ; ; j ^ ^ ",
"' k l m n o p q r r s t u v w x * - - - = y / / / / / / ^ ^ ^ ^ ^ ^ / / / / ^ ^ ",
"k z A B C D E F F F G E H I J K & - - - = y ^ ^ ^ ^ ^ ^ ^ ^ ^ ^ ^ ^ ^ ^ ^ ^ ^ ^ ",
"k L M N O P Q Q R S G T U V W X Y Z , , + > - y ^ ^ ^ ^ ^ / * y / ^ ^ ^ ^ ^ / j ",
"`  ...+.@.#.$.%.&.*.=.U -.;.>.,.'.).!.' ' ' > * ^ ^ ^ ^ ^ y = * / ^ ^ ^ ^ ^ / ~.",
"+ {.].N ^./.(._.:.<.[.}.|.1.2.3.4.5.6.k ' k , = y 7.^ ^ ^ / = * y / ^ ^ ^ 7.y 8.",
". 9.0.a.b.c.d.d.e.f.g.h.|.i.j.3.k.'.).l.: m.n.+ o.y ^ ^ ^ / y y y y ^ ^ p.q.r.s.",
"  t.u.v.w.x.y.z.A.B.C.D.E.F.G.3.3.H.I.< m.J.K.K.K.~.L.^ ^ ^ ^ y = = / ^ / - K.K.",
"  M.N.O.P.Q.R.S.T.U.V.W.X.Y.Z.1.3 `. +.+++@ K.@+@+> - = y y y * = - - - - > < l.",
"  #+$+%+&+*+=+-+;+>+,+'+)+!+~+{+]+^+/+(+_+K.:+l.!., , > = = = = - - > , , , k , ",
"7.<+[+}+|+1+2+3+4+5+6+7+8+9+0+a+b+c+d+.+` o.o.e+= ) ) e+- - - - - - > > > > > ; ",
"q.f+g+h+i+j+k+l+m+n+o+p+q+r+s+t+u+v+w+x+  y+y+y+y+y+y+z+- - - - - - - - - - - - ",
"A+B+C+D+E+F+F+G+H+I+J+K+L+M+N+O+P+Q+R+S+T+T+T+T+T+T+T+U+- - - - - - - - - - - - ",
"V+W+X+Y+Z+`+ @.@+@@@#@$@%@M+&@*@r+=@-@;@/ ] T+T+T+T+T+>@/ y = - - - - - - - - - ",
",@'@)@!@~@{@]@^@/@(@_@:@;.<@[@O R C }@|@_ 1@>@y+T+T+y+>@^ y = - = = = = = = = = ",
"2@3@4@5@6@7@8@9@0@a@b@c@d@e@f@g@F h@i@j@k@l@m@>@T+>@] S+^ y = = * y y y y y y * ",
"n@o@p@q@h@r@s@F F E t@u@v@@.f@w@T H x@y@z@= *   y+S+^ ^ ^ y = * / ^ ^ ^ ^ 7./ * ",
"A@B@C@s@D@G G G G H E@F@G@H@I@P J@K@L@K M@y y ! m@^ ^ ^ ^ / y / / ^ ^ ^ 7.q.- ; ",
"N@O@P@Q@R@S@S@S@S@C T@U@V@W@X@Y@Z@`@{. #7.^ / * = / ^ ^ ^ ^ ^ ^ ^ ^ ^ ^ 7.. , ' ",
"= .#+#@###$#%#&#*#=#-#;#>#,#'#)#!#~#{#7.^ ^ ^ y y ]#* y ^ ^ ^ ^ ^ / = = - > ' , ",
"y q.^#/#(#_#:#<#[#}#|#1#2#3#4#5#6#7#= / ^ ^ ^ / / * = * ^ ^ ^ ^ ^ / r., , ' ' , ",
"* j 8#9#0#a#b#c#d#e#f#g#h#i#j#k#l#- = y / ^ ^ ^ ^ y = * / / ^ ^ / y r.+ , , > ; ",
"; m#n#o#p#q#r#s#t#u#v#w#x#y#z#A#B#- - - = y ^ ^ ^ ^ ^ / - * / y = - - - - - - * ",
"C#D#E#F#G#H#I#J#K#L#M#N#O#P#Q#R#S#8 - - = y / / / / / y - = y y = - - - - - - = ",
"T#U#V#W#W#X#Y#Z#`# $.$s@+$+$+$@$#$$$- - - = = = = = = = - - = = - - - - - - - - ",
"%$&$*$=$-$;$>$,$'$)$!$~$F F F t@{$]$; - - - - - - - - - ; ; - - - - - - - - - - ",
"^$/$($-$_$:$<$[$}$v+|$N S S S 1$2$5.3$; - - - - - - - ; , > - - - - - - - - - - ",
"4$5$6$7$:$8$9$0$a$b$c$d$e$e$e$e$f$g$a$+ ; ; ; - - - - ; ' , ; - - - - - - - - - ",
"h$i$j$k$l$m$w+n$o$` '.p$q$r$s$t$u$v$w$x$< < n.' , , , , ' ' , , , > - - - - - - ",
"6.y$z$A$B$C$D$E$F$s.G$H$I$J$K$L$M$N$O$P$@ @ @ !.' ' ' ' ' ' ' ' ' , ; - - - - - ",
"l.Q$[$C$C$C$C$R$S$s.- r.T$U$V$W$X$Y$D$Z$K.K.@ !.' ' ' ' ' ' ' ' ' ' ; - - - - - ",
", ` `$ %.%.%.%.%E$+%- - ; ` @%#%$%%%E$&%< l.k , , *%*%*%, , ' ' , > ; - - - - - ",
"- ; ` =%-%A@A@A@;%r.- - - - >%,%'%)%;%k , ; - - - - - - - ; , , ; - - - - - - - ",
"= = - > r.o.- - - - - - - - !%~%{%]%- *%> ; - - - - - - ; > , , ; - - - - - - - ",
"/ y o.< , ; - - - - - - - - ^%/%^%r.- ; 8 - - - - - - ; , ' ' , ; - - - - - - ; ",
"y ~.s.@ # ; - - - = * * * * * * = - - - - - - - - C#+ s.l.l.l.' > ; ; ; ; ; ; > ",
"7#k < K.# ; - - - y / / / / / / * - - - - - - - - s.l.@+@ @ @ m.# , , , , , , , ",
"+ @ @ @+, ; - - = y / / 7.^ ^ ^ y = = - - - - ; ; n.K.K.K.K.:+@+!.' , , , , , , "};
