/* XPM */
static char * rogue_death_c_left_xpm[] = {
"40 40 332 2",
"  	c #1E281A",
". 	c #1C2518",
"+ 	c #202A1D",
"@ 	c #232E20",
"# 	c #253022",
"$ 	c #222D1F",
"% 	c #212C1E",
"& 	c #1F2A1C",
"* 	c #253122",
"= 	c #273223",
"- 	c #293425",
"; 	c #2A3627",
"> 	c #2A3526",
", 	c #283325",
"' 	c #202B1D",
") 	c #273224",
"! 	c #242F21",
"~ 	c #1D271A",
"{ 	c #212B1D",
"] 	c #263123",
"^ 	c #242E21",
"/ 	c #222C1F",
"( 	c #20291C",
"_ 	c #1D2719",
": 	c #273324",
"< 	c #263122",
"[ 	c #1E291B",
"} 	c #1F291B",
"| 	c #232D20",
"1 	c #273124",
"2 	c #1D2619",
"3 	c #2C3828",
"4 	c #263023",
"5 	c #252F22",
"6 	c #2B3627",
"7 	c #293525",
"8 	c #202A1C",
"9 	c #252F21",
"0 	c #242F20",
"a 	c #2A3626",
"b 	c #263223",
"c 	c #283424",
"d 	c #293526",
"e 	c #212A1E",
"f 	c #1D251B",
"g 	c #1D261A",
"h 	c #1C2519",
"i 	c #1E261B",
"j 	c #21261A",
"k 	c #232417",
"l 	c #20271B",
"m 	c #2B3727",
"n 	c #20291B",
"o 	c #1E2117",
"p 	c #1E1F15",
"q 	c #2A2C1A",
"r 	c #373A20",
"s 	c #404021",
"t 	c #282818",
"u 	c #222C1E",
"v 	c #232D1E",
"w 	c #252E20",
"x 	c #2B3525",
"y 	c #293426",
"z 	c #283224",
"A 	c #242C1B",
"B 	c #343318",
"C 	c #2C2C17",
"D 	c #35371E",
"E 	c #393B20",
"F 	c #5C5425",
"G 	c #414021",
"H 	c #232517",
"I 	c #232315",
"J 	c #302F18",
"K 	c #353318",
"L 	c #343319",
"M 	c #2C3726",
"N 	c #212A1B",
"O 	c #46411C",
"P 	c #8C7D2E",
"Q 	c #625825",
"R 	c #312E18",
"S 	c #151512",
"T 	c #46401D",
"U 	c #746829",
"V 	c #8E7F2F",
"W 	c #8C7C2E",
"X 	c #39371A",
"Y 	c #273123",
"Z 	c #21291A",
"` 	c #514A1F",
" .	c #88792D",
"..	c #928230",
"+.	c #8B7C2E",
"@.	c #665C26",
"#.	c #454321",
"$.	c #3E3F21",
"%.	c #595224",
"&.	c #5F5625",
"*.	c #302C17",
"=.	c #2B2D1A",
"-.	c #6D6328",
";.	c #8D7E2F",
">.	c #87782D",
",.	c #48441E",
"'.	c #273022",
").	c #242C1D",
"!.	c #3C3A1C",
"~.	c #6A5F26",
"{.	c #88792E",
"].	c #80732C",
"^.	c #7E712C",
"/.	c #746929",
"(.	c #575024",
"_.	c #3D3B1E",
":.	c #4B4621",
"<.	c #7B6E2B",
"[.	c #4E471D",
"}.	c #252D1E",
"|.	c #242A1B",
"1.	c #45401D",
"2.	c #716529",
"3.	c #82742C",
"4.	c #6F6326",
"5.	c #655A22",
"6.	c #6D6125",
"7.	c #7F712C",
"8.	c #7D702B",
"9.	c #524C23",
"0.	c #3C3D20",
"a.	c #464422",
"b.	c #675E27",
"c.	c #84762D",
"d.	c #918130",
"e.	c #6C6125",
"f.	c #373318",
"g.	c #21291C",
"h.	c #252B1C",
"i.	c #554D20",
"j.	c #81732C",
"k.	c #746727",
"l.	c #595021",
"m.	c #343018",
"n.	c #141412",
"o.	c #413A19",
"p.	c #726528",
"q.	c #736530",
"r.	c #504B24",
"s.	c #504B23",
"t.	c #6E6328",
"u.	c #7D6F2B",
"v.	c #6F6325",
"w.	c #2D2B16",
"x.	c #171713",
"y.	c #1B2018",
"z.	c #353720",
"A.	c #6C6126",
"B.	c #90802F",
"C.	c #584F22",
"D.	c #292616",
"E.	c #1C161A",
"F.	c #352132",
"G.	c #52472A",
"H.	c #4A4523",
"I.	c #554E23",
"J.	c #4F4A22",
"K.	c #222417",
"L.	c #161612",
"M.	c #271A11",
"N.	c #2B1C11",
"O.	c #27271A",
"P.	c #242F22",
"Q.	c #4C4825",
"R.	c #786B2A",
"S.	c #2E2A16",
"T.	c #1A1619",
"U.	c #2F1C2E",
"V.	c #331E32",
"W.	c #62572A",
"X.	c #6B6027",
"Y.	c #655B26",
"Z.	c #564F24",
"`.	c #363920",
" +	c #212216",
".+	c #41260F",
"++	c #47280D",
"@+	c #362917",
"#+	c #494622",
"$+	c #776A2A",
"%+	c #5B5224",
"&+	c #211F14",
"*+	c #161515",
"=+	c #351E34",
"-+	c #837334",
";+	c #918131",
">+	c #615825",
",+	c #565024",
"'+	c #3A3C20",
")+	c #383A20",
"!+	c #463E21",
"~+	c #513315",
"{+	c #4B2B0E",
"]+	c #362211",
"^+	c #1F1D14",
"/+	c #202217",
"(+	c #282D1C",
"_+	c #675D24",
":+	c #1B1619",
"<+	c #592C56",
"[+	c #62365A",
"}+	c #857042",
"|+	c #7E712B",
"1+	c #5E5625",
"2+	c #585124",
"3+	c #413D21",
"4+	c #AA662E",
"5+	c #B0692F",
"6+	c #78461D",
"7+	c #53431C",
"8+	c #5C5324",
"9+	c #4F4820",
"0+	c #181C16",
"a+	c #4C461E",
"b+	c #786C2A",
"c+	c #86782C",
"d+	c #241621",
"e+	c #862C7F",
"f+	c #6A2E66",
"g+	c #846F43",
"h+	c #8F7F2F",
"i+	c #7F722C",
"j+	c #5A5224",
"k+	c #423D21",
"l+	c #AE692F",
"m+	c #B56C30",
"n+	c #835A27",
"o+	c #5D5323",
"p+	c #6C6127",
"q+	c #7B6E29",
"r+	c #181B15",
"s+	c #212B1E",
"t+	c #30311E",
"u+	c #5F5522",
"v+	c #796B28",
"w+	c #292615",
"x+	c #261824",
"y+	c #542851",
"z+	c #8F2D87",
"A+	c #6D4755",
"B+	c #847335",
"C+	c #80722B",
"D+	c #664925",
"E+	c #CD8547",
"F+	c #DE8D4A",
"G+	c #936030",
"H+	c #7F6B2B",
"I+	c #85762D",
"J+	c #897A2E",
"K+	c #403B1C",
"L+	c #1A1F17",
"M+	c #1D241A",
"N+	c #3D3B1D",
"O+	c #6E6225",
"P+	c #383217",
"Q+	c #391A36",
"R+	c #802D7A",
"S+	c #912D8A",
"T+	c #6D4F4A",
"U+	c #7B592C",
"V+	c #F09A53",
"W+	c #7C532D",
"X+	c #665C25",
"Y+	c #87792D",
"Z+	c #4C451D",
"`+	c #181913",
" @	c #693F1E",
".@	c #A16432",
"+@	c #A16738",
"@@	c #36351C",
"#@	c #716526",
"$@	c #675C23",
"%@	c #4F471E",
"&@	c #413B1C",
"*@	c #342F18",
"=@	c #3A1937",
"-@	c #6E2368",
";@	c #922D8A",
">@	c #822D7B",
",@	c #7A6345",
"'@	c #8A7B2E",
")@	c #836D2B",
"!@	c #9D6830",
"~@	c #D88846",
"{@	c #BE7941",
"]@	c #5E3C22",
"^@	c #3D381B",
"/@	c #895125",
"(@	c #D08141",
"_@	c #DE8E4D",
":@	c #9A6335",
"<@	c #1E251B",
"[@	c #191E17",
"}@	c #716628",
"|@	c #635A26",
"1@	c #524C24",
"2@	c #413E1F",
"3@	c #492345",
"4@	c #7E2D77",
"5@	c #7C2D75",
"6@	c #562D53",
"7@	c #756635",
"8@	c #7C702A",
"9@	c #7C6F2A",
"0@	c #6D6227",
"a@	c #6D5124",
"b@	c #9A5D2A",
"c@	c #985C2A",
"d@	c #362718",
"e@	c #181D16",
"f@	c #3F3B1D",
"g@	c #665D26",
"h@	c #7C702B",
"i@	c #403B1B",
"j@	c #754924",
"k@	c #B17039",
"l@	c #CD8448",
"m@	c #BE7B43",
"n@	c #1E271A",
"o@	c #1F281B",
"p@	c #1F291C",
"q@	c #1E281B",
"  . + @ @ @ @ # # # # # # @ @ @ @ @ @ $ % % & & * = - ; > , , , , $ & & ' @ @ # ",
". . + @ @ @ @ , , , , , ) @ @ @ @ @ @ @ @ $ & & & & ! , , , , , , $ & & $ , , , ",
"~ ~ { @ @ @ @ ] ] ] ) , ) ! ! @ @ @ @ @ ! ! % % % % # , , , , , , ^ % % @ , , , ",
"$ @ @ @ @ @ @ & & & ! , , , , @ @ @ @ # , , , , , , , , , , , , , , , , , , , , ",
"$ @ @ @ @ @ @ & & & ! , , , , @ @ @ @ # , , , , , , , , , , , , , , , , , , , , ",
"@ @ @ @ @ @ @ $ $ $ / % @ , , % ' ' ' ' % $ , , , , , , ) ! ! , , , , , , , , ( ",
"@ @ @ @ @ @ @ @ @ @ % & $ , , ' & & & & & % , , , , , , ) @ @ , , , , , , , , _ ",
"@ @ @ @ @ @ @ @ @ @ % & $ , , ' & & & & & % , , , , , , ) @ @ , , , , , , , , _ ",
": : : : < % % @ @ @ $ % $ ] ] % % ' & [   } | | ) , , , ) # # ] ] ) , , 1 | | 2 ",
"3 3 3 3 - & & @ @ @ @ @ @ @ @ @ @ ' &   . . . . 4 , , , , , , @ @ ] , , 5 . . . ",
"3 3 6 7 = [ } @ @ @ @ @ @ @ @ $ / 8 [ ~ . . 2 2 9 ] ) ) ) ) ) @ @ # ] ] ^ 2 2 ~ ",
"3 3 0 . . . . $ @ @ @ @ @ @ @ 2 . . . . . 2 & & & & % @ @ @ @ @ @ ' & & & & & @ ",
"3 3 0 . . . . $ @ @ @ @ @ @ @ 2 . . . . . 2 & & & & % @ @ @ @ @ @ ' & & & & & @ ",
"@ $ ' [ & / $ @ @ @ @ @ % ~ ~ [ [ < > > > > a a a a b @ @ @ @ @ @ @ $ $ $ $ $ @ ",
"% & & & ' @ @ @ @ @ @ @ % . . & & c 3 3 3 3 3 3 3 3 : @ @ @ @ @ @ @ @ @ @ @ @ @ ",
"# ! ! ! # ] ] % % % $ @ $ + + % % * : d 3 3 3 3 3 3 - ] # @ @ @ @ @ @ @ @ @ @ @ ",
", , , , , , , ' & & % e f f f f / @ @ ) 3 3 3 3 3 3 > , ) @ @ @ @ @ @ @ @ @ @ @ ",
", , , , ) # # ' g h i j k k k k l / @ < d a 3 3 m 6 d , ) @ @ ! # # # # # # # @ ",
", , , , ] & n n o p p q r r r s t l u v v w x 3 y , , , ) @ @ , , , , , , , , @ ",
", , , z # A B C D r r r r r E F G H I J K K L M - , , , ) @ ! , , , , , , z ) @ ",
", , ! ' N O P Q G r r r r r E F R S T U V V W X Y , , , , , , , , , , , ] ' ' & ",
", , @ Z `  ...+.@.#.r r r $.%.&.*.=.-.;.......>.,.'., , , , , , , , , , ] & & & ",
"# # ).!.~.......{.].^.^./.(.&.&._.:.<...........[.}.] , , , , , , ! $ $ % & & $ ",
"! @ |.1.2.........3.4.5.6.7.8.9.0.a.b.c.....d.e.f.g.] , , , , , , $ & & & & & @ ",
"# # h.i.j...d.j.k.l.m.n.o.p.q.r.0.r s.t.7.u.v.w.x.y./ ] ) , , ] ] @ % % % % % # ",
") , z.A.....B.C.D.n.n.n.n.E.F.G.H.a.I.&.F J.K.L.M.N.O.@ P., , @ @ @ @ @ @ @ @ , ",
"] ) Q.R...d. .S.n.n.n.n.n.T.U.V.W.X.Y.&.Z.r `. +.+++@+e | ) ) @ @ @ @ @ @ @ @ ) ",
"@ @ #+$+..+.%+&+n.n.n.n.n.n.*+=+-+;+<.>+,+'+)+!+~+{+]+^+/+$ @ @ @ @ @ @ @ @ @ @ ",
"@ @ (+_+..>.^+S n.n.n.n.n.n.:+<+[+}+d.|+1+2+3+4+5+6+7+8+9+0+@ @ @ @ @ @ @ @ @ @ ",
"@ @ |.a+b+c+n.n.n.n.n.n.n.n.d+e+f+g+..h+i+j+k+l+m+n+o+&.p+q+r+r+s+@ @ @ @ @ @ @ ",
"@ @ 9 t+u+V v+w+n.n.n.n.n.x+y+z+A+B+....C+D+E+F+G+H+I+I+J+h+q+q+K+L+L+L+M+@ @ @ ",
"@ @ ! / N+O+d.k.P+n.n.n.n.Q+R+S+T+c.....3.U+V+V+W+X+Y+..........Z+`+ @.@+@M+@ @ ",
"@ @ @ @ s+@@#@#@$@%@&@*@=@-@;@>@,@'@..+.)@!@~@{@]@^@~.Y+........Z+`+/@(@_@:@<@| ",
"@ @ @ @ @ / [@[@}@|@1@2@3@4@5@6@7@8@9@0@a@b@c@d@e@e@f@g@h@h@h@h@i@[@j@k@l@m@L+$ ",
"@ @ @ @ @ @ @ @ @ @ @ @ @ @ @ ' '   2 2 ~ n@' ' ' ' ' ' ' & & ' ' $ @ @ @ @ @ @ ",
"@ @ @ @ @ @ @ @ @ @ @ @ @ @ @ @ @ ' & % @ @ @ @ @ @ @ @ $ & & @ @ @ @ @ @ @ @ @ ",
"@ @ @ @ @ @ @ @ @ @ @ @ @ @ @ @ @ ' & % @ @ @ @ @ @ @ @ $ & & @ @ @ @ @ @ @ @ @ ",
"( ~ { @ @ @ @ @ @ @ @ @ @ @ @ @ @ @ $ @ @ @ @ @ @ @ % ' ' & & @ @ @ @ @ @ @ @ ' ",
"o@. + @ @ @ @ @ @ @ @ @ @ @ @ @ @ @ @ @ @ @ @ @ @ @ % & & & & @ @ @ @ @ @ @ @ & ",
"2 . + @ @ @ @ ] ] ] ] ] ] ] ] @ @ @ @ @ @ @ @ @ + p@q@~ ~ ~ n@s+% % % % % % % & "};
