/* XPM */
static char * _1_xpm[] = {
"40 40 240 2",
"  	c #222D1F",
". 	c #232E20",
"+ 	c #202B1D",
"@ 	c #1F2A1C",
"# 	c #1F2A1D",
"$ 	c #242F20",
"% 	c #242F21",
"& 	c #202A1C",
"* 	c #1E281A",
"= 	c #212C1E",
"- 	c #273224",
"; 	c #2C3828",
"> 	c #2A3626",
", 	c #253022",
"' 	c #273324",
") 	c #2B3627",
"! 	c #2C3728",
"~ 	c #283424",
"{ 	c #273223",
"] 	c #212B1D",
"^ 	c #232D20",
"/ 	c #263223",
"( 	c #253122",
"_ 	c #283224",
": 	c #283325",
"< 	c #1C2619",
"[ 	c #263123",
"} 	c #293426",
"| 	c #2A3526",
"1 	c #263122",
"2 	c #1C2518",
"3 	c #1F281B",
"4 	c #283324",
"5 	c #2B3727",
"6 	c #1D2719",
"7 	c #253021",
"8 	c #1E281B",
"9 	c #1E271A",
"0 	c #232D1F",
"a 	c #273124",
"b 	c #222C1F",
"c 	c #1E291B",
"d 	c #1D2619",
"e 	c #222C1E",
"f 	c #253023",
"g 	c #151513",
"h 	c #141412",
"i 	c #151613",
"j 	c #995922",
"k 	c #9B5A22",
"l 	c #BD9168",
"m 	c #985821",
"n 	c #71431C",
"o 	c #70431C",
"p 	c #9A5922",
"q 	c #6D411C",
"r 	c #202C1D",
"s 	c #71441C",
"t 	c #6D411B",
"u 	c #151713",
"v 	c #202A1D",
"w 	c #1F291B",
"x 	c #242E20",
"y 	c #BC9067",
"z 	c #9B5A23",
"A 	c #6D421C",
"B 	c #233219",
"C 	c #223119",
"D 	c #1F291C",
"E 	c #233119",
"F 	c #6F431C",
"G 	c #243219",
"H 	c #201812",
"I 	c #705120",
"J 	c #77B845",
"K 	c #72B042",
"L 	c #23311A",
"M 	c #141512",
"N 	c #3F5C27",
"O 	c #1A1612",
"P 	c #704D1F",
"Q 	c #76B644",
"R 	c #5D8D38",
"S 	c #5F9139",
"T 	c #73B142",
"U 	c #23321A",
"V 	c #3E5C27",
"W 	c #3F5D27",
"X 	c #151612",
"Y 	c #5C8C38",
"Z 	c #704B1E",
"` 	c #76B645",
" .	c #5C8B37",
"..	c #45672A",
"+.	c #73B243",
"@.	c #5D8E38",
"#.	c #161512",
"$.	c #44280F",
"%.	c #43280F",
"&.	c #25351A",
"*.	c #416128",
"=.	c #5A8936",
"-.	c #161713",
";.	c #E7C6A8",
">.	c #516536",
",.	c #ECCBAC",
"'.	c #42270F",
").	c #161714",
"!.	c #669040",
"~.	c #EBCAAB",
"{.	c #5C8C37",
"].	c #232E21",
"^.	c #B98E66",
"/.	c #EAC9AA",
"(.	c #3B3F29",
"_.	c #181512",
":.	c #4C2C10",
"<.	c #965721",
"[.	c #161814",
"}.	c #6E421C",
"|.	c #283319",
"1.	c #462910",
"2.	c #72441C",
"3.	c #985E24",
"4.	c #5A8836",
"5.	c #45290F",
"6.	c #995D23",
"7.	c #263023",
"8.	c #BE936A",
"9.	c #985A22",
"0.	c #5B8A37",
"a.	c #3D5926",
"b.	c #171915",
"c.	c #432910",
"d.	c #281E12",
"e.	c #281D12",
"f.	c #291D12",
"g.	c #73441C",
"h.	c #975821",
"i.	c #1E291C",
"j.	c #6E4B2E",
"k.	c #4E3B25",
"l.	c #222B1C",
"m.	c #43270F",
"n.	c #271D12",
"o.	c #292D1E",
"p.	c #5F4227",
"q.	c #B77A4A",
"r.	c #E3985E",
"s.	c #815633",
"t.	c #302719",
"u.	c #3F2818",
"v.	c #714D36",
"w.	c #794923",
"x.	c #71421D",
"y.	c #71421E",
"z.	c #75451F",
"A.	c #5F391D",
"B.	c #5D391D",
"C.	c #4C2E19",
"D.	c #45311F",
"E.	c #463221",
"F.	c #534235",
"G.	c #66554A",
"H.	c #645245",
"I.	c #614F44",
"J.	c #5B5146",
"K.	c #2F3529",
"L.	c #1D271A",
"M.	c #2F2F1F",
"N.	c #62452A",
"O.	c #B5794B",
"P.	c #DF965D",
"Q.	c #CE8650",
"R.	c #DA9157",
"S.	c #724828",
"T.	c #6D4221",
"U.	c #AC6E3B",
"V.	c #A76F45",
"W.	c #8F5D37",
"X.	c #996134",
"Y.	c #9B6135",
"Z.	c #B1703E",
"`.	c #B1703D",
" +	c #B27242",
".+	c #C0967C",
"++	c #CAB8AB",
"@+	c #BCA89A",
"#+	c #B7A396",
"$+	c #CDBBAE",
"%+	c #615C53",
"&+	c #322C1B",
"*+	c #734B2A",
"=+	c #BC7E4D",
"-+	c #B57747",
";+	c #9E6537",
">+	c #925C32",
",+	c #D58D56",
"'+	c #704828",
")+	c #2D1E15",
"!+	c #4A2E19",
"~+	c #664937",
"{+	c #626063",
"]+	c #452A17",
"^+	c #4C2E18",
"/+	c #412819",
"(+	c #402819",
"_+	c #42311F",
":+	c #473C2F",
"<+	c #4A463E",
"[+	c #444038",
"}+	c #413E36",
"|+	c #4B473F",
"1+	c #2E3428",
"2+	c #272D1F",
"3+	c #292B1C",
"4+	c #1F281C",
"5+	c #22291C",
"6+	c #252A1C",
"7+	c #694729",
"8+	c #3E2817",
"9+	c #171512",
"0+	c #653D1A",
"a+	c #6E421B",
"b+	c #212A1D",
"c+	c #5A8937",
"d+	c #1D2715",
"e+	c #3D5A26",
"f+	c #416028",
"g+	c #171A13",
"h+	c #598736",
"i+	c #223018",
"j+	c #171B13",
"k+	c #242E21",
"l+	c #3C5925",
"m+	c #181D14",
"n+	c #1C2418",
"o+	c #426128",
"p+	c #191E14",
"q+	c #1E271B",
"  . . . . . + @ @ # + . $ % % % % % % % . . . + @ @ @ # + . . . . . . . . . & * ",
". . . . = @ @ @ . . . . - ; ; ; ; ; ; > . . . + @ @ @ . . . . . . . . . . . . . ",
"% . . .   + @ @       , ' ) ! ; ; ; ~ {     . = + + = . . . . . . . . ] ^ / / ( ",
", . . . . . + @ @ @ = _ : : ) ; ; ; @ @ @ = . . . . . . . . . . . .   < = ; ; ) ",
"- % % [ [ [ , % + @ = _ : : } | 1 , @ + =   . . . . . [ [ [ [ % . .   2 3 $ 4 5 ",
"} % % - : : : : + @ = _ : : : : + @ @ + . . . . . . . : : : : , . .   2 2 6 7 5 ",
"= 8 9 3 0 - : : a [ - : : : : : - [ [ - - , . . . - - : [ = =   . . . b = c +   ",
"@ d 2 2 e - : : : : : : : : : : : : : : : [ . . . : : : f @ @ = . . . .   @ @ @ ",
"@ @ @ @ * 2 % : : : : : [ . [ : : : : [ @ @ @ @ @ - : @ + . . . . . . . . . = @ ",
"@ @ @ @ * 2 % : : : : : [ . [ : : g h h h h h h i - : @ + . . . . . . . . . = @ ",
"= + + + 8 2 b , : : : - [ % - : i j k l l k k k m i - + = . .     , 1 1 1 1 7   ",
", . . . + d 2 2 - : - . , : : i j k n o k k k k p q i . . . . = r > ; ; ; ; ; ) ",
". . . . = & 8 * ^ % % . % [ i m k s o k k k k k p o t u . . . v w x 1 ; ; ; ; > ",
"    . . . . + @ @ @ + . . . i m k y l z k k k k p o A B B B B C 2 2 3 ; ; ; ; > ",
"D * D   . .           . . . i E B F o G B B H p o o I J J J K L = w @ . , } } - ",
"3 2 *   . . . . . . . . . . i h h B B h M N O o P J Q R S T U . . + @ @   : : [ ",
"% + @ @ = . . . . . . . . . i h h V W M X Y O Z `  .W ..+.E + , : : : : : : : - ",
"% + @ @ = . . . . . . . . . i E B Q @.W R Y #.$.%.&.*.=.i @ + % - : : : : : : - ",
". . . . . . - : : : : : [ . i E B Q @.W R Y #.$.%.B C u   @ @ @ + - : : : : [ . ",
", , % .     , f : : : : - -.;.>.W W W W ,.Y #.$.$.$.'.u %         , f : : : [ . ",
"- : - % = @ @ @ - : : : : ).;.,.!.R R W ,.~.{.E h h ).: : : : : - = + : : : [ % ",
"- : - [ % = + @ . ].% : : ).^./.(.B B W l ~.B h _.:.k <.[.: : : : , % , [ : [ % ",
"- : : : [ . + @ @ @ = _ ).h h }.|.M h B B B #.1.2.k 3.R 4.[.: : : : - . , : [ % ",
"  - : : - - %       . % u h h m 2.5.$.$.o o o 2.k 6.R R R 4.U 7.: : : - [ % % . ",
"+ - : : : : , . . . . . u h h m /.8.l l ,.o o 2.k 6.R R R 4.U , : : : : [ . .   ",
"- : - % . . . . . . . . . i h m 2.5.$.$.o o o 2.k 9.*.R 0.a.b.: : % . . . . . % ",
"[ : - % . . . . . . . . . . i h }.y l l o o o 2.k m c.C h [.- : : % % . . . . . ",
"c - : : [ . . . . . . . . . + @ d.e.e.e.e.e.f.$.1.g.h.u   @ + , : : - . . . @ d ",
"+ , [ [ , . . . . . .   i.j.k.l.= '.m.$.$.e.e.e.e.n.i .   + + % [ [ [ . . . @ d ",
"  . . . . . . . . . o.p.q.r.s.t.u.v.w.x.y.z.A.B.C.D.E.F.G.H.I.J.K.. . . . . @ L.",
"  . . . . . . x M.N.O.P.Q.R.S.T.U.V.W.X.Y.Z.`.`.`.`. +.+++@+#+$+%+. . . . . @ L.",
"^ . . . . . . &+*+=+-+;+>+,+'+)+!+~+{+]+]+^+/+/+(+(+_+:+<+[+}+|+1+. . . . .   = ",
". . . . . . . 2+3+4+5+6+9 7+8+9+%.0+a+o o o F $.$.'.h h h h h [.. . . . . . . . ",
"% .   @ @ @   . . . . . = i h h h h $.o o o F $.m.h h h h h h [.. .   d b+: : - ",
"% .   @ @ @   . . . . . u c+d+h h h h h h h h h h h h h h h h [.. .   2 v : : - ",
": % . . = @ @ @ @ @ @ i e+ .R f+g+2 . . . . . h h h h h h [.a [.. .   2 2 d b : ",
"[ % . .   + + + + h+i+e+W W W j+2 2 = b . .   k+h h h h [.[ [ % . .   * 9 9 e [ ",
"@   . . . . . . [.l+W W W W m+n+2 2 2 9 . = @ , - h h ).f @ @ = . . . .   @ @ @ ",
"= . . . . . . . [.h h+R o+p+q+* * * * c =   % - : : : % . = =   . . . . . = + @ ",
"  . . . . . . . @ @ @ @ @ @ @ @ @ @ @ @ @ . : : : : : @ + . . . . . . . . . = + "};
