/* XPM */
static char * _2_xpm[] = {
"40 40 269 2",
"  	c #202B1D",
". 	c #232E20",
"+ 	c #212C1E",
"@ 	c #1F2A1C",
"# 	c #1F2A1D",
"$ 	c #222D1F",
"% 	c #242F20",
"& 	c #242F21",
"* 	c #1F291B",
"= 	c #202A1C",
"- 	c #263123",
"; 	c #2B3727",
"> 	c #2C3828",
", 	c #2A3626",
"' 	c #243021",
") 	c #273224",
"! 	c #2A3627",
"~ 	c #2C3728",
"{ 	c #283424",
"] 	c #273223",
"^ 	c #212B1E",
"/ 	c #242E21",
"( 	c #263223",
"_ 	c #253022",
": 	c #273324",
"< 	c #283325",
"[ 	c #2B3627",
"} 	c #1D261A",
"| 	c #252F21",
"1 	c #283425",
"2 	c #293425",
"3 	c #293426",
"4 	c #2A3526",
"5 	c #263122",
"6 	c #1D2619",
"7 	c #253021",
"8 	c #293525",
"9 	c #293526",
"0 	c #1C2518",
"a 	c #1F291C",
"b 	c #1E271A",
"c 	c #1F281B",
"d 	c #222C1E",
"e 	c #273123",
"f 	c #232D20",
"g 	c #222C1F",
"h 	c #1D271A",
"i 	c #212A1D",
"j 	c #171915",
"k 	c #141412",
"l 	c #151613",
"m 	c #1E291B",
"n 	c #161914",
"o 	c #945621",
"p 	c #9B5A22",
"q 	c #BB8F65",
"r 	c #BD9168",
"s 	c #9B5B24",
"t 	c #975821",
"u 	c #151713",
"v 	c #181A15",
"w 	c #925520",
"x 	c #74451D",
"y 	c #70431C",
"z 	c #9A5922",
"A 	c #995922",
"B 	c #6C411B",
"C 	c #181C16",
"D 	c #905420",
"E 	c #75461D",
"F 	c #6B401B",
"G 	c #171A15",
"H 	c #1D2719",
"I 	c #BA8C63",
"J 	c #9D5E2A",
"K 	c #6B411C",
"L 	c #233219",
"M 	c #23311B",
"N 	c #232E1F",
"O 	c #1E281A",
"P 	c #232C1F",
"Q 	c #212F18",
"R 	c #2C3319",
"S 	c #1B1612",
"T 	c #715923",
"U 	c #77B845",
"V 	c #6CA83F",
"W 	c #283324",
"X 	c #253122",
"Y 	c #223018",
"Z 	c #151712",
"` 	c #3F5D27",
" .	c #171512",
"..	c #705020",
"+.	c #75B444",
"@.	c #5D8D38",
"#.	c #61953A",
"$.	c #6EAA40",
"%.	c #3C5925",
"&.	c #191E14",
"*.	c #5D8C38",
"=.	c #704B1E",
"-.	c #76B644",
";.	c #5B8A37",
">.	c #496E2C",
",.	c #6FAC40",
"'.	c #23311A",
").	c #72B042",
"!.	c #5F9139",
"~.	c #416128",
"{.	c #5C8C38",
"].	c #151412",
"^.	c #44280F",
"/.	c #432910",
"(.	c #26371A",
"_.	c #436329",
":.	c #578535",
"<.	c #181B15",
"[.	c #D9BB9E",
"}.	c #727750",
"|.	c #E9C8A9",
"1.	c #608E3B",
"2.	c #41260F",
"3.	c #191D17",
"4.	c #ECCBAC",
"5.	c #7C9753",
"6.	c #233119",
"7.	c #161814",
"8.	c #253023",
"9.	c #AE855F",
"0.	c #E6C4A4",
"a.	c #625B46",
"b.	c #3E5B26",
"c.	c #BA9067",
"d.	c #ECCAAB",
"e.	c #251A13",
"f.	c #955721",
"g.	c #263124",
"h.	c #191C16",
"i.	c #683E1B",
"j.	c #353519",
"k.	c #161913",
"l.	c #223119",
"m.	c #71431C",
"n.	c #985E24",
"o.	c #598635",
"p.	c #232E21",
"q.	c #77461D",
"r.	c #4A2C11",
"s.	c #6E421B",
"t.	c #995C23",
"u.	c #588535",
"v.	c #E4C1A2",
"w.	c #C39872",
"x.	c #EAC8A9",
"y.	c #774D2C",
"z.	c #995A22",
"A.	c #5A8936",
"B.	c #3B5725",
"C.	c #273124",
"D.	c #202B1E",
"E.	c #66472C",
"F.	c #563F28",
"G.	c #2F3223",
"H.	c #633A18",
"I.	c #B48961",
"J.	c #764A26",
"K.	c #292D1F",
"L.	c #573F27",
"M.	c #AB7246",
"N.	c #DD935B",
"O.	c #97643C",
"P.	c #41301F",
"Q.	c #3F2F1D",
"R.	c #6C4423",
"S.	c #5A3A20",
"T.	c #3F2818",
"U.	c #3C2618",
"V.	c #442B19",
"W.	c #4C2E19",
"X.	c #5F391D",
"Y.	c #734420",
"Z.	c #432B1D",
"`.	c #534336",
" +	c #665549",
".+	c #645245",
"++	c #615044",
"@+	c #594F45",
"#+	c #31382C",
"$+	c #242E20",
"%+	c #2C2F1F",
"&+	c #594128",
"*+	c #A77145",
"=+	c #D8915A",
"-+	c #D28A53",
";+	c #D88F56",
">+	c #895933",
",+	c #6C4221",
"'+	c #A66A39",
")+	c #A86F44",
"!+	c #925F39",
"~+	c #986134",
"{+	c #9B6135",
"]+	c #B0703E",
"^+	c #B1703D",
"/+	c #B27344",
"(+	c #C0987E",
"_+	c #C9B7AA",
":+	c #BCA89A",
"<+	c #BAA699",
"[+	c #C5B4A8",
"}+	c #5C584F",
"|+	c #313020",
"1+	c #674528",
"2+	c #AE7547",
"3+	c #B87A49",
"4+	c #A3693B",
"5+	c #945D33",
"6+	c #CB8651",
"7+	c #885833",
"8+	c #3B2C1C",
"9+	c #623F25",
"0+	c #764723",
"a+	c #535F69",
"b+	c #6F4528",
"c+	c #76451F",
"d+	c #5E391D",
"e+	c #4B2E18",
"f+	c #423120",
"g+	c #473C30",
"h+	c #49463E",
"i+	c #434038",
"j+	c #423F37",
"k+	c #48453D",
"l+	c #2A3025",
"m+	c #283022",
"n+	c #292C1E",
"o+	c #22291C",
"p+	c #21291C",
"q+	c #242A1C",
"r+	c #20291C",
"s+	c #614328",
"t+	c #4A3721",
"u+	c #282E1F",
"v+	c #141713",
"w+	c #915420",
"x+	c #638B9F",
"y+	c #985E36",
"z+	c #6F421C",
"A+	c #42270F",
"B+	c #1E281B",
"C+	c #202A1D",
"D+	c #40260F",
"E+	c #5A899F",
"F+	c #5C8EA5",
"G+	c #453024",
"H+	c #693F1B",
"I+	c #41270F",
"J+	c #6D411B",
"K+	c #1A2214",
"L+	c #232D1F",
"M+	c #3B5625",
"N+	c #1A2114",
"O+	c #44652A",
"P+	c #568334",
"Q+	c #1C2415",
"R+	c #151512",
"S+	c #2D3E24",
"T+	c #181B16",
"  . . . . . + @ @ #   $ % & & & & & & & . . .   @ @ @ # + . . . . . . . . $ * = ",
". . . . $   @ @ $ . . . - ; > > > > > , . . .   @ @   . . . . . . . . . . . . . ",
"' . . . $ + @ @ + $ $ & ) ! ~ > > > { ] $ $ . +     + . . . . . . . $ ^ / ( ( _ ",
": . . . . . + @ @ @ + ) < < [ > > >   @ @ + . . . . . . . . . . . . ^ } | > > 1 ",
"2 & & _ - - _ &   @ + ) < < 3 4 5 _ @   + $ . . . . . - - - - & . . ^ 6 = 7 8 9 ",
"4 _ & ) < < < < $ @ + ) < < < < + @ @   . . . . . . & < < < ) & . . ^ 0 0 a : ! ",
"+ a b c d e < < ) - ) < < < < < ) - - ) ) _ . . . ) ) < _ + + $ . . f g   @ + $ ",
"@ h 0 0 i - < < < < < < < < < j k k k k k k l . & < < < _ @ # $ . . . . + @ @ @ ",
"@ @ @ @ m 6 $ ) < < < < - . n o p q r s p p t u   ) ) @ + . . . . . . . . $   @ ",
"@ @ @ @ m 6 $ ) < < < < - v w p x y z p p p A B j ) ) @ + . . . . . . . . $   @ ",
"+       a 6 ^ & ) < < ) C D p E y A p p p p A y F G -   + . . $ . _ 5 5 5 5 & $ ",
": . . . ^ H 0 0 _ < ) & G D p I r J p p p p A y K L L L L M .   N ; > > > > > 1 ",
"( $ . . $   * O P & & . G Q L K y R L L S z y y T U U U V M $ a = % W > > > > : ",
"X + . . . . + @ @ @   $ G k k Y L Z k `  .y ..U +.@.#.$.M . $ O 0 0 d > > > > ] ",
"f b * g . . $ $ $ $ $ . G k k %.` &.k *. .=.-.;.` >.,.'.. . . $   *   . - 3 3 / ",
"g 0 H + . . . . . . . . G Q L ).!.~.{.@.].^./.(._.:.G . . . . . $   @   & < < f ",
"_ + @ @   $ . . . . . . G Q L ).!.~.{.@.].^./.L Y n . . + @ + - < < < < < < < - ",
"_ + @ @   $ . . . . . <.[.}.` ` ` ` |.1.].^.^.^.2.n . . + @   _ ) < < < < < < - ",
". . . . . . - < < < < 3.[.4.5.@.@.~.|.4.*.6.k k 7.. . . + @ @ @ g ) < < < ) _ . ",
"& _ & . $ $ & 8.) < < 3.9.0.a.L L b.c.d.L e.p f.7.. . _ & $ $ $ . _ g.< < ) _ & ",
"- < ) _ $   @ @ - < < < h.i.j.k.k l.L L m.p n.@.o.n & < < < < < -   $ < < ) _ _ ",
"- < ) - _ $   @ $ p.& ) h.D q.r.^.s.y y p t.@.@.@.u.'.p.- < < < ) _ & _ ) ) _ _ ",
"- < < < ) & + @ @ @ + ) h.D v.w.r x.y.y p t.@.@.@.u.l.  . < < < < < - . - ) _ _ ",
"$ - < < ) ) & $ $ $ . & <.D q.r.^.s.y y p z.~.@.A.B.n @   + $ C.< < < ) _ & & . ",
"+ & < < < < _ . . D.E.F.G.G H.I.r J.y y p A /.Y k n $ @ @ @ + - < < < < - . . + ",
"- < ) _ . . . K.L.M.N.O.P.Q.R.S.T.U.V.V.W.X.Y.Z.`. +.+++@+#+< < ) & . . . . . _ ",
"_ < ) _ $+%+&+*+=+-+;+>+,+'+)+!+~+{+]+^+^+^+^+/+(+_+:+<+[+}+) < ) & & . . . . & ",
"O & < < |+1+2+3+4+5+6+7+8+Q.9+0+a+b+c+c+X.d+e+f+g+h+i+j+k+l++ - < < - . . $ m h ",
"* & - - m+n+o+p+q+r+s+t+u+$ v+w+x+y+p p y z+A+u $ . . . $   + _ - - _ . . $ m B+",
"C+. . . . . . . . . $   @ n D+^.E+F+G+^.k k k u @ . . . . . . . . . . . . $ m a ",
"C+. . . . . . . . . $   @ n H+y y y y y y ^.^.I+7.. . . . . . . . . . . . $ m a ",
"$ . . . . . . . . . . $ G k k 2.J+y y y y ^.A+k 7.. . . . . . . . . . . . . g g ",
". . . . . . . . . . . . G k k k k k k k k k k k k n . . . . . . . . . . . . . . ",
"_ . $   @ @ + . . . . . G k k k k $ . . . K+@.;.` B.G . . . . . . . ^ b L+< < - ",
"_ . $   @ @ + . . . . . G k k k k k k . . f &.` ` ` M+G . . . . . . ^ 6 $ < < - ",
"< _ . . $   @ @ @ @ @ @ n k k k k k k . . . $ N+` O+P+h.< < ) & . . ^ 0 0 B+& < ",
"- & . . $ +           @ m 7.k k k k k g . . $ f Q+O+P+C ) - - & . . + O b c . - ",
"@ + . . . . . . . . $   @ @ H 0 0 R+k b . + @ S+A.B.T+< _ @ # $ . . . . + @ @ @ ",
"  $ . . . . . . $ + + @ @ @ B+O O O O m + $ & ) < < ) & . + + $ . . . . $ +     ",
"+ . . . . . . .   @ @ @ @ @ @ @ @ @ @ @ @ . < < < < ) @ + . . . . . . . . $   + "};
