/* XPM */
static char * _3_xpm[] = {
"40 40 209 2",
"  	c #232D1F",
". 	c #232E20",
"+ 	c #202B1D",
"@ 	c #1F2A1C",
"# 	c #1F2A1D",
"$ 	c #242F20",
"% 	c #242F21",
"& 	c #212B1D",
"* 	c #1E271A",
"= 	c #212C1E",
"- 	c #273224",
"; 	c #2C3828",
"> 	c #2A3626",
", 	c #222D1F",
"' 	c #253022",
") 	c #273324",
"! 	c #2B3627",
"~ 	c #2C3728",
"{ 	c #283424",
"] 	c #273223",
"^ 	c #222C1F",
"/ 	c #263223",
"( 	c #283325",
"_ 	c #232D20",
": 	c #1C2518",
"< 	c #202A1D",
"[ 	c #2B3727",
"} 	c #263123",
"| 	c #293426",
"1 	c #151513",
"2 	c #141412",
"3 	c #1E281A",
"4 	c #242E20",
"5 	c #273323",
"6 	c #2B3728",
"7 	c #9A5922",
"8 	c #9B5A22",
"9 	c #BD9168",
"0 	c #9A5A22",
"a 	c #141512",
"b 	c #1D2619",
"c 	c #1D271A",
"d 	c #1F281B",
"e 	c #273124",
"f 	c #151613",
"g 	c #995922",
"h 	c #71431C",
"i 	c #70431C",
"j 	c #6F431C",
"k 	c #1E291B",
"l 	c #232C1F",
"m 	c #71441C",
"n 	c #6F421C",
"o 	c #252F21",
"p 	c #BC9067",
"q 	c #9B5B24",
"r 	c #233219",
"s 	c #233119",
"t 	c #253219",
"u 	c #151412",
"v 	c #70481D",
"w 	c #77B845",
"x 	c #75B544",
"y 	c #1E281B",
"z 	c #3F5D27",
"A 	c #70461D",
"B 	c #77B745",
"C 	c #5D8D38",
"D 	c #5E8F38",
"E 	c #263122",
"F 	c #253021",
"G 	c #202A1C",
"H 	c #3E5C27",
"I 	c #151612",
"J 	c #70451D",
"K 	c #5D8C38",
"L 	c #416128",
"M 	c #75B644",
"N 	c #242E21",
"O 	c #76B644",
"P 	c #5D8E38",
"Q 	c #3F5E27",
"R 	c #44280F",
"S 	c #243319",
"T 	c #405E27",
"U 	c #5C8B37",
"V 	c #253122",
"W 	c #151512",
"X 	c #1F291B",
"Y 	c #1D2719",
"Z 	c #1F291C",
"` 	c #E8C8A9",
" .	c #4C6332",
"..	c #EBCAAB",
"+.	c #5E8D39",
"@.	c #43280F",
"#.	c #ECCBAC",
"$.	c #648F3E",
"%.	c #BA8F66",
"&.	c #EBCAAA",
"*.	c #363D27",
"=.	c #BC9168",
"-.	c #46290F",
";.	c #6E421C",
">.	c #273319",
",.	c #9A5B22",
"'.	c #45290F",
").	c #253023",
"!.	c #EAC9AA",
"~.	c #BE926A",
"{.	c #ECCAAB",
"].	c #714520",
"^.	c #5C8C38",
"/.	c #232E21",
"(.	c #71451E",
"_.	c #704D2F",
":.	c #503F29",
"<.	c #2A3325",
"[.	c #281E13",
"}.	c #2D1E10",
"|.	c #281D12",
"1.	c #2A2D1E",
"2.	c #604329",
"3.	c #B87B4C",
"4.	c #E4985E",
"5.	c #7F5432",
"6.	c #312A1E",
"7.	c #43311F",
"8.	c #704724",
"9.	c #5C3A1F",
"0.	c #452A16",
"a.	c #3C2618",
"b.	c #442B19",
"c.	c #452B1A",
"d.	c #42291A",
"e.	c #45311F",
"f.	c #524133",
"g.	c #66554A",
"h.	c #635144",
"i.	c #614F42",
"j.	c #5E5247",
"k.	c #2F3429",
"l.	c #263023",
"m.	c #293325",
"n.	c #313020",
"o.	c #64462A",
"p.	c #B77B4C",
"q.	c #E0975D",
"r.	c #CD8650",
"s.	c #DA9258",
"t.	c #6F4626",
"u.	c #6D4221",
"v.	c #AD6E3B",
"w.	c #A76F45",
"x.	c #8F5D37",
"y.	c #996134",
"z.	c #9B6135",
"A.	c #B1703E",
"B.	c #B1703D",
"C.	c #B1713F",
"D.	c #BF9479",
"E.	c #CBB9AC",
"F.	c #BDA99B",
"G.	c #B4A194",
"H.	c #D2BFB2",
"I.	c #635D54",
"J.	c #332C1A",
"K.	c #754C2B",
"L.	c #BE804E",
"M.	c #B57747",
"N.	c #9D6437",
"O.	c #915B32",
"P.	c #D68D57",
"Q.	c #6E4627",
"R.	c #2F271A",
"S.	c #402919",
"T.	c #6A4427",
"U.	c #626062",
"V.	c #71421F",
"W.	c #71431E",
"X.	c #76451F",
"Y.	c #5F391D",
"Z.	c #4B2E18",
"`.	c #402819",
" +	c #42301E",
".+	c #473B2F",
"++	c #4A473F",
"@+	c #444038",
"#+	c #413E36",
"$+	c #4D4A41",
"%+	c #32382D",
"&+	c #282D1F",
"*+	c #292B1C",
"=+	c #1F281C",
"-+	c #22291C",
";+	c #252A1C",
">+	c #1E281C",
",+	c #6A482B",
"'+	c #41331F",
")+	c #161512",
"!+	c #3D240F",
"~+	c #5A8BA1",
"{+	c #5C8EA5",
"]+	c #442A15",
"^+	c #212B1E",
"/+	c #1C2619",
"(+	c #5C8C37",
"_+	c #20291C",
":+	c #151712",
"  . . . . . + @ @ # + . $ % % % % % % % . . . + @ @ @ # + . . . . . . . . . & * ",
". . . . = @ @ @ . . . . - ; ; ; ; ; ; > . . . + @ @ @ . . . . . . . . . . . . . ",
". . . . , + @ @ , , , ' ) ! ~ ; ; ; { ] , , . = + + = . . . . . . . . & ^ / / / ",
"% . . . . . + @ @ @ = ( ( ( ! ; ; ; @ @ @ = . . . . . . . . . . . . _ : < ; ; [ ",
"] . % } } } ' % @ @ = ( ( ( | 1 2 2 2 2 2 2 2 . . . . } } } } % . . _ : 3 4 5 6 ",
"( . % ( ( ( ( ( + @ = ( ( ( 1 7 8 9 9 8 8 8 0 a . . . ( ( ( ( ' . . _ : : b % ; ",
"= c * d 4 ( ( ( e } - ( ( f g 8 h i 8 8 8 8 8 j 1 - - ( } = = , . . . ^ = k + , ",
"@ : : : l ( ( ( ( ( ( ( f g 8 m i 8 8 8 8 8 8 i n 1 ( ( } @ @ = . . . . , @ @ @ ",
"@ @ @ @ 3 : o ( ( ( ( ( f g 8 p 9 q 8 8 8 8 8 i j r r r r r . . . . . . . . = @ ",
"@ @ @ @ 3 : o ( ( ( ( ( f s r j i t r r u 8 i i v w w w x r . . . . . . . . = @ ",
"+ + + + y : _ ' ( ( ( - f 2 2 r r a 2 z u i A w B C D x r . . , , ' E E E E F . ",
"% . . . G : : : - ( - . 1 2 2 H z I 2 C u J w K z L M r . . . = + > ; ; ; ; ; [ ",
", . . . = G y 3 N % % . 1 s r O P Q C C 2 R R S T U 1 . . . . < 3 4 V ; ; ; ; [ ",
"+ . . . . . + @ @ @ + . 1 s r O P Q C C 2 R R r r W . . . . . X : : Y ; ; ; ; [ ",
"* 3 Z . . . , , , , , 1 `  .z z z z ..+.2 R R R @.a y . . . . , = X k . % | | ( ",
"b : 3 . . . . . . . . f ` #.$.C C Q ..#.C r 2 2 2 : : . . . . . . + @ @ , ( ( - ",
". @ @ @ = . . . . . . f %.&.*.r r z =.#.r u -.8 7 W . . , @ @ ' ( ( ( ( ( ( ( ( ",
". @ @ @ = . . . . . . f 2 ;.>.a 2 r r r R i 8 ,.C U 1 . , @ @ % - ( ( ( ( ( ( ( ",
". . . . . . - ( ( ( ( f 2 g m '.R i i i i 8 ,.C C C U r , @ @ @ < - ( ( ( ( } . ",
"' ' % . , , ' ).( ( ( f 2 g !.~.9 {.].i i 8 ,.C C C U r % , , , , ' ).( ( ( } . ",
"( ( - . = @ @ @ ( ( ( f 2 g m '.R i i i i 8 0 T C ^.H f ( ( ( ( ( = + ( ( ( } . ",
"( ( - } % = + @ . /.% ( f 2 n p 9 (.i i i 8 0 R r 2 1 /.' ( ( ( ( ' % ' } ( } . ",
"( ( ( ( } . + @ @ @ y _.:.<.[.}.|.|.|.|.|.R h 7 a @ @ @ , ( ( ( ( ( ( . % ( } . ",
", ( ( ( - - . , 1.2.3.4.5.6.7.8.9.0.a.b.b.c.c.d.e.f.g.h.i.j.k.l.( ( ( - } % % . ",
"@ - ( ( ( m.n.o.p.q.r.s.t.u.v.w.x.y.z.A.B.B.B.B.C.D.E.F.G.H.I.' ( ( ( ( - . . . ",
"( ( - . . J.K.L.M.N.O.P.Q.R.S.T.U.V.W.X.Y.Y.Z.`. +.+++@+#+$+%+( ( % . . . . . . ",
"- ( - % . &+*+=+-+;+>+,+'+)+@.!+~+{+]+R 2 2 2 a . . . . % - - ( ( % % . . . . , ",
"@ - ( ( } . . . . . . . . 1 n i i i i i i R R R a . . . , @ @ ' ( ( ( . . . + : ",
"^+} } } ' . . . . . . , , W @.j i i i i i R R 2 a . . . , + + % } } } . . . + /+",
", . . . . . . . . . , @ @ a 2 2 2 2 2 2 2 2 2 2 a . . . . . . . . . . . . . + b ",
", . . . . . . . . . , @ @ @ a (+C Q W 2 2 2 2 2 a . . . . . . . . . . . . . + b ",
". . . . . . . . . . . , = @ a (+C Q W 2 2 2 2 2 a . . . . . . . . . . . . . , ^+",
". . . . . . . . . . . . = @ a H z z W . 2 2 2 2 a . . . . . . . . . . . . . . . ",
". . , @ @ @ , . . . . . = @ a H z z W . 2 2 2 2 a . . . . . . . . . . b _+( ( ( ",
". . , @ @ @ , . . . . . = @ a H z z W . . . . 2 a . . . . . . . . . _ : Z ( ( ( ",
"( . . . = @ @ @ @ @ @ @ 3 a U T K C :+. . . . . . ( ( ( ( ( ( ' . . _ : : /+^ ( ",
"} . . . , + + + + + + @ k b : : : : = ^ . . , % % ( ( ( - } } % . . . 3 * b = } ",
"@ . . . . . . . . . , @ @ @ Y : : : : * . = @ ' ( ( ( ( } @ @ = . . . . , @ @ @ ",
"= . . . . . . . = = = @ @ @ y 3 3 3 3 k = , % - ( ( ( % . = = , . . . . . = + @ ",
". . . . . . . . @ @ @ @ @ @ @ @ @ @ @ @ @ . ( ( ( ( ( @ + . . . . . . . . . = @ "};
