/* XPM */
static char * 1_xpm[] = {
"40 40 227 2",
"  	c #222D1F",
". 	c #232E20",
"+ 	c #202B1D",
"@ 	c #1F2A1C",
"# 	c #1F2A1D",
"$ 	c #242F20",
"% 	c #242F21",
"& 	c #202A1C",
"* 	c #1E281A",
"= 	c #212C1E",
"- 	c #273224",
"; 	c #2C3828",
"> 	c #2A3626",
", 	c #253022",
"' 	c #273324",
") 	c #2B3627",
"! 	c #2C3728",
"~ 	c #283424",
"{ 	c #273223",
"] 	c #212B1D",
"^ 	c #232D20",
"/ 	c #263223",
"( 	c #253122",
"_ 	c #283224",
": 	c #283325",
"< 	c #151613",
"[ 	c #141412",
"} 	c #141512",
"| 	c #1C2619",
"1 	c #263123",
"2 	c #151713",
"3 	c #985821",
"4 	c #9B5A22",
"5 	c #BC9067",
"6 	c #BD9168",
"7 	c #9B5A23",
"8 	c #995922",
"9 	c #151513",
"0 	c #1C2518",
"a 	c #1F281B",
"b 	c #283324",
"c 	c #2B3727",
"d 	c #293426",
"e 	c #161714",
"f 	c #975821",
"g 	c #72441C",
"h 	c #70431C",
"i 	c #9A5A22",
"j 	c #6E421C",
"k 	c #1D2719",
"l 	c #253021",
"m 	c #1E281B",
"n 	c #1E271A",
"o 	c #232D1F",
"p 	c #273124",
"q 	c #222C1F",
"r 	c #1E291B",
"s 	c #1D2619",
"t 	c #222C1E",
"u 	c #BC8F66",
"v 	c #9C5C25",
"w 	c #233219",
"x 	c #233119",
"y 	c #223119",
"z 	c #273219",
"A 	c #171512",
"B 	c #704D1F",
"C 	c #77B845",
"D 	c #73B243",
"E 	c #23321A",
"F 	c #3F5D27",
"G 	c #151412",
"H 	c #70491E",
"I 	c #76B645",
"J 	c #5D8D38",
"K 	c #5F9039",
"L 	c #73B343",
"M 	c #3E5B26",
"N 	c #161813",
"O 	c #70461D",
"P 	c #76B745",
"Q 	c #5C8C38",
"R 	c #436429",
"S 	c #74B343",
"T 	c #263122",
"U 	c #75B544",
"V 	c #5E8F38",
"W 	c #405E27",
"X 	c #5D8C38",
"Y 	c #44280F",
"Z 	c #43280F",
"` 	c #24341A",
" .	c #416028",
"..	c #5B8A37",
"+.	c #202C1D",
"@.	c #202A1D",
"#.	c #1F291B",
"$.	c #242E20",
"%.	c #E5C5A7",
"&.	c #58683B",
"*.	c #EBCAAB",
"=.	c #5E8D39",
"-.	c #43270F",
";.	c #1F291C",
">.	c #ECCBAC",
",.	c #6B9144",
"'.	c #151512",
").	c #161713",
"!.	c #B78C65",
"~.	c #EAC8A9",
"{.	c #444630",
"].	c #3F5C27",
"^.	c #482A10",
"/.	c #6D411B",
"(.	c #2B3319",
"_.	c #151612",
":.	c #71431C",
"<.	c #995C23",
"[.	c #73441C",
"}.	c #462910",
"|.	c #6F431C",
"1.	c #9A5C23",
"2.	c #161814",
"3.	c #E9C7A8",
"4.	c #BF946C",
"5.	c #734723",
"6.	c #253023",
"7.	c #405F28",
"8.	c #5C8B37",
"9.	c #3D5A26",
"0.	c #6D411C",
"a.	c #BB8F66",
"b.	c #734620",
"c.	c #9A5922",
"d.	c #1F2A1E",
"e.	c #6D4C2E",
"f.	c #513F29",
"g.	c #2C3425",
"h.	c #2D1F12",
"i.	c #281D12",
"j.	c #45290F",
"k.	c #71441C",
"l.	c #232E21",
"m.	c #272A1B",
"n.	c #5E4127",
"o.	c #B57949",
"p.	c #E2975E",
"q.	c #865935",
"r.	c #372C1F",
"s.	c #423120",
"t.	c #6F4625",
"u.	c #5D3B1F",
"v.	c #462B16",
"w.	c #452A17",
"x.	c #442B19",
"y.	c #452B1A",
"z.	c #432A1B",
"A.	c #524134",
"B.	c #665549",
"C.	c #635144",
"D.	c #614F43",
"E.	c #5C5147",
"F.	c #32392D",
"G.	c #323323",
"H.	c #61452A",
"I.	c #B3784A",
"J.	c #DE955C",
"K.	c #CE8751",
"L.	c #DA9157",
"M.	c #774B2A",
"N.	c #6D4221",
"O.	c #AB6D3B",
"P.	c #A76F45",
"Q.	c #905E38",
"R.	c #996134",
"S.	c #9B6135",
"T.	c #B1703E",
"U.	c #B1703D",
"V.	c #B17140",
"W.	c #C0957A",
"X.	c #CAB8AB",
"Y.	c #BCA89A",
"Z.	c #B6A295",
"`.	c #CFBDB0",
" +	c #625C53",
".+	c #263023",
"++	c #34301F",
"@+	c #724B2A",
"#+	c #BA7D4D",
"$+	c #B67747",
"%+	c #9F6538",
"&+	c #925C32",
"*+	c #D38B55",
"=+	c #754B2B",
"-+	c #34291C",
";+	c #654026",
">+	c #774823",
",+	c #51606C",
"'+	c #704422",
")+	c #76451F",
"!+	c #5F391D",
"~+	c #4B2E18",
"{+	c #40291A",
"]+	c #473C2F",
"^+	c #4A473F",
"/+	c #444038",
"(+	c #403C35",
"_+	c #4B473E",
":+	c #2C3126",
"<+	c #272D1F",
"[+	c #292B1C",
"}+	c #20281C",
"|+	c #22291C",
"1+	c #252A1C",
"2+	c #1F281C",
"3+	c #68472A",
"4+	c #443420",
"5+	c #262E20",
"6+	c #3C230F",
"7+	c #5B8CA3",
"8+	c #5C8EA5",
"9+	c #42270F",
"0+	c #6F421C",
"a+	c #151712",
"b+	c #1D271A",
"c+	c #212A1D",
"d+	c #171A13",
"  . . . . . + @ @ # + . $ % % % % % % % . . . + @ @ @ # + . . . . . . . . . & * ",
". . . . = @ @ @ . . . . - ; ; ; ; ; ; > . . . + @ @ @ . . . . . . . . . . . . . ",
"% . . .   + @ @       , ' ) ! ; ; ; ~ {     . = + + = . . . . . . . . ] ^ / / ( ",
", . . . . . + @ @ @ = _ : : ) < [ [ [ [ [ [ } . . . . . . . . . . .   | = ; ; ) ",
"- % % 1 1 1 , % + @ = _ : : 2 3 4 5 6 7 4 4 8 9 . . . 1 1 1 1 % . .   0 a $ b c ",
"d % % - : : : : + @ = _ : e f 4 g h 4 4 4 4 i j < . . : : : : , . .   0 0 k l c ",
"= m n a o - : : p 1 - : e f 4 g h i 4 4 4 4 i h j < - : 1 = =   . . . q = r +   ",
"@ s 0 0 t - : : : : : : e f 4 u 6 v 4 4 4 4 i h j w w w w x @ = . . . .   @ @ @ ",
"@ @ @ @ * 0 % : : : : : e y w j h z w w A 4 h h B C C C D E . . . . . . . . = @ ",
"@ @ @ @ * 0 % : : : : : e [ [ x w } [ F G h H C I J K L E . . . . . . . . . = @ ",
"= + + + m 0 q , : : : - e [ [ M F N [ J G O P Q F R S w = . .     , T T T T l   ",
", . . . + s 0 0 - : - . 2 y w U V W X J [ Y Z `  ...< . . . . = +.> ; ; ; ; ; ) ",
". . . . = & m * ^ % % . 2 y w U V W X J [ Y Z w x < . . . . . @.#.$.T ; ; ; ; > ",
"    . . . . + @ @ @ + 2 %.&.F F F F *.=.[ Y Y Y -.< . . . . . #.0 0 a ; ; ; ; > ",
";.* ;.  . .           2 %.>.,.J J W *.>.J w [ [ '.* m . . . .   = #.@ . , d d - ",
"a 0 *   . . . . . . . ).!.~.{.w w ].5 >.w G ^.4 3 } | . . . . . . + @ @   : : 1 ",
"% + @ @ = . . . . . . ).[ /.(._.[ w w w Y :.4 <.J ..< .   @ + , : : : : : : : - ",
"% + @ @ = . . . . . . ).[ f [.}.Y |.h h h 4 1.J J J ..w   @ + % - : : : : : : - ",
". . . . . . - : : : : 2.[ f 3.4.6 *.5.h h 4 1.J J J ..w   @ @ @ + - : : : : 1 . ",
", , % .     , 6.: : : 2.[ f [.}.Y |.h h h 4 i 7.J 8.9.2 %         , 6.: : : 1 . ",
"- : - % = @ @ @ - : : : e [ 0.a.6 b.h h h 4 c.Z x [ e : : : : : - = + : : : 1 % ",
"- : - 1 % = + @ . d.e.f.g.: h.i.i.i.i.i.i.j.k.8 9 = = l., : : : : , % , 1 : 1 % ",
"- : : : 1 . + m.n.o.p.q.r.s.t.u.v.w.x.x.y.y.y.z.A.B.C.D.E.F.: : : : - . , : 1 % ",
"  - : : _ G.H.I.J.K.L.M.N.O.P.Q.R.S.T.U.U.U.U.V.W.X.Y.Z.`. +q .+: : : - 1 % % . ",
"+ - : : ++@+#+$+%+&+*+=+-+s.;+>+,+'+)+)+!+!+~+{+]+^+/+(+_+:++ , : : : : 1 . .   ",
"- : - % <+[+}+|+1+2+3+4+5+< 6+-.7+8+x.Y [ [ [ 9 . . . . % : : : : % . . . . . % ",
"1 : - % . . . . . . . . . < 0.h h h h h h Y Y Z < . . . % - - : : % % . . . . . ",
"r - : : 1 . . . . . . . . < 9+0+h h h h h Y Z [ < . . .   @ + , : : - . . . @ s ",
"+ , 1 1 , . . . . . .     < [ [ [ [ [ [ [ [ [ [ < . . .   + + % 1 1 1 . . . @ s ",
"  . . . . . . . . .   @ @ @ < ..J W a+[ [ [ [ [ < . . . . . . . . . . . . . @ b+",
"  . . . . . . . . .   @ @ @ < ..J W a+[ [ [ [ [ < . . . . . . . . . . . . . @ b+",
"^ . . . . . . . . . .   = @ < M F F a+q [ [ [ [ < . . . . . . . . . . . . .   = ",
". . . . . . . . . . . . = @ < M F F a+. [ [ [ [ < . . . . . . . . . . . . . . . ",
"% .   @ @ @   . . . . . = @ < M F F a+. . . . [ < . . . . . . . . .   s c+: : - ",
"% .   @ @ @   . . . . . = < .. .Q J d+. . . . . . . . . . . . . . .   0 @.: : - ",
": % . . = @ @ @ @ @ @ @ * 0 0 0 0 0 . . . . . . . : : : : : : , . .   0 0 s q : ",
"1 % . .   + + + + + + @ r s 0 0 0 0 = q . .   % % : : : - 1 1 % . .   * n n t 1 ",
"@   . . . . . . . .   @ @ @ k 0 0 0 0 n . = @ , : : : : 6.@ @ = . . . .   @ @ @ ",
"= . . . . . . . = = = @ @ @ m * * * * r =   % - : : : % . = =   . . . . . = + @ ",
"  . . . . . . . @ @ @ @ @ @ @ @ @ @ @ @ @ . : : : : : @ + . . . . . . . . . = + "};
