/* XPM */
static char * 2_xpm[] = {
"40 40 136 2",
"  	c #232E20",
". 	c #202B1D",
"+ 	c #1F2A1C",
"@ 	c #1F2A1D",
"# 	c #242F20",
"$ 	c #242F21",
"% 	c #212B1D",
"& 	c #1D2619",
"* 	c #212C1E",
"= 	c #273224",
"- 	c #2C3828",
"; 	c #2A3626",
"> 	c #222D1F",
", 	c #253022",
"' 	c #273324",
") 	c #2B3627",
"! 	c #2C3728",
"~ 	c #141412",
"{ 	c #222C1F",
"] 	c #263223",
"^ 	c #283325",
"/ 	c #9B5A22",
"( 	c #BD9168",
"_ 	c #1C2518",
": 	c #1F291C",
"< 	c #263123",
"[ 	c #70431C",
"} 	c #1E271A",
"| 	c #242E20",
"1 	c #273223",
"2 	c #1D271A",
"3 	c #1F281B",
"4 	c #273124",
"5 	c #233219",
"6 	c #1E291B",
"7 	c #232D1F",
"8 	c #77B845",
"9 	c #1E281A",
"0 	c #3F5D27",
"a 	c #5D8D38",
"b 	c #1E281B",
"c 	c #232D20",
"d 	c #44280F",
"e 	c #263122",
"f 	c #253021",
"g 	c #202A1C",
"h 	c #242E21",
"i 	c #ECCBAC",
"j 	c #202A1D",
"k 	c #1F291B",
"l 	c #293426",
"m 	c #253023",
"n 	c #724E30",
"o 	c #4E3E29",
"p 	c #2D1E10",
"q 	c #281D12",
"r 	c #282A1B",
"s 	c #624429",
"t 	c #BB7D4D",
"u 	c #E5995F",
"v 	c #79502F",
"w 	c #2D281D",
"x 	c #433220",
"y 	c #714725",
"z 	c #5C3A1F",
"A 	c #452A16",
"B 	c #452A17",
"C 	c #442B19",
"D 	c #452B1A",
"E 	c #42291A",
"F 	c #453220",
"G 	c #514133",
"H 	c #665549",
"I 	c #635145",
"J 	c #614F43",
"K 	c #605349",
"L 	c #33392E",
"M 	c #273123",
"N 	c #302F1F",
"O 	c #66462A",
"P 	c #BA7D4D",
"Q 	c #E2985E",
"R 	c #CC854F",
"S 	c #DB9258",
"T 	c #684123",
"U 	c #6D4221",
"V 	c #AE6F3C",
"W 	c #A76F45",
"X 	c #8F5D37",
"Y 	c #996134",
"Z 	c #9B6135",
"` 	c #B1703E",
" .	c #B1703D",
"..	c #BF9377",
"+.	c #CBB9AC",
"@.	c #BDA99B",
"#.	c #B39F92",
"$.	c #D5C2B5",
"%.	c #666057",
"&.	c #352F1D",
"*.	c #784E2C",
"=.	c #C18250",
"-.	c #B47646",
";.	c #9C6336",
">.	c #915B32",
",.	c #D88F58",
"'.	c #674124",
").	c #2D271B",
"!.	c #664126",
"~.	c #784823",
"{.	c #4F616D",
"].	c #71431E",
"^.	c #76451F",
"/.	c #5F391D",
"(.	c #4B2E18",
"_.	c #402819",
":.	c #473B2E",
"<.	c #4A463F",
"[.	c #444038",
"}.	c #3F3B34",
"|.	c #4D4940",
"1.	c #2E3328",
"2.	c #263023",
"3.	c #2C3223",
"4.	c #2C2F20",
"5.	c #1F291D",
"6.	c #22291C",
"7.	c #252A1C",
"8.	c #1E281C",
"9.	c #6C492B",
"0.	c #3F321F",
"a.	c #3D240F",
"b.	c #43270F",
"c.	c #5C8EA5",
"d.	c #212B1E",
"e.	c #1D2719",
"            . + + @ .   # $ $ $ $ $ $ $       . + + + @ .                   % & ",
"        * + + +         = - - - - - - ;       . + + +                           ",
"        > . + + > > > , ' ) ! ~ ~ ~ ~ ~ ~ ~ ~ * . . *                 % { ] ] ] ",
"            . + + + * ^ ^ ^ ~ / / ( ( / / / / ~                       _ : - - - ",
"<   $ < < < , $ + + * ^ ^ ~ / / [ [ / / / / / [ ~     < < < < $       _ } | 1 - ",
"^   $ ^ ^ ^ ^ ^ + + * ^ ~ / / [ [ / / / / / / [ [ ~   ^ ^ ^ ^ ,       _ _ _   - ",
"* 2 } 3 | ^ ^ ^ 4 < = ^ ~ / / ( ( / / / / / / [ [ 5 5 5 5 5 * >       { * 6 . > ",
"+ _ _ _ 7 ^ ^ ^ ^ ^ ^ ^ ~ 5 5 [ [ 5 5 5 ~ / [ [ [ 8 8 8 8 5 + *         > + + + ",
"+ + + + 9 _ , ^ ^ ^ ^ ^ ~ ~ ~ 5 5 ~ ~ 0 ~ [ [ 8 8 a a 8 5                   * + ",
"+ + + + 9 _ , ^ ^ ^ ^ ^ ~ ~ ~ 0 0 ~ ~ a ~ [ 8 a 0 0 8 5 .                   * + ",
". . . . b _ c , ^ ^ ^ = ~ 5 5 8 a 0 a a ~ d d 5 0 a ~ . *     > > , e e e e f   ",
"        g _ _ _ ^ ^ =   ~ 5 5 8 a 0 a a ~ d d 5 5 ~           * + ; - - - - - - ",
"*       * g b 9 h $ $ ~ i 0 0 0 0 0 i a ~ d d d d ~           j 9 | f - - - - - ",
"+           . + + + . ~ i i a a a 0 i i a 5 ~ ~ ~ >           k _ _ _ - - - - - ",
"& 9 :       > > > > > ~ ( i 5 5 5 0 ( i 5 ~ / / ~ 9 b         > * k 6   $ l l l ",
"_ _ 9                   ~ [ 5 ~ ~ 5 5 5 [ / / a a ~ _             . + + * ^ ^ ^ ",
"  + + + *               ~ / [ d d [ [ [ / / a a a a 5   > + + , ^ ^ ^ ^ ^ ^ ^ ^ ",
"  + + + *               ~ / i ( ( i [ [ / / a a a a 5   > + + $ = ^ ^ ^ ^ ^ ^ ^ ",
"            = ^ ^ ^ ^ ^ ~ / [ d d [ [ [ / / 0 a a 0 ~   > + + + + = ^ ^ ^ ^ <   ",
", , $   > > , m ^ ^ ^ ^ = ~ [ ( ( [ [ [ / / d 5 ~ ~   , $ > > > > , m ^ ^ ^ <   ",
"^ ^ =   * + + + ^ h n o ^ ^ p q q q q q d [ / ~ ^     ^ ^ ^ ^ ^ ^ * + ^ ^ ^ <   ",
"^ ^ = < $ * . r s t u v w x y z A B C C D D E F G H I J K L ^ ^ ^ , $ , < ^ <   ",
"^ ^ ^ ^ M N O P Q R S T U V W X Y Z `  . . . . ...+.@.#.$.%.^ ^ ^ ^ ^   $ ^ <   ",
"> ^ ^ ^ &.*.=.-.;.>.,.'.).x !.~.{.].^.^././.(._.:.<.[.}.|.1.* 2.^ ^ ^ = < $ $   ",
"+ ^ ^ ^ 3.4.5.6.7.8.9.0., ~ a.b.c.c.d d ~ ~ ~ ~       + + + + , ^ ^ ^ ^ =       ",
"^ ^ =                     ~ [ [ [ [ [ [ [ d d d ~       $ ^ ^ ^ ^ $             ",
"= ^ = $                 ~ ~ ~ d [ [ [ [ [ d d ~ ~       $ = = ^ ^ $ $         > ",
"+ ^ ^ ^ <               ~ ~ ~ ~ ~ ~ ~ ~ ~ ~ ~ ~ ~ ~     > + + , ^ ^ ^       . _ ",
"* < < < ,             > ~ ~ ~ ~ ~ > > * d.~ a a 0 0 ~   > . . $ < < <       . _ ",
"                    > + ~ ~ ~ ~ ~ ~ ~ 6 _ _ ~ 0 0 0 0 ~                     . _ ",
"                    > + ~ ~ ~ ~ ~ ~ ~ 6 _ _ _ ~ 0 0 a ~                     . _ ",
"                      > * ~ ~ ~ ~ ~ ~ { d.g b d.~ 0 a ~                     > d.",
"                        * + >     ~ ~     * + > a 0 ~                           ",
"    > + + + >           * + + +                                       & 3 ^ ^ ^ ",
"    > + + + >           * + + + >                                     _ b ^ ^ ^ ",
"^       * + + + + + + + 9 _ _ _ _ _               ^ ^ ^ ^ ^ ^ ,       _ _ _ d.^ ",
"<       > . . . . . . + 6 & _ _ _ _ * {     > $ $ ^ ^ ^ = < < $       9 } & % < ",
"+                   > + + + e._ _ _ _ }   * + , ^ ^ ^ ^ < + + *         > + + + ",
"*               * * * + + + b 9 9 9 9 6 * > $ = ^ ^ ^ $   * * >           * . + ",
"                + + + + + + + + + + + + +   ^ ^ ^ ^ ^ + .                   * + "};
