/* XPM */
static char * 3_xpm[] = {
"40 40 233 2",
"  	c #222D1F",
". 	c #232E20",
"+ 	c #202B1D",
"@ 	c #1F2A1C",
"# 	c #1F2A1D",
"$ 	c #242F20",
"% 	c #242F21",
"& 	c #151513",
"* 	c #995922",
"= 	c #9B5A22",
"- 	c #BD9168",
"; 	c #985821",
"> 	c #151613",
", 	c #202A1C",
"' 	c #1E281A",
") 	c #212C1E",
"! 	c #273224",
"~ 	c #2C3828",
"{ 	c #151713",
"] 	c #71431C",
"^ 	c #70431C",
"/ 	c #9A5922",
"( 	c #6D411C",
"_ 	c #253022",
": 	c #273324",
"< 	c #2B3627",
"[ 	c #161714",
"} 	c #71441C",
"| 	c #6D411B",
"1 	c #212B1D",
"2 	c #232D20",
"3 	c #263223",
"4 	c #253122",
"5 	c #283224",
"6 	c #283325",
"7 	c #BC9067",
"8 	c #9B5A23",
"9 	c #6D421C",
"0 	c #233219",
"a 	c #23321A",
"b 	c #1C2619",
"c 	c #263123",
"d 	c #233119",
"e 	c #6F431C",
"f 	c #243219",
"g 	c #201812",
"h 	c #705120",
"i 	c #77B845",
"j 	c #72B042",
"k 	c #1C2518",
"l 	c #1F281B",
"m 	c #283324",
"n 	c #2B3727",
"o 	c #293426",
"p 	c #141412",
"q 	c #141512",
"r 	c #3F5C27",
"s 	c #1A1612",
"t 	c #704D1F",
"u 	c #76B644",
"v 	c #5D8D38",
"w 	c #5F9139",
"x 	c #73B142",
"y 	c #1D2719",
"z 	c #253021",
"A 	c #1E281B",
"B 	c #1E271A",
"C 	c #232D1F",
"D 	c #273124",
"E 	c #3E5C27",
"F 	c #3F5D27",
"G 	c #151612",
"H 	c #5C8C38",
"I 	c #704B1E",
"J 	c #76B645",
"K 	c #5C8B37",
"L 	c #45672A",
"M 	c #73B243",
"N 	c #222C1F",
"O 	c #1E291B",
"P 	c #1D2619",
"Q 	c #222C1E",
"R 	c #5D8E38",
"S 	c #161512",
"T 	c #44280F",
"U 	c #43280F",
"V 	c #25351A",
"W 	c #416128",
"X 	c #5A8936",
"Y 	c #223119",
"Z 	c #E7C6A8",
"` 	c #516536",
" .	c #ECCBAC",
"..	c #42270F",
"+.	c #669040",
"@.	c #EBCAAB",
"#.	c #5C8C37",
"$.	c #263122",
"%.	c #B98E66",
"&.	c #EAC9AA",
"*.	c #3B3F29",
"=.	c #181512",
"-.	c #4C2C10",
";.	c #965721",
">.	c #161713",
",.	c #202C1D",
"'.	c #2A3626",
").	c #6E421C",
"!.	c #283319",
"~.	c #462910",
"{.	c #72441C",
"].	c #985E24",
"^.	c #5A8836",
"/.	c #202A1D",
"(.	c #1F291B",
"_.	c #242E20",
":.	c #45290F",
"<.	c #995D23",
"[.	c #1F291C",
"}.	c #BE936A",
"|.	c #985A22",
"1.	c #5B8A37",
"2.	c #3D5926",
"3.	c #161814",
"4.	c #432910",
"5.	c #6E4B2E",
"6.	c #503E28",
"7.	c #2A3325",
"8.	c #281E13",
"9.	c #2D1E10",
"0.	c #281D12",
"a.	c #291D12",
"b.	c #73441C",
"c.	c #975821",
"d.	c #2E3223",
"e.	c #60452A",
"f.	c #B77A4B",
"g.	c #E3985E",
"h.	c #815633",
"i.	c #332A1E",
"j.	c #423220",
"k.	c #704724",
"l.	c #5C3A1F",
"m.	c #452A16",
"n.	c #452A17",
"o.	c #442B19",
"p.	c #452B1A",
"q.	c #432B1C",
"r.	c #534235",
"s.	c #66554A",
"t.	c #635144",
"u.	c #614F43",
"v.	c #5B4F45",
"w.	c #2D3328",
"x.	c #263023",
"y.	c #333324",
"z.	c #63462C",
"A.	c #B5794B",
"B.	c #DF965D",
"C.	c #CE8650",
"D.	c #DA9157",
"E.	c #724828",
"F.	c #6D4221",
"G.	c #AC6E3B",
"H.	c #A76F45",
"I.	c #8F5D37",
"J.	c #996134",
"K.	c #9B6135",
"L.	c #B1703E",
"M.	c #B1703D",
"N.	c #B27242",
"O.	c #C0967C",
"P.	c #CAB8AB",
"Q.	c #BCA89A",
"R.	c #B7A396",
"S.	c #CDBBAE",
"T.	c #615C52",
"U.	c #253023",
"V.	c #302918",
"W.	c #734B2A",
"X.	c #BC7E4D",
"Y.	c #B57747",
"Z.	c #9E6537",
"`.	c #925C32",
" +	c #D58D56",
".+	c #704828",
"++	c #32291C",
"@+	c #402919",
"#+	c #664837",
"$+	c #784823",
"%+	c #71421D",
"&+	c #71431E",
"*+	c #76451F",
"=+	c #5F391D",
"-+	c #5E391D",
";+	c #4B2E18",
">+	c #402819",
",+	c #42311F",
"'+	c #483D30",
")+	c #4B4840",
"!+	c #45423A",
"~+	c #423F37",
"{+	c #4C4940",
"]+	c #30372C",
"^+	c #242A1B",
"/+	c #292B1C",
"(+	c #1F281D",
"_+	c #22291D",
":+	c #292E20",
"<+	c #6A492B",
"[+	c #433623",
"}+	c #171613",
"|+	c #548195",
"1+	c #5A8CA2",
"2+	c #442913",
"3+	c #232E21",
"4+	c #171915",
"5+	c #43270F",
"6+	c #5A8937",
"7+	c #1D2715",
"8+	c #3D5A26",
"9+	c #416028",
"0+	c #171A13",
"a+	c #598736",
"b+	c #223018",
"c+	c #171B13",
"d+	c #3C5925",
"e+	c #181D14",
"f+	c #426128",
"g+	c #191E14",
"h+	c #212B1E",
"i+	c #1D271A",
"j+	c #212A1D",
"  . . . . . + @ @ # + . $ % % % & * = - - = = = ; > @ # + . . . . . . . . . , ' ",
". . . . ) @ @ @ . . . . ! ~ ~ { * = ] ^ = = = = / ( > . . . . . . . . . . . . . ",
"% . . .   + @ @       _ : < [ ; = } ^ = = = = = / ^ | { . . . . . . . 1 2 3 3 4 ",
"_ . . . . . + @ @ @ ) 5 6 6 { ; = 7 - 8 = = = = / ^ 9 0 0 0 0 a . .   b ) ~ ~ < ",
"! % % c c c _ % + @ ) 5 6 6 { d 0 e ^ f 0 0 g / ^ ^ h i i i j a . .   k l $ m n ",
"o % % ! 6 6 6 6 + @ ) 5 6 6 { p p 0 0 p q r s ^ t i u v w x a _ . .   k k y z n ",
") A B l C ! 6 6 D c ! 6 6 6 { p p E F q G H s I J K F L M 0 )   . . . N ) O +   ",
"@ P k k Q ! 6 6 6 6 6 6 6 6 { d 0 u R F v H S T U V W X > @ @ ) . . . .   @ @ @ ",
"@ @ @ @ ' k % 6 6 6 6 6 c . > d 0 u R F v H S T U 0 Y > + . . . . . . . . . ) @ ",
"@ @ @ @ ' k % 6 6 6 6 6 c { Z ` F F F F  .H S T T T ..> + . . . . . . . . . ) @ ",
") + + + A k N _ 6 6 6 ! c { Z  .+.v v F  .@.#.d p p > + ) . .     _ $.$.$.$.z   ",
"_ . . . + P k k ! 6 ! . _ { %.&.*.0 0 F - @.0 p =.-.= ;.>.. . ) ,.'.~ ~ ~ ~ ~ < ",
". . . . ) , A ' 2 % % . { p p ).!.q p 0 0 0 S ~.{.= ].v ^.[ . /.(._.$.~ ~ ~ ~ '.",
"    . . . . + @ @ @ + . { p p ; {.:.T T ^ ^ ^ {.= <.v v v ^.d (.k k l ~ ~ ~ ~ '.",
"[.' [.  . .           . { p p ; &.}.- -  .^ ^ {.= <.v v v ^.a   ) (.@ . _ o o ! ",
"l k '   . . . . . . . . . > p ; {.:.T T ^ ^ ^ {.= |.W v 1.2.3.. . + @ @   6 6 c ",
"% + @ @ ) . . . . . . . . . > p ).7 - - ^ ^ ^ {.= ; 4.Y p { + _ 6 6 6 6 6 6 6 ! ",
"% + @ @ ) . . . . . . . # 5.6.7.8.9.0.0.0.0.a.T ~.b.c.{   @ + % ! 6 6 6 6 6 6 ! ",
". . . . . . ! 6 6 6 d.e.f.g.h.i.j.k.l.m.n.o.o.p.p.p.q.r.s.t.u.v.w.! 6 6 6 6 c . ",
"_ _ % .     _ x.y.z.A.B.C.D.E.F.G.H.I.J.K.L.M.M.M.M.N.O.P.Q.R.S.T._ U.6 6 6 c . ",
"! 6 ! % ) @ @ V.W.X.Y.Z.`. +.+++@+#+$+%+&+*+=+-+;+>+,+'+)+!+~+{+]+) + 6 6 6 c % ",
"! 6 ! c % ) + ^+/+(+_+:+2 <+[+}+U |+1+2+T T p p p > ) 3+_ 6 6 6 6 _ % _ c 6 c % ",
"! 6 6 6 c . + @ @ @ ) 5 6 6 { p U e ^ ^ ^ ^ e T T ..p p p p p 4+6 6 ! . _ 6 c % ",
"  ! 6 6 ! ! %       . % c { p p p p T ^ ^ ^ e T 5+p p p p p p 4+6 6 6 ! c % % . ",
"+ ! 6 6 6 6 _ . . . . . { 6+7+p p p p p p p p p p p p p p p p 4+6 6 6 6 c . .   ",
"! 6 ! % . . . . . . . >.8+K v 9+0+. . . . . . p p p p p p 3.D 4+6 % . . . . . % ",
"c 6 ! % . . . . . a+b+8+F F F c+2 . . . . . . 2 p p p p 3.! ! 6 6 % % . . . . . ",
"O ! 6 6 c . . . 3.d+F F F F e+[.. . . . . . . . 2 p p {   @ + _ 6 6 ! . . . @ P ",
"+ _ c c _ . . . 3.p a+v f+g+# @ )     ) h+h+h+)   . . .   + + % c c c . . . @ P ",
"  . . . . . . . . .   @ @ @ @ @ @ @ @ O k k k A @ . . . . . . . . . . . . . @ i+",
"  . . . . . . . . .   @ @ @ @ @ @ @ @ O k k k A @ . . . . . . . . . . . . . @ i+",
"2 . . . . . . . . . .   ) @ )         N h+, A h+  . . . . . . . . . . . . .   ) ",
". . . . . . . . . . . . ) @   . . . . . . ) @   . . . . . . . . . . . . . . . . ",
"% .   @ @ @   . . . . . ) @ @ @ . . . . . . . . . . . . . . . . . .   P j+6 6 ! ",
"% .   @ @ @   . . . . . ) @ @ @   . . . . . . . . . . . . . . . . .   k /.6 6 ! ",
"6 % . . ) @ @ @ @ @ @ @ ' k k k k k . . . . . . . 6 6 6 6 6 6 _ . .   k k P N 6 ",
"c % . .   + + + + + + @ O P k k k k ) N . .   % % 6 6 6 ! c c % . .   ' B B Q c ",
"@   . . . . . . . .   @ @ @ y k k k k B . ) @ _ 6 6 6 6 U.@ @ ) . . . .   @ @ @ ",
") . . . . . . . ) ) ) @ @ @ A ' ' ' ' O )   % ! 6 6 6 % . ) )   . . . . . ) + @ ",
"  . . . . . . . @ @ @ @ @ @ @ @ @ @ @ @ @ . 6 6 6 6 6 @ + . . . . . . . . . ) + "};
