/* XPM */
static char *result[] = {
/* columns rows colors chars-per-pixel */
"45 45 4 1 ",
"  c #162527",
". c #0F1A1B",
"X c #1D2E30",
"o c #243A3C",
/* pixels */
"      . X X   .   . . .       .   . . .      ",
" XXXXX.XXXXXXX.XXXXXXX.XXXXXXX.XXXXXXX.      ",
" XXXXX XXXXXXX XXXXXXX XXXXXXX XXXXXXX.      ",
" XXXXX XXXXXXX XXXXXXX XXXXXXX XXXXXXX.      ",
"XXXXXX XXXXXXX XXXXXXX XXXXXXX XXXXXXX.      ",
" XXXXX ooooooo XXXXXXX ooooooo XXXXXXX.XXXXXX",
"..                                  .........",
" XXXXo ooooooo XXXXXXX oooooooXooooooo.XXXXXX",
"XXXXXo ooooooo ooooooo oooooooXooooooo.XXXXXX",
" XXXXo oooooooXoooooooXoooooooXooooooo XXXXXX",
" XXXXo oooooooXoooooooXoooooooXooooooo XXXXXX",
" XXXXo oooooooXoooooooXoooooooXooooooo XXXXXX",
" XXXXo oooooooXoooooooXoooooooXooooooo XXXXXX",
" XXXXo oooooooXoooooooXoooooooXooooooo XXXXXX",
"..     XXXXXXXXXXXXXXXXXXXXXXXXXXXXXXX      .",
".XXXXX oooooooXoooooooXoooooooXooooooo oXXXXX",
".XXXXX oooooooXoooooooXoooooooXooooooo oXXXXX",
" XXXXX oooooooXoooooooXoooooooXooooooo oXXXXX",
".XXXXX oooooooXoooooooXoooooooXooooooo oXXXXX",
" XXXXX oooooooXoooooooXoooooooXooooooo oXXXXX",
" XXXXX oooooooXoooooooXoooooooXooooooo.oXXXXX",
" XXXXX oooooooXoooooooXoooooooXooooooo.oXXXXX",
"..      XXXXXXXXXXXXXXXXXXXXXXXXXXXXX .     .",
" XXXXo oooooooXoooooooXoooooooXooooooo.XXXXXX",
" XXXXo oooooooXoooooooXoooooooXooooooo XXXXXX",
" XXXXo oooooooXoooooooXoooooooXooooooo XXXXXX",
" XXXXo oooooooXoooooooXoooooooXooooooo XXXXXX",
" XXXXo oooooooXoooooooXoooooooXooooooo XXXXXX",
" XXXXo oooooooXoooooooXoooooooXooooooo XXXXXX",
" XXXXo oooooooXoooooooXoooooooXooooooo XXXXXX",
"..     XXXXXXXXXXXXXXXXXXXXXXXXXXXXXXX      .",
".XXXXX oooooooXoooooooXoooooooXooooooo oXXXXX",
".XXXXX oooooooXoooooooXoooooooXooooooo oXXXXX",
" XXXXX oooooooXoooooooXoooooooXooooooo oXXXXX",
".XXXXX oooooooXoooooooXoooooooXooooooo oXXXXX",
" XXXXX oooooooXoooooooXoooooooXooooooo oXXXXX",
" XXXXX oooooooXoooooooXoooooooXooooooo.oXXXXX",
" XXXXX oooooooXoooooooXoooooooXooooooo.oXXXXX",
"..      XXXXXXXXXXXXXXXXXXXXXXXXXXXXX .     .",
" XXXXo oooooooXoooooooXoooooooXooooooo.XXXXXX",
" XXXXo oooooooXoooooooXoooooooXooooooo XXXXXX",
" XXXXo oooooooXoooooooXoooooooXooooooo XXXXXX",
".    X.XXXXXXX XXXXXXX XXXXXXX XXXXXXX.      ",
".    X.XXXXXXX XXXXXXX XXXXXXX XXXXXXX.      ",
".    X.XXXXXXX XXXXXXX XXXXXXX XXXXXXX.      "
};
