/* XPM */
static char *result[] = {
/* columns rows colors chars-per-pixel */
"45 45 4 1 ",
"  c #201611",
". c #2E1E16",
"X c #392A1E",
"o c #433326",
/* pixels */
"  ........................................   ",
"                                             ",
"..XXXXXXXXXXXXXXXXXXXXXXXXXXXXXXXXXXXXXXXX...",
"..XXXXXXXXXXXXXXXXXXXXXXXXXXXXXXXXXXXXXXXX...",
"..XooooooooooooooooooooooooooooooooooooooX...",
"  ........................................   ",
"..XooooooooooooooooooooooooooooooooooooooX...",
"..XooooooooooooooooooooooooooooooooooooooX...",
"..XooooooooooooooooooooooooooooooooooooooX...",
"  ...XXXXXXXXXXXXXXXXXXXXXXXXXXXXXXXXXX...   ",
"..XooooooooooooooooooooooooooooooooooooooX...",
"..XooooooooooooooooooooooooooooooooooooooX...",
"..XooooooooooooooooooooooooooooooooooooooX...",
"  ...XXXXXXXXXXXXXXXXXXXXXXXXXXXXXXXXXX...   ",
"..XoooooooooooooXXXXXXXXXoXooooooooooooooX...",
"..XoooooooooooooXXXXXXXXXoXooooooooooooooX...",
"..XoooooooooooooXXXXXXXXXoXooooooooooooooX...",
"  ...XXXXXXXXX................XXXXXXXXX...   ",
"..XooooooooooooooXoXXXXXXXXXXooooooooooooX...",
"..XooooooooooooooXoXXXXXXXXXXooooooooooooX...",
"..XooooooooooooooXoXXXXXXXXXXooooooooooooX...",
"  ...XXXXXXXXX................XXXXXXXXX...   ",
"..XoooooooooooooXXXXXXXXoXoooooooooooooooX...",
"..XoooooooooooooXXXXXXXXoXoooooooooooooooX...",
"..XoooooooooooooXXXXXXXXoXoooooooooooooooX...",
"  ...XXXXXXXXX................XXXXXXXXX...   ",
"..XooooooooooooooXoXXXXXXXXoXooooooooooooX...",
"..XooooooooooooooXoXXXXXXXXoXooooooooooooX...",
"..XooooooooooooooXoXXXXXXXXoXooooooooooooX...",
"  ...XXXXXXXXX................XXXXXXXXX...   ",
"..XooooooooooooooooooooooooooooooooooooooX...",
"..XooooooooooooooooooooooooooooooooooooooX...",
"..XooooooooooooooooooooooooooooooooooooooX...",
"  ...XXXXXXXXXXXXXXXXXXXXXXXXXXXXXXXXXX...   ",
"..XooooooooooooooooooooooooooooooooooooooX...",
"..XooooooooooooooooooooooooooooooooooooooX...",
"..XooooooooooooooooooooooooooooooooooooooX...",
"  ...XXXXXXXXXXXXXXXXXXXXXXXXXXXXXXXXXX...   ",
"..XooooooooooooooooooooooooooooooooooooooX...",
"..XooooooooooooooooooooooooooooooooooooooX...",
"..XooooooooooooooooooooooooooooooooooooooX...",
"     ..................................      ",
"  ...XXXXXXXXXXXXXXXXXXXXXXXXXXXXXXXXXX...   ",
"  ...XXXXXXXXXXXXXXXXXXXXXXXXXXXXXXXXXX...   ",
"  ...XXXXXXXXXXXXXXXXXXXXXXXXXXXXXXXXXX...   "
};
