/* XPM */
static char * _3_xpm[] = {
"40 40 134 2",
"  	c #1D2619",
". 	c #212B1D",
"+ 	c #232E20",
"@ 	c #202B1D",
"# 	c #1F2A1D",
"$ 	c #1F2A1C",
"% 	c #242F21",
"& 	c #242F20",
"* 	c #2A3626",
"= 	c #2C3828",
"- 	c #273224",
"; 	c #212C1E",
"> 	c #263223",
", 	c #222C1F",
"' 	c #222D1F",
") 	c #273223",
"! 	c #283424",
"~ 	c #2C3728",
"{ 	c #2B3627",
"] 	c #273324",
"^ 	c #253022",
"/ 	c #1F291C",
"( 	c #1C2518",
"_ 	c #242C1D",
": 	c #252716",
"< 	c #242A1A",
"[ 	c #283325",
"} 	c #242E20",
"| 	c #1E271A",
"1 	c #413D1C",
"2 	c #756929",
"3 	c #928230",
"4 	c #82742C",
"5 	c #5F5625",
"6 	c #4E461F",
"7 	c #1A2018",
"8 	c #263122",
"9 	c #2A3526",
"0 	c #293426",
"a 	c #263123",
"b 	c #202617",
"c 	c #1E291B",
"d 	c #1D251A",
"e 	c #3D371A",
"f 	c #273124",
"g 	c #1F281B",
"h 	c #1D271A",
"i 	c #1B2419",
"j 	c #252718",
"k 	c #373A20",
"l 	c #494622",
"m 	c #141412",
"n 	c #776A28",
"o 	c #232D1F",
"p 	c #1E271C",
"q 	c #191E16",
"r 	c #1E281A",
"s 	c #655C27",
"t 	c #5D5320",
"u 	c #20281C",
"v 	c #1F291B",
"w 	c #242E21",
"x 	c #232D20",
"y 	c #1E281B",
"z 	c #252E22",
"A 	c #116189",
"B 	c #0F7CAF",
"C 	c #202A1C",
"D 	c #534D23",
"E 	c #7A6B31",
"F 	c #2A1B29",
"G 	c #17252C",
"H 	c #1C3845",
"I 	c #192E38",
"J 	c #3F453C",
"K 	c #181D15",
"L 	c #2E301C",
"M 	c #171B14",
"N 	c #232B20",
"O 	c #52482A",
"P 	c #472545",
"Q 	c #522950",
"R 	c #231821",
"S 	c #1D231A",
"T 	c #293425",
"U 	c #293525",
"V 	c #283425",
"W 	c #222A1F",
"X 	c #5F4A40",
"Y 	c #5F2E5C",
"Z 	c #752E70",
"` 	c #932D8B",
" .	c #832D7C",
"..	c #4E274B",
"+.	c #1F251C",
"@.	c #2B3727",
"#.	c #272F20",
"$.	c #605622",
"%.	c #7B6F2B",
"&.	c #826D44",
"*.	c #1E251B",
"=.	c #1B2119",
"-.	c #293526",
";.	c #253023",
">.	c #202115",
",.	c #1C2219",
"'.	c #232E21",
").	c #1F271C",
"!.	c #2E1D10",
"~.	c #47280D",
"{.	c #7E4A1E",
"].	c #995A27",
"^.	c #B56C30",
"/.	c #CD7F3F",
"(.	c #F09A53",
"_.	c #DD8B49",
":.	c #945828",
"<.	c #262E1F",
"[.	c #342713",
"}.	c #1B2018",
"|.	c #262E20",
"1.	c #A8753B",
"2.	c #9D652C",
"3.	c #1B1C14",
"4.	c #191E17",
"5.	c #1C2419",
"6.	c #734520",
"7.	c #3A220F",
"8.	c #181D16",
"9.	c #955B2A",
"0.	c #212B1E",
"a.	c #1D241A",
"b.	c #1A1F17",
"c.	c #1D2719",
"  . + + + + + + + + + @ # $ $ $ @ + + + % % % % % % % & + @ # $ $ @ + + + + + + ",
"+ + + + + + + + + + + + + $ $ $ @ + + + * = = = = = = - + + + + $ $ $ ; + + + + ",
"> > > , . + + + + + + + + ; @ @ ; + ' ' ) ! = = = ~ { ] ^ ' ' ' $ $ @ ' + + + + ",
"= = = / ( + + _ : : : : : : < + + + ; $ $ $ = = = { [ [ [ ; $ $ $ @ + + + + + + ",
"= ) } | ( _ : 1 2 3 3 3 4 5 6 7 + + ' ; @ $ ^ 8 9 0 [ [ [ ; $ $ % ^ a a a % + a ",
"= + ( ( b 1 2 3 3 3 3 3 3 3 4 6 7 + + + @ $ $ @ [ [ [ [ [ ; $ $ [ [ [ [ [ % + [ ",
"' @ c d e 5 2 3 3 3 3 3 3 3 3 4 6 7 ^ - - a a - [ [ [ [ [ - a f [ [ [ } g | h ; ",
"$ $ i j k k l 2 3 3 4 6 m e 2 3 n 7 a [ [ [ [ [ [ [ [ [ [ [ [ [ [ [ [ o ( ( ( $ ",
"$ ; p j k k k l 2 n m m m m e 2 n q $ $ a [ [ [ [ a + a [ [ [ [ [ ^ ( r $ $ $ $ ",
"$ d j k k k k s n m m m m m m t n q $ $ a [ [ [ [ a + a [ [ [ [ [ ^ ( r $ $ $ $ ",
"+ u j k k k l 2 n m m m m m m t n q v c w ^ [ [ [ - % a - [ [ [ ^ x ( y @ @ @ @ ",
"z j k k k k s n m m A B m A B e 6 q h ( ( ( [ [ [ [ [ ^ + - [ [ ( ( ( C + + + + ",
"z j l 5 5 D s E F G H I m G H J 6 K   ( h r % % a a a % + % % w r y C ; + + + ; ",
"z m j l 5 5 2 E F m m m m m m j L M ( ( c $ $ # + + + + + @ $ $ $ @ + + + + + $ ",
"0 N m m j k l O P Q F m m m m R F S ! ! T U U V + + + + + ' ' ' ' ' + + + / r   ",
"[ W j k k k l 5 X Y Y Z ` ` `  ...+.= = = = = @.+ + + + + + + + + + + + + r ( ( ",
"#.$.3 3 %.k k l 2 &.Y Z ` ` `  ...m S = = = = ~ [ a + + + + + + + + + ; $ $ $ + ",
"$.3 3 3 3 4 5 D s 3 3 4 5 2 3 3 n m m *.= = = @.[ a + + + + + + + + + ; $ $ $ + ",
"$.3 3 3 3 4 5 5 5 2 3 3 3 3 3 3 n m m 7 * = [ [ [ a + a [ [ [ [ [ - + + + + + + ",
"1 2 3 3 4 D l 5 5 2 3 3 3 3 3 3 n m m =.V -.[ [ [ - ^ - [ [ [ [ ;.^ ' ' + % ^ ^ ",
"_ : : : >.j k k k l 2 3 3 3 3 4 6 m S [ % + [ [ [ [ [ [ [ [ [ [ $ $ $ ; + - [ [ ",
"+ a W m m m j k k k L m m m m m ,.[ [ [ a a ^ a [ [ [ [ [ % '.+ $ @ ; % a - [ [ ",
"+ a [ ).!.~.{.].{.^.^./.(._.^.:.=.[ [ [ [ [ + % [ [ [ [ [ ; $ $ $ @ + a [ [ [ [ ",
"+ % % <.[.~.{.].{.^./.(.(.(._.:.m }.a [ [ [ - - % a [ a % + ' ' ' + - - [ [ [ ' ",
"+ + + |.1 5 5 5 5 5 5 1.(._.2.5 6 7 a [ [ [ [ - + ^ [ ^ + + + + + % [ [ [ [ [ $ ",
"+ + _ 1 2 3 3 3 3 3 %.L m e 5 5 5 6 7 + + + + + + + + + + + + + + + + + + - [ [ ",
"m m 3.$.3 3 3 3 3 3 n m m j l 5 5 6 7 + + + + + + + + + + + + + + + + + % - [ - ",
"m m m t 3 3 3 3 3 %.L m m m j l 5 6 7 + + + + + $ @ + + + + + + + + + a [ [ [ $ ",
"m m m t 3 3 3 3 3 n 4.' p m m m m m m 4.; ' ' ; $ @ ' ' ' + + + + + + ^ a a a ; ",
"( 5.m m m m m m m 7 + + + + p 6.^.].~.7.8.$ $ $ $ $ $ $ $ ' + + + + + + + + + + ",
"( @ p m m m m 7 + + + + + + + i !.~.~.~.7.6.9.$ $ $ $ $ $ ' + + + + + + + + + + ",
"0.' + p m m 7 + + + + + + + + ' a.!.~.~.{.^.:.b.' ; $ ; ' + + + + + + + + + + + ",
"+ + + + + + + + + + + + + + + + ' i !.{.^.:.m 7 + ' $ ; + + + + + + + + + + + + ",
"[ [ [ g   + + + + + + + + + + + + + + + + + + + $ $ $ ; + + + + + ' $ $ $ ' + + ",
"[ [ [ y ( + + + + + + + + + + + + + + + + + + ' $ $ $ ; + + + + + ' $ $ $ ' + + ",
"[ 0.( ( ( + + + ^ [ [ [ [ [ [ + + + + + + + ( ( ( ( ( r $ $ $ $ $ $ $ ; + + + [ ",
"a .   | r + + + % a a - [ [ [ % % ' + + , ; ( ( ( (   c $ @ @ @ @ @ @ ' + + + a ",
"$ $ $ ' + + + + ; $ $ a [ [ [ [ ^ $ ; + | ( ( ( ( c.$ $ $ ' + + + + + + + + + $ ",
"$ @ ; + + + + + ' ; ; + % [ [ [ - % ' ; c r r r r y $ $ $ ; ; ; + + + + + + + ; ",
"$ ; + + + + + + + + + @ $ [ [ [ [ [ + $ $ $ $ $ $ $ $ $ $ $ $ $ + + + + + + + + "};
