/* XPM */
static char * _2_xpm[] = {
"40 40 287 2",
"  	c #1D2619",
". 	c #212B1D",
"+ 	c #232E20",
"@ 	c #202B1D",
"# 	c #1F2A1D",
"$ 	c #1F2A1C",
"% 	c #242F21",
"& 	c #242F20",
"* 	c #2A3626",
"= 	c #2C3828",
"- 	c #273224",
"; 	c #212C1E",
"> 	c #263223",
", 	c #222C1F",
"' 	c #242C1D",
") 	c #232A1B",
"! 	c #22291A",
"~ 	c #242B1C",
"{ 	c #222D1E",
"] 	c #273223",
"^ 	c #283424",
"/ 	c #2C3728",
"( 	c #2B3627",
"_ 	c #273324",
": 	c #253022",
"< 	c #222D1F",
"[ 	c #1F291C",
"} 	c #1C2518",
"| 	c #423E1D",
"1 	c #645A23",
"2 	c #695E24",
"3 	c #4E481F",
"4 	c #46411E",
"5 	c #272919",
"6 	c #1E291B",
"7 	c #283325",
"8 	c #242E20",
"9 	c #1E271A",
"0 	c #262E1F",
"a 	c #423E1E",
"b 	c #776A29",
"c 	c #8E7E2F",
"d 	c #928230",
"e 	c #7E712B",
"f 	c #7A6D2A",
"g 	c #50481F",
"h 	c #262919",
"i 	c #263122",
"j 	c #2A3526",
"k 	c #293426",
"l 	c #263123",
"m 	c #20281D",
"n 	c #5B5324",
"o 	c #8A7B2E",
"p 	c #252819",
"q 	c #1E261C",
"r 	c #27291A",
"s 	c #4A4621",
"t 	c #504B23",
"u 	c #776B2A",
"v 	c #8F7F2F",
"w 	c #82742C",
"x 	c #726627",
"y 	c #6F6325",
"z 	c #7C6E2A",
"A 	c #393318",
"B 	c #232D21",
"C 	c #273124",
"D 	c #1F281B",
"E 	c #1D271A",
"F 	c #171B15",
"G 	c #33351E",
"H 	c #373A20",
"I 	c #4C4822",
"J 	c #776A28",
"K 	c #51491F",
"L 	c #242115",
"M 	c #141412",
"N 	c #423C1C",
"O 	c #766A29",
"P 	c #443D1A",
"Q 	c #252F22",
"R 	c #232D1F",
"S 	c #35371F",
"T 	c #716629",
"U 	c #716526",
"V 	c #342F17",
"W 	c #88792D",
"X 	c #1E281A",
"Y 	c #494622",
"Z 	c #897A2E",
"` 	c #85772C",
" .	c #253021",
"..	c #20291D",
"+.	c #11628A",
"@.	c #133246",
"#.	c #736728",
"$.	c #3B3518",
"%.	c #232D20",
"&.	c #1E281B",
"*.	c #1A1E17",
"=.	c #3C3D20",
"-.	c #87792E",
";.	c #4A3E27",
">.	c #181516",
",.	c #17262D",
"'.	c #156F9B",
").	c #14384E",
"!.	c #146E9A",
"~.	c #174157",
"{.	c #575027",
"].	c #2D2917",
"^.	c #202A1C",
"/.	c #181B15",
"(.	c #282A19",
"_.	c #4B4621",
":.	c #5C5425",
"<.	c #5F5625",
"[.	c #504032",
"}.	c #1C161B",
"|.	c #182830",
"1.	c #192C35",
"2.	c #151A1C",
"3.	c #494627",
"4.	c #272516",
"5.	c #222B1F",
"6.	c #242E21",
"7.	c #191F15",
"8.	c #151613",
"9.	c #443E1D",
"0.	c #4F4922",
"a.	c #483931",
"b.	c #40223E",
"c.	c #2C1B2B",
"d.	c #312C26",
"e.	c #1D1B18",
"f.	c #161914",
"g.	c #252718",
"h.	c #595224",
"i.	c #4F442B",
"j.	c #5C3256",
"k.	c #4F284D",
"l.	c #442342",
"m.	c #62225C",
"n.	c #672261",
"o.	c #51254E",
"p.	c #251823",
"q.	c #283425",
"r.	c #1E2116",
"s.	c #645B25",
"t.	c #6D6328",
"u.	c #454422",
"v.	c #755E46",
"w.	c #643B59",
"x.	c #5F2E5C",
"y.	c #8B2D84",
"z.	c #932D8B",
"A.	c #6B2E67",
"B.	c #2D1B2B",
"C.	c #21281E",
"D.	c #272F20",
"E.	c #615823",
"F.	c #8C7C2E",
"G.	c #74692A",
"H.	c #534E23",
"I.	c #4F4A23",
"J.	c #7E6748",
"K.	c #7A604C",
"L.	c #8E6068",
"M.	c #83496C",
"N.	c #7F436C",
"O.	c #8F5B6D",
"P.	c #7F6053",
"Q.	c #392E24",
"R.	c #293325",
"S.	c #86782C",
"T.	c #6B6027",
"U.	c #283324",
"V.	c #746828",
"W.	c #5A5325",
"X.	c #252C1E",
"Y.	c #46421E",
"Z.	c #6B6025",
"`.	c #524A20",
" +	c #3B3B20",
".+	c #1D231B",
"++	c #263124",
"@+	c #253023",
"#+	c #262D1E",
"$+	c #202316",
"%+	c #1E2014",
"&+	c #262818",
"*+	c #6C6228",
"=+	c #706426",
"-+	c #282A1A",
";+	c #2F2012",
">+	c #3D3018",
",+	c #7B5026",
"'+	c #513B1C",
")+	c #845528",
"!+	c #A46937",
"~+	c #AA6C3A",
"{+	c #885328",
"]+	c #7F4C23",
"^+	c #3C2516",
"/+	c #232E21",
"(+	c #432A13",
"_+	c #47280D",
":+	c #A8642C",
"<+	c #673C17",
"[+	c #CE8040",
"}+	c #EB9650",
"|+	c #F09A53",
"1+	c #D88846",
"2+	c #BB7134",
"3+	c #B56C30",
"4+	c #54331A",
"5+	c #262D1F",
"6+	c #4D3E1A",
"7+	c #53421A",
"8+	c #8D5E29",
"9+	c #63491E",
"0+	c #B97C3F",
"a+	c #E89650",
"b+	c #DC8B48",
"c+	c #9F6430",
"d+	c #8E592A",
"e+	c #49361D",
"f+	c #22281D",
"g+	c #263023",
"h+	c #252919",
"i+	c #706427",
"j+	c #645B26",
"k+	c #AC713B",
"l+	c #B8753F",
"m+	c #945A2B",
"n+	c #5C4A23",
"o+	c #262416",
"p+	c #605826",
"q+	c #574F22",
"r+	c #49421E",
"s+	c #272A1B",
"t+	c #7A6E2B",
"u+	c #403D1E",
"v+	c #1A1A14",
"w+	c #494420",
"x+	c #212A1E",
"y+	c #222A1F",
"z+	c #1F2216",
"A+	c #86772C",
"B+	c #4C461F",
"C+	c #1F241A",
"D+	c #161713",
"E+	c #181B16",
"F+	c #665B23",
"G+	c #1D241A",
"H+	c #1B2118",
"I+	c #151713",
"J+	c #48421E",
"K+	c #2E1D10",
"L+	c #321F10",
"M+	c #1C1612",
"N+	c #1B2018",
"O+	c #1C2219",
"P+	c #1B2319",
"Q+	c #1A2017",
"R+	c #191E16",
"S+	c #7C491F",
"T+	c #573212",
"U+	c #3A220F",
"V+	c #222218",
"W+	c #212B1E",
"X+	c #A6632C",
"Y+	c #915625",
"Z+	c #4D2D14",
"`+	c #171A15",
" @	c #1A2018",
".@	c #1D251B",
"+@	c #7E4C24",
"@@	c #AE682E",
"#@	c #8B5326",
"$@	c #413521",
"%@	c #1B2219",
"&@	c #805027",
"*@	c #8B562A",
"=@	c #463822",
"-@	c #1D2719",
"  . + + + + + + + + + @ # $ $ $ @ + + + % % % % % % % & + @ # $ $ @ + + + + + + ",
"+ + + + + + + + + + + + + $ $ $ @ + + + * = = = = = = - + + + + $ $ $ ; + + + + ",
"> > > , . + + + + + + + ' ) ! ! ) ~ ) { ] ^ = = = / ( _ : < < < $ $ @ < + + + + ",
"= = = [ } + + + + + ' ~ | 1 2 2 2 3 4 5 6 $ = = = ( 7 7 7 ; $ $ $ @ + + + + + + ",
"= ] 8 9 } + + + % 0 a 1 b c d d d e f g h 6 : i j k 7 7 7 ; $ $ % : l l l % + l ",
"= + } } } + + + m a n o d d d d d d d e g p 6 @ 7 7 7 7 7 ; $ $ 7 7 7 7 7 % + 7 ",
"< @ 6 ; , + + q r s t u v d d w x y z v e A B - 7 7 7 7 7 - l C 7 7 7 8 D 9 E ; ",
"$ $ $ < + + + F G H H I u v J K L M N O v P Q 7 7 7 7 7 7 7 7 7 7 7 7 R } } } $ ",
"$ ; + + + + q r S H H H T U V M M M M N W P Q 7 7 l + l 7 7 7 7 7 : } X $ $ $ $ ",
"$ ; + + + + F G H H H Y Z P M M M M M M ` P Q 7 7 l + l 7 7 7 7 7 : } X $ $ $ $ ",
"+  .i i i ..r S H H H T U V M +.@.M +.@.#.$.Q 7 7 - % l - 7 7 7 : %.} &.@ @ @ @ ",
"= = = = = *.G Y I I =.-.;.>.,.'.).M !.~.{.].Q 7 7 7 7 : + - 7 7 } } } ^.+ + + + ",
"= = = = = /.(._.:.<.t Z [.}.|.1.2.M |.1.3.4.5.% l l l % + % % 6.X &.^.; + + + ; ",
"= = = = = 7.8.(.9.0.t u a.b.c.>.M M M M d.e.E # + + + + + @ $ $ $ @ + + + + + $ ",
"k k k % + 6 f.g.(.S H h.i.j.k.l.m.n.n.n.o.p.i q.+ + + + + < < < < < + + + [ X   ",
"7 7 7 ; $ $ r.s.t.t.u.I :.v.w.x.y.z.z.z.A.B.C.j + + + + + + + + + + + + + X } } ",
"7 7 7 7 7 D.E.F.d d G.H.I.Z J.K.L.M.N.O.P.Q.M R.7 l + + + + + + + + + ; $ $ $ + ",
"7 7 7 7 7 h S.d d d d T.t Z d d d e f c d P M U.7 l + + + + + + + + + ; $ $ $ + ",
"+ l 7 7 7 h V.v d d w W.t u v d d d d d d P M Q 7 l + l 7 7 7 7 7 - + + + + + + ",
"+ l 7 7 7 X.Y.Z.U U `. +H I Z d d d d d w $..+++7 - : - 7 7 7 7 @+: < < + % : : ",
"+ l 7 7 7 $ ) #+$+%+&+S H H *+=+y y y y K -+++7 7 7 7 7 7 7 7 7 $ $ $ ; + - 7 7 ",
"+ l 7 l : % : 7 C.;+>+,+'+,+)+!+~+{+]+]+^+B : l 7 7 7 7 7 % /++ $ @ ; % l - 7 7 ",
"+ l 7 % + 7 7 7 7 (+_+:+<+:+[+}+|+1+2+3+4+Q + % 7 7 7 7 7 ; $ $ $ @ + l 7 7 7 7 ",
"+ % % l - 7 7 7 5+6+7+8+9+8+0+a+|+b+c+d+e+f+g+- % l 7 l % + < < < + - - 7 7 7 < ",
"+ + + - 7 7 7 7 h+i+f f f f j+k+l+m+n+I I o+Q - + : 7 : + + + + + % 7 7 7 7 7 $ ",
"+ + + + + + % D.a W d d d d p+4.M M q+<.<.r+s+, + + + + + + + + + + + + + - 7 7 ",
"< + + + + % % h i+c d d d t+u+v+M M w+:.<.<.].x++ + + + + + + + + + + + % - 7 - ",
"} @ + + + 7 y+z+A+d d d d B+C+D+M M (._.:.<.].x+$ @ + + + + + + + + + l 7 7 7 $ ",
"} @ + + + l E+M F+y y y y V x+G+H+I+M (.9.J+L [ $ @ < < < + + + + + + : l l l ; ",
"} @ + + + + F K+L+L+L+M+N+O+, P+Q+8.M M M M R+&.$ $ $ $ $ < + + + + + + + + + + ",
"} @ + + + + F S+T+_+U+V+, + + f.M M M M M M E $ $ $ $ $ $ < + + + + + + + + + + ",
"W+< + + + + F X+Y+Z+V+, + + + `+M M M M M  @W+< < ; $ ; < + + + + + + + + + + + ",
"+ + + + + + .@+@@@#@$@+ + + + .@%@Q+H+O+O+, + + + < $ ; + + + + + + + + + + + + ",
"7 7 7 D   + + .@&@*@=@+ + + + + + + + + + + + + $ $ $ ; + + + + + < $ $ $ < + + ",
"7 7 7 &.} + + + + + + + + + + + + + + + + + + < $ $ $ ; + + + + + < $ $ $ < + + ",
"7 W+} } } + + + : 7 7 7 7 7 7 + + + + + + + } } } } } X $ $ $ $ $ $ $ ; + + + 7 ",
"l .   9 X + + + % l l - 7 7 7 % % < + + , ; } } } }   6 $ @ @ @ @ @ @ < + + + l ",
"$ $ $ < + + + + ; $ $ l 7 7 7 7 : $ ; + 9 } } } } -@$ $ $ < + + + + + + + + + $ ",
"$ @ ; + + + + + < ; ; + % 7 7 7 - % < ; 6 X X X X &.$ $ $ ; ; ; + + + + + + + ; ",
"$ ; + + + + + + + + + @ $ 7 7 7 7 7 + $ $ $ $ $ $ $ $ $ $ $ $ $ + + + + + + + + "};
