/* XPM */
static char * _1_xpm[] = {
"40 40 280 2",
"  	c #1D2619",
". 	c #212B1D",
"+ 	c #232E20",
"@ 	c #202B1D",
"# 	c #1F2A1D",
"$ 	c #1F2A1C",
"% 	c #242F21",
"& 	c #242F20",
"* 	c #2A3626",
"= 	c #2C3828",
"- 	c #273224",
"; 	c #212C1E",
"> 	c #263223",
", 	c #222C1F",
"' 	c #222D1F",
") 	c #273223",
"! 	c #283424",
"~ 	c #2C3728",
"{ 	c #2B3627",
"] 	c #273324",
"^ 	c #253022",
"/ 	c #1F291C",
"( 	c #1C2518",
"_ 	c #242C1E",
": 	c #222B1C",
"< 	c #21291A",
"[ 	c #2B3525",
"} 	c #283325",
"| 	c #242E20",
"1 	c #1E271A",
"2 	c #263123",
"3 	c #292F1D",
"4 	c #413D1C",
"5 	c #554E1F",
"6 	c #514A1F",
"7 	c #3C381B",
"8 	c #38361B",
"9 	c #232C1F",
"0 	c #2A3526",
"a 	c #293426",
"b 	c #283224",
"c 	c #5B5221",
"d 	c #776B2A",
"e 	c #928230",
"f 	c #8D7D2F",
"g 	c #706428",
"h 	c #685E26",
"i 	c #322F19",
"j 	c #242E22",
"k 	c #1E291B",
"l 	c #292F20",
"m 	c #443F1D",
"n 	c #6B6027",
"o 	c #33301A",
"p 	c #273124",
"q 	c #1F281B",
"r 	c #1D271A",
"s 	c #222A1E",
"t 	c #302F19",
"u 	c #565024",
"v 	c #615926",
"w 	c #897A2E",
"x 	c #908030",
"y 	c #85772D",
"z 	c #7F712A",
"A 	c #80722B",
"B 	c #665C25",
"C 	c #191C17",
"D 	c #232D1F",
"E 	c #212A1E",
"F 	c #1E1F15",
"G 	c #373A20",
"H 	c #3E3F21",
"I 	c #8F7F2F",
"J 	c #786B28",
"K 	c #4B441F",
"L 	c #141412",
"M 	c #282515",
"N 	c #5F5523",
"O 	c #85772C",
"P 	c #181B16",
"Q 	c #1E281A",
"R 	c #20281C",
"S 	c #262819",
"T 	c #464422",
"U 	c #736729",
"V 	c #746727",
"W 	c #625824",
"X 	c #253021",
"Y 	c #263122",
"Z 	c #3A3C20",
"` 	c #595325",
" .	c #443D1A",
"..	c #181C16",
"+.	c #232D20",
"@.	c #1E281B",
"#.	c #202B1E",
"$.	c #142938",
"%.	c #124E6E",
"&.	c #3F3819",
"*.	c #7B6E2A",
"=.	c #202A1C",
"-.	c #1E271B",
";.	c #454321",
">.	c #424121",
",.	c #524E23",
"'.	c #86772D",
").	c #1E171C",
"!.	c #141717",
"~.	c #16435D",
"{.	c #127BAC",
"].	c #143F58",
"^.	c #137BAD",
"/.	c #2E3027",
"(.	c #574F22",
"_.	c #242E21",
":.	c #1D261A",
"<.	c #1B1C14",
"[.	c #39391E",
"}.	c #585124",
"|.	c #5F5625",
"1.	c #5B5324",
"2.	c #877730",
"3.	c #2F1C2E",
"4.	c #151C1E",
"5.	c #1A313C",
"6.	c #192D37",
"7.	c #2C3838",
"8.	c #4F4921",
"9.	c #171B15",
"0.	c #1F291B",
"a.	c #38381E",
"b.	c #534C21",
"c.	c #7C6E2E",
"d.	c #331E32",
"e.	c #321C30",
"f.	c #1D1D17",
"g.	c #323023",
"h.	c #171713",
"i.	c #212317",
"j.	c #414021",
"k.	c #5B5127",
"l.	c #49333A",
"m.	c #5B2C58",
"n.	c #40223F",
"o.	c #3C1D39",
"p.	c #521D4D",
"q.	c #501E4B",
"r.	c #3D213B",
"s.	c #2E2C17",
"t.	c #5C5525",
"u.	c #565124",
"v.	c #625531",
"w.	c #6D4B54",
"x.	c #5F2E5C",
"y.	c #6B2E67",
"z.	c #932D8B",
"A.	c #8B2D84",
"B.	c #572A54",
"C.	c #171A15",
"D.	c #202A1D",
"E.	c #2F321C",
"F.	c #645A23",
"G.	c #8A7B2E",
"H.	c #585224",
"I.	c #484522",
"J.	c #655B26",
"K.	c #8D7B38",
"L.	c #705053",
"M.	c #754D5B",
"N.	c #873C79",
"O.	c #89407A",
"P.	c #8D5074",
"Q.	c #66494C",
"R.	c #20291B",
"S.	c #49441C",
"T.	c #253023",
"U.	c #232C1E",
"V.	c #45401C",
"W.	c #7F722C",
"X.	c #283223",
"Y.	c #32331C",
"Z.	c #5E5523",
"`.	c #796C29",
" +	c #4E4821",
".+	c #151713",
"++	c #1E241B",
"@+	c #262B1B",
"#+	c #242819",
"$+	c #212315",
"%+	c #1F2114",
"&+	c #4B4923",
"*+	c #81732C",
"=+	c #4C451F",
"-+	c #232E21",
";+	c #1B1C15",
">+	c #291B11",
",+	c #3D2916",
"'+	c #664824",
")+	c #483A1E",
"!+	c #6D4C25",
"~+	c #6C4924",
"{+	c #6C4221",
"]+	c #87562F",
"^+	c #82522C",
"/+	c #653D1D",
"(+	c #5D381C",
"_+	c #263023",
":+	c #292A1A",
"<+	c #47280D",
"[+	c #673C17",
"}+	c #A8642C",
"|+	c #B56C30",
"1+	c #B96F32",
"2+	c #D08141",
"3+	c #F09A53",
"4+	c #E9954F",
"5+	c #C4783A",
"6+	c #A6632C",
"7+	c #181B15",
"8+	c #2D2D1A",
"9+	c #4E3916",
"0+	c #65441C",
"a+	c #98602A",
"b+	c #A3672D",
"c+	c #AE6E34",
"d+	c #DA8E4C",
"e+	c #EE9852",
"f+	c #D88847",
"g+	c #925A29",
"h+	c #212418",
"i+	c #222B1F",
"j+	c #242E1F",
"k+	c #3C381A",
"l+	c #6D6228",
"m+	c #7E612E",
"n+	c #D18648",
"o+	c #C98144",
"p+	c #97612B",
"q+	c #3F3D1F",
"r+	c #2A2F1E",
"s+	c #544D20",
"t+	c #2D2917",
"u+	c #595123",
"v+	c #323019",
"w+	c #8F802F",
"x+	c #2C2F1B",
"y+	c #2A2716",
"z+	c #1E2619",
"A+	c #48421C",
"B+	c #87782D",
"C+	c #3B3518",
"D+	c #1F2116",
"E+	c #524B21",
"F+	c #161914",
"G+	c #212B1E",
"H+	c #191D17",
"I+	c #34371E",
"J+	c #151613",
"K+	c #171C15",
"L+	c #191F17",
"M+	c #151513",
"N+	c #332517",
"O+	c #4B2D18",
"P+	c #A05F29",
"Q+	c #A05F2A",
"R+	c #905628",
"S+	c #1B2119",
"T+	c #231911",
"U+	c #41250E",
"V+	c #362214",
"W+	c #73431B",
"X+	c #71421B",
"Y+	c #5D391D",
"Z+	c #4A321C",
"`+	c #9E602C",
" @	c #9D5F2B",
".@	c #905728",
"+@	c #181C15",
"@@	c #1D2719",
"  . + + + + + + + + + @ # $ $ $ @ + + + % % % % % % % & + @ # $ $ @ + + + + + + ",
"+ + + + + + + + + + + + + $ $ $ @ + + + * = = = = = = - + + + + $ $ $ ; + + + + ",
"> > > , . + + + + + + + + ; @ @ ; + ' ' ) ! = = = ~ { ] ^ ' ' ' $ $ @ ' + + + + ",
"= = = / ( + + + + + + + + + + + _ _ : < < < [ = = { } } } ; $ $ $ @ + + + + + + ",
"= ) | 1 ( + + + % 2 2 2 2 + _ 3 4 5 5 5 6 7 8 9 0 a } } } ; $ $ % ^ 2 2 2 % + 2 ",
"= + ( ( ( + + + ^ } } } b 3 4 c d e e e f g h i j } } } } ; $ $ } } } } } % + } ",
"' @ k ; , + + + ' ; ; ^ l m n e e e e e e e f h o j } } } - 2 p } } } | q 1 r ; ",
"$ $ $ ' + + + + ; $ / s t u v w e e x y z A w f B C } } } } } } } } } D ( ( ( $ ",
"$ ; + + + + + + + + E F G G H v w I J K L M N w O P + 2 } } } } } ^ ( Q $ $ $ $ ",
"$ ; + + + + + + + ' R S G G G T U V L L L L M W O P + 2 } } } } } ^ ( Q $ $ $ $ ",
"+ X Y Y Y Y ^ ' ' E F G G G Z ` O L L L L L L  .O ..% 2 - } } } ^ +.( @.@ @ @ @ ",
"= = = = = = * $ #.R S G G G T U V L $.%.L $.%.&.*.C } ^ + - } } ( ( ( =.+ + + + ",
"= = = = = X | Q -.F Z ;.;.>.,.'.).!.~.{.L ].^./.(.P 2 % + % % _.Q @.=.; + + + ; ",
"= = = = = ( ( ( :.<.[.}.|.1.` 2.3.4.5.6.L 4.5.7.8.9.+ + + @ $ $ $ @ + + + + + $ ",
"a a a % + k 0.; #...<.a.b.u v c.d.e.).L L L L f.g.9.+ + + ' ' ' ' ' + + + / Q   ",
"} } } ; $ $ @ + + E h.i.S G j.k.l.m.n.o.p.p.p.q.r.9.+ + + + + + + + + + + Q ( ( ",
"} } } } } } } } ^ @.s.t.t.u.H }.v.w.x.y.z.z.z.A.B.C.D.+ + + + + + + + ; $ $ $ + ",
"} } } } } } } - % E.F.e e G.H.I.J.K.L.M.N.N.O.P.Q.L 9.+ + + + + + + + ; $ $ $ + ",
"+ 2 } } } } - $ R.S.e e e e G.1.` e e f g g d e O L 9.2 } } } } } - + + + + + + ",
"+ 2 } } } T.^ ' U.V.w e e x W.u v w e e e e e e O L P - } } } } T.^ ' ' + % ^ ^ ",
"+ 2 } } } $ ; } X.Y.Z.A A `. +G H J.e e e e e x *..+++} } } } } $ $ $ ; + - } } ",
"+ 2 } 2 ^ % ^ } } X.@+#+$+%+F G G &+*+z z z z J =+++} } } % -++ $ @ ; % 2 - } } ",
"+ 2 } % + } } } } } } #.;+>+,+'+)+!+~+{+]+^+/+(+C } } } } ; $ $ $ @ + 2 } } } } ",
"+ % % 2 - } } } _+; ; @ :+<+[+}+[+|+1+2+3+4+5+6+7+2 } 2 % + ' ' ' + - - } } } ' ",
"+ + + - } } } } ^ $ $ $ 8+9+0+a+0+b+c+d+3+e+f+g+h+i+} ^ + + + + + % } } } } } $ ",
"+ + + + + + % } } } } j+k+g g g g g l+m+n+o+p+;.q+9.+ + + + + + + + + + + - } } ",
"' + + + + % % } } - ) r+s+e e e e e G.8.L t+|.|.u+v+D.+ + + + + + + + + % - } - ",
"( @ + + + } } } ^ $ R.k+d e e e e w+d x+L y+}.|.|.(.9.+ + + + + + + + 2 } } } $ ",
"( @ + + + 2 2 2 % # z+A+e e e e e B+x+L L <.[.}.|.(.C.' ' + + + + + + ^ 2 2 2 ; ",
"( @ + + + + + + + E L C+z z z z z V L h.D+L <.a.E+K F+$ $ ' + + + + + + + + + + ",
"( @ + + + + + + + G+H+H+..L L L L L L F I+i.D+L J+K+L+$ $ ' + + + + + + + + + + ",
"G+' + + + + + + + + + + E L L L L M+C.N+!+!+~+(+C.; $ ; ' + + + + + + + + + + + ",
"+ + + + + + + + + + + + E L L L L F+/ O+P+P+Q+R+S+' $ ; + + + + + + + + + + + + ",
"} } } q   + + + + + + + E L J+H+H+S+E T+<+<+U+9.$ $ $ ; + + + + + ' $ $ $ ' + + ",
"} } } @.( + + + + + + + G+H+S++ + + E V+W+W+X+Y+:.$ $ ; + + + + + ' $ $ $ ' + + ",
"} G+( ( ( + + + ^ } } } } } } + + + G+Z+`+`+ @.@+@( ( Q $ $ $ $ $ $ $ ; + + + } ",
"2 .   1 Q + + + % 2 2 - } } } % % ' + + , ; ( ( ( (   k $ @ @ @ @ @ @ ' + + + 2 ",
"$ $ $ ' + + + + ; $ $ 2 } } } } ^ $ ; + 1 ( ( ( ( @@$ $ $ ' + + + + + + + + + $ ",
"$ @ ; + + + + + ' ; ; + % } } } - % ' ; k Q Q Q Q @.$ $ $ ; ; ; + + + + + + + ; ",
"$ ; + + + + + + + + + @ $ } } } } } + $ $ $ $ $ $ $ $ $ $ $ $ $ + + + + + + + + "};
