/* XPM */
static char * 1_xpm[] = {
"40 40 117 2",
"  	c #1D2619",
". 	c #212B1D",
"+ 	c #232E20",
"@ 	c #202B1D",
"# 	c #1F2A1D",
"$ 	c #1F2A1C",
"% 	c #242F21",
"& 	c #242F20",
"* 	c #2A3626",
"= 	c #2C3828",
"- 	c #273224",
"; 	c #212C1E",
"> 	c #263223",
", 	c #222C1F",
"' 	c #222D1F",
") 	c #273223",
"! 	c #283424",
"~ 	c #2C3728",
"{ 	c #2B3627",
"] 	c #273324",
"^ 	c #253022",
"/ 	c #1F291C",
"( 	c #1C2518",
"_ 	c #283325",
": 	c #242E20",
"< 	c #1E271A",
"[ 	c #263123",
"} 	c #23291A",
"| 	c #252716",
"1 	c #272E1F",
"2 	c #242A1B",
"3 	c #4B451F",
"4 	c #7E712B",
"5 	c #928230",
"6 	c #7A6D2A",
"7 	c #5F5625",
"8 	c #433D1C",
"9 	c #20281E",
"0 	c #1E291B",
"a 	c #273124",
"b 	c #1F281B",
"c 	c #1D271A",
"d 	c #1C2219",
"e 	c #48421E",
"f 	c #232D1F",
"g 	c #1E251C",
"h 	c #2B2D1A",
"i 	c #373A20",
"j 	c #504B23",
"k 	c #141412",
"l 	c #675B23",
"m 	c #1E281A",
"n 	c #253021",
"o 	c #263122",
"p 	c #74692A",
"q 	c #6F6325",
"r 	c #232D20",
"s 	c #1E281B",
"t 	c #20271D",
"u 	c #202A1C",
"v 	c #202A1D",
"w 	c #1074A4",
"x 	c #116B97",
"y 	c #1E251B",
"z 	c #242E21",
"A 	c #1F291B",
"B 	c #4C4822",
"C 	c #6C5D31",
"D 	c #251924",
"E 	c #192C35",
"F 	c #1C3845",
"G 	c #182931",
"H 	c #4A4A36",
"I 	c #1B2219",
"J 	c #293426",
"K 	c #282A19",
"L 	c #1C241A",
"M 	c #181D15",
"N 	c #4B3F2D",
"O 	c #4F284C",
"P 	c #4B2649",
"Q 	c #281A27",
"R 	c #1D251A",
"S 	c #5F4449",
"T 	c #5F2E5C",
"U 	c #7F2D78",
"V 	c #932D8B",
"W 	c #7A2E74",
"X 	c #432240",
"Y 	c #716526",
"Z 	c #6D6328",
"` 	c #7A604C",
" .	c #253023",
"..	c #252B1C",
"+.	c #262D1E",
"@.	c #232E21",
"#.	c #1D1E14",
"$.	c #263023",
"%.	c #3A2B17",
"&.	c #47280D",
"*.	c #905524",
"=.	c #885022",
"-.	c #B56C30",
";.	c #D88846",
">.	c #F09A53",
",.	c #D38343",
"'.	c #7F4C23",
").	c #C08143",
"!.	c #845528",
"~.	c #212B1E",
"{.	c #1B2018",
"].	c #8A5225",
"^.	c #37200F",
"/.	c #321F10",
"(.	c #1C2319",
"_.	c #1B2218",
":.	c #1D2719",
"  . + + + + + + + + + @ # $ $ $ @ + + + % % % % % % % & + @ # $ $ @ + + + + + + ",
"+ + + + + + + + + + + + + $ $ $ @ + + + * = = = = = = - + + + + $ $ $ ; + + + + ",
"> > > , . + + + + + + + + ; @ @ ; + ' ' ) ! = = = ~ { ] ^ ' ' ' $ $ @ ' + + + + ",
"= = = / ( + + + + + + + + + + + + + ; $ $ $ = = = { _ _ _ ; $ $ $ @ + + + + + + ",
"= ) : < ( + + + % [ [ [ [ + + + + + ' } | | | | | | 1 _ _ ; $ $ % ^ [ [ [ % + [ ",
"= + ( ( ( + + + ^ _ _ _ _ + + + + 2 | 3 4 5 5 5 6 7 8 9 _ ; $ $ _ _ _ _ _ % + _ ",
"' @ 0 ; , + + + ' ; ; [ _ - - + 2 3 4 5 5 5 5 5 5 5 6 8 9 - [ a _ _ _ : b < c ; ",
"$ $ $ ' + + + + ; $ $ [ _ _ _ d e 7 4 5 5 5 5 5 5 5 5 6 8 9 _ _ _ _ _ f ( ( ( $ ",
"$ ; + + + + + + + + + @ $ _ g h i i j 4 5 5 6 8 k e 4 5 l 9 _ _ _ ^ ( m $ $ $ $ ",
"$ ; + + + + + + + + + @ $ _ g h i i i j 4 l k k k k e 4 l 9 _ _ _ ^ ( m $ $ $ $ ",
"+ n o o o o ^ ' ' + + ; @ g h i i i i p l k k k k k k q l 9 _ _ ^ r ( s @ @ @ @ ",
"= = = = = = * $ ; + + + + d h i i i j 4 l k k k k k k q l t _ _ ( ( ( u + + + + ",
"= = = = = n : m v + + + d h i i i i p l k k w x k w x e 8 y % z m s u ; + + + ; ",
"= = = = = ( ( ( A + + + d h j 7 7 B p C D E F G k E F H 8 I $ $ $ @ + + + + + $ ",
"J J J % + 0 A ; ' + + + d k h j 7 7 4 C D k k k k k k h K L ' ' ' ' + + + / m   ",
"_ _ _ ; $ $ @ + + + + + + M k k h i j N O P D k k k k Q D R + + + + + + + m ( ( ",
"_ _ _ _ _ _ _ _ ^ $ $ ' + d h i i i j 7 S T T U V V V W X R + + + + + ; $ $ $ + ",
"_ _ _ _ _ _ _ - % $ $ ' + 2 Y 5 5 Z i j 4 ` T U V V V W X k R + + + + ; $ $ $ + ",
"+ [ _ _ _ _ - $ $ $ $ ' 2 Y 5 5 5 5 6 B p 5 5 6 7 7 4 5 l k 9 _ _ - + + + + + + ",
"+ [ _ _ _  .^ ' ' ' ' % ..Y 5 5 5 5 6 7 4 5 5 5 5 5 5 5 l k 9 _  .^ ' ' + % ^ ^ ",
"+ [ _ _ _ $ ; _ _ _ _ _ +.3 4 5 5 6 B i j 4 5 5 5 5 5 5 l k 9 _ $ $ $ ; + - _ _ ",
"+ [ _ [ ^ % ^ _ _ _ _ ^ @.} | | | #.h i i p 5 5 5 5 5 6 8 y @.+ $ @ ; % [ - _ _ ",
"+ [ _ % + _ _ _ _ _ _ ' $ $ $ d k k h i i i K k k k k k 9 ; $ $ $ @ + [ _ _ _ _ ",
"+ % % [ - _ _ _ $.; ; @ $ ' ' + %.&.*.=.*.-.-.;.>.,.-.'.y + ' ' ' + - - _ _ _ ' ",
"+ + + - _ _ _ _ ^ $ $ $ $ + + + %.&.*.=.*.-.;.>.>.>.,.'.R + + + + % _ _ _ _ _ $ ",
"+ + + + + + % _ _ _ _ % + + + 2 3 7 7 7 7 7 7 ).>.,.!.i K R + + + + + + + - _ _ ",
"' + + + + % % _ _ - - % + + + 2 Y 5 5 5 5 5 6 8 k e 7 7 8 R + + + + + + % - _ - ",
"( @ + + + _ _ _ ^ $ $ ' + + 2 3 4 5 5 5 5 5 Z K k e 7 7 7 8 R + + + + [ _ _ _ $ ",
"( @ + + + [ [ [ % @ @ ' + + 2 Y 5 5 5 5 5 Z K k k h j 7 7 8 R + + + + ^ [ [ [ ; ",
"( @ + + + + + + + + + + + d k q 5 5 5 5 5 l k k k k h j 7 8 R + + + + + + + + + ",
"( @ + + + + + + + + + + + d k k k k k k k k k h K k k k k k R + + + + + + + + + ",
"~.' + + + + + + + + + + + + + ' {.k k k k k k h i i K k L + + + + + + + + + + + ",
"+ + + + + + + + + + + + + + + + I k k k k R d ].-.-.-.'.R + + + + + + + + + + + ",
"_ _ _ b   + + + + + + + + + + + d k k k k R d ^.&.&./.(.+ + + + + ' $ $ $ ' + + ",
"_ _ _ s ( + + + + + + + + + + + d k R + + + d ^.&.&./.(.+ + + + + ' $ $ $ ' + + ",
"_ ~.( ( ( + + + ^ _ _ _ _ _ _ + + + + + + + M ].-.-.-.'._.$ $ $ $ $ $ ; + + + _ ",
"[ .   < m + + + % [ [ - _ _ _ % % ' + + , ; ( ( ( (   0 $ @ @ @ @ @ @ ' + + + [ ",
"$ $ $ ' + + + + ; $ $ [ _ _ _ _ ^ $ ; + < ( ( ( ( :.$ $ $ ' + + + + + + + + + $ ",
"$ @ ; + + + + + ' ; ; + % _ _ _ - % ' ; 0 m m m m s $ $ $ ; ; ; + + + + + + + ; ",
"$ ; + + + + + + + + + @ $ _ _ _ _ _ + $ $ $ $ $ $ $ $ $ $ $ $ $ + + + + + + + + "};
