/* XPM */
static char * 2_xpm[] = {
"40 40 274 2",
"  	c #1D2619",
". 	c #212B1D",
"+ 	c #232E20",
"@ 	c #202B1D",
"# 	c #1F2A1D",
"$ 	c #1F2A1C",
"% 	c #242F21",
"& 	c #242F20",
"* 	c #2A3626",
"= 	c #2C3828",
"- 	c #273224",
"; 	c #212C1E",
"> 	c #263223",
", 	c #222C1F",
"' 	c #222D1F",
") 	c #273223",
"! 	c #283424",
"~ 	c #2C3728",
"{ 	c #2B3627",
"] 	c #273324",
"^ 	c #253022",
"/ 	c #1F291C",
"( 	c #1C2518",
"_ 	c #2B3727",
": 	c #2A3526",
"< 	c #283224",
"[ 	c #283325",
"} 	c #242E20",
"| 	c #1E271A",
"1 	c #263123",
"2 	c #202B1C",
"3 	c #2A2C19",
"4 	c #363419",
"5 	c #3A3719",
"6 	c #333118",
"7 	c #2E2E18",
"8 	c #293020",
"9 	c #212B1E",
"0 	c #232E1F",
"a 	c #2B2D1B",
"b 	c #585022",
"c 	c #84762D",
"d 	c #928230",
"e 	c #786B2A",
"f 	c #655B26",
"g 	c #443E1C",
"h 	c #21271A",
"i 	c #1E291B",
"j 	c #2B2E1B",
"k 	c #514A21",
"l 	c #82742C",
"m 	c #242A1E",
"n 	c #273024",
"o 	c #1F281B",
"p 	c #1D271A",
"q 	c #1D2219",
"r 	c #4C451F",
"s 	c #5C5425",
"t 	c #7F712C",
"u 	c #918130",
"v 	c #90802F",
"w 	c #8D7D2E",
"x 	c #8C7D2E",
"y 	c #8D7E2F",
"z 	c #403A1B",
"A 	c #222A1F",
"B 	c #232D1F",
"C 	c #191E16",
"D 	c #2E301C",
"E 	c #373A20",
"F 	c #514C23",
"G 	c #8E7F2F",
"H 	c #706428",
"I 	c #3A351A",
"J 	c #141412",
"K 	c #4A431E",
"L 	c #7F712B",
"M 	c #5D5320",
"N 	c #1E281A",
"O 	c #1E291C",
"P 	c #1B2017",
"Q 	c #2F311C",
"R 	c #585124",
"S 	c #7F722B",
"T 	c #594F1F",
"U 	c #81742C",
"V 	c #253021",
"W 	c #263122",
"X 	c #191E17",
"Y 	c #3A3C20",
"Z 	c #7B6F2B",
"` 	c #776A28",
" .	c #232D20",
"..	c #1E281B",
"+.	c #142C3C",
"@.	c #14232F",
"#.	c #746827",
"$.	c #5A5120",
"%.	c #202A1C",
"&.	c #202A1D",
"*.	c #1A2018",
"=.	c #3C3D20",
"-.	c #393B20",
";.	c #5D5322",
">.	c #161414",
",.	c #151818",
"'.	c #1178A9",
").	c #125D83",
"!.	c #1078A9",
"~.	c #135E84",
"{.	c #4E4722",
"].	c #3D371A",
"^.	c #1F271C",
"/.	c #1F291B",
"(.	c #1A1F17",
"_.	c #2C2E1B",
":.	c #514B23",
"<.	c #5E5525",
"[.	c #5F5625",
"}.	c #4B4722",
"|.	c #635431",
"1.	c #231821",
"2.	c #192D36",
"3.	c #1B3642",
"4.	c #17242B",
"5.	c #4C4B32",
"6.	c #3B361A",
"7.	c #1B2419",
"8.	c #293426",
"9.	c #141512",
"0.	c #504A22",
"a.	c #5C5324",
"b.	c #615231",
"c.	c #2A1A28",
"d.	c #1D161B",
"e.	c #2D2E1D",
"f.	c #252519",
"g.	c #1E261B",
"h.	c #171813",
"i.	c #191A14",
"j.	c #534D23",
"k.	c #493D2D",
"l.	c #532C50",
"m.	c #492647",
"n.	c #2C1B2B",
"o.	c #2E172B",
"p.	c #33172F",
"q.	c #371D35",
"r.	c #261924",
"s.	c #1E271C",
"t.	c #1B2118",
"u.	c #3A391D",
"v.	c #464522",
"w.	c #3D3E21",
"x.	c #63474B",
"y.	c #61345B",
"z.	c #5F2E5C",
"A.	c #832D7C",
"B.	c #932D8B",
"C.	c #752E70",
"D.	c #3D203A",
"E.	c #1E251B",
"F.	c #34341B",
"G.	c #7B6E29",
"H.	c #6A6128",
"I.	c #404021",
"J.	c #524D23",
"K.	c #785D4D",
"L.	c #653C59",
"M.	c #853C78",
"N.	c #913686",
"O.	c #8F3285",
"P.	c #923886",
"Q.	c #783C6C",
"R.	c #402838",
"S.	c #242A1A",
"T.	c #796C29",
"U.	c #756929",
"V.	c #253023",
"W.	c #766928",
"X.	c #726629",
"Y.	c #20281E",
"Z.	c #242A1B",
"`.	c #4D4620",
" +	c #7D702B",
".+	c #474421",
"++	c #161714",
"@+	c #1C2419",
"#+	c #232E21",
"$+	c #252B1C",
"%+	c #252817",
"&+	c #242617",
"*+	c #242616",
"=+	c #1D1F14",
"-+	c #766B2A",
";+	c #1E241B",
">+	c #1B1713",
",+	c #312F1B",
"'+	c #473E21",
")+	c #413C20",
"!+	c #4E4122",
"~+	c #513A20",
"{+	c #53351F",
"]+	c #462D1A",
"^+	c #3E2716",
"/+	c #291C14",
"(+	c #263023",
"_+	c #3D2C17",
":+	c #47280D",
"<+	c #995A27",
"[+	c #7E4A1E",
"}+	c #B96F33",
"|+	c #DF8D4A",
"1+	c #F09A53",
"2+	c #D18241",
"3+	c #B76E32",
"4+	c #B56C30",
"5+	c #734520",
"6+	c #3F2F18",
"7+	c #4A2E10",
"8+	c #955A27",
"9+	c #7B4B1F",
"0+	c #D58846",
"a+	c #ED9852",
"b+	c #ED9851",
"c+	c #C77C3E",
"d+	c #AE692F",
"e+	c #6F4420",
"f+	c #1F271B",
"g+	c #544D21",
"h+	c #615825",
"i+	c #C38144",
"j+	c #E6944F",
"k+	c #C57A3D",
"l+	c #765026",
"m+	c #282818",
"n+	c #796D29",
"o+	c #736829",
"p+	c #4E461F",
"q+	c #413B1C",
"r+	c #22281C",
"s+	c #8F7F2F",
"t+	c #615926",
"u+	c #242517",
"v+	c #4B451F",
"w+	c #222718",
"x+	c #786C28",
"y+	c #645C26",
"z+	c #242618",
"A+	c #726626",
"B+	c #191F17",
"C+	c #151713",
"D+	c #5B5224",
"E+	c #1A1612",
"F+	c #1D1612",
"G+	c #181512",
"H+	c #151613",
"I+	c #181D16",
"J+	c #492A12",
"K+	c #4E2C0F",
"L+	c #45270D",
"M+	c #2C1E11",
"N+	c #1E271B",
"O+	c #945828",
"P+	c #844E20",
"Q+	c #4C2B10",
"R+	c #1B2119",
"S+	c #8E5527",
"T+	c #B26A2F",
"U+	c #7B4922",
"V+	c #2F2C1D",
"W+	c #AE682F",
"X+	c #704A26",
"Y+	c #1D2719",
"  . + + + + + + + + + @ # $ $ $ @ + + + % % % % % % % & + @ # $ $ @ + + + + + + ",
"+ + + + + + + + + + + + + $ $ $ @ + + + * = = = = = = - + + + + $ $ $ ; + + + + ",
"> > > , . + + + + + + + + ; @ @ ; + ' ' ) ! = = = ~ { ] ^ ' ' ' $ $ @ ' + + + + ",
"= = = / ( + + + + + + + + + + + + + ; $ $ $ _ _ _ : < < [ ; $ $ $ @ + + + + + + ",
"= ) } | ( + + + % 1 1 1 1 + + + + + ' ; 2 3 4 5 5 5 6 7 8 9 $ $ % ^ 1 1 1 % + 1 ",
"= + ( ( ( + + + ^ [ [ [ [ + + + + + 0 a 4 b c d d d e f g h / $ [ [ [ [ [ % + [ ",
"' @ i ; , + + + ' ; ; 1 [ - - + + ' j k l d d d d d d d e g m n [ [ [ } o | p ; ",
"$ $ $ ' + + + + ; $ $ 1 [ [ [ + ' q r s t u d d v w x y u e z A [ [ [ B ( ( ( $ ",
"$ ; + + + + + + + + + @ $ [ - $ C D E E F t u G H I J K L u M A [ ^ ( N $ $ $ $ ",
"$ ; + + + + + + + + + @ $ [ - O P Q E E E R S T J J J J K U M A [ ^ ( N $ $ $ $ ",
"+ V W W W W ^ ' ' + + ; @ - 1 X D E E E Y Z M J J J J J J ` M A ^  .( ..@ @ @ @ ",
"= = = = = = * $ ; + + + + + ' q Q E E E R S T J +.@.J +.@.#.$.A ( ( ( %.+ + + + ",
"= = = = = V } N &.+ + + + + *.D Y =.=.-.Z ;.>.,.'.).J !.~.{.].^.N ..%.; + + + ; ",
"= = = = = ( ( ( /.+ + + + + (._.:.<.[.}.Z |.1.2.3.4.J 2.3.5.6.7.$ @ + + + + + $ ",
"8.8.8.% + i /.; ' + + + + ..C 9._.0.a.s t b.c.d.>.J J J J e.f.g.' ' + + + / N   ",
"[ [ [ ; $ $ @ + + + + + + ( ( C h.i.Q E j.k.l.m.n.o.p.p.p.q.r.s.+ + + + + N ( ( ",
"[ [ [ [ [ [ [ [ ^ $ $ ' + + + t.u.v.v.w.F <.x.y.z.A.B.B.B.C.D.E. .+ + ; $ $ $ + ",
"[ [ [ [ [ [ [ - % $ $ ' + + 0 F.G.d d H.I.J.l K.L.M.N.O.P.Q.R.J s.+ + ; $ $ $ + ",
"+ 1 [ [ [ [ - $ $ $ $ ' + + S.T.d d d d U.}.Z d d d e f c d M J A - + + + + + + ",
"+ 1 [ [ [ V.^ ' ' ' ' % ^ + S.W.u d d v X.s t u d d d d d d M J Y.^ ' ' + % ^ ^ ",
"+ 1 [ [ [ $ ; [ [ [ [ [ [ + Z.`. +x x H .+E F l d d d d d v $.++@+$ $ ; + - [ [ ",
"+ 1 [ 1 ^ % ^ [ [ [ [ ^ #+; ; $+%+&+*+=+Q E E -+x x x x x H 6.^.$ @ ; % 1 - [ [ ",
"+ 1 [ % + [ [ [ [ [ [ ' $ $ $ + ^ ;+>+,+'+)+'+!+~+{+]+^+^+/+7.$ $ @ + 1 [ [ [ [ ",
"+ % % 1 - [ [ [ (+; ; @ $ ' ' + + % _+:+<+[+<+}+|+1+2+3+4+5+g.' ' + - - [ [ [ ' ",
"+ + + - [ [ [ [ ^ $ $ $ $ + + + + 0 6+7+8+9+8+0+a+1+b+c+d+e+f+ .+ % [ [ [ [ [ $ ",
"+ + + + + + % [ [ [ [ % + + + + + S.g+f f f f h+i+j+k+l+=.=.m+s.+ + + + + - [ [ ",
"' + + + + % % [ [ - - % + + + + 0 a n+d d d d o+6.J J p+[.[.q+r+ .+ + + % - [ - ",
"( @ + + + [ [ [ ^ $ $ ' + + + + S.g+c d d d s+t+u+J J v+<.[.[.].s.+ + 1 [ [ [ $ ",
"( @ + + + 1 1 1 % @ @ ' + + + ; w+x+d d d d y+z+9.J J _.:.<.[.].s.+ + ^ 1 1 1 ; ",
"( @ + + + + + + + + + + + + + C J A+x x x x T 7.B+C+9.J _.0.D+I s.+ + + + + + + ",
"( @ + + + + + + + + + + + + + C E+F+F+F+G+H+C+@+O i I+J J J J H+^.+ + + + + + + ",
"9 ' + + + + + + + + + + + + + (.J+K+:+L+M+N+' ' (.J J J J J J s.+ + + + + + + + ",
"+ + + + + + + + + + + + + + + *.O+P+Q+M+^.+ + + *.J J J J J H+^.+ + + + + + + + ",
"[ [ [ o   + + + + + + + + + + R+S+T+U+V++ + + + B+C+C+C+++++^.+ + ' $ $ $ ' + + ",
"[ [ [ ..( + + + + + + + + + + + R+S+W+X++ + + ' $ $ $ ; + + + + + ' $ $ $ ' + + ",
"[ 9 ( ( ( + + + ^ [ [ [ [ [ [ + + + + + + + ( ( ( ( ( N $ $ $ $ $ $ $ ; + + + [ ",
"1 .   | N + + + % 1 1 - [ [ [ % % ' + + , ; ( ( ( (   i $ @ @ @ @ @ @ ' + + + 1 ",
"$ $ $ ' + + + + ; $ $ 1 [ [ [ [ ^ $ ; + | ( ( ( ( Y+$ $ $ ' + + + + + + + + + $ ",
"$ @ ; + + + + + ' ; ; + % [ [ [ - % ' ; i N N N N ..$ $ $ ; ; ; + + + + + + + ; ",
"$ ; + + + + + + + + + @ $ [ [ [ [ [ + $ $ $ $ $ $ $ $ $ $ $ $ $ + + + + + + + + "};
