/* XPM */
static char * 3_xpm[] = {
"40 40 291 2",
"  	c #1D2619",
". 	c #212B1D",
"+ 	c #232E20",
"@ 	c #202B1D",
"# 	c #1F2A1D",
"$ 	c #1F2A1C",
"% 	c #242F21",
"& 	c #242F20",
"* 	c #2A3626",
"= 	c #2C3828",
"- 	c #273224",
"; 	c #212C1E",
"> 	c #263223",
", 	c #222C1F",
"' 	c #222D1F",
") 	c #273223",
"! 	c #283424",
"~ 	c #2C3728",
"{ 	c #2B3627",
"] 	c #273324",
"^ 	c #253022",
"/ 	c #1F291C",
"( 	c #1C2518",
"_ 	c #2A3323",
": 	c #262918",
"< 	c #252818",
"[ 	c #252717",
"} 	c #242717",
"| 	c #232819",
"1 	c #242E20",
"2 	c #1E271A",
"3 	c #263123",
"4 	c #252D1F",
"5 	c #252817",
"6 	c #403C1D",
"7 	c #706528",
"8 	c #8C7D2E",
"9 	c #7D702B",
"0 	c #5B5324",
"a 	c #4B441F",
"b 	c #1C2219",
"c 	c #283325",
"d 	c #21291A",
"e 	c #403B1C",
"f 	c #8D7E2F",
"g 	c #90802F",
"h 	c #928230",
"i 	c #918130",
"j 	c #8E7F2F",
"k 	c #7F712B",
"l 	c #4A441F",
"m 	c #1E241B",
"n 	c #1E291B",
"o 	c #222B1F",
"p 	c #3B371B",
"q 	c #5D5424",
"r 	c #756929",
"s 	c #1F281B",
"t 	c #1D271A",
"u 	c #232B20",
"v 	c #242719",
"w 	c #383A20",
"x 	c #3C3D20",
"y 	c #4E4A23",
"z 	c #786B2A",
"A 	c #84762D",
"B 	c #574E21",
"C 	c #322D16",
"D 	c #4A421D",
"E 	c #746827",
"F 	c #1D231A",
"G 	c #232D1F",
"H 	c #1B2419",
"I 	c #252718",
"J 	c #373A20",
"K 	c #393B20",
"L 	c #7A6D29",
"M 	c #2D2916",
"N 	c #1E1D14",
"O 	c #141412",
"P 	c #1A1913",
"Q 	c #443E1C",
"R 	c #776A28",
"S 	c #171B14",
"T 	c #1E281A",
"U 	c #1C2419",
"V 	c #242618",
"W 	c #36391F",
"X 	c #625B26",
"Y 	c #2A2615",
"Z 	c #5F5521",
"` 	c #253021",
" .	c #263122",
"..	c #1B2318",
"+.	c #474522",
"@.	c #736829",
"#.	c #5D5320",
"$.	c #1E281B",
"%.	c #125D83",
"&.	c #1077A8",
"*.	c #403A1B",
"=.	c #524A20",
"-.	c #202A1C",
";.	c #202A1D",
">.	c #1B2217",
",.	c #5C5425",
"'.	c #514C23",
").	c #655C27",
"!.	c #7A6B30",
"~.	c #291A28",
"{.	c #17242B",
"].	c #1B3D4E",
"^.	c #193B4E",
"/.	c #172F3C",
"(.	c #1B4256",
"_.	c #3E4439",
":.	c #4E461F",
"<.	c #191E16",
"[.	c #1F291B",
"}.	c #192016",
"|.	c #161613",
"1.	c #2A2A19",
"2.	c #4B4722",
"3.	c #5F5625",
"4.	c #5E5525",
"5.	c #7A6B31",
"6.	c #2A1B29",
"7.	c #141616",
"8.	c #15191B",
"9.	c #151818",
"0.	c #282A1D",
"a.	c #31321C",
"b.	c #1A2018",
"c.	c #293426",
"d.	c #222C1E",
"e.	c #283324",
"f.	c #212A1E",
"g.	c #1D1C14",
"h.	c #2E2D19",
"i.	c #574C2B",
"j.	c #452443",
"k.	c #4F274C",
"l.	c #231A21",
"m.	c #2B1D28",
"n.	c #252E22",
"o.	c #242517",
"p.	c #35381F",
"q.	c #494622",
"r.	c #5D4840",
"s.	c #5E2E5B",
"t.	c #5C2D59",
"u.	c #702C6B",
"v.	c #8D2B85",
"w.	c #7E2C78",
"x.	c #4B2649",
"y.	c #242C1D",
"z.	c #5C5321",
"A.	c #8D7D2F",
"B.	c #766B2A",
"C.	c #73662C",
"D.	c #806947",
"E.	c #5F2E5C",
"F.	c #752E70",
"G.	c #932D8B",
"H.	c #832D7C",
"I.	c #4E274B",
"J.	c #151513",
"K.	c #908030",
"L.	c #7E712B",
"M.	c #524D23",
"N.	c #665E27",
"O.	c #918032",
"P.	c #8E7D36",
"Q.	c #817037",
"R.	c #655339",
"S.	c #78653B",
"T.	c #927D3F",
"U.	c #917D3C",
"V.	c #74662C",
"W.	c #151512",
"X.	c #191F17",
"Y.	c #605622",
"Z.	c #82742C",
"`.	c #605725",
" +	c #253023",
".+	c #252D1E",
"++	c #45401D",
"@+	c #595224",
"#+	c #2A3120",
"$+	c #333118",
"%+	c #3A3719",
"&+	c #333018",
"*+	c #2B2C19",
"=+	c #191E17",
"-+	c #232E21",
";+	c #283224",
">+	c #222A1F",
",+	c #161612",
"'+	c #151612",
")+	c #272919",
"!+	c #39381D",
"~+	c #212417",
"{+	c #283225",
"]+	c #21291E",
"^+	c #2C1C10",
"/+	c #44270E",
"(+	c #79471E",
"_+	c #935826",
":+	c #79481F",
"<+	c #AE692F",
"[+	c #AE682F",
"}+	c #C57A3D",
"|+	c #E6944F",
"1+	c #D48645",
"2+	c #AE672E",
"3+	c #8E5426",
"4+	c #263023",
"5+	c #272F20",
"6+	c #342713",
"7+	c #47280D",
"8+	c #7E4A1E",
"9+	c #995A27",
"0+	c #B56C30",
"a+	c #CB7E3E",
"b+	c #ED9851",
"c+	c #F09A53",
"d+	c #EE9952",
"e+	c #DA8947",
"f+	c #945828",
"g+	c #1D241B",
"h+	c #5D5323",
"i+	c #625524",
"j+	c #665625",
"k+	c #6B5826",
"l+	c #6F5B28",
"m+	c #B0793D",
"n+	c #DF8D4A",
"o+	c #A46930",
"p+	c #655625",
"q+	c #4A431E",
"r+	c #716628",
"s+	c #786D2A",
"t+	c #453A20",
"u+	c #53351F",
"v+	c #5C4421",
"w+	c #675726",
"x+	c #4A431F",
"y+	c #1B2119",
"z+	c #1F271C",
"A+	c #161714",
"B+	c #1C1E15",
"C+	c #5D5521",
"D+	c #786B28",
"E+	c #171813",
"F+	c #282818",
"G+	c #1E271C",
"H+	c #1D251A",
"I+	c #1C2118",
"J+	c #212B1E",
"K+	c #1E251B",
"L+	c #232014",
"M+	c #1B2418",
"N+	c #191F16",
"O+	c #222014",
"P+	c #2C2B18",
"Q+	c #1E291C",
"R+	c #6F421F",
"S+	c #925726",
"T+	c #382110",
"U+	c #181D16",
"V+	c #232D20",
"W+	c #2E2A1C",
"X+	c #492C15",
"Y+	c #532F11",
"Z+	c #46280D",
"`+	c #6F4320",
" @	c #8F582A",
".@	c #1D241A",
"+@	c #20261B",
"@@	c #311E10",
"#@	c #7A471D",
"$@	c #B0692F",
"%@	c #945928",
"&@	c #B1692F",
"*@	c #975A29",
"=@	c #332115",
"-@	c #21291B",
";@	c #312E1C",
">@	c #433621",
",@	c #3A3321",
"'@	c #1D2719",
"  . + + + + + + + + + @ # $ $ $ @ + + + % % % % % % % & + @ # $ $ @ + + + + + + ",
"+ + + + + + + + + + + + + $ $ $ @ + + + * = = = = = = - + + + + $ $ $ ; + + + + ",
"> > > , . + + + + + + + + ; @ @ ; + ' ' ) ! = = = ~ { ] ^ ' ' ' $ $ @ ' + + + + ",
"= = = / ( + + + + + + + + + + + + + ; $ $ $ = = _ : < < < [ } | $ @ + + + + + + ",
"= ) 1 2 ( + + + % 3 3 3 3 + + + + + ' ; @ $ 4 5 6 7 8 8 8 9 0 a b ^ 3 3 3 % + 3 ",
"= + ( ( ( + + + ^ c c c c + + + + + + + @ d e 7 f g h h h i j k l m c c c % + c ",
"' @ n ; , + + + ' ; ; 3 c - - + + + ^ - o p q r h h h h h h h i k l m 1 s 2 t ; ",
"$ $ $ ' + + + + ; $ $ 3 c c c + + + 3 u v w x y z h h A B C D z i E F G ( ( ( $ ",
"$ ; + + + + + + + + + @ $ c - $ $ $ $ H I J J K y z L M N O P Q z R S T $ $ $ $ ",
"$ ; + + + + + + + + + @ $ c - $ $ $ U V W J J J X R Y O O O O P Z R S T $ $ $ $ ",
"+ `  . . . .^ ' ' + + ; @ - 3 @ @ $ ..I J J J +.@.R O O O O O O #.R S $.@ @ @ @ ",
"= = = = = = * $ ; + + + + + + + ' U V W J J J X R Y O %.&.O %.&.*.=.S -.+ + + + ",
"= = = = = ` 1 T ;.+ + + + + + -./ >.I +.,.,.'.).!.~.{.].^.O /.(._.:.<.; + + + ; ",
"= = = = = ( ( ( [.+ + + + + ' ( ( }.|.1.2.3.4.@.5.6.7.8.9.O 7.8.0.a.b.+ + + + $ ",
"c.c.c.% + n [.; ' + + + + $.T n d.e.f.|.g.h.x y i.j.k.~.O O O O l.m.b.+ + / T   ",
"c c c ; $ $ @ + + + + + + ( ( $ & = n.o.p.W J q.4.r.s.t.u.v.v.v.w.x.b.+ + T ( ( ",
"c c c c c c c c ^ $ $ ' + + + + + y.z.8 A.B.J K 2.C.D.E.F.G.G.G.H.I.J.b.$ $ $ + ",
"c c c c c c c - % $ $ ' + + + + y.z.j h h K.L.,.M.N.O.P.Q.R.S.T.U.V.O W.X.$ $ + ",
"+ 3 c c c c - $ $ $ $ ' + + + + y.Y.h h h h Z.3.4.`.z h i j g h h R O O b.+ + + ",
"+ 3 c c c  +^ ' ' ' ' % ^ + + ^ .+++z h h A @+2.3.3.r h h h h h h R O O b.% ^ ^ ",
"+ 3 c c c $ ; c c c c c c + + c c #+$+%+%+&+*+K x x y z h h h h A =.O =+' - c c ",
"+ 3 c 3 ^ % ^ c c c c ^ -+; ; ^ 3 c ;+>+,+'+|.)+J J K !+C C C C M ~+;.+ 3 - c c ",
"+ 3 c % + c c c c c c ' $ $ $ + ^ c c {+]+^+/+(+_+:+<+[+}+|+1+2+3+=++ 3 c c c c ",
"+ % % 3 - c c c 4+; ; @ $ ' ' + + % 3 c 5+6+7+8+9+8+0+a+b+c+d+e+f+J.g+- c c c ' ",
"+ + + - c c c c ^ $ $ $ $ + + + + + 3 c 5+e h+i+j+i+k+l+m+c+n+o+p+q+F c c c c $ ",
"+ + + + + + % c c c c % + + + + + + + y.e r+j j j j j s+t+u+v+w+3.4.x+y++ - c c ",
"' + + + + % % c c - - % + + + + z+A+A+B+C+g h h h h h D+E+O F+2.3.3.:.b.% - c - ",
"( @ + + + c c c ^ $ $ ' + + + + G+O O W.#.h h h h h 9 !+O O |.1.2.3.:.b c c c $ ",
"( @ + + + 3 3 3 % @ @ ' + + + ' H+O O O #.h h h h h D+I+J+K+O |.g.L+N J.F 3 3 ; ",
"( @ + + + + + + + + + + + + + $ $.M+N+O O+C C C C C P+Q+$ , , K+R+2+S+/+T+y++ + ",
"( @ + + + + + + + + + + + + + $ $.( ( N+O O O O U+n Q+$ $ ' + V+W+X+Y+7+Z+T+`+ @",
"J+' + + + + + + + + + + + + + ' J+$.-.f..@O O =+; ; $ ; ' + + + V++@@@7+7+#@$@%@",
"+ + + + + + + + + + + + + + + + ' $ ; + V+, , ' + ' $ ; + + + + + V++@@@#@&@*@=@",
"c c c s   + + + + + + + + + + + + + + + + + + + $ $ $ ; + + + + + ' / -@;@>@,@, ",
"c c c $.( + + + + + + + + + + + + + + + + + + ' $ $ $ ; + + + + + ' $ $ $ ' + + ",
"c J+( ( ( + + + ^ c c c c c c + + + + + + + ( ( ( ( ( T $ $ $ $ $ $ $ ; + + + c ",
"3 .   2 T + + + % 3 3 - c c c % % ' + + , ; ( ( ( (   n $ @ @ @ @ @ @ ' + + + 3 ",
"$ $ $ ' + + + + ; $ $ 3 c c c c ^ $ ; + 2 ( ( ( ( '@$ $ $ ' + + + + + + + + + $ ",
"$ @ ; + + + + + ' ; ; + % c c c - % ' ; n T T T T $.$ $ $ ; ; ; + + + + + + + ; ",
"$ ; + + + + + + + + + @ $ c c c c c + $ $ $ $ $ $ $ $ $ $ $ $ $ + + + + + + + + "};
