/* XPM */
static char * _1_xpm[] = {
"40 40 145 2",
"  	c #1D2619",
". 	c #212B1D",
"+ 	c #232E20",
"@ 	c #202B1D",
"# 	c #1F2A1D",
"$ 	c #1F2A1C",
"% 	c #242F21",
"& 	c #242F20",
"* 	c #2A3626",
"= 	c #2C3828",
"- 	c #273224",
"; 	c #212C1E",
"> 	c #263223",
", 	c #222C1F",
"' 	c #222D1F",
") 	c #273223",
"! 	c #283424",
"~ 	c #2C3728",
"{ 	c #2B3627",
"] 	c #273324",
"^ 	c #253022",
"/ 	c #1F291C",
"( 	c #1C2518",
"_ 	c #283325",
": 	c #242E20",
"< 	c #1E271A",
"[ 	c #263123",
"} 	c #263122",
"| 	c #2A3526",
"1 	c #293426",
"2 	c #252716",
"3 	c #1E291B",
"4 	c #161713",
"5 	c #5E5525",
"6 	c #90802F",
"7 	c #262816",
"8 	c #252717",
"9 	c #273124",
"0 	c #1F281B",
"a 	c #1D271A",
"b 	c #171713",
"c 	c #5F5625",
"d 	c #918130",
"e 	c #928230",
"f 	c #908130",
"g 	c #232D1F",
"h 	c #181713",
"i 	c #605725",
"j 	c #171712",
"k 	c #1E281A",
"l 	c #1B1913",
"m 	c #1E1C13",
"n 	c #615725",
"o 	c #615825",
"p 	c #393B20",
"q 	c #383B20",
"r 	c #373920",
"s 	c #151612",
"t 	c #253021",
"u 	c #141412",
"v 	c #1D1B13",
"w 	c #373A20",
"x 	c #151512",
"y 	c #232D20",
"z 	c #1E281B",
"A 	c #181712",
"B 	c #1C1B13",
"C 	c #202A1C",
"D 	c #202A1D",
"E 	c #383A20",
"F 	c #242E21",
"G 	c #1F291B",
"H 	c #171612",
"I 	c #14191D",
"J 	c #0C97D4",
"K 	c #141616",
"L 	c #0C97D5",
"M 	c #141513",
"N 	c #1C3A49",
"O 	c #331E32",
"P 	c #161612",
"Q 	c #151413",
"R 	c #5F2E5C",
"S 	c #141512",
"T 	c #171515",
"U 	c #602E5D",
"V 	c #932D8B",
"W 	c #5F5626",
"X 	c #2A2B17",
"Y 	c #253023",
"Z 	c #2B2B17",
"` 	c #272916",
" .	c #232E21",
"..	c #605625",
"+.	c #263023",
"@.	c #1A1612",
"#.	c #1E1813",
"$.	c #151412",
"%.	c #1D1713",
"&.	c #B56C30",
"*.	c #B66D31",
"=.	c #F09A53",
"-.	c #B66D30",
";.	c #48290D",
">.	c #B46C30",
",.	c #49290E",
"'.	c #47280D",
").	c #293325",
"!.	c #1D1813",
"~.	c #EF9A53",
"{.	c #EF9953",
"].	c #482A0E",
"^.	c #B46B30",
"/.	c #492A0E",
"(.	c #47290D",
"_.	c #3B3B20",
":.	c #EE9952",
"<.	c #1A1913",
"[.	c #272816",
"}.	c #292A17",
"|.	c #90812F",
"1.	c #1B1A13",
"2.	c #212B1E",
"3.	c #171512",
"4.	c #241A13",
"5.	c #222D20",
"6.	c #161412",
"7.	c #46280D",
"8.	c #46270D",
"9.	c #151513",
"0.	c #B26A2F",
"a.	c #B36B2F",
"b.	c #201813",
"c.	c #261B13",
"d.	c #523012",
"e.	c #523013",
"f.	c #322216",
"g.	c #211A14",
"h.	c #B36B30",
"i.	c #B26B30",
"j.	c #46280E",
"k.	c #EC9752",
"l.	c #ED9852",
"m.	c #2B1F15",
"n.	c #1D2719",
"  . + + + + + + + + + @ # $ $ $ @ + + + % % % % % % % & + @ # $ $ @ + + + + + + ",
"+ + + + + + + + + + + + + $ $ $ @ + + + * = = = = = = - + + + + $ $ $ ; + + + + ",
"> > > , . + + + + + + + + ; @ @ ; + ' ' ) ! = = = ~ { ] ^ ' ' ' $ $ @ ' + + + + ",
"= = = / ( + + + + + + + + + + + + + ; $ $ $ = = = { _ _ _ ; $ $ $ @ + + + + + + ",
"= ) : < ( + + + % [ [ [ [ + + + + + ' ; @ $ ^ } | 1 _ _ _ ; $ $ % ^ [ [ [ % + [ ",
"= + ( ( ( + + + ^ _ _ _ _ + + + 2 2 2 2 2 2 2 @ _ _ _ _ _ ; $ $ _ _ _ _ _ % + _ ",
"' @ 3 ; , + + + ' ; ; [ _ - - 4 5 5 6 6 6 6 5 7 8 _ _ _ _ - [ 9 _ _ _ : 0 < a ; ",
"$ $ $ ' + + + + ; $ $ [ _ _ b c d d e e e e d f c 7 _ _ _ _ _ _ _ _ _ g ( ( ( $ ",
"$ ; + + + + + + + + + @ $ h c d e e e e e e e e i 5 j [ _ _ _ _ _ ^ ( k $ $ $ $ ",
"$ ; + + + + + + + + + @ $ l d e i m m n e e e o p q r s _ _ _ _ _ ^ ( k $ $ $ $ ",
"+ t } } } } ^ ' ' + + ; @ l e i h u u h v e n p w w w x - _ _ _ ^ y ( z @ @ @ @ ",
"= = = = = = * $ ; + + + + l d A u u u u u B d q w w w w s - _ _ ( ( ( C + + + + ",
"= = = = = t : k D + + + + l d u u u u u u u e c E w w w x % % F k z C ; + + + ; ",
"= = = = = ( ( ( G + + + + H c I J u K L M u l d p w w w w x $ $ $ @ + + + + + $ ",
"1 1 1 % + 3 G ; ' + + + + H c M N u u N u u O e p 5 c c q x ' ' ' ' + + + / k   ",
"_ _ _ ; $ $ @ + + + + + + x w u M u u M u u O e c c c q P u + + + + + + + k ( ( ",
"_ _ _ _ _ _ _ _ ^ $ $ ' + Q O u u u u u O R O c q w P S u y + + + + + ; $ $ $ + ",
"_ _ _ _ _ _ _ - % $ $ ' + T U V V V V R R R W c E w w w x + + + + + + ; $ $ $ + ",
"+ [ _ _ _ _ - $ $ $ $ ' u T U V V V V R R e c E w d e e X _ _ _ _ - + + + + + + ",
"+ [ _ _ _ Y ^ ' ' ' ' % u l e e c c e e e e q c e e e e e Z _ _ Y ^ ' ' + % ^ ^ ",
"+ [ _ _ _ $ ; _ _ _ _ _ u l e e e e e e e c c c e e e e e Z _ _ $ $ $ ; + - _ _ ",
"+ [ _ [ ^ % ^ _ _ _ _ ^ u l e e e e e e e E w w c d e e i `  .+ $ @ ; % [ - _ _ ",
"+ [ _ % + _ _ _ _ _ _ ' $ H ..e e e e e c w w w x 2 2 2 2 ; $ $ $ @ + [ _ _ _ _ ",
"+ % % [ - _ _ _ +.; ; @ $ ' u @.@.#.#.@.p p w p x $.u [ % + ' ' ' + - - _ _ _ ' ",
"+ + + - _ _ _ _ ^ $ $ $ $ + %.&.*.=.=.-.&.&.;.>.,.'.).^ + + + + + % _ _ _ _ _ $ ",
"+ + + + + + % _ _ _ _ % + + !.&.~.=.=.{.>.>.].^./.(.: + + + + + + + + + + - _ _ ",
"' + + + + % % _ _ - - % + x E _.&.{.:.c i i i i i i 7 + + + + + + + + + % - _ - ",
"( @ + + + _ _ _ ^ $ $ ' y <.c c c u x c e e e e e e X + + + + + + + + [ _ _ _ $ ",
"( @ + + + [ [ [ % @ @ ' j c c c c u u w d e e e e e o [.' + + + + + + ^ [ [ [ ; ",
"( @ + + + + + + + + + + j c c c 5 u u u r e e e e e e }.$ ' + + + + + + + + + + ",
"( @ + + + + + + + + + + H 5 5 5 u u S ( u |.d d d d d 1.u ' + + + + + + + + + + ",
"2.' + + + + + + + + + + u 3.3.3.u S C 2.S S S u u 4.4.4.u + + + + + + + + + + + ",
"+ + + + + + + + + + + 5.6.7.7.8.u $ ; + + + + 9.u 0.a.a.b.5.+ + + + + + + + + + ",
"_ _ _ 0   + + + + + + u c.c.c.3.u + + + + + + + u 8.d.e.f.$.+ + + ' $ $ $ ' + + ",
"_ _ _ z ( + + + + + + g.h.h.i.j.9.+ + + + + + ' x S k.l.l.m.+ + + ' $ $ $ ' + + ",
"_ 2.( ( ( + + + ^ _ _ _ _ _ _ + + + + + + + ( ( ( ( ( k $ $ $ $ $ $ $ ; + + + _ ",
"[ .   < k + + + % [ [ - _ _ _ % % ' + + , ; ( ( ( (   3 $ @ @ @ @ @ @ ' + + + [ ",
"$ $ $ ' + + + + ; $ $ [ _ _ _ _ ^ $ ; + < ( ( ( ( n.$ $ $ ' + + + + + + + + + $ ",
"$ @ ; + + + + + ' ; ; + % _ _ _ - % ' ; 3 k k k k z $ $ $ ; ; ; + + + + + + + ; ",
"$ ; + + + + + + + + + @ $ _ _ _ _ _ + $ $ $ $ $ $ $ $ $ $ $ $ $ + + + + + + + + "};
