/* XPM */
static char * 2_xpm[] = {
"40 40 262 2",
"  	c #1D2619",
". 	c #212B1D",
"+ 	c #232E20",
"@ 	c #202B1D",
"# 	c #1F2A1D",
"$ 	c #1F2A1C",
"% 	c #242F21",
"& 	c #242F20",
"* 	c #2A3626",
"= 	c #2C3828",
"- 	c #273224",
"; 	c #212C1E",
"> 	c #263223",
", 	c #222C1F",
"' 	c #222D1F",
") 	c #273223",
"! 	c #283424",
"~ 	c #2C3728",
"{ 	c #2B3627",
"] 	c #273324",
"^ 	c #253022",
"/ 	c #1F291C",
"( 	c #1C2518",
"_ 	c #283325",
": 	c #242E20",
"< 	c #1E271A",
"[ 	c #263123",
"} 	c #263122",
"| 	c #2A3526",
"1 	c #293426",
"2 	c #1E291B",
"3 	c #273124",
"4 	c #1F281B",
"5 	c #1D271A",
"6 	c #232D1F",
"7 	c #1E281A",
"8 	c #253021",
"9 	c #1F291B",
"0 	c #242E21",
"a 	c #232D20",
"b 	c #1E281B",
"c 	c #202A1C",
"d 	c #202A1D",
"e 	c #222C1E",
"f 	c #293425",
"g 	c #293525",
"h 	c #283425",
"i 	c #2B3727",
"j 	c #242B1B",
"k 	c #272E1E",
"l 	c #293121",
"m 	c #1C231A",
"n 	c #2E2F1B",
"o 	c #6D6225",
"p 	c #675D25",
"q 	c #293020",
"r 	c #23271A",
"s 	c #4B441E",
"t 	c #706426",
"u 	c #928230",
"v 	c #8E7F2F",
"w 	c #695F24",
"x 	c #45411F",
"y 	c #272E1F",
"z 	c #253023",
"A 	c #2D2F1C",
"B 	c #6D6125",
"C 	c #7E712B",
"D 	c #8D7D2F",
"E 	c #5C5424",
"F 	c #44401F",
"G 	c #21291E",
"H 	c #2E301E",
"I 	c #90802F",
"J 	c #7A6D2A",
"K 	c #6B5F24",
"L 	c #7F712C",
"M 	c #8F802F",
"N 	c #776B2A",
"O 	c #4E4A23",
"P 	c #4A4622",
"Q 	c #282B1A",
"R 	c #342F17",
"S 	c #908030",
"T 	c #786B2A",
"U 	c #423C1C",
"V 	c #141412",
"W 	c #1E1C14",
"X 	c #716426",
"Y 	c #4C4822",
"Z 	c #373A20",
"` 	c #34361E",
" .	c #181B16",
"..	c #232E21",
"+.	c #8D7D2E",
"@.	c #2B2715",
"#.	c #766A2A",
"$.	c #35381F",
"%.	c #263023",
"&.	c #8B7C2E",
"*.	c #3A3418",
"=.	c #8C7D2F",
"-.	c #2D2916",
";.	c #766A29",
">.	c #141718",
",.	c #182830",
"'.	c #151818",
").	c #2D2818",
"!.	c #716230",
"~.	c #3B3C20",
"{.	c #4A4621",
"].	c #1F271C",
"^.	c #1F1E14",
"/.	c #1A1518",
"(.	c #483832",
"_.	c #514B23",
":.	c #5F5625",
"<.	c #5D5425",
"[.	c #272919",
"}.	c #171A15",
"|.	c #191815",
"1.	c #332C28",
"2.	c #171515",
"3.	c #2C1B2A",
"4.	c #442341",
"5.	c #423231",
"6.	c #4D4822",
"7.	c #433D1D",
"8.	c #151713",
"9.	c #1D251B",
"0.	c #1F171D",
"a.	c #51264E",
"b.	c #6C2366",
"c.	c #682363",
"d.	c #472444",
"e.	c #4F284D",
"f.	c #5D3158",
"g.	c #4F442B",
"h.	c #5B5324",
"i.	c #292B1A",
"j.	c #171915",
"k.	c #1A2018",
"l.	c #241822",
"m.	c #662E62",
"n.	c #932D8B",
"o.	c #8E2D87",
"p.	c #5F2E5C",
"q.	c #63385A",
"r.	c #796246",
"s.	c #5D5525",
"t.	c #424221",
"u.	c #706629",
"v.	c #696027",
"w.	c #1F2116",
"x.	c #2D251D",
"y.	c #7E634E",
"z.	c #90606A",
"A.	c #7C4568",
"B.	c #7F4968",
"C.	c #906367",
"D.	c #7C634A",
"E.	c #7F6847",
"F.	c #534E23",
"G.	c #756A2A",
"H.	c #8D7E2F",
"I.	c #665C23",
"J.	c #22291A",
"K.	c #7C6F2B",
"L.	c #7F712B",
"M.	c #6B6228",
"N.	c #565024",
"O.	c #7F722C",
"P.	c #8F7F2F",
"Q.	c #746829",
"R.	c #242717",
"S.	c #212B1E",
"T.	c #1C2219",
"U.	c #393B20",
"V.	c #4C451E",
"W.	c #695E24",
"X.	c #45411E",
"Y.	c #232A1B",
"Z.	c #4B431E",
"`.	c #685D24",
" +	c #34371F",
".+	c #161612",
"++	c #1E1F14",
"@+	c #1E2115",
"#+	c #242A1B",
"$+	c #312015",
"%+	c #854F24",
"&+	c #8B5428",
"*+	c #B1713D",
"=+	c #AD6E3A",
"-+	c #855025",
";+	c #895729",
">+	c #835427",
",+	c #4E381B",
"'+	c #825326",
")+	c #352010",
"!+	c #322011",
"~+	c #1B2218",
"{+	c #412817",
"]+	c #B96F33",
"^+	c #D88846",
"/+	c #F09A53",
"(+	c #ED9851",
"_+	c #D28342",
":+	c #B56C30",
"<+	c #AC662D",
"[+	c #5F3715",
"}+	c #47280D",
"|+	c #432910",
"1+	c #21271D",
"2+	c #3C321C",
"3+	c #935E2D",
"4+	c #EB9751",
"5+	c #B67B3F",
"6+	c #92622B",
"7+	c #8C5F29",
"8+	c #5F481E",
"9+	c #8C5E29",
"0+	c #54441B",
"a+	c #4F401B",
"b+	c #181E15",
"c+	c #192016",
"d+	c #24291C",
"e+	c #47401E",
"f+	c #584D24",
"g+	c #96642D",
"h+	c #A96D3A",
"i+	c #554F24",
"j+	c #1C1E14",
"k+	c #382416",
"l+	c #7D4A22",
"m+	c #58371C",
"n+	c #A56C3B",
"o+	c #1C2319",
"p+	c #242114",
"q+	c #5A5223",
"r+	c #171813",
"s+	c #38361C",
"t+	c #232515",
"u+	c #4D2E19",
"v+	c #AA652D",
"w+	c #774923",
"x+	c #DF8F4D",
"y+	c #5D5424",
"z+	c #423E1D",
"A+	c #897A2D",
"B+	c #704624",
"C+	c #161914",
"D+	c #24281B",
"E+	c #484521",
"F+	c #484421",
"G+	c #464524",
"H+	c #20271D",
"I+	c #2F311C",
"J+	c #6C6327",
"K+	c #665D26",
"L+	c #1A2117",
"M+	c #4E3821",
"  . + + + + + + + + + @ # $ $ $ @ + + + % % % % % % % & + @ # $ $ @ + + + + + + ",
"+ + + + + + + + + + + + + $ $ $ @ + + + * = = = = = = - + + + + $ $ $ ; + + + + ",
"> > > , . + + + + + + + + ; @ @ ; + ' ' ) ! = = = ~ { ] ^ ' ' ' $ $ @ ' + + + + ",
"= = = / ( + + + + + + + + + + + + + ; $ $ $ = = = { _ _ _ ; $ $ $ @ + + + + + + ",
"= ) : < ( + + + % [ [ [ [ + + + + + ' ; @ $ ^ } | 1 _ _ _ ; $ $ % ^ [ [ [ % + [ ",
"= + ( ( ( + + + ^ _ _ _ _ + + + + + + + @ $ $ @ _ _ _ _ _ ; $ $ _ _ _ _ _ % + _ ",
"' @ 2 ; , + + + ' ; ; [ _ - - + + + ^ - - [ [ - _ _ _ _ _ - [ 3 _ _ _ : 4 < 5 ; ",
"$ $ $ ' + + + + ; $ $ [ _ _ _ + + + [ _ _ _ _ _ _ _ _ _ _ _ _ _ _ _ _ 6 ( ( ( $ ",
"$ ; + + + + + + + + + @ $ _ - $ $ $ $ $ [ _ _ _ _ [ + [ _ _ _ _ _ ^ ( 7 $ $ $ $ ",
"$ ; + + + + + + + + + @ $ _ - $ $ $ $ $ [ _ _ _ _ [ + [ _ _ _ _ _ ^ ( 7 $ $ $ $ ",
"+ 8 } } } } ^ ' ' + + ; @ - [ @ @ $ 9 2 0 ^ _ _ _ - % [ - _ _ _ ^ a ( b @ @ @ @ ",
"= = = = = = * $ ; + + + + + + + ' $ 5 ( ( ( _ _ _ _ _ ^ + - _ _ ( ( ( c + + + + ",
"= = = = = 8 : 7 d + + + + + + c / 7   ( 5 7 % % [ [ [ % + % % 0 7 b c ; + + + ; ",
"= = = = = ( ( ( 9 + + + + + ' ( ( ( ( ( 2 $ $ # + + + + + @ $ $ $ @ + + + + + $ ",
"1 1 1 % + 2 9 ; ' + + + + b 7 2 e ! ! ! f g g h + + + + + ' ' ' ' ' + + + / 7   ",
"_ _ _ ; $ $ @ + + + + + + ( ( $ & = = = = = = i + + + + + + + + + + + + + 7 ( ( ",
"_ _ _ _ _ _ _ _ ^ $ $ ' + + + + j j k l = = = ~ _ [ + + + + + + + + + ; $ $ $ + ",
"_ _ _ _ _ _ _ - % $ $ ' + ' m n o o o p q q l i _ [ + + + + + + + + + ; $ $ $ + ",
"+ [ _ _ _ _ - $ $ $ $ ' ' r s t u u u v o w x y _ [ + [ _ _ _ _ _ - + + + + + + ",
"+ [ _ _ _ z ^ ' ' ' ' + A B C u u u u u u D E F G - ^ - _ _ _ _ z ^ ' ' + % ^ ^ ",
"+ [ _ _ _ $ ; _ _ _ - H t I J K B L u u M N O P Q G _ _ _ _ _ _ $ $ $ ; + - _ _ ",
"+ [ _ [ ^ % ^ _ _ _ 3 R S T U V W s X M N Y Z Z `  ._ _ _ % ..+ $ @ ; % [ - _ _ ",
"+ [ _ % + _ _ _ _ _ 3 R +.U V V V V @.B #.Z Z Z $.Q G _ _ ; $ $ $ @ + [ _ _ _ _ ",
"+ % % [ - _ _ _ %.; d R &.V V V V V V *.=.Y Z Z Z `  .[ % + ' ' ' + - - _ _ _ ' ",
"+ + + - _ _ _ _ ^ $ b -.;.>.,.V '.,.V ).!.#.~.O O {.Q ].+ + + + + % _ _ _ _ _ $ ",
"+ + + + + + % _ _ _ 3 ^.{.>.,.V '.,.V /.(.&._.:.<.{.[.}.+ + + + + + + + + - _ _ ",
"' + + + + % % _ _ - %.|.1.V V V V 2.3.4.5.N O 6.7.[.8.9.+ + + + + + + + % - _ - ",
"( @ + + + _ _ _ ^ $ b 0.a.b.b.b.c.d.e.f.g.h.Z $.i.[.j.+ + + + + + + + [ _ _ _ $ ",
"( @ + + + [ [ [ % d k.l.m.n.n.n.o.p.q.r.s.Y t.u.u.v.w.' ' + + + + + + ^ [ [ [ ; ",
"( @ + + + + + + + , V x.y.z.A.B.C.D.E.=.O F.G.u u H.I.J.$ ' + + + + + + + + + + ",
"( @ + + + + + + + , V R u I K.L.u u v M.~.N.O.u u P.Q.R.$ ' + + + + + + + + + + ",
"S.' + + + + + + + ' T.-.C u u u u I #.Z Z U.V.o o W.X.Y.' + + + + + + + + + + + ",
"+ + + + + + + + + + ' r Z.K K K K `.Y Z Z  +.+++@+#+J.; + + + + + + + + + + + + ",
"_ _ _ 4   + + + + + + , $+%+&+*+=+-+;+>+,+'+)+!+~+$ $ ; + + + + + ' $ $ $ ' + + ",
"_ _ _ b ( + + + + + + , {+]+^+/+(+_+:+<+[+<+}+|+$ $ $ ; + + + + + ' $ $ $ ' + + ",
"_ S.( ( ( + + + ^ _ - 1+2+3+^+/+4+5+6+7+8+9+0+a+b+b+b+c+~+$ $ $ $ $ $ ; + + + _ ",
"[ .   < 7 + + + % ^ d+e+O f+g+*+h+i+K.K.K.K.K.;.U j+k+l+m+n+o+@ @ @ @ ' + + + [ ",
"$ $ $ ' + + + + ; b p+:.:.:.q+V r+s+G.u u u u M Q.t+u+v+w+x+}.+ + + + + + + + $ ",
"$ @ ; + + + + + ' d p+:.:.y+U V V r+z+u u u u u A+j+k+l+B+x+C+; + + + + + + + ; ",
"$ ; + + + + + + + ' D+E+F+G+H+H+H+H+I+J+J+J+J+J+K+L+L+L+M+n+~+$ + + + + + + + + "};
