/* XPM */
static char * 3_xpm[] = {
"40 40 288 2",
"  	c #1D2619",
". 	c #212B1D",
"+ 	c #232E20",
"@ 	c #202B1D",
"# 	c #1F2A1D",
"$ 	c #1F2A1C",
"% 	c #242F21",
"& 	c #242F20",
"* 	c #2A3626",
"= 	c #2C3828",
"- 	c #273224",
"; 	c #212C1E",
"> 	c #263223",
", 	c #222C1F",
"' 	c #222D1F",
") 	c #273223",
"! 	c #283424",
"~ 	c #2C3728",
"{ 	c #2B3627",
"] 	c #273324",
"^ 	c #253022",
"/ 	c #1F291C",
"( 	c #1C2518",
"_ 	c #283325",
": 	c #242E20",
"< 	c #1E271A",
"[ 	c #263123",
"} 	c #263122",
"| 	c #2A3526",
"1 	c #293426",
"2 	c #1E291B",
"3 	c #273124",
"4 	c #1F281B",
"5 	c #1D271A",
"6 	c #232D1F",
"7 	c #1E281A",
"8 	c #253021",
"9 	c #1F291B",
"0 	c #242E21",
"a 	c #232D20",
"b 	c #1E281B",
"c 	c #202A1C",
"d 	c #202A1D",
"e 	c #222C1E",
"f 	c #293425",
"g 	c #293525",
"h 	c #283425",
"i 	c #2B3727",
"j 	c #1D261A",
"k 	c #161814",
"l 	c #161914",
"m 	c #1A2018",
"n 	c #242D1F",
"o 	c #242717",
"p 	c #39371B",
"q 	c #6A5F26",
"r 	c #8A7A2D",
"s 	c #7F712B",
"t 	c #4E4720",
"u 	c #1D221A",
"v 	c #21291B",
"w 	c #3A371B",
"x 	c #6A6027",
"y 	c #8B7C2E",
"z 	c #8E7F2F",
"A 	c #928230",
"B 	c #82752C",
"C 	c #3B3C20",
"D 	c #34371F",
"E 	c #2F311C",
"F 	c #1D231A",
"G 	c #253023",
"H 	c #252E1F",
"I 	c #3A381B",
"J 	c #6C6127",
"K 	c #86782D",
"L 	c #534D23",
"M 	c #373A20",
"N 	c #363920",
"O 	c #222B1C",
"P 	c #554D1F",
"Q 	c #918130",
"R 	c #7D712B",
"S 	c #31331D",
"T 	c #151513",
"U 	c #1C221A",
"V 	c #212A1E",
"W 	c #35321A",
"X 	c #6E6328",
"Y 	c #88792E",
"Z 	c #675D27",
"` 	c #5D5423",
" .	c #3A3418",
"..	c #5C5220",
"+.	c #908030",
"@.	c #7B6F2B",
"#.	c #424121",
"$.	c #524C22",
"%.	c #1B2119",
"&.	c #232E21",
"*.	c #232C21",
"=.	c #51481D",
"-.	c #353017",
";.	c #272415",
">.	c #232014",
",.	c #141412",
"'.	c #222014",
").	c #544E23",
"!.	c #5C5425",
"~.	c #575024",
"{.	c #31341D",
"].	c #191D16",
"^.	c #544B1E",
"/.	c #7F712A",
"(.	c #393419",
"_.	c #726729",
":.	c #7E712B",
"<.	c #585124",
"[.	c #37381E",
"}.	c #191A14",
"|.	c #1A1E17",
"1.	c #87792D",
"2.	c #595022",
"3.	c #1A1913",
"4.	c #554B1E",
"5.	c #81742C",
"6.	c #5F5625",
"7.	c #544C22",
"8.	c #2B2F1E",
"9.	c #796C29",
"0.	c #29211E",
"a.	c #625331",
"b.	c #83752D",
"c.	c #3E3E21",
"d.	c #3B3D20",
"e.	c #3F3E20",
"f.	c #504921",
"g.	c #252817",
"h.	c #24291A",
"i.	c #20291D",
"j.	c #544A1E",
"k.	c #7E702A",
"l.	c #1F171E",
"m.	c #45372F",
"n.	c #645B26",
"o.	c #695F27",
"p.	c #8C7D2E",
"q.	c #7B6E29",
"r.	c #252919",
"s.	c #2D3120",
"t.	c #453E1B",
"u.	c #4D461F",
"v.	c #1E171D",
"w.	c #311D30",
"x.	c #42332F",
"y.	c #3C3D20",
"z.	c #575124",
"A.	c #90802F",
"B.	c #7C6F2A",
"C.	c #222B1F",
"D.	c #373219",
"E.	c #524A21",
"F.	c #321C30",
"G.	c #5A2C57",
"H.	c #6A4B50",
"I.	c #81732E",
"J.	c #5E5525",
"K.	c #5B5324",
"L.	c #6C6128",
"M.	c #82742B",
"N.	c #242818",
"O.	c #232A1C",
"P.	c #2A221F",
"Q.	c #2A1B29",
"R.	c #331C31",
"S.	c #6A2B65",
"T.	c #8B2B84",
"U.	c #832D7D",
"V.	c #6F4F53",
"W.	c #7F722C",
"X.	c #484522",
"Y.	c #615825",
"Z.	c #746829",
"`.	c #897A2E",
" +	c #605724",
".+	c #3B381A",
"++	c #242817",
"@+	c #1F281D",
"#+	c #341D32",
"$+	c #6B2C66",
"%+	c #8B2B83",
"&+	c #8F2D88",
"*+	c #893A7C",
"=+	c #735F3D",
"-+	c #8E7D36",
";+	c #87782D",
">+	c #554E24",
",+	c #3D3C1F",
"'+	c #3C3618",
")+	c #3D3A1A",
"!+	c #2D2F19",
"~+	c #202A1B",
"{+	c #212B1E",
"]+	c #232721",
"^+	c #41203E",
"/+	c #752E70",
"(+	c #932D8B",
"_+	c #73603B",
":+	c #151512",
"<+	c #171713",
"[+	c #1A1E16",
"}+	c #4F4621",
"|+	c #8E7B3B",
"1+	c #927B44",
"2+	c #917C3F",
"3+	c #38331B",
"4+	c #43260E",
"5+	c #3B2310",
"6+	c #191E17",
"7+	c #2A2E1D",
"8+	c #5D5320",
"9+	c #3B371A",
"0+	c #654824",
"a+	c #AB672E",
"b+	c #9B5D29",
"c+	c #47280D",
"d+	c #4C3514",
"e+	c #504820",
"f+	c #181D16",
"g+	c #6B4920",
"h+	c #BF793A",
"i+	c #E2914E",
"j+	c #D78948",
"k+	c #AE682F",
"l+	c #B56C30",
"m+	c #A5662D",
"n+	c #5C5223",
"o+	c #5D5323",
"p+	c #191E16",
"q+	c #2C3120",
"r+	c #84592D",
"s+	c #E4924F",
"t+	c #EB9650",
"u+	c #F09A53",
"v+	c #D78949",
"w+	c #63411A",
"x+	c #6F5927",
"y+	c #6B5826",
"z+	c #8D7E2F",
"A+	c #83752C",
"B+	c #5E391C",
"C+	c #C0763A",
"D+	c #E4914D",
"E+	c #AC6932",
"F+	c #583C21",
"G+	c #585023",
"H+	c #7E712A",
"I+	c #212215",
"J+	c #242D21",
"K+	c #3D3219",
"L+	c #735C29",
"M+	c #7E622E",
"N+	c #7A602C",
"O+	c #614E22",
"P+	c #161613",
"Q+	c #3A351A",
"R+	c #222415",
"S+	c #57341A",
"T+	c #B97136",
"U+	c #CC8346",
"V+	c #353018",
"W+	c #534B21",
"X+	c #3E381A",
"Y+	c #736729",
"Z+	c #161612",
"`+	c #5C371B",
" @	c #C4783A",
".@	c #ED9852",
"+@	c #2A3324",
"@@	c #333925",
"#@	c #2C3320",
"$@	c #32351E",
"%@	c #3E3E1F",
"&@	c #383A1E",
"*@	c #2C2C1C",
"=@	c #513B21",
"-@	c #624628",
";@	c #594328",
"  . + + + + + + + + + @ # $ $ $ @ + + + % % % % % % % & + @ # $ $ @ + + + + + + ",
"+ + + + + + + + + + + + + $ $ $ @ + + + * = = = = = = - + + + + $ $ $ ; + + + + ",
"> > > , . + + + + + + + + ; @ @ ; + ' ' ) ! = = = ~ { ] ^ ' ' ' $ $ @ ' + + + + ",
"= = = / ( + + + + + + + + + + + + + ; $ $ $ = = = { _ _ _ ; $ $ $ @ + + + + + + ",
"= ) : < ( + + + % [ [ [ [ + + + + + ' ; @ $ ^ } | 1 _ _ _ ; $ $ % ^ [ [ [ % + [ ",
"= + ( ( ( + + + ^ _ _ _ _ + + + + + + + @ $ $ @ _ _ _ _ _ ; $ $ _ _ _ _ _ % + _ ",
"' @ 2 ; , + + + ' ; ; [ _ - - + + + ^ - - [ [ - _ _ _ _ _ - [ 3 _ _ _ : 4 < 5 ; ",
"$ $ $ ' + + + + ; $ $ [ _ _ _ + + + [ _ _ _ _ _ _ _ _ _ _ _ _ _ _ _ _ 6 ( ( ( $ ",
"$ ; + + + + + + + + + @ $ _ - $ $ $ $ $ [ _ _ _ _ [ + [ _ _ _ _ _ ^ ( 7 $ $ $ $ ",
"$ ; + + + + + + + + + @ $ _ - $ $ $ $ $ [ _ _ _ _ [ + [ _ _ _ _ _ ^ ( 7 $ $ $ $ ",
"+ 8 } } } } ^ ' ' + + ; @ - [ @ @ $ 9 2 0 ^ _ _ _ - % [ - _ _ _ ^ a ( b @ @ @ @ ",
"= = = = = = * $ ; + + + + + + + ' $ 5 ( ( ( _ _ _ _ _ ^ + - _ _ ( ( ( c + + + + ",
"= = = = = 8 : 7 d + + + + + + c / 7   ( 5 7 % % [ [ [ % + % % 0 7 b c ; + + + ; ",
"= = = = = ( ( ( 9 + + + + + ' ( ( ( ( ( 2 $ $ # + + + + + @ $ $ $ @ + + + + + $ ",
"1 1 1 % + 2 9 ; ' + + + + b 7 2 e ! ! ! f g g h + + + + + ' ' ' ' ' + + + / 7   ",
"_ _ _ ; $ $ @ + + + + + + ( ( $ & = = = = = = i + + + + + + + + + + + + + 7 ( ( ",
"_ _ _ _ _ _ _ _ ^ $ j k l l l m + + h = = = = ~ _ [ + + + + + + + + + ; $ $ $ + ",
"_ _ _ _ _ _ _ - n o p q r r s t l l u i = = = i _ [ + + + + + + + + + ; $ $ $ + ",
"+ [ _ _ _ _ - v w x y z A A B C D D E l F = _ _ _ [ + [ _ _ _ _ _ - + + + + + + ",
"+ [ _ _ _ G H I J z A A A A K L M M N D E F _ _ _ - ^ - _ _ _ _ G ^ ' ' + % ^ ^ ",
"+ [ _ _ _ $ O P z A A A A A Q R M M M M S T U _ _ _ _ _ _ _ _ _ $ $ $ ; + - _ _ ",
"+ [ _ [ ^ V W X A A Y Z `  ...+.@.M M M #.$.E %._ _ _ _ _ % &.+ $ @ ; % [ - _ _ ",
"+ [ _ % + *.=.z Y ` -.;.>.,.'...K ).M #.!.~.{.]._ _ _ _ _ ; $ $ $ @ + [ _ _ _ _ ",
"+ % % [ - *.^.A /.>.,.,.,.,.,.(._.:.#.!.<.[.}.|.% [ _ [ % + ' ' ' + - - _ _ _ ' ",
"+ + + - _ *.^.1.2.,.,.,.,.,.,.3.4.+.5.6.7.}.,.|.+ ^ _ ^ + + + + + % _ _ _ _ _ $ ",
"+ + + + + a 8...9.,.,.,.,.,.,.,.0.a.b.c.d.D e.f.g.h.+ + + + + + + + + + + - _ _ ",
"' + + + + % i.j.k.,.,.,.,.,.,.,.l.m.n.).#.o.y p.q.r.+ + + + + + + + + + % - _ - ",
"( @ + + + _ - s.t.u.,.,.,.,.,.v.w.x.<.y.z.z A A A.B.h.+ + + + + + + + [ _ _ _ $ ",
"( @ + + + [ [ C.D.E.,.,.,.,.F.G.H.I.J.K.L.A A A A M.N.' ' + + + + + + ^ [ [ [ ; ",
"( @ + + + + + a O.P.Q.,.R.S.T.U.V.Q W.X.Y.Z.A `. +.+++$ $ ' + + + + + + + + + + ",
"( @ + + + + + + @+#+$+%+T.&+*+=+-+A ;+>+c.,+'+)+!+~+~+$ $ ' + + + + + + + + + + ",
"{+' + + + + + + a ]+^+/+(+*+_+z A A 1.~.M S :+<+[+; $ ; ' + + + + + + + + + + + ",
"+ + + + + + + + + @+}+|+1+2+z A A A 1.~.M N 3+4+5+6+$ ; + + + + + + + + + + + + ",
"_ _ _ 4   + + + + a 7+8+A A A A A M.9+y.0+a+b+c+d+e+f+; + + + + + ' $ $ $ ' + + ",
"_ _ _ b ( + + + + + a 7+8+A A M.g+h+i+j+k+l+m+n+o+J.e+p++ + + + + ' $ $ $ ' + + ",
"_ {+( ( ( + + + ^ _ _ - q+ . .r+s+t+u+v+w+x+y+L.z+z+A+e+f+$ $ $ $ $ $ ; + + + _ ",
"[ .   < 7 + + + % [ [ - - C.B+C+u+D+E+F+G+z+z+z A A Q H+I+k k f+@ @ @ ' + + + [ ",
"$ $ $ ' + + + + ; $ $ [ _ J+K+L+M+N+O+P+Q+Z.A A A A A A+R+S+T+U+|.+ + + + + + $ ",
"$ @ ; + + + + + ' ; ; + % J+V+6.6.6.W+,.3.X+Y+A A A A M.Z+`+ @.@U+6++ + + + + ; ",
"$ ; + + + + + + + + + @ $ - +@@@@@@@#@b b O $@%@%@%@%@&@b *@=@-@;@, + + + + + + "};
