/* XPM */
static char * 4_xpm[] = {
"40 40 267 2",
"  	c #1D2619",
". 	c #212B1D",
"+ 	c #232E20",
"@ 	c #202B1D",
"# 	c #1F2A1D",
"$ 	c #1F2A1C",
"% 	c #242F21",
"& 	c #242F20",
"* 	c #2A3626",
"= 	c #2C3828",
"- 	c #273224",
"; 	c #212C1E",
"> 	c #263223",
", 	c #222C1F",
"' 	c #222D1F",
") 	c #273223",
"! 	c #283424",
"~ 	c #2C3728",
"{ 	c #2B3627",
"] 	c #273324",
"^ 	c #253022",
"/ 	c #1F291C",
"( 	c #1C2518",
"_ 	c #283325",
": 	c #242E20",
"< 	c #1E271A",
"[ 	c #263123",
"} 	c #263122",
"| 	c #2A3526",
"1 	c #293426",
"2 	c #1E291B",
"3 	c #273124",
"4 	c #1F281B",
"5 	c #1D271A",
"6 	c #232D1F",
"7 	c #1E281A",
"8 	c #253021",
"9 	c #1F291B",
"0 	c #242E21",
"a 	c #232D20",
"b 	c #1E281B",
"c 	c #202A1C",
"d 	c #202A1D",
"e 	c #222C1E",
"f 	c #293425",
"g 	c #293525",
"h 	c #283425",
"i 	c #2B3727",
"j 	c #283324",
"k 	c #253023",
"l 	c #293526",
"m 	c #232E21",
"n 	c #263023",
"o 	c #1E291C",
"p 	c #191E16",
"q 	c #1B2018",
"r 	c #1C2219",
"s 	c #1D231B",
"t 	c #1F241B",
"u 	c #2D301C",
"v 	c #2C2E1B",
"w 	c #252A1B",
"x 	c #272C1D",
"y 	c #2E311C",
"z 	c #373A20",
"A 	c #3B3C20",
"B 	c #504A22",
"C 	c #242A1A",
"D 	c #242A1B",
"E 	c #33341E",
"F 	c #756928",
"G 	c #4D4720",
"H 	c #3D3E21",
"I 	c #5B5224",
"J 	c #242517",
"K 	c #211F14",
"L 	c #554E21",
"M 	c #786B28",
"N 	c #716527",
"O 	c #31331C",
"P 	c #7A6D29",
"Q 	c #918130",
"R 	c #7F712C",
"S 	c #514B23",
"T 	c #544E23",
"U 	c #5A5223",
"V 	c #181913",
"W 	c #3F3D1E",
"X 	c #84762D",
"Y 	c #928230",
"Z 	c #8F7F2F",
"` 	c #706527",
" .	c #23291A",
"..	c #292D1A",
"+.	c #574F22",
"@.	c #81732C",
"#.	c #7A6E2B",
"$.	c #776B2A",
"%.	c #5F5625",
"&.	c #5B5324",
"*.	c #33341D",
"=.	c #5D5525",
"-.	c #897A2D",
";.	c #242717",
">.	c #232E1F",
",.	c #2C2C17",
"'.	c #645A26",
").	c #90802F",
"!.	c #746729",
"~.	c #5E5421",
"{.	c #615622",
"].	c #776A2A",
"^.	c #82742C",
"/.	c #7D702B",
"(.	c #474522",
"_.	c #393C20",
":.	c #504B23",
"<.	c #796D2A",
"[.	c #8D7D2E",
"}.	c #5B5221",
"|.	c #1C1F15",
"1.	c #212B1E",
"2.	c #333218",
"3.	c #83752D",
"4.	c #746829",
"5.	c #5C5220",
"6.	c #3B361A",
"7.	c #141412",
"8.	c #1B1A13",
"9.	c #423B1B",
"0.	c #5F5423",
"a.	c #635530",
"b.	c #625926",
"c.	c #756929",
"d.	c #736728",
"e.	c #594F1F",
"f.	c #1B1C13",
"g.	c #151613",
"h.	c #1B2219",
"i.	c #283020",
"j.	c #564F22",
"k.	c #8D7E2F",
"l.	c #191517",
"m.	c #362232",
"n.	c #493D2D",
"o.	c #534D23",
"p.	c #5D5425",
"q.	c #464421",
"r.	c #2B2D1A",
"s.	c #1C1612",
"t.	c #3A220F",
"u.	c #372412",
"v.	c #2E3625",
"w.	c #908030",
"x.	c #716528",
"y.	c #161414",
"z.	c #251924",
"A.	c #423131",
"B.	c #7E712B",
"C.	c #36391F",
"D.	c #322F1A",
"E.	c #47280D",
"F.	c #43270F",
"G.	c #1A2017",
"H.	c #2A3424",
"I.	c #4C461E",
"J.	c #21171F",
"K.	c #57314F",
"L.	c #795F4C",
"M.	c #5E5525",
"N.	c #4C4022",
"O.	c #965D2A",
"P.	c #905524",
"Q.	c #482D10",
"R.	c #4D461F",
"S.	c #48421E",
"T.	c #1A1F17",
"U.	c #1C2319",
"V.	c #1D2518",
"W.	c #313018",
"X.	c #786B2A",
"Y.	c #31182E",
"Z.	c #7F2D79",
"`.	c #663F58",
" +	c #564323",
".+	c #B56C30",
"++	c #AC682E",
"@+	c #584B1F",
"#+	c #635925",
"$+	c #766927",
"%+	c #6E6225",
"&+	c #242819",
"*+	c #49411D",
"=+	c #726526",
"-+	c #1F171E",
";+	c #582754",
">+	c #8E3185",
",+	c #66533F",
"'+	c #8B7C2E",
")+	c #5E4623",
"!+	c #C88245",
"~+	c #D38545",
"{+	c #7C5728",
"]+	c #8E7F2F",
"^+	c #6E6226",
"/+	c #191F17",
"(+	c #1A2118",
"_+	c #282C1C",
":+	c #645922",
"<+	c #30182D",
"[+	c #842D7E",
"}+	c #8E3384",
"|+	c #665C26",
"1+	c #8C7C2E",
"2+	c #74562A",
"3+	c #F09A53",
"4+	c #E2914E",
"5+	c #39361B",
"6+	c #7A6D2A",
"7+	c #87792D",
"8+	c #1E1F14",
"9+	c #422917",
"0+	c #9C5F2D",
"a+	c #B4733F",
"b+	c #1C231A",
"c+	c #605621",
"d+	c #736727",
"e+	c #4A431E",
"f+	c #2C1629",
"g+	c #7A2674",
"h+	c #902D88",
"i+	c #773B6B",
"j+	c #7B692A",
"k+	c #A3682F",
"l+	c #C87C3F",
"m+	c #925D32",
"n+	c #1D1C13",
"o+	c #48411D",
"p+	c #1A1B13",
"q+	c #513119",
"r+	c #C17538",
"s+	c #E99651",
"t+	c #B4733D",
"u+	c #1E261B",
"v+	c #292D1D",
"w+	c #5E5826",
"x+	c #414122",
"y+	c #3F3E22",
"z+	c #1C2419",
"A+	c #292426",
"B+	c #62315D",
"C+	c #60315A",
"D+	c #47383E",
"E+	c #625B29",
"F+	c #5E5726",
"G+	c #4A4021",
"H+	c #764B25",
"I+	c #6F4723",
"J+	c #1B2319",
"K+	c #464321",
"L+	c #605825",
"M+	c #595223",
"N+	c #392F1E",
"O+	c #7F522B",
"P+	c #9D6839",
"Q+	c #916035",
"R+	c #1F281C",
"  . + + + + + + + + + @ # $ $ $ @ + + + % % % % % % % & + @ # $ $ @ + + + + + + ",
"+ + + + + + + + + + + + + $ $ $ @ + + + * = = = = = = - + + + + $ $ $ ; + + + + ",
"> > > , . + + + + + + + + ; @ @ ; + ' ' ) ! = = = ~ { ] ^ ' ' ' $ $ @ ' + + + + ",
"= = = / ( + + + + + + + + + + + + + ; $ $ $ = = = { _ _ _ ; $ $ $ @ + + + + + + ",
"= ) : < ( + + + % [ [ [ [ + + + + + ' ; @ $ ^ } | 1 _ _ _ ; $ $ % ^ [ [ [ % + [ ",
"= + ( ( ( + + + ^ _ _ _ _ + + + + + + + @ $ $ @ _ _ _ _ _ ; $ $ _ _ _ _ _ % + _ ",
"' @ 2 ; , + + + ' ; ; [ _ - - + + + ^ - - [ [ - _ _ _ _ _ - [ 3 _ _ _ : 4 < 5 ; ",
"$ $ $ ' + + + + ; $ $ [ _ _ _ + + + [ _ _ _ _ _ _ _ _ _ _ _ _ _ _ _ _ 6 ( ( ( $ ",
"$ ; + + + + + + + + + @ $ _ - $ $ $ $ $ [ _ _ _ _ [ + [ _ _ _ _ _ ^ ( 7 $ $ $ $ ",
"$ ; + + + + + + + + + @ $ _ - $ $ $ $ $ [ _ _ _ _ [ + [ _ _ _ _ _ ^ ( 7 $ $ $ $ ",
"+ 8 } } } } ^ ' ' + + ; @ - [ @ @ $ 9 2 0 ^ _ _ _ - % [ - _ _ _ ^ a ( b @ @ @ @ ",
"= = = = = = * $ ; + + + + + + + ' $ 5 ( ( ( _ _ _ _ _ ^ + - _ _ ( ( ( c + + + + ",
"= = = = = 8 : 7 d + + + + + + c / 7   ( 5 7 % % [ [ [ % + % % 0 7 b c ; + + + ; ",
"= = = = = ( ( ( 9 + + + + + ' ( ( ( ( ( 2 $ $ # + + + + + @ $ $ $ @ + + + + + $ ",
"1 1 1 % + 2 9 ; ' + + + + b 7 2 e ! ! ! f g g h + + + + + ' ' ' ' ' + + + / 7   ",
"_ _ _ ; $ $ @ + + + + + + ( ( $ & = = = = = = i + + + + + + + + + + + + + 7 ( ( ",
"_ _ _ _ _ _ _ _ ^ $ $ ' + + + + + + h = = = = ~ _ [ + + + + + + + + + ; $ $ $ + ",
"_ _ _ _ _ _ _ - % $ $ ' + + + + + + j i = = = i _ [ + + + + + + + + + ; $ $ $ + ",
"+ [ _ _ _ _ - $ $ $ $ ' + + + + + + + + * = _ _ _ [ + [ _ _ _ _ _ - + + + + + + ",
"+ [ _ _ _ k ^ ' ' ' ' % ^ + + ^ ^ ^ ^ ^ h l _ _ _ - ^ - _ _ _ _ k ^ ' ' + % ^ ^ ",
"+ [ _ _ _ $ ; _ _ _ _ _ _ + + _ _ _ _ _ % + _ _ _ _ _ _ _ _ _ _ $ $ $ ; + - _ _ ",
"+ [ _ [ ^ % ^ _ _ _ _ ^ m ; ; ^ [ _ _ _ [ [ ^ [ _ _ _ _ _ % m + $ @ ; % [ - _ _ ",
"+ [ _ % + _ _ _ _ _ _ ' $ $ $ + ^ _ _ _ _ _ + % _ _ _ _ _ ; $ $ $ @ + [ _ _ _ _ ",
"+ % % [ - _ _ _ n ; ; @ $ ' ' + + % [ _ _ _ - - % [ _ [ % + ' ' ' + - - _ _ _ ' ",
"+ + + - _ _ _ _ ^ $ o p p q q r + + [ _ _ _ _ - + ^ _ ^ + + + + + % _ _ _ _ _ $ ",
"+ + + + + + % - s s t u u u u v r + + + + + + + + + + + + + + + + + + + + - _ _ ",
"' + + + + % w x u u y z z z A B v r C C C D + + + + + + + + + + + + + + % - _ - ",
"( @ + + + E F G z z z z z z H I J K L M M N D + $ @ + + + + + + + + + [ _ _ _ $ ",
"( @ + + O P Q R S z z z z A T U V W X Y Y Z `  .$ @ ' ' ' + + + + + + ^ [ [ [ ; ",
"( @ + ..+.Y Y Q @.#.#.#.$.T %.&.*.=.Y Y Y Y -.;.$ $ $ $ $ ' + + + + + + + + + + ",
"( @ >.,.'.Y Y Y ).!.~.{.].^./.(._.:.<.Y Y [.}.|.$ $ $ $ $ ' + + + + + + + + + + ",
"1.' >.2.3.Y ).4.5.6.7.8.9.0.a.:.z H b.c.d.e.f.g.h.; $ ; ' + + + + + + + + + + + ",
"+ + i.j.Y Y k.6.7.7.7.7.7.l.m.n.o.T %.p.q.r.s.t.u.' $ ; + + + + + + + + + + + + ",
"_ _ v.'.Y w.x.7.7.7.7.7.7.y.z.A.^.B.%.&.z C.D.E.F.p G.; + + + + + ' $ $ $ ' + + ",
"_ _ H.I.Y k.6.7.7.7.7.7.7.7.J.K.L.w.B.M.:.N.O.P.Q.R.S.T.U.+ + + + ' $ $ $ ' + + ",
"_ 1.V.W.X.[.7.7.7.7.7.7.7.7.Y.Z.`.Y w.B.&. +.+++@+%.#+$+%+p G.$ $ $ $ ; + + + _ ",
"[ .   &+*+).=+7.7.7.7.7.7.-+;+>+,+Y Y '+)+!+~+{+^.^.X Y ]+$+^+/+/+/+(+' + + + [ ",
"$ $ $ ' _+:+).=+7.7.7.7.7.<+[+}+|+Y Y 1+2+3+4+5+6+Y Y Y Y Y 7+8+9+0+a+b++ + + $ ",
"$ @ ; + a _+~.c+d+R.e+7.f+g+h+i+X Y Z j+k+l+m+n+o+6+Y Y Y Y 7+p+q+r+s+t+b++ + ; ",
"$ ; + + + a u+v+w+x+y+z+A+B+C+D+E+E+F+G+H+I+J+J+ .K+L+L+L+L+M+J+N+O+P+Q+R++ + + "};
