/* XPM */
static char * food_xpm[] = {
"40 40 188 2",
"  	c #1D2619",
". 	c #212B1D",
"+ 	c #222D1F",
"@ 	c #232E20",
"# 	c #202B1D",
"$ 	c #1F2A1D",
"% 	c #1F2A1C",
"& 	c #242F21",
"* 	c #242F20",
"= 	c #1E281A",
"- 	c #212C1E",
"; 	c #263122",
"> 	c #263223",
", 	c #2C3828",
"' 	c #2A3626",
") 	c #293525",
"! 	c #1F281B",
"~ 	c #222C1E",
"{ 	c #222D1E",
"] 	c #2B3727",
"^ 	c #293526",
"/ 	c #273324",
"( 	c #263123",
"_ 	c #2B3627",
": 	c #283324",
"< 	c #1C2518",
"[ 	c #212B1E",
"} 	c #293425",
"| 	c #283325",
"1 	c #2A3526",
"2 	c #273224",
"3 	c #1D2719",
"4 	c #1E271A",
"5 	c #263022",
"6 	c #253022",
"7 	c #1E291B",
"8 	c #232D20",
"9 	c #232D1F",
"0 	c #1E281B",
"a 	c #212C1D",
"b 	c #1F383B",
"c 	c #1E3B41",
"d 	c #1B383E",
"e 	c #1B3336",
"f 	c #23393A",
"g 	c #283428",
"h 	c #273223",
"i 	c #203F46",
"j 	c #19627C",
"k 	c #176885",
"l 	c #16789C",
"m 	c #156E8E",
"n 	c #166684",
"o 	c #12526D",
"p 	c #1E3139",
"q 	c #202E31",
"r 	c #222C1F",
"s 	c #1D271A",
"t 	c #1F291B",
"u 	c #195368",
"v 	c #1491BD",
"w 	c #158AB3",
"x 	c #177B9E",
"y 	c #0D4A68",
"z 	c #072343",
"A 	c #0C2441",
"B 	c #293426",
"C 	c #232E1F",
"D 	c #1A5468",
"E 	c #1582A8",
"F 	c #1588B1",
"G 	c #148FBB",
"H 	c #158CB6",
"I 	c #14779B",
"J 	c #09304E",
"K 	c #1B393F",
"L 	c #176682",
"M 	c #176784",
"N 	c #1589B2",
"O 	c #C1AAA1",
"P 	c #A1A2AB",
"Q 	c #167699",
"R 	c #092F4D",
"S 	c #14273A",
"T 	c #213E44",
"U 	c #176C8A",
"V 	c #C6AB9F",
"W 	c #A5A3AA",
"X 	c #167496",
"Y 	c #0A304F",
"Z 	c #082547",
"` 	c #13263B",
" .	c #1E4F5F",
"..	c #A7A3A9",
"+.	c #8B9BAD",
"@.	c #158AB4",
"#.	c #146485",
"$.	c #0F355E",
"%.	c #0D315B",
"&.	c #0F253E",
"*.	c #1D2B2F",
"=.	c #222E26",
"-.	c #232E21",
";.	c #176D8C",
">.	c #167FA5",
",.	c #839CB2",
"'.	c #939FAE",
").	c #1588B0",
"!.	c #177292",
"~.	c #114B6F",
"{.	c #0E325D",
"].	c #0E315C",
"^.	c #0A294E",
"/.	c #167192",
"(.	c #B0A5A7",
"_.	c #1585AD",
":.	c #11476A",
"<.	c #0C2E57",
"[.	c #283326",
"}.	c #5B788B",
"|.	c #BCA8A3",
"1.	c #819CB2",
"2.	c #4193BB",
"3.	c #4994BA",
"4.	c #1482A9",
"5.	c #155972",
"6.	c #104064",
"7.	c #29375C",
"8.	c #6E5047",
"9.	c #4D322B",
"0.	c #373327",
"a.	c #202A1C",
"b.	c #907164",
"c.	c #6898B6",
"d.	c #148EB9",
"e.	c #14698D",
"f.	c #79594F",
"g.	c #7F5C4D",
"h.	c #745345",
"i.	c #513327",
"j.	c #3A3326",
"k.	c #8C6C5E",
"l.	c #B69A8E",
"m.	c #BFA498",
"n.	c #8A9DB0",
"o.	c #6F99B5",
"p.	c #5C8BAA",
"q.	c #566E84",
"r.	c #464159",
"s.	c #7B5A4E",
"t.	c #7E5B4C",
"u.	c #6C4C3E",
"v.	c #393225",
"w.	c #684F40",
"x.	c #9A7B6F",
"y.	c #AA8D81",
"z.	c #947466",
"A.	c #86685E",
"B.	c #5F4849",
"C.	c #6C4C40",
"D.	c #6A4A3D",
"E.	c #4D3327",
"F.	c #423326",
"G.	c #303022",
"H.	c #423A2D",
"I.	c #694E4A",
"J.	c #483226",
"K.	c #2A3022",
"L.	c #3E382B",
"M.	c #745547",
"N.	c #9F7F72",
"O.	c #846B65",
"P.	c #1B2A31",
"Q.	c #2D2F22",
"R.	c #2E2F21",
"S.	c #2B2F21",
"T.	c #705344",
"U.	c #7D5B4C",
"V.	c #A48477",
"W.	c #896F69",
"X.	c #092342",
"Y.	c #1E2B2D",
"Z.	c #8A7064",
"`.	c #826A5E",
" +	c #6D5A4F",
".+	c #252F22",
"++	c #242E21",
"@+	c #1F291C",
"  . + @ @ @ @ @ @ @ @ # $ % % % # @ @ @ & & & & & & & * @ # $ % % # @ @ @ @ @ @ ",
"@ % = @ @ @ @ @ @ @ @ @ - # % % % + @ @ & ; ; ; ; ; ; & @ # # # % - + @ @ @ @ @ ",
"> & @ @ @ @ @ @ @ @ @ @ @ @ % % % + @ @ > , , , , , , > @ @ @ - % % % @ @ @ @ @ ",
", ' ) ) > ! ~ @ @ @ @ @ @ @ + + + @ @ # { & ' , , ] ^ / ( # # # % - + @ @ @ @ @ ",
", _ , , : < [ @ @ @ @ @ @ @ @ @ @ @ @ % % % } , , ] | | | % % % % + @ @ @ @ @ ( ",
", 1 , < < < [ @ @ & | | | | @ @ @ @ @ @ + % % % | | | | | % % @ | | | | ( @ 2 | ",
"+ 2 ^   3 4 - @ @ & ( ( | | & & @ @ @ & @ - - - | | | | | - - & | | | 5 & - 6 - ",
"% % % % # @ @ @ @ + % % ( | | ( @ @ @ | | | | | | | | | | | | | | | | < < < 7 % ",
"% # % + + @ @ @ @ @ + + 8 @ | 6 - - - @ 6 | | | | 2 6 2 | | | | | 9 [ 0 0 0 % % ",
"% # % @ @ @ @ @ @ @ @ @ # % | 6 % % % % + | | | | 2 @ ( | | | | | ! < % % % % % ",
"@ a % @ @ @ @ @ @ @ @ @ # % | 6 % % % % + | | | | 2 @ ( | | | | | ! < % % % % # ",
", , , , , , , , % # @ @ @ @ @ @ @ b c d e e f g | | | 6 @ | | @ < < < @ @ @ @ @ ",
", , , , , , } h 0 % @ @ @ @ @ + i j k l m n o p q ( ( & @ 6 6 r s 0 t @ @ @ + - ",
", , , , , , ~ < < 4 @ @ @ @ @ # u k k v w x y z A @ @ @ @ % % % % + @ @ @ @ # % ",
"B B B B / C # 7 - r @ @ @ @ 4 0 D E F v G H I J A @ @ @ @ + + + + @ @ @ - 4 3   ",
"| | | | ( % % % @ @ @ @ @ @ K L M N v O P v Q R z S @ @ @ @ @ @ @ @ @ @ . < < < ",
"| | | | | | | | | ( % % + @ T k U w v V W v X Y Z ` @ @ @ @ @ @ @ @ @ % % % + @ ",
"| 2 ( | | | | | 6 & % % + @  .k E v v ..+.@.#.$.%.&.*.=.6 6 6 6 6 @ @ # # # + @ ",
"@ & @ | | | | | % % % % + -.;.>.w ,.'.v ).!.~.{.].^.z q | | | | | & @ @ @ @ @ @ ",
"@ & @ | | | & + ( ( ( ( ( 2 /.v v (.V v _.k :.{.{.<.z q | | | ( + - # @ & 2 2 6 ",
"@ & @ | | | + % | | | | | [.}.|.1.2.3.v 4.5.6.{.7.8.9.0.| | | & % % % @ 6 | | | ",
"@ & @ | 2 @ ( | | | | | - a.b.V V c.v d.e.{.{.f.g.h.i.j.| % % % % + @ | | | | | ",
"@ & @ 2 ( & 2 | | 2 ( ( # a.k.l.m.n.o.p.q.r.r.s.t.u.i.v.2 # # # # & & | | | ( | ",
"@ @ @ @ 6 | | | | ( % % % a.w.g.x.y.y.z.A.B.B.C.D.E.F.G.@ @ @ @ @ 2 | | | | - + ",
"@ @ @ @ & 6 6 6 | 2 6 6 + + H.g.g.g.g.g.I.z z 9.i.J.6 & @ @ @ @ @ & 6 6 ( | ( % ",
"@ @ @ @ @ @ @ @ | | | | & @ K.L.L.M.g.N.O.z P.Q.R.S.@ @ @ @ @ @ @ @ @ @ 6 | | | ",
"+ = < @ @ @ ( | | ( % % + @ @ @ @ T.U.V.W.X.Y.@ % # @ @ @ @ @ @ @ @ @ | | | - 2 ",
"< 3 < @ @ @ ( 2 2 6 # # + @ @ @ + r ~ V.Z.+ + + % # + + + @ @ @ @ @ @ 2 2 2 + % ",
"< 3 < @ @ @ @ @ @ @ @ @ @ @ @ + %   < `. +% % % % % % % % @ @ @ @ @ @ @ @ @ @ - ",
"< 3 < @ @ @ @ @ @ @ @ @ @ @ @ + %   < < 3 % % % % % % % % @ @ @ @ @ @ @ @ @ @ @ ",
"< - ~ @ @ @ @ @ @ @ @ @ @ @ @ @ + % 7 ~ + + + + + - % - + @ @ @ @ @ @ @ @ @ @ @ ",
"[ @ @ @ @ @ @ @ @ @ @ @ @ @ @ @ @ # % @ @ @ @ @ @ + % + @ @ @ @ @ @ @ @ @ @ @ @ ",
"@ 2 | | .+< [ @ @ @ @ @ @ @ @ @ @ @ @ @ @ @ @ @ % % % + @ @ @ @ @ # % % - @ @ @ ",
"| | | ++r < [ @ @ @ 6 6 6 6 6 & @ @ @ @ @ @ - . 0 0 0 # + + + + + # % [ - @ & @ ",
"| | | < < < [ @ @ & | | | | | ( @ @ @ @ @ @ 0 < < < < 0 % % % % % % % @ @ @ 2 @ ",
"| r + 7 % - + @ @ @ + + 2 | | | 2 + # @ - =   < <   7 % % + + + + + + @ @ @ + | ",
"( a.% % # @ @ @ @ + % % ( | | | | - % @ [ < < < <   % % % @ @ @ @ @ @ @ @ @ # ( ",
"% % % @ @ @ @ @ @ @ @ @ # % | | | | | % % % % % % % % % % % % - @ @ @ @ @ @ @ % ",
"% $ # @ @ @ @ @ @ + + @ - + | | | 2 ( # % t t t t @+% % % # # - @ @ @ @ @ @ @ - ",
"% - @ @ @ @ @ @ @ @ @ # % | | | | | @ % % % % % % % % % % % % % @ @ @ @ @ @ @ @ "};
