/* XPM */
static char * trunk_food_open_xpm[] = {
"40 40 400 2",
"  	c #1D2619",
". 	c #1F291B",
"+ 	c #232E20",
"@ 	c #212C1E",
"# 	c #1F2A1C",
"$ 	c #202B1D",
"% 	c #242F20",
"& 	c #242F21",
"* 	c #293526",
"= 	c #2C3828",
"- 	c #273324",
"; 	c #263223",
"> 	c #212B1E",
", 	c #222D1F",
"' 	c #283424",
") 	c #2B3627",
"! 	c #283324",
"~ 	c #253022",
"{ 	c #242E20",
"] 	c #1C2518",
"^ 	c #2B3727",
"/ 	c #283325",
"( 	c #1F291C",
"_ 	c #263123",
": 	c #253021",
"< 	c #253122",
"[ 	c #2A3526",
"} 	c #202A1D",
"| 	c #222D1E",
"1 	c #212C1D",
"2 	c #1E291B",
"3 	c #273224",
"4 	c #232D20",
"5 	c #1E281B",
"6 	c #1E271A",
"7 	c #1D271A",
"8 	c #161814",
"9 	c #151613",
"0 	c #181E16",
"a 	c #1D221A",
"b 	c #151713",
"c 	c #171915",
"d 	c #222C1F",
"e 	c #1E282C",
"f 	c #1F2A30",
"g 	c #1E282D",
"h 	c #1D2421",
"i 	c #222D20",
"j 	c #253023",
"k 	c #273124",
"l 	c #223029",
"m 	c #273937",
"n 	c #2B3B37",
"o 	c #283428",
"p 	c #252F22",
"q 	c #1D231D",
"r 	c #1B2326",
"s 	c #1E2A2F",
"t 	c #1F2B2F",
"u 	c #29352A",
"v 	c #242E21",
"w 	c #1E281A",
"x 	c #171A15",
"y 	c #4C7486",
"z 	c #567C8E",
"A 	c #527686",
"B 	c #384E58",
"C 	c #222C30",
"D 	c #1E262A",
"E 	c #233037",
"F 	c #293D47",
"G 	c #2C404A",
"H 	c #416270",
"I 	c #558398",
"J 	c #548296",
"K 	c #517B8E",
"L 	c #334D59",
"M 	c #293C45",
"N 	c #1E272B",
"O 	c #2C3B41",
"P 	c #476572",
"Q 	c #567B8C",
"R 	c #537B8D",
"S 	c #30444C",
"T 	c #171A14",
"U 	c #181B16",
"V 	c #3F4C52",
"W 	c #463F36",
"X 	c #443E37",
"Y 	c #35444A",
"Z 	c #30414A",
"` 	c #2F4149",
" .	c #3A5561",
"..	c #476C7D",
"+.	c #476C7C",
"@.	c #426270",
"#.	c #2F424B",
"$.	c #1F2729",
"%.	c #3E5A67",
"&.	c #466B7B",
"*.	c #30434B",
"=.	c #31444C",
"-.	c #3E4140",
";.	c #473D32",
">.	c #434847",
",.	c #292F31",
"'.	c #1A1E17",
").	c #4A3A2C",
"!.	c #201D18",
"~.	c #1A1815",
"{.	c #191A19",
"].	c #181B1A",
"^.	c #191E1E",
"/.	c #1B2122",
"(.	c #202A2D",
"_.	c #39545F",
":.	c #3C5966",
"<.	c #2A3A40",
"[.	c #486C7C",
"}.	c #2B3F47",
"|.	c #191917",
"1.	c #1B1814",
"2.	c #372E23",
"3.	c #2E261E",
"4.	c #4B3927",
"5.	c #1B1915",
"6.	c #141412",
"7.	c #181B1B",
"8.	c #534245",
"9.	c #835451",
"0.	c #73443C",
"a.	c #6B565A",
"b.	c #633930",
"c.	c #201612",
"d.	c #362B1F",
"e.	c #2F251C",
"f.	c #181C16",
"g.	c #411F13",
"h.	c #913C17",
"i.	c #B54F20",
"j.	c #C75C2A",
"k.	c #B75121",
"l.	c #732F15",
"m.	c #411913",
"n.	c #191E17",
"o.	c #293426",
"p.	c #4C2213",
"q.	c #B24E1F",
"r.	c #D5642F",
"s.	c #DA6731",
"t.	c #D7652F",
"u.	c #BB5120",
"v.	c #561F14",
"w.	c #1F281B",
"x.	c #161914",
"y.	c #2F1912",
"z.	c #9E4115",
"A.	c #B55020",
"B.	c #D28870",
"C.	c #C7A89B",
"D.	c #D48063",
"E.	c #AF4C1D",
"F.	c #531E13",
"G.	c #451813",
"H.	c #191C16",
"I.	c #4A3827",
"J.	c #382C20",
"K.	c #352A1F",
"L.	c #373735",
"M.	c #3B505A",
"N.	c #34454D",
"O.	c #2E2A26",
"P.	c #34291F",
"Q.	c #4E2E1E",
"R.	c #AE4B1C",
"S.	c #D2886F",
"T.	c #D37F62",
"U.	c #93421C",
"V.	c #672016",
"W.	c #481A14",
"X.	c #36291E",
"Y.	c #31271E",
"Z.	c #2F373B",
"`.	c #39525D",
" +	c #394447",
".+	c #352D24",
"++	c #433324",
"@+	c #2E251C",
"#+	c #32281D",
"$+	c #352A1E",
"%+	c #3B4041",
"&+	c #486674",
"*+	c #3F5863",
"=+	c #312E2B",
"-+	c #34291E",
";+	c #A24316",
">+	c #D96D3F",
",+	c #D87148",
"'+	c #C65824",
")+	c #7C2D17",
"!+	c #651E16",
"~+	c #4F1A14",
"{+	c #461D15",
"]+	c #32271D",
"^+	c #36444B",
"/+	c #486979",
"(+	c #41535A",
"_+	c #372F26",
":+	c #35291E",
"<+	c #221D17",
"[+	c #493421",
"}+	c #42301F",
"|+	c #412F1F",
"1+	c #42403D",
"2+	c #46606B",
"3+	c #40545D",
"4+	c #3B332B",
"5+	c #402F1F",
"6+	c #A54821",
"7+	c #D57D5E",
"8+	c #D67A58",
"9+	c #D3876D",
"0+	c #B04E20",
"a+	c #712716",
"b+	c #6C392E",
"c+	c #4A261C",
"d+	c #3D2E1F",
"e+	c #3B4448",
"f+	c #456370",
"g+	c #435054",
"h+	c #413326",
"i+	c #473321",
"j+	c #2D2319",
"k+	c #654529",
"l+	c #3F2E1E",
"m+	c #3A2B1C",
"n+	c #38332D",
"o+	c #33454B",
"p+	c #303D41",
"q+	c #332B22",
"r+	c #392A1C",
"s+	c #975843",
"t+	c #C8A598",
"u+	c #D4632D",
"v+	c #99421D",
"w+	c #682116",
"x+	c #714035",
"y+	c #7D5A4B",
"z+	c #4D3225",
"A+	c #37291C",
"B+	c #303434",
"C+	c #32464E",
"D+	c #363C3C",
"E+	c #3A2D20",
"F+	c #543A24",
"G+	c #3C2C1D",
"H+	c #191D16",
"I+	c #1E1B15",
"J+	c #825F51",
"K+	c #AA8E82",
"L+	c #C9A496",
"M+	c #C88872",
"N+	c #B7755E",
"O+	c #8C5848",
"P+	c #75493C",
"Q+	c #7E5B4C",
"R+	c #67473A",
"S+	c #4A2F24",
"T+	c #463220",
"U+	c #181C15",
"V+	c #181B15",
"W+	c #503A31",
"X+	c #856355",
"Y+	c #9A7C6F",
"Z+	c #947568",
"`+	c #8C6B5D",
" @	c #6F4D41",
".@	c #5E392E",
"+@	c #624236",
"@@	c #503226",
"#@	c #2D1F19",
"$@	c #191E16",
"%@	c #242320",
"&@	c #191D1D",
"*@	c #151614",
"=@	c #191614",
"-@	c #3D2D26",
";@	c #584035",
">@	c #8E6C5F",
",@	c #9E7E70",
"'@	c #6D4C43",
")@	c #2E1612",
"!@	c #281C17",
"~@	c #271C17",
"{@	c #171918",
"]@	c #1A1E1E",
"^@	c #483725",
"/@	c #464F50",
"(@	c #3C4A4E",
"_@	c #202525",
":@	c #1A1C1C",
"<@	c #1C2121",
"[@	c #1D2426",
"}@	c #4D3C36",
"|@	c #917062",
"1@	c #A48477",
"2@	c #705047",
"3@	c #2A2223",
"4@	c #1D2425",
"5@	c #2F383C",
"6@	c #3F4F53",
"7@	c #584C3D",
"8@	c #1B2019",
"9@	c #1B1C17",
"0@	c #5E4128",
"a@	c #6D4B2C",
"b@	c #684B34",
"c@	c #424D4F",
"d@	c #3A4D56",
"e@	c #3B4E56",
"f@	c #476674",
"g@	c #568195",
"h@	c #51798B",
"i@	c #787273",
"j@	c #A08275",
"k@	c #74818C",
"l@	c #557F92",
"m@	c #3A4D57",
"n@	c #3A4E56",
"o@	c #3B4F56",
"p@	c #564C41",
"q@	c #6D4B2D",
"r@	c #68472A",
"s@	c #382A1C",
"t@	c #271D1A",
"u@	c #32231F",
"v@	c #68462B",
"w@	c #67472A",
"x@	c #3F2E23",
"y@	c #3C2E23",
"z@	c #413324",
"A@	c #3F3123",
"B@	c #3B2C22",
"C@	c #3B2B22",
"D@	c #3C2F27",
"E@	c #3F4244",
"F@	c #404B50",
"G@	c #3C3633",
"H@	c #3D2E23",
"I@	c #392B21",
"J@	c #553B27",
"K@	c #6D4A2C",
"L@	c #4C3524",
"M@	c #211B18",
"N@	c #68482B",
"O@	c #493825",
"P@	c #4F3B29",
"Q@	c #523D2A",
"R@	c #483826",
"S@	c #594028",
"T@	c #473724",
"U@	c #473726",
"V@	c #493826",
"W@	c #473526",
"X@	c #453326",
"Y@	c #493726",
"Z@	c #433524",
"`@	c #583F28",
" #	c #473725",
".#	c #483726",
"+#	c #4A3926",
"@#	c #483626",
"##	c #463426",
"$#	c #473426",
"%#	c #4A3826",
"&#	c #443524",
"*#	c #4E3B29",
"=#	c #513D2A",
"-#	c #513C2A",
";#	c #232D1F",
">#	c #1F1B17",
",#	c #432F23",
"'#	c #432F22",
")#	c #29221A",
"!#	c #28211A",
"~#	c #29211A",
"{#	c #251F18",
"]#	c #36281E",
"^#	c #463124",
"/#	c #30241C",
"(#	c #1E1E18",
"_#	c #222C1E",
":#	c #2D251E",
"<#	c #25211B",
"[#	c #302620",
"}#	c #22211A",
"|#	c #202A1C",
"1#	c #252F21",
"2#	c #212B1D",
"3#	c #1D2719",
"  . + + + + + + + + + @ # # # # $ + + + % & & & & & & + + $ # # # $ + + + + + + ",
"+ + + + + + + + + + + + + $ # # $ + + + * = = = = = = - + + + + # # # @ + + + + ",
"; ; ; + > + + + + + + + + @ $ $ @ + , , ; ' = = = = ) ! ~ , , , # # $ , + + + + ",
"= = = { ] , + + + + + + + + + + + + @ # # # ^ = = ^ / / / @ # # # $ + + + + + + ",
"= * { ( ] , + + & _ _ _ _ & + + + + , @ $ # : < [ * / / / @ # # & ~ _ _ _ & + _ ",
"= ! ] ] ] , + + & / / / / & + + + + + + $ # # $ / / / / / @ # } / / / / / & + / ",
"| 1 2 $ , + + + + @ @ ~ / 3 3 + + + ~ 3 3 3 3 3 / / / / / 3 3 3 / / / 4 5 6 7 @ ",
"# # # @ + + 8 9 9 0 # & / / / + + + ~ / / / / / / / / / a b b c / / / d ] ] ] # ",
"# $ + + + , e f g h i } 2 j k 2 ( l m m n o k k k j , p q r s t u v ] w # # # # ",
"# $ + + + x y z A B C D D D E F G H I J K L F M N D D D O P Q R S T ] w # # # # ",
"% : _ _ _ U V W X Y Z ` ` `  ...+.@.#.$.%.+...&.*.` ` ` =.-.;.>.,.T ] 2 $ $ $ $ ",
"= = = = = '.).!.~.{.].].].].^./.(._.:.<.[.}././.].].].].].|.1.2.3.T ] } + + + + ",
"= = = = = '.4.5.6.6.6.6.6.6.6.6.7.8.9.0.a.b.c.6.6.6.6.6.6.6.6.d.e.f.} d + + + @ ",
"= = = = = '.4.5.6.6.6.6.6.6.6.6.g.h.i.j.k.l.m.6.6.6.6.6.6.6.6.d.e.n.+ + + + + # ",
"o.o.o.~ , x 4.5.6.6.6.6.6.6.6.6.p.q.r.s.t.u.v.6.6.6.6.6.6.6.6.d.e.n.+ + + w.7   ",
"/ / / + # x.4.5.6.6.6.6.6.6.6.y.z.A.B.C.D.E.F.G.6.6.6.6.6.6.6.d.e.n.+ + + 6 ] ] ",
"/ / / / / H.I.J.K.L.M.N.O.P.K.Q.R.s.S.C.T.U.V.W.X.Y.Z.`. +.+K.++@+n.+ @ # # # + ",
"3 3 / / / H.#+$+$+%+&+*+=+-+$+;+k.>+,+s.'+)+!+~+{+]+^+/+(+_+$+:+<+n.+ @ $ $ $ + ",
"+ ~ / / / H.[+}+|+1+2+3+4+5+|+6+7+8+9+s.0+a+!+b+c+d+e+f+g+h+|+i+j+n.+ + + + + + ",
"+ ~ / / / H.k+l+m+n+o+p+q+r+m+s+t+D.s.u+v+w+x+y+z+A+B+C+D+E+m+F+G+H+@ , + ~ ~ ~ ",
"+ ~ / / / H.k+I+6.6.6.6.6.6.6.J+K+L+M+N+O+P+Q+R+S+6.6.6.6.6.6.T+G+U+# @ + 3 / / ",
"+ ~ / _ ~ V+k+I+6.6.6.6.6.6.6.W+X+Y+Z+`+ @.@+@@@#@6.6.6.6.6.6.T+G+$@, & k / / / ",
"+ ~ / ~ + x k+%@&@*@6.6.6.6.6.=@-@;@>@,@'@)@!@~@6.6.6.6.6.{@]@^@G+n.+ _ / / / / ",
"+ + + _ / H.k+/@(@_@:@:@:@:@:@<@[@}@|@1@2@3@4@:@:@:@:@:@:@5@6@7@G+8@/ / / / / $ ",
"+ + + _ / 9@0@a@b@c@d@e@e@d@d@f@g@h@i@j@k@g@l@m@d@n@o@n@d@p@q@r@s@8@/ / / / / $ ",
"+ + + + + t@u@v@w@x@y@z@A@B@C@C@C@D@E@F@G@C@C@C@C@H@z@A@I@J@K@L@M@n.+ + + 3 / / ",
"> d + + + t@u@v@N@O@P@Q@Q@Q@Q@Q@Q@Q@Q@Q@Q@Q@Q@Q@Q@Q@Q@Q@R@S@K@L@M@n.+ & ~ 3 / ~ ",
"] 5 + + + t@u@v@N@O@P@Q@Q@Q@Q@Q@Q@Q@Q@Q@Q@Q@Q@Q@Q@Q@Q@Q@R@S@K@L@M@n.+ _ / / / # ",
"] 5 + + + t@u@v@N@T@U@V@V@V@W@X@X@X@X@X@X@X@X@X@Y@V@V@V@Z@`@K@L@M@n.+ & ~ ~ ~ @ ",
"] 5 + + + t@u@v@N@ #.#+#+#+#@#################$#%#+#+#+#&#`@K@L@M@n.+ + + + + + ",
"] 5 + + + t@u@v@N@O@*#=#=#=#-#-#-#-#-#-#-#-#-#-#-#=#=#=#.#S@K@L@M@n.+ + + + + + ",
";#+ + + + t@u@v@N@O@P@Q@Q@Q@Q@Q@Q@Q@Q@Q@Q@Q@Q@Q@Q@Q@Q@Q@R@S@K@L@M@n.+ + + + + + ",
"+ + + + + + >#,#'#)#!#~#~#~#~#~#~#~#~#~#~#~#~#~#~#~#~#~#{#]#^#/#(#+ + + + + + + ",
"/ / / _#] , f.:#:#9@x x x x x x x x x x x x x x x.x.x.x x <#[#}#+ , # # # , + + ",
"/ 3 p |#] , + + + ~ ~ ~ ~ ~ ~ + + + + + + + @ > 2 2 2 $ , , , , , @ # $ $ , + ~ ",
"/ 1#] ] ] , + + & / / / / / / + + + + + + +   ] ] ] ] w # # # # # # # @ + + + / ",
"+ _#w ( } , + + + + + _ / / / _ ~ @ , + 2#( ] ] ]   w 2 # @ @ @ @ @ @ , + + + + ",
"# # # @ + + + + , # # & / / / / _ # @ + 5 ] ] ] ] 3## # # , + + + + + + + + + # ",
"# $ , + + + + + + , , , @ 3 / / / _ & $ # 2 2 2 2 . # # # $ $ $ + + + + + + + , ",
"# $ + + + + + + + + + @ # k / / / / & # # # # # # # # # # # # # + + + + + + + + "};
