/* XPM */
static char * trunk_closed_xpm[] = {
"40 40 223 2",
"  	c #232E20",
". 	c #1F2A1C",
"+ 	c #202B1D",
"@ 	c #273324",
"# 	c #2C3828",
"$ 	c #253021",
"% 	c #253022",
"& 	c #222D1F",
"* 	c #212C1E",
"= 	c #263123",
"- 	c #2A3626",
"; 	c #2B3727",
"> 	c #2B3728",
", 	c #242F21",
"' 	c #232D1F",
") 	c #1C2518",
"! 	c #273223",
"~ 	c #293426",
"{ 	c #283325",
"] 	c #283424",
"^ 	c #212B1D",
"/ 	c #293525",
"( 	c #273224",
"_ 	c #283324",
": 	c #1D271A",
"< 	c #1E281B",
"[ 	c #1F291B",
"} 	c #242E21",
"| 	c #232D20",
"1 	c #263023",
"2 	c #242F22",
"3 	c #222C1F",
"4 	c #1D2619",
"5 	c #293425",
"6 	c #27271E",
"7 	c #26231B",
"8 	c #1E291B",
"9 	c #1F291C",
"0 	c #212B1E",
"a 	c #1E251C",
"b 	c #1E241B",
"c 	c #1D2719",
"d 	c #2A2B21",
"e 	c #6D482A",
"f 	c #764E2C",
"g 	c #2E271B",
"h 	c #1A2018",
"i 	c #1A1F17",
"j 	c #181E16",
"k 	c #181D15",
"l 	c #171B14",
"m 	c #1A1F18",
"n 	c #1D221A",
"o 	c #1B2018",
"p 	c #714B2A",
"q 	c #754D2B",
"r 	c #744D2B",
"s 	c #171C15",
"t 	c #1E271A",
"u 	c #423124",
"v 	c #845832",
"w 	c #8E5E34",
"x 	c #443221",
"y 	c #453424",
"z 	c #463424",
"A 	c #372C1F",
"B 	c #8A5B33",
"C 	c #8D5D34",
"D 	c #443323",
"E 	c #29241D",
"F 	c #4A3726",
"G 	c #855932",
"H 	c #4A3724",
"I 	c #513C2A",
"J 	c #67482B",
"K 	c #533D2A",
"L 	c #66472B",
"M 	c #523D2A",
"N 	c #563F2A",
"O 	c #63452B",
"P 	c #59402A",
"Q 	c #68482B",
"R 	c #403323",
"S 	c #8A5C33",
"T 	c #503B29",
"U 	c #161814",
"V 	c #26201A",
"W 	c #6E4B2C",
"X 	c #69482C",
"Y 	c #6A492C",
"Z 	c #6D4A2C",
"` 	c #57402A",
" .	c #261E19",
"..	c #5E432B",
"+.	c #28221C",
"@.	c #6C4A2C",
"#.	c #6B492C",
"$.	c #573F2A",
"%.	c #202A1D",
"&.	c #3D271C",
"*.	c #503C29",
"=.	c #30201B",
"-.	c #392C20",
";.	c #67472A",
">.	c #34211B",
",.	c #3C3022",
"'.	c #3D3122",
").	c #423424",
"!.	c #2B1C19",
"~.	c #6B492B",
"{.	c #6D4B2C",
"].	c #3B3021",
"^.	c #3B3632",
"/.	c #67492F",
"(.	c #352623",
"_.	c #3C3329",
":.	c #3D3429",
"<.	c #53463D",
"[.	c #42382E",
"}.	c #2C2323",
"|.	c #3E3B36",
"1.	c #151713",
"2.	c #537E92",
"3.	c #696463",
"4.	c #6C5648",
"5.	c #42535C",
"6.	c #3A505A",
"7.	c #3B505A",
"8.	c #59879D",
"9.	c #59889D",
"0.	c #59889E",
"a.	c #58879D",
"b.	c #58889E",
"c.	c #435F6C",
"d.	c #3A4F59",
"e.	c #3B535D",
"f.	c #69564A",
"g.	c #6C574B",
"h.	c #598AA0",
"i.	c #161813",
"j.	c #27201B",
"k.	c #4F7588",
"l.	c #5A8599",
"m.	c #5B8599",
"n.	c #3F5661",
"o.	c #392D27",
"p.	c #413323",
"q.	c #392A22",
"r.	c #382921",
"s.	c #394045",
"t.	c #3A4E59",
"u.	c #281818",
"v.	c #35444E",
"w.	c #3B4951",
"x.	c #372921",
"y.	c #3F3123",
"z.	c #3B2C22",
"A.	c #3B4B53",
"B.	c #598296",
"C.	c #548094",
"D.	c #31221E",
"E.	c #533C29",
"F.	c #4D3A28",
"G.	c #495C65",
"H.	c #4F7689",
"I.	c #2D2C31",
"J.	c #476879",
"K.	c #4E6C7A",
"L.	c #493827",
"M.	c #58402A",
"N.	c #32241F",
"O.	c #161914",
"P.	c #66462A",
"Q.	c #443423",
"R.	c #46545A",
"S.	c #507688",
"T.	c #456675",
"U.	c #4D7283",
"V.	c #4A616C",
"W.	c #171915",
"X.	c #28211C",
"Y.	c #4C3928",
"Z.	c #4C3A28",
"`.	c #4A3727",
" +	c #463526",
".+	c #3A2E21",
"++	c #44545D",
"@+	c #527A8D",
"#+	c #48606D",
"$+	c #443325",
"%+	c #3F3223",
"&+	c #453525",
"*+	c #443425",
"=+	c #402F24",
"-+	c #433325",
";+	c #3E3222",
">+	c #202A1C",
",+	c #25271D",
"'+	c #513825",
")+	c #573C27",
"!+	c #34291D",
"~+	c #3C2E20",
"{+	c #3D2E21",
"]+	c #30271C",
"^+	c #553B26",
"/+	c #573C26",
"(+	c #271E1A",
"_+	c #1D241A",
":+	c #1E271C",
"<+	c #29291F",
"[+	c #2B2A20",
"}+	c #1F251B",
"|+	c #1C241A",
"1+	c #1A2118",
"2+	c #1A2117",
"3+	c #191E15",
"4+	c #192017",
"5+	c #2A291F",
"6+	c #1D251B",
"7+	c #222C1E",
"8+	c #1E281A",
"9+	c #1F281B",
"0+	c #253023",
"                            . . . +       @ # # # # # # # $         . . . +     ",
"% % %   &                   + + + *     & = - ; # # # > ; % , & & & . . + +     ",
"# # # ' ) *                           & . . . ! # # # ~ { { { + . . . .         ",
"# - ] ^ ) *       , , , , ,           & + + . $ / - ; ~ { { { + . . & & , , , , ",
"# , ) ) ) *       { { { { {               * . . . % { { { { { + . . { { { { { ( ",
"_ ' : < [ &       % % % { { % %       , % ,       = { { { { {       { { { ( } | ",
". . . &           . . . { { { (       % { { { { { { { { { { { { { { { { { 1 ) ) ",
". + * &           * * * , 2 { ( * * * & , = { { { { { = = { { { { { { ( | 3 : : ",
". *                     . + { ( . . . . .   { { { { { ,   ( { { { { { ( ) 4 . . ",
". *                     . + { ( . . . . .   { { { { { ,   ( { { { { { ( ) 4 . . ",
"@ ] 5 5 5 5 5 6 7 |     * & % , * * . 8 : 9 0 % { { { ( = % % a b b 0 ^ ) c * * ",
"# # # # # # d e f g h h h h h h h i j k l l l m n n n n n o h p q r s ) ) t     ",
"# # # # # d u v w x y z z z z z z z z z z z z z z z z z z z A B w C D k 0 *     ",
"# # # # # E F G w H I J K L M N O P Q Q Q Q Q Q Q Q Q Q Q N R S w C T U         ",
"~ ~ ~ % & V F G w H I W X W X Y Z Y W W W W W W W W W W W ` R S w C T U       * ",
"{ { {   .  .F G w H I W W W W W W W W W W W W W W W W ..` K R S w C T U       * ",
"{ { { ( ( +.F G w H I W W W W W W W W W W W W W W W W @.#.$.R S w C T U   & %.. ",
"{ { { { { +.F G w H I W W W W W W W W W W W W W W W W W W ` R S w C T U   & . . ",
"  = { { { +.F G w &.*.W W W W W W W W W W W W W W W W W W ` =.B w C T U         ",
"  = { { { +.-.;.W >.,.'.M M M M M M M M M M M M M M M M ).'.!.~.W {.].U         ",
"  = { { { +.^./.W (._.:.<.<.<.<.<.<.<.<.<.<.<.<.<.<.<.<.[.:.}.~.W {.|.1.. +   % ",
"  = { { ( +.2.3.4.5.6.7.8.8.8.8.8.8.9.0.a.b.0.8.8.8.8.8.c.d.e.f.4.g.h.i.. + , % ",
"  = { %   j.k.l.m.n.o.p.p.q.q.q.q.r.s.t.u.v.w.x.q.q.q.y.p.z.A.B.m.l.C.U   , { { ",
"  % ( % , j.D.E.P R I M M M M M M F.G.H.I.J.K.L.M M M M M M R $.P M.N.O., % { { ",
"      = { +.D.P.W Q.I M M M M M M F.R.S.T.U.V.L.M M M M M M R ~.W Z N.W.{ { { { ",
"      % ( X.D.P.W Q.Y.Z.Z.Z.Z.Y.`. +.+++@+#+.+$+`.Y.Z.Z.Z.Z.%+~.W Z N.W.( ( ( ( ",
"          j.D.P.W Q.&+&+&+&+&+*+=+=+=+=+=+=+=+=+=+-+&+&+&+&+;+~.W Z N.U       % ",
"+ 3       j.D.P.W Q.I M M M M M M M M M M M M M M M M M M M R ~.W Z N.U     % = ",
") >+      j.D.P.W Q.I M M M M M M M M M M M M M M M M M M M R ~.W Z N.U   , { { ",
") >+      ,+j.'+)+!+~+{+{+{+{+{+{+{+{+{+{+{+{+{+{+{+{+{+{+{+]+^+)+/+(+_+  , = = ",
") >+        :+<+[+}+_+_+_+_+_+|+1+2+3+3+3+4+1+1+1+1+1+1+1+1+1+5+[+[+6+          ",
") >+                          & . 8 ) ) ) : . . . . . . . . .                   ",
"^ &                             & 0 < 9 ^ * & & & & & + . * &                   ",
"                                  & . *               + . &                     ",
"( ( ( 7+8+3                         & &           * + . . &             + + + * ",
"{ { { 0 ) *                                       + . . . &             . . . + ",
"{   9+4 ) *       ( ( ( ( ( ( =               %.: 4 4 4 4 . + + + + + + . + & ' ",
"{ 3 ) ) ) *       { { { { { { (               9 ) ) ) ) ) [ . . . . . . . +     ",
"+ . . * &         + + + { { { { { 0+. *   %.4 ) ) ) ) < . . . &                 ",
". . . &           . . . { { { { { = . *   %.) ) ) ) ) 8 . . .                   "};
