/* XPM */
static char * 3_xpm[] = {
"40 40 61 1",
" 	c #1D2619",
".	c #212B1D",
"+	c #232E20",
"@	c #202B1D",
"#	c #1F2A1D",
"$	c #1F2A1C",
"%	c #242F21",
"&	c #242F20",
"*	c #2A3626",
"=	c #2C3828",
"-	c #273224",
";	c #212C1E",
">	c #263223",
",	c #222C1F",
"'	c #222D1F",
")	c #273223",
"!	c #283424",
"~	c #2C3728",
"{	c #2B3627",
"]	c #273324",
"^	c #253022",
"/	c #1F291C",
"(	c #1C2518",
"_	c #283325",
":	c #242E20",
"<	c #1E271A",
"[	c #263123",
"}	c #263122",
"|	c #2A3526",
"1	c #293426",
"2	c #1E291B",
"3	c #252716",
"4	c #273124",
"5	c #1F281B",
"6	c #1D271A",
"7	c #5F5625",
"8	c #928230",
"9	c #141412",
"0	c #232D1F",
"a	c #1E281A",
"b	c #253021",
"c	c #373A20",
"d	c #232D20",
"e	c #1E281B",
"f	c #202A1C",
"g	c #202A1D",
"h	c #242E21",
"i	c #1F291B",
"j	c #331E32",
"k	c #0C98D6",
"l	c #1C3845",
"m	c #5F2E5C",
"n	c #932D8B",
"o	c #253023",
"p	c #232E21",
"q	c #263023",
"r	c #47280D",
"s	c #B56C30",
"t	c #F09A53",
"u	c #212B1E",
"v	c #1D2719",
" .+++++++++@#$$$@+++%%%%%%%&+@#$$@++++++",
"+++++++++++++$$$@+++*======-++++$$$;++++",
">>>,.++++++++;@@;+'')!===~{]^'''$$@'++++",
"===/(+++++++++++++;$$$==={___;$$$@++++++",
"=):<(+++%[[[[+++++';@$^}|1___;$$%^[[[%+[",
"=+(((+++^____+++++++@$$@_____;$$_____%+_",
"'@2;,+++';;[_--++3333333_____-[4___:5<6;",
"$$$'++++;$$[___3378888779__________0((($",
"$;+++++++++@$_378888888879+[_____^(a$$$$",
"$;+++++++++@$97788888888879[_____^(a$$$$",
"+b}}}}^''++;9ccc88888888879[-___^d(e@@@@",
"======*$;+++9ccc78887997889^+-__(((f++++",
"=====b:ag++9ccccc7899999789%+%%haef;+++;",
"=====(((i++9ccccc8999999989++@$$$@+++++$",
"111%+2i;'+9ccccc78999999989++'''''+++/a ",
"___;$$@+++9c777c8j99k99k979++++++++++a((",
"________^$99c7778j99l99l9c9++++++++;$$$+",
"_______-%$$999cc7jmj99999j9++++++++;$$$+",
"+[____-$$$$9cccc77mmmnnnnm9[_____-++++++",
"+[___o^''''3888cc78mmnnnnm99____o^''+%^^",
"+[___$;___388888778888778899____$$$;+-__",
"+[_[^%^___388888c77888888899_%p+$@;%[-__",
"+[_%+______38887ccc78888879__;$$$@+[____",
"+%%[-___q;;@9999cccc999999_[%+'''+--___'",
"+++-____^$$$$+rrsrsssttss9_^+++++%_____$",
"++++++%____%++rrsrsstttts9+++++++++++-__",
"'++++%%__--%+37777777ttscc9+++++++++%-_-",
"(@+++___^$$'+38888887997779++++++++[___$",
"(@+++[[[%@@'37888888c9977779'++++++^[[[;",
"(@++++++++++3888888c99977779$'++++++++++",
"(@+++++++++99888888929997779$'++++++++++",
"u'+++++++++9sss99999,''9rrr9'+++++++++++",
"++++++++++99rrr9'$;++++999999+++++++++++",
"___5 +++++9ttt99+++++++9rsss9++++'$$$'++",
"___e(++++++++++++++++++'$$$;+++++'$$$'++",
"_u(((+++^______+++++++(((((a$$$$$$$;+++_",
"[. <a+++%[[-___%%'++,;(((( 2$@@@@@@'+++[",
"$$$'++++;$$[____^$;+<((((v$$$'+++++++++$",
"$@;+++++';;+%___-%';2aaaae$$$;;;+++++++;",
"$;+++++++++@$_____+$$$$$$$$$$$$$++++++++"};
