/* XPM */
static char * 4_xpm[] = {
"40 40 61 1",
" 	c #1D2619",
".	c #212B1D",
"+	c #232E20",
"@	c #202B1D",
"#	c #1F2A1D",
"$	c #1F2A1C",
"%	c #242F21",
"&	c #242F20",
"*	c #2A3626",
"=	c #2C3828",
"-	c #273224",
";	c #212C1E",
">	c #263223",
",	c #222C1F",
"'	c #222D1F",
")	c #273223",
"!	c #283424",
"~	c #2C3728",
"{	c #2B3627",
"]	c #273324",
"^	c #253022",
"/	c #1F291C",
"(	c #1C2518",
"_	c #283325",
":	c #242E20",
"<	c #1E271A",
"[	c #263123",
"}	c #263122",
"|	c #2A3526",
"1	c #293426",
"2	c #252716",
"3	c #1E291B",
"4	c #5F5625",
"5	c #928230",
"6	c #141412",
"7	c #273124",
"8	c #1F281B",
"9	c #1D271A",
"0	c #232D1F",
"a	c #1E281A",
"b	c #373A20",
"c	c #253021",
"d	c #232D20",
"e	c #1E281B",
"f	c #202A1C",
"g	c #202A1D",
"h	c #242E21",
"i	c #1F291B",
"j	c #0C98D6",
"k	c #331E32",
"l	c #1C3845",
"m	c #5F2E5C",
"n	c #932D8B",
"o	c #253023",
"p	c #232E21",
"q	c #263023",
"r	c #47280D",
"s	c #B56C30",
"t	c #F09A53",
"u	c #212B1E",
"v	c #1D2719",
" .+++++++++@#$$$@+++%%%%%%%&+@#$$@++++++",
"+++++++++++++$$$@+++*======-++++$$$;++++",
">>>,.++++++++;@@;+'')!===~{]^'''$$@'++++",
"===/(+++++++++++++;$$$==={___;$$$@++++++",
"=):<(+++%[[[[+++++';@$^}|1___;$$%^[[[%+[",
"=+(((+++^____++++2222222_____;$$_____%+_",
"'@3;,+++';;[_--2245555446____-[7___:8<9;",
"$$$'++++;$$[__245555555546_________0((($",
"$;+++++++++@$64455555555546[_____^(a$$$$",
"$;+++++++++@6bbb45554664556[_____^(a$$$$",
"+c}}}}^''++;6bbbb4566666456[-___^d(e@@@@",
"======*$;++6bbbbb5666666656^+-__(((f++++",
"=====c:ag++6bbbb45666666656%+%%haef;+++;",
"=====(((i+6bbbbb5666j66j646++@$$$@+++++$",
"111%+3i;'+6b444b5k66l66l646++'''''+++/a ",
"___;$$@+++66b4445k6666666b6++++++++++a((",
"________^$$666bb4kmk66666k6++++++++;$$$+",
"_______-%$$6bbbb44mmmnnnnm6++++++++;$$$+",
"+[____-$$$$2555bb45mmnnnnm66_____-++++++",
"+[___o^'''255555445555445566____o^''+%^^",
"+[___$;___255555444555555566____$$$;+-__",
"+[_[^%^___245554bbb555555566_%p+$@;%[-__",
"+[_%+______22226bbb45555546__;$$$@+[____",
"+%%[-___q;;@$666bbbb666666_[%+'''+--___'",
"+++-____^$$$$+rrsrsssttss6_^+++++%_____$",
"++++++%____%++rrsrsstttts6+++++++++++-__",
"'++++%%__--%+24444444ttsbb6+++++++++%-_-",
"(@+++___^$$'+25555554664446++++++++[___$",
"(@+++[[[%@@'24555555b6644446'++++++^[[[;",
"(@++++++++++2555555b66644446$'++++++++++",
"(@+++++++++66555555636664446$'++++++++++",
"u'+++++++++6sss66666,''6rrr6'+++++++++++",
"++++++++++66rrr6'$;++++666666+++++++++++",
"___8 +++++6ttt66+++++++6rsss6++++'$$$'++",
"___e(++++++++++++++++++'$$$;+++++'$$$'++",
"_u(((+++^______+++++++(((((a$$$$$$$;+++_",
"[. <a+++%[[-___%%'++,;(((( 3$@@@@@@'+++[",
"$$$'++++;$$[____^$;+<((((v$$$'+++++++++$",
"$@;+++++';;+%___-%';3aaaae$$$;;;+++++++;",
"$;+++++++++@$_____+$$$$$$$$$$$$$++++++++"};
