/* XPM */
static char * enemy_left_xpm[] = {
"40 40 605 2",
"  	c #293525",
". 	c #283425",
"+ 	c #252F21",
"@ 	c #1F291C",
"# 	c #212C1E",
"$ 	c #222D1F",
"% 	c #232E20",
"& 	c #232F20",
"* 	c #263322",
"= 	c #2A3725",
"- 	c #2A3726",
"; 	c #2A3526",
"> 	c #293425",
", 	c #273224",
"' 	c #253022",
") 	c #1F2A1C",
"! 	c #202B1D",
"~ 	c #2B3727",
"{ 	c #242E20",
"] 	c #1D2619",
"^ 	c #242F21",
"/ 	c #202B1C",
"( 	c #283A1E",
"_ 	c #365124",
": 	c #41612A",
"< 	c #41632B",
"[ 	c #40612A",
"} 	c #364F27",
"| 	c #2B3C24",
"1 	c #273324",
"2 	c #283324",
"3 	c #263123",
"4 	c #222C1E",
"5 	c #1C2518",
"6 	c #222D1E",
"7 	c #2C4121",
"8 	c #416329",
"9 	c #568433",
"0 	c #63993A",
"a 	c #649B3A",
"b 	c #63983A",
"c 	c #538032",
"d 	c #41622A",
"e 	c #324A24",
"f 	c #2B3B24",
"g 	c #253021",
"h 	c #1C2619",
"i 	c #283325",
"j 	c #24301F",
"k 	c #476C2C",
"l 	c #71AF42",
"m 	c #76B745",
"n 	c #77B845",
"o 	c #76B644",
"p 	c #70AD41",
"q 	c #659D3B",
"r 	c #527E31",
"s 	c #3A5627",
"t 	c #273522",
"u 	c #212B1D",
"v 	c #1F291B",
"w 	c #20291D",
"x 	c #2A3B1D",
"y 	c #537F31",
"z 	c #6EA940",
"A 	c #75B544",
"B 	c #6CA63F",
"C 	c #568333",
"D 	c #354E24",
"E 	c #263222",
"F 	c #1F281C",
"G 	c #2A3D1E",
"H 	c #548132",
"I 	c #6EAA40",
"J 	c #70AC41",
"K 	c #5B8B36",
"L 	c #385425",
"M 	c #273323",
"N 	c #263023",
"O 	c #222C1D",
"P 	c #2B381F",
"Q 	c #2E3F1F",
"R 	c #395524",
"S 	c #598935",
"T 	c #6EAB40",
"U 	c #76B645",
"V 	c #6BA43E",
"W 	c #537E32",
"X 	c #2F4522",
"Y 	c #273123",
"Z 	c #232D20",
"` 	c #202A1C",
" .	c #252C1E",
"..	c #3B3828",
"+.	c #60543F",
"@.	c #404025",
"#.	c #31421E",
"$.	c #416427",
"%.	c #558433",
"&.	c #659C3B",
"*.	c #71AE41",
"=.	c #6CA73F",
"-.	c #537E31",
";.	c #2E431F",
">.	c #212A1D",
",.	c #1E281A",
"'.	c #243021",
").	c #333425",
"!.	c #645441",
"~.	c #A48C74",
"{.	c #554A38",
"].	c #2A381A",
"^.	c #2F471E",
"/.	c #3A5724",
"(.	c #466A2A",
"_.	c #578733",
":.	c #6FAC40",
"<.	c #74B343",
"[.	c #76B744",
"}.	c #71AE42",
"|.	c #62973A",
"1.	c #476B2B",
"2.	c #2A3C1D",
"3.	c #272F21",
"4.	c #4D4535",
"5.	c #947D66",
"6.	c #CDB195",
"7.	c #645D47",
"8.	c #3D5E25",
"9.	c #4A712C",
"0.	c #426328",
"a.	c #42482E",
"b.	c #606043",
"c.	c #5B8D35",
"d.	c #6AA23E",
"e.	c #6FAC41",
"f.	c #64993B",
"g.	c #527D32",
"h.	c #3F5D27",
"i.	c #242F20",
"j.	c #1F281A",
"k.	c #1D2719",
"l.	c #2C3828",
"m.	c #253121",
"n.	c #2E3020",
"o.	c #6D5D4A",
"p.	c #C5A98D",
"q.	c #D0B597",
"r.	c #686A4A",
"s.	c #4E792F",
"t.	c #5A8B35",
"u.	c #577A33",
"v.	c #797252",
"w.	c #A59277",
"x.	c #4A702D",
"y.	c #5C8A37",
"z.	c #5E9037",
"A.	c #5D8F37",
"B.	c #568233",
"C.	c #4C722E",
"D.	c #446729",
"E.	c #385623",
"F.	c #365025",
"G.	c #324B21",
"H.	c #27391B",
"I.	c #1E2919",
"J.	c #1E281B",
"K.	c #212B1E",
"L.	c #273223",
"M.	c #1D271A",
"N.	c #393422",
"O.	c #88715A",
"P.	c #E9C9AA",
"Q.	c #D1BA97",
"R.	c #72814E",
"S.	c #4B712D",
"T.	c #4A722D",
"U.	c #707740",
"V.	c #B19874",
"W.	c #D6BD9A",
"X.	c #5D8D38",
"Y.	c #598736",
"Z.	c #4E772F",
"`.	c #5C8E36",
" +	c #649B3B",
".+	c #659B3B",
"++	c #649A3A",
"@+	c #619739",
"#+	c #5A8C35",
"$+	c #3E5E26",
"%+	c #212E1C",
"&+	c #1F281B",
"*+	c #67533A",
"=+	c #B3906F",
"-+	c #DEC3A1",
";+	c #97A169",
">+	c #668C42",
",+	c #507831",
"'+	c #3E5E27",
")+	c #8B7D5F",
"!+	c #D1B294",
"~+	c #DAC19E",
"{+	c #588535",
"]+	c #406127",
"^+	c #4D762E",
"/+	c #5D9038",
"(+	c #61953A",
"_+	c #679E3D",
":+	c #74B443",
"<+	c #538131",
"[+	c #324B22",
"}+	c #222E1E",
"|+	c #263223",
"1+	c #443928",
"2+	c #715A44",
"3+	c #857660",
"4+	c #556739",
"5+	c #4B6D2F",
"6+	c #416128",
"7+	c #857D5F",
"8+	c #C3A98D",
"9+	c #E6C5A7",
"0+	c #DBC29F",
"a+	c #365122",
"b+	c #496F2C",
"c+	c #5D8E37",
"d+	c #6CA53F",
"e+	c #588733",
"f+	c #4C752D",
"g+	c #355024",
"h+	c #263520",
"i+	c #25261A",
"j+	c #332A20",
"k+	c #393729",
"l+	c #30461F",
"m+	c #3E5C27",
"n+	c #395424",
"o+	c #97886D",
"p+	c #D4B79A",
"q+	c #E4C2A2",
"r+	c #C4A780",
"s+	c #588534",
"t+	c #344D21",
"u+	c #2D421E",
"v+	c #44662A",
"w+	c #5E8F38",
"x+	c #70AE41",
"y+	c #3C5A24",
"z+	c #2D4321",
"A+	c #253320",
"B+	c #1D241A",
"C+	c #1D261A",
"D+	c #212E18",
"E+	c #2C401D",
"F+	c #2B3E1C",
"G+	c #877559",
"H+	c #C5A789",
"I+	c #CFB191",
"J+	c #908156",
"K+	c #4D742F",
"L+	c #436529",
"M+	c #2E441E",
"N+	c #517B30",
"O+	c #568533",
"P+	c #517D30",
"Q+	c #293B1F",
"R+	c #243020",
"S+	c #252F22",
"T+	c #222D20",
"U+	c #1F291D",
"V+	c #151513",
"W+	c #161913",
"X+	c #1D2716",
"Y+	c #5D4E33",
"Z+	c #927C5E",
"`+	c #998B6B",
" @	c #4F6035",
".@	c #324920",
"+@	c #243319",
"@@	c #385223",
"#@	c #426429",
"$@	c #486D2C",
"%@	c #426329",
"&@	c #2E4320",
"*@	c #1D251B",
"=@	c #222C1F",
"-@	c #1C2319",
";@	c #191F14",
">@	c #27391A",
",@	c #2D441D",
"'@	c #31491F",
")@	c #375323",
"!@	c #3E5F26",
"~@	c #3D5C26",
"{@	c #2A3D1B",
"]@	c #293B1B",
"^@	c #5A8836",
"/@	c #578434",
"(@	c #466A2C",
"_@	c #2E4322",
":@	c #232E1F",
"<@	c #212A1E",
"[@	c #26381A",
"}@	c #466C2A",
"|@	c #4E772E",
"1@	c #517C30",
"2@	c #548232",
"3@	c #548231",
"4@	c #446829",
"5@	c #558134",
"6@	c #5D8C38",
"7@	c #517B31",
"8@	c #375325",
"9@	c #232C20",
"0@	c #192014",
"a@	c #395722",
"b@	c #69A13D",
"c@	c #72B043",
"d@	c #75B444",
"e@	c #476A2B",
"f@	c #314722",
"g@	c #242E22",
"h@	c #1B2314",
"i@	c #3F6125",
"j@	c #6FAB40",
"k@	c #77B745",
"l@	c #73B142",
"m@	c #45672A",
"n@	c #3B5724",
"o@	c #406027",
"p@	c #3E5D26",
"q@	c #324A21",
"r@	c #273420",
"s@	c #273124",
"t@	c #283021",
"u@	c #323121",
"v@	c #3F2F1B",
"w@	c #48341E",
"x@	c #563A1F",
"y@	c #5A3C1F",
"z@	c #513921",
"A@	c #60452B",
"B@	c #745031",
"C@	c #453926",
"D@	c #292B1F",
"E@	c #272B1E",
"F@	c #232C1E",
"G@	c #202B1B",
"H@	c #395723",
"I@	c #63993B",
"J@	c #6AA33E",
"K@	c #689F3C",
"L@	c #253419",
"M@	c #26361C",
"N@	c #28381F",
"O@	c #283521",
"P@	c #263022",
"Q@	c #202B1E",
"R@	c #273022",
"S@	c #373423",
"T@	c #5C4025",
"U@	c #8C5C35",
"V@	c #A46B3E",
"W@	c #A46A3C",
"X@	c #9B6438",
"Y@	c #A26A3E",
"Z@	c #A46C41",
"`@	c #553C25",
" #	c #3B3120",
".#	c #403221",
"+#	c #4F3924",
"@#	c #4A3521",
"##	c #443320",
"$#	c #503B24",
"%#	c #634529",
"&#	c #6D4A2B",
"*#	c #70572D",
"=#	c #7A7736",
"-#	c #7C7C38",
";#	c #7B7C38",
">#	c #7B7D38",
",#	c #7E8141",
"'#	c #838B54",
")#	c #7E8C60",
"!#	c #6D6756",
"~#	c #64594F",
"{#	c #61584F",
"]#	c #4D4A41",
"^#	c #30372B",
"/#	c #2F3323",
"(#	c #4F3E27",
"_#	c #7C5634",
":#	c #98643B",
"<#	c #B17344",
"[#	c #BF7C49",
"}#	c #C6824D",
"|#	c #B87949",
"1#	c #5D3E25",
"2#	c #52361E",
"3#	c #6A472B",
"4#	c #614126",
"5#	c #5F3F24",
"6#	c #674529",
"7#	c #6D482B",
"8#	c #774F2E",
"9#	c #77502E",
"0#	c #78552F",
"a#	c #785630",
"b#	c #785730",
"c#	c #7E603E",
"d#	c #8C755A",
"e#	c #90816F",
"f#	c #8B786B",
"g#	c #847064",
"h#	c #7B6B61",
"i#	c #5F574E",
"j#	c #363A30",
"k#	c #4A3A24",
"l#	c #855B37",
"m#	c #A97144",
"n#	c #BD7D4B",
"o#	c #B57849",
"p#	c #604229",
"q#	c #4F371F",
"r#	c #5B3E23",
"s#	c #664327",
"t#	c #5D3E24",
"u#	c #5A3E24",
"v#	c #5B4027",
"w#	c #4F3A24",
"x#	c #543D26",
"y#	c #583F27",
"z#	c #5D422A",
"A#	c #60462C",
"B#	c #654C34",
"C#	c #735B48",
"D#	c #7F6A5C",
"E#	c #7D685A",
"F#	c #756054",
"G#	c #6A5B50",
"H#	c #514C41",
"I#	c #31362B",
"J#	c #805734",
"K#	c #976740",
"L#	c #58432D",
"M#	c #2C2B1C",
"N#	c #3D2D19",
"O#	c #382E1C",
"P#	c #2A2E1F",
"Q#	c #463B2A",
"R#	c #665037",
"S#	c #70583C",
"T#	c #70593D",
"U#	c #6A5438",
"V#	c #57452B",
"W#	c #523D29",
"X#	c #4D3927",
"Y#	c #30291E",
"Z#	c #252C20",
"`#	c #22291D",
" $	c #695037",
".$	c #9B7451",
"+$	c #A98059",
"@$	c #A87F59",
"#$	c #9D744F",
"$$	c #7E5836",
"%$	c #705030",
"&$	c #694B2C",
"*$	c #3E2D1B",
"=$	c #24271B",
"-$	c #232D1F",
";$	c #2D281A",
">$	c #6B4D32",
",$	c #845D3B",
"'$	c #8D6541",
")$	c #88603C",
"!$	c #7A4F2B",
"~$	c #6B401C",
"{$	c #462A11",
"]$	c #3D2410",
"^$	c #292216",
"/$	c #1F281D",
"($	c #242C1E",
"_$	c #3A2716",
":$	c #855F3E",
"<$	c #966C49",
"[$	c #9F7550",
"}$	c #976D49",
"|$	c #7F5431",
"1$	c #6A3F1A",
"2$	c #44280F",
"3$	c #40260F",
"4$	c #322314",
"5$	c #252519",
"6$	c #472B15",
"7$	c #7C5432",
"8$	c #885D3A",
"9$	c #8D633F",
"0$	c #885E3A",
"a$	c #794E29",
"b$	c #43280F",
"c$	c #392311",
"d$	c #292316",
"e$	c #1E281C",
"f$	c #1F1B14",
"g$	c #3A2413",
"h$	c #583920",
"i$	c #5E3E23",
"j$	c #604026",
"k$	c #58371C",
"l$	c #503017",
"m$	c #342010",
"n$	c #2E1D11",
"o$	c #231F15",
"p$	c #1E271A",
"q$	c #1E1712",
"r$	c #352111",
"s$	c #3B2412",
"t$	c #372212",
"u$	c #302215",
"v$	c #2C2115",
"w$	c #2B1F14",
"x$	c #2D1E13",
"y$	c #301E10",
"z$	c #241B13",
"A$	c #1C2117",
"B$	c #1E271B",
"C$	c #20281B",
"D$	c #241912",
"E$	c #41270F",
"F$	c #43270F",
"G$	c #372210",
"H$	c #262216",
"I$	c #1A2118",
"J$	c #171914",
"K$	c #211812",
"L$	c #3C2410",
"M$	c #282014",
"N$	c #1D251A",
"O$	c #22271B",
"P$	c #2D1E11",
"Q$	c #382211",
"R$	c #282418",
"S$	c #191E17",
"T$	c #221912",
"U$	c #3E2610",
"V$	c #2E2314",
"W$	c #1F271C",
"X$	c #251A11",
"Y$	c #42270F",
"Z$	c #352212",
"`$	c #262519",
" %	c #231C13",
".%	c #3C2812",
"+%	c #2D2919",
"@%	c #23251A",
"#%	c #301F11",
"$%	c #3A2310",
"%%	c #282317",
"&%	c #222017",
"*%	c #3B2410",
"=%	c #2B2416",
"-%	c #242E21",
";%	c #202A1D",
">%	c #342B1B",
",%	c #492F17",
"'%	c #553215",
")%	c #573315",
"!%	c #523113",
"~%	c #3D2511",
"{%	c #272317",
"]%	c #20271B",
"^%	c #261B12",
"/%	c #543215",
"(%	c #573415",
"_%	c #523115",
":%	c #432D17",
"<%	c #2E2A1B",
"[%	c #3A301F",
"}%	c #4E361D",
"|%	c #54371C",
"1%	c #53371B",
"2%	c #4E341A",
"3%	c #372A18",
"4%	c #25281B",
"5%	c #212C1F",
"6%	c #1E2619",
"7%	c #201E15",
"8%	c #4F3318",
"9%	c #533519",
"0%	c #513419",
"a%	c #452F19",
"b%	c #312A1A",
"c%	c #313323",
"d%	c #3C3623",
"e%	c #3E3521",
"f%	c #3D3420",
"g%	c #38301D",
"h%	c #2B2C1C",
"i%	c #1E2317",
"j%	c #372C19",
"k%	c #3A2D19",
"l%	c #3A2E1A",
"m%	c #342C1A",
"n%	c #282A1B",
"  . + @ # $ % % % % % % % $ $ # $ $ % % # $ & * = = = - ; > , ' # # # ) ) ! $ % ",
"~ > { ] ! $ % % % ^ ^ ^ ^ ^ % % % % % $ ! / ( _ : < [ } | 1 2 3 # ) ) ! # % ^ ^ ",
"2 4 @ 5 ! $ % % ^ 3 3 3 3 ' ^ % % % % $ 6 7 8 9 0 a b c d e f 3 # ) ) ^ ' 3 3 3 ",
"g 5 h ] ! $ % % ' , , i i 3 ^ % % % % % j k b l m n o p q r s t # ! # 3 i i i , ",
"u v ! $ % % % % % # # ^ , , , 3 % % % w x y z n n n n n A B C D E , , i i i 3 4 ",
") ) # % % % % % $ ) ) % , i i 3 % % % F G H I n n n n n n J K L M i i i i i 3 u ",
"! $ $ % % % % % % $ $ $ $ ' , N ! O P Q R S T U n n n n n A V W X 2 i i Y Z ` v ",
"# % % % % % % % % % % # ! % , '  ...+.@.#.$.%.&.*.n n n n m =.-.;.2 i i 3 >.] ,.",
"% '.'.'.'.'.& % % % % $ ! % 3 ' ).!.~.{.].^./.(._.:.<.m [.}.|.1.2.2 i , + ` ] v ",
"1 . . . . . g # $ % % $ # % ' 3.4.5.6.7.8.9.0.a.b.c.d.e.I f.g.h.2.M M i.O j.k.` ",
"l.l.l.l.~ ~ m.) ! % % % % % % n.o.p.q.r.s.t.u.v.w.x.y.z.A.B.C.D.E.F.F.G.H.I.J.K.",
"l.l.l.l.L.i.` M.) % % % % % % N.O.P.Q.R.S.T.U.V.W.X.Y.Z.`. +.+++@+@+@+#+$+%+# $ ",
"l.l.l.l.^ J.5 h &+% % % % % % *+=+-+;+>+,+'+)+!+~+X.{+]+^+S /+(+_+:+<.<+[+}+% % ",
"; > |+^ ! v ` # 4 % % % % # v 1+2+3+4+5+6+7+8+9+0+X.{+a+a+b+c+d+I e+f+g+h+% % % ",
"i 2 ^ ! ) ) # % % % % % % ! k.i+j+k+l+m+n+o+p+q+r+X.s+t+u+v+w+p x+y+z+A+% % % % ",
"i i 3 ^ ^ ^ ' 3 ^ # # $ % 4 ! F B+C+D+E+F+G+H+I+J+K+L+M+u+6+N+O+P+Q+R+% % % % $ ",
"i i i i i i i , S+) ) # $ % % % T+U+V+W+X+Y+Z+`+ @.@+@@@#@$@%@&@*@% % % % % $ # ",
", i i i i i 3 ^ $ ) ) # $ % % % =@-@;@>@,@'@)@!@~@{@]@C.^@/@(@_@' ' ' ' ' ^ :@# ",
"' i i i i i ^ ! ! ! ! # % % % % <@W+[@}@|@1@2@_.3@4@R 5@6@6@7@8@M i i i 3 ^ % % ",
"' i i i 3 ^ ^ ^ ^ ^ ^ ' 3 ' ^ ^ 9@0@a@b@}.c@d@n A b@e@,+^@Y.S.f@3 i i ' % $ # $ ",
"' i i i ^ # ^ i i i i i i 3 ^ ' g@h@i@j@m m n n k@l@m@n@o@p@q@r@s@i i $ ! ) ! $ ",
"t@u@v@w@x@y@z@A@B@C@i g@D@E@F@$ % G@H@I@J@J@J@J@J@K@a+L@M@N@O@P@^ % % ! ) Q@$ ^ ",
"R@S@T@U@V@W@X@Y@Z@`@ #.#+#@###$#%#&#*#=#-#;#>#,#'#)#!#~#{#]#^#3 $ ! ! ) ! # ^ 3 ",
"^ /#(#_#:#<#[#}#|#1#2#1#3#4#5#6#7#8#9#0#a#a#b#c#d#e#f#g#h#i#j#' $ # # # $ ^ 3 , ",
"% % ' , k#l#m#n#o#p#q#r#s#t#u#v#w#x#x#y#z#A@A#B#C#D#E#F#G#H#I#% % % % % ^ 3 i i ",
"% % ' 3 3 3 k#J#K#L#Z M#N#O#P#% % % =@Q#R#S#T#U#V#W#X#Y#Z#' ^ % % % % % % ' 3 3 ",
"% % % % % % 3 i i i i 3 ^ % % % % % `# $.$+$@$#$$$%$&$*$=$=@% % % % % % % % % % ",
"=@% % % ' ' , i , ' ' ^ % % % % % -$;$>$,$'$)$!$~${${$]$^$/$% % % % % % % % % ^ ",
") % % % 3 , i i ' ! ! # % % % % % ($_$:$<$[$}$|$1$2$2$3$4$i+# % % % % % % % ^ 3 ",
"@ % % % ^ 3 3 3 ^ # # $ % % % $ >.5$6$7$8$9$0$a$1$2$2$b$c$d$e$# :@% % % % % ^ ' ",
"@ % % % % ^ ^ ^ % % % % % % % $ &+f$g$h$i$j$i$k$l$m$m$m$n$o$C+! :@% % % % % % ^ ",
"@ % % % % % % % % % % % % % % $ p$q$r$s$t$u$v$w$x$m$m$y$z$A$B$! $ % % % % % % % ",
"! % % % % % % % % % % % % % % $ C$D$E$F$G$H$I$J$K$F$F$L$M$N$! # $ % % % % % % % ",
"% % % % % % % % % % % % % % % =@O$P$b$2$Q$R$*@S$T$2$2$U$V$O$$ % % % % % % % % % ",
"^ ^ % $ % % % % % % % % % % % W$X$2$2$Y$Z$`$K.w  %b$2$2$.%+%=@% % % % % % $ $ $ ",
"i , Z ] ! $ % % % % % % % % =@@%#%2$2$$%%%>.% <@&%*%b$2$*%=%w % % % % % $ # ) ) ",
"3 -%;%h ! $ % % % ' ' ' ' =@>%,%'%)%!%~%{%<@% $ ]%^%/%(%_%:%<%K.# # # # # ! ) ! ",
"^ J.M.5 ! $ % % ' , , , , -%[%}%|%1%2%3%4%5%% 4 6%7%8%9%0%a%b%@ ! ! ! ! ! ) ! # ",
"=@M.,.&+# $ % % ^ ' ' 3 i s@c%d%e%f%g%h%F@=@K.@ 5 i%j%k%l%m%n%) ! # # # # # # $ ",
"! ) ! =@$ % % % $ # # ^ , i i i , 3 ! # $ K.&+] 5 5 5 ] J.v ) ! $ $ $ $ $ $ % % "};
