/* XPM */
static char * enemy_right_xpm[] = {
"40 40 603 2",
"  	c #202A1D",
". 	c #212B1E",
"+ 	c #222D1F",
"@ 	c #232E20",
"# 	c #232F1F",
"$ 	c #232E1F",
"% 	c #222E1E",
"& 	c #243020",
"* 	c #273324",
"= 	c #2B3727",
"- 	c #2C3828",
"; 	c #2A3527",
"> 	c #293425",
", 	c #273224",
"' 	c #253022",
") 	c #212C1E",
"! 	c #1F2A1C",
"~ 	c #1E271A",
"{ 	c #1F291C",
"] 	c #242F21",
"^ 	c #273620",
"/ 	c #344E23",
"( 	c #3A5926",
"_ 	c #3B5A25",
": 	c #375424",
"< 	c #2E4420",
"[ 	c #273621",
"} 	c #293525",
"| 	c #2A3627",
"1 	c #283425",
"2 	c #283325",
"3 	c #1D2619",
"4 	c #263123",
"5 	c #242F20",
"6 	c #304621",
"7 	c #3C5C27",
"8 	c #588634",
"9 	c #649A3A",
"0 	c #659C3B",
"a 	c #5F9238",
"b 	c #4E782F",
"c 	c #375325",
"d 	c #263520",
"e 	c #243021",
"f 	c #2A3526",
"g 	c #293526",
"h 	c #202B1D",
"i 	c #1C2518",
"j 	c #20291C",
"k 	c #25321F",
"l 	c #3A5726",
"m 	c #598835",
"n 	c #6BA63F",
"o 	c #72B043",
"p 	c #76B745",
"q 	c #77B845",
"r 	c #75B544",
"s 	c #70AD41",
"t 	c #5B8D36",
"u 	c #324B21",
"v 	c #263221",
"w 	c #3D5B28",
"x 	c #5D8E37",
"y 	c #72AF42",
"z 	c #76B644",
"A 	c #77B745",
"B 	c #679E3C",
"C 	c #406027",
"D 	c #1D2419",
"E 	c #263022",
"F 	c #222C1E",
"G 	c #1F281B",
"H 	c #1E281A",
"I 	c #416229",
"J 	c #62963A",
"K 	c #68A13D",
"L 	c #426428",
"M 	c #1C2217",
"N 	c #202A1C",
"O 	c #232F1E",
"P 	c #395526",
"Q 	c #588835",
"R 	c #6FAB41",
"S 	c #75B444",
"T 	c #69A23D",
"U 	c #4B732D",
"V 	c #222D18",
"W 	c #384C26",
"X 	c #2C3524",
"Y 	c #273124",
"Z 	c #222C1F",
"` 	c #1F291B",
" .	c #1E281B",
"..	c #1E291B",
"+.	c #212E1B",
"@.	c #385424",
"#.	c #5B8C36",
"$.	c #71AF42",
"%.	c #75B443",
"&.	c #6DA83F",
"*.	c #619539",
"=.	c #517C30",
"-.	c #395723",
";.	c #252818",
">.	c #484B29",
",.	c #635744",
"'.	c #3A392A",
").	c #263021",
"!.	c #263023",
"~.	c #253021",
"{.	c #212E1C",
"].	c #304720",
"^.	c #679F3D",
"/.	c #74B343",
"(.	c #72B042",
"_.	c #669E3B",
":.	c #538031",
"<.	c #416328",
"[.	c #385423",
"}.	c #2F461D",
"|.	c #28291B",
"1.	c #564C37",
"2.	c #A89077",
"3.	c #5D503E",
"4.	c #2B3122",
"5.	c #252F22",
"6.	c #1D271A",
"7.	c #263122",
"8.	c #212D1E",
"9.	c #222E1F",
"0.	c #222F1C",
"a.	c #314720",
"b.	c #426329",
"c.	c #568233",
"d.	c #689F3D",
"e.	c #669C3C",
"f.	c #61803E",
"g.	c #525B39",
"h.	c #43522E",
"i.	c #4A712C",
"j.	c #4E782E",
"k.	c #2F3A21",
"l.	c #605C44",
"m.	c #D5B79A",
"n.	c #87735D",
"o.	c #44402F",
"p.	c #273122",
"q.	c #1D2719",
"r.	c #2B3627",
"s.	c #212D1C",
"t.	c #293B1F",
"u.	c #355124",
"v.	c #365124",
"w.	c #365223",
"x.	c #3E5F26",
"y.	c #46692A",
"z.	c #4D742E",
"A.	c #578534",
"B.	c #609338",
"C.	c #5B8B36",
"D.	c #588535",
"E.	c #82885B",
"F.	c #8C8163",
"G.	c #71744C",
"H.	c #5D8836",
"I.	c #5F9438",
"J.	c #394D26",
"K.	c #686E48",
"L.	c #DEBFA1",
"M.	c #B2987F",
"N.	c #685A48",
"O.	c #2C3020",
"P.	c #1C2619",
"Q.	c #283324",
"R.	c #242E20",
"S.	c #212A1D",
"T.	c #24331C",
"U.	c #3A5A24",
"V.	c #609538",
"W.	c #639A3A",
"X.	c #63993A",
"Y.	c #649B3A",
"Z.	c #669D3C",
"`.	c #669C3B",
" +	c #45682B",
".+	c #5B8937",
"++	c #A1A572",
"@+	c #BFAA84",
"#+	c #9F8D68",
"$+	c #627539",
"%+	c #4D762E",
"&+	c #46622D",
"*+	c #758B4F",
"=+	c #E2C5A5",
"-+	c #D0B396",
";+	c #826E59",
">+	c #343322",
",+	c #232D20",
"'+	c #212D1A",
")+	c #324923",
"!+	c #578834",
"~+	c #5E8F38",
"{+	c #5D8F37",
"]+	c #446829",
"^+	c #3B5724",
"/+	c #5A8836",
"(+	c #D4BB98",
"_+	c #BAA084",
":+	c #6E6B4B",
"<+	c #45672A",
"[+	c #578335",
"}+	c #689042",
"|+	c #AAA978",
"1+	c #D1B493",
"2+	c #A28568",
"3+	c #5A4B34",
"4+	c #222D1E",
"5+	c #263521",
"6+	c #354F24",
"7+	c #49702C",
"8+	c #5F9338",
"9+	c #6DA840",
"0+	c #68A13E",
"a+	c #45682A",
"b+	c #2C411D",
"c+	c #365122",
"d+	c #D9C09D",
"e+	c #E1C1A3",
"f+	c #B49D82",
"g+	c #5D6440",
"h+	c #46692B",
"i+	c #4A6B2E",
"j+	c #5A623E",
"k+	c #756551",
"l+	c #5E4E3C",
"m+	c #393626",
"n+	c #253320",
"o+	c #2C4020",
"p+	c #558433",
"q+	c #6EAA40",
"r+	c #6DA740",
"s+	c #578535",
"t+	c #3C5925",
"u+	c #26371A",
"v+	c #354F21",
"w+	c #598836",
"x+	c #90965A",
"y+	c #CAB08A",
"z+	c #E4C3A3",
"A+	c #C3A98E",
"B+	c #636346",
"C+	c #3F5D27",
"D+	c #3E5B26",
"E+	c #2C3A1F",
"F+	c #312D22",
"G+	c #2B291F",
"H+	c #252C1F",
"I+	c #4A732D",
"J+	c #548132",
"K+	c #4F7730",
"L+	c #365022",
"M+	c #2B3F1D",
"N+	c #2D431E",
"O+	c #436529",
"P+	c #637139",
"Q+	c #AB9975",
"R+	c #CCAE8D",
"S+	c #B19578",
"T+	c #555138",
"U+	c #2B3F1C",
"V+	c #293B1C",
"W+	c #1D2617",
"X+	c #1D251A",
"Y+	c #20281D",
"Z+	c #1E271B",
"`+	c #354F23",
" @	c #476B2C",
".@	c #496F2C",
"+@	c #466A2B",
"@@	c #354F22",
"#@	c #324B20",
"$@	c #757452",
"%@	c #8F7F5F",
"&@	c #7A694C",
"*@	c #3A3A23",
"=@	c #1A2314",
"-@	c #141412",
";@	c #171A15",
">@	c #4D752F",
",@	c #5C8C37",
"'@	c #5A8936",
")@	c #496E2D",
"!@	c #293C1B",
"~@	c #334D21",
"{@	c #3F5F26",
"]@	c #375423",
"^@	c #334C20",
"/@	c #334D1F",
"(@	c #263619",
"_@	c #171B14",
":@	c #232F1D",
"<@	c #3F5F28",
"[@	c #5D8D38",
"}@	c #5C8B37",
"|@	c #547F33",
"1@	c #3E5D26",
"2@	c #4E772E",
"3@	c #588834",
"4@	c #5B8D35",
"5@	c #578633",
"6@	c #537F31",
"7@	c #568532",
"8@	c #476B2A",
"9@	c #1B2315",
"0@	c #191D17",
"a@	c #242E21",
"b@	c #365024",
"c@	c #4E7530",
"d@	c #598736",
"e@	c #4B6F2E",
"f@	c #517A30",
"g@	c #6BA53F",
"h@	c #74B243",
"i@	c #71AE42",
"j@	c #74B444",
"k@	c #669E3C",
"l@	c #223118",
"m@	c #1A1E18",
"n@	c #242D21",
"o@	c #272E20",
"p@	c #253123",
"q@	c #242E22",
"r@	c #25321E",
"s@	c #30461F",
"t@	c #3C5B25",
"u@	c #334C21",
"v@	c #70AE41",
"w@	c #253619",
"x@	c #1B1F19",
"y@	c #252E22",
"z@	c #2A3224",
"A@	c #3A2915",
"B@	c #242A1B",
"C@	c #23311C",
"D@	c #202C17",
"E@	c #212E18",
"F@	c #4B742D",
"G@	c #6FAC41",
"H@	c #70AE42",
"I@	c #27391B",
"J@	c #222B20",
"K@	c #2F3020",
"L@	c #333020",
"M@	c #2D3020",
"N@	c #493724",
"O@	c #C68552",
"P@	c #604126",
"Q@	c #292C1D",
"R@	c #253023",
"S@	c #3A3325",
"T@	c #4F3C2E",
"U@	c #77675C",
"V@	c #BBACA0",
"W@	c #B5A58D",
"X@	c #A89459",
"Y@	c #A48F41",
"Z@	c #A48E41",
"`@	c #A28A40",
" #	c #986436",
".#	c #8D5C33",
"+#	c #9B673D",
"@#	c #AB7245",
"##	c #A76E40",
"$#	c #875730",
"%#	c #4D331B",
"&#	c #543A25",
"*#	c #E99D63",
"=#	c #D38F59",
"-#	c #B77C4D",
";#	c #795231",
">#	c #392D1B",
",#	c #2F3122",
"'#	c #1D261A",
")#	c #7E7269",
"!#	c #B3A296",
"~#	c #C4B2A6",
"{#	c #DAC8BB",
"]#	c #D0B6A4",
"^#	c #B98862",
"/#	c #B2773F",
"(#	c #B2763F",
"_#	c #B1713E",
":#	c #A46939",
"<#	c #B37646",
"[#	c #C6834F",
"}#	c #C27E49",
"|#	c #9D6335",
"1#	c #59361A",
"2#	c #563A25",
"3#	c #EFA165",
"4#	c #CF8952",
"5#	c #C98550",
"6#	c #CA8753",
"7#	c #CA8855",
"8#	c #B1784B",
"9#	c #6E4D30",
"0#	c #2B3123",
"a#	c #1E281C",
"b#	c #6C665C",
"c#	c #9A8E83",
"d#	c #A2968A",
"e#	c #A19489",
"f#	c #9C8779",
"g#	c #8C6549",
"h#	c #895C33",
"i#	c #8B5F36",
"j#	c #8C6037",
"k#	c #8C5F37",
"l#	c #8A5A35",
"m#	c #835731",
"n#	c #845832",
"o#	c #7B532F",
"p#	c #855A37",
"q#	c #93633C",
"r#	c #906039",
"s#	c #744E2C",
"t#	c #44311C",
"u#	c #523824",
"v#	c #E49A60",
"w#	c #976239",
"x#	c #946036",
"y#	c #AB7144",
"z#	c #B5794B",
"A#	c #A06A40",
"B#	c #684528",
"C#	c #2D3122",
"D#	c #232D1F",
"E#	c #232A1D",
"F#	c #2F2317",
"G#	c #533C25",
"H#	c #594227",
"I#	c #6B5334",
"J#	c #7B6141",
"K#	c #816645",
"L#	c #816445",
"M#	c #775B40",
"N#	c #1D261B",
"O#	c #212A1E",
"P#	c #212C1F",
"Q#	c #413422",
"R#	c #B0794C",
"S#	c #4F3B25",
"T#	c #342A18",
"U#	c #392B18",
"V#	c #392C19",
"W#	c #372E1D",
"X#	c #2B3223",
"Y#	c #252519",
"Z#	c #412C18",
"`#	c #67482A",
" $	c #704E2D",
".$	c #87603C",
"+$	c #9D744F",
"@$	c #A57B55",
"#$	c #A47A54",
"$$	c #9D7753",
"%$	c #2A1F15",
"&$	c #232C1E",
"*$	c #22291C",
"=$	c #271A11",
"-$	c #44280F",
";$	c #563315",
">$	c #693F1A",
",$	c #855C39",
"'$	c #8B633F",
")$	c #875E3A",
"!$	c #96704C",
"~$	c #4D3018",
"{$	c #24271B",
"]$	c #242318",
"^$	c #372110",
"/$	c #926844",
"($	c #9B714C",
"_$	c #946A46",
":$	c #AE845D",
"<$	c #6A401B",
"[$	c #261F15",
"}$	c #1F271C",
"|$	c #261C13",
"1$	c #43280F",
"2$	c #805531",
"3$	c #845A36",
"4$	c #815632",
"5$	c #8F6541",
"6$	c #6B401B",
"7$	c #382513",
"8$	c #222419",
"9$	c #20291D",
"0$	c #1D1812",
"a$	c #2E1D11",
"b$	c #392313",
"c$	c #452A16",
"d$	c #4E321C",
"e$	c #4F341E",
"f$	c #533721",
"g$	c #462B16",
"h$	c #2A1C12",
"i$	c #1C1E16",
"j$	c #202A1E",
"k$	c #1C2117",
"l$	c #231911",
"m$	c #3A2310",
"n$	c #342011",
"o$	c #2A1C13",
"p$	c #272016",
"q$	c #272116",
"r$	c #2E2013",
"s$	c #3E2611",
"t$	c #3E2511",
"u$	c #352110",
"v$	c #1F1E15",
"w$	c #20271B",
"x$	c #231912",
"y$	c #43270F",
"z$	c #382210",
"A$	c #191F17",
"B$	c #1B2119",
"C$	c #281E13",
"D$	c #42270F",
"E$	c #3D2410",
"F$	c #221E15",
"G$	c #272A1C",
"H$	c #352011",
"I$	c #392310",
"J$	c #251E14",
"K$	c #1D251B",
"L$	c #1E251B",
"M$	c #281F14",
"N$	c #41260F",
"O$	c #412610",
"P$	c #302113",
"Q$	c #23261A",
"R$	c #2B2618",
"S$	c #372311",
"T$	c #272418",
"U$	c #252318",
"V$	c #372211",
"W$	c #3C2410",
"X$	c #292216",
"Y$	c #21291D",
"Z$	c #24281C",
"`$	c #312013",
" %	c #492B10",
".%	c #442910",
"+%	c #322313",
"@%	c #25271A",
"#%	c #1F281C",
"$%	c #221A12",
"%%	c #45280F",
"&%	c #482B10",
"*%	c #442811",
"=%	c #382615",
"-%	c #2C291B",
";%	c #222D20",
">%	c #332A1B",
",%	c #4D3017",
"'%	c #583416",
")%	c #4B2E15",
"!%	c #2C2618",
"~%	c #1E261B",
"{%	c #231B13",
"]%	c #462A11",
"^%	c #573415",
"/%	c #543216",
"(%	c #432D18",
"_%	c #2D2A1B",
":%	c #202B1E",
"<%	c #382F1F",
"[%	c #51381E",
"}%	c #53391E",
"|%	c #49341D",
"1%	c #2D2B1D",
"2%	c #1C2519",
"3%	c #202015",
"4%	c #392915",
"5%	c #51351A",
"6%	c #52361A",
"7%	c #52371B",
"8%	c #45311A",
"9%	c #2F2A1A",
"0%	c #283225",
"a%	c #2A3223",
"b%	c #303222",
"c%	c #2C2D1D",
"d%	c #2A2D1E",
"e%	c #242D1F",
"f%	c #1D2418",
"g%	c #222618",
"h%	c #292919",
"i%	c #2A2A1B",
"j%	c #2B2B1B",
"k%	c #272B1B",
"l%	c #232B1D",
"  . + @ @ @ @ @ @ @ + + + + + # $ % # & * = - - - ; > , ' + ) ) ! ! ) + @ @ @ @ ",
"~ { + @ @ @ ] ] ] ] @ @ @ # ^ / ( _ : < [ } | = = 1 2 2 ' ) ! ! ) ) @ ] ] ] @ @ ",
"3 { + @ @ ] 4 4 4 4 ' 5 ^ 6 7 8 9 0 a b c d e f g 2 2 2 ' ) ! h ' ' 4 4 4 ' ] @ ",
"i j + @ @ ] 2 2 2 2 4 k l m n o p q r s t u . 2 2 2 2 2 ' ) ! h 2 2 2 2 2 , ] ] ",
") + @ @ @ @ ) ) ] , v w x y z A q q q p B C D 2 2 2 2 2 , 4 4 4 2 2 2 E F G ~ H ",
"+ @ @ @ @ + ! ! @ , v I J z q q q q q q K L M 2 2 2 2 2 2 2 2 2 2 2 2 ' N i i 3 ",
"@ @ @ @ @ @ + + + O P Q R A q q q q p S T U V W X E 4 , 2 2 2 2 2 Y Z N `  . ...",
"@ @ @ @ @ @ @ @ ) +.@.#.$.q q q q %.&.*.=.-.;.>.,.'.)., 2 2 2 2 2 !.G 3 ..! ! ! ",
"~.~.~.] @ @ @ @ + {.].b ^./.q p (._.:.<.[.}.|.1.2.3.4.4 , 2 2 2 4 5. .6.{ h h h ",
"> > > 7.) 8.# # 9.0.a.b.c.d.s R e.f.g.h.i.j.k.l.m.n.o.p.4 , 2 , Z h q.6.h + + + ",
"- = r.7.! s.t.u.v.w.x.y.z.A.B.C.D.E.F.G.H.I.J.K.L.M.N.O.' , , 4 3 P.3 G ) @ @ @ ",
"- Q.R.S.~ T.U.V.W.X.Y.0 Z.`.a  +.+++@+#+$+%+&+*+=+-+;+>+@ @ @ +  ...h F ,+@ @ @ ",
"- E ` i i '+)+!+(.R d.~+#.{+]+^+/+++(+_+:+<+[+}+|+1+2+3++ h ! ! ! h + @ @ @ @ + ",
"] ) {   ) 4+5+6+7+8+9+0+A.a+b+c+/+++d+e+f+g+h+i+j+k+l+m+@ + + + + + @ @ @ F ` ~ ",
") ! ! ) @ @ @ n+o+p+q+r+s+t+u+v+w+x+y+z+A+B+C+D+E+F+G+H+@ @ @ @ @ @ @ @ @ ) H i ",
"' ' ' ' 4 ' ) ) 4+( I+J+K+L+M+N+O+P+Q+R+S+T+U+V+W+X+Y+Z @ @ @ @ @ @ @ + ) h .. .",
"2 2 2 2 , ' ! ! )   Z+`+ @.@+@@@u+#@$@%@&@*@=@-@;@  @ @ @ @ @ @ @ @ @ + h ! ! h ",
"2 2 2 4 ] + ! ! ) + # 6+>@,@'@)@!@~@{@{@]@^@/@(@_@X+,+' ' ' ' ' ' ' ] @ + ) ) ) ",
"2 2 , ' ) h h h + @ :@<@[+[@}@|@1@2@3@4@5@6@7@8@9@0@Z , 2 2 2 2 , 4 a@@ @ @ ] ] ",
"2 4 ] ] ] ] ] ] ' 4 4+b@c@d@D.e@f@g@r q h@i@j@k@l@m@n@2 2 2 2 2 o@@ ) ) + ] p@4 ",
"2 ] h @ 2 2 2 2 2 2 q@r@s@t@1@u@6@v@q q q q p v@w@x@y@2 2 2 2 z@A@B@! h + ' , 2 ",
"' ' ' 4 2 2 2 2 4 @ ) ! s.C@D@E@F@G@q q q q p H@I@J@K@L@M@@ . N@O@P@Q@@ ' , 2 2 ",
"] R@, 2 2 2 2 2 ' ) ! S@T@U@V@V@W@X@Y@Y@Y@Y@Z@`@ #.#+#@###$#%#&#*#=#-#;#>#,#2 2 ",
"4 , 2 2 2 4 ,+,+) h '#)#!#~#{#{#]#^#/#/#/#/#(#(#_#:#<#[#}#|#1#2#3#4#5#6#7#8#9#0#",
", , , 2 2 4 h h h h a#b#c#d#d#e#f#g#h#i#j#k#l#m#n#o#p#q#r#s#t#u#v#w#x#y#z#A#B#C#",
"' ' ' , 2 , @ @ @ + + @ @ D#E#F#G#H#I#J#K#L#M#N#@ ' ,+O#P#@ Z Q#R#S#T#U#U#V#W#X#",
"@ @ @ 4 2 2 , , 4 ] @ @ @ Z Y#Z#`# $.$+$@$#$$$%$&$@ @ @ @ @ @ @ @ @ @ @ @ ' , 2 ",
"@ ] ' , 2 , ] ] ] @ @ @ ,+*$=$-$-$;$>$,$'$)$!$~${$+ @ @ @ @ @ @ @ @ @ ] ' 4 , , ",
"@ 4 , 2 2 !.! ! ) + @ @ . ]$^$-$-$;$>$/$($_$:$<$[$. @ @ @ @ @ @ @ @ @ ] 4 2 2 , ",
"@ ] ' ' ' ' + + + @ @ @ }$|$1$-$-$;$>$2$3$4$5$6$7$8$9$. Z + @ @ @ @ @ ] ' ' ' ' ",
"@ @ @ @ @ @ @ @ @ @ @ @ }$0$a$a$a$b$c$d$e$d$f$g$h$i$Z+! . + @ @ @ @ @ @ @ @ @ @ ",
"@ @ @ @ @ @ @ @ @ @ @ @ j$k$l$m$m$n$o$p$q$r$s$t$u$v$'#! h + @ @ @ @ @ @ @ @ @ @ ",
"@ @ @ @ @ @ @ @ @ @ @ @ + w$x$y$y$z$l$A$B$C$D$D$E$F$Z+) + @ @ @ @ @ @ @ @ @ @ @ ",
"@ @ @ @ @ @ @ @ @ @ @ @ @ G$H$-$-$I$J$K$L$M$N$-$O$P$Q$) @ @ @ @ @ @ @ @ @ @ @ @ ",
". Z @ @ @ @ @ @ @ @ @ @ . R$-$-$1$S$T$O#O#U$V$-$-$W$X$Y$@ @ @ @ @ @ ) ) ) + @ @ ",
"6.{ + @ @ @ @ @ @ @ @ @ Z$`$ % %.%+%@%Z @ #%$%%%&%*%=%-%H+;%@ @ @ + h ! ! h + @ ",
"3 { + @ @ @ ' ' ' ' ' ;%>%,%'%'%)%!%O#@ + ~%{%]%;$^%/%(%_%:%) ) ) ) ! h ) + + @ ",
"i { + @ @ ] 2 2 2 2 2 5.<%[%}%}%|%1%Z @ . 2%3%4%5%6%7%8%9%..! ! ! ! ! h + @ @ ] ",
"N ) + @ @ @ @ @ ' , 2 0%a%b%b%c%d%e%F    .P.f%g%h%i%j%k%l%) + + + + + + + @ @ @ ",
"+ @ @ @ @ + h h @ , 2 2 2 , 4 ! h + .  .3 i i i 3 ..! ! h + @ @ @ @ @ @ @ @ @ @ "};
