/* XPM */
static char * enemy_run_right_xpm[] = {
"40 40 527 2",
"  	c #293425",
". 	c #263123",
"+ 	c #222C1E",
"@ 	c #202A1D",
"# 	c #232D1F",
"$ 	c #232E20",
"% 	c #222D1F",
"& 	c #212C1E",
"* 	c #232F20",
"= 	c #2C3828",
"- 	c #2C3728",
"; 	c #2A3527",
"> 	c #273224",
", 	c #253022",
"' 	c #202B1D",
") 	c #1F2A1C",
"! 	c #2B3727",
"~ 	c #2A3626",
"{ 	c #263122",
"] 	c #202A1C",
"^ 	c #1E281A",
"/ 	c #242F21",
"( 	c #2A3526",
"_ 	c #2B3627",
": 	c #293426",
"< 	c #283325",
"[ 	c #202B1E",
"} 	c #252F21",
"| 	c #212A1D",
"1 	c #1E271A",
"2 	c #232F1F",
"3 	c #242F20",
"4 	c #253121",
"5 	c #243021",
"6 	c #242F22",
"7 	c #253023",
"8 	c #283424",
"9 	c #1C2618",
"0 	c #1D2619",
"a 	c #1F281B",
"b 	c #24311F",
"c 	c #2C411F",
"d 	c #314B22",
"e 	c #334C23",
"f 	c #314922",
"g 	c #2C3F20",
"h 	c #243020",
"i 	c #212D1E",
"j 	c #2D431F",
"k 	c #588535",
"l 	c #6CA73F",
"m 	c #6EAB40",
"n 	c #68A13D",
"o 	c #548033",
"p 	c #283B1D",
"q 	c #232F1E",
"r 	c #2A3C1E",
"s 	c #44672A",
"t 	c #73B243",
"u 	c #76B644",
"v 	c #76B744",
"w 	c #75B544",
"x 	c #72B143",
"y 	c #6BA53E",
"z 	c #26381C",
"A 	c #232E1F",
"B 	c #2B3D1E",
"C 	c #385223",
"D 	c #486D2C",
"E 	c #77B845",
"F 	c #74B343",
"G 	c #507A31",
"H 	c #2B3F1F",
"I 	c #202C1C",
"J 	c #242E21",
"K 	c #263023",
"L 	c #1F291C",
"M 	c #202B1C",
"N 	c #273A1D",
"O 	c #355023",
"P 	c #395725",
"Q 	c #3B5925",
"R 	c #3E5C26",
"S 	c #45672A",
"T 	c #63993B",
"U 	c #73B143",
"V 	c #76B745",
"W 	c #71AE42",
"X 	c #496E2C",
"Y 	c #24341A",
"Z 	c #1E281B",
"` 	c #20291C",
" .	c #222E1E",
"..	c #344D23",
"+.	c #527E30",
"@.	c #5E9137",
"#.	c #5F9238",
"$.	c #598935",
"%.	c #507A30",
"&.	c #4D752E",
"*.	c #4D732E",
"=.	c #64993B",
"-.	c #6FAB41",
";.	c #6FAC41",
">.	c #6DA93F",
",.	c #6DA83F",
"'.	c #6AA53E",
").	c #5E9038",
"!.	c #3A5524",
"~.	c #1F2B1B",
"{.	c #1F291B",
"].	c #212B1E",
"^.	c #1D271A",
"/.	c #344B27",
"(.	c #537F32",
"_.	c #669E3C",
":.	c #6AA33E",
"<.	c #5E9037",
"[.	c #5F9038",
"}.	c #4E762F",
"|.	c #517A30",
"1.	c #61943A",
"2.	c #5C8D36",
"3.	c #4F7A2E",
"4.	c #4F7A2F",
"5.	c #3C5B25",
"6.	c #2C3E1C",
"7.	c #343F1E",
"8.	c #2C321D",
"9.	c #222A1B",
"0.	c #375028",
"a.	c #4F7931",
"b.	c #598835",
"c.	c #588534",
"d.	c #609339",
"e.	c #5A8B35",
"f.	c #4C732E",
"g.	c #578435",
"h.	c #5F7B3E",
"i.	c #585F3D",
"j.	c #474D31",
"k.	c #3C5A25",
"l.	c #406027",
"m.	c #1E2816",
"n.	c #28281C",
"o.	c #6E644A",
"p.	c #4C442F",
"q.	c #292B1B",
"r.	c #1C2518",
"s.	c #1C2619",
"t.	c #263124",
"u.	c #1D2719",
"v.	c #354D28",
"w.	c #44672B",
"x.	c #405F27",
"y.	c #3F5F27",
"z.	c #4B752D",
"A.	c #568234",
"B.	c #679241",
"C.	c #939D67",
"D.	c #99926D",
"E.	c #797D54",
"F.	c #558233",
"G.	c #5D8F37",
"H.	c #2C3E1E",
"I.	c #3E3E2C",
"J.	c #B1977E",
"K.	c #705E4A",
"L.	c #2D2B1B",
"M.	c #2C3C24",
"N.	c #2E4320",
"O.	c #2B3F1C",
"P.	c #243419",
"Q.	c #283A1B",
"R.	c #5D8C37",
"S.	c #8DAC5E",
"T.	c #CBBE91",
"U.	c #C5AF8E",
"V.	c #8D9063",
"W.	c #5E8F38",
"X.	c #374B24",
"Y.	c #605A45",
"Z.	c #CEB195",
"`.	c #7F6B56",
" +	c #283324",
".+	c #273223",
"++	c #1B2516",
"@+	c #233118",
"#+	c #5A8836",
"$+	c #90A263",
"%+	c #D5C09A",
"&+	c #CBB393",
"*+	c #8A8762",
"=+	c #46682B",
"-+	c #486C2C",
";+	c #5D683F",
">+	c #D9BC9E",
",+	c #D9BA9D",
"'+	c #806C57",
")+	c #343624",
"!+	c #2A3627",
"~+	c #1D261A",
"{+	c #181C14",
"]+	c #191F14",
"^+	c #395523",
"/+	c #8C9661",
"(+	c #D5BF9A",
"_+	c #CCB394",
":+	c #8D8F63",
"<+	c #558033",
"[+	c #5F9139",
"}+	c #81AE52",
"|+	c #E8C9A9",
"1+	c #DBBC9F",
"2+	c #806C58",
"3+	c #353726",
"4+	c #253220",
"5+	c #24331B",
"6+	c #212F18",
"7+	c #1B2314",
"8+	c #202C17",
"9+	c #7C7658",
"0+	c #C1A687",
"a+	c #B49A79",
"b+	c #736F48",
"c+	c #3A5624",
"d+	c #436629",
"e+	c #74974C",
"f+	c #DFC0A2",
"g+	c #BB9979",
"h+	c #6D5841",
"i+	c #323524",
"j+	c #2B3B24",
"k+	c #395527",
"l+	c #4A702D",
"m+	c #3B5825",
"n+	c #2D421D",
"o+	c #555C3B",
"p+	c #807D56",
"q+	c #787A4C",
"r+	c #52612F",
"s+	c #355021",
"t+	c #3B5924",
"u+	c #557436",
"v+	c #907D67",
"w+	c #715A43",
"x+	c #453B28",
"y+	c #2A3222",
"z+	c #293525",
"A+	c #273323",
"B+	c #354F26",
"C+	c #4C732F",
"D+	c #5A8937",
"E+	c #5C8B37",
"F+	c #537E32",
"G+	c #496F2C",
"H+	c #548232",
"I+	c #5F9337",
"J+	c #629839",
"K+	c #5F9338",
"L+	c #1D2816",
"M+	c #181C15",
"N+	c #212A1E",
"O+	c #283425",
"P+	c #293526",
"Q+	c #263121",
"R+	c #395526",
"S+	c #517B31",
"T+	c #5C8C37",
"U+	c #5C8C38",
"V+	c #6BA53F",
"W+	c #74B444",
"X+	c #76B645",
"Y+	c #72B042",
"Z+	c #1A2314",
"`+	c #181B15",
" @	c #222B1F",
".@	c #314623",
"+@	c #45682A",
"@@	c #486C2B",
"#@	c #75B444",
"$@	c #1B2315",
"%@	c #1B2018",
"&@	c #263220",
"*@	c #2C3F1F",
"=@	c #375223",
"-@	c #395624",
";@	c #2C411E",
">@	c #385423",
",@	c #5F9138",
"'@	c #6EAA40",
")@	c #6EA940",
"!@	c #6BA33F",
"~@	c #6BA63E",
"{@	c #1C2517",
"]@	c #262F22",
"^@	c #272D21",
"/@	c #272C20",
"(@	c #212217",
"_@	c #202117",
":@	c #242C19",
"<@	c #3A5724",
"[@	c #4A712C",
"}@	c #4F792F",
"|@	c #4D742E",
"1@	c #4B712D",
"2@	c #4B722C",
"3@	c #3D5D25",
"4@	c #293325",
"5@	c #2D3425",
"6@	c #433B27",
"7@	c #423B28",
"8@	c #2F3425",
"9@	c #3C3628",
"0@	c #523E30",
"a@	c #5B4134",
"b@	c #5A4033",
"c@	c #543D30",
"d@	c #31301E",
"e@	c #2B401D",
"f@	c #2B3F1D",
"g@	c #293B1B",
"h@	c #243219",
"i@	c #212E1C",
"j@	c #323121",
"k@	c #362F1E",
"l@	c #303121",
"m@	c #6B5135",
"n@	c #DD975E",
"o@	c #DA935D",
"p@	c #6E4A2C",
"q@	c #2F3122",
"r@	c #7A7167",
"s@	c #A49285",
"t@	c #A58E80",
"u@	c #C1AEA1",
"v@	c #876956",
"w@	c #C2AB9C",
"x@	c #AD7E5E",
"y@	c #A46A39",
"z@	c #A56B3A",
"A@	c #A66B3A",
"B@	c #A66A3A",
"C@	c #A4693A",
"D@	c #83532D",
"E@	c #8C5931",
"F@	c #644022",
"G@	c #674224",
"H@	c #83542E",
"I@	c #774B29",
"J@	c #6C4525",
"K@	c #C07D48",
"L@	c #EEA165",
"M@	c #D28D58",
"N@	c #7D5534",
"O@	c #3A3523",
"P@	c #313526",
"Q@	c #293122",
"R@	c #232D20",
"S@	c #4F4C43",
"T@	c #675D54",
"U@	c #665950",
"V@	c #796D65",
"W@	c #544135",
"X@	c #7B6C62",
"Y@	c #6F503B",
"Z@	c #6C4425",
"`@	c #885831",
" #	c #A56A3C",
".#	c #B27340",
"+#	c #B37442",
"@#	c #AE6E3C",
"##	c #AA6B3B",
"$#	c #88552E",
"%#	c #915C31",
"&#	c #664021",
"*#	c #6A4324",
"=#	c #87562F",
"-#	c #7B4D29",
";#	c #6A4221",
">#	c #B77541",
",#	c #EEA064",
"'#	c #C4814D",
")#	c #AE7142",
"!#	c #BF804F",
"~#	c #B77C4E",
"{#	c #855B38",
"]#	c #3B3321",
"^#	c #242E20",
"/#	c #20281D",
"(#	c #1E2219",
"_#	c #241B12",
":#	c #382210",
"<#	c #3A2411",
"[#	c #492C14",
"}#	c #573518",
"|#	c #825A38",
"1#	c #9B6C44",
"2#	c #A57248",
"3#	c #A9784F",
"4#	c #7F522C",
"5#	c #704728",
"6#	c #5B4025",
"7#	c #614428",
"8#	c #45341F",
"9#	c #48341F",
"0#	c #5B3F26",
"a#	c #533C24",
"b#	c #5A3E23",
"c#	c #AA6C3C",
"d#	c #DA925B",
"e#	c #8C5C36",
"f#	c #835530",
"g#	c #AE7547",
"h#	c #C68553",
"i#	c #AE7549",
"j#	c #61452A",
"k#	c #262E1F",
"l#	c #20291D",
"m#	c #212218",
"n#	c #301F11",
"o#	c #3E250F",
"p#	c #422711",
"q#	c #593516",
"r#	c #6B401B",
"s#	c #885E3A",
"t#	c #926844",
"u#	c #946A46",
"v#	c #9A724E",
"w#	c #4E341C",
"x#	c #181713",
"y#	c #212C1F",
"z#	c #222C1F",
"A#	c #3F3522",
"B#	c #7D502B",
"C#	c #9D6940",
"D#	c #4B3924",
"E#	c #2F2A1A",
"F#	c #63472C",
"G#	c #8D623E",
"H#	c #8D623D",
"I#	c #564128",
"J#	c #252E20",
"K#	c #24291D",
"L#	c #222218",
"M#	c #1F1912",
"N#	c #2B1C11",
"O#	c #2D1D11",
"P#	c #322012",
"Q#	c #4D2F16",
"R#	c #603A19",
"S#	c #734C2C",
"T#	c #795232",
"U#	c #7A5433",
"V#	c #7C5839",
"W#	c #442B17",
"X#	c #171713",
"Y#	c #272E1F",
"Z#	c #342C1B",
"`#	c #332C1B",
" $	c #242B1D",
".$	c #23291D",
"+$	c #2D2517",
"@$	c #312011",
"#$	c #271A11",
"$$	c #201812",
"%$	c #141412",
"&$	c #171915",
"*$	c #282016",
"=$	c #402A18",
"-$	c #472D18",
";$	c #472C17",
">$	c #462B16",
",$	c #422815",
"'$	c #2C1D11",
")$	c #161613",
"!$	c #21281B",
"~$	c #2C2417",
"{$	c #3B2410",
"]$	c #42260E",
"^$	c #3D240E",
"/$	c #342111",
"($	c #161914",
"_$	c #1F271C",
":$	c #1E261C",
"<$	c #1B2119",
"[$	c #171A15",
"}$	c #151613",
"|$	c #1E291C",
"1$	c #1F2A1D",
"2$	c #1B2317",
"3$	c #2A2115",
"4$	c #3E2511",
"5$	c #47280E",
"6$	c #47280D",
"7$	c #41250E",
"8$	c #281E13",
"9$	c #202A1E",
"0$	c #1E291B",
"a$	c #1A2217",
"b$	c #5E3B1D",
"c$	c #7A481F",
"d$	c #6B3E19",
"e$	c #3F240E",
"f$	c #2B2014",
"g$	c #222A1D",
"h$	c #20291E",
"i$	c #181D16",
"j$	c #141512",
"k$	c #1F281C",
"l$	c #643E1F",
"m$	c #975A29",
"n$	c #935727",
"o$	c #5D3A1D",
"p$	c #26291D",
"q$	c #191D17",
"r$	c #161814",
"s$	c #40321F",
"t$	c #7A4B24",
"u$	c #955929",
"v$	c #845127",
"w$	c #453721",
"x$	c #483721",
"y$	c #664222",
"z$	c #654322",
"A$	c #3B3420",
"B$	c #212B1D",
"      . + @ # $ $ $ $ $ $ $ $ % & & % $ % & % * . = = = - ;   > , & & ' ) ' & % ",
"! ! ~ { ] ^ + $ $ $ / / / / / $ $ $ $ $ % ' ' ) & ( ~ ! _ : < < . ' ) ) [ % $ / ",
"! ~ } | 1 ^ + $ 2 3 4 { { { 4 3 $ $ $ $ $ % & ' ' 3 5   : < < < . ' ) ' 6 7 . . ",
"~ 8 ] 9 0 a % b c d e e e e f g h $ $ $ $ $ % & ' ' & > < < < < . & ' & > < < < ",
"i & ] ] & % 2 j k l m m m m n o p $ $ $ / . > > > > > < < < < < < > > > < < < , ",
") ) ) ' % q r s t u v v v v w x y z A $ / > < < < < < < < < < < < < < < < < < , ",
") ' i % q B C D w E E E E E E E F G H I ' & J > < < < < > , , > < < < < < K + L ",
"M N O P P Q R S T U V E E E E V W X Y Z ) ) % > < < < < > / , > < < < < < , ` 0 ",
" ...+.@.#.$.%.&.*.=.-.;.>.,.,.'.).!.Y ~.) {.].6 . < < < > , , . > < < < . J a ^.",
"8 /.(._.:.=.<.[.}.|.1.2.+.3.+.4.5.6.7.8.9.^ Z @ % < < < < > . , . < < < % ` ^.1 ",
"= ! 0.a.b.c.b.d.e.f.g.h.i.j.k.l.m.n.o.p.q.0 r.s.a > > > > > . / / . t.. a 0 u.L ",
"! = ! v.w.D x.y.z.A.B.C.D.E.F.G.H.I.J.K.L.r.0 ^ {.% % / , , / / $ % % % {.{.' & ",
"! = = _ M.N.O.P.Q.R.S.T.U.V.W._.X.Y.Z.`.L.u.^ ) ' ' ' $ $ $ $ $ % ' ) ) ) & % $ ",
" +    .+$ 1 ++@+Q.#+$+%+&+*+=+-+;+>+,+'+)+( ~ ~ !+!+~ / $ $ $ $ $ $ % % % $ $ $ ",
"> < < . % L ~+{+]+^+/+(+_+:+<+[+}+|+1+2+3+= = = = = ! 5 $ $ $ $ $ $ $ $ $ $ $ $ ",
"< < < > . 4+5+6+7+8+9+0+a+b+c+d+e+f+g+h+i+!+= = = = =  +. / $ $ $ $ $ $ $ $ $ % ",
"> > < < j+k+l+f.m+n+o+p+q+r+s+t+u+v+w+x+y+z+! = = ! !   > / $ / / / / / / / $ % ",
", , > A+B+C+D+E+F+G+H+I+J+@.e.K+@.L+M+N+/ { O+! - P+P+< > / / , . . . . . , / $ ",
"$ / > Q+R+S+T+U+k F+V+w E W+x X+Y+Z+`+ @/ / . P+~ < < < > , , > < < < < > , $ % ",
"$ / > , .@+@F+o -+@@l X+E u #@V Y+$@%@J > > > .+.+< < < > > > < < < < < / % & & ",
"$ / > . &@*@=@-@;@>@,@'@Y+)@!@;.~@{@ @> < < > , / > < < < < < < < > > . [ ) ) & ",
"$ / > > ]@^@/@(@_@:@<@[@}@|@1@2@3@& / > 4@4@ +> 5@6@7@8@< < < < . % & & ) ' & $ ",
"$ / > . 9@0@a@b@b@c@d@Q.e@f@g@h@i@$ / > j@k@l@< m@n@o@p@q@< < < . ' ) ) ) ' % / ",
"$ $ / N+r@s@t@u@v@w@x@y@z@A@A@B@B@C@D@E@F@G@H@I@J@K@L@M@N@O@P@Q@/ % % % % / . > ",
"$ $ $ R@S@T@U@V@W@X@Y@Z@`@ #.#+#@###$#%#&#*#=#-#;#>#,#'#)#!#~#{#]#^#$ $ $ / . > ",
"$ $ $ $ R@/#(#_#:#<#[#}#|#1#2#3#4#5#6#7#8#9#0#a#b#c#d#e#f#g#h#i#j#k#$ $ $ / / , ",
"% % $ $ % l#m#n#o#p#q#r#s#t#u#v#w#x#y#$ z#].z#$ A#B#C#D#E#F#G#H#I#J#$ $ $ $ $ $ ",
") ] % % K#L#M#N#O#P#Q#R#S#T#U#V#W#X#y#$ $ $ $ $ Y#Z#`# $& % $ $ $ $ $ $ $ $ $ / ",
"0 1 ]..$+$@$#$$$%$&$*$=$-$;$>$,$'$)$].% % % % % % % % ' ' & % % % $ $ $ $ $ $ / ",
"0 u.!$~${$]$^$/$($_$_$:$<$[$%$%$%$}$|$a a a {.@ ' ' ' ) 1$' ' ' & $ $ $ $ $ $ $ ",
"0 2$3$4$5$6$7$8$9$$ N+%@&$}$%$%$%$}$^.0 r.r.u.0$) ) ) ) ) ) ) ) ' % $ $ $ $ $ $ ",
"0 a$b$c$d$e$f$g$$ $ h$i$j$%$%$%$%$}$^.0 r.r.u.0$) ) ) ) ) ) ) ) ' % $ $ $ $ $ $ ",
"+ k$l$m$n$o$p$R@$ $ N+q$}$}$}$}$r$9$& ) ) & % % % % % % % ' ' & % $ $ $ $ $ $ $ ",
"/ R@s$t$u$v$w$$ $ $ % l#k$k$k$k$/#$ % ' & % $ $ $ $ $ % % ' ' % $ $ $ $ $ $ $ % ",
". . , x$y$z$A$$ $ $ $ $ $ $ $ $ $ $ $ % % $ $ $ $ $ $ & ' ) ' % $ $ $ $ $ $ & ' ",
"< < . R@a ^ + $ $ $ / / / / / / / $ $ $ $ $ $ $ $ % z#) {.{.] & % % % % % & ' ) ",
"< > # ` 0 ^ + $ $ $ , . . . . . . $ $ $ $ $ $ $ % {.a 1 u.u.0$' ' ' ' ' ' ' ) ' ",
"> , L 0 0 {.% $ $ / . > > < < < < / / $ $ $ $ % ].r.r.r.r.s.^.{.) ) ' ' ' ' ' & ",
"% & ) ) B$z## $ $ $ % % ^#. < < < > , & & % + L ^.r.r.r.0 ^ L L ' & % % % % % $ ",
") ) ) ' % $ $ $ $ % ' ) % . < < < < . & ' % & ^.r.r.r.r.0 0$) ) ' % $ $ $ $ $ $ "};
