/* XPM */
static char * enemy_run_left_xpm[] = {
"40 40 607 2",
"  	c #232E20",
". 	c #222D1F",
"+ 	c #212C1E",
"@ 	c #202B1D",
"# 	c #222E1F",
"$ 	c #232E1F",
"% 	c #293525",
"& 	c #2C3828",
"* 	c #2C3728",
"= 	c #2A3627",
"- 	c #293426",
"; 	c #273224",
"> 	c #1F2A1C",
", 	c #202B1E",
"' 	c #2F372D",
") 	c #343C32",
"! 	c #242F21",
"~ 	c #273324",
"{ 	c #2B3727",
"] 	c #293526",
"^ 	c #283325",
"/ 	c #283324",
"( 	c #202B1C",
"_ 	c #202C1C",
": 	c #212D1E",
"< 	c #242F20",
"[ 	c #2F382D",
"} 	c #253022",
"| 	c #26331E",
"1 	c #24331B",
"2 	c #243219",
"3 	c #243319",
"4 	c #25351B",
"5 	c #27391D",
"6 	c #293721",
"7 	c #303A2F",
"8 	c #363F35",
"9 	c #283424",
"0 	c #2C3E22",
"a 	c #436329",
"b 	c #5A8935",
"c 	c #63983A",
"d 	c #669C3B",
"e 	c #6BA43E",
"f 	c #70AD41",
"g 	c #6FAC41",
"h 	c #659C3C",
"i 	c #486D2C",
"j 	c #2D3E23",
"k 	c #263123",
"l 	c #293624",
"m 	c #334A25",
"n 	c #4D752F",
"o 	c #669B3B",
"p 	c #70AC41",
"q 	c #74B243",
"r 	c #74B443",
"s 	c #76B644",
"t 	c #77B845",
"u 	c #77B745",
"v 	c #72B042",
"w 	c #5C8D36",
"x 	c #385224",
"y 	c #28381E",
"z 	c #202C1B",
"A 	c #1E281A",
"B 	c #2C342A",
"C 	c #323930",
"D 	c #416229",
"E 	c #629639",
"F 	c #73B243",
"G 	c #76B744",
"H 	c #76B745",
"I 	c #5E9037",
"J 	c #405F28",
"K 	c #314820",
"L 	c #27391C",
"M 	c #25341B",
"N 	c #313F2B",
"O 	c #354130",
"P 	c #273223",
"Q 	c #2D3E22",
"R 	c #446729",
"S 	c #679E3C",
"T 	c #75B644",
"U 	c #69A13D",
"V 	c #547F32",
"W 	c #436429",
"X 	c #426328",
"Y 	c #436529",
"Z 	c #45692A",
"` 	c #4A6B34",
" .	c #435A35",
"..	c #273123",
"+.	c #2A3921",
"@.	c #3D5A25",
"#.	c #5B8B35",
"$.	c #6BA53E",
"%.	c #6EA940",
"&.	c #6DA93F",
"*.	c #6DA83F",
"=.	c #6EAA40",
"-.	c #6AA33E",
";.	c #598835",
">.	c #4E762F",
",.	c #4F782F",
"'.	c #558132",
").	c #5B8B36",
"!.	c #5F9238",
"~.	c #5C883C",
"{.	c #496537",
"].	c #1F291B",
"^.	c #1F291C",
"/.	c #252F22",
"(.	c #293325",
"_.	c #2C3423",
":.	c #2E3720",
"<.	c #31451F",
"[.	c #416127",
"}.	c #527D31",
"|.	c #558332",
"1.	c #517D30",
"2.	c #4F7A2E",
"3.	c #588734",
"4.	c #609439",
"5.	c #5D8D37",
"6.	c #568534",
"7.	c #5D8D36",
"8.	c #5D8E37",
"9.	c #62963A",
"0.	c #63983B",
"a.	c #59843B",
"b.	c #415835",
"c.	c #1D271A",
"d.	c #202A1D",
"e.	c #212B1D",
"f.	c #2D3425",
"g.	c #3C3A27",
"h.	c #454028",
"i.	c #393A24",
"j.	c #212E18",
"k.	c #395424",
"l.	c #3C5926",
"m.	c #2B3F1D",
"n.	c #464332",
"o.	c #556A38",
"p.	c #568234",
"q.	c #558134",
"r.	c #507930",
"s.	c #5C8C36",
"t.	c #588534",
"u.	c #537E32",
"v.	c #4B722E",
"w.	c #3F5731",
"x.	c #353E32",
"y.	c #1E291B",
"z.	c #1D2719",
"A.	c #1C2518",
"B.	c #303424",
"C.	c #544733",
"D.	c #6D5B44",
"E.	c #635743",
"F.	c #25351A",
"G.	c #4F7A2F",
"H.	c #527C31",
"I.	c #3E5E27",
"J.	c #95876B",
"K.	c #959769",
"L.	c #638E3E",
"M.	c #598736",
"N.	c #3E5D25",
"O.	c #395524",
"P.	c #416128",
"Q.	c #3C5925",
"R.	c #2F4421",
"S.	c #303A2D",
"T.	c #353C32",
"U.	c #222B1E",
"V.	c #20291C",
"W.	c #1E271A",
"X.	c #1D2619",
"Y.	c #1E281B",
"Z.	c #2D3020",
"`.	c #6B5B47",
" +	c #968068",
".+	c #907F67",
"++	c #2F451F",
"@+	c #619539",
"#+	c #60933A",
"$+	c #4C722E",
"%+	c #BBA888",
"&+	c #D4BF9A",
"*+	c #A9B376",
"=+	c #659B3C",
"-+	c #49702D",
";+	c #27381B",
">+	c #283A1B",
",+	c #25341D",
"'+	c #232F1F",
")+	c #2E372C",
"!+	c #333B32",
"~+	c #2C2E1F",
"{+	c #71604D",
"]+	c #A99177",
"^+	c #B29D81",
"/+	c #636945",
"(+	c #517831",
"_+	c #507830",
":+	c #47692B",
"<+	c #C1AC8C",
"[+	c #E2C7A5",
"}+	c #B8B284",
"|+	c #5B8C37",
"1+	c #486E2C",
"2+	c #223019",
"3+	c #1D2516",
"4+	c #20291B",
"5+	c #222D1E",
"6+	c #2E362C",
"7+	c #333A31",
"8+	c #222C1F",
"9+	c #232D20",
"0+	c #253021",
"a+	c #293425",
"b+	c #333726",
"c+	c #756551",
"d+	c #B79D82",
"e+	c #D3BB99",
"f+	c #979E69",
"g+	c #598437",
"h+	c #476A2C",
"i+	c #E4C7A7",
"j+	c #B9AE85",
"k+	c #2F451E",
"l+	c #191F14",
"m+	c #1D2419",
"n+	c #212B1E",
"o+	c #1F281B",
"p+	c #2B3229",
"q+	c #31372F",
"r+	c #353A28",
"s+	c #6F5E48",
"t+	c #AF9477",
"u+	c #D0B792",
"v+	c #9EA46F",
"w+	c #517632",
"x+	c #43652A",
"y+	c #3F5D28",
"z+	c #AA9371",
"A+	c #D2B393",
"B+	c #AF9E7F",
"C+	c #344D21",
"D+	c #1E2616",
"E+	c #222D18",
"F+	c #28391D",
"G+	c #27361F",
"H+	c #212D1C",
"I+	c #2B3128",
"J+	c #31362E",
"K+	c #253122",
"L+	c #283425",
"M+	c #333928",
"N+	c #584B36",
"O+	c #866F56",
"P+	c #9F8C6C",
"Q+	c #7D8457",
"R+	c #405D28",
"S+	c #314720",
"T+	c #3A5724",
"U+	c #797447",
"V+	c #998B66",
"W+	c #837D5E",
"X+	c #2A3E1C",
"Y+	c #31481F",
"Z+	c #426128",
"`+	c #3F5E28",
" @	c #2D4220",
".@	c #212D1B",
"+@	c #243021",
"@@	c #2F3727",
"#@	c #383726",
"$@	c #423B29",
"%@	c #4A4D31",
"&@	c #4F6B33",
"*@	c #4C742E",
"=@	c #46692A",
"-@	c #578534",
";@	c #598735",
">@	c #537F31",
",@	c #476D2B",
"'@	c #496F2C",
")@	c #578434",
"!@	c #5C8C38",
"~@	c #547F33",
"{@	c #3C5A27",
"]@	c #27371E",
"^@	c #263223",
"/@	c #2B3627",
"(@	c #2A3526",
"_@	c #1F271C",
":@	c #2D421D",
"<@	c #578533",
"[@	c #669B3C",
"}@	c #72B142",
"|@	c #74B343",
"1@	c #6FAB40",
"2@	c #609339",
"3@	c #547E33",
"4@	c #5A8936",
"5@	c #5C8B37",
"6@	c #598636",
"7@	c #416228",
"8@	c #2A3C1F",
"9@	c #2F372C",
"0@	c #262F20",
"a@	c #292F20",
"b@	c #2A2F20",
"c@	c #252E20",
"d@	c #2A3626",
"e@	c #263023",
"f@	c #20271D",
"g@	c #31491F",
"h@	c #619538",
"i@	c #75B444",
"j@	c #76B645",
"k@	c #62973A",
"l@	c #46682B",
"m@	c #517B31",
"n@	c #558033",
"o@	c #4C732E",
"p@	c #365023",
"q@	c #26341E",
"r@	c #30382D",
"s@	c #353D33",
"t@	c #252F21",
"u@	c #263022",
"v@	c #363423",
"w@	c #493822",
"x@	c #4B3720",
"y@	c #333221",
"z@	c #242D21",
"A@	c #344C23",
"B@	c #609538",
"C@	c #6FAB42",
"D@	c #74B344",
"E@	c #6DA940",
"F@	c #558333",
"G@	c #364F23",
"H@	c #395324",
"I@	c #2E431E",
"J@	c #26331D",
"K@	c #252E21",
"L@	c #323A2F",
"M@	c #373F35",
"N@	c #2C3123",
"O@	c #3F301C",
"P@	c #69492A",
"Q@	c #7E5531",
"R@	c #7D532F",
"S@	c #764F2D",
"T@	c #7D5533",
"U@	c #895C37",
"V@	c #805532",
"W@	c #493621",
"X@	c #273023",
"Y@	c #292A1E",
"Z@	c #293023",
"`@	c #2A3B20",
" #	c #436729",
".#	c #517C31",
"+#	c #568434",
"@#	c #598734",
"##	c #365222",
"$#	c #1D2616",
"%#	c #202B1A",
"&#	c #212B1C",
"*#	c #333C31",
"=#	c #384036",
"-#	c #293123",
";#	c #322C1B",
">#	c #513C23",
",#	c #946238",
"'#	c #A56D3F",
")#	c #AE7243",
"!#	c #BA7B49",
"~#	c #BA7C4A",
"{#	c #9C683E",
"]#	c #573921",
"^#	c #593E26",
"/#	c #6E4B2C",
"(#	c #69492E",
"_#	c #5F4329",
":#	c #5B4027",
"<#	c #533C26",
"[#	c #4C3925",
"}#	c #533E25",
"|#	c #564926",
"1#	c #595628",
"2#	c #545328",
"3#	c #545729",
"4#	c #53582A",
"5#	c #53582C",
"6#	c #505332",
"7#	c #484637",
"8#	c #403A34",
"9#	c #463F38",
"0#	c #403C35",
"a#	c #32352B",
"b#	c #2A3326",
"c#	c #252B1C",
"d#	c #302F1E",
"e#	c #67482B",
"f#	c #805633",
"g#	c #A86F42",
"h#	c #C98551",
"i#	c #CB8752",
"j#	c #A16B40",
"k#	c #55381F",
"l#	c #583B23",
"m#	c #6B4729",
"n#	c #774F30",
"o#	c #704A2B",
"p#	c #6D4728",
"q#	c #6D4729",
"r#	c #7B502F",
"s#	c #7B512F",
"t#	c #79512E",
"u#	c #77512E",
"v#	c #76512E",
"w#	c #75502E",
"x#	c #765334",
"y#	c #7D624D",
"z#	c #867365",
"A#	c #87786D",
"B#	c #8F8075",
"C#	c #85786F",
"D#	c #665F56",
"E#	c #404238",
"F#	c #2A3426",
"G#	c #2D2F1F",
"H#	c #433824",
"I#	c #795332",
"J#	c #A76F43",
"K#	c #B27647",
"L#	c #91613A",
"M#	c #4B3824",
"N#	c #3F3523",
"O#	c #4A3A25",
"P#	c #644125",
"Q#	c #5A3F25",
"R#	c #543E26",
"S#	c #553E26",
"T#	c #5B4127",
"U#	c #63452A",
"V#	c #644429",
"W#	c #6D4A2C",
"X#	c #6E492A",
"Y#	c #704C2C",
"Z#	c #6E492B",
"`#	c #6E4A2F",
" $	c #775944",
".$	c #836B5B",
"+$	c #887365",
"@$	c #8D7A6E",
"#$	c #8E7D72",
"$$	c #6E645A",
"%$	c #434439",
"&$	c #293326",
"*$	c #363D33",
"=$	c #3A3422",
"-$	c #63472B",
";$	c #775131",
">$	c #674A2E",
",$	c #393626",
"'$	c #40321E",
")$	c #333222",
"!$	c #242B1E",
"~$	c #362B1D",
"{$	c #6F5338",
"]$	c #69482B",
"^$	c #795D43",
"/$	c #6B4E35",
"($	c #5D3C20",
"_$	c #5D3E25",
":$	c #5E422F",
"<$	c #614736",
"[$	c #5F4A3C",
"}$	c #685A4E",
"|$	c #524D42",
"1$	c #363B2E",
"2$	c #30392E",
"3$	c #353B31",
"4$	c #273124",
"5$	c #24251A",
"6$	c #432F1D",
"7$	c #916C4A",
"8$	c #805835",
"9$	c #9A7858",
"0$	c #846042",
"a$	c #69401B",
"b$	c #603A19",
"c$	c #4E2F14",
"d$	c #432812",
"e$	c #3A2513",
"f$	c #2B261A",
"g$	c #262D20",
"h$	c #313A2F",
"i$	c #252519",
"j$	c #462F1C",
"k$	c #8F6947",
"l$	c #7F5533",
"m$	c #986E4A",
"n$	c #845B38",
"o$	c #6C411C",
"p$	c #623C1A",
"q$	c #4C2F15",
"r$	c #342110",
"s$	c #301F11",
"t$	c #251A11",
"u$	c #222217",
"v$	c #262C20",
"w$	c #283224",
"x$	c #333B30",
"y$	c #222318",
"z$	c #362213",
"A$	c #5F3D23",
"B$	c #5F3C1E",
"C$	c #623E20",
"D$	c #5E3A1D",
"E$	c #56351A",
"F$	c #422A17",
"G$	c #151513",
"H$	c #151512",
"I$	c #161512",
"J$	c #191612",
"K$	c #2A1C12",
"L$	c #2B2619",
"M$	c #292E21",
"N$	c #363E34",
"O$	c #1A2017",
"P$	c #1D1712",
"Q$	c #281D14",
"R$	c #261C14",
"S$	c #262218",
"T$	c #21241A",
"U$	c #1B2119",
"V$	c #1A1D16",
"W$	c #221912",
"X$	c #301E11",
"Y$	c #3D230F",
"Z$	c #3C2410",
"`$	c #322819",
" %	c #31352B",
".%	c #343B32",
"+%	c #1D281B",
"@%	c #192017",
"#%	c #151412",
"$%	c #171512",
"%%	c #1A1D17",
"&%	c #1C221A",
"*%	c #20281C",
"=%	c #242016",
"-%	c #362111",
";%	c #42260E",
">%	c #45270D",
",%	c #4C2D14",
"'%	c #473628",
")%	c #323730",
"!%	c #141412",
"~%	c #151713",
"{%	c #171A15",
"]%	c #1D241A",
"^%	c #22281C",
"/%	c #2A2115",
"(%	c #392310",
"_%	c #4E2D11",
":%	c #78461D",
"<%	c #71482C",
"[%	c #33342E",
"}%	c #1B2419",
"|%	c #161914",
"1%	c #161713",
"2%	c #1C2319",
"3%	c #342717",
"4%	c #71441E",
"5%	c #8D5527",
"6%	c #774D2F",
"7%	c #1B2319",
"8%	c #1B2118",
"9%	c #1B2219",
"0%	c #1C2219",
"a%	c #1F281C",
"b%	c #664222",
"c%	c #965A29",
"d%	c #8C5428",
"e%	c #60432E",
"f%	c #333830",
"g%	c #704926",
"h%	c #8B5629",
"i%	c #6D4523",
"j%	c #3D382B",
"k%	c #202A1C",
"l%	c #30382E",
"m%	c #353C33",
"n%	c #1C2618",
"o%	c #1C2619",
"p%	c #31392F",
"                  . . . .   . + @ # $ % & & * = - ; ;   @ @ > > , . $       ' ) ",
".         ! ! ! !           . @ > > > ~ { { { ] ^ / / $ ( ( ( _ : < ! !     [ ) ",
".     } ; ^ ^ ^ ^ !               > > @ : } ^ ^ / | 1 2 2 2 3 4 5 6 ^ ^ }   7 8 ",
".     } ; ^ ^ ^ ^ !               @ > > + } ^ 9 0 a b c d e f g h i j 9 }   7 8 ",
"        . +   ; ^ ; k !     ! k ; k k k k ; l m n o p q r s t u v w x y z A B C ",
"      . @ @ + k ; ^ ; ! . .   k ; ^ ^ ^ ^ 9 j D E F G t t t t H v I J K L M N O ",
"      . . . . . . ; ;   @ @ + .   ; ^ ^ ^ P Q R S T t t t t u F U V W X Y Z `  .",
"            . > > ; ; . > > > > > k ^ ^ ^ ..+.@.#.$.%.&.*.=.g -.;.>.,.'.).!.~.{.",
"} !         . @ @ k k . > > > ].^./.k ; (._.:.<.[.}.|.1.2.3.4.5.n 6.7.8.9.0.a.b.",
"] ;   + .     . + ! ! . + @ ].A c.d.e.k f.g.h.i.j.k.l.m.n.o.p.q.r.s.t.r.u.v.w.x.",
"{ 9 . @ .               . @ y.z.A.A.A.! B.C.D.E.F.G.H.I.J.K.L.M.n N.O.P.Q.R.S.T.",
"U.V.W.].+           . V.W.z.X.A.A.Y.y.@ Z.`. +.+++@+#+$+%+&+*+=+-+;+;+>+,+'+)+!+",
"A X.A.Y.+           . Y.A.A.A.A.A.^.> > ~+{+]+^+/+(+_+:+<+[+}+|+1+2+3+4+5+  6+7+",
"].].@ 8+9+        ].Y.Y.e.0+/ / / a+a+a+b+c+d+e+f+g+u.h+<+i+j+n k+l+m+n+d.o+p+q+",
"@ +       .       W.X.].$ 9 & & & & & & r+s+t+u+v+w+x+y+z+A+B+C+D+E+F+G+H+z.I+J+",
"! } k ! . + +     @ d.+   K+L+{ & & & & M+N+O+P+Q+R+S+T+U+V+W+X+Y+Z+i `+ @.@B C ",
"^ ^ ; } + > @               +@] { & & & @@#@$@%@&@*@=@1.-@;@>@,@'@)@!@~@{@]@6+) ",
"^ ; } . @ > @               ! ^@9 { & /@(@k _@:@<@-.[@=.}@|@1@2@3@4@5@6@7@8@9@) ",
"; } 8+@ @ @ n+          0@a@b@c@! d@{ - ^ e@f@g@h@H i@j@t t }@k@l@m@n@o@p@q@r@s@",
"  ! /././././.k ..! t@u@v@w@x@y@k ; ; ^ ^ ; z@A@B@H C@D@u s E@F@S+G@H@I@J@K@L@M@",
"@ . k ^ ^ ^ N@O@P@Q@R@S@T@U@V@W@X@! Y@Z@^ ^ e@`@ #<@.#+#;.@#,.##$#3+%#&#! ; *#=#",
"} k ; ^ ^ ^ -#;#>#,#'#)#!#~#{#]#^#/#(#_#:#<#[#}#|#1#2#3#4#5#6#7#8#9#0#a#b#^ *#=#",
"; ^ ^ ^ ^ ^ ..c#d#e#f#g#h#i#j#k#l#m#n#o#p#q#o#r#s#t#u#v#w#x#y#z#A#B#C#D#E#F#*#=#",
"^ ^ ^ ; }     > > G#H#I#J#K#L#M#N#O#P#Q#R#S#T#U#V#W#X#Y#Z#`# $.$+$@$#$$$%$&$L@*$",
"^ ^ ^ k . > > > > .   =$-$;$>$,$^ ^ '$)$; } 9+!$~${$]$^$/$($_$:$<$[$}$|$1$^ 2$3$",
"k ; ^ 4$!   . + +           ! } k k k k } ! + 5$6$7$8$9$0$a$b$c$d$e$f$g$4$^ h$*$",
"  } ; ^ ^ ; ;                               n+i$j$k$l$m$n$o$p$q$r$s$t$u$v$w$x$=#",
"} k ; ; } } !                             . d.y$z$A$B$C$D$E$F$G$H$I$J$K$L$M$L@N$",
"w$^ ^ } . > @                           . + Y.O$P$Q$Q$R$S$5$T$U$V$W$X$Y$Z$`$ %.%",
"} k k ! . + +       . . + d.d.d.d.n++ + + @ +%@%#%$%$%I$%%&%_@n+*%=%-%;%>%,%'%)%",
"! ! !     .         . + > A X.X.X.> @ @ > > +%@%!%!%!%!%~%{%]%  8+^%/%(%_%:%<%[%",
"                    . @ ].z.A.A.A.> > > > > y.}%|%!%!%!%!%1%2%    . ^%3%4%5%6%[%",
"                      . @ ].A ].^.+ + + + + , ^.7%8%9%0%0%2%a%      9+b%c%d%e%f%",
"                        . @ @ . .           . n+> + . . . .           g%h%i%j%) ",
"                        . + + .           . . @ > .               . . .     [ T.",
".                                       . + > > > .             + > > > +   [ T.",
".     ! ! ! ! ! ! ! !                 . e.k%y.y.y.+ . . . . . . + > @ @ +   l%m%",
".     } ; ^ ^ ^ ^ ^ ; !               ].X.n%A.A.o%y.> > > > > > > > + .     p%M@",
"      ! } } k ^ ^ ^ ; k !   . .   n+e.W.A.A.A.X.c.].> @ + + + + + + .       l%s@",
"      . . + . ; ^ ^ ^ ; k . @ .   o+W.n%A.A.o%c.y.> > + . . . . . .         9@.%"};
