/* XPM */
static char * _1_xpm[] = {
"40 40 139 2",
"  	c #1D2619",
". 	c #212B1D",
"+ 	c #232E20",
"@ 	c #202B1D",
"# 	c #1F2A1D",
"$ 	c #1F2A1C",
"% 	c #242F21",
"& 	c #242F20",
"* 	c #2A3626",
"= 	c #2C3828",
"- 	c #273224",
"; 	c #212C1E",
"> 	c #263223",
", 	c #222C1F",
"' 	c #222D1F",
") 	c #273223",
"! 	c #283424",
"~ 	c #2C3728",
"{ 	c #2B3627",
"] 	c #273324",
"^ 	c #253022",
"/ 	c #1F291C",
"( 	c #1C2518",
"_ 	c #283325",
": 	c #242E20",
"< 	c #1E271A",
"[ 	c #263123",
"} 	c #263122",
"| 	c #2A3526",
"1 	c #293426",
"2 	c #1E291B",
"3 	c #273124",
"4 	c #1F281B",
"5 	c #1D271A",
"6 	c #232D1F",
"7 	c #1E281A",
"8 	c #141412",
"9 	c #253021",
"0 	c #9B5A22",
"a 	c #BD9168",
"b 	c #232D20",
"c 	c #1E281B",
"d 	c #70431C",
"e 	c #202A1C",
"f 	c #202A1D",
"g 	c #242E21",
"h 	c #233219",
"i 	c #1F291B",
"j 	c #77B845",
"k 	c #5D8D38",
"l 	c #3F5D27",
"m 	c #44280F",
"n 	c #253023",
"o 	c #ECCBAC",
"p 	c #232E21",
"q 	c #263023",
"r 	c #281D12",
"s 	c #43270F",
"t 	c #43270E",
"u 	c #4C3A24",
"v 	c #714D2F",
"w 	c #1E291C",
"x 	c #30362A",
"y 	c #5F5349",
"z 	c #614F43",
"A 	c #645245",
"B 	c #66554A",
"C 	c #514033",
"D 	c #45311F",
"E 	c #4C2E19",
"F 	c #5E391D",
"G 	c #5F391D",
"H 	c #75451F",
"I 	c #71421E",
"J 	c #71421D",
"K 	c #794923",
"L 	c #724E36",
"M 	c #402818",
"N 	c #2A2418",
"O 	c #79502F",
"P 	c #E5995F",
"Q 	c #BB7D4C",
"R 	c #624328",
"S 	c #2A2D1E",
"T 	c #666057",
"U 	c #D5C2B5",
"V 	c #B39F92",
"W 	c #BDA99B",
"X 	c #CBB9AC",
"Y 	c #BF9377",
"Z 	c #B1703D",
"` 	c #B1703E",
" .	c #9B6135",
"..	c #996134",
"+.	c #8F5D37",
"@.	c #A76F45",
"#.	c #AE6F3C",
"$.	c #6D4221",
"%.	c #684123",
"&.	c #DB9258",
"*.	c #CC854F",
"=.	c #E2985E",
"-.	c #BA7D4D",
";.	c #66472B",
">.	c #302F1F",
",.	c #212B1E",
"'.	c #2F3529",
").	c #4E4941",
"!.	c #403D35",
"~.	c #444038",
"{.	c #4A473F",
"].	c #473B2E",
"^.	c #42301E",
"/.	c #402819",
"(.	c #412819",
"_.	c #4C2E18",
":.	c #452A17",
"<.	c #452A16",
"[.	c #626063",
"}.	c #674937",
"|.	c #4B2E19",
"1.	c #281C14",
"2.	c #674124",
"3.	c #D88F58",
"4.	c #915B32",
"5.	c #9C6336",
"6.	c #B47646",
"7.	c #C18250",
"8.	c #784E2C",
"9.	c #342C1A",
"0.	c #6E421B",
"a.	c #663D1A",
"b.	c #3A2516",
"c.	c #6C482A",
"d.	c #252A1C",
"e.	c #22291C",
"f.	c #1E281C",
"g.	c #292B1C",
"h.	c #282D1F",
"  . + + + + + + + + + @ # $ $ $ @ + + + % % % % % % % & + @ # $ $ @ + + + + + + ",
"+ + + + + + + + + + + + + $ $ $ @ + + + * = = = = = = - + + + + $ $ $ ; + + + + ",
"> > > , . + + + + + + + + ; @ @ ; + ' ' ) ! = = = ~ { ] ^ ' ' ' $ $ @ ' + + + + ",
"= = = / ( + + + + + + + + + + + + + ; $ $ $ = = = { _ _ _ ; $ $ $ @ + + + + + + ",
"= ) : < ( + + + % [ [ [ [ + + + + + ' ; @ $ ^ } | 1 _ _ _ ; $ $ % ^ [ [ [ % + [ ",
"= + ( ( ( + + + ^ _ _ _ _ + + + + + + + @ $ $ @ _ _ _ _ _ ; $ $ _ _ _ _ _ % + _ ",
"' @ 2 ; , + + + ' ; ; [ _ - - + + + ^ - - [ [ - _ _ _ _ _ - [ 3 _ _ _ : 4 < 5 ; ",
"$ $ $ ' + + + + ; $ $ [ _ _ _ + + + [ _ _ _ _ _ _ _ _ _ _ _ _ _ _ _ _ 6 ( ( ( $ ",
"$ ; + + + + + + + + + @ $ _ - $ $ $ $ $ [ _ _ _ _ [ + [ _ _ _ _ _ ^ ( 7 $ $ $ $ ",
"$ ; + + + + + + + + + @ $ _ - 8 8 8 8 8 8 8 8 _ _ [ + [ _ _ _ _ _ ^ ( 7 $ $ $ $ ",
"+ 9 } } } } ^ ' ' + + ; @ - 8 0 0 0 0 a a 0 0 8 _ - % [ - _ _ _ ^ b ( c @ @ @ @ ",
"= = = = = = * $ ; + + + + 8 d 0 0 0 0 0 d d 0 0 8 _ _ ^ + - _ _ ( ( ( e + + + + ",
"= = = = = 9 : 7 f + + + 8 d d 0 0 0 0 0 0 d d 0 0 8 [ % + % % g 7 c e ; + + + ; ",
"= = = = = ( ( ( h h h h h d d 0 0 0 0 0 0 a a 0 0 8 + + + @ $ $ $ @ + + + + + $ ",
"1 1 1 % + 2 i ; h j j j j d d d 0 8 h h h d d h h 8 + + + ' ' ' ' ' + + + / 7   ",
"_ _ _ ; $ $ @ + + h j k k j j d d 8 l 8 8 h h 8 8 8 + + + + + + + + + + + 7 ( ( ",
"_ _ _ _ _ _ _ _ ^ $ h j l l k j d 8 k 8 8 l l 8 8 8 + + + + + + + + + ; $ $ $ + ",
"_ _ _ _ _ _ _ - % $ $ 8 k l h m m 8 k k l k j h h 8 + + + + + + + + + ; $ $ $ + ",
"+ [ _ _ _ _ - $ $ $ $ ' 8 h h m m 8 k k l k j h h 8 + [ _ _ _ _ _ - + + + + + + ",
"+ [ _ _ _ n ^ ' ' ' ' % 8 m m m m 8 k o l l l l l o 8 - _ _ _ _ n ^ ' ' + % ^ ^ ",
"+ [ _ _ _ $ ; _ _ _ _ _ _ 8 8 8 h k o o l k k k o o 8 _ _ _ _ _ $ $ $ ; + - _ _ ",
"+ [ _ [ ^ % ^ _ _ _ _ 8 0 0 m 8 8 h o a l h h h o a 8 _ _ % p + $ @ ; % [ - _ _ ",
"+ [ _ % + _ _ _ _ _ 8 k k 0 0 d m 8 h h h 8 8 h d 8 8 8 _ ; $ $ $ @ + [ _ _ _ _ ",
"+ % % [ - _ _ _ q h k k k k 0 0 d d d d m m m d 0 8 8 8 % + ' ' ' + - - _ _ _ ' ",
"+ + + - _ _ _ _ ^ h k k k k 0 0 d d d o a a a o 0 8 8 8 + + + + + % _ _ _ _ _ $ ",
"+ + + + + + % _ _ 8 l k k l 0 0 d d d d m m m d 0 8 8 + + + + + + + + + + - _ _ ",
"' + + + + % % _ _ - 8 8 h m 0 0 d d d d a a a d 8 8 + + + + + + + + + + % - _ - ",
"( @ + + + _ _ _ ^ $ $ ' 8 0 d m m r r r r r r r $ @ + + + + + + + + + [ _ _ _ $ ",
"( @ + + + [ [ [ % @ @ ' + 8 r r r r r m m s t ; $ u v w ' + + + + + + ^ [ [ [ ; ",
"( @ + + + + + x y z A B C D D E F G H I J K L M N O P Q R S + + + + + + + + + + ",
"( @ + + + + + T U V W X Y Z Z Z Z Z `  ...+.@.#.$.%.&.*.=.-.;.>.: + + + + + + + ",
",.' + + + + + '.).!.~.{.].^././.(.(._.:.<.[.}.|.1.2.3.4.5.6.7.8.9.+ + + + + + + ",
"+ + + + + + + + 8 8 8 8 8 8 m m m d d d d 0.a.m 8 b.c.5 d.e.f.g.h.+ + + + + + + ",
"_ _ _ 4   + + + 8 8 8 8 8 8 8 m m d d d d m 8 8 8 8 8 ; + + + + + ' $ $ $ ' + + ",
"_ _ _ c ( + + + 8 8 8 8 8 8 8 8 8 8 8 8 8 8 8 8 8 8 k 8 + + + + + ' $ $ $ ' + + ",
"_ ,.( ( ( + + + 8 _ 8 8 8 8 8 8 8 + + + + + ( 8 l k k l 8 $ $ $ $ $ $ ; + + + _ ",
"[ .   < 7 + + + % [ [ 8 8 8 8 8 % ' + + , ; ( ( 8 l l l l 8 k @ @ @ @ ' + + + [ ",
"$ $ $ ' + + + + ; $ $ [ 8 8 8 _ ^ $ ; + < ( ( ( ( 8 l l l l l 8 + + + + + + + $ ",
"$ @ ; + + + + + ' ; ; + % _ _ _ - % ' ; 2 7 7 7 7 c 8 l k k 8 8 + + + + + + + ; ",
"$ ; + + + + + + + + + @ $ _ _ _ _ _ + $ $ $ $ $ $ $ $ $ $ $ $ $ + + + + + + + + "};
