/* XPM */
static char * _2_xpm[] = {
"40 40 137 2",
"  	c #1D2619",
". 	c #212B1D",
"+ 	c #232E20",
"@ 	c #202B1D",
"# 	c #1F2A1D",
"$ 	c #1F2A1C",
"% 	c #242F21",
"& 	c #242F20",
"* 	c #2A3626",
"= 	c #2C3828",
"- 	c #273224",
"; 	c #212C1E",
"> 	c #263223",
", 	c #222C1F",
"' 	c #222D1F",
") 	c #273223",
"! 	c #283424",
"~ 	c #2C3728",
"{ 	c #2B3627",
"] 	c #273324",
"^ 	c #253022",
"/ 	c #1F291C",
"( 	c #1C2518",
"_ 	c #283325",
": 	c #242E20",
"< 	c #1E271A",
"[ 	c #263123",
"} 	c #263122",
"| 	c #2A3526",
"1 	c #293426",
"2 	c #1E291B",
"3 	c #273124",
"4 	c #1F281B",
"5 	c #1D271A",
"6 	c #141412",
"7 	c #232D1F",
"8 	c #9B5A22",
"9 	c #BD9168",
"0 	c #1E281A",
"a 	c #70431C",
"b 	c #253021",
"c 	c #232D20",
"d 	c #1E281B",
"e 	c #233219",
"f 	c #202A1C",
"g 	c #202A1D",
"h 	c #77B845",
"i 	c #242E21",
"j 	c #1F291B",
"k 	c #5D8D38",
"l 	c #3F5D27",
"m 	c #44280F",
"n 	c #ECCBAC",
"o 	c #253023",
"p 	c #232E21",
"q 	c #263023",
"r 	c #BA8F66",
"s 	c #693E19",
"t 	c #4D3B26",
"u 	c #714D2F",
"v 	c #33392E",
"w 	c #605349",
"x 	c #614F43",
"y 	c #645245",
"z 	c #66554A",
"A 	c #514033",
"B 	c #42291A",
"C 	c #754520",
"D 	c #5E391D",
"E 	c #4C2E19",
"F 	c #442B19",
"G 	c #3C2618",
"H 	c #3C2617",
"I 	c #57381F",
"J 	c #714624",
"K 	c #42301E",
"L 	c #2B261A",
"M 	c #79502F",
"N 	c #E5995F",
"O 	c #BB7D4D",
"P 	c #624429",
"Q 	c #2B2D1F",
"R 	c #666057",
"S 	c #D5C2B5",
"T 	c #B39F92",
"U 	c #BDA99B",
"V 	c #CBB9AC",
"W 	c #BF9377",
"X 	c #B1703D",
"Y 	c #B1703E",
"Z 	c #9B6135",
"` 	c #996134",
" .	c #8F5D37",
"..	c #A76F45",
"+.	c #AE6F3C",
"@.	c #6D4221",
"#.	c #684123",
"$.	c #DB9258",
"%.	c #CC854F",
"&.	c #E2985E",
"*.	c #BA7D4D",
"=.	c #66472B",
"-.	c #302F1F",
";.	c #2D3227",
">.	c #4D4941",
",.	c #403D35",
"'.	c #444038",
").	c #4A473F",
"!.	c #473B2E",
"~.	c #4B2E18",
"{.	c #5F391D",
"].	c #76451F",
"^.	c #71431E",
"/.	c #4F616D",
"(.	c #784823",
"_.	c #664126",
":.	c #2C261A",
"<.	c #674124",
"[.	c #D88F58",
"}.	c #915B32",
"|.	c #9C6336",
"1.	c #B47646",
"2.	c #C18250",
"3.	c #784E2C",
"4.	c #352E1D",
"5.	c #5C8EA5",
"6.	c #985821",
"7.	c #111211",
"8.	c #3E311E",
"9.	c #6C492B",
"0.	c #1E281C",
"a.	c #252A1C",
"b.	c #22291C",
"c.	c #292B1C",
"d.	c #292F21",
"e.	c #212B1E",
"f.	c #1D2719",
"  . + + + + + + + + + @ # $ $ $ @ + + + % % % % % % % & + @ # $ $ @ + + + + + + ",
"+ + + + + + + + + + + + + $ $ $ @ + + + * = = = = = = - + + + + $ $ $ ; + + + + ",
"> > > , . + + + + + + + + ; @ @ ; + ' ' ) ! = = = ~ { ] ^ ' ' ' $ $ @ ' + + + + ",
"= = = / ( + + + + + + + + + + + + + ; $ $ $ = = = { _ _ _ ; $ $ $ @ + + + + + + ",
"= ) : < ( + + + % [ [ [ [ + + + + + ' ; @ $ ^ } | 1 _ _ _ ; $ $ % ^ [ [ [ % + [ ",
"= + ( ( ( + + + ^ _ _ _ _ + + + + + + + @ $ $ @ _ _ _ _ _ ; $ $ _ _ _ _ _ % + _ ",
"' @ 2 ; , + + + ' ; ; [ _ - - + + + ^ - - [ [ - _ _ _ _ _ - [ 3 _ _ _ : 4 < 5 ; ",
"$ $ $ ' + + + + ; $ $ [ _ _ _ + + 6 6 6 6 6 6 6 6 _ _ _ _ _ _ _ _ _ _ 7 ( ( ( $ ",
"$ ; + + + + + + + + + @ $ _ - $ 6 8 8 8 8 9 9 8 8 6 + [ _ _ _ _ _ ^ ( 0 $ $ $ $ ",
"$ ; + + + + + + + + + @ $ _ - 6 a 8 8 8 8 8 a a 8 8 6 [ _ _ _ _ _ ^ ( 0 $ $ $ $ ",
"+ b } } } } ^ ' ' + + ; @ - 6 a a 8 8 8 8 8 8 a a 8 8 6 - _ _ _ ^ c ( d @ @ @ @ ",
"= = = = = = * $ ; + e e e e e a a 8 8 8 8 8 8 9 9 8 8 6 + - _ _ ( ( ( f + + + + ",
"= = = = = b : 0 g + e h h h h a a a 8 6 e e e a a e e 6 + % % i 0 d f ; + + + ; ",
"= = = = = ( ( ( j + + e h k k h h a a 6 l 6 6 e e 6 6 6 + @ $ $ $ @ + + + + + $ ",
"1 1 1 % + 2 j ; ' + + + e h l l k h a 6 k 6 6 l l 6 6 6 + ' ' ' ' ' + + + / 0   ",
"_ _ _ ; $ $ @ + + + + + + 6 k l e m m 6 k k l k h e e 6 + + + + + + + + + 0 ( ( ",
"_ _ _ _ _ _ _ _ ^ $ $ ' + + 6 e e m m 6 k k l k h e e 6 + + + + + + + ; $ $ $ + ",
"_ _ _ _ _ _ _ - % $ $ ' + + 6 m m m m 6 k n l l l l l n 6 + + + + + + ; $ $ $ + ",
"+ [ _ _ _ _ - $ $ $ $ ' + + + 6 6 6 e k n n l k k k n n 6 _ _ _ _ - + + + + + + ",
"+ [ _ _ _ o ^ ' ' ' ' % ^ + + 6 8 8 6 e n 9 l e e e n 9 6 _ _ _ o ^ ' ' + % ^ ^ ",
"+ [ _ _ _ $ ; _ _ _ _ _ _ + 6 k k 8 8 a e e e 6 6 e a 6 _ _ _ _ $ $ $ ; + - _ _ ",
"+ [ _ [ ^ % ^ _ _ _ _ ^ p e k k k k 8 8 a a a m m a 8 6 _ % p + $ @ ; % [ - _ _ ",
"+ [ _ % + _ _ _ _ _ _ ' $ e k k k k 8 8 a a n 9 9 n 8 6 _ ; $ $ $ @ + [ _ _ _ _ ",
"+ % % [ - _ _ _ q ; ; @ $ 6 l k k l 8 8 a a a m m a 8 6 % + ' ' ' + - - _ _ _ ' ",
"+ + + - _ _ _ _ ^ $ $ $ $ + 6 6 e m 8 8 a a a 9 r s 6 ^ t u # + + % _ _ _ _ _ $ ",
"+ + + + + + % _ _ _ v w x y z A B C D E F F G H I J K L M N O P Q + + + + - _ _ ",
"' + + + + % % _ _ - R S T U V W X X X X X Y Z `  ...+.@.#.$.%.&.*.=.-.: % - _ - ",
"( @ + + + _ _ _ ^ $ ;.>.,.'.).!.K ~.{.{.].].^./.(._.K :.<.[.}.|.1.2.3.4._ _ _ $ ",
"( @ + + + [ [ [ % @ @ ' + + + ' 6 m a a 8 8 8 5.6.7.' ' 8.9.0.a.b.0.c.d.[ [ [ ; ",
"( @ + + + + + + + + + + + + + $ 6 6 6 6 m m 5.5.m m 6 $ $ ' + + + + + + + + + + ",
"( @ + + + + + + + + + + + + + 6 m m m a a a a a a a 6 $ $ ' + + + + + + + + + + ",
"e.' + + + + + + + + + + + + + 6 6 m m a a a a a m 6 6 6 ' + + + + + + + + + + + ",
"+ + + + + + + + + + + + + + 6 6 6 6 6 6 6 6 6 6 6 6 6 6 + + + + + + + + + + + + ",
"_ _ _ 4   + + + + + + + + 6 l l k k 6 + + + + 6 6 6 6 6 + + + + + ' $ $ $ ' + + ",
"_ _ _ d ( + + + + + + + 6 l l l l 6 + + + 6 6 6 6 6 6 6 + + + + + ' $ $ $ ' + + ",
"_ e.( ( ( + + + ^ _ _ _ 6 k l l 6 + + + + 6 6 6 6 6 6 6 $ $ $ $ $ $ $ ; + + + _ ",
"[ .   < 0 + + + % [ [ - 6 k l 6 % ' + + , 6 6 6 6 6 6 2 $ @ @ @ @ @ @ ' + + + [ ",
"$ $ $ ' + + + + ; $ $ [ _ 6 l k ^ $ ; + < 6 6 ( ( f.$ $ $ ' + + + + + + + + + $ ",
"$ @ ; + + + + + ' ; ; + % _ _ _ - % ' ; 2 0 0 0 0 d $ $ $ ; ; ; + + + + + + + ; ",
"$ ; + + + + + + + + + @ $ _ _ _ _ _ + $ $ $ $ $ $ $ $ $ $ $ $ $ + + + + + + + + "};
