/* XPM */
static char * _3_xpm[] = {
"40 40 139 2",
"  	c #1D2619",
". 	c #212B1D",
"+ 	c #232E20",
"@ 	c #202B1D",
"# 	c #1F2A1D",
"$ 	c #1F2A1C",
"% 	c #242F21",
"& 	c #242F20",
"* 	c #2A3626",
"= 	c #2C3828",
"- 	c #273224",
"; 	c #212C1E",
"> 	c #263223",
", 	c #222C1F",
"' 	c #222D1F",
") 	c #273223",
"! 	c #283424",
"~ 	c #2C3728",
"{ 	c #2B3627",
"] 	c #273324",
"^ 	c #253022",
"/ 	c #1F291C",
"( 	c #1C2518",
"_ 	c #283325",
": 	c #242E20",
"< 	c #1E271A",
"[ 	c #263123",
"} 	c #141412",
"| 	c #293426",
"1 	c #9B5A22",
"2 	c #BD9168",
"3 	c #1E291B",
"4 	c #70431C",
"5 	c #273124",
"6 	c #1F281B",
"7 	c #1D271A",
"8 	c #232D1F",
"9 	c #233219",
"0 	c #1E281A",
"a 	c #77B845",
"b 	c #253021",
"c 	c #263122",
"d 	c #5D8D38",
"e 	c #3F5D27",
"f 	c #232D20",
"g 	c #1E281B",
"h 	c #202A1C",
"i 	c #202A1D",
"j 	c #44280F",
"k 	c #242E21",
"l 	c #1F291B",
"m 	c #ECCBAC",
"n 	c #253023",
"o 	c #232E21",
"p 	c #281D12",
"q 	c #2D1E10",
"r 	c #4E3E29",
"s 	c #724E30",
"t 	c #263023",
"u 	c #2F3429",
"v 	c #5F5348",
"w 	c #614F42",
"x 	c #635144",
"y 	c #66554A",
"z 	c #514032",
"A 	c #45311F",
"B 	c #42291A",
"C 	c #452B1A",
"D 	c #442B19",
"E 	c #3C2618",
"F 	c #452A16",
"G 	c #5C3A1F",
"H 	c #714724",
"I 	c #43311F",
"J 	c #2D281D",
"K 	c #79502F",
"L 	c #E5995F",
"M 	c #BB7D4D",
"N 	c #624429",
"O 	c #2A2D1E",
"P 	c #655F56",
"Q 	c #D5C2B5",
"R 	c #B39F92",
"S 	c #BDA99B",
"T 	c #CBB9AC",
"U 	c #BF9377",
"V 	c #B1703D",
"W 	c #B1703E",
"X 	c #9B6135",
"Y 	c #996134",
"Z 	c #8F5D37",
"` 	c #A76F45",
" .	c #AE6F3C",
"..	c #6D4221",
"+.	c #684123",
"@.	c #DB9258",
"#.	c #CC854F",
"$.	c #E2985E",
"%.	c #BA7D4D",
"&.	c #66472B",
"*.	c #313020",
"=.	c #293325",
"-.	c #32382D",
";.	c #4E4B42",
">.	c #403D35",
",.	c #444038",
"'.	c #4A473F",
").	c #473B2E",
"!.	c #42301E",
"~.	c #402819",
"{.	c #4B2E18",
"].	c #5F391D",
"^.	c #76451F",
"/.	c #71431E",
"(.	c #71421D",
"_.	c #626063",
":.	c #6B4427",
"<.	c #402919",
"[.	c #2C261A",
"}.	c #674124",
"|.	c #D88F58",
"1.	c #915B32",
"2.	c #9C6336",
"3.	c #B47646",
"4.	c #C18250",
"5.	c #784E2C",
"6.	c #342C1A",
"7.	c #5C8EA5",
"8.	c #5A8CA2",
"9.	c #3D240F",
"0.	c #3F321F",
"a.	c #6C492B",
"b.	c #1E281C",
"c.	c #252A1C",
"d.	c #22291C",
"e.	c #292B1C",
"f.	c #282D1F",
"g.	c #212B1E",
"h.	c #1D2719",
"  . + + + + + + + + + @ # $ $ $ @ + + + % % % % % % % & + @ # $ $ @ + + + + + + ",
"+ + + + + + + + + + + + + $ $ $ @ + + + * = = = = = = - + + + + $ $ $ ; + + + + ",
"> > > , . + + + + + + + + ; @ @ ; + ' ' ) ! = = = ~ { ] ^ ' ' ' $ $ @ ' + + + + ",
"= = = / ( + + + + + + + + + + + + + ; $ $ $ = = = { _ _ _ ; $ $ $ @ + + + + + + ",
"= ) : < ( + + + % [ [ [ [ + + + + } } } } } } } } | _ _ _ ; $ $ % ^ [ [ [ % + [ ",
"= + ( ( ( + + + ^ _ _ _ _ + + + } 1 1 1 1 2 2 1 1 } _ _ _ ; $ $ _ _ _ _ _ % + _ ",
"' @ 3 ; , + + + ' ; ; [ _ - - } 4 1 1 1 1 1 4 4 1 1 } _ _ - [ 5 _ _ _ : 6 < 7 ; ",
"$ $ $ ' + + + + ; $ $ [ _ _ } 4 4 1 1 1 1 1 1 4 4 1 1 } _ _ _ _ _ _ _ 8 ( ( ( $ ",
"$ ; + + + + + + + + 9 9 9 9 9 4 4 1 1 1 1 1 1 2 2 1 1 } _ _ _ _ _ ^ ( 0 $ $ $ $ ",
"$ ; + + + + + + + + 9 a a a a 4 4 4 1 } 9 9 9 4 4 9 9 } _ _ _ _ _ ^ ( 0 $ $ $ $ ",
"+ b c c c c ^ ' ' + + 9 a d d a a 4 4 } e } } 9 9 } } } - _ _ _ ^ f ( g @ @ @ @ ",
"= = = = = = * $ ; + + + 9 a e e d a 4 } d } } e e } } } + - _ _ ( ( ( h + + + + ",
"= = = = = b : 0 i + + + + } d e 9 j j } d d e d a 9 9 } + % % k 0 g h ; + + + ; ",
"= = = = = ( ( ( l + + + + + } 9 9 j j } d d e d a 9 9 } + @ $ $ $ @ + + + + + $ ",
"| | | % + 3 l ; ' + + + + g } j j j j } d m e e e e e m } ' ' ' ' ' + + + / 0   ",
"_ _ _ ; $ $ @ + + + + + + ( ( } } } 9 d m m e d d d m m } + + + + + + + + 0 ( ( ",
"_ _ _ _ _ _ _ _ ^ $ $ ' + + } 1 1 j } 9 m 2 e 9 9 9 m 2 } + + + + + + ; $ $ $ + ",
"_ _ _ _ _ _ _ - % $ $ ' + } d d 1 1 4 j 9 9 9 } } 9 4 } } + + + + + + ; $ $ $ + ",
"+ [ _ _ _ _ - $ $ $ $ ' 9 d d d d 1 1 4 4 4 4 j j 4 1 } } _ _ _ _ - + + + + + + ",
"+ [ _ _ _ n ^ ' ' ' ' % 9 d d d d 1 1 4 4 4 m 2 2 m 1 } } _ _ _ n ^ ' ' + % ^ ^ ",
"+ [ _ _ _ $ ; _ _ _ _ _ } e d d e 1 1 4 4 4 4 j j 4 1 } } _ _ _ $ $ $ ; + - _ _ ",
"+ [ _ [ ^ % ^ _ _ _ _ ^ o } } 9 j 1 1 4 4 4 4 2 2 4 } } _ % o + $ @ ; % [ - _ _ ",
"+ [ _ % + _ _ _ _ _ _ ' $ $ $ } 1 4 j p p p p p q p _ r s g $ $ $ @ + [ _ _ _ _ ",
"+ % % [ - _ _ _ t u v w x y z A B C C D D E F G H I J K L M N O ' + - - _ _ _ ' ",
"+ + + - _ _ _ _ ^ P Q R S T U V V V V V W X Y Z `  ...+.@.#.$.%.&.*.=._ _ _ _ $ ",
"+ + + + + + % _ _ -.;.>.,.'.).!.~.{.].].^./.(._.:.<.[.}.|.1.2.3.4.5.6.+ + - _ _ ",
"' + + + + % % _ _ - - % + + + + } } } } j j 7.8.9.j } 0.a.b.c.d.b.e.f.+ % - _ - ",
"( @ + + + _ _ _ ^ $ $ ' + + + } j j j 4 4 4 4 4 4 4 } + + + + + + + + [ _ _ _ $ ",
"( @ + + + [ [ [ % @ @ ' + + + } } j j 4 4 4 4 4 4 j } ' ' + + + + + + ^ [ [ [ ; ",
"( @ + + + + + + + + + + + + + } } } } } } } } } } } } $ $ ' + + + + + + + + + + ",
"( @ + + + + + + + + + + + + + } } } } } } } e d d } $ $ $ ' + + + + + + + + + + ",
"g.' + + + + + + + + + + + + + } } } } } } } e d d } $ ; ' + + + + + + + + + + + ",
"+ + + + + + + + + + + + + + + } } } } } + } e e e } $ ; + + + + + + + + + + + + ",
"_ _ _ 6   + + + + + + + + + + } } } } } + } e e e } $ ; + + + + + ' $ $ $ ' + + ",
"_ _ _ g ( + + + + + + + + + + } } + + + + } e e e } $ ; + + + + + ' $ $ $ ' + + ",
"_ g.( ( ( + + + ^ _ _ _ _ _ _ + + + + + + } d d e d } 0 $ $ $ $ $ $ $ ; + + + _ ",
"[ .   < 0 + + + % [ [ - _ _ _ % % ' + + , ; ( ( ( (   3 $ @ @ @ @ @ @ ' + + + [ ",
"$ $ $ ' + + + + ; $ $ [ _ _ _ _ ^ $ ; + < ( ( ( ( h.$ $ $ ' + + + + + + + + + $ ",
"$ @ ; + + + + + ' ; ; + % _ _ _ - % ' ; 3 0 0 0 0 g $ $ $ ; ; ; + + + + + + + ; ",
"$ ; + + + + + + + + + @ $ _ _ _ _ _ + $ $ $ $ $ $ $ $ $ $ $ $ $ + + + + + + + + "};
