/* XPM */
static char * 1_xpm[] = {
"40 40 137 2",
"  	c #1D2619",
". 	c #212B1D",
"+ 	c #232E20",
"@ 	c #202B1D",
"# 	c #1F2A1D",
"$ 	c #1F2A1C",
"% 	c #242F21",
"& 	c #242F20",
"* 	c #2A3626",
"= 	c #2C3828",
"- 	c #273224",
"; 	c #212C1E",
"> 	c #263223",
", 	c #222C1F",
"' 	c #222D1F",
") 	c #273223",
"! 	c #283424",
"~ 	c #2C3728",
"{ 	c #2B3627",
"] 	c #273324",
"^ 	c #253022",
"/ 	c #1F291C",
"( 	c #1C2518",
"_ 	c #141412",
": 	c #283325",
"< 	c #242E20",
"[ 	c #1E271A",
"} 	c #263123",
"| 	c #9B5A22",
"1 	c #BD9168",
"2 	c #70431C",
"3 	c #1E291B",
"4 	c #273124",
"5 	c #1F281B",
"6 	c #1D271A",
"7 	c #233219",
"8 	c #232D1F",
"9 	c #77B845",
"0 	c #1E281A",
"a 	c #5D8D38",
"b 	c #3F5D27",
"c 	c #253021",
"d 	c #263122",
"e 	c #232D20",
"f 	c #1E281B",
"g 	c #44280F",
"h 	c #202A1C",
"i 	c #202A1D",
"j 	c #242E21",
"k 	c #1F291B",
"l 	c #ECCBAC",
"m 	c #293426",
"n 	c #253023",
"o 	c #232E21",
"p 	c #281D12",
"q 	c #2D1E10",
"r 	c #4E3E29",
"s 	c #714E2F",
"t 	c #1F2A1E",
"u 	c #33392E",
"v 	c #5F5349",
"w 	c #614F42",
"x 	c #635144",
"y 	c #665549",
"z 	c #514033",
"A 	c #42291A",
"B 	c #452B1A",
"C 	c #442B19",
"D 	c #452A17",
"E 	c #452A16",
"F 	c #5C3A1F",
"G 	c #714725",
"H 	c #433220",
"I 	c #2D281D",
"J 	c #79502F",
"K 	c #E5995F",
"L 	c #BB7D4C",
"M 	c #624328",
"N 	c #282A1B",
"O 	c #263023",
"P 	c #665F56",
"Q 	c #D5C2B5",
"R 	c #B39F92",
"S 	c #BDA99B",
"T 	c #CBB9AC",
"U 	c #BF9377",
"V 	c #B1703D",
"W 	c #B1703E",
"X 	c #9B6135",
"Y 	c #996134",
"Z 	c #8F5D37",
"` 	c #A76F45",
" .	c #AE6F3C",
"..	c #6D4221",
"+.	c #684123",
"@.	c #DB9258",
"#.	c #CC854F",
"$.	c #E2985E",
"%.	c #BA7D4D",
"&.	c #66472B",
"*.	c #333323",
"=.	c #283224",
"-.	c #2D3227",
";.	c #4D4840",
">.	c #3F3B34",
",.	c #444038",
"'.	c #4A473F",
").	c #473B2E",
"!.	c #402819",
"~.	c #4B2E18",
"{.	c #5F391D",
"].	c #76451F",
"^.	c #71431E",
"/.	c #4F616D",
"(.	c #784823",
"_.	c #664126",
":.	c #2D271B",
"<.	c #674124",
"[.	c #D88F58",
"}.	c #915B32",
"|.	c #9C6336",
"1.	c #B47646",
"2.	c #C18250",
"3.	c #784E2C",
"4.	c #362F1E",
"5.	c #5C8EA5",
"6.	c #43270F",
"7.	c #3D240F",
"8.	c #3F321F",
"9.	c #6C492B",
"0.	c #1E281C",
"a.	c #252A1C",
"b.	c #22291C",
"c.	c #292B1C",
"d.	c #282D1F",
"e.	c #212B1E",
"f.	c #1D2719",
"  . + + + + + + + + + @ # $ $ $ @ + + + % % % % % % % & + @ # $ $ @ + + + + + + ",
"+ + + + + + + + + + + + + $ $ $ @ + + + * = = = = = = - + + + + $ $ $ ; + + + + ",
"> > > , . + + + + + + + + ; @ @ ; + ' ' ) ! = = = ~ { ] ^ ' ' ' $ $ @ ' + + + + ",
"= = = / ( + + + + + + + + + + + + _ _ _ _ _ _ _ _ { : : : ; $ $ $ @ + + + + + + ",
"= ) < [ ( + + + % } } } } + + + _ | | | | 1 1 | | _ : : : ; $ $ % ^ } } } % + } ",
"= + ( ( ( + + + ^ : : : : + + _ 2 | | | | | 2 2 | | _ : : ; $ $ : : : : : % + : ",
"' @ 3 ; , + + + ' ; ; } : - _ 2 2 | | | | | | 2 2 | | _ : - } 4 : : : < 5 [ 6 ; ",
"$ $ $ ' + + + + ; $ 7 7 7 7 7 2 2 | | | | | | 1 1 | | _ : : : : : : : 8 ( ( ( $ ",
"$ ; + + + + + + + + 7 9 9 9 9 2 2 2 | _ 7 7 7 2 2 7 7 _ : : : : : ^ ( 0 $ $ $ $ ",
"$ ; + + + + + + + + + 7 9 a a 9 9 2 2 _ b _ _ 7 7 _ _ _ : : : : : ^ ( 0 $ $ $ $ ",
"+ c d d d d ^ ' ' + + ; 7 9 b b a 9 2 _ a _ _ b b _ _ _ - : : : ^ e ( f @ @ @ @ ",
"= = = = = = * $ ; + + + + _ a b 7 g g _ a a b a 9 7 7 _ + - : : ( ( ( h + + + + ",
"= = = = = c < 0 i + + + + + _ 7 7 g g _ a a b a 9 7 7 _ + % % j 0 f h ; + + + ; ",
"= = = = = ( ( ( k + + + + + _ g g g g _ a l b b b b b l _ @ $ $ $ @ + + + + + $ ",
"m m m % + 3 k ; ' + + + + f 0 _ _ _ 7 a l l b a a a l l _ ' ' ' ' ' + + + / 0   ",
": : : ; $ $ @ + + + + + + ( _ | | g _ 7 l 1 b 7 7 7 l 1 _ + + + + + + + + 0 ( ( ",
": : : : : : : : ^ $ $ ' + _ a a | | 2 g 7 7 7 _ _ 7 2 _ _ + + + + + + ; $ $ $ + ",
": : : : : : : - % $ $ ' 7 a a a a | | 2 2 2 2 g g 2 | _ _ + + + + + + ; $ $ $ + ",
"+ } : : : : - $ $ $ $ ' 7 a a a a | | 2 2 2 l 1 1 l | _ _ : : : : - + + + + + + ",
"+ } : : : n ^ ' ' ' ' % _ b a a b | | 2 2 2 2 g g 2 | _ _ : : : n ^ ' ' + % ^ ^ ",
"+ } : : : $ ; : : : : : : _ _ 7 g | | 2 2 2 2 1 1 2 _ _ : : : : $ $ $ ; + - : : ",
"+ } : } ^ % ^ : : : : ^ o ; ; _ | 2 g p p p p p p q : : r s t + $ @ ; % } - : : ",
"+ } : % + : : : : : u v w x y z A B B B C C D E F G H I J K L M N @ + } : : : : ",
"+ % % } - : : : O ; P Q R S T U V V V V V W X Y Z `  ...+.@.#.$.%.&.*.=.: : : ' ",
"+ + + - : : : : ^ $ -.;.>.,.'.).!.~.{.{.].].^./.(._.H :.<.[.}.|.1.2.3.4.: : : $ ",
"+ + + + + + % : : : : % + + + + _ _ _ _ g g 5.5.6.7._ + 8.9.0.a.b.0.c.d.+ - : : ",
"' + + + + % % : : - - % + + + _ g g g 2 2 2 2 2 2 2 _ + + + + + + + + + % - : - ",
"( @ + + + : : : ^ $ $ ' + + + _ _ g g 2 2 2 2 2 2 g _ + + + + + + + + } : : : $ ",
"( @ + + + } } } % @ @ ' + + + _ _ _ _ _ _ _ _ _ _ _ _ ' ' + + + + + + ^ } } } ; ",
"( @ + + + + + + + + + + + + + _ _ _ _ _ _ _ b a a _ $ $ $ ' + + + + + + + + + + ",
"( @ + + + + + + + + + + + + + _ _ _ _ _ _ _ b a a _ $ $ $ ' + + + + + + + + + + ",
"e.' + + + + + + + + + + + + + _ _ _ _ _ , _ b b b _ $ ; ' + + + + + + + + + + + ",
"+ + + + + + + + + + + + + + + _ _ _ _ _ + _ b b b _ $ ; + + + + + + + + + + + + ",
": : : 5   + + + + + + + + + + _ _ + + + + _ b b b _ $ ; + + + + + ' $ $ $ ' + + ",
": : : f ( + + + + + + + + + + + + + + + + _ a a b a _ ; + + + + + ' $ $ $ ' + + ",
": e.( ( ( + + + ^ : : : : : : + + + + + + + ( ( ( ( ( 0 $ $ $ $ $ $ $ ; + + + : ",
"} .   [ 0 + + + % } } - : : : % % ' + + , ; ( ( ( (   3 $ @ @ @ @ @ @ ' + + + } ",
"$ $ $ ' + + + + ; $ $ } : : : : ^ $ ; + [ ( ( ( ( f.$ $ $ ' + + + + + + + + + $ ",
"$ @ ; + + + + + ' ; ; + % : : : - % ' ; 3 0 0 0 0 f $ $ $ ; ; ; + + + + + + + ; ",
"$ ; + + + + + + + + + @ $ : : : : : + $ $ $ $ $ $ $ $ $ $ $ $ $ + + + + + + + + "};
