/* XPM */
static char * 2_xpm[] = {
"40 40 136 2",
"  	c #1D2619",
". 	c #212B1D",
"+ 	c #232E20",
"@ 	c #202B1D",
"# 	c #1F2A1D",
"$ 	c #1F2A1C",
"% 	c #242F21",
"& 	c #242F20",
"* 	c #2A3626",
"= 	c #2C3828",
"- 	c #273224",
"; 	c #212C1E",
"> 	c #263223",
", 	c #222C1F",
"' 	c #141412",
") 	c #2C3728",
"! 	c #2B3627",
"~ 	c #273324",
"{ 	c #253022",
"] 	c #222D1F",
"^ 	c #1F291C",
"/ 	c #1C2518",
"( 	c #9B5A22",
"_ 	c #BD9168",
": 	c #283325",
"< 	c #273223",
"[ 	c #242E20",
"} 	c #1E271A",
"| 	c #263123",
"1 	c #70431C",
"2 	c #1E291B",
"3 	c #233219",
"4 	c #273124",
"5 	c #1F281B",
"6 	c #1D271A",
"7 	c #77B845",
"8 	c #232D1F",
"9 	c #5D8D38",
"0 	c #3F5D27",
"a 	c #1E281A",
"b 	c #253021",
"c 	c #263122",
"d 	c #44280F",
"e 	c #232D20",
"f 	c #1E281B",
"g 	c #202A1C",
"h 	c #202A1D",
"i 	c #ECCBAC",
"j 	c #242E21",
"k 	c #1F291B",
"l 	c #293426",
"m 	c #253023",
"n 	c #281D12",
"o 	c #2D1E10",
"p 	c #4E3E29",
"q 	c #724E30",
"r 	c #33392E",
"s 	c #605349",
"t 	c #614F43",
"u 	c #635145",
"v 	c #665549",
"w 	c #514133",
"x 	c #453220",
"y 	c #42291A",
"z 	c #452B1A",
"A 	c #442B19",
"B 	c #452A17",
"C 	c #452A16",
"D 	c #5C3A1F",
"E 	c #714725",
"F 	c #433220",
"G 	c #2D281D",
"H 	c #79502F",
"I 	c #E5995F",
"J 	c #BB7D4D",
"K 	c #624429",
"L 	c #282A1B",
"M 	c #666057",
"N 	c #D5C2B5",
"O 	c #B39F92",
"P 	c #BDA99B",
"Q 	c #CBB9AC",
"R 	c #BF9377",
"S 	c #B1703D",
"T 	c #B1703E",
"U 	c #9B6135",
"V 	c #996134",
"W 	c #8F5D37",
"X 	c #A76F45",
"Y 	c #AE6F3C",
"Z 	c #6D4221",
"` 	c #684123",
" .	c #DB9258",
"..	c #CC854F",
"+.	c #E2985E",
"@.	c #BA7D4D",
"#.	c #66462A",
"$.	c #302F1F",
"%.	c #273123",
"&.	c #263023",
"*.	c #2E3328",
"=.	c #4D4940",
"-.	c #3F3B34",
";.	c #444038",
">.	c #4A463F",
",.	c #473B2E",
"'.	c #402819",
").	c #4B2E18",
"!.	c #5F391D",
"~.	c #76451F",
"{.	c #71431E",
"].	c #4F616D",
"^.	c #784823",
"/.	c #664126",
"(.	c #2D271B",
"_.	c #674124",
":.	c #D88F58",
"<.	c #915B32",
"[.	c #9C6336",
"}.	c #B47646",
"|.	c #C18250",
"1.	c #784E2C",
"2.	c #352F1D",
"3.	c #5C8EA5",
"4.	c #43270F",
"5.	c #3D240F",
"6.	c #3F321F",
"7.	c #6C492B",
"8.	c #1E281C",
"9.	c #252A1C",
"0.	c #22291C",
"a.	c #1F291D",
"b.	c #2C2F20",
"c.	c #2C3223",
"d.	c #212B1E",
"e.	c #1D2719",
"  . + + + + + + + + + @ # $ $ $ @ + + + % % % % % % % & + @ # $ $ @ + + + + + + ",
"+ + + + + + + + + + + + + $ $ $ @ + + + * = = = = = = - + + + + $ $ $ ; + + + + ",
"> > > , . + + + + + + + + ; @ @ ; ' ' ' ' ' ' ' ' ) ! ~ { ] ] ] $ $ @ ] + + + + ",
"= = = ^ / + + + + + + + + + + + ' ( ( ( ( _ _ ( ( ' : : : ; $ $ $ @ + + + + + + ",
"= < [ } / + + + % | | | | + + ' 1 ( ( ( ( ( 1 1 ( ( ' : : ; $ $ % { | | | % + | ",
"= + / / / + + + { : : : : + ' 1 1 ( ( ( ( ( ( 1 1 ( ( ' : ; $ $ : : : : : % + : ",
"] @ 2 ; , + + + ] ; 3 3 3 3 3 1 1 ( ( ( ( ( ( _ _ ( ( ' : - | 4 : : : [ 5 } 6 ; ",
"$ $ $ ] + + + + ; $ 3 7 7 7 7 1 1 1 ( ' 3 3 3 1 1 3 3 ' : : : : : : : 8 / / / $ ",
"$ ; + + + + + + + + + 3 7 9 9 7 7 1 1 ' 0 ' ' 3 3 ' ' ' : : : : : { / a $ $ $ $ ",
"$ ; + + + + + + + + + @ 3 7 0 0 9 7 1 ' 9 ' ' 0 0 ' ' ' : : : : : { / a $ $ $ $ ",
"+ b c c c c { ] ] + + ; @ ' 9 0 3 d d ' 9 9 0 9 7 3 3 ' - : : : { e / f @ @ @ @ ",
"= = = = = = * $ ; + + + + + ' 3 3 d d ' 9 9 0 9 7 3 3 ' + - : : / / / g + + + + ",
"= = = = = b [ a h + + + + + ' d d d d ' 9 i 0 0 0 0 0 i ' % % j a f g ; + + + ; ",
"= = = = = / / / k + + + + + ] ' ' ' 3 9 i i 0 9 9 9 i i ' @ $ $ $ @ + + + + + $ ",
"l l l % + 2 k ; ] + + + + f a ' ( ( ' 3 i _ 0 3 3 3 i _ ' ] ] ] ] ] + + + ^ a   ",
": : : ; $ $ @ + + + + + + / ' 9 9 ( ( 1 3 3 3 ' ' 3 1 ' + + + + + + + + + a / / ",
": : : : : : : : { $ $ ] + 3 9 9 9 9 ( ( 1 1 1 d d 1 ( ' + + + + + + + ; $ $ $ + ",
": : : : : : : - % $ $ ] + 3 9 9 9 9 ( ( 1 1 i _ _ i ( ' + + + + + + + ; $ $ $ + ",
"+ | : : : : - $ $ $ $ ] + ' 0 9 9 0 ( ( 1 1 1 d d 1 ( ' : : : : : - + + + + + + ",
"+ | : : : m { ] ] ] ] % { + ' ' 3 d ( ( 1 1 1 _ _ 1 ' - : : : : m { ] ] + % { { ",
"+ | : : : $ ; : : : : : : + + : ' ( 1 d n n n n n o : : p q j : $ $ $ ; + - : : ",
"+ | : | { % { : : : r s t u v w x y z z A A B C D E F G H I J K L @ ; % | - : : ",
"+ | : % + : : : : : M N O P Q R S S S S S T U V W X Y Z `  ...+.@.#.$.%.: : : : ",
"+ % % | - : : : &.; *.=.-.;.>.,.'.).!.!.~.~.{.].^./.F (._.:.<.[.}.|.1.2.: : : ] ",
"+ + + - : : : : { $ $ $ $ + + + ' ' ' ' d d 3.3.4.5.' { 6.7.8.9.0.a.b.c.: : : $ ",
"+ + + + + + % : : : : % + + + ' d d d 1 1 1 1 1 1 1 ' + + + + + + + + + + - : : ",
"] + + + + % % : : - - % + + + ' ' d d 1 1 1 1 1 d ' ' ' + + + + + + + + % - : - ",
"/ @ + + + : : : { $ $ ] + + ' ' ' ' ' ' ' ' ' ' ' ' ' ' + + + + + + + | : : : $ ",
"/ @ + + + | | | % @ @ ] + ' 0 0 9 9 ' d.; ] ] ' ' ' ' ' ] + + + + + + { | | | ; ",
"/ @ + + + + + + + + + + ' 0 0 0 0 ' / / 2 ' ' ' ' ' ' ' $ ] + + + + + + + + + + ",
"/ @ + + + + + + + + + + ' 9 0 0 ' / / / 2 ' ' ' ' ' ' ' $ ] + + + + + + + + + + ",
"d.] + + + + + + + + + + ' 9 0 ' d.f g d., ' ' ' ' ' ' ; ] + + + + + + + + + + + ",
"+ + + + + + + + + + + + + ' 0 9 ] $ ; + + ' ' + + ] $ ; + + + + + + + + + + + + ",
": : : 5   + + + + + + + + + + + + + + + + + + + $ $ $ ; + + + + + ] $ $ $ ] + + ",
": : : f / + + + + + + + + + + + + + + + + + + ] $ $ $ ; + + + + + ] $ $ $ ] + + ",
": d./ / / + + + { : : : : : : + + + + + + + / / / / / a $ $ $ $ $ $ $ ; + + + : ",
"| .   } a + + + % | | - : : : % % ] + + , ; / / / /   2 $ @ @ @ @ @ @ ] + + + | ",
"$ $ $ ] + + + + ; $ $ | : : : : { $ ; + } / / / / e.$ $ $ ] + + + + + + + + + $ ",
"$ @ ; + + + + + ] ; ; + % : : : - % ] ; 2 a a a a f $ $ $ ; ; ; + + + + + + + ; ",
"$ ; + + + + + + + + + @ $ : : : : : + $ $ $ $ $ $ $ $ $ $ $ $ $ + + + + + + + + "};
