/* XPM */
static char * 3_xpm[] = {
"40 40 134 2",
"  	c #1D2619",
". 	c #212B1D",
"+ 	c #232E20",
"@ 	c #202B1D",
"# 	c #1F2A1D",
"$ 	c #1F2A1C",
"% 	c #141412",
"& 	c #9B5A22",
"* 	c #BD9168",
"= 	c #242F21",
"- 	c #242F20",
"; 	c #70431C",
"> 	c #2C3828",
", 	c #273224",
"' 	c #212C1E",
") 	c #263223",
"! 	c #222C1F",
"~ 	c #2B3627",
"{ 	c #273324",
"] 	c #253022",
"^ 	c #222D1F",
"/ 	c #1F291C",
"( 	c #1C2518",
"_ 	c #233219",
": 	c #283325",
"< 	c #273223",
"[ 	c #242E20",
"} 	c #1E271A",
"| 	c #77B845",
"1 	c #263123",
"2 	c #5D8D38",
"3 	c #3F5D27",
"4 	c #1E291B",
"5 	c #273124",
"6 	c #1F281B",
"7 	c #1D271A",
"8 	c #44280F",
"9 	c #232D1F",
"0 	c #1E281A",
"a 	c #ECCBAC",
"b 	c #253021",
"c 	c #263122",
"d 	c #232D20",
"e 	c #1E281B",
"f 	c #2A3626",
"g 	c #202A1C",
"h 	c #202A1D",
"i 	c #242E21",
"j 	c #1F291B",
"k 	c #293426",
"l 	c #281D12",
"m 	c #2D1E10",
"n 	c #4E3D28",
"o 	c #714D2F",
"p 	c #2E3328",
"q 	c #5F5248",
"r 	c #614F42",
"s 	c #635144",
"t 	c #66554A",
"u 	c #514033",
"v 	c #42291A",
"w 	c #452B1A",
"x 	c #442B19",
"y 	c #452A17",
"z 	c #452A16",
"A 	c #5C3A1F",
"B 	c #714724",
"C 	c #433220",
"D 	c #2D281D",
"E 	c #79502F",
"F 	c #E5995F",
"G 	c #BB7D4D",
"H 	c #63462B",
"I 	c #2E3223",
"J 	c #253023",
"K 	c #666056",
"L 	c #D5C2B5",
"M 	c #B39F92",
"N 	c #BDA99B",
"O 	c #CBB9AC",
"P 	c #BF9377",
"Q 	c #B1703D",
"R 	c #B1703E",
"S 	c #9B6135",
"T 	c #996134",
"U 	c #8F5D37",
"V 	c #A76F45",
"W 	c #AE6F3C",
"X 	c #6D4221",
"Y 	c #684123",
"Z 	c #DB9258",
"` 	c #CC854F",
" .	c #E2985E",
"..	c #BA7D4D",
"+.	c #67482D",
"@.	c #343324",
"#.	c #263023",
"$.	c #32382D",
"%.	c #4E4B42",
"&.	c #413E36",
"*.	c #45423A",
"=.	c #4B4840",
"-.	c #483C2F",
";.	c #42301E",
">.	c #402819",
",.	c #4B2E18",
"'.	c #5F391D",
").	c #76451F",
"!.	c #71431E",
"~.	c #71421D",
"{.	c #784823",
"].	c #674937",
"^.	c #402919",
"/.	c #2E281C",
"(.	c #674124",
"_.	c #D88F58",
":.	c #915B32",
"<.	c #9C6336",
"[.	c #B47646",
"}.	c #C18250",
"|.	c #784E2C",
"1.	c #322917",
"2.	c #232E21",
"3.	c #5A8CA2",
"4.	c #548297",
"5.	c #403522",
"6.	c #6D4A2C",
"7.	c #292E20",
"8.	c #22291D",
"9.	c #1E281D",
"0.	c #292B1C",
"a.	c #252A1B",
"b.	c #212B1E",
"c.	c #1D2719",
"  . + + + + + + + + + @ # $ % & & & & * * & & % = = = - + @ # $ $ @ + + + + + + ",
"+ + + + + + + + + + + + + % ; & & & & & ; ; & & % > > , + + + + $ $ $ ' + + + + ",
") ) ) ! . + + + + + + + % ; ; & & & & & & ; ; & & % ~ { ] ^ ^ ^ $ $ @ ^ + + + + ",
"> > > / ( + + + _ _ _ _ _ ; ; & & & & & & * * & & % : : : ' $ $ $ @ + + + + + + ",
"> < [ } ( + + + _ | | | | ; ; ; & % _ _ _ ; ; _ _ % : : : ' $ $ = ] 1 1 1 = + 1 ",
"> + ( ( ( + + + ] _ | 2 2 | | ; ; % 3 % % _ _ % % % : : : ' $ $ : : : : : = + : ",
"^ @ 4 ' ! + + + ^ ' _ | 3 3 2 | ; % 2 % % 3 3 % % % : : : , 1 5 : : : [ 6 } 7 ' ",
"$ $ $ ^ + + + + ' $ $ % 2 3 _ 8 8 % 2 2 3 2 | _ _ % : : : : : : : : : 9 ( ( ( $ ",
"$ ' + + + + + + + + + @ % _ _ 8 8 % 2 2 3 2 | _ _ % + 1 : : : : : ] ( 0 $ $ $ $ ",
"$ ' + + + + + + + + + @ % 8 8 8 8 % 2 a 3 3 3 3 3 a % 1 : : : : : ] ( 0 $ $ $ $ ",
"+ b c c c c ] ^ ^ + + ' @ % % % _ 2 a a 3 2 2 2 a a % 1 , : : : ] d ( e @ @ @ @ ",
"> > > > > > f $ ' + + % & & 8 % % _ a * 3 _ _ _ a * % ] + , : : ( ( ( g + + + + ",
"> > > > > b [ 0 h + % 2 2 & & ; 8 % _ _ _ % % _ ; % % % + = = i 0 e g ' + + + ' ",
"> > > > > ( ( ( j _ 2 2 2 2 & & ; ; ; ; 8 8 8 ; & % % % + @ $ $ $ @ + + + + + $ ",
"k k k = + 4 j ' ^ _ 2 2 2 2 & & ; ; ; a * * * a & % % % + ^ ^ ^ ^ ^ + + + / 0   ",
": : : ' $ $ @ + + % 3 2 2 3 & & ; ; ; ; 8 8 8 ; & % % + + + + + + + + + + 0 ( ( ",
": : : : : : : : ] $ % % _ 8 & & ; ; ; ; * * * ; % % + + + + + + + + + ' $ $ $ + ",
": : : : : : : , = $ $ ^ % & ; 8 8 l l l l l m l : n o # + + + + + + + ' $ $ $ + ",
"+ 1 : : : : , p q r s t u v w w w x x y z A B C D E F G H I : : : , + + + + + + ",
"+ 1 : : : J ] K L M N O P Q Q Q Q Q R S T U V W X Y Z `  ...+.@.#.] ^ ^ + = ] ] ",
"+ 1 : : : $ ' $.%.&.*.=.-.;.>.,.'.'.).!.~.{.].^./.(._.:.<.[.}.|.1.$ $ ' + , : : ",
"+ 1 : 1 ] = ] : : : : ] 2.' % % % % 8 8 8 3.4.8 % 5.6.d 7.8.9.0.a.@ ' = 1 , : : ",
"+ 1 : = + : : : % % % % % % 8 8 8 ; ; ; ; ; ; 8 % % : : : ' $ $ $ @ + 1 : : : : ",
"+ = = 1 , : : : % % % % % % % 8 8 ; ; ; ; 8 % % % % % 1 = + ^ ^ ^ + , , : : : ^ ",
"+ + + , : : : : % % % % % % % % % % % % % % % % % % 2 % + + + + + = : : : : : $ ",
"+ + + + + + = : % : % % % % % % % + + + + + + % 3 2 2 3 % + + + + + + + + , : : ",
"^ + + + + = = : : , , % % % % % + + + + + + + + % 3 3 3 3 % 2 + + + + + = , : , ",
"( @ + + + : : : ] $ $ ^ % % % + + + + + + + + + $ % 3 3 3 3 3 % + + + 1 : : : $ ",
"( @ + + + 1 1 1 = @ @ ^ + + + ^ ' b.b.b.' ^ ^ ' $ @ % 3 2 2 % % + + + ] 1 1 1 ' ",
"( @ + + + + + + + + + + + + + $ e ( ( ( 4 $ $ $ $ $ $ $ $ ^ + + + + + + + + + + ",
"( @ + + + + + + + + + + + + + $ e ( ( ( 4 $ $ $ $ $ $ $ $ ^ + + + + + + + + + + ",
"b.^ + + + + + + + + + + + + + ^ b.e g b.! ^ ^ ^ ^ ' $ ' ^ + + + + + + + + + + + ",
"+ + + + + + + + + + + + + + + + ^ $ ' + + + + + + ^ $ ' + + + + + + + + + + + + ",
": : : 6   + + + + + + + + + + + + + + + + + + + $ $ $ ' + + + + + ^ $ $ $ ^ + + ",
": : : e ( + + + + + + + + + + + + + + + + + + ^ $ $ $ ' + + + + + ^ $ $ $ ^ + + ",
": b.( ( ( + + + ] : : : : : : + + + + + + + ( ( ( ( ( 0 $ $ $ $ $ $ $ ' + + + : ",
"1 .   } 0 + + + = 1 1 , : : : = = ^ + + ! ' ( ( ( (   4 $ @ @ @ @ @ @ ^ + + + 1 ",
"$ $ $ ^ + + + + ' $ $ 1 : : : : ] $ ' + } ( ( ( ( c.$ $ $ ^ + + + + + + + + + $ ",
"$ @ ' + + + + + ^ ' ' + = : : : , = ^ ' 4 0 0 0 0 e $ $ $ ' ' ' + + + + + + + ' ",
"$ ' + + + + + + + + + @ $ : : : : : + $ $ $ $ $ $ $ $ $ $ $ $ $ + + + + + + + + "};
