/* XPM */
static char * trunk_open_xpm[] = {
"40 40 229 2",
"  	c #1C2618",
". 	c #1D2619",
"+ 	c #232E20",
"@ 	c #222D1F",
"# 	c #1F2A1C",
"$ 	c #242F20",
"% 	c #202B1D",
"& 	c #283425",
"* 	c #2C3828",
"= 	c #283324",
"- 	c #212C1E",
"; 	c #263123",
"> 	c #253021",
", 	c #212B1E",
"' 	c #263122",
") 	c #2B3728",
"! 	c #2B3627",
"~ 	c #253022",
"{ 	c #1C2518",
"] 	c #2A3626",
"^ 	c #2B3727",
"/ 	c #283325",
"( 	c #2C3728",
"_ 	c #242E20",
": 	c #212B1D",
"< 	c #242F21",
"[ 	c #232E1F",
"} 	c #2A3526",
"| 	c #293526",
"1 	c #252F22",
"2 	c #242E21",
"3 	c #1F291B",
"4 	c #202A1D",
"5 	c #273224",
"6 	c #232D1F",
"7 	c #1E271A",
"8 	c #1D271A",
"9 	c #1D2719",
"0 	c #222C1E",
"a 	c #243437",
"b 	c #25363E",
"c 	c #1C2324",
"d 	c #222C1F",
"e 	c #1E281B",
"f 	c #263023",
"g 	c #1F291C",
"h 	c #212E25",
"i 	c #2B4041",
"j 	c #2F4343",
"k 	c #2A3730",
"l 	c #202824",
"m 	c #23323A",
"n 	c #25363D",
"o 	c #232D20",
"p 	c #1E281A",
"q 	c #1B2119",
"r 	c #4A7183",
"s 	c #598093",
"t 	c #5A8092",
"u 	c #39505A",
"v 	c #222D32",
"w 	c #314A56",
"x 	c #324C58",
"y 	c #3A5967",
"z 	c #548195",
"A 	c #517D91",
"B 	c #538095",
"C 	c #3E606F",
"D 	c #344852",
"E 	c #547889",
"F 	c #548094",
"G 	c #141412",
"H 	c #171A14",
"I 	c #243021",
"J 	c #273223",
"K 	c #1D241A",
"L 	c #3C4144",
"M 	c #43362C",
"N 	c #423223",
"O 	c #30434C",
"P 	c #497082",
"Q 	c #4A7385",
"R 	c #4A7284",
"S 	c #3E5D6B",
"T 	c #3A5663",
"U 	c #4A7184",
"V 	c #3F3630",
"W 	c #444A4E",
"X 	c #20271D",
"Y 	c #473525",
"Z 	c #251E17",
"` 	c #2C424D",
" .	c #517C8F",
"..	c #2D3E45",
"+.	c #4C7587",
"@.	c #35515E",
"#.	c #503C29",
"$.	c #1F2B30",
"%.	c #436677",
"&.	c #527D91",
"*.	c #456A7B",
"=.	c #23343B",
"-.	c #191D16",
";.	c #1F2C32",
">.	c #304854",
",.	c #223239",
"'.	c #191E17",
").	c #1A2017",
"!.	c #191F17",
"~.	c #282018",
"{.	c #1A1714",
"].	c #1A1917",
"^.	c #1C2529",
"/.	c #1A2022",
"(.	c #181613",
"_.	c #191713",
":.	c #181C1D",
"<.	c #1B1D1D",
"[.	c #1E241B",
"}.	c #523D2A",
"|.	c #534D48",
"1.	c #5C8EA5",
"2.	c #4F7486",
"3.	c #453326",
"4.	c #4C3828",
"5.	c #465F6C",
"6.	c #56646C",
"7.	c #3C2D20",
"8.	c #463424",
"9.	c #474340",
"0.	c #537F94",
"a.	c #476777",
"b.	c #3B2C21",
"c.	c #403022",
"d.	c #3E5561",
"e.	c #4B5860",
"f.	c #443324",
"g.	c #422E1D",
"h.	c #4C3520",
"i.	c #4C4038",
"j.	c #4C7284",
"k.	c #455E6B",
"l.	c #443020",
"m.	c #483220",
"n.	c #414F57",
"o.	c #4C5155",
"p.	c #4B3420",
"q.	c #5F4127",
"r.	c #513822",
"s.	c #4A3B32",
"t.	c #3F6170",
"u.	c #3C515B",
"v.	c #43301F",
"w.	c #47321F",
"x.	c #3B454B",
"y.	c #474849",
"z.	c #6C4A2B",
"A.	c #253023",
"B.	c #2F2217",
"C.	c #181D15",
"D.	c #1C2219",
"E.	c #4B5155",
"F.	c #43525A",
"G.	c #1B2124",
"H.	c #24353C",
"I.	c #202D33",
"J.	c #1E2A2F",
"K.	c #1B2224",
"L.	c #3C4A52",
"M.	c #1C2119",
"N.	c #20241B",
"O.	c #573B25",
"P.	c #6D4A2C",
"Q.	c #6E4B2C",
"R.	c #394B54",
"S.	c #3A4B54",
"T.	c #3B4C54",
"U.	c #3A4C54",
"V.	c #547E93",
"W.	c #496D7E",
"X.	c #446676",
"Y.	c #3A4C56",
"Z.	c #654B38",
"`.	c #624329",
" +	c #1B2019",
".+	c #26231C",
"++	c #30221E",
"@+	c #68472A",
"#+	c #382B21",
"$+	c #423124",
"%+	c #463625",
"&+	c #433325",
"*+	c #412F24",
"=+	c #423A36",
"-+	c #454C4F",
";+	c #423D3B",
">+	c #3B2C22",
",+	c #65452A",
"'+	c #322420",
")+	c #202A1C",
"!+	c #403323",
"~+	c #453625",
"{+	c #65462A",
"]+	c #1C2619",
"^+	c #3E3122",
"/+	c #433424",
"(+	c #3C2D23",
"_+	c #3C2C23",
":+	c #3F3223",
"<+	c #403223",
"[+	c #503B29",
"}+	c #453525",
"|+	c #26251C",
"1+	c #2D211D",
"2+	c #614229",
"3+	c #67462A",
"4+	c #3B2F21",
"5+	c #4C3827",
"6+	c #5F4228",
"7+	c #2E221E",
"8+	c #171A15",
"9+	c #1B2219",
"0+	c #1C231A",
"a+	c #2C271F",
"b+	c #2F2820",
"c+	c #181C15",
"d+	c #2B261E",
"e+	c #1A1F17",
"f+	c #252F21",
"  . + + + + + + + + + @ # # # # # + + + + $ $ $ $ $ $ + + % # # # % + + + + + + ",
"+ + + + + + + + + + + + + % # # # + + + & * * * * * * = + + + + # # # - + + + + ",
"; ; ; > , @ + + + + + + + - % % % + + @ ' & ) * * * ! = ~ @ @ @ # # % @ + + + + ",
"* * * = { % + + + + + + + + + + + + @ # # # ] * * ^ / / / - # # # % + + + + + + ",
"* ( _ : { % + + + ; ; ; ; < + + + + [ - % # < ~ } | / / / - # # 1 ~ ; ; ; 2 + ; ",
"* ^ { { { % + + + / / / / ~ + + + + + + - # # # / / / / / - # # / / / / / < + / ",
"- - 3 4 @ + + + + , , < / / 5 + + + < 5 5 5 5 5 / / / / / 5 5 5 / / / 6 7 8 9 , ",
"# # # % + + + + + # # + / / / + + + ~ / / / / / / / / / / / / / / / / 0 { { { # ",
"# # + + + @ a b b c d 4 e 2 f g e h i i j k f f f 1 d 2 l m b n f o { p # # # # ",
"# # + + + q r s t u v v v v v w x y z A B C x x v v v v D E t F G H { p # # # # ",
"I > J J J K L M N O O O O O O P Q R S G T U Q Q O O O O O V N W G H { 3 - - - - ",
"* * * * * X Y Z G G G G G G G G G `  ...+.@.G G G G G G G G G #.G H { 4 + + + + ",
"* * * * * X Y Z G G G G G G G G G $.%.&.*.=.G G G G G G G G G #.G -.: @ + + + % ",
"* * * * * X Y Z G G G G G G G G G G ;.>.,.G G G G G G G G G G #.G '.+ + + + + # ",
"/ / / ; % ).Y Z G G G G G G G G G G G G G G G G G G G G G G G #.G '.+ + + 7 . { ",
"/ / / ~ # !.Y ~.{.].^./.(.{.{.{.{.{.{.{.{.{.{.{.{._.:.^.<.{.{.#.G '.+ + + 8 { { ",
"/ / / / / [.Y }.}.|.1.2.3.}.}.}.}.}.}.}.}.}.}.}.}.4.5.1.6.}.}.#.G '.+ - # # # + ",
"5 5 / / / [.7.8.8.9.0.a.b.8.8.8.8.8.8.8.8.8.8.8.8.c.d.0.e.8.8.f.G '.+ - % % % + ",
"+ + / / / [.g.h.h.i.j.k.l.h.h.h.h.h.h.h.h.h.h.h.h.m.n.j.o.h.h.p.G '.+ + + + + + ",
"+ + / / / [.q.r.p.s.t.u.v.p.p.p.p.p.p.p.p.p.p.p.p.w.x.t.y.p.p.z.G -.- @ + A.; ; ",
"+ + / / / [.q.B.G G G G G G G G G G G G G G G G G G G G G G G z.G C.# - + 5 / / ",
"+ + / 5 < D.q.B.G G G G G G G G G G G G G G G G G G G G G G G z.G '.@ ~ 5 / / / ",
"+ + / ; + q q.B.G G G G G G G G G G G G G G G G G G G G G G G z.G '.+ ; / / / / ",
"+ + + ~ / [.q.E.F.G.G.G.G.G.G.G.H.H.I.G J.H.H.K.G.G.G.G.G.L.F.z.G M./ / / / / # ",
"+ + + < 5 N.O.P.Q.R.S.T.U.R.R.R.V.V.W.v X.V.V.Y.R.S.T.U.R.Z.Q.`.G  +5 5 5 / / - ",
"+ + + + + .+++@+Q.#+$+%+&+*+*+*+*+*+=+-+;+*+*+*+*+$+%+&+>+,+Q.'+G '.+ + + 5 / / ",
")+)++ + + .+++@+Q.!+}.}.}.}.}.}.}.}.}.}.}.}.}.}.}.}.}.}.~+{+Q.'+G '.+ ~ ; / / < ",
"{ ]++ + + .+++@+Q.!+}.}.}.}.}.}.}.}.}.}.}.}.}.}.}.}.}.}.~+{+Q.'+G '.+ ; / / / # ",
"{ ]++ + + .+++@+Q.^+/+/+/+/+/+(+_+_+_+_+_+_+_+_+/+/+/+/+:+{+Q.'+G '.+ < < < < @ ",
"{ ]++ + + .+++@+Q.<+#.#.#.#.#.[+[+[+[+[+[+[+[+[+#.#.#.#.}+{+Q.'+G '.+ + + + + + ",
"{ . + + + .+++@+Q.!+}.}.}.}.}.}.}.}.}.}.}.}.}.}.}.}.}.}.~+{+Q.'+G '.+ + + + + + ",
"+ + + + + |+1+2+3+4+5+5+5+5+5+5+5+5+5+5+5+5+5+5+5+5+5+5+<+6+3+7+8+9++ + + + + + ",
"~ ~ ~ + , @ 0+a+b+'.'.'.'.'.'.'.'.'.'.'.'.'.'.'.c+c+c+-.'.d+b+e++ + @ @ @ + + + ",
"/ / / f+{ % + + + + + + + + + + + + + + + + + + # # # - + + + + + @ # # # @ + + ",
"/ / 0 )+{ % + + + ; ; ; ; ; ; + + + + + + + )+g 8 8 8 # - - - - - % # % - + + ; ",
"/ 5 { { { % + + + / / / / / / + + + + + + + 9 { { { { p # # # # # # # - + + + / ",
"- - 3 4 @ o + + + - - < / / / 5 5 % - + )+8 { { { . 3 # # @ @ @ @ @ @ + + + + - ",
"# # # % + + + + + # # + / / / / / # % + g { { { { . # # # @ + + + + + + + + + # ",
"# # + + + + + + + + + @ # ~ / / / / ~ # # # # # # # # # # # # # + + + + + + + + ",
"# # + + + + + + + + + @ # ~ / / / / ~ # # # # # # # # # # # # # + + + + + + + + "};
