/* XPM */
static char * food_1_xpm[] = {
"40 40 219 2",
"  	c #1D2619",
". 	c #212B1D",
"+ 	c #232E20",
"@ 	c #202B1D",
"# 	c #1F2A1D",
"$ 	c #1F2A1C",
"% 	c #242F21",
"& 	c #242F20",
"* 	c #2A3626",
"= 	c #2C3828",
"- 	c #273224",
"; 	c #212C1E",
"> 	c #263223",
", 	c #222C1F",
"' 	c #222D1F",
") 	c #273223",
"! 	c #283424",
"~ 	c #2C3728",
"{ 	c #2B3627",
"] 	c #273324",
"^ 	c #253022",
"/ 	c #1F291C",
"( 	c #1C2518",
"_ 	c #283325",
": 	c #242E20",
"< 	c #1E271A",
"[ 	c #263123",
"} 	c #263122",
"| 	c #2A3526",
"1 	c #293426",
"2 	c #1E291B",
"3 	c #273124",
"4 	c #1F281B",
"5 	c #1D271A",
"6 	c #232D1F",
"7 	c #1E281A",
"8 	c #253021",
"9 	c #1F291B",
"0 	c #242E21",
"a 	c #232D20",
"b 	c #1E281B",
"c 	c #202A1C",
"d 	c #202A1D",
"e 	c #3D4025",
"f 	c #726B32",
"g 	c #736A2B",
"h 	c #74672B",
"i 	c #75672C",
"j 	c #73682C",
"k 	c #6D6A35",
"l 	c #343A24",
"m 	c #817B49",
"n 	c #EEE06D",
"o 	c #F3E361",
"p 	c #E6D76D",
"q 	c #6D6335",
"r 	c #454727",
"s 	c #B4AE70",
"t 	c #DCBF59",
"u 	c #FCD545",
"v 	c #FCD33E",
"w 	c #F9D245",
"x 	c #D6B75E",
"y 	c #B2A76F",
"z 	c #343924",
"A 	c #6F612F",
"B 	c #E9DA82",
"C 	c #FEE765",
"D 	c #FCCB32",
"E 	c #FCC32F",
"F 	c #FBBF2D",
"G 	c #FDC635",
"H 	c #FCC42F",
"I 	c #FCCB36",
"J 	c #FDE172",
"K 	c #E6DD8A",
"L 	c #5D573E",
"M 	c #3A3833",
"N 	c #A49540",
"O 	c #EFCE48",
"P 	c #FBCE3D",
"Q 	c #FCCE37",
"R 	c #FCCA31",
"S 	c #F79814",
"T 	c #F1860A",
"U 	c #F28B0E",
"V 	c #F8A61B",
"W 	c #FCCB33",
"X 	c #FDD23E",
"Y 	c #FADF6B",
"Z 	c #EEE8D2",
"` 	c #ADAFAB",
" .	c #B7A244",
"..	c #FDD949",
"+.	c #FCCC34",
"@.	c #FCC02C",
"#.	c #FABB2D",
"$.	c #F8A01A",
"%.	c #F49818",
"&.	c #F59818",
"*.	c #F9A61C",
"=.	c #F8B62A",
"-.	c #FCD45E",
";.	c #FCE58B",
">.	c #FEF6C5",
",.	c #B7B89E",
"'.	c #253023",
").	c #BCAD61",
"!.	c #FEEC6F",
"~.	c #FDD03B",
"{.	c #FAAD22",
"].	c #EB7F0B",
"^.	c #FDB92B",
"/.	c #FDCB37",
"(.	c #FDC732",
"_.	c #F8AB24",
":.	c #EA8721",
"<.	c #FADEAA",
"[.	c #FEF6DC",
"}.	c #FEEE93",
"|.	c #B2AF66",
"1.	c #B38D33",
"2.	c #F8B835",
"3.	c #FCC530",
"4.	c #FCC237",
"5.	c #F7BA3E",
"6.	c #FDC533",
"7.	c #FCC931",
"8.	c #FBC95C",
"9.	c #FBCE96",
"0.	c #FADA8E",
"a.	c #FAE39B",
"b.	c #FEF2C2",
"c.	c #B7AF93",
"d.	c #232E21",
"e.	c #A86B16",
"f.	c #F49110",
"g.	c #FBBC2A",
"h.	c #FDD442",
"i.	c #FEE95E",
"j.	c #FED13C",
"k.	c #FCD13E",
"l.	c #FCD15A",
"m.	c #FCE08D",
"n.	c #FEF6D3",
"o.	c #F9DC86",
"p.	c #F6D77C",
"q.	c #FEF8E5",
"r.	c #BEC0BC",
"s.	c #B08729",
"t.	c #FCB528",
"u.	c #FCC52E",
"v.	c #FDCF39",
"w.	c #FDDB4F",
"x.	c #FBE96D",
"y.	c #FEF1C7",
"z.	c #FBE7A0",
"A.	c #F5D36F",
"B.	c #FAE7AD",
"C.	c #FDF5DF",
"D.	c #FFFDF7",
"E.	c #C0C4BF",
"F.	c #263023",
"G.	c #574D24",
"H.	c #B48229",
"I.	c #F1A720",
"J.	c #FAB423",
"K.	c #FDBD2A",
"L.	c #FCE181",
"M.	c #F9EF99",
"N.	c #FDE9AC",
"O.	c #FBE596",
"P.	c #F8E089",
"Q.	c #FEF6D4",
"R.	c #F3F0F1",
"S.	c #B7B4B2",
"T.	c #858480",
"U.	c #54391C",
"V.	c #D1821D",
"W.	c #EFA529",
"X.	c #FBBA36",
"Y.	c #FDE5AB",
"Z.	c #FFF6C7",
"`.	c #FAD065",
" +	c #FCDC8B",
".+	c #FEFAE7",
"++	c #F9F7F2",
"@+	c #DDDCDA",
"#+	c #3F4035",
"$+	c #2B3020",
"%+	c #524623",
"&+	c #A49276",
"*+	c #FAEBBF",
"=+	c #FADB8D",
"-+	c #F5D57A",
";+	c #FDEEAD",
">+	c #FEF3D0",
",+	c #F4F1F1",
"'+	c #979494",
")+	c #646763",
"!+	c #293124",
"~+	c #737773",
"{+	c #E0DEDD",
"]+	c #DFCC80",
"^+	c #DDBA5B",
"/+	c #E4DEDA",
"(+	c #E4DFDF",
"_+	c #D9D5D6",
":+	c #63605F",
"<+	c #30392F",
"[+	c #4C4D49",
"}+	c #474428",
"|+	c #494223",
"1+	c #4F4B44",
"2+	c #4F4D4A",
"3+	c #4C4E4A",
"4+	c #2B3228",
"5+	c #212B1E",
"6+	c #1D2719",
"  . + + + + + + + + + @ # $ $ $ @ + + + % % % % % % % & + @ # $ $ @ + + + + + + ",
"+ + + + + + + + + + + + + $ $ $ @ + + + * = = = = = = - + + + + $ $ $ ; + + + + ",
"> > > , . + + + + + + + + ; @ @ ; + ' ' ) ! = = = ~ { ] ^ ' ' ' $ $ @ ' + + + + ",
"= = = / ( + + + + + + + + + + + + + ; $ $ $ = = = { _ _ _ ; $ $ $ @ + + + + + + ",
"= ) : < ( + + + % [ [ [ [ + + + + + ' ; @ $ ^ } | 1 _ _ _ ; $ $ % ^ [ [ [ % + [ ",
"= + ( ( ( + + + ^ _ _ _ _ + + + + + + + @ $ $ @ _ _ _ _ _ ; $ $ _ _ _ _ _ % + _ ",
"' @ 2 ; , + + + ' ; ; [ _ - - + + + ^ - - [ [ - _ _ _ _ _ - [ 3 _ _ _ : 4 < 5 ; ",
"$ $ $ ' + + + + ; $ $ [ _ _ _ + + + [ _ _ _ _ _ _ _ _ _ _ _ _ _ _ _ _ 6 ( ( ( $ ",
"$ ; + + + + + + + + + @ $ _ - $ $ $ $ $ [ _ _ _ _ [ + [ _ _ _ _ _ ^ ( 7 $ $ $ $ ",
"$ ; + + + + + + + + + @ $ _ - $ $ $ $ $ [ _ _ _ _ [ + [ _ _ _ _ _ ^ ( 7 $ $ $ $ ",
"+ 8 } } } } ^ ' ' + + ; @ - [ @ @ $ 9 2 0 ^ _ _ _ - % [ - _ _ _ ^ a ( b @ @ @ @ ",
"= = = = = = * $ ; + + + + + + + ' $ 5 ( ( ( _ _ _ _ _ ^ + - _ _ ( ( ( c + + + + ",
"= = = = = 8 : 7 d + + + + + + c / 7   ( 5 7 % % [ [ [ % + % % 0 7 b c ; + + + ; ",
"= = = = = ( ( ( 9 + + + + + ' ( e f g h i j k l + + + + + @ $ $ $ @ + + + + + $ ",
"1 1 1 % + 2 9 ; ' + + + + b 7 b m n o o o o p q + + + + + ' ' ' ' ' + + + / 7   ",
"_ _ _ ; $ $ @ + + + + + + ( r s t u v v v v w x y z + + + + + + + + + + + 7 ( ( ",
"_ _ _ _ _ _ _ _ ^ $ $ ' + ' A B C D E F G H I J K L M + + + + + + + + ; $ $ $ + ",
"_ _ _ _ _ _ _ - % $ $ ' + N O P Q R S T U V W X Y Z ` + + + + + + + + ; $ $ $ + ",
"+ [ _ _ _ _ - $ $ $ $ ' +  ...+.@.#.$.%.&.*.=.-.;.>.,.[ _ _ _ _ _ - + + + + + + ",
"+ [ _ _ _ '.^ ' ' ' ' % ^ ).!.~.{.].^./.(._.:.<.[.}.|.- _ _ _ _ '.^ ' ' + % ^ ^ ",
"+ [ _ _ _ $ ; _ _ _ _ _ _ 1.2.3.4.5.6.R 7.8.9.0.a.b.c._ _ _ _ _ $ $ $ ; + - _ _ ",
"+ [ _ [ ^ % ^ _ _ _ _ ^ d.e.f.g.h.i.j.k.l.m.n.o.p.q.r._ _ % d.+ $ @ ; % [ - _ _ ",
"+ [ _ % + _ _ _ _ _ _ ' $ s.t.u.D v.w.x.y.z.A.B.C.D.E._ _ ; $ $ $ @ + [ _ _ _ _ ",
"+ % % [ - _ _ _ F.; ; @ $ G.H.I.J.K.L.M.N.O.P.Q.R.S.T.[ % + ' ' ' + - - _ _ _ ' ",
"+ + + - _ _ _ _ ^ $ $ $ $ + U.V.W.X.Y.Z.`. +.+++@+#+- ^ + + + + + % _ _ _ _ _ $ ",
"+ + + + + + % _ _ _ _ % + + $+%+&+*+=+-+;+>+,+'+)+!++ + + + + + + + + + + - _ _ ",
"' + + + + % % _ _ - - % + + + + ~+{+]+^+/+(+_+:++ + + + + + + + + + + + % - _ - ",
"( @ + + + _ _ _ ^ $ $ ' + + + + <+[+}+|+1+2+3+4+$ @ + + + + + + + + + [ _ _ _ $ ",
"( @ + + + [ [ [ % @ @ ' + + + ' ; 5+5+5+; ' ' ; $ @ ' ' ' + + + + + + ^ [ [ [ ; ",
"( @ + + + + + + + + + + + + + $ b ( ( ( 2 $ $ $ $ $ $ $ $ ' + + + + + + + + + + ",
"( @ + + + + + + + + + + + + + $ b ( ( ( 2 $ $ $ $ $ $ $ $ ' + + + + + + + + + + ",
"5+' + + + + + + + + + + + + + ' 5+b c 5+, ' ' ' ' ; $ ; ' + + + + + + + + + + + ",
"+ + + + + + + + + + + + + + + + ' $ ; + + + + + + ' $ ; + + + + + + + + + + + + ",
"_ _ _ 4   + + + + + + + + + + + + + + + + + + + $ $ $ ; + + + + + ' $ $ $ ' + + ",
"_ _ _ b ( + + + + + + + + + + + + + + + + + + ' $ $ $ ; + + + + + ' $ $ $ ' + + ",
"_ 5+( ( ( + + + ^ _ _ _ _ _ _ + + + + + + + ( ( ( ( ( 7 $ $ $ $ $ $ $ ; + + + _ ",
"[ .   < 7 + + + % [ [ - _ _ _ % % ' + + , ; ( ( ( (   2 $ @ @ @ @ @ @ ' + + + [ ",
"$ $ $ ' + + + + ; $ $ [ _ _ _ _ ^ $ ; + < ( ( ( ( 6+$ $ $ ' + + + + + + + + + $ ",
"$ @ ; + + + + + ' ; ; + % _ _ _ - % ' ; 2 7 7 7 7 b $ $ $ ; ; ; + + + + + + + ; ",
"$ ; + + + + + + + + + @ $ _ _ _ _ _ + $ $ $ $ $ $ $ $ $ $ $ $ $ + + + + + + + + "};
