/* XPM */
static char * wall_1_xpm[] = {
"40 40 188 2",
"  	c #23262A",
". 	c #1F2225",
"+ 	c #1B1E20",
"@ 	c #1D2023",
"# 	c #232729",
"$ 	c #1C1F21",
"% 	c #1A1D1F",
"& 	c #1D2123",
"* 	c #1D2024",
"= 	c #1C2023",
"- 	c #1C1F23",
"; 	c #1C1F22",
"> 	c #1C2024",
", 	c #1B1F22",
"' 	c #1B1E21",
") 	c #1A1D20",
"! 	c #1B1E22",
"~ 	c #1D2124",
"{ 	c #2B3239",
"] 	c #2A3037",
"^ 	c #272C32",
"/ 	c #272B31",
"( 	c #292F36",
"_ 	c #282D34",
": 	c #252A2F",
"< 	c #23272C",
"[ 	c #1F2327",
"} 	c #24292E",
"| 	c #2A3238",
"1 	c #343C45",
"2 	c #323942",
"3 	c #2E343B",
"4 	c #2D333A",
"5 	c #313840",
"6 	c #323A43",
"7 	c #2F353D",
"8 	c #2B3037",
"9 	c #282D33",
"0 	c #24282D",
"a 	c #2B3138",
"b 	c #333B43",
"c 	c #292E34",
"d 	c #333A43",
"e 	c #2A2E35",
"f 	c #282C31",
"g 	c #2D343B",
"h 	c #2F363C",
"i 	c #2F353C",
"j 	c #2A3036",
"k 	c #2A2F35",
"l 	c #2D3239",
"m 	c #282C32",
"n 	c #272B30",
"o 	c #2E353A",
"p 	c #282D32",
"q 	c #272D32",
"r 	c #272C31",
"s 	c #262A30",
"t 	c #262A2F",
"u 	c #262A2E",
"v 	c #252A2E",
"w 	c #282E33",
"x 	c #262B30",
"y 	c #272D33",
"z 	c #2A3038",
"A 	c #292F35",
"B 	c #2C333B",
"C 	c #30373F",
"D 	c #2D333B",
"E 	c #2B3036",
"F 	c #2E343D",
"G 	c #343E4B",
"H 	c #343E4A",
"I 	c #323B45",
"J 	c #323A44",
"K 	c #333D48",
"L 	c #323C47",
"M 	c #313941",
"N 	c #353E4A",
"O 	c #313943",
"P 	c #394554",
"Q 	c #37404D",
"R 	c #363F4B",
"S 	c #374350",
"T 	c #37424F",
"U 	c #353E48",
"V 	c #37404B",
"W 	c #2C3138",
"X 	c #303842",
"Y 	c #353D47",
"Z 	c #2F363D",
"` 	c #2A2F34",
" .	c #2E3640",
"..	c #343D46",
"+.	c #262C31",
"@.	c #2D343C",
"#.	c #384351",
"$.	c #384352",
"%.	c #363E4A",
"&.	c #37414E",
"*.	c #333B44",
"=.	c #2C3238",
"-.	c #2F3741",
";.	c #303843",
">.	c #323A45",
",.	c #313842",
"'.	c #303741",
").	c #313843",
"!.	c #30363F",
"~.	c #30363E",
"{.	c #2C3239",
"].	c #2B3137",
"^.	c #2D323A",
"/.	c #2C3139",
"(.	c #2B2F37",
"_.	c #2E353F",
":.	c #2F363F",
"<.	c #313A44",
"[.	c #303742",
"}.	c #2E343C",
"|.	c #353F4B",
"1.	c #36414E",
"2.	c #374250",
"3.	c #303740",
"4.	c #353F4A",
"5.	c #35404C",
"6.	c #363F4A",
"7.	c #36404D",
"8.	c #303841",
"9.	c #313841",
"0.	c #343D47",
"a.	c #353E49",
"b.	c #353E47",
"c.	c #2F3640",
"d.	c #2F363E",
"e.	c #353F4C",
"f.	c #2D343D",
"g.	c #2E353C",
"h.	c #37404A",
"i.	c #323B46",
"j.	c #2A3138",
"k.	c #343C46",
"l.	c #292F34",
"m.	c #2A3136",
"n.	c #2B3238",
"o.	c #2A2F36",
"p.	c #292E33",
"q.	c #2E353D",
"r.	c #262C30",
"s.	c #24282C",
"t.	c #282C33",
"u.	c #272C30",
"v.	c #2B333A",
"w.	c #2A3035",
"x.	c #252B2F",
"y.	c #313A46",
"z.	c #313A45",
"A.	c #2C3137",
"B.	c #2C333A",
"C.	c #343F4B",
"D.	c #36414D",
"E.	c #25292D",
"F.	c #2C323A",
"G.	c #222529",
"H.	c #323A42",
"I.	c #252B30",
"J.	c #24292D",
"K.	c #1F2427",
"L.	c #202428",
"M.	c #262B31",
"N.	c #191D1F",
"O.	c #1C2022",
"P.	c #232930",
"Q.	c #1F2226",
"R.	c #1E2124",
"S.	c #1E2225",
"T.	c #1E2326",
"U.	c #1E2125",
"V.	c #23282E",
"W.	c #23282B",
"X.	c #23272B",
"Y.	c #25292E",
"Z.	c #212529",
"`.	c #202427",
" +	c #21252A",
".+	c #262B2F",
"++	c #222629",
"@+	c #1E2224",
"            . + @                                                             # ",
"@ @ @ @ @ @ $ % + @ @ @ @ @ @ @ @ @ @ @ @ @ @ @ @ @ @ @ @ @ @ @ @ @ @ @ @ @ @ & ",
"* * * * * * @ @ @ = - ; = > - , , , , , , , , ' ) ! > * * * * * * * * * * * * ~ ",
"{ { { { { { { { { ] ^ / ( ] _ : : : : : : : : < [ } ] { { { { { { { { { { { { | ",
"1 1 1 1 1 1 1 1 1 2 3 4 5 6 7 8 8 8 8 8 8 8 8 9 0 a 6 1 1 1 1 1 1 1 1 1 1 1 1 b ",
"1 1 1 1 1 1 1 1 1 2 3 4 5 6 7 8 8 8 8 8 8 8 8 c / 4 d 1 1 1 1 1 1 1 1 1 1 1 1 b ",
"1 1 1 1 1 1 1 1 1 2 3 4 5 6 7 8 8 8 8 8 8 8 8 e f g d 1 1 1 1 1 1 1 1 1 1 1 1 b ",
"1 1 1 1 1 1 1 1 1 2 3 4 5 6 7 8 8 8 8 8 8 8 8 e f g d 1 1 1 1 1 1 1 1 1 1 1 1 b ",
"h h h h h h h h i 3 j k l 3 a c c c c c c c c m n j 3 h h h h h h h h h h h h o ",
"p p p p p p p q p p n n m p r s t t t t t t t u v n p p p p p p p p p p p p p p ",
"w w w w w w m x y z z z z z z ] A A ] ( c w w w w w w w w w w w w w w w w w w B ",
"C C C C C C D E F G G G G G G H I J K L M C C C C C C C C C C C C C C C C C C N ",
"1 1 1 1 1 1 C l O P P P P P P P Q R S T U 1 1 1 1 1 1 1 1 1 1 1 1 1 1 1 1 1 1 V ",
"1 1 1 1 1 1 C W X P P P P P P P Q R S T U 1 1 1 1 1 1 1 1 1 1 1 1 1 1 1 1 1 1 Y ",
"1 1 1 1 1 1 Z `  .P P P P P P P Q R S T U 1 1 1 1 1 1 1 1 1 1 1 1 1 1 1 1 1 1 ..",
"b b b b b b g +.@.#.#.#.#.#.$.$.R %.T &.Y *.*.*.*.*.*.*.*.*.*.*.b b b b b b b b ",
"=.=.=.=.=.=.c v c  . . . .-.;.>.,.'.O ).!.~.~.~.~.~.~.~.~.~.~.3 {.=.=.=.=.=.=.].",
"n n n n n n x : x ^ ^ ^ ^ 9 8 D 4 ^.D D ^.^.^.l /.{.l ^.^.^.^.(.m n n n n n n t ",
"_._._._._._._._._._._._._.:.X <.<.<.<.<.<.<.<.[.}.:.O <.<.<.<.X :._._._._._._._.",
"N N N N N N N N N N N N N |.1.2.2.2.2.2.2.2.2.H 3.O 4.5.5.5.5.|.4.N N N N N N N ",
"U U U U U U U U U U U U U 6.T P P P P P P P P 7.8.9.0.U U U U U U U U U U U U a.",
"1 1 1 1 1 1 1 1 1 1 1 1 1 b.&.P P P P P P P P 7.c.d.*.1 1 1 1 1 1 1 1 1 1 1 1 U ",
"1 1 1 1 1 1 1 1 1 1 1 1 1 b.&.P P P P P P P P e.f.g.d 1 1 1 1 1 1 1 1 1 1 1 1 h.",
"C C C C C C C C C C C C C 9.i.G G G G G G G G <.j.].d.C C C C C C C C C C C C k.",
"l.l.l.l.l.l.l.l.l.l.l.l.l.` m.n.n.n.n.n.n.n.n.o.r r p.l.l.l.l.l.l.l.l.l.l.l.l.q.",
"r.r.r.r.r.r.u s.: 9 9 9 9 9 9 9 t.^ u.r.r.r.r.r.r.r.r.r.r.r.r.r.r.r.r.r.r.r.r.v.",
"g.g.g.g.g.g.w.x.] y.y.y.y.y.y.y.z.X d.g.g.g.g.g.g.g.g.g.g.g.g.g.g.g.g.g.g.g.g.6 ",
"C C C C C C A.x B.1.1.7.C.H 5.D.C.I 9.C C C C C C C C C C C C C C C C C C C C k.",
"W W W W W W 9 E.j 0.0.*.:.}.M ..3.F.{.W W W W W W W W W W W W W W W W W W W W 3.",
"8 8 8 8 8 8 x G.w 1 1 H.g.l C 1 Z 8 8 8 8 8 8 8 8 8 8 8 8 8 8 8 8 8 8 8 8 8 8 !.",
"8 8 8 8 8 8 } @ I.1 1 H.g.{.C 1 Z 8 8 8 8 8 8 8 8 8 8 8 8 8 8 8 8 8 8 8 8 8 8 F ",
"J.J.J.J.J.J.K.+ L.k k c x : q A M.J.J.J.J.J.J.J.J.J.J.J.J.J.J.J.J.J.J.J.J.J.J.y ",
"; ; ; ; ; ; + N.' ~ ~ @ O.; @ ~ @ ; ; ; ; ; ; ; ; ; ; ; ; ; ; ; ; ; ; ; ; ; ; P.",
"[ [ [ [ [ [ [ [ [ Q.R.~ S.T.U.@ @ @ @ @ @ @ @ O.+ @ Q.[ [ [ [ [ [ [ [ [ [ [ [ V.",
"^ ^ ^ ^ ^ ^ ^ ^ r t W.X.Y.x 0 Z.Z.Z.Z.Z.Z.Z.Z.`.@  +x ^ ^ ^ ^ ^ ^ ^ ^ ^ ^ ^ ^ j.",
"8 8 8 8 8 8 8 8 8 c .+t 9 k n s.s.s.s.s.s.s.s.++@+0 e 8 8 8 8 8 8 8 8 8 8 8 8 q.",
"8 8 8 8 8 8 8 8 8 c .+t 9 k n s.s.s.s.s.s.s.s.++@+0 e 8 8 8 8 8 8 8 8 8 8 8 8 F.",
"8 8 8 8 8 8 8 8 8 c .+t 9 k n s.s.s.s.s.s.s.s.++@+0 e 8 8 8 8 8 8 8 8 8 8 8 8 F.",
"8 8 8 8 8 8 8 8 8 c .+t 9 k n s.s.s.s.s.s.s.s.++@+0 e 8 8 8 8 8 8 8 8 8 8 8 8 F.",
"8 8 8 8 8 8 8 8 8 c .+t 9 k n s.s.s.s.s.s.s.s.++@+0 e 8 8 8 8 8 8 8 8 8 8 8 8 F."};
