/* XPM */
static char * wall_3_xpm[] = {
"40 40 65 1",
" 	c #8A8077",
".	c #857C73",
"+	c #7D736A",
"@	c #756B62",
"#	c #786E66",
"$	c #60574E",
"%	c #655C53",
"&	c #A89E95",
"*	c #A79D94",
"=	c #ABA198",
"-	c #AAA097",
";	c #A49A91",
">	c #A69C93",
",	c #988E85",
"'	c #696057",
")	c #897F76",
"!	c #8D837A",
"~	c #958B82",
"{	c #797067",
"]	c #A2988F",
"^	c #A39990",
"/	c #595047",
"(	c #5F584E",
"_	c #685F56",
":	c #5D544B",
"<	c #9A9087",
"[	c #9D938A",
"}	c #A1978E",
"|	c #9F958C",
"1	c #7F786E",
"2	c #584F46",
"3	c #9B9289",
"4	c #9D948B",
"5	c #ADA098",
"6	c #B1A79E",
"7	c #AFA59C",
"8	c #91887F",
"9	c #B2A89F",
"0	c #A4978F",
"a	c #70675E",
"b	c #474036",
"c	c #B3A9A0",
"d	c #B7ADA4",
"e	c #B4AAA1",
"f	c #80776E",
"g	c #51483F",
"h	c #4D443B",
"i	c #494037",
"j	c #AEA49B",
"k	c #50473E",
"l	c #6C635A",
"m	c #71685F",
"n	c #544B42",
"o	c #B0A39B",
"p	c #AC9F97",
"q	c #B4A79F",
"r	c #81786F",
"s	c #453C33",
"t	c #3D342B",
"u	c #61584F",
"v	c #9C8F87",
"w	c #A99C94",
"x	c #8F887E",
"y	c #B1A49C",
"z	c #41382F",
" .+@@#+@$% &**=--&&&&*&&;>;,@'+.))!. ~,,",
"++++.!~~+{,=**=>;>>*-=&*]>^,@/('''_:$@. ",
". !,<[<[).,>>;*;^>**&=>;}}|[1%_+++@/2'@{",
",,,3[[,3)![;***;>>;;;^}]||[4 #)567=8)88)",
"3,,[[4<8{.[>*>;^]}|}}}}|4[<,)@)796667666",
"[,~[[[,{2@[&^}4[3[340;&]3,8.a%#=76666665",
"<<<3<<8'b/8cde*[~! f'/%%(gghii_45&5*-j66",
"<,,~~!+/2k/@.1+@@l'/b/!,~!! )m')[[}}}];>",
"+{@a'%:n:%'@@l),<3[ '',;[3<<,)@l)<|443,~",
"...)))) ~,3[,~^5o66*!@f^<3,,<!ln'.!!!.#a",
"}^;&&&&566666j567o67|+_~~!)))+_2%{11+a%2",
"996676&&j55j7j&6=*56^+/@+@a@+1+#+)  .+@%",
"6c6757}}&>;&&*;p>}&5|+nn_l@1 ,[,~[||[<,.",
"q665=5|4}|4444|}]|}}<.(hf8,[334[~<4[[[3 ",
"665;|[[[[[[[[4[[[4[[,)'_|[[[~~[[44|<3[< ",
"[};^|3|[[[[[[[[||[[~.'hn3<|}[<3[<,33<,~.",
"*}~!8<34[44}}<~!!!r'n2_n13|4[[[[[<,~~!!f",
"%_%%@f !!)1@%:2:/nistsksh#+++{@@al_u(/2k",
"':nkn2((/n2(uu'l_%'aal@#+) )+al_(2i2m@+)",
"~)f{@@+@gna)))!!  8~~,,<3v,,8)).1{:_834-",
"&*;]|}},('~>|[[<<[||4|44[[[[[[[3<,@l[555",
"&>;>>;|8:l~;<3[<,[}|[<<[[,[[[[[[[<#'[e67",
";^}^]}4.n:!;[[|3~4|[3[33< 3[333<<,#@}e97",
"||4[44,8u%!>|}]3333,,<<,,![[,,,,~,@@}65o",
"44[[[4<8:/);[3[<,,,,~,[<,<[<,~~~,!%(~5=&",
"w8...+l(ii@3}^[,,<,,~8,|[~8,[|4~)@ss2%l@",
"l$ng$+x8 #_l.[9&>|<!@_%l_2:%__%%%%%ll%ni",
"2arr }-55}.@@+, f+#ma@@+lsg$'lm@.!~3[ @l",
"%)&&=76y55;, @l++..r)!~!@/+!!!83*=-p5^,,",
"_!765&&p&5j5|f% 8~,,,3,)a.}=*];j665-j55&",
"%.55>|}^&--;,1l~!))  )faf>j5=**5555==5=[",
"'.w^,!~,,,~ +''+#l@@a%/:;696&}|}]^;*^^[.",
"%'..{'l@l__%%$_m{1..{:s/-j97;[[44[[[,,!'",
"(sik/_@@m+)8~,3[,3[3~+gh.=6*}[4[[[[[<~@n",
"%%r8~,,3<~,33[[3!,3,~f:s~>^};*>^|,)).lht",
"_@~[,[<<,,,<,,<<,,,,~!@g!}, !8 +a_:2nhis",
"ul83,!~~~~~~,,3,,~8!!)@/u_u//:(%'l@#f.f+",
"2:l@l%''lla@#@@@mlll'%/is/'la@+)!!~,[|3,",
"@@@@m'%2(_@++{#@@l@@a':iz@~<,,|^|||4||[<",
"[,,,~~)$%1,[[[<,~8,~x!1uz+*>4||[[[|3[4[<"};
