/* XPM */
static char * _1_xpm[] = {
"40 40 272 2",
"  	c #222D1F",
". 	c #232E20",
"+ 	c #202B1D",
"@ 	c #1F2A1C",
"# 	c #1F2A1D",
"$ 	c #242F20",
"% 	c #242F21",
"& 	c #202A1C",
"* 	c #1E281A",
"= 	c #212C1E",
"- 	c #273224",
"; 	c #2C3828",
"> 	c #2A3626",
", 	c #253022",
"' 	c #273324",
") 	c #2B3627",
"! 	c #2C3728",
"~ 	c #283424",
"{ 	c #273223",
"] 	c #212B1D",
"^ 	c #232D20",
"/ 	c #263223",
"( 	c #253122",
"_ 	c #283224",
": 	c #283325",
"< 	c #242A1A",
"[ 	c #252716",
"} 	c #252817",
"| 	c #242C1D",
"1 	c #1C2619",
"2 	c #263123",
"3 	c #293426",
"4 	c #2A3526",
"5 	c #263122",
"6 	c #1E2218",
"7 	c #4F471F",
"8 	c #625825",
"9 	c #83752C",
"0 	c #928230",
"a 	c #90802F",
"b 	c #716528",
"c 	c #3E3B1B",
"d 	c #232B1C",
"e 	c #1C2518",
"f 	c #1F281B",
"g 	c #283324",
"h 	c #2B3727",
"i 	c #1D2218",
"j 	c #514920",
"k 	c #8F7F2F",
"l 	c #706528",
"m 	c #1F2617",
"n 	c #1D2719",
"o 	c #253021",
"p 	c #1E281B",
"q 	c #1E271A",
"r 	c #232D1F",
"s 	c #273124",
"t 	c #1C2118",
"u 	c #50481F",
"v 	c #736729",
"w 	c #5B5324",
"x 	c #3A351A",
"y 	c #1D261A",
"z 	c #1E291B",
"A 	c #1D2619",
"B 	c #222C1E",
"C 	c #202418",
"D 	c #786B28",
"E 	c #918130",
"F 	c #736728",
"G 	c #3B361A",
"H 	c #1C1B13",
"I 	c #544B20",
"J 	c #8F802F",
"K 	c #716628",
"L 	c #474522",
"M 	c #373A20",
"N 	c #35381F",
"O 	c #242718",
"P 	c #1C251A",
"Q 	c #1F2217",
"R 	c #776A28",
"S 	c #3C361A",
"T 	c #141412",
"U 	c #292615",
"V 	c #242719",
"W 	c #1E281C",
"X 	c #766928",
"Y 	c #5B5120",
"Z 	c #2B2715",
"` 	c #756928",
" .	c #615926",
"..	c #222C1F",
"+.	c #242E21",
"@.	c #1F291B",
"#.	c #21291D",
"$.	c #1D271A",
"%.	c #1B2016",
"&.	c #4E461F",
"*.	c #3C3C2E",
"=.	c #0F7BAD",
"-.	c #115E85",
";.	c #142735",
">.	c #0F7AAC",
",.	c #115D84",
"'.	c #2D2815",
").	c #35371F",
"!.	c #25281A",
"~.	c #252E22",
"{.	c #1B1F15",
"].	c #4E4620",
"^.	c #3E453C",
"/.	c #1C3744",
"(.	c #17242B",
"_.	c #141717",
":.	c #192F39",
"<.	c #1C3743",
"[.	c #19242C",
"}.	c #392C2A",
"|.	c #786930",
"1.	c #635A27",
"2.	c #554E23",
"3.	c #5F5625",
"4.	c #5C5425",
"5.	c #454221",
"6.	c #181C14",
"7.	c #2E301C",
"8.	c #242618",
"9.	c #171515",
"0.	c #796B30",
"a.	c #232517",
"b.	c #181A15",
"c.	c #242D21",
"d.	c #1F291C",
"e.	c #283425",
"f.	c #293525",
"g.	c #293425",
"h.	c #1D231A",
"i.	c #2A1B29",
"j.	c #231821",
"k.	c #161515",
"l.	c #2F1C2E",
"m.	c #51294F",
"n.	c #482A43",
"o.	c #514829",
"p.	c #171915",
"q.	c #21251E",
"r.	c #50274D",
"s.	c #842D7D",
"t.	c #932D8B",
"u.	c #912D89",
"v.	c #732E6F",
"w.	c #5F2E5C",
"x.	c #5F315A",
"y.	c #5F4B3E",
"z.	c #5D5425",
"A.	c #252819",
"B.	c #232C20",
"C.	c #63375A",
"D.	c #816D42",
"E.	c #454422",
"F.	c #7F722C",
"G.	c #8B7C2E",
"H.	c #595122",
"I.	c #262F20",
"J.	c #1E251B",
"K.	c #1B1A13",
"L.	c #746829",
"M.	c #625826",
"N.	c #8E7F2F",
"O.	c #635B27",
"P.	c #544E23",
"Q.	c #645A26",
"R.	c #84762D",
"S.	c #595022",
"T.	c #1A2018",
"U.	c #253023",
"V.	c #293526",
"W.	c #1B2119",
"X.	c #4A4722",
"Y.	c #8E7E2F",
"Z.	c #6E6327",
"`.	c #3D3B1D",
" +	c #171612",
".+	c #726728",
"++	c #212215",
"@+	c #252D1F",
"#+	c #232E21",
"$+	c #1C2219",
"%+	c #171713",
"&+	c #2F311C",
"*+	c #171914",
"=+	c #232B20",
"-+	c #27241A",
";+	c #965928",
">+	c #B76E32",
",+	c #DE8C4A",
"'+	c #EE9852",
")+	c #CB7E3E",
"!+	c #B56C30",
"~+	c #B1692F",
"{+	c #814C1F",
"]+	c #965826",
"^+	c #79471C",
"/+	c #44270D",
"(+	c #2C1F12",
"_+	c #21291E",
":+	c #1B2018",
"<+	c #221913",
"[+	c #985B2A",
"}+	c #F09A53",
"|+	c #CB7D3E",
"1+	c #45280E",
"2+	c #322815",
"3+	c #262E1F",
"4+	c #635725",
"5+	c #A1672E",
"6+	c #EC9852",
"7+	c #A4733A",
"8+	c #5C5324",
"9+	c #3E3B1D",
"0+	c #262E20",
"a+	c #1B2118",
"b+	c #5E5525",
"c+	c #39381D",
"d+	c #7D712B",
"e+	c #6F6427",
"f+	c #3E3B1C",
"g+	c #242C1E",
"h+	c #484522",
"i+	c #282414",
"j+	c #7A6C29",
"k+	c #8C7D2E",
"l+	c #595020",
"m+	c #1A1B14",
"n+	c #181C16",
"o+	c #5E5625",
"p+	c #3A391E",
"q+	c #7D712C",
"r+	c #564D1E",
"s+	c #161914",
"t+	c #191E17",
"u+	c #151613",
"v+	c #1E271C",
"w+	c #2C2B19",
"x+	c #7A6D29",
"y+	c #171A15",
"z+	c #181D16",
"A+	c #3A220F",
"B+	c #49290E",
"C+	c #9A5A27",
"D+	c #B36B30",
"E+	c #714420",
"F+	c #191F17",
"G+	c #151713",
"H+	c #1C2419",
"I+	c #945A2A",
"J+	c #744520",
"K+	c #47280D",
"L+	c #2E1D10",
"M+	c #1B2419",
"N+	c #161814",
"O+	c #1A2017",
"P+	c #925728",
"Q+	c #7E4A1E",
"R+	c #1D241A",
"S+	c #1F281D",
"T+	c #1A2118",
"U+	c #935728",
"V+	c #212A1D",
"W+	c #202A1D",
"  . . . . . + @ @ # + . $ % % % % % % % . . . + @ @ @ # + . . . . . . . . . & * ",
". . . . = @ @ @ . . . . - ; ; ; ; ; ; > . . . + @ @ @ . . . . . . . . . . . . . ",
"% . . .   + @ @       , ' ) ! ; ; ; ~ {     . = + + = . . . . . . . . ] ^ / / ( ",
", . . . . . + @ @ @ = _ : : ) ; ; ; @ @ @ = . . . < [ [ [ [ [ } | .   1 = ; ; ) ",
"- % % 2 2 2 , % + @ = _ : : 3 4 5 , @ + =   . . 6 7 8 9 0 0 a b c } d e f $ g h ",
"3 % % - : : : : + @ = _ : : : : + @ @ + . . . i j 9 0 0 0 0 0 0 k l c m e n o h ",
"= p q f r - : : s 2 - : : : : : - 2 2 - - , t u 9 0 0 0 0 0 0 0 k v w x y z +   ",
"@ A e e B - : : : : : : : : : : : : : : : 2 C D E F G H I 9 0 J K L M N O P @ @ ",
"@ @ @ @ * e % : : : : : 2 . 2 : : : : 2 @ @ Q R F S T T T U R K L M M N V W = @ ",
"@ @ @ @ * e % : : : : : 2 . 2 : : : : 2 @ @ Q X Y T T T T T Z `  .M M M N O y @ ",
"= + + + p e .., : : : - 2 % - : : : , +.z @.Q X Y T T T T T Z R K L M M N V #.  ",
", . . . + A e e - : - . , : : : : : e e e $.%.&.*.=.-.;.>.,.T '.`  .M M M ).!.~.",
". . . . = & p * ^ % % . % 2 2 2 % % * $.e A {.].^./.(._.:.<.[.}.|.1.2.3.4.5.!.+.",
"    . . . . + @ @ @ + . . . . . # @ @ z e e 6.7.8.T T T T T 9.}.0.v 3.4.5.a.b.c.",
"d.* d.  . .           . . . . . e.f.f.g.~ ~ h.i.j.T T T k.l.m.n.o.L N a.T p.c.- ",
"f e *   . . . . . . . . . . . . h ; ; ; ; ; q.r.s.t.t.u.v.w.x.y.z.L M M N A.B.2 ",
"% + @ @ = . . . . . . . . . 2 : ! ; ; ; ; h.9.r.s.t.t.u.v.C.D.K L M E.F.0 G.H.I.",
"% + @ @ = . . . . . . . . . 2 : h ; ; ; J.T K.D 0 E L.M.9 0 N.O.P.Q.R.0 0 0 G.S.",
". . . . . . - : : : : : 2 . 2 : : : ; > T.T K.D 0 0 0 0 0 a v 3.3.Q.R.0 0 0 G.S.",
", , % .     , U.: : : : - , - : : : V.e.W.T K.D 0 0 0 0 0 a v 3.z.X.w R.0 Y.Z.`.",
"- : - % = @ @ @ - : : : : : : : : : . % : h. +u 9 0 0 0 a .+L M M N 8.++[ [ } @+",
"- : - 2 % = + @ . #+% : : : : : 2 , 2 2 : : : $+T T T T %+&+M M N a.T T *+=+2 % ",
"- : : : 2 . + @ @ @ = _ : : : : % . : : : : : -+;+>+,+'+)+!+~+{+]+^+/+(+_+: 2 % ",
"  - : : - - %       . % 2 : 2 % - - : : : 2 :+<+[+,+}+}+'+|+~+{+]+^+1+2+3+% % . ",
"+ - : : : : , . . . . . , : , . - : : : : 2 t 7 4+5+,+6+7+3.3.3.3.3.8+9+0+. .   ",
"- : - % . . . . . . . . . . . . . . . . . a+&.3.3.b+G %+c+d+0 0 0 0 k e+f+g+. % ",
"2 : - % . . . . . . . . . . . . . . . . . a+&.3.b+h+8.T i+j+0 0 0 0 0 k+l+m+T n+",
"z - : : 2 . . . . . . . . . + @ . . . . . a+&.o+h+8.T T %+p+q+0 0 0 0 k+r+T T s+",
"+ , 2 2 , . . . . . .       + @ =     = t+T T T T T u+v+= w+x+0 0 0 0 k+r+T T y+",
"  . . . . . . . . .   @ @ @ @ @ @ @ @ z+A+B+C+D+E+v+. . .   F+T T T T T T G+H+$.",
"  . . . . . . . . .   @ @ @ @ @ @ I+J+A+K+K+K+L+M+. . . . . .   F+T T T N+W @ $.",
"^ . . . . . . . . . .   = @ =   O+P+!+Q+K+K+L+R+  . . . . . . .   F+T N+S+.   = ",
". . . . . . . . . . . . = @   . T+T U+!+Q+L+M+  . . . . . . . . . . . . . . . . ",
"% .   @ @ @   . . . . . = @ @ @ . . . . . . . . . . . . . . . . . .   A V+: : - ",
"% .   @ @ @   . . . . . = @ @ @   . . . . . . . . . . . . . . . . .   e W+: : - ",
": % . . = @ @ @ @ @ @ @ * e e e e e . . . . . . . : : : : : : , . .   e e A ..: ",
"2 % . .   + + + + + + @ z A e e e e = ... .   % % : : : - 2 2 % . .   * q q B 2 ",
"@   . . . . . . . .   @ @ @ n e e e e q . = @ , : : : : U.@ @ = . . . .   @ @ @ ",
"= . . . . . . . = = = @ @ @ p * * * * z =   % - : : : % . = =   . . . . . = + @ ",
"  . . . . . . . @ @ @ @ @ @ @ @ @ @ @ @ @ . : : : : : @ + . . . . . . . . . = + "};
