/* XPM */
static char * _2_xpm[] = {
"40 40 349 2",
"  	c #222D1F",
". 	c #232E20",
"+ 	c #202B1D",
"@ 	c #1F2A1C",
"# 	c #1F2A1D",
"$ 	c #242F20",
"% 	c #242F21",
"& 	c #212A1D",
"* 	c #1E271A",
"= 	c #212C1E",
"- 	c #273224",
"; 	c #2C3828",
"> 	c #2A3626",
", 	c #232F20",
"' 	c #253022",
") 	c #273324",
"! 	c #2B3627",
"~ 	c #2C3728",
"{ 	c #283424",
"] 	c #273223",
"^ 	c #222D1E",
"/ 	c #232A1B",
"( 	c #242B1C",
"_ 	c #22291A",
": 	c #242C1D",
"< 	c #212B1D",
"[ 	c #263223",
"} 	c #263123",
"| 	c #283325",
"1 	c #1E291B",
"2 	c #272919",
"3 	c #46411E",
"4 	c #4F481F",
"5 	c #695E24",
"6 	c #635923",
"7 	c #413D1D",
"8 	c #1C2518",
"9 	c #212B1E",
"0 	c #2B3727",
"a 	c #293426",
"b 	c #2A3526",
"c 	c #263122",
"d 	c #262919",
"e 	c #50481F",
"f 	c #7A6D2A",
"g 	c #7E712B",
"h 	c #928230",
"i 	c #8D7D2F",
"j 	c #766929",
"k 	c #625923",
"l 	c #413D1E",
"m 	c #262E1F",
"n 	c #1F281B",
"o 	c #242E20",
"p 	c #283324",
"q 	c #293425",
"r 	c #252819",
"s 	c #88792D",
"t 	c #5A5224",
"u 	c #403D1E",
"v 	c #20291D",
"w 	c #1D2619",
"x 	c #2B3728",
"y 	c #1E281B",
"z 	c #242D1F",
"A 	c #273124",
"B 	c #232D21",
"C 	c #393318",
"D 	c #8F7F2F",
"E 	c #7C6E2A",
"F 	c #6F6325",
"G 	c #726627",
"H 	c #83742C",
"I 	c #8E7E2F",
"J 	c #75692A",
"K 	c #504B23",
"L 	c #484421",
"M 	c #26291A",
"N 	c #1E271C",
"O 	c #222C1F",
"P 	c #1C2619",
"Q 	c #222C1E",
"R 	c #283224",
"S 	c #252F22",
"T 	c #443D1A",
"U 	c #766A29",
"V 	c #423C1C",
"W 	c #141412",
"X 	c #262315",
"Y 	c #534A1F",
"Z 	c #786B28",
"` 	c #756A2A",
" .	c #4B4722",
"..	c #373A20",
"+.	c #31331D",
"@.	c #181D16",
"#.	c #1E281A",
"$.	c #161512",
"%.	c #383218",
"&.	c #716526",
"*.	c #6F6429",
"=.	c #34361F",
"-.	c #85772C",
";.	c #181712",
">.	c #49411B",
",.	c #87782D",
"'.	c #484522",
").	c #3B3518",
"!.	c #736728",
"~.	c #133246",
"{.	c #116289",
"].	c #141514",
"^.	c #133449",
"/.	c #116188",
"(.	c #161612",
"_.	c #383318",
":.	c #212A1E",
"<.	c #253021",
"[.	c #202A1C",
"}.	c #1C2618",
"|.	c #2D2917",
"1.	c #575027",
"2.	c #174157",
"3.	c #146D99",
"4.	c #141515",
"5.	c #143A51",
"6.	c #156E99",
"7.	c #17252C",
"8.	c #1C1817",
"9.	c #4F4327",
"0.	c #84762D",
"a.	c #3D3E20",
"b.	c #4C4822",
"c.	c #474522",
"d.	c #1C2219",
"e.	c #222B1F",
"f.	c #272516",
"g.	c #494627",
"h.	c #192C35",
"i.	c #182830",
"j.	c #151B1D",
"k.	c #18272F",
"l.	c #20191C",
"m.	c #544532",
"n.	c #86782D",
"o.	c #514C23",
"p.	c #5F5625",
"q.	c #5B5325",
"r.	c #494420",
"s.	c #1B1F18",
"t.	c #1D271A",
"u.	c #1D1B18",
"v.	c #312C26",
"w.	c #191517",
"x.	c #2D1B2C",
"y.	c #40233D",
"z.	c #4B3D31",
"A.	c #4E4822",
"B.	c #423D1D",
"C.	c #151713",
"D.	c #1B2218",
"E.	c #2A3627",
"F.	c #1F291C",
"G.	c #232D20",
"H.	c #283425",
"I.	c #251823",
"J.	c #51254E",
"K.	c #672261",
"L.	c #61225B",
"M.	c #442342",
"N.	c #50284D",
"O.	c #5B3355",
"P.	c #50452B",
"Q.	c #575124",
"R.	c #282A19",
"S.	c #242618",
"T.	c #171B15",
"U.	c #283225",
"V.	c #21281E",
"W.	c #2D1B2B",
"X.	c #6B2E67",
"Y.	c #932D8B",
"Z.	c #8A2D83",
"`.	c #5F2E5C",
" +	c #653D58",
".+	c #745E45",
"++	c #484722",
"@+	c #6D6328",
"#+	c #6C6228",
"$+	c #605824",
"%+	c #1E2217",
"&+	c #293325",
"*+	c #151512",
"=+	c #392E24",
"-+	c #7F6053",
";+	c #8F5B6D",
">+	c #7F436C",
",+	c #83496C",
"'+	c #8E6067",
")+	c #7A604C",
"!+	c #7E6847",
"~+	c #87782E",
"{+	c #4F4A23",
"]+	c #555023",
"^+	c #766B2A",
"/+	c #89792D",
"(+	c #5D5523",
"_+	c #272F21",
":+	c #141512",
"<+	c #524C23",
"[+	c #6E6228",
"}+	c #918130",
"|+	c #81732B",
"1+	c #262A1A",
"2+	c #766A2A",
"3+	c #514B23",
"4+	c #5D5525",
"5+	c #83752C",
"6+	c #8D7D2E",
"7+	c #6F6427",
"8+	c #253023",
"9+	c #263124",
"0+	c #1D231B",
"a+	c #82742C",
"b+	c #87792E",
"c+	c #3D3C20",
"d+	c #544C20",
"e+	c #685E24",
"f+	c #44401E",
"g+	c #252D1F",
"h+	c #282A1A",
"i+	c #51491F",
"j+	c #706426",
"k+	c #6B6128",
"l+	c #262818",
"m+	c #1E2014",
"n+	c #212417",
"o+	c #262D1E",
"p+	c #232E21",
"q+	c #3C2516",
"r+	c #7F4C23",
"s+	c #895428",
"t+	c #AA6C3A",
"u+	c #A36837",
"v+	c #845528",
"w+	c #794F26",
"x+	c #543C1D",
"y+	c #784F25",
"z+	c #3C2F18",
"A+	c #2E2113",
"B+	c #22291F",
"C+	c #54331A",
"D+	c #B56C30",
"E+	c #BB7134",
"F+	c #D88846",
"G+	c #F09A53",
"H+	c #EA9550",
"I+	c #CD7F3F",
"J+	c #A6632B",
"K+	c #6C3F19",
"L+	c #A4622B",
"M+	c #47280D",
"N+	c #412B15",
"O+	c #263023",
"P+	c #22281D",
"Q+	c #49361D",
"R+	c #8E592A",
"S+	c #A06530",
"T+	c #DC8B48",
"U+	c #E79550",
"V+	c #B87B3E",
"W+	c #8B5D29",
"X+	c #664A1F",
"Y+	c #8A5D28",
"Z+	c #53421A",
"`+	c #4B3D1A",
" @	c #262E20",
".@	c #262416",
"+@	c #5D4A23",
"@@	c #955B2B",
"#@	c #B8753F",
"$@	c #AA703A",
"%@	c #655C26",
"&@	c #796C2A",
"*@	c #6D6126",
"=@	c #252A1A",
"-@	c #272A1B",
";@	c #49421E",
">@	c #574F22",
",@	c #2A2817",
"'@	c #625A26",
")@	c #84762C",
"!@	c #272F20",
"~@	c #5C5425",
"{@	c #1C1C14",
"]@	c #43401F",
"^@	c #7B6F2B",
"/@	c #8C7C2E",
"(@	c #6C6126",
"_@	c #1F291B",
":@	c #4B4621",
"<@	c #161813",
"[@	c #22261A",
"}@	c #514A20",
"|@	c #1F2317",
"1@	c #232B20",
"2@	c #242115",
"3@	c #48421E",
"4@	c #443E1D",
"5@	c #1B2118",
"6@	c #1D241A",
"7@	c #222A1E",
"8@	c #6E6225",
"9@	c #625822",
"0@	c #1A1E17",
"a@	c #191E16",
"b@	c #151613",
"c@	c #1A2017",
"d@	c #1B2319",
"e@	c #1B2018",
"f@	c #1E1712",
"g@	c #321F10",
"h@	c #2D1D10",
"i@	c #171A14",
"j@	c #242218",
"k@	c #3B220F",
"l@	c #48290D",
"m@	c #5B3413",
"n@	c #77461E",
"o@	c #1A2018",
"p@	c #262318",
"q@	c #543116",
"r@	c #935726",
"s@	c #A05F2B",
"t@	c #1B2219",
"u@	c #1D251B",
"v@	c #252E20",
"w@	c #493821",
"x@	c #8E5527",
"y@	c #AB662D",
"z@	c #794A23",
"A@	c #1E261B",
"B@	c #262F20",
"C@	c #4D3B23",
"D@	c #8A562A",
"E@	c #7B4E26",
"F@	c #20291C",
"G@	c #232D1F",
"H@	c #1D2719",
"  . . . . . + @ @ # + . $ % % % % % % % . . . + @ @ @ # + . . . . . . . . . & * ",
". . . . = @ @ @ . . . . - ; ; ; ; ; ; > . . . + @ @ @ . . . . . . . . . . . . . ",
", . . .   + @ @       ' ) ! ~ ; ; ; { ] ^ / ( / _ _ / : . . . . . . . <   [ [ } ",
"% . . . . . + @ @ @ = | | | ! ; ; ; @ 1 2 3 4 5 5 5 6 7 ( : . . . .   8 9 ; ; 0 ",
"- . % } } } ' % @ @ = | | | a b c ' 1 d e f g h h h i j k l m % . .   8 n o p 0 ",
"q % % | | | | | + @ = | | | | | + 1 r e g h h h h h h h s t u v . .   8 8 w % x ",
"= y * n z | | | A } - | | | | | - B C g D E F G H h h I J K L M N . . O = 1 +   ",
"@ P 8 8 Q R | | | | | | | | | | | S T D U V W X Y Z I `  .....+.@.. . .   @ @ @ ",
"@ @ @ @ #.8 % | | | | | } . } | | S T s V W W W $.%.&.*.......=.M N . . . . = @ ",
"@ @ @ @ #.8 % | | | | | } . } | | S T -.W W W W W ;.>.,.'.......+.@.. . . . = @ ",
"+ + + + y 8 O ' | | | - } % - | | S ).!.~.{.].^./.(._.&.*.......=.M :.c c c <.. ",
"% . . . [.}.8 8 - | - . ' | | | | S |.1.2.3.4.5.6.7.8.9.0.a.b.b.c.+.d.; ; ; ; 0 ",
". . . . = [.y #.o % % . % } } } % e.f.g.h.i.W j.h.k.l.m.n.o.p.q.r.2 s.; ; ; ; 0 ",
"= . . . . . + @ @ @ + . . . . . # t.u.v.W W W W w.x.y.z.J K A.B.2 C.D.; ; ; ; E.",
"n #.F.G.. .           . . . . . H.c I.J.K.K.K.L.M.N.O.P.Q...=.R.S.T.@ . ' a a U.",
"* 8 #.  . . . . . . . . . . . . b V.W.X.Y.Y.Y.Z.`. +.+q.b.++@+#+$+%+@ @   | | A ",
"% + @ @ = . . . . . . . . . } | &+*+=+-+;+>+,+'+)+!+~+{+]+^+h h /+(+_+| | | | - ",
"% + @ @ = . . . . . . . . . } | p :+T h I f g h h h ~+<+[+h h h }+|+1+| | | | - ",
". . . . . . - | | | | | } . } | S :+T h h h h h h I 2+3+4+5+h h 6+7+1+| | | } . ",
"' ' % .     ' 8+| | | | - ' - | 9+0+).a+h h h h h b+ ...c+d+&.&.e+f+g+| | | } . ",
"- | - . = @ @ @ - | | | | | | | | 9+h+i+F F F F j+k+....=.l+m+n+o+/ + | | | } % ",
"- | - } % = + @ . p+% | | | | | } ' B q+r+r+s+t+u+v+w+x+y+z+A+B+| ' % ' } | } % ",
"- | | | } . + @ @ @ = | | | | | % . S C+D+E+F+G+H+I+J+K+L+M+N+| | | | . % | } % ",
"  - | | - - .       . % } | } % - O+P+Q+R+S+T+G+U+V+W+X+Y+Z+`+ @| | | - } % % . ",
"+ - | | | | % . . . . . ' | ' . - S .@b.b.+@@@#@$@%@f f f &@*@=@| | | | - . .   ",
"- | - . . . . . . . . . . . . . O -@;@p.p.>@W *+,@'@h h h }+)@u !@% . . . . . % ",
"} | - % . . . . . . . . . . . . :.|.p.p.~@r.W W {@]@^@h h h /@(@1+% % . . . . . ",
"_@- | | } . . . . . . . . . + @ :.|.p.~@:@R.W W <@[@}@h h h }+|+|@1@| . . . [.P ",
"+ ' } } ' . . . . . .       + @ F.2@3@4@R.W C.5@6@7@_.F F F 8@9@:+0@} . . . [.w ",
"  . . . . . . . . .   @ @ @ @ @ y a@W W W W b@c@d@O d.e@f@g@g@g@h@@.. . . . [.w ",
"  . . . . . . . . .   @ @ @ @ @ @ t.W W W W W W i@. . O j@k@l@m@n@@.. . . . [.w ",
". . . . . . . . . . .   = @ =     9 o@W W W W W T.. . . e.p@q@r@s@@.. . . .   9 ",
". . . . . . . . . . . . = @   . . . O d.d.5@c@t@u@. . . v@w@x@y@z@A@. . . . . . ",
"% .   @ @ @   . . . . . = @ @ @ . . . . . . . . . . . . B@C@D@E@A@.   w F@| | - ",
"% .   @ @ @   . . . . . = @ @ @   . . . . . . . . . . . . . . . . .   8 F.| | - ",
"| % . . = @ @ @ @ @ @ @ #.8 8 8 8 8 . . . . . . . | | | | | | ' . .   8 8 w O | ",
"} . . .   + + + + + + @ 1 w 8 8 8 8 = O . .   % % | | | - } } % . . G@#.* * Q } ",
"@ . . . . . . . . .   @ @ @ H@8 8 8 8 * . = @ ' | | | | } @ @ = . . . .   @ @ @ ",
"= . . . . . . . = = = @ @ @ y #.#.#.#.1 =   % - | | | % . = =   . . . . . = + @ ",
"  . . . . . . . @ @ @ @ @ @ @ @ @ @ @ @ @ . | | | | | @ + . . . . . . . . . = + "};
