/* XPM */
static char * _3_xpm[] = {
"40 40 280 2",
"  	c #232E20",
". 	c #202B1D",
"+ 	c #1F2A1C",
"@ 	c #1F2A1D",
"# 	c #242F20",
"$ 	c #242F21",
"% 	c #212B1D",
"& 	c #1D2619",
"* 	c #212C1E",
"= 	c #273224",
"- 	c #2C3828",
"; 	c #2A3626",
"> 	c #222D1F",
", 	c #253022",
"' 	c #273324",
") 	c #2B3627",
"! 	c #2C3728",
"~ 	c #283424",
"{ 	c #273223",
"] 	c #222C1F",
"^ 	c #263223",
"/ 	c #283325",
"( 	c #2B3525",
"_ 	c #21291A",
": 	c #222B1C",
"< 	c #242C1E",
"[ 	c #1C2518",
"} 	c #1F291C",
"| 	c #263123",
"1 	c #293426",
"2 	c #2A3526",
"3 	c #232C1F",
"4 	c #38361B",
"5 	c #3C381B",
"6 	c #514A1F",
"7 	c #554E1F",
"8 	c #413D1C",
"9 	c #292F1D",
"0 	c #1E271A",
"a 	c #242E20",
"b 	c #242E22",
"c 	c #322F19",
"d 	c #685E26",
"e 	c #706428",
"f 	c #8D7D2F",
"g 	c #928230",
"h 	c #776B2A",
"i 	c #5B5221",
"j 	c #283224",
"k 	c #1D271A",
"l 	c #1F281B",
"m 	c #273124",
"n 	c #33301A",
"o 	c #6B6027",
"p 	c #443F1D",
"q 	c #292F20",
"r 	c #1E291B",
"s 	c #232D1F",
"t 	c #191C17",
"u 	c #665C25",
"v 	c #897A2E",
"w 	c #80722B",
"x 	c #7F712A",
"y 	c #85772D",
"z 	c #908030",
"A 	c #615926",
"B 	c #565024",
"C 	c #302F19",
"D 	c #222A1E",
"E 	c #1E281A",
"F 	c #181B16",
"G 	c #85772C",
"H 	c #5F5523",
"I 	c #282515",
"J 	c #141412",
"K 	c #4B441F",
"L 	c #786B28",
"M 	c #8F7F2F",
"N 	c #3E3F21",
"O 	c #373A20",
"P 	c #1E1F15",
"Q 	c #212A1E",
"R 	c #625824",
"S 	c #746727",
"T 	c #736729",
"U 	c #464422",
"V 	c #262819",
"W 	c #20281C",
"X 	c #1E281B",
"Y 	c #232D20",
"Z 	c #181C16",
"` 	c #443D1A",
" .	c #595325",
"..	c #3A3C20",
"+.	c #263122",
"@.	c #253021",
"#.	c #202A1C",
"$.	c #7B6E2A",
"%.	c #3F3819",
"&.	c #124E6E",
"*.	c #142938",
"=.	c #202B1E",
"-.	c #242E21",
";.	c #574F22",
">.	c #2E3027",
",.	c #137BAD",
"'.	c #143F58",
").	c #127BAC",
"!.	c #16435D",
"~.	c #141717",
"{.	c #1E171C",
"].	c #86772D",
"^.	c #524E23",
"/.	c #424121",
"(.	c #454321",
"_.	c #1E271B",
":.	c #171B15",
"<.	c #4F4921",
"[.	c #2C3838",
"}.	c #1A313C",
"|.	c #151C1E",
"1.	c #192D37",
"2.	c #2F1C2E",
"3.	c #877730",
"4.	c #5B5324",
"5.	c #5F5625",
"6.	c #585124",
"7.	c #39391E",
"8.	c #1B1C14",
"9.	c #1D261A",
"0.	c #323023",
"a.	c #1D1D17",
"b.	c #321C30",
"c.	c #331E32",
"d.	c #7C6E2E",
"e.	c #534C21",
"f.	c #38381E",
"g.	c #1F291B",
"h.	c #3D213B",
"i.	c #501E4B",
"j.	c #521D4D",
"k.	c #3C1D39",
"l.	c #40223F",
"m.	c #5B2C58",
"n.	c #49333A",
"o.	c #5B5127",
"p.	c #414021",
"q.	c #212317",
"r.	c #171713",
"s.	c #202A1D",
"t.	c #171A15",
"u.	c #572A54",
"v.	c #8B2D84",
"w.	c #932D8B",
"x.	c #6B2E67",
"y.	c #5F2E5C",
"z.	c #6D4B54",
"A.	c #625531",
"B.	c #565124",
"C.	c #5C5525",
"D.	c #2E2C17",
"E.	c #66494C",
"F.	c #8D5074",
"G.	c #89407A",
"H.	c #873C79",
"I.	c #754D5B",
"J.	c #705053",
"K.	c #8D7B38",
"L.	c #655B26",
"M.	c #484522",
"N.	c #585224",
"O.	c #8A7B2E",
"P.	c #645A23",
"Q.	c #2F321C",
"R.	c #49441C",
"S.	c #20291B",
"T.	c #253023",
"U.	c #7F722C",
"V.	c #45401C",
"W.	c #232C1E",
"X.	c #1E241B",
"Y.	c #151713",
"Z.	c #4E4821",
"`.	c #796C29",
" +	c #5E5523",
".+	c #32331C",
"++	c #283223",
"@+	c #232E21",
"#+	c #4C451F",
"$+	c #81732C",
"%+	c #4B4923",
"&+	c #1F2114",
"*+	c #212315",
"=+	c #242819",
"-+	c #262B1B",
";+	c #5D381C",
">+	c #653D1D",
",+	c #82522C",
"'+	c #87562F",
")+	c #6C4221",
"!+	c #6C4924",
"~+	c #6D4C25",
"{+	c #483A1E",
"]+	c #664824",
"^+	c #3D2916",
"/+	c #291B11",
"(+	c #1B1C15",
"_+	c #181B15",
":+	c #A6632C",
"<+	c #C4783A",
"[+	c #E9954F",
"}+	c #F09A53",
"|+	c #D08141",
"1+	c #B96F32",
"2+	c #B56C30",
"3+	c #673C17",
"4+	c #A8642C",
"5+	c #47280D",
"6+	c #292A1A",
"7+	c #263023",
"8+	c #222B1F",
"9+	c #212418",
"0+	c #925A29",
"a+	c #D88847",
"b+	c #EE9852",
"c+	c #DA8E4C",
"d+	c #AE6E34",
"e+	c #A3672D",
"f+	c #65441C",
"g+	c #98602A",
"h+	c #4E3916",
"i+	c #2D2D1A",
"j+	c #3F3D1F",
"k+	c #97612B",
"l+	c #C98144",
"m+	c #D18648",
"n+	c #7E612E",
"o+	c #6D6228",
"p+	c #3C381A",
"q+	c #242E1F",
"r+	c #323019",
"s+	c #595123",
"t+	c #2D2917",
"u+	c #544D20",
"v+	c #2A2F1E",
"w+	c #2A2716",
"x+	c #2C2F1B",
"y+	c #8F802F",
"z+	c #87782D",
"A+	c #48421C",
"B+	c #1E2619",
"C+	c #161914",
"D+	c #524B21",
"E+	c #1F2116",
"F+	c #3B3518",
"G+	c #191F17",
"H+	c #171C15",
"I+	c #151613",
"J+	c #34371E",
"K+	c #191D17",
"L+	c #212B1E",
"M+	c #332517",
"N+	c #151513",
"O+	c #1B2119",
"P+	c #905628",
"Q+	c #A05F2A",
"R+	c #A05F29",
"S+	c #4B2D18",
"T+	c #41250E",
"U+	c #231911",
"V+	c #5D391D",
"W+	c #71421B",
"X+	c #73431B",
"Y+	c #362214",
"Z+	c #181C15",
"`+	c #905728",
" @	c #9D5F2B",
".@	c #9E602C",
"+@	c #4A321C",
"@@	c #1D2719",
"            . + + @ .   # $ $ $ $ $ $ $       . + + + @ .                   % & ",
"        * + + +         = - - - - - - ;       . + + +                           ",
"        > . + + > > > , ' ) ! - - - ~ { > >   * . . *                 % ] ^ ^ ^ ",
"            . + + + * / / / ) - - ( _ _ _ : < <                       [ } - - - ",
"|   $ | | | , $ + + * / / / 1 2 3 4 5 6 7 7 7 8 9 <   | | | | $       [ 0 a { - ",
"/   $ / / / / / + + * / / / / b c d e f g g g h i 8 9 j / / / ,       [ [ [   - ",
"* k 0 l a / / / m | = / / / b n d f g g g g g g g o p q , * * >       ] * r . > ",
"+ [ [ [ s / / / / / / / / / t u f v w x y z g g v A B C D } + *         > + + + ",
"+ + + + E [ , / / / / / |   F G v H I J K L M v A N O O P Q                 * + ",
"+ + + + E [ , / / / / / |   F G R I J J J J S T U O O O V W >               * + ",
". . . . X [ Y , / / / = | $ Z G ` J J J J J J G  ...O O O P Q > > , +.+.+.+.@.  ",
"        #.[ [ [ / / =   , / t $.%.&.*.J &.*.J S T U O O O V W =.+ ; - - - - - - ",
"*       * #.X E -.$ $   $ | F ;.>.,.'.J ).!.~.{.].^./.(.(...P _.E a @.- - - - - ",
"+           . + + + .       :.<.[.}.|.J 1.}.|.2.3. .4.5.6.7.8.9.[ [ [ - - - - - ",
"& E }       > > > > >       :.0.a.J J J J {.b.c.d.A B e.f.8.Z =.* g.r   $ 1 1 1 ",
"[ [ E                       :.h.i.j.j.j.k.l.m.n.o.p.O V q.r.Q     . + + * / / / ",
"  + + + *                 s.t.u.v.w.w.w.x.y.z.A.6.N B.C.C.D.X , / / / / / / / / ",
"  + + + *                 :.J E.F.G.H.H.I.J.K.L.M.N.O.g g P.Q.$ = / / / / / / / ",
"            = / / / / / | :.J G g h e e f g g  .4.O.g g g g R.S.+ = / / / / |   ",
", , $   > > , T./ / / / = F J G g g g g g g v A B U.z g g v V.W.> , T./ / / |   ",
"/ / =   * + + + / / / / / X.Y.$.z g g g g g L.N O Z.`.w w  +.+++/ * + / / / |   ",
"/ / = | $ * . +   @+$ / / / X.#+L x x x x $+%+O O P &+*+=+-+++/ / , $ , | / |   ",
"/ / / / |   . + + + * / / / / t ;+>+,+'+)+!+~+{+]+^+/+(+=./ / / / / /   $ / |   ",
"> / / / = =   > > >   $ | / | _+:+<+[+}+|+1+2+3+4+3+5+6+. * * 7+/ / / = | $ $   ",
"+ / / / / / $           , / 8+9+0+a+b+}+c+d+e+f+g+f+h+i++ + + , / / / / =       ",
"/ / =                       :.j+(.k+l+m+n+o+e e e e e p+q+/ / / / $             ",
"= / = $                   s.r+s+5.5.t+J <.O.g g g g g u+v+{ = / / $ $         > ",
"+ / / / |                 :.;.5.5.6.w+J x+h y+g g g g h p+S.+ , / / /       . [ ",
"* | | | ,             > > t.;.5.6.7.8.J J x+z+g g g g g A+B+@ $ | | |       . [ ",
"                    > + + C+K D+f.8.J E+r.J S x x x x x F+J Q               . [ ",
"                    > + + G+H+I+J E+q.J+P J J J J J J Z K+K+L+              . [ ",
"                      > * + * t.;+!+~+~+M+t.N+J J J J Q                     > L+",
"                        * + > O+P+Q+R+R+S+} C+J J J J Q                         ",
"    > + + + >           * + + + :.T+5+5+U+Q O+K+K+I+J Q               & l / / / ",
"    > + + + >           * + + 9.V+W+X+X+Y+Q       O+K+L+              [ X / / / ",
"/       * + + + + + + + E [ [ Z+`+ @.@.@+@L+      / / / / / / ,       [ [ [ L+/ ",
"|       > . . . . . . + r & [ [ [ [ * ]     > $ $ / / / = | | $       E 0 & % | ",
"+                   > + + + @@[ [ [ [ 0   * + , / / / / | + + *         > + + + ",
"*               * * * + + + X E E E E r * > $ = / / / $   * * >           * . + ",
"                + + + + + + + + + + + + +   / / / / / + .                   * + "};
