/* XPM */
static char * 1_xpm[] = {
"40 40 144 2",
"  	c #232E20",
". 	c #202B1D",
"+ 	c #1F2A1C",
"@ 	c #1F2A1D",
"# 	c #242F20",
"$ 	c #242F21",
"% 	c #212B1D",
"& 	c #1D2619",
"* 	c #212C1E",
"= 	c #273224",
"- 	c #2C3828",
"; 	c #2A3626",
"> 	c #222D1F",
", 	c #253022",
"' 	c #273324",
") 	c #2B3627",
"! 	c #2C3728",
"~ 	c #283424",
"{ 	c #273223",
"] 	c #222C1F",
"^ 	c #263223",
"/ 	c #283325",
"( 	c #1C2518",
"_ 	c #202A1D",
": 	c #263123",
"< 	c #272E1F",
"[ 	c #252716",
"} 	c #23291A",
"| 	c #1E271A",
"1 	c #242E20",
"2 	c #20281E",
"3 	c #433D1C",
"4 	c #5F5625",
"5 	c #7A6D2A",
"6 	c #928230",
"7 	c #7E712B",
"8 	c #4B451F",
"9 	c #242A1B",
"0 	c #1D271A",
"a 	c #1F281B",
"b 	c #273124",
"c 	c #796C2A",
"d 	c #1E291B",
"e 	c #232D1F",
"f 	c #48421E",
"g 	c #1C2219",
"h 	c #1E281A",
"i 	c #665A23",
"j 	c #918130",
"k 	c #49431E",
"l 	c #151512",
"m 	c #504B23",
"n 	c #373A20",
"o 	c #2B2D1A",
"p 	c #1E251C",
"q 	c #141412",
"r 	c #675B23",
"s 	c #1E281B",
"t 	c #232D20",
"u 	c #6F6325",
"v 	c #181712",
"w 	c #74692A",
"x 	c #263122",
"y 	c #253021",
"z 	c #202A1C",
"A 	c #20271D",
"B 	c #222D1E",
"C 	c #242E21",
"D 	c #1E251B",
"E 	c #423D1C",
"F 	c #136B96",
"G 	c #1074A4",
"H 	c #141719",
"I 	c #116B96",
"J 	c #141515",
"K 	c #1B2219",
"L 	c #4A4A36",
"M 	c #1D3845",
"N 	c #192C35",
"O 	c #141413",
"P 	c #182931",
"Q 	c #1C3845",
"R 	c #251924",
"S 	c #6C5D31",
"T 	c #4C4822",
"U 	c #1F291B",
"V 	c #1F291C",
"W 	c #1C241A",
"X 	c #282A19",
"Y 	c #293426",
"Z 	c #293326",
"` 	c #1D251A",
" .	c #281A27",
"..	c #4B2649",
"+.	c #4F284C",
"@.	c #4B3F2D",
"#.	c #181D15",
"$.	c #283225",
"%.	c #42223F",
"&.	c #792E73",
"*.	c #932D8B",
"=.	c #7F2D78",
"-.	c #5F2E5C",
";.	c #5F4449",
">.	c #141512",
",.	c #7A604C",
"'.	c #6D6328",
").	c #706526",
"!.	c #706426",
"~.	c #253023",
"{.	c #252B1C",
"].	c #262D1E",
"^.	c #232E21",
"/.	c #1D1E14",
"(.	c #7E4C23",
"_.	c #B46C30",
":.	c #D38343",
"<.	c #F09A53",
"[.	c #D88846",
"}.	c #B56C30",
"|.	c #905524",
"1.	c #885022",
"2.	c #47280D",
"3.	c #3A2B17",
"4.	c #263023",
"5.	c #D28243",
"6.	c #835528",
"7.	c #D28343",
"8.	c #C08143",
"9.	c #605625",
"0.	c #716526",
"a.	c #2C2E1A",
"b.	c #6E6325",
"c.	c #1B2018",
"d.	c #212B1E",
"e.	c #8A5225",
"f.	c #1E2219",
"g.	c #1C2319",
"h.	c #321F10",
"i.	c #37200F",
"j.	c #1B2218",
"k.	c #7E4B23",
"l.	c #1A1E15",
"m.	c #1D2719",
"            . + + @ .   # $ $ $ $ $ $ $       . + + + @ .                   % & ",
"        * + + +         = - - - - - - ;       . + + +                           ",
"        > . + + > > > , ' ) ! - - - ~ { > >   * . . *                 % ] ^ ^ ^ ",
"            . + + + * / / / ) - - - + + + *                           ( _ - - - ",
":   $ : : : , $ + + * / / < [ [ [ [ [ [ } >           : : : : $       ( | 1 { - ",
"/   $ / / / / / + + * / 2 3 4 5 6 6 6 7 8 [ 9         / / / / ,       ( ( (   - ",
"* 0 | a 1 / / / b : = 2 3 c 6 6 6 6 6 6 6 7 8 9   = = / : * * >       ] * d . > ",
"+ ( ( ( e / / / / / 2 3 c 6 6 6 6 6 6 6 6 7 4 f g / / / : + + *         > + + + ",
"+ + + + h ( , / / / 2 i j 7 k l 3 5 6 6 7 m n n o p / + .                   * + ",
"+ + + + h ( , / / / 2 i 7 k l q q q r 7 m n n n o p / + .                   * + ",
". . . . s ( t , / / 2 i u v q q q q q r w n n n n o p . *     > > , x x x x y   ",
"        z ( ( ( / / A i u v q q q q q r 7 m n n n o g         * + ; - - - - - - ",
"B       * z s h C $ D E f F G H I G J q r w n n n n o g       _ h 1 y - - - - - ",
".           . + + + K E L M N O P Q N R S w T 4 4 m o g       U ( ( & - - - - ! ",
"| h V       > > > > W X o l q q q q q R S 7 4 4 m o q g       > * U d   $ Y Y Z ",
"& ( h               ` R  .q q q q R ..+.@.m n o q q #.            . + + * / / $.",
"  + + + *           ` %.&.*.*.*.=.-.-.;.4 m n n n o g   > + + , / / / / / / / / ",
"  + + + *         ` >.%.&.*.*.*.=.-.,.7 m n '.6 6 ).9   > + + $ = / / / / / / / ",
"            = / / 2 >.i j 7 4 4 5 6 6 w T 5 6 6 6 6 !.9 > + + + + = / / / / :   ",
", , $   > > , ~./ 2 >.i j 6 6 6 6 6 6 7 4 5 6 6 6 6 !.{.$ > > > > , ~./ / / :   ",
"/ / =   * + + + / 2 >.i j 6 6 6 6 6 7 m n T 5 6 6 7 8 ]./ / / / / * + / / / :   ",
"/ / = : $ * . +   ^.D E c 6 6 6 6 6 w n n o /.[ [ [ } ^., / / / / , $ , : / :   ",
"/ / / / :   . + + + * 2 q q q q q X n n n o q q g + + + > / / / / / /   $ / :   ",
"> / / / = =   > > >   D (._.:.<.[.}.}.|.1.|.2.3.  > > + . * * 4./ / / = : $ $   ",
"+ / / / / / $         ` (.5.<.<.<.[.}.|.1.|.2.3.      + + + + , / / / / =       ",
"/ / =               ` X n 6.7.<.8.9.4 4 4 4 4 8 9       $ / / / / $             ",
"= / = $             ` E 4 4 f l 3 5 6 6 6 6 6 0.9       $ = = / / $ $         > ",
"+ / / / :         ` E 4 4 4 f l X '.6 6 6 6 6 7 8 9     > + + , / / /       . ( ",
"* : : : ,         ` E 4 4 m a.q q X '.6 6 6 6 6 0.9     > . . $ : : :       . ( ",
"                  ` E 4 m a.q q q q r 6 6 6 6 6 b.q g                       . ( ",
"                  ` >.q q q q X o q q q q q q q q q g                       . ( ",
"                      W q X n n o q q q q q q c.>                           > d.",
"                      ` (._.}.}.e.f.` q q q q K                                 ",
"    > + + + >           g.h.2.2.i.g ` q q q q g                       & a / / / ",
"    > + + + >           g.h.2.2.i.g       ` q g                       ( s / / / ",
"/       * + + + + + + j.k._.}.}.e.l.              / / / / / / ,       ( ( ( d./ ",
":       > . . . . . . + d & ( ( ( ( * ]     > $ $ / / / = : : $       h | & % : ",
"+                   > + + + m.( ( ( ( |   * + , / / / / : + + *         > + + + ",
"*               * * * + + + s h h h h d * > $ = / / / $   * * >           * . + ",
"                + + + + + + + + + + + + +   / / / / / + .                   * + "};
