/* XPM */
static char * 2_xpm[] = {
"40 40 320 2",
"  	c #232D1F",
". 	c #232E20",
"+ 	c #202B1D",
"@ 	c #1F2A1C",
"# 	c #1F2A1D",
"$ 	c #242F20",
"% 	c #242F21",
"& 	c #212B1D",
"* 	c #1E271A",
"= 	c #212C1E",
"- 	c #273224",
"; 	c #2C3828",
"> 	c #2A3626",
", 	c #222D1F",
"' 	c #253022",
") 	c #273324",
"! 	c #2B3627",
"~ 	c #2C3728",
"{ 	c #283424",
"] 	c #273223",
"^ 	c #222C1F",
"/ 	c #263223",
"( 	c #283325",
"_ 	c #283224",
": 	c #2A3526",
"< 	c #2B3727",
"[ 	c #232D20",
"} 	c #1C2518",
"| 	c #202A1D",
"1 	c #263123",
"2 	c #212B1E",
"3 	c #293020",
"4 	c #2E2E18",
"5 	c #333118",
"6 	c #3A3719",
"7 	c #363419",
"8 	c #2A2C19",
"9 	c #202B1C",
"0 	c #1E281A",
"a 	c #242E20",
"b 	c #273323",
"c 	c #2B3728",
"d 	c #1F291C",
"e 	c #21271A",
"f 	c #433D1C",
"g 	c #645A26",
"h 	c #776B2A",
"i 	c #918130",
"j 	c #928230",
"k 	c #84762D",
"l 	c #585022",
"m 	c #2B2D1B",
"n 	c #232E1F",
"o 	c #1D2619",
"p 	c #1D271A",
"q 	c #1F281B",
"r 	c #273024",
"s 	c #242A1E",
"t 	c #766A2A",
"u 	c #82742C",
"v 	c #514A21",
"w 	c #2B2E1B",
"x 	c #1E291B",
"y 	c #232C1F",
"z 	c #222B1F",
"A 	c #3F391B",
"B 	c #766929",
"C 	c #908030",
"D 	c #8D7E2F",
"E 	c #8C7D2E",
"F 	c #8D7D2E",
"G 	c #90802F",
"H 	c #7F712C",
"I 	c #5C5425",
"J 	c #4C451F",
"K 	c #1D2219",
"L 	c #252F21",
"M 	c #5B5220",
"N 	c #8F7F2F",
"O 	c #80722B",
"P 	c #4D451F",
"Q 	c #171712",
"R 	c #39341A",
"S 	c #6F6328",
"T 	c #8E7F2F",
"U 	c #514C23",
"V 	c #373A20",
"W 	c #2E301C",
"X 	c #191E16",
"Y 	c #80732C",
"Z 	c #4D461F",
"` 	c #181713",
" .	c #141412",
"..	c #584E1F",
"+.	c #7F722B",
"@.	c #585124",
"#.	c #2F311C",
"$.	c #1B2017",
"%.	c #1E291C",
"&.	c #1E281B",
"*.	c #222A1F",
"=.	c #766928",
"-.	c #1F1D13",
";.	c #5D5320",
">.	c #7B6F2B",
",.	c #3A3C20",
"'.	c #191F17",
").	c #263122",
"!.	c #253021",
"~.	c #202A1C",
"{.	c #585020",
"].	c #736727",
"^.	c #1F282F",
"/.	c #142C3C",
"(.	c #141514",
"_.	c #14232E",
":.	c #141513",
"<.	c #594F1F",
"[.	c #1F271C",
"}.	c #3C361A",
"|.	c #4D4622",
"1.	c #185D82",
"2.	c #1077A8",
"3.	c #141D24",
"4.	c #125C82",
"5.	c #1178A8",
"6.	c #151D21",
"7.	c #161414",
"8.	c #5D5322",
"9.	c #393B20",
"0.	c #3C3D20",
"a.	c #1A2018",
"b.	c #253122",
"c.	c #1B2419",
"d.	c #3A351A",
"e.	c #4B4A31",
"f.	c #1E3741",
"g.	c #192D36",
"h.	c #17242B",
"i.	c #1B3642",
"j.	c #231821",
"k.	c #635431",
"l.	c #4B4722",
"m.	c #5F5625",
"n.	c #5E5525",
"o.	c #514B23",
"p.	c #2C2E1B",
"q.	c #1A1F17",
"r.	c #1F291B",
"s.	c #1D2719",
"t.	c #1E261B",
"u.	c #252519",
"v.	c #2D2E1D",
"w.	c #151613",
"x.	c #1D161B",
"y.	c #2A1A28",
"z.	c #615231",
"A.	c #5C5324",
"B.	c #504A22",
"C.	c #141512",
"D.	c #293426",
"E.	c #1E271C",
"F.	c #261A24",
"G.	c #361D34",
"H.	c #33172F",
"I.	c #2E172B",
"J.	c #2C1B2B",
"K.	c #492647",
"L.	c #532C50",
"M.	c #493D2D",
"N.	c #534D23",
"O.	c #191A14",
"P.	c #171813",
"Q.	c #1E251B",
"R.	c #3C2039",
"S.	c #732D6E",
"T.	c #922D8A",
"U.	c #932D8B",
"V.	c #832D7C",
"W.	c #602E5D",
"X.	c #61345B",
"Y.	c #63474B",
"Z.	c #3D3E21",
"`.	c #464522",
" +	c #3A391D",
".+	c #1B2118",
"++	c #151513",
"@+	c #3F2737",
"#+	c #763B6A",
"$+	c #913885",
"%+	c #8F3285",
"&+	c #913686",
"*+	c #853C78",
"=+	c #663C5A",
"-+	c #785D4D",
";+	c #82742D",
">+	c #524D23",
",+	c #404021",
"'+	c #6A6128",
")+	c #7A6D29",
"!+	c #34341B",
"~+	c #5B511F",
"{+	c #85762D",
"]+	c #665C26",
"^+	c #756929",
"/+	c #786B29",
"(+	c #242A1A",
"_+	c #20291E",
":+	c #726629",
"<+	c #756828",
"[+	c #253023",
"}+	c #1C2419",
"|+	c #161814",
"1+	c #584F20",
"2+	c #8E7E2E",
"3+	c #474421",
"4+	c #706428",
"5+	c #7C6F2B",
"6+	c #4C4620",
"7+	c #242A1B",
"8+	c #6E6328",
"9+	c #8B7C2E",
"0+	c #766B2A",
"a+	c #383B20",
"b+	c #1D1F14",
"c+	c #242616",
"d+	c #242617",
"e+	c #252817",
"f+	c #252B1C",
"g+	c #232E21",
"h+	c #281C14",
"i+	c #3D2716",
"j+	c #3E2716",
"k+	c #462D1A",
"l+	c #53351F",
"m+	c #513A20",
"n+	c #4E4122",
"o+	c #473E21",
"p+	c #413C20",
"q+	c #312F1B",
"r+	c #1B1713",
"s+	c #1E241B",
"t+	c #714420",
"u+	c #B36B2F",
"v+	c #B76E32",
"w+	c #D08141",
"x+	c #EF9953",
"y+	c #DF8D4A",
"z+	c #BA7033",
"A+	c #995A27",
"B+	c #7E4A1E",
"C+	c #47280D",
"D+	c #3D2C17",
"E+	c #263023",
"F+	c #1F271B",
"G+	c #6D4320",
"H+	c #AC682F",
"I+	c #C67B3E",
"J+	c #EC9751",
"K+	c #F09A53",
"L+	c #ED9852",
"M+	c #D58846",
"N+	c #965B28",
"O+	c #7B4B1F",
"P+	c #955A27",
"Q+	c #4A2E10",
"R+	c #3F2F18",
"S+	c #282818",
"T+	c #3B3C20",
"U+	c #754F26",
"V+	c #C3793C",
"W+	c #E5934F",
"X+	c #C48144",
"Y+	c #645926",
"Z+	c #655B26",
"`+	c #544D21",
" @	c #22281C",
".@	c #403A1C",
"+@	c #4F471F",
"@@	c #181712",
"#@	c #3A361A",
"$@	c #726729",
"%@	c #796D29",
"&@	c #4C461F",
"*@	c #242517",
"=@	c #605826",
"-@	c #524B23",
";@	c #2E2F1B",
">@	c #151512",
",@	c #242618",
"'@	c #645C26",
")@	c #776B28",
"!@	c #222718",
"~@	c #1C2619",
"{@	c #5A5124",
"]@	c #514A22",
"^@	c #151713",
"/@	c #716526",
"(@	c #161714",
"_@	c #181D16",
":@	c #181512",
"<@	c #1D1612",
"[@	c #1A1612",
"}@	c #1E271B",
"|@	c #2C1E11",
"1@	c #45270D",
"2@	c #4E2C0F",
"3@	c #492A12",
"4@	c #4D2B10",
"5@	c #844E20",
"6@	c #935728",
"7@	c #2F2C1D",
"8@	c #7B4922",
"9@	c #B26A2F",
"0@	c #8D5427",
"a@	c #1B2119",
"b@	c #20291C",
"c@	c #704A26",
"d@	c #AE682F",
"e@	c #8D5527",
"  . . . . . + @ @ # + . $ % % % % % % % . . . + @ @ @ # + . . . . . . . . . & * ",
". . . . = @ @ @ . . . . - ; ; ; ; ; ; > . . . + @ @ @ . . . . . . . . . . . . . ",
". . . . , + @ @ , , , ' ) ! ~ ; ; ; { ] , , . = + + = . . . . . . . . & ^ / / / ",
"% . . . . . + @ @ @ = ( _ _ : < < < @ @ @ = . . . . . . . . . . . . [ } | ; ; < ",
"] . % 1 1 1 ' % @ @ 2 3 4 5 6 6 6 7 8 9 = , . . . . . 1 1 1 1 % . . [ } 0 a b c ",
"( . % ( ( ( ( ( + d e f g h i j j k l 7 m n . . . . . ( ( ( ( ' . . [ } } o % ; ",
"= p * q a ( ( ( r s f t i j j j j j j u v w , . . - - ( 1 = = , . . . ^ = x + , ",
"@ } } } y ( ( ( z A B C D E F G j j i H I J K , . ( ( ( 1 @ @ = . . . . , @ @ @ ",
"@ @ @ @ 0 } L ( z M N O P Q R S T i H U V V W X @ - ( @ + . . . . . . . . . = @ ",
"@ @ @ @ 0 } L ( z M Y Z `  . . ...+.@.V V V #.$.%.- ( @ + . . . . . . . . . = @ ",
"+ + + + &.} [ ' *.M =.-. . . . . .;.>.,.V V V W '.1 - + = . . , , ' ).).).).!.. ",
"% . . . ~.} } } *.{.].^./.(._./.:.<.+.@.V V V #.K , . . . . . = + > ; ; ; ; ; < ",
", . . . = ~.&.0 [.}.|.1.2.3.4.5.6.7.8.>.9.0.0.,.W a.. . . . . | 0 a b.; ; ; ; < ",
"+ . . . . . + @ c.d.e.f.g.(.h.i.g.j.k.>.l.m.n.o.p.q.. . . . . r.} } s.; ; ; ; < ",
"* 0 d . . . , , t.u.v.w. . . .7.x.y.z.H I A.B.p.C.X &.. . . . , = r.x . % D.D.( ",
"o } 0 . . . . . E.F.G.H.H.H.I.J.K.L.M.N.V #.O.P.X } } . . . . . . + @ @ , ( ( - ",
". @ @ @ = . . [ Q.R.S.T.U.U.V.W.X.Y.n.U Z.`.`. +.+. . . , @ @ ' ( ( ( ( ( ( ( ( ",
". @ @ @ = . . E.++@+#+$+%+&+*+=+-+;+>+,+'+j j )+!+n . . , @ @ % - ( ( ( ( ( ( ( ",
". . . . . . - *.w.~+G {+]+h i j j >.l.^+j j j j /+(+. . , @ @ @ | - ( ( ( ( 1 . ",
"' ' % . , , ' _+++~+G j j j j j i H I :+G j j i <+(+. ' % , , , , ' [+( ( ( 1 . ",
"( ( - . = @ @ }+|+1+2+j j j j j u >+V 3+4+E E 5+6+7+. ( ( ( ( ( ( = + ( ( ( 1 . ",
"( ( - 1 % = + @ [.d.8+9+E E E E 0+a+V #.b+c+d+e+f+= = g+' ( ( ( ( ' % ' 1 ( 1 . ",
"( ( ( ( 1 . + @ @ c.h+i+j+k+l+m+n+o+p+o+q+r+s+' . @ @ @ , ( ( ( ( ( ( . % ( 1 . ",
", ( ( ( - - . , , t.t+u+v+w+x+y+z+A+B+A+C+D+% . . , , @ + = = E+( ( ( - 1 % % . ",
"@ - ( ( ( ( % . [ F+G+H+I+J+K+L+M+N+O+P+Q+R+n . . . . @ @ @ @ ' ( ( ( ( - . . . ",
"( ( - . . . . . E.S+T+0.U+V+W+X+Y+Z+Z+Z+Z+`+(+. . . . . % ( ( ( ( % . . . . . . ",
"- ( - % . . . [  @.@n.m.+@@@ .#@$@j j j j %@m n . . . . % - - ( ( % % . . . . , ",
"@ - ( ( 1 . . E.}.n.m.n.&@@@ .*@=@N j j j k `+(+. . . . , @ @ ' ( ( ( . . . + } ",
"2 1 1 1 ' . . E.}.n.n.-@;@>@ .C.,@'@j j j j )@!@= . . . , + + % 1 1 1 . . . + ~@",
", . . . . . . E.R {@]@;@>@C.^@'.c.<.E E E E /@ .X . . . . . . . . . . . . . + o ",
", . . . . . . [.(@ . . . ._@x %.}+^@w.:@<@<@<@[@X . . . . . . . . . . . . . + o ",
". . . . . . . . E.++ . . . . .q., , }@|@1@C+2@3@q.. . . . . . . . . . . . . , 2 ",
". . . . . . . . [.(@ . . . . .a.. . . [.|@4@5@6@a.. . . . . . . . . . . . . . . ",
". . , @ @ @ , . . [.|+(@^@^@^@'.. . . . 7@8@9@0@a@. . . . . . . . . . o b@( ( ( ",
". . , @ @ @ , . . . . . = @ @ @ , . . . c@d@e@a@. . . . . . . . . . [ } d ( ( ( ",
"( . . . = @ @ @ @ @ @ @ 0 } } } } } . . . . . . . ( ( ( ( ( ( ' . . [ } } ~@^ ( ",
"1 . . . , + + + + + + @ x o } } } } = ^ . . , % % ( ( ( - 1 1 % . . . 0 * o = 1 ",
"@ . . . . . . . . . , @ @ @ s.} } } } * . = @ ' ( ( ( ( 1 @ @ = . . . . , @ @ @ ",
"= . . . . . . . = = = @ @ @ &.0 0 0 0 x = , % - ( ( ( % . = = , . . . . . = + @ ",
". . . . . . . . @ @ @ @ @ @ @ @ @ @ @ @ @ . ( ( ( ( ( @ + . . . . . . . . . = @ "};
