/* XPM */
static char * 3_xpm[] = {
"40 40 320 2",
"  	c #232E20",
". 	c #202B1D",
"+ 	c #1F2A1C",
"@ 	c #1F2A1D",
"# 	c #242F20",
"$ 	c #242F21",
"% 	c #212B1D",
"& 	c #1D2619",
"* 	c #212C1E",
"= 	c #273224",
"- 	c #2C3828",
"; 	c #2A3626",
"> 	c #222D1F",
", 	c #253022",
"' 	c #273324",
") 	c #2B3627",
"! 	c #2C3728",
"~ 	c #283424",
"{ 	c #273223",
"] 	c #222C1F",
"^ 	c #263223",
"/ 	c #232819",
"( 	c #242717",
"_ 	c #252717",
": 	c #252818",
"< 	c #262918",
"[ 	c #2A3323",
"} 	c #1C2518",
"| 	c #202A1D",
"1 	c #263123",
"2 	c #1C2219",
"3 	c #4A431F",
"4 	c #5B5324",
"5 	c #7C6F2B",
"6 	c #8C7D2E",
"7 	c #706528",
"8 	c #413D1D",
"9 	c #252817",
"0 	c #252D1F",
"a 	c #1E271A",
"b 	c #242E20",
"c 	c #283325",
"d 	c #1E251B",
"e 	c #49431F",
"f 	c #7E702B",
"g 	c #8E7F2F",
"h 	c #918130",
"i 	c #928230",
"j 	c #90802F",
"k 	c #8D7E2F",
"l 	c #403B1C",
"m 	c #21291A",
"n 	c #1D271A",
"o 	c #1F281B",
"p 	c #1E241B",
"q 	c #756929",
"r 	c #5D5424",
"s 	c #3B371B",
"t 	c #222B1F",
"u 	c #1E291B",
"v 	c #232D1F",
"w 	c #1D231A",
"x 	c #726727",
"y 	c #908030",
"z 	c #796C2A",
"A 	c #4C431D",
"B 	c #332E16",
"C 	c #564E21",
"D 	c #83752D",
"E 	c #786B2A",
"F 	c #4E4A23",
"G 	c #3C3D20",
"H 	c #383A20",
"I 	c #242719",
"J 	c #232B20",
"K 	c #1E281A",
"L 	c #171C14",
"M 	c #756928",
"N 	c #46401C",
"O 	c #1C1A13",
"P 	c #141412",
"Q 	c #1E1D14",
"R 	c #2D2916",
"S 	c #796C29",
"T 	c #4F4A23",
"U 	c #393B20",
"V 	c #373A20",
"W 	c #252718",
"X 	c #1B2419",
"Y 	c #605621",
"Z 	c #1E1C13",
"` 	c #2A2615",
" .	c #766928",
"..	c #625B26",
"+.	c #36391F",
"@.	c #242618",
"#.	c #1C2419",
"$.	c #1E281B",
"%.	c #5E5420",
"&.	c #191812",
"*.	c #736829",
"=.	c #474522",
"-.	c #1B2318",
";.	c #263122",
">.	c #253021",
",.	c #202A1C",
"'.	c #514920",
").	c #413B1B",
"!.	c #1376A6",
"~.	c #125E84",
"{.	c #14181B",
"].	c #1076A7",
"^.	c #141718",
"/.	c #776A28",
"(.	c #222D1E",
"_.	c #191F16",
":.	c #4D451F",
"<.	c #3F4438",
"[.	c #1C4255",
"}.	c #17303D",
"|.	c #141514",
"1.	c #193B4D",
"2.	c #1B3D4E",
"3.	c #17242C",
"4.	c #291A28",
"5.	c #796B30",
"6.	c #655C27",
"7.	c #514C23",
"8.	c #5C5425",
"9.	c #1B2217",
"0.	c #1F291C",
"a.	c #1A2118",
"b.	c #30321C",
"c.	c #282A1D",
"d.	c #161A1B",
"e.	c #141616",
"f.	c #151818",
"g.	c #15191B",
"h.	c #2A1B29",
"i.	c #796B31",
"j.	c #5E5525",
"k.	c #5F5625",
"l.	c #4B4722",
"m.	c #2A2A19",
"n.	c #161613",
"o.	c #192016",
"p.	c #1F291B",
"q.	c #2B1D28",
"r.	c #231A21",
"s.	c #151413",
"t.	c #4F274C",
"u.	c #452443",
"v.	c #574C2B",
"w.	c #2E2D19",
"x.	c #1D1C14",
"y.	c #212A1E",
"z.	c #283324",
"A.	c #222C1E",
"B.	c #293426",
"C.	c #293326",
"D.	c #4A2648",
"E.	c #7D2C77",
"F.	c #8D2B85",
"G.	c #712C6C",
"H.	c #5C2D59",
"I.	c #5E2E5B",
"J.	c #5D4840",
"K.	c #494622",
"L.	c #35381F",
"M.	c #242517",
"N.	c #252E22",
"O.	c #283225",
"P.	c #1A2018",
"Q.	c #151513",
"R.	c #4D274A",
"S.	c #822D7B",
"T.	c #932D8B",
"U.	c #762E71",
"V.	c #5F2E5C",
"W.	c #806847",
"X.	c #73662C",
"Y.	c #4C4722",
"Z.	c #766B2A",
"`.	c #8D7D2F",
" +	c #5C5321",
".+	c #242C1D",
"++	c #191F17",
"@+	c #151512",
"#+	c #72652B",
"$+	c #907C3C",
"%+	c #927D3F",
"&+	c #79663B",
"*+	c #655339",
"=+	c #817037",
"-+	c #8E7D36",
";+	c #918032",
">+	c #675F27",
",+	c #524D23",
"'+	c #7E712B",
")+	c #141512",
"!+	c #605725",
"~+	c #82742C",
"{+	c #605622",
"]+	c #595224",
"^+	c #84762D",
"/+	c #45401D",
"(+	c #252D1E",
"_+	c #253023",
":+	c #796B2A",
"<+	c #4F4B23",
"[+	c #2B2C19",
"}+	c #333018",
"|+	c #3A3719",
"1+	c #333118",
"2+	c #2A3120",
"3+	c #212417",
"4+	c #322D16",
"5+	c #39381D",
"6+	c #272919",
"7+	c #151612",
"8+	c #161612",
"9+	c #222A1F",
"0+	c #283224",
"a+	c #232E21",
"b+	c #8C5326",
"c+	c #AD672E",
"d+	c #D38545",
"e+	c #E6944F",
"f+	c #C67B3D",
"g+	c #AE682F",
"h+	c #AE692F",
"i+	c #7A491F",
"j+	c #935826",
"k+	c #79471E",
"l+	c #44270E",
"m+	c #2C1C10",
"n+	c #21291E",
"o+	c #1D251B",
"p+	c #151613",
"q+	c #925728",
"r+	c #D98846",
"s+	c #EE9952",
"t+	c #F09A53",
"u+	c #ED9851",
"v+	c #CC7F3E",
"w+	c #B56C30",
"x+	c #7F4B1E",
"y+	c #995A27",
"z+	c #7E4A1E",
"A+	c #47280D",
"B+	c #342713",
"C+	c #272F20",
"D+	c #263023",
"E+	c #1D241A",
"F+	c #49421E",
"G+	c #645625",
"H+	c #A36930",
"I+	c #DE8C4A",
"J+	c #B27A3E",
"K+	c #715C28",
"L+	c #6B5826",
"M+	c #625524",
"N+	c #665625",
"O+	c #5D5323",
"P+	c #1B2219",
"Q+	c #49421F",
"R+	c #5D5525",
"S+	c #675726",
"T+	c #5C4521",
"U+	c #53351F",
"V+	c #453A20",
"W+	c #776C2A",
"X+	c #716628",
"Y+	c #292918",
"Z+	c #171813",
"`+	c #5D5521",
" @	c #1C1E15",
".@	c #161714",
"+@	c #1F271C",
"@@	c #2B2B19",
"#@	c #171713",
"$@	c #5D5320",
"%@	c #1E271C",
"&@	c #232014",
"*@	c #212B1E",
"=@	c #1C2118",
"-@	c #1D251A",
";@	c #372110",
">@	c #905625",
",@	c #714320",
"'@	c #23261B",
")@	c #1E291C",
"!@	c #2C2B18",
"~@	c #222014",
"{@	c #1B2418",
"]@	c #8C5629",
"^@	c #714420",
"/@	c #3B2311",
"(@	c #46280D",
"_@	c #532F11",
":@	c #492C15",
"<@	c #2F2A1C",
"[@	c #232D20",
"}@	c #181D16",
"|@	c #915828",
"1@	c #AF682F",
"2@	c #7D491E",
"3@	c #4A2A0E",
"4@	c #321E10",
"5@	c #21261B",
"6@	c #191E17",
"7@	c #322216",
"8@	c #945828",
"9@	c #B0682F",
"0@	c #362011",
"a@	c #393321",
"b@	c #433621",
"c@	c #322E1C",
"d@	c #22291B",
"e@	c #1D2719",
"            . + + @ .   # $ $ $ $ $ $ $       . + + + @ .                   % & ",
"        * + + +         = - - - - - - ;       . + + +                           ",
"        > . + + > > > , ' ) ! - - - ~ { > >   * . . *                 % ] ^ ^ ^ ",
"            . + / ( _ : : : < [ - - + + + *                           } | - - - ",
"1   $ 1 1 1 , 2 3 4 5 6 6 6 7 8 9 0 + . * >           1 1 1 1 $       } a b { - ",
"c   $ c c c d e f g h i i i j k 7 l m .               c c c c ,       } } }   - ",
"* n a o b p e f h i i i i i i i q r s t = ,       = = c 1 * * >       ] * u . > ",
"+ } } } v w x y z A B C D i i E F G H I J 1       c c c 1 + + *         > + + + ",
"+ + + + K L M E N O P Q R S E T U V V W X + + + + = c + .                   * + ",
"+ + + + K L M Y Z P P P P `  ...H V V +.@.#.+ + + = c + .                   * + ",
". . . . $.L M %.&.P P P P P  .*.=.V V V W -.+ . . 1 = . *     > > , ;.;.;.;.>.  ",
"        ,.L '.).!.~.{.].~.^.` /...V V V +.@.#.>               * + ; - - - - - - ",
"(.      * _.:.<.[.}.|.1.2.3.4.5.6.7.8.8.=.W 9.0.,.            | K b >.- - - - - ",
".         a.b.c.d.e.P f.g.e.h.i.*.j.k.l.m.n.o.} } >           p.} } & - - - - ! ",
"a K 0.    a.q.r.s.P P P 4.t.u.v.F G w.x.n.y.z.A.u K $.        > * p.u   $ B.B.C.",
"& } K     a.D.E.F.F.F.G.H.I.J.j.K.V +.L.M.N.- # + } }             . + + * c c O.",
"  + + + P.Q.R.S.T.T.T.U.V.W.X.Y.U V Z.`.6  +.+          > + + , c c c c c c c c ",
"  + + ++@+P #+$+%+&+*+=+-+;+>+,+8.'+y i i g  +.+        > + + $ = c c c c c c c ",
"      a.)+P M h i j g h i E !+j.k.~+i i i i {+.+        > + + + + = c c c c 1   ",
", , $ a.)+P M h i i i i i q k.k.l.]+^+i i E /+(+,     , $ > > > > , _+c c c 1   ",
"c c = > ++P '.D i i i i :+<+G G U [+}+|+|+1+2+c c     c c c c c c * + c c c 1   ",
"c c = 1   | 3+R 4+4+4+4+5+U V V 6+n.7+8+9+0+c 1 , * * a+, c c c c , $ , 1 c 1   ",
"c c c c 1   ++b+c+d+e+f+g+h+i+j+k+l+m+n+O.c c ,   + + + > c c c c c c   $ c 1   ",
"> c c c = o+p+q+r+s+t+u+v+w+x+y+z+A+B+C+c 1 $     > > + . * * D+c c c = 1 $ $   ",
"+ c c c c E+F+G+H+I+t+J+K+L+M+N+M+O+l C+c 1           + + + + , c c c c =       ",
"c c =   P+Q+R+k.S+T+U+V+W+g g g g g X+l .+              $ c c c c $             ",
"= c = $ a.:.k.k.Y.Y+@+Z+/.i i i i i j `+ @.@.@+@        $ = = c c $ $         > ",
"+ c c c w :.k.Y.@@#@P P 5+5 i i i i i $@@+P P %@        > + + , c c c       . } ",
"* 1 1 E+p+Q &@x.n.P d *@=@/.i i i i i $@P P P -@>       > . . $ 1 1 1       . } ",
"    P+;@l+>@c+,@'@] ] + )@!@4+4+4+4+4+~@P _.{@$.+                           . } ",
"]@^@/@(@A+_@:@<@[@  > + + )@u }@P P P P _.} } $.+                           . } ",
"|@1@2@3@A+4@5@[@      > * + * * 6@P P E+y.,.$.*@>                           > *@",
"7@8@9@2@0@5@[@          * + >   > ] ] [@  * + >                                 ",
"] a@b@c@d@0.>           * + + +                                       & o c c c ",
"    > + + + >           * + + + >                                     } $.c c c ",
"c       * + + + + + + + K } } } } }               c c c c c c ,       } } } *@c ",
"1       > . . . . . . + u & } } } } * ]     > $ $ c c c = 1 1 $       K a & % 1 ",
"+                   > + + + e@} } } } a   * + , c c c c 1 + + *         > + + + ",
"*               * * * + + + $.K K K K u * > $ = c c c $   * * >           * . + ",
"                + + + + + + + + + + + + +   c c c c c + .                   * + "};
