/* XPM */
static char * _1_xpm[] = {
"40 40 477 2",
"  	c #222C1F",
". 	c #232E20",
"+ 	c #202B1D",
"@ 	c #1F2A1C",
"# 	c #1F2A1D",
"$ 	c #242F20",
"% 	c #242F21",
"& 	c #232D1F",
"* 	c #202A1C",
"= 	c #1E281B",
"- 	c #212C1E",
"; 	c #273224",
"> 	c #2C3828",
", 	c #2A3626",
"' 	c #222D1F",
") 	c #253022",
"! 	c #273324",
"~ 	c #2B3627",
"{ 	c #2C3728",
"] 	c #283424",
"^ 	c #273223",
"/ 	c #1C2419",
"( 	c #191F17",
"_ 	c #1A2018",
": 	c #1B2119",
"< 	c #202A1D",
"[ 	c #212B1D",
"} 	c #232D20",
"| 	c #263223",
"1 	c #253122",
"2 	c #283325",
"3 	c #26281B",
"4 	c #6A3F1C",
"5 	c #804D22",
"6 	c #926A47",
"7 	c #997453",
"8 	c #895B37",
"9 	c #7F4A1D",
"0 	c #7A471D",
"a 	c #4D321A",
"b 	c #1F281C",
"c 	c #1D2619",
"d 	c #263123",
"e 	c #293426",
"f 	c #2A3526",
"g 	c #263122",
"h 	c #24271B",
"i 	c #6B3F1C",
"j 	c #925420",
"k 	c #8C5323",
"l 	c #8E603A",
"m 	c #A16D43",
"n 	c #9F6331",
"o 	c #9B5A22",
"p 	c #975721",
"q 	c #71431B",
"r 	c #382918",
"s 	c #1B2318",
"t 	c #1F281B",
"u 	c #252F21",
"v 	c #283324",
"w 	c #2B3727",
"x 	c #23271B",
"y 	c #8B5120",
"z 	c #78471D",
"A 	c #864E1F",
"B 	c #965721",
"C 	c #985821",
"D 	c #7E4A1D",
"E 	c #5F3919",
"F 	c #372716",
"G 	c #1A2317",
"H 	c #1E271A",
"I 	c #273124",
"J 	c #222218",
"K 	c #804B1D",
"L 	c #9B5B25",
"M 	c #A27249",
"N 	c #A57B54",
"O 	c #9F6739",
"P 	c #7F4B1E",
"Q 	c #6B411C",
"R 	c #443319",
"S 	c #212E1A",
"T 	c #212F1A",
"U 	c #22301B",
"V 	c #232F1C",
"W 	c #1C2518",
"X 	c #222C1E",
"Y 	c #1D2118",
"Z 	c #533919",
"` 	c #67461F",
" .	c #855E3A",
"..	c #906743",
"+.	c #77522E",
"@.	c #65441D",
"#.	c #65431D",
"$.	c #69401B",
"%.	c #8A501F",
"&.	c #895120",
"*.	c #76461D",
"=.	c #6F5220",
"-.	c #678633",
";.	c #639939",
">.	c #5D9036",
",.	c #3D5D26",
"'.	c #1E281A",
").	c #1C2618",
"!.	c #242E21",
"~.	c #191E16",
"{.	c #181E14",
"].	c #1D2315",
"^.	c #3F3218",
"/.	c #49381A",
"(.	c #302B17",
"_.	c #1D2716",
":.	c #2D421E",
"<.	c #333519",
"[.	c #6C3F1A",
"}.	c #765321",
"|.	c #738733",
"1.	c #749B3A",
"2.	c #6B9D3C",
"3.	c #69A13E",
"4.	c #6FAA40",
"5.	c #598934",
"6.	c #334C22",
"7.	c #141412",
"8.	c #161913",
"9.	c #2E431E",
"0.	c #364F22",
"a.	c #243218",
"b.	c #1D2615",
"c.	c #436529",
"d.	c #3C4D21",
"e.	c #5F471D",
"f.	c #728733",
"g.	c #6A9B3B",
"h.	c #5C8D37",
"i.	c #558032",
"j.	c #62973A",
"k.	c #568533",
"l.	c #334D22",
"m.	c #202B1C",
"n.	c #1E291B",
"o.	c #1C2619",
"p.	c #1F291B",
"q.	c #1B2315",
"r.	c #233319",
"s.	c #558432",
"t.	c #598835",
"u.	c #416228",
"v.	c #466A2B",
"w.	c #548034",
"x.	c #3D5623",
"y.	c #4A3717",
"z.	c #576726",
"A.	c #496829",
"B.	c #426228",
"C.	c #4D742F",
"D.	c #4B732D",
"E.	c #334D23",
"F.	c #253020",
"G.	c #1D271A",
"H.	c #1E2A17",
"I.	c #293D1C",
"J.	c #659B3C",
"K.	c #4D722E",
"L.	c #558034",
"M.	c #5A8936",
"N.	c #3B5523",
"O.	c #3A2310",
"P.	c #422910",
"Q.	c #313217",
"R.	c #2D431E",
"S.	c #365023",
"T.	c #2D4024",
"U.	c #22251B",
"V.	c #9E8972",
"W.	c #7F785A",
"X.	c #385324",
"Y.	c #4E772F",
"Z.	c #507930",
"`.	c #536B36",
" +	c #A49E75",
".+	c #8A985E",
"++	c #43280F",
"@+	c #3D2B12",
"#+	c #372A13",
"$+	c #272216",
"%+	c #263023",
"&+	c #222E1F",
"*+	c #24241C",
"=+	c #C2A78D",
"-+	c #D2B898",
";+	c #89915F",
">+	c #547E33",
",+	c #537D33",
"'+	c #5B733D",
")+	c #C6AF8F",
"!+	c #CFBB96",
"~+	c #848B5B",
"{+	c #3B4C1F",
"]+	c #2E2313",
"^+	c #2C1D11",
"/+	c #2B1F13",
"(+	c #282B1E",
"_+	c #293526",
":+	c #1F291C",
"<+	c #283425",
"[+	c #293525",
"}+	c #293425",
"|+	c #26281E",
"1+	c #AC8C6F",
"2+	c #E0BE9D",
"3+	c #9A916E",
"4+	c #406027",
"5+	c #516432",
"6+	c #B39875",
"7+	c #DCBC9B",
"8+	c #988D6A",
"9+	c #705421",
"0+	c #7A481D",
"a+	c #4A2E17",
"b+	c #1A2118",
"c+	c #2A3324",
"d+	c #66513A",
"e+	c #9A7B60",
"f+	c #6C5C45",
"g+	c #1E2916",
"h+	c #1B2416",
"i+	c #323E20",
"j+	c #6C5D3E",
"k+	c #8D785F",
"l+	c #876845",
"m+	c #7B712D",
"n+	c #73782F",
"o+	c #474B20",
"p+	c #1C251A",
"q+	c #212218",
"r+	c #73431C",
"s+	c #70451D",
"t+	c #492E15",
"u+	c #523216",
"v+	c #5C3B1A",
"w+	c #603E1B",
"x+	c #764E20",
"y+	c #79722D",
"z+	c #678936",
"A+	c #5C8B37",
"B+	c #4F7730",
"C+	c #344D24",
"D+	c #273323",
"E+	c #824F25",
"F+	c #BA9374",
"G+	c #B18E6E",
"H+	c #BA987A",
"I+	c #967358",
"J+	c #73451C",
"K+	c #8B5922",
"L+	c #757F32",
"M+	c #5D8D38",
"N+	c #598736",
"O+	c #3D5A26",
"P+	c #263322",
"Q+	c #814D22",
"R+	c #A57B5C",
"S+	c #937256",
"T+	c #9D7A5F",
"U+	c #876245",
"V+	c #8A5621",
"W+	c #6E6E2B",
"X+	c #588535",
"Y+	c #4E7630",
"Z+	c #314720",
"`+	c #253023",
" @	c #242B1F",
".@	c #53351B",
"+@	c #6D431F",
"@@	c #8F6845",
"#@	c #825936",
"$@	c #70431C",
"%@	c #8A5220",
"&@	c #694C1E",
"*@	c #405723",
"=@	c #3B5925",
"-@	c #2F451F",
";@	c #24301E",
">@	c #283224",
",@	c #373020",
"'@	c #91613C",
")@	c #95653E",
"!@	c #252F22",
"~@	c #2F3122",
"{@	c #372D1C",
"]@	c #422F1C",
"^@	c #6A4E34",
"/@	c #5F422A",
"(@	c #4B2E16",
"_@	c #4E2F16",
":@	c #623917",
"<@	c #613A18",
"[@	c #3C2B17",
"}@	c #1E261C",
"|@	c #1E251A",
"1@	c #232A1D",
"2@	c #2A3325",
"3@	c #293225",
"4@	c #232E21",
"5@	c #332F20",
"6@	c #CD8A55",
"7@	c #E3985F",
"8@	c #A76D40",
"9@	c #251B13",
"0@	c #5D3D23",
"a@	c #5C3B20",
"b@	c #925F37",
"c@	c #442D1A",
"d@	c #5C3921",
"e@	c #633D22",
"f@	c #694225",
"g@	c #684125",
"h@	c #684225",
"i@	c #6A4225",
"j@	c #674124",
"k@	c #664327",
"l@	c #6E4F3A",
"m@	c #877468",
"n@	c #7E6A5E",
"o@	c #87766A",
"p@	c #7A685C",
"q@	c #6F665B",
"r@	c #2A3125",
"s@	c #2B3223",
"t@	c #503E28",
"u@	c #8B5E3A",
"v@	c #CB8854",
"w@	c #DF965C",
"x@	c #C8824D",
"y@	c #D88F56",
"z@	c #9D663B",
"A@	c #412712",
"B@	c #965E33",
"C@	c #8B5831",
"D@	c #B4784B",
"E@	c #6B4221",
"F@	c #955D32",
"G@	c #9E6436",
"H@	c #AC6D3C",
"I@	c #AC6E3D",
"J@	c #B4805F",
"K@	c #CBB6A8",
"L@	c #B09E91",
"M@	c #CAB9AB",
"N@	c #AF9D90",
"O@	c #B4A79B",
"P@	c #34372D",
"Q@	c #382B1A",
"R@	c #7A502E",
"S@	c #B37749",
"T@	c #A46B3F",
"U@	c #8F5A31",
"V@	c #83522D",
"W@	c #C78453",
"X@	c #9C663B",
"Y@	c #151F19",
"Z@	c #302A1D",
"`@	c #2C241A",
" #	c #684427",
".#	c #2B2016",
"+#	c #623A1A",
"@#	c #74431D",
"##	c #734628",
"$#	c #605B5F",
"%#	c #695048",
"&#	c #643A1B",
"*#	c #58341A",
"=#	c #492C17",
"-#	c #3B2B1F",
";#	c #3E3C33",
">#	c #37362D",
",#	c #3F3D35",
"'#	c #36352C",
")#	c #3A3B31",
"!#	c #292F20",
"~#	c #2A2F21",
"{#	c #222B1E",
"]#	c #21291C",
"^#	c #282E20",
"/#	c #5B432B",
"(#	c #543C24",
"_#	c #1C2319",
":#	c #332314",
"<#	c #603815",
"[#	c #6E4018",
"}#	c #6D4730",
"|#	c #647A88",
"1#	c #6D808E",
"2#	c #5B5152",
"3#	c #452B16",
"4#	c #352213",
"5#	c #1E1913",
"6#	c #1C211A",
"7#	c #1E261B",
"8#	c #191914",
"9#	c #5A3515",
"0#	c #633B18",
"a#	c #633E23",
"b#	c #675B59",
"c#	c #686467",
"d#	c #5E4940",
"e#	c #452A14",
"f#	c #382210",
"g#	c #362110",
"h#	c #262414",
"i#	c #334A22",
"j#	c #486B2E",
"k#	c #4B7130",
"l#	c #42612A",
"m#	c #41602B",
"n#	c #171914",
"o#	c #151412",
"p#	c #281B11",
"q#	c #4D2E14",
"r#	c #693E1A",
"s#	c #6D411B",
"t#	c #543214",
"u#	c #352010",
"v#	c #2D2513",
"w#	c #33441E",
"x#	c #3D5B26",
"y#	c #486C2C",
"z#	c #496C2C",
"A#	c #395423",
"B#	c #354E25",
"C#	c #271B11",
"D#	c #402714",
"E#	c #472C16",
"F#	c #372814",
"G#	c #31411D",
"H#	c #354E22",
"I#	c #3C5825",
"J#	c #3F5D27",
"K#	c #212C19",
"L#	c #1D251A",
"M#	c #1C241A",
"N#	c #161814",
"O#	c #141512",
"P#	c #1E271C",
"Q#	c #1B2319",
"R#	c #1A2116",
"S#	c #30471F",
"T#	c #4C712E",
"U#	c #527B32",
"V#	c #46692B",
"W#	c #30461F",
"X#	c #222E1B",
"Y#	c #1D2719",
"Z#	c #171B15",
"`#	c #161813",
" $	c #192017",
".$	c #212B1E",
"+$	c #2E421F",
"@$	c #517A31",
"#$	c #598836",
"$$	c #3F5E26",
"%$	c #28391B",
"&$	c #232E1C",
"*$	c #181E16",
"=$	c #232F1E",
"-$	c #344D22",
";$	c #385624",
">$	c #25361A",
",$	c #1C231A",
"'$	c #181C16",
")$	c #20291D",
"!$	c #212A1D",
"  . . . . . + @ @ # + . $ % % % % % % % . . . + @ @ @ # + . . . . . . . . & * = ",
". . . . - @ @ @ & . . . ; > > > > > > , . . . + @ @ @ . . . . . . . . . . . . . ",
"% . . . ' + @ @ ' ' ' ) ! ~ { > > > ] ^ ' ' . - + / ( _ _ _ _ _ : < . [ } | | 1 ",
") . . . . . + @ @ @ - ; 2 2 ~ > > > @ @ @ - . . 3 4 5 6 7 8 9 9 0 a b c   > > , ",
"! % % d d d ) % + @ - ; 2 2 e f g ) @ + - ' . h i j k l m n o o p q r s t u v w ",
"e % % ; 2 2 2 2 + @ - ; 2 2 2 2 + @ @ + . . x 4 j y z A B o o o C D E F G H ) w ",
"- = H t & ; 2 2 I d ; 2 2 2 2 2 ; d d ; ; ) J K L M N O o o o o C P Q R S T U V ",
"@ c W W X ; 2 2 2 2 2 2 2 2 2 2 2 2 2 2 2 d Y Z `  ...+.@.#.$.%.&.*.=.-.;.;.>.,.",
"@ @ @ @ '.).!.2 2 2 2 2 d . d 2 2 2 2 d @ @ ~.{.].^./.(._.:.<.[.}.|.1.2.3.4.5.6.",
"@ @ @ @ '.).!.2 2 2 2 2 d . d 2 2 2 2 d @ @ ~.7.8.9.0.a.b.c.d.e.f.g.h.i.j.k.l.m.",
"- + + + n.o.  ) 2 2 2 ; d % ; 2 2 2 ) !.n.p.~.q.r.s.t.u.v.w.x.y.z.A.B.C.D.E.F.' ",
") . . . [ c W W I 2 ; . ) 2 2 2 2 2 W W W G.~.H.I.;.J.K.L.M.N.O.P.Q.R.S.T., > , ",
"$ . . . - * = '.} % % . % d d d % % '.G.W U.V.W.X.Y.Z.`. +.+N.O.++@+#+$+%+> > , ",
"&+' . . . . + @ @ @ + . . . . . # @ @ n.W *+=+-+;+>+,+'+)+!+~+{+]+^+/+(+, > > _+",
"* '.:+' . . ' ' ' ' ' . . . . . <+[+[+}+] |+1+2+3+4+4+5+6+7+8+9+0+a+b+  ) e e I ",
"p.W H ' . . . . . . . . . . . . w > > > > c+d+e+f+g+h+i+j+k+l+m+n+o+p+@ ' 2 2 %+",
"% + @ @ - . . . . . . . . . d 2 { > > > > <+q+r+s+t+u+v+w+x+y+z+A+B+C+D+2 2 2 ; ",
"% + @ @ - . . . . . . . . . d 2 w > > > w v J E+F+G+H+I+J+K+L+M+M+N+O+P+2 2 2 ; ",
". . . . . . d 2 2 2 2 2 d . d 2 2 2 > , . . J Q+R+S+T+U+J+V+W+X+A+Y+Z+u 2 2 ) . ",
") ) % . ' ' ) `+2 2 2 2 ; ) ; 2 2 2 ! d ) )  @.@+@@@#@$@J+%@&@*@=@-@;@d 2 2 ) . ",
"; 2 ; % - @ @ @ ; 2 2 2 2 2 2 2 >@,@'@)@!@; ~@{@]@^@/@(@_@:@<@[@}@|@1@2@2@3@) % ",
"; 2 ; d % ' + @ & 4@% 2 2 2 I 5@l 6@7@8@9@0@a@b@c@d@e@f@g@h@i@j@k@l@m@n@o@p@q@r@",
"; 2 2 2 d % + @ @ @ - ; s@t@u@v@w@x@y@z@A@B@C@D@E@F@G@H@H@H@H@H@I@J@K@L@M@N@O@P@",
"' ; 2 2 ; ; % ' ' ' . % Q@R@S@T@U@V@W@X@Y@Z@`@ #.#+#@###$#%#&#*#=#-#;#>#,#'#)#!.",
"+ d 2 2 2 2 ) . . . . . !#~#{#]#^#!./#(#; d ' _#:#<#[#}#|#1#2#3#4#5#6#!@d . . ' ",
"; 2 ; % . . . . . . . . . . . . . . . . . . 7#8#O.9#0#a#b#c#d#e#f#g#h#i#j#k#l#m#",
"d 2 ; ) . . . . . . . . . . . . . . . . . 7#n#o#p#q#r#$@$@$@s#t#u#v#w#x#y#z#A#B#",
"n.d 2 2 d % . . . . . . . . + @ . . . . 7#n#7.7.o#C#D#E#E#E#3#F#G#H#I#J#O+-@K#W ",
"+ ) d d ) . . . . . . ' ' ' + @ - L#:+M#N#7.7.7.O#: P#P#7#Q#R#S#T#U#V#O+W#X#= Y#",
"X . . . . . . . . . ' @ @ @ @ @ @ ~.Z#`#7.7.7.O# $.$. . . } [ +$@$#$$$%$&$.$@ H ",
"X . . . . . . . . . ' @ @ @ @ @ @ ~.7.7.7.7.7.*$= . . . . . } =$-$;$>$,$- ' @ H ",
"} . . . . . . . . . . ' - @ - ' ' :+'$7.7.7.*$)$' . . . . . . } )$P#b - . . ' - ",
". . . . . . . . . . . . - @ ' . . . )$P#P#L#= ' . . . . . . . . . . . . . . . . ",
"% . ' + @ @ ' . . . . . - @ @ @ . . . . . . . . . . . . . . . . . . ' c !$2 2 ; ",
"% . ' + @ @ ' . . . . . - @ @ @ ' . . . . . . . . . . . . . . . . . ' o.< 2 2 ; ",
"2 % . . - @ @ @ @ @ @ @ '.W W W W W . . . . . . . 2 2 2 2 2 2 ) . . ' W W c } 2 ",
"d % . . ' + + + + + + @ n.c W W W W -   . . ' % % 2 2 2 ; d d % . . ' '.H H X d ",
"@ ' . . . . . . . . ' @ @ @ Y#W W W W H . - @ ) 2 2 2 2 ) @ @ - . . . . - @ @ @ ",
"- . . . . . . . - - - @ @ @ = '.'.'.'.n.- ' % ; 2 2 2 % . - - ' . . . . . - + @ ",
"' . . . . . . . + @ @ @ @ @ @ @ @ @ @ @ @ . 2 2 2 2 ; @ + . . . . . . . . . - + "};
