/* XPM */
static char * _2_xpm[] = {
"40 40 456 2",
"  	c #232D1F",
". 	c #232E20",
"+ 	c #202B1D",
"@ 	c #1F2A1C",
"# 	c #1F2A1D",
"$ 	c #242F20",
"% 	c #242F21",
"& 	c #212B1D",
"* 	c #1E271A",
"= 	c #212C1E",
"- 	c #273224",
"; 	c #2C3828",
"> 	c #2A3626",
", 	c #1F291C",
"' 	c #1E291B",
") 	c #222C1F",
"! 	c #222D1F",
"~ 	c #253022",
"{ 	c #273324",
"] 	c #2B3627",
"^ 	c #2C3728",
"/ 	c #283424",
"( 	c #273223",
"_ 	c #202A1D",
": 	c #29271A",
"< 	c #352214",
"[ 	c #3A281B",
"} 	c #413225",
"| 	c #3D2D1F",
"1 	c #2E2619",
"2 	c #263223",
"3 	c #283325",
"4 	c #232D20",
"5 	c #2C2A1C",
"6 	c #6B3E1A",
"7 	c #9A5A23",
"8 	c #A57044",
"9 	c #B98B63",
"0 	c #AF7D52",
"a 	c #9B5A22",
"b 	c #9A5922",
"c 	c #7D481D",
"d 	c #252218",
"e 	c #1C2418",
"f 	c #2B3727",
"g 	c #263123",
"h 	c #293426",
"i 	c #2A3526",
"j 	c #263122",
"k 	c #2C291C",
"l 	c #6A3E1A",
"m 	c #8A5120",
"n 	c #73441C",
"o 	c #854F1F",
"p 	c #9A5A22",
"q 	c #8B5220",
"r 	c #5B3719",
"s 	c #242015",
"t 	c #242E20",
"u 	c #273323",
"v 	c #2B3728",
"w 	c #20271C",
"x 	c #643B19",
"y 	c #905625",
"z 	c #7A4E2A",
"A 	c #885327",
"B 	c #6F421C",
"C 	c #593719",
"D 	c #191F15",
"E 	c #1E2719",
"F 	c #1D271A",
"G 	c #1F281B",
"H 	c #273124",
"I 	c #603919",
"J 	c #955822",
"K 	c #A46F44",
"L 	c #B88C64",
"M 	c #AB7B52",
"N 	c #955721",
"O 	c #975821",
"P 	c #995922",
"Q 	c #8A5020",
"R 	c #6F431C",
"S 	c #5D461D",
"T 	c #324C20",
"U 	c #324B20",
"V 	c #2C421D",
"W 	c #1C2518",
"X 	c #232C1F",
"Y 	c #1E271C",
"Z 	c #1A2115",
"` 	c #233018",
" .	c #49371A",
"..	c #6B421C",
"+.	c #583C1B",
"@.	c #223018",
"#.	c #243319",
"$.	c #272F18",
"%.	c #633A19",
"&.	c #704C1E",
"*.	c #715B23",
"=.	c #728733",
"-.	c #75B544",
";.	c #76B644",
">.	c #73B243",
",.	c #5B8D35",
"'.	c #1E281A",
").	c #252F21",
"!.	c #1B2419",
"~.	c #141412",
"{.	c #1C2615",
"].	c #26381B",
"^.	c #212D18",
"/.	c #151712",
"(.	c #2C401C",
"_.	c #385022",
":.	c #4A2E16",
"<.	c #70501F",
"[.	c #728732",
"}.	c #73B344",
"|.	c #6AA33F",
"1.	c #5E8E38",
"2.	c #669D3D",
"3.	c #5C8E35",
"4.	c #212F1A",
"5.	c #151612",
"6.	c #171A13",
"7.	c #2F451E",
"8.	c #45662A",
"9.	c #375123",
"0.	c #202C17",
"a.	c #406127",
"b.	c #4C712D",
"c.	c #483318",
"d.	c #6F7C2F",
"e.	c #6AA13D",
"f.	c #507830",
"g.	c #426229",
"h.	c #588734",
"i.	c #5C8D35",
"j.	c #22301B",
"k.	c #1E281B",
"l.	c #242E21",
"m.	c #1F291B",
"n.	c #1A2215",
"o.	c #24351A",
"p.	c #507C2F",
"q.	c #6DA941",
"r.	c #547E33",
"s.	c #4D722E",
"t.	c #5C8C38",
"u.	c #4B712D",
"v.	c #2E1E11",
"w.	c #43280F",
"x.	c #392E14",
"y.	c #30481F",
"z.	c #496D2C",
"A.	c #476B2C",
"B.	c #1E241B",
"C.	c #253021",
"D.	c #202A1C",
"E.	c #37352A",
"F.	c #454131",
"G.	c #273A1C",
"H.	c #4F792F",
"I.	c #6AA43F",
"J.	c #527C32",
"K.	c #587639",
"L.	c #6C9145",
"M.	c #44280F",
"N.	c #3A2C13",
"O.	c #273118",
"P.	c #222916",
"Q.	c #20271D",
"R.	c #1D2319",
"S.	c #98836D",
"T.	c #C7AF90",
"U.	c #586A3B",
"V.	c #426329",
"W.	c #47632D",
"X.	c #9F9472",
"Y.	c #C8B790",
"Z.	c #5E793E",
"`.	c #312E15",
" +	c #422810",
".+	c #41270F",
"++	c #40270F",
"@+	c #352212",
"#+	c #21291E",
"$+	c #1C2218",
"%+	c #96806B",
"&+	c #E9C8A9",
"*+	c #C5B58E",
"=+	c #598836",
"-+	c #557B34",
";+	c #9F9270",
">+	c #E9C7A8",
",+	c #C3B38C",
"'+	c #4A702D",
")+	c #2B2B17",
"!+	c #342214",
"~+	c #2B1E14",
"{+	c #283425",
"]+	c #293525",
"^+	c #293425",
"/+	c #242C1F",
"(+	c #755A41",
"_+	c #C8A280",
":+	c #BAA186",
"<+	c #233119",
"[+	c #223118",
"}+	c #334520",
"|+	c #7F7248",
"1+	c #C6A380",
"2+	c #B79F84",
"3+	c #372F17",
"4+	c #6C3F1B",
"5+	c #975B23",
"6+	c #785121",
"7+	c #222F1B",
"8+	c #1D2619",
"9+	c #262E22",
"0+	c #4A2D16",
"a+	c #62401B",
"b+	c #2A2C17",
"c+	c #1C1712",
"d+	c #252515",
"e+	c #303419",
"f+	c #323419",
"g+	c #553C1B",
"h+	c #985E24",
"i+	c #83752E",
"j+	c #5C8C37",
"k+	c #4C732E",
"l+	c #283324",
"m+	c #925A2E",
"n+	c #745236",
"o+	c #5A3C23",
"p+	c #6B492F",
"q+	c #7C5233",
"r+	c #71431C",
"s+	c #834D1E",
"t+	c #9A5B23",
"u+	c #87722C",
"v+	c #5D8D38",
"w+	c #25321F",
"x+	c #653C1C",
"y+	c #BB8E6C",
"z+	c #D4B190",
"A+	c #B78C65",
"B+	c #C8A380",
"C+	c #C2A285",
"D+	c #86702C",
"E+	c #5C8B37",
"F+	c #5B8A37",
"G+	c #24311E",
"H+	c #21271C",
"I+	c #603819",
"J+	c #88501F",
"K+	c #68411F",
"L+	c #593C23",
"M+	c #633F21",
"N+	c #70431C",
"O+	c #815B24",
"P+	c #4B6F2D",
"Q+	c #588636",
"R+	c #4E7630",
"S+	c #324720",
"T+	c #1F251C",
"U+	c #253023",
"V+	c #472D19",
"W+	c #8D6542",
"X+	c #B48A64",
"Y+	c #9F7651",
"Z+	c #6C411B",
"`+	c #6D411B",
" @	c #7E4B1D",
".@	c #955621",
"+@	c #814B1D",
"@@	c #422F14",
"#@	c #1E2817",
"$@	c #171915",
"%@	c #283224",
"&@	c #373020",
"*@	c #92623C",
"=@	c #95653E",
"-@	c #252F22",
";@	c #2F3122",
">@	c #39301E",
",@	c #282C1F",
"'@	c #281E13",
")@	c #2A1D12",
"!@	c #291D12",
"~@	c #281C12",
"{@	c #342111",
"]@	c #563315",
"^@	c #7B481D",
"/@	c #74441D",
"(@	c #1D2218",
"_@	c #2A3325",
":@	c #263023",
"<@	c #232E21",
"[@	c #342F20",
"}@	c #8F603B",
"|@	c #CD8B56",
"1@	c #E3985F",
"2@	c #A76D40",
"3@	c #241B13",
"4@	c #5D3D23",
"5@	c #5B3A1F",
"6@	c #935F38",
"7@	c #432D1B",
"8@	c #5C3A22",
"9@	c #643F25",
"0@	c #6B4429",
"a@	c #6B4325",
"b@	c #694225",
"c@	c #694125",
"d@	c #684124",
"e@	c #674124",
"f@	c #6A4731",
"g@	c #887569",
"h@	c #7C675C",
"i@	c #89786C",
"j@	c #7A675B",
"k@	c #766B60",
"l@	c #2A3125",
"m@	c #2B3223",
"n@	c #513F28",
"o@	c #8D5F3B",
"p@	c #CD8955",
"q@	c #E0965C",
"r@	c #C7814C",
"s@	c #D88F56",
"t@	c #9D663B",
"u@	c #402612",
"v@	c #965E33",
"w@	c #8A5730",
"x@	c #B5794C",
"y@	c #694120",
"z@	c #945D32",
"A@	c #9D6336",
"B@	c #AC6D3C",
"C@	c #B07750",
"D@	c #CFBAAB",
"E@	c #AB998C",
"F@	c #CEBDAF",
"G@	c #AB988B",
"H@	c #C0B1A5",
"I@	c #36382E",
"J@	c #382B19",
"K@	c #7D512F",
"L@	c #B57849",
"M@	c #A36A3E",
"N@	c #8E5930",
"O@	c #83522D",
"P@	c #C88553",
"Q@	c #9C663B",
"R@	c #151F19",
"S@	c #302A1D",
"T@	c #292319",
"U@	c #694528",
"V@	c #292218",
"W@	c #4E2F1A",
"X@	c #65514D",
"Y@	c #5F5C62",
"Z@	c #724629",
"`@	c #72421D",
" #	c #683D1C",
".#	c #57341A",
"+#	c #4F2E19",
"@#	c #3C271A",
"##	c #3E3A33",
"$#	c #35352C",
"%#	c #403E36",
"&#	c #34332B",
"*#	c #3D3D34",
"=#	c #2A2F20",
"-#	c #2A2F21",
";#	c #212B1E",
">#	c #21291C",
",#	c #282E20",
"'#	c #5C432B",
")#	c #543C24",
"!#	c #332011",
"~#	c #492D17",
"{#	c #525E66",
"]#	c #5E889D",
"^#	c #57707F",
"/#	c #492B11",
"(#	c #3E2611",
"_#	c #241A13",
":#	c #1C1612",
"<#	c #1C1713",
"[#	c #21231B",
"}#	c #2C1C11",
"|#	c #553214",
"1#	c #6E421B",
"2#	c #623A18",
"3#	c #42280F",
"4#	c #352111",
"5#	c #1B2119",
"6#	c #151412",
"7#	c #2C1D11",
"8#	c #6B401B",
"9#	c #6A401B",
"0#	c #5E3718",
"a#	c #352010",
"b#	c #141512",
"c#	c #1B2018",
"d#	c #1F271C",
"e#	c #151613",
"f#	c #1A2114",
"g#	c #191E14",
"h#	c #151513",
"i#	c #151713",
"j#	c #1E261A",
"k#	c #3B5824",
"l#	c #5B8937",
"m#	c #517B32",
"n#	c #344D21",
"o#	c #151512",
"p#	c #1A2017",
"q#	c #1C2619",
"r#	c #1B2318",
"s#	c #293A1B",
"t#	c #3D5B26",
"u#	c #3F5D27",
"v#	c #364F22",
"w#	c #1E2916",
"x#	c #1A2118",
"y#	c #1F261C",
"z#	c #191F17",
"A#	c #1C2519",
"B#	c #2A3A1B",
"C#	c #3F5E27",
"D#	c #4C712E",
"E#	c #1E261C",
"F#	c #1F281C",
"G#	c #2D401D",
"H#	c #416228",
"I#	c #4A6F2D",
"J#	c #486D2C",
"K#	c #1B2219",
"L#	c #1D261B",
"M#	c #161613",
"N#	c #1C2219",
"O#	c #243020",
"P#	c #3E5D2A",
"Q#	c #507832",
"R#	c #324921",
"S#	c #161714",
"T#	c #161814",
"U#	c #1C221A",
"V#	c #20291C",
"W#	c #1D2719",
"  . . . . . + @ @ # + . $ % % % % % % % . . . + @ @ @ # + . . . . . . . . . & * ",
". . . . = @ @ @ . . . . - ; ; ; ; ; ; > . . . + @ , ' ) ) ) ) ) ) ! . . . . . . ",
". . . . ! + @ @ ! ! ! ~ { ] ^ ; ; ; / ( ! ! . = _ : < [ } | < < < 1 ! & ) 2 2 2 ",
"% . . . . . + @ @ @ = 3 3 3 ] ; ; ; @ @ @ = . 4 5 6 7 8 9 0 a a b c d e _ ; ; f ",
"( . % g g g ~ % @ @ = 3 3 3 h i j ~ @ + = ! 4 k l b m n o a a a p q r s * t u v ",
"3 . % 3 3 3 3 3 + @ = 3 3 3 3 3 + @ @ + . . w x a y z A a a a a p q B C D E $ f ",
"= F * G t 3 3 3 H g - 3 3 3 3 3 - g g - - ~ w I J K L M N N N O P Q R S T T U V ",
"@ W W W X 3 3 3 3 3 3 3 3 3 3 3 3 3 3 3 3 g Y Z `  ...+.@.#.$.%.m &.*.=.-.;.>.,.",
"@ @ @ @ '.W ).3 3 3 3 3 g . g 3 3 3 3 g @ @ !.~.~.{.].^./.(._.:.<.[.}.|.1.2.3.4.",
"@ @ @ @ '.W ).3 3 3 3 3 g . g 3 3 3 3 g @ @ !.5.6.7.8.9.0.a.b.c.d.e.f.g.h.i.j.@ ",
"+ + + + k.W 4 ~ 3 3 3 - g % - 3 3 3 ~ l.' m.!.n.o.p.q.r.s.t.u.v.w.x.y.z.A.B.C.. ",
"% . . . D.W W W - 3 - . ~ 3 3 3 3 3 W W W F E.F.G.H.I.J.K.L.u.v.M.N.O.P.Q.; ; f ",
"! . . . = D.k.'.l.% % . % g g g % % '.F W R.S.T.U.V.V.W.X.Y.Z.`. +.+++@+#+; ; f ",
"+ . . . . . + @ @ @ + . . . . . # @ @ ' W $+%+&+*+=+=+-+;+>+,+'+)+!+~+Q.; ; ; f ",
"* '., . . . ! ! ! ! ! . . . . . {+]+]+^+/ /+(+_+:+<+[+}+|+1+2+3+4+5+6+7+. h h 3 ",
"8+W '.. . . . . . . . . . . . . f ; ; ; ; ; 9+0+a+b+c+d+e+f+g+o h+i+j+k+7+l+3 - ",
". @ @ @ = . . . . . . . . . g 3 ^ ; ; ; ; {+w x m+n+o+p+q+r+s+t+u+v+v+j+k+w+3 3 ",
". @ @ @ = . . . . . . . . . g 3 f ; ; ; f l+w x+y+z+A+B+C+r+s+t+D+E+v+F+'+G+3 3 ",
". . . . . . - 3 3 3 3 3 g . g 3 3 3 ; > . . H+I+J+K+L+M+N+r+s+p O+P+Q+R+S+T+g . ",
"~ ~ % . ! ! ~ U+3 3 3 3 - ~ - 3 3 3 { g ~ ~ ~ #+V+W+X+Y+Z+`+ @.@+@@@#@$@T+3 g . ",
"3 3 - . = @ @ @ 3 3 3 3 3 3 3 3 %@&@*@=@-@- ;@>@,@'@)@)@!@~@{@]@^@/@(@_@_@_@:@. ",
"3 3 - g % = + @ . <@% 3 3 3 H [@}@|@1@2@3@4@5@6@7@8@9@0@a@b@c@d@e@f@g@h@i@j@k@l@",
"3 3 3 3 g . + @ @ @ = 3 m@n@o@p@q@r@s@t@u@v@w@x@y@z@A@B@B@B@B@B@B@C@D@E@F@G@H@I@",
"! 3 3 3 - - . ! ! ! . % J@K@L@M@N@O@P@Q@R@S@T@U@V@W@X@Y@Z@`@ #.#+#@###$#%#&#*#l.",
"@ - 3 3 3 3 % . . . . . =#-#;#>#,#l.'#)#- g ) R.!#~#{#]#^#/#(#_#:#<#[#- - . . . ",
"3 3 - . . . . . . . . . . . . . . . . . . . Y }#|#1#N+N+N+N+R 2#M.3#4#5#. . . . ",
"- 3 - % . . . . . . . . . . . . . . . . . . Y 6#7#|#8#8#8#8#9#0#++a#b#c#! . . ! ",
"@ - 3 3 g . . . . . . . . . + @ . . . . . . d#e#f#[+0.g#h#i#i#i#~.~.~.b#c#! + W ",
";#g g g ~ . . . . . . ! ! ! + @ = ! ! = ;#;#;#j#k#l#m#n#8+, @ Q.i#~.~.~.o#p#@ q#",
"! . . . . . . . . . ! @ @ @ @ @ @ @ @ ' W W W r#s#t#u#u#v#w#x#. y#e#~.~.~.b#z#8+",
"! . . . . . . . . . ! @ @ @ @ @ @ @ @ ' W W W k.A#B#t#C#D#u.x#. . E#e#~.~.b#z#8+",
". . . . . . . . . . . ! = @ = ! ! ! ! ) ;#D.k.;#! F#G#H#I#J#K#. . . L#~.~.M#N#;#",
". . . . . . . . . . . . = @ ! . . . . . . = @ ! . O#P#Q#R#K#. . . . E#S#T#U#. . ",
". . ! @ @ @ ! . . . . . = @ @ @ . . . . . . . . . . . . . . . . . . . 8+V#3 3 3 ",
". . ! @ @ @ ! . . . . . = @ @ @ ! . . . . . . . . . . . . . . . . . 4 W , 3 3 3 ",
"3 . . . = @ @ @ @ @ @ @ '.W W W W W . . . . . . . 3 3 3 3 3 3 ~ . . 4 W W q#) 3 ",
"g . . . ! + + + + + + @ ' 8+W W W W = ) . . ! % % 3 3 3 - g g % . . . '.* 8+= g ",
"@ . . . . . . . . . ! @ @ @ W#W W W W * . = @ ~ 3 3 3 3 g @ @ = . . . . ! @ @ @ ",
"= . . . . . . . = = = @ @ @ k.'.'.'.'.' = ! % - 3 3 3 % . = = ! . . . . . = + @ ",
". . . . . . . . @ @ @ @ @ @ @ @ @ @ @ @ @ . 3 3 3 3 3 @ + . . . . . . . . . = @ "};
