/* XPM */
static char * _3_xpm[] = {
"40 40 229 2",
"  	c #232E20",
". 	c #202B1D",
"+ 	c #1F2A1C",
"@ 	c #1F2A1D",
"# 	c #242F20",
"$ 	c #242F21",
"% 	c #212B1D",
"& 	c #1D2619",
"* 	c #212C1E",
"= 	c #273224",
"- 	c #2C3828",
"; 	c #2A3626",
"> 	c #222D1F",
", 	c #253022",
"' 	c #273324",
") 	c #2B3627",
"! 	c #2C3728",
"~ 	c #283424",
"{ 	c #273223",
"] 	c #222C1F",
"^ 	c #263223",
"/ 	c #283325",
"( 	c #191E16",
"_ 	c #191F17",
": 	c #1A2018",
"< 	c #1C2518",
"[ 	c #1F291C",
"} 	c #263123",
"| 	c #293426",
"1 	c #2A3526",
"2 	c #263122",
"3 	c #1B2119",
"4 	c #7F4A1D",
"5 	c #9B7655",
"6 	c #1E271A",
"7 	c #242E20",
"8 	c #191E17",
"9 	c #9B5A22",
"0 	c #824C1E",
"a 	c #926844",
"b 	c #A87246",
"c 	c #5B3719",
"d 	c #1D231A",
"e 	c #1D271A",
"f 	c #1F281B",
"g 	c #273124",
"h 	c #70431C",
"i 	c #8D5320",
"j 	c #1C2219",
"k 	c #1E291B",
"l 	c #232D1F",
"m 	c #141412",
"n 	c #A67C56",
"o 	c #1E2A17",
"p 	c #222F1A",
"q 	c #22301B",
"r 	c #23311C",
"s 	c #1E281A",
"t 	c #65441D",
"u 	c #633A19",
"v 	c #639939",
"w 	c #233219",
"x 	c #1A2215",
"y 	c #4B391A",
"z 	c #375123",
"A 	c #759A3A",
"B 	c #679E3D",
"C 	c #77B845",
"D 	c #4F7A2E",
"E 	c #23301E",
"F 	c #1E281B",
"G 	c #232D20",
"H 	c #547E33",
"I 	c #588734",
"J 	c #4C712E",
"K 	c #6EAA41",
"L 	c #222F1D",
"M 	c #253021",
"N 	c #202A1C",
"O 	c #679F3C",
"P 	c #344C21",
"Q 	c #4C732E",
"R 	c #5D8D38",
"S 	c #573415",
"T 	c #5B782C",
"U 	c #406027",
"V 	c #3F5D27",
"W 	c #4C752C",
"X 	c #242E21",
"Y 	c #44280F",
"Z 	c #2F451F",
"` 	c #3B5A25",
" .	c #1E271C",
"..	c #202A1D",
"+.	c #C1A68D",
"@.	c #C7B890",
"#.	c #3A2C13",
"$.	c #1F291B",
"%.	c #ECCBAC",
"&.	c #C4AD8E",
"*.	c #322F16",
"=.	c #2C1D11",
"-.	c #D0A986",
";.	c #804E1F",
">.	c #21291E",
",.	c #785C42",
"'.	c #AB8A6E",
").	c #7A6243",
"!.	c #98866E",
"~.	c #787D31",
"{.	c #5D3D1B",
"].	c #382210",
"^.	c #23301B",
"/.	c #CAAA8D",
"(.	c #9F7855",
"_.	c #253023",
":.	c #826041",
"<.	c #263023",
"[.	c #222A1F",
"}.	c #42411A",
"|.	c #293B1B",
"1.	c #352D1D",
"2.	c #92623C",
"3.	c #95653E",
"4.	c #252F22",
"5.	c #2F3122",
"6.	c #39301E",
"7.	c #21281E",
"8.	c #4B2E16",
"9.	c #795D41",
"0.	c #6C3F18",
"a.	c #804B1E",
"b.	c #824B1C",
"c.	c #20251A",
"d.	c #21281D",
"e.	c #273022",
"f.	c #2A3325",
"g.	c #283224",
"h.	c #302919",
"i.	c #90603A",
"j.	c #CE8B56",
"k.	c #E3985F",
"l.	c #A76D40",
"m.	c #241B13",
"n.	c #5D3D23",
"o.	c #5A391F",
"p.	c #946038",
"q.	c #422D1B",
"r.	c #5A3A22",
"s.	c #623D22",
"t.	c #6A4225",
"u.	c #684125",
"v.	c #674125",
"w.	c #694125",
"x.	c #6A4224",
"y.	c #6E4525",
"z.	c #68442A",
"A.	c #887669",
"B.	c #7B6659",
"C.	c #8A796D",
"D.	c #7A665A",
"E.	c #7A6F65",
"F.	c #2E3529",
"G.	c #2A3122",
"H.	c #523E27",
"I.	c #8E603A",
"J.	c #CE8A55",
"K.	c #E0965C",
"L.	c #C7814C",
"M.	c #D88F56",
"N.	c #9D663B",
"O.	c #402612",
"P.	c #965E33",
"Q.	c #895730",
"R.	c #B67A4C",
"S.	c #684020",
"T.	c #945D32",
"U.	c #9D6336",
"V.	c #AC6D3C",
"W.	c #AE7144",
"X.	c #D1BCAD",
"Y.	c #A89588",
"Z.	c #D1C0B2",
"`.	c #C7B8AB",
" +	c #383930",
".+	c #3A2C1A",
"++	c #7E522F",
"@+	c #B6794A",
"#+	c #A36A3E",
"$+	c #8E5930",
"%+	c #83522D",
"&+	c #C88553",
"*+	c #9C663B",
"=+	c #131D17",
"-+	c #302B1F",
";+	c #292319",
">+	c #6A4528",
",+	c #2B281D",
"'+	c #2A1C14",
")+	c #74431D",
"!+	c #75441D",
"~+	c #4E6775",
"{+	c #5A351A",
"]+	c #5A361A",
"^+	c #422816",
"/+	c #3E3933",
"(+	c #323128",
"_+	c #3F3D35",
":+	c #323129",
"<+	c #3D3C34",
"[+	c #282D1F",
"}+	c #262B1C",
"|+	c #21291C",
"1+	c #252B1C",
"2+	c #1F291D",
"3+	c #5B4128",
"4+	c #533A22",
"5+	c #202A1E",
"6+	c #6E4018",
"7+	c #5C8EA5",
"8+	c #787E88",
"9+	c #472C16",
"0+	c #633B18",
"a+	c #69666A",
"b+	c #1D251A",
"c+	c #212B1E",
"d+	c #1A1F17",
"e+	c #192016",
"f+	c #1D2719",
"            . + + @ .   # $ $ $ $ $ $ $       . + + + @ .                   % & ",
"        * + + +         = - - - - - - ;       . + + +                           ",
"        > . + + > > > , ' ) ! - - - ~ { > >   * . . *                 % ] ^ ^ ^ ",
"            . + + + * / / / ) - - - ( ( ( _ : : : :                   < [ - - - ",
"}   $ } } } , $ + + * / / / | 1 2 3 4 4 5 5 4 4 4 4 : } } } } $       < 6 7 { - ",
"/   $ / / / / / + + * / / / / / 8 4 9 0 a b 9 9 9 9 c d / / / ,       < < <   - ",
"* e 6 f 7 / / / g } = / / / / d 4 9 0 h i 9 9 9 9 9 h c j * * >       ] * k . > ",
"+ < < < l / / / / / / / / / / m 9 9 n n 9 9 9 9 9 9 h h o p p q r       > + + + ",
"+ + + + s < , / / / / / }   } m t t a a t t t u 9 0 h h v v v v w           * + ",
"+ + + + s < , / / / / / }   } m x x y y x x z m 0 h A A B B C D E           * + ",
". . . . F < G , / / / = } $ = m m m z z m m H m h A B I J K D L > , 2 2 2 2 M   ",
"        N < < < / / =   , / / m o o O H P Q R m S T U V H W E * + ; - - - - - - ",
"*       * N F s X $ $   $ } } m w w C R V R R m Y Y w Z `  .  ..s 7 M - - - - - ",
"+           . + + + .       : +.z z I J V @.R m Y Y #.#.m     $.< < < - - - - - ",
"& s [       > > > > >       m %.&.H H H V %.@.Q *.=.=.=. .    > * $.k   $ | | | ",
"< < s                       m -.%.U U U V -.%.U ;.4 m  .          . + + * / / / ",
"  + + + *                   >.,.'.w x x Z ).!.;.9 ~.Q : > + + , / / / / / / / / ",
"  + + + *                   } m i {.].c {.{.;.9 ~.R R Q ^.+ + $ = / / / / / / / ",
"            = / / / / / }   } m 9 /.(./.h h 9 9 R R R R w + + + + = / / / / }   ",
", , $   > > , _./ / / / = , = m 9 '.:.'.h h 9 9 J R R J x > > > > , _./ / / }   ",
"/ / =   * + + + / / } <./ / / [.u h (.h h h 9 9 }.U ` |.[./ / / / * + / / / }   ",
"/ / = } $ * . + l 1.2.3.4.= 5.6.7.8.9.8.8.8.0.a.b.x c.d.e.f.g./ / , $ , } / }   ",
"/ / / / }   [ h.i.j.k.l.m.n.o.p.q.r.s.t.u.v.w.x.y.z.A.B.C.D.E.F./ / /   $ / }   ",
"> / / / G.H.I.J.K.L.M.N.O.P.Q.R.S.T.U.V.V.V.V.V.V.W.X.Y.Z.Y.`. +/ / / = } $ $   ",
"+ / / / .+++@+#+$+%+&+*+=+-+;+>+,+'+)+!+~+!+!+{+]+^+/+(+_+:+<+<./ / / / =       ",
"/ / =   [+}+[ |+1+2+3+4+>   > 5+: ].6+6+7+8+6+9+9+=.m   $ / / / / $             ",
"= / = $                         m 0+0+0+a+a+0+c ].].].: $ = = / / $ $         > ",
"+ / / / }                   . + m S h h h h h h Y Y =.m > + + , / / /       . < ",
"* } } } ,             > > > . + b+=.9+9+9+9+9+9+=.=.m m > . . $ } } }       . < ",
"                    > + + + + + + m m m Q Q P P P P P m                     . < ",
"                    > + + + + + ( m m m R R V V V V V Q                     . < ",
"                      > * + * > m m m m ` J V V V V V J                     > c+",
"                        * + >    .m m m m |.|.|.|.|.|.H                         ",
"    > + + + >           * + + +   m m m m m  . . . .m `               & f / / / ",
"    > + + + >           * + + + d+m m m m m          . .              < F / / / ",
"/       * + + + + + + + s < < < e+e+ . . . .      / / / / / / ,       < < < c+/ ",
"}       > . . . . . . + k & < < < < * ]     > $ $ / / / = } } $       s 6 & % } ",
"+                   > + + + f+< < < < 6   * + , / / / / } + + *         > + + + ",
"*               * * * + + + F s s s s k * > $ = / / / $   * * >           * . + ",
"                + + + + + + + + + + + + +   / / / / / + .                   * + "};
