/* XPM */
static char * 1_xpm[] = {
"40 40 417 2",
"  	c #232E20",
". 	c #202B1D",
"+ 	c #1F2A1C",
"@ 	c #1F2A1D",
"# 	c #242F20",
"$ 	c #242F21",
"% 	c #212B1D",
"& 	c #1D2619",
"* 	c #212C1E",
"= 	c #273224",
"- 	c #2C3828",
"; 	c #2A3626",
"> 	c #222D1F",
", 	c #253022",
"' 	c #273324",
") 	c #2B3627",
"! 	c #2C3728",
"~ 	c #283424",
"{ 	c #273223",
"] 	c #222C1F",
"^ 	c #263223",
"/ 	c #283325",
"( 	c #242D21",
"_ 	c #161814",
": 	c #171915",
"< 	c #151713",
"[ 	c #181D16",
"} 	c #1C2518",
"| 	c #202A1D",
"1 	c #263123",
"2 	c #533218",
"3 	c #945621",
"4 	c #9E683C",
"5 	c #B58B64",
"6 	c #AD7F57",
"7 	c #955622",
"8 	c #955621",
"9 	c #814B1E",
"0 	c #1A1F17",
"a 	c #1E271A",
"b 	c #242E20",
"c 	c #1E271B",
"d 	c #955721",
"e 	c #925521",
"f 	c #764821",
"g 	c #85542B",
"h 	c #9E5F2B",
"i 	c #9B5A22",
"j 	c #905420",
"k 	c #5D3919",
"l 	c #1A1F18",
"m 	c #1D271A",
"n 	c #1F281B",
"o 	c #273124",
"p 	c #222C20",
"q 	c #74451C",
"r 	c #7C4A1E",
"s 	c #995922",
"t 	c #915420",
"u 	c #6F421C",
"v 	c #1E291B",
"w 	c #232D1F",
"x 	c #563317",
"y 	c #9A5922",
"z 	c #A36B3D",
"A 	c #B88C64",
"B 	c #B08158",
"C 	c #9B5B23",
"D 	c #70431C",
"E 	c #623E1B",
"F 	c #223119",
"G 	c #23321A",
"H 	c #25321E",
"I 	c #1E281A",
"J 	c #242114",
"K 	c #3C371A",
"L 	c #533E1F",
"M 	c #7A4E2A",
"N 	c #6D4926",
"O 	c #3D371A",
"P 	c #3A3218",
"Q 	c #5F3818",
"R 	c #73451C",
"S 	c #71702A",
"T 	c #72B142",
"U 	c #639A3A",
"V 	c #22301A",
"W 	c #141612",
"X 	c #161813",
"Y 	c #1F2215",
"Z 	c #303419",
"` 	c #2B2E18",
" .	c #253419",
"..	c #354E22",
"+.	c #412815",
"@.	c #72702A",
"#.	c #76B142",
"$.	c #71A940",
"%.	c #609239",
"&.	c #679D3D",
"*.	c #69A23D",
"=.	c #304621",
"-.	c #1F2B1C",
";.	c #1E281B",
">.	c #232D20",
",.	c #141512",
"'.	c #141412",
").	c #243319",
"!.	c #3D5A26",
"~.	c #151512",
"{.	c #334D20",
"].	c #4F7730",
"^.	c #3F2815",
"/.	c #5A8836",
"(.	c #45682A",
"_.	c #548032",
":.	c #68A03C",
"<.	c #2F4621",
"[.	c #263122",
"}.	c #253021",
"|.	c #202A1C",
"1.	c #191E14",
"2.	c #223018",
"3.	c #446929",
"4.	c #6DA740",
"5.	c #548033",
"6.	c #46682B",
"7.	c #5A8936",
"8.	c #517A31",
"9.	c #2A1D12",
"0.	c #4A3413",
"a.	c #44451A",
"b.	c #324A20",
"c.	c #486B2C",
"d.	c #517B31",
"e.	c #283B1C",
"f.	c #222D1E",
"g.	c #242E21",
"h.	c #20291E",
"i.	c #191F14",
"j.	c #233219",
"k.	c #476C2A",
"l.	c #71AD42",
"m.	c #568334",
"n.	c #496D2C",
"o.	c #5D8D38",
"p.	c #281C11",
"q.	c #44280F",
"r.	c #3D2B12",
"s.	c #243419",
"t.	c #25361A",
"u.	c #212E19",
"v.	c #1F291B",
"w.	c #1D261A",
"x.	c #7E6D5B",
"y.	c #C5AD8F",
"z.	c #435D2B",
"A.	c #405F27",
"B.	c #416128",
"C.	c #878560",
"D.	c #CAB992",
"E.	c #527A32",
"F.	c #43280F",
"G.	c #422910",
"H.	c #392411",
"I.	c #161A14",
"J.	c #1F291C",
"K.	c #1F281C",
"L.	c #84715F",
"M.	c #E8C8A9",
"N.	c #CAB792",
"O.	c #5E8A3A",
"P.	c #5B8937",
"Q.	c #547F33",
"R.	c #8D8764",
"S.	c #E9CAAA",
"T.	c #CAB892",
"U.	c #507731",
"V.	c #252C17",
"W.	c #1C1612",
"X.	c #1F2018",
"Y.	c #293426",
"Z.	c #293326",
"`.	c #20291D",
" +	c #6C543E",
".+	c #CDA783",
"++	c #CEB396",
"@+	c #354524",
"#+	c #2C411D",
"$+	c #777145",
"%+	c #CEA884",
"&+	c #293A1D",
"*+	c #271D12",
"=+	c #613815",
"-+	c #814C1E",
";+	c #1A2018",
">+	c #283225",
",+	c #261F18",
"'+	c #58402D",
")+	c #725237",
"!+	c #232E18",
"~+	c #1B2415",
"{+	c #313B1F",
"]+	c #4B472F",
"^+	c #514935",
"/+	c #503114",
"(+	c #79471D",
"_+	c #975821",
":+	c #8F6A29",
"<+	c #628936",
"[+	c #4D762F",
"}+	c #543217",
"|+	c #8C5320",
"1+	c #633C19",
"2+	c #42270F",
"3+	c #503013",
"4+	c #6C421C",
"5+	c #6C411C",
"6+	c #7A481D",
"7+	c #638A37",
"8+	c #5C8B37",
"9+	c #4E7730",
"0+	c #23311C",
"a+	c #B2815E",
"b+	c #D8B596",
"c+	c #B78C65",
"d+	c #C49D7A",
"e+	c #CDAC8F",
"f+	c #71451F",
"g+	c #7E4A1E",
"h+	c #8D6B29",
"i+	c #527B32",
"j+	c #23311B",
"k+	c #253023",
"l+	c #94592C",
"m+	c #7A5438",
"n+	c #5A3C23",
"o+	c #66462C",
"p+	c #7D5537",
"q+	c #8A5C24",
"r+	c #4B702E",
"s+	c #578334",
"t+	c #3A5624",
"u+	c #1A2017",
"v+	c #1D281A",
"w+	c #232B20",
"x+	c #211913",
"y+	c #4A2D16",
"z+	c #875D3A",
"A+	c #B58A64",
"B+	c #A77D57",
"C+	c #71441D",
"D+	c #8A511E",
"E+	c #3E3516",
"F+	c #2A3D1C",
"G+	c #212D17",
"H+	c #1F271A",
"I+	c #342B1B",
"J+	c #90613A",
"K+	c #95643D",
"L+	c #292D1E",
"M+	c #222D21",
"N+	c #2C2C1D",
"O+	c #3A2D1A",
"P+	c #392819",
"Q+	c #473524",
"R+	c #423021",
"S+	c #332113",
"T+	c #3C2513",
"U+	c #5B3515",
"V+	c #7D4A1E",
"W+	c #804B1E",
"X+	c #1E2219",
"Y+	c #282F22",
"Z+	c #262F21",
"`+	c #242D1F",
" @	c #232E21",
".@	c #342F20",
"+@	c #8E603A",
"@@	c #CC8A55",
"#@	c #E2985F",
"$@	c #A96F41",
"%@	c #2D1F14",
"&@	c #5B3B22",
"*@	c #5A391E",
"=@	c #935F38",
"-@	c #462E1B",
";@	c #5D3A20",
">@	c #623D22",
",@	c #6A4225",
"'@	c #684125",
")@	c #674125",
"!@	c #684025",
"~@	c #674124",
"{@	c #684224",
"]@	c #69442A",
"^@	c #89766A",
"/@	c #7B665A",
"(@	c #8A796D",
"_@	c #7A6659",
":@	c #796D63",
"<@	c #272E22",
"[@	c #262C1E",
"}@	c #513E28",
"|@	c #8C5F3A",
"1@	c #CC8954",
"2@	c #DF965C",
"3@	c #C8824D",
"4@	c #D88F56",
"5@	c #9F673C",
"6@	c #452914",
"7@	c #955D32",
"8@	c #895730",
"9@	c #B5794C",
"0@	c #6A4221",
"a@	c #935D32",
"b@	c #9D6336",
"c@	c #AC6D3C",
"d@	c #AE7145",
"e@	c #D1BCAD",
"f@	c #A89588",
"g@	c #D1C0B2",
"h@	c #A89689",
"i@	c #C6B7AA",
"j@	c #36362D",
"k@	c #263023",
"l@	c #362815",
"m@	c #7C512E",
"n@	c #B47849",
"o@	c #A46B3E",
"p@	c #8F5A31",
"q@	c #83522D",
"r@	c #C68452",
"s@	c #9D673C",
"t@	c #202018",
"u@	c #2F281C",
"v@	c #282218",
"w@	c #694428",
"x@	c #462A15",
"y@	c #6A4F44",
"z@	c #5A5E67",
"A@	c #75441F",
"B@	c #75441D",
"C@	c #6F401C",
"D@	c #5A361A",
"E@	c #543219",
"F@	c #3E2616",
"G@	c #34251A",
"H@	c #403D34",
"I@	c #33322A",
"J@	c #403E36",
"K@	c #3E3E35",
"L@	c #2C3223",
"M@	c #2A2F21",
"N@	c #21291C",
"O@	c #252B1C",
"P@	c #1F291D",
"Q@	c #5A4028",
"R@	c #533A22",
"S@	c #20281D",
"T@	c #231A11",
"U@	c #462910",
"V@	c #54575B",
"W@	c #5E8CA2",
"X@	c #5F7A89",
"Y@	c #513015",
"Z@	c #482B12",
"`@	c #281C13",
" #	c #251A13",
".#	c #1A1612",
"+#	c #191D17",
"@#	c #3D2615",
"##	c #6C411B",
"$#	c #6D4527",
"%#	c #6E4E3C",
"&#	c #6E4B35",
"*#	c #6D411B",
"=#	c #623A18",
"-#	c #41270F",
";#	c #392311",
">#	c #2A1C12",
",#	c #553314",
"'#	c #663D19",
")#	c #3C2410",
"!#	c #161612",
"~#	c #201812",
"{#	c #181C16",
"]#	c #1C2419",
"^#	c #324B20",
"/#	c #598636",
"(#	c #527D32",
"_#	c #354E21",
":#	c #1C251A",
"<#	c #344E21",
"[#	c #5D8C38",
"}#	c #568234",
"|#	c #375223",
"1#	c #27371A",
"2#	c #426329",
"3#	c #375123",
"4#	c #1E261B",
"5#	c #171B15",
"6#	c #212B1E",
"7#	c #3F5D27",
"8#	c #191E17",
"9#	c #171C15",
"0#	c #1F271C",
"a#	c #334B21",
"b#	c #537C32",
"c#	c #1A1F16",
"d#	c #212F1C",
"e#	c #27381D",
"f#	c #23311A",
"g#	c #27391C",
"h#	c #24341B",
"i#	c #1C2418",
"j#	c #1D2719",
"            . + + @ .   # $ $ $ $ $ $ $       . + + + @ .                   % & ",
"        * + + +         = - - - - - - ;       . + + +                           ",
"        > . + + > > > , ' ) ! - - - ~ { > >   * . . *                 % ] ^ ^ ^ ",
"            . + + + * / ( _ : : : : < < [ *                           } | - - - ",
"1   $ 1 1 1 , $ + + * ( 2 3 4 5 6 7 8 8 9 0           1 1 1 1 $       } a b { - ",
"/   $ / / / / / + + c 2 d e f g h i i i j k l         / / / / ,       } } }   - ",
"* m a n b / / / o p 2 8 e q r s i i i i t u k l   = = / 1 * * >       ] * v . > ",
"+ } } } w / / / / ( x y z A B C i i i i t D E F G G G H 1 + + *         > + + + ",
"+ + + + I } , / / ( J K L M N O K P Q e R D S T T T U V .                   * + ",
"+ + + + I } , / / ( W X Y Z ` X  ...+.R @.#.$.%.&.*.=.-..                   * + ",
". . . . ;.} >., / ( ,.'.).!...~.{.].^.@.$./.(._.:.<.{ . *     > > , [.[.[.[.}.  ",
"        |.} } } / ( 1.2.3.4.5.6.7.8.9.0.a.b.c.d.e.            * + ; - - - - - - ",
"f.      * |.;.I g.h.i.j.k.l.m.n.o.8.p.q.r.s.t.u.v.            | I b }.- - - - - ",
".           . + w.x.y.z.A.(.B.C.D.E.p.q.F.G.H.I.} >           v.} } & - - - - ! ",
"a I J.      > > K.L.M.N.O.P.Q.R.S.T.U.V.W.W.X.% v I ;.        > * v.v   $ Y.Y.Z.",
"& } I           `. +.+++@+#+b.$+%+++&+*+=+8 -+;++ } }             . + + * / / >+",
"  + + + *       `.,+'+)+!+X ~+{+]+^+/+(+_+:+<+[+l       > + + , / / / / / / / / ",
"  + + + *       `.,.}+|+1+2+3+4+4+5+6+s :+7+o.8+9+0+    > + + $ = / / / / / / / ",
"            = / ( ~.x a+b+c+d+e+f+D g+i h+o.o.o.i+j+    > + + + + = / / / / 1   ",
", , $   > > , k+( ~.x l+m+n+o+p+D D g+i q+r+o.s+t+u+  , $ > > > > , k+/ / / 1   ",
"/ / =   * + ;.v+>+w+x+y+z+A+B+C+D D g+i D+E+F+G+H+>   / / / / / / * + / / / 1   ",
"/ / = 1 b I+J+K+L+M+N+O+P+Q+R+S+S+S+T+U+V+W+X+Y+Z+`+*  @, / / / / , $ , 1 / 1   ",
"/ / o .@+@@@#@$@%@&@*@=@-@;@>@,@'@)@!@~@{@]@^@/@(@_@:@<@> / / / / / /   $ / 1   ",
"[@}@|@1@2@3@4@5@6@7@8@9@0@a@b@c@c@c@c@c@c@d@e@f@g@h@i@j@. * * k@/ / / = 1 $ $   ",
"l@m@n@o@p@q@r@s@t@u@v@w@x@y@z@A@B@C@D@E@F@G@H@I@J@I@K@% + + + , / / / / =       ",
"L@M@>.N@O@P@Q@R@`+  S@T@U@V@W@X@Y@Z@`@ #.#+#            $ / / / / $             ",
"= / = $             `.@###$#%#&#*###=#-#-#;#l           $ = = / / $ $         > ",
"+ / / / 1           `.>#,#D D D D D '#q.)#.#+#          > + + , / / /       . } ",
"* 1 1 1 ,           `.!#~#`@`@`@`@`@ #W..#'.{#* >       > . . $ 1 1 1       . } ",
"                    > ]#^#/#(#_#,.'.'.'.'.'.I.;.+                           . } ",
"                    > :#<#[#}#|#~.'.'.'.'.'.I.;.+                           . } ",
"                      K.1#2#B.3#[ 4#'.'.'.'.5#6#>                           > 6#",
"                      `. .7#7#3#8#`.'.'.'.'.9#>                                 ",
"    > + + + >         `. .7#7#3#8#  ] ] 0#'.+#                        & n / / / ",
"    > + + + >       `.a#b#c.P.].c#        ] >                         } ;./ / / ",
"/       * + + + + + + d#e#f#g#h#i#}               / / / / / / ,       } } } 6#/ ",
"1       > . . . . . . + v & } } } } * ]     > $ $ / / / = 1 1 $       I a & % 1 ",
"+                   > + + + j#} } } } a   * + , / / / / 1 + + *         > + + + ",
"*               * * * + + + ;.I I I I v * > $ = / / / $   * * >           * . + ",
"                + + + + + + + + + + + + +   / / / / / + .                   * + "};
