/* XPM */
static char * 2_xpm[] = {
"40 40 370 2",
"  	c #232D1F",
". 	c #232E20",
"+ 	c #202B1D",
"@ 	c #1F2A1C",
"# 	c #1F2A1D",
"$ 	c #242F20",
"% 	c #242F21",
"& 	c #212B1D",
"* 	c #1E271A",
"= 	c #212C1E",
"- 	c #273224",
"; 	c #2C3828",
"> 	c #2A3626",
", 	c #222D1F",
"' 	c #1B2318",
") 	c #1C241A",
"! 	c #1E261C",
"~ 	c #20281D",
"{ 	c #222A1F",
"] 	c #232B20",
"^ 	c #283424",
"/ 	c #273223",
"( 	c #222C1F",
"_ 	c #263223",
": 	c #1C2319",
"< 	c #6A3E1A",
"[ 	c #6D3F1A",
"} 	c #846548",
"| 	c #856649",
"1 	c #6E411D",
"2 	c #262C20",
"3 	c #232D20",
"4 	c #1C2518",
"5 	c #202A1D",
"6 	c #2B3727",
"7 	c #263123",
"8 	c #995922",
"9 	c #8B521F",
"0 	c #9F754E",
"a 	c #AE7C51",
"b 	c #9C5C25",
"c 	c #9B5A22",
"d 	c #513117",
"e 	c #20271C",
"f 	c #253022",
"g 	c #1E281A",
"h 	c #242E20",
"i 	c #273323",
"j 	c #2B3728",
"k 	c #283325",
"l 	c #21291F",
"m 	c #72441C",
"n 	c #854E1F",
"o 	c #9A5A22",
"p 	c #71441C",
"q 	c #503017",
"r 	c #1C2218",
"s 	c #1D2619",
"t 	c #1D271A",
"u 	c #1F281B",
"v 	c #151613",
"w 	c #965721",
"x 	c #996E48",
"y 	c #996F4A",
"z 	c #9B5B25",
"A 	c #70431C",
"B 	c #1E2515",
"C 	c #25311F",
"D 	c #25321F",
"E 	c #24311E",
"F 	c #1E291B",
"G 	c #151612",
"H 	c #74491D",
"I 	c #784B1E",
"J 	c #9E744E",
"K 	c #A07650",
"L 	c #7A4E22",
"M 	c #76451C",
"N 	c #9A5922",
"O 	c #8A511F",
"P 	c #71431C",
"Q 	c #568432",
"R 	c #568532",
"S 	c #233219",
"T 	c #1C2616",
"U 	c #1D2716",
"V 	c #553B1B",
"W 	c #573C1B",
"X 	c #222816",
"Y 	c #314820",
"Z 	c #161813",
"` 	c #88501F",
" .	c #738833",
"..	c #738933",
"+.	c #6CA63F",
"@.	c #77B845",
"#.	c #5D8F36",
"$.	c #212F1A",
"%.	c #141412",
"&.	c #31471F",
"*.	c #324920",
"=.	c #161913",
"-.	c #4D742F",
";.	c #181E14",
">.	c #6E421C",
",.	c #6CA53F",
"'.	c #62973A",
").	c #517A31",
"!.	c #6AA23E",
"~.	c #1C2415",
"{.	c #1C2515",
"].	c #5C8C36",
"^.	c #4F7830",
"/.	c #2F451E",
"(.	c #406228",
"_.	c #5C8C37",
":.	c #1A2214",
"<.	c #5E3817",
"[.	c #648D33",
"}.	c #4A702D",
"|.	c #3F5D27",
"1.	c #4E7630",
"2.	c #5B8D35",
"3.	c #23301D",
"4.	c #1F291B",
"5.	c #263122",
"6.	c #253021",
"7.	c #151713",
"8.	c #223119",
"9.	c #74B443",
"0.	c #5F9039",
"a.	c #416028",
"b.	c #5C8B37",
"c.	c #5D8D38",
"d.	c #43280F",
"e.	c #44280F",
"f.	c #243219",
"g.	c #344D21",
"h.	c #476B2B",
"i.	c #191E15",
"j.	c #1E261A",
"k.	c #A28B75",
"l.	c #43502D",
"m.	c #609439",
"n.	c #527C32",
"o.	c #405F28",
"p.	c #AEAA7C",
"q.	c #628E3D",
"r.	c #352E15",
"s.	c #151412",
"t.	c #1F291C",
"u.	c #202A1C",
"v.	c #253122",
"w.	c #E5C5A6",
"x.	c #B0A07F",
"y.	c #587938",
"z.	c #405E27",
"A.	c #E8C8A9",
"B.	c #B4AE80",
"C.	c #49672E",
"D.	c #383015",
"E.	c #342010",
"F.	c #1A2017",
"G.	c #1D2719",
"H.	c #D1AE8D",
"I.	c #EBCAAA",
"J.	c #5F773F",
"K.	c #496F2D",
"L.	c #D4B18F",
"M.	c #EBCAAB",
"N.	c #567438",
"O.	c #1F2B17",
"P.	c #6C3F1A",
"Q.	c #181512",
"R.	c #293525",
"S.	c #293425",
"T.	c #222C1E",
"U.	c #1E281B",
"V.	c #293426",
"W.	c #1C2219",
"X.	c #8B6C4D",
"Y.	c #BE9D81",
"Z.	c #3E402A",
"`.	c #1D2816",
" +	c #334C21",
".+	c #8E714F",
"++	c #B59D82",
"@+	c #574124",
"#+	c #84752D",
"$+	c #436328",
"%+	c #824C1E",
"&+	c #553B1A",
"*+	c #332112",
"=+	c #301F11",
"-+	c #50391A",
";+	c #513A1A",
">+	c #854D1F",
",+	c #84742D",
"'+	c #5E8D38",
")+	c #416428",
"!+	c #283522",
"~+	c #283425",
"{+	c #B49277",
"]+	c #8F6C4C",
"^+	c #8C6948",
"/+	c #B49378",
"(+	c #744926",
"_+	c #5F8C38",
":+	c #243319",
"<+	c #283324",
"[+	c #BF9D80",
"}+	c #997453",
"|+	c #96714F",
"1+	c #BF9E82",
"2+	c #754A28",
"3+	c #547931",
"4+	c #1E2816",
"5+	c #1C231A",
"6+	c #73431C",
"7+	c #8B6746",
"8+	c #724520",
"9+	c #454A1E",
"0+	c #496E2D",
"a+	c #31481F",
"b+	c #1F271D",
"c+	c #253023",
"d+	c #2A3224",
"e+	c #343423",
"f+	c #2C2F1F",
"g+	c #1D2118",
"h+	c #563418",
"i+	c #8E6B4C",
"j+	c #926F4F",
"k+	c #5C391D",
"l+	c #583518",
"m+	c #7C471B",
"n+	c #774419",
"o+	c #1F251C",
"p+	c #353726",
"q+	c #573F27",
"r+	c #A66F45",
"s+	c #7D5736",
"t+	c #3A3322",
"u+	c #342919",
"v+	c #462A13",
"w+	c #3B2412",
"x+	c #412814",
"y+	c #382616",
"z+	c #3B2716",
"A+	c #472C15",
"B+	c #5F3A1C",
"C+	c #78481F",
"D+	c #3F311F",
"E+	c #433B29",
"F+	c #504C40",
"G+	c #464336",
"H+	c #565247",
"I+	c #524F43",
"J+	c #424439",
"K+	c #2B3527",
"L+	c #232E21",
"M+	c #4D3A25",
"N+	c #A97147",
"O+	c #D8925C",
"P+	c #DF965E",
"Q+	c #855734",
"R+	c #58381F",
"S+	c #80512D",
"T+	c #825430",
"U+	c #583E2D",
"V+	c #7E502C",
"W+	c #84542E",
"X+	c #89572F",
"Y+	c #88562F",
"Z+	c #885730",
"`+	c #8D5F3F",
" @	c #A99486",
".@	c #897465",
"+@	c #AD9B8E",
"@@	c #A08D80",
"#@	c #776E65",
"$@	c #343B2F",
"%@	c #CD8B58",
"&@	c #D28B55",
"*@	c #C4804B",
"=@	c #DB935B",
"-@	c #855633",
";@	c #59381E",
">@	c #83532E",
",@	c #815433",
"'@	c #584136",
")@	c #88552E",
"!@	c #8D582F",
"~@	c #89562E",
"{@	c #88562E",
"]@	c #85542D",
"^@	c #855A3B",
"/@	c #99897C",
"(@	c #6D5F55",
"_@	c #988C81",
":@	c #897D73",
"<@	c #6D655D",
"[@	c #30372B",
"}@	c #263023",
"|@	c #714C2D",
"1@	c #6D4929",
"2@	c #624227",
"3@	c #AE7548",
"4@	c #724D2D",
"5@	c #382E1F",
"6@	c #402917",
"7@	c #5C371B",
"8@	c #598296",
"9@	c #817374",
"0@	c #7E4B26",
"a@	c #7E491D",
"b@	c #5C381A",
"c@	c #59371A",
"d@	c #3D2613",
"e@	c #261B14",
"f@	c #303525",
"g@	c #333A2D",
"h@	c #2D3528",
"i@	c #31392C",
"j@	c #2E3629",
"k@	c #293325",
"l@	c #283022",
"m@	c #293123",
"n@	c #2A3123",
"o@	c #4B3D28",
"p@	c #363322",
"q@	c #191813",
"r@	c #583516",
"s@	c #65727C",
"t@	c #66747F",
"u@	c #5C3A23",
"v@	c #5B3616",
"w@	c #4F3017",
"x@	c #312011",
"y@	c #1D251A",
"z@	c #1E261B",
"A@	c #151513",
"B@	c #533318",
"C@	c #5E3917",
"D@	c #6F431C",
"E@	c #46290F",
"F@	c #161814",
"G@	c #331F10",
"H@	c #543318",
"I@	c #553418",
"J@	c #352110",
"K@	c #212B1E",
"L@	c #161714",
"M@	c #1C2119",
"N@	c #1B2219",
"O@	c #141512",
"P@	c #416328",
"Q@	c #2D421D",
"R@	c #2D411D",
"S@	c #1C2619",
"T@	c #1D241A",
"U@	c #466A2B",
"V@	c #3F5E27",
"W@	c #1A2117",
"X@	c #31461F",
"Y@	c #1D231A",
"Z@	c #416228",
"`@	c #496E2F",
" #	c #344D24",
".#	c #20291C",
"  . . . . . + @ @ # + . $ % % % % % % % . . . + @ @ @ # + . . . . . . . . . & * ",
". . . . = @ @ @ . . . . - ; ; ; ; ; ; > . . . + @ @ @ . . . . . . . . . . . . . ",
". . . . , + @ ' ) ) ) ! ~ { ] ; ; ; ^ / , , . = + + = . . . . . . . . & ( _ _ _ ",
"% . . . . . : < [ } | 1 [ [ [ 2 ; ; @ @ @ = . . . . . . . . . . . . 3 4 5 ; ; 6 ",
"/ . % 7 7 ~ < 8 9 0 a b c c c d e f @ + = , . . . . . 7 7 7 7 % . . 3 4 g h i j ",
"k . % k l < 8 9 m n o c c c c p q r @ + . . . . . . . k k k k f . . 3 4 4 s % ; ",
"= t * u v w c x y z c c c c c p A B C D D E . . . - - k 7 = = , . . . ( = F + , ",
"@ 4 4 4 G H I J K L I I M N O P A Q R R R S . . . k k k 7 @ @ = . . . . , @ @ @ ",
"@ @ @ @ v T U V W X U Y Z ` P  ...+.+.@.#.$.@ @ @ - k @ + . . . . . . . . . = @ ",
"@ @ @ @ v %.%.&.*.=.%.-.;.>. .,.'.).!.#.$.@ @ @ @ - k @ + . . . . . . . . . = @ ",
"+ + + + v ~.{.].^./.(._.:.<.[.}.|.1.2.3.F 4.@ + + 7 - + = . . , , f 5.5.5.5.6.. ",
"% . . . 7.8.S 9.0.a.b.c.:.d.e.f.g.h.i.4 4 t @ , . . . . . . . = + > ; ; ; ; ; 6 ",
", . . j.k.l.*.m.n.o.p.q.:.d.e.r.r.s.g t 4 s g t.u.. . . . . . 5 g h v.; ; ; ; 6 ",
"+ . . 7.w.x.y.1.1.z.A.B.C.D.E.E.E.F.@ F 4 4 4 4 4 , . . . . . 4.4 4 G.; ; ; ; 6 ",
"* g t.v H.I.J.K.K.z.L.M.N.O.P.[ Q.R.R.S.^ ^ ^ T.F g U.. . . . , = 4.F . % V.V.k ",
"s 4 g W.X.Y.Z.`.U  +.+++@+P.N #+$+3 ; ; ; ; ; $ @ 4 4 . . . . . . + @ @ , k k - ",
". @ @ @ v %+&+*+=+-+;+;+>+o ,+'+c.)+!+; ; ~+. . . . . . , @ @ f k k k k k k k k ",
". @ @ @ v w {+]+^+/+(+A N c _+c.c.c.:+; 6 <+. . . . . . , @ @ % - k k k k k k k ",
". . . . 7.w [+}+|+1+2+A N c 3+c.c.).4+> . . . . . . . . , @ @ @ 5 - k k k k 7 . ",
"f f % . 5+6+A 7+^+8+A A N c 9+0+h.a+b+~+f f f f f . . f % , , , , f c+k k k 7 . ",
"k k d+e+f+g+h+i+j+k+l+l+m+O n+X o+o+. % k k k k k . . k k k k k k = + k k k 7 . ",
"k p+q+r+s+t+u+v+w+x+y+z+A+B+C+D+E+F+G+H+I+J+K+7 f = = L+f k k k k f % f 7 k 7 . ",
"M+N+O+P+Q+R+S+T+U+V+W+X+Y+Y+Y+Z+`+ @.@+@@@#@$@f . @ @ @ , k k k k k k . % k 7 . ",
"%@&@*@=@-@;@>@,@'@S+)@!@~@{@]@>@^@/@(@_@:@<@[@. . , , @ + = = }@k k k - 7 % % . ",
"|@1@2@3@4@5@6@7@8@9@0@a@b@c@d@e@f@g@h@i@j@k@. . . . . @ @ @ @ f k k k k - . . . ",
"l@m@n@o@p@q@r@r@s@t@u@v@w@x@=+=+y@. . . . . . . . . . . % k k k k % . . . . . . ",
"- k - % z@A@B@C@D@A A A A E@e.E.s.. . . . . . . . . . . % - - k k % % . . . . , ",
"@ - k k F@%.%.G@H@I@I@I@I@J@E.s.%.y@. . . . . . . . . . , @ @ f k k k . . . + 4 ",
"K@7 7 7 L@%.%.%.%.M@W.N@N@O@(.P@Q@R@) = K@K@K@= , . . . , + + % 7 7 7 . . . + S@",
", . . . 7.%.%.%.%.T@) @ @ F.U@).V@|.R@W@4 4 4 U.@ . . . . . . . . . . . . . + s ",
", . . . 7.%.%.%.%.%.%.t.@ @ F.X@|.|.1.O@4 4 4 U.@ . . . . . . . . . . . . . + s ",
". . . . Y@A@%.%.%.%.%.( = @ = N@&.|.c.O@K@u.U.K@, . . . . . . . . . . . . . , K@",
". . . . . Y@W.W.W.O@%.3 = @ , . Z@|.h.W.. = @ , . . . . . . . . . . . . . . . . ",
". . , @ @ @ , . . : W.. = @ @ @ `@ #W.. . . . . . . . . . . . . . . . s .#k k k ",
". . , @ @ @ , . . . . . = @ @ @ , . . . . . . . . . . . . . . . . . 3 4 t.k k k ",
"k . . . = @ @ @ @ @ @ @ g 4 4 4 4 4 . . . . . . . k k k k k k f . . 3 4 4 S@( k ",
"7 . . . , + + + + + + @ F s 4 4 4 4 = ( . . , % % k k k - 7 7 % . . . g * s = 7 ",
"@ . . . . . . . . . , @ @ @ G.4 4 4 4 * . = @ f k k k k 7 @ @ = . . . . , @ @ @ ",
"= . . . . . . . = = = @ @ @ U.g g g g F = , % - k k k % . = = , . . . . . = + @ ",
". . . . . . . . @ @ @ @ @ @ @ @ @ @ @ @ @ . k k k k k @ + . . . . . . . . . = @ "};
