/* XPM */
static char * 3_xpm[] = {
"40 40 339 2",
"  	c #232D1F",
". 	c #232E20",
"+ 	c #202B1D",
"@ 	c #1F2A1C",
"# 	c #1F2A1D",
"$ 	c #242F20",
"% 	c #242F21",
"& 	c #212B1D",
"* 	c #1E271A",
"= 	c #212C1E",
"- 	c #1E291B",
"; 	c #222C1F",
"> 	c #263023",
", 	c #2A3627",
"' 	c #2C3828",
") 	c #2A3626",
"! 	c #222D1F",
"~ 	c #342214",
"{ 	c #352214",
"] 	c #403124",
"^ 	c #413225",
"/ 	c #362315",
"( 	c #283424",
"_ 	c #273223",
": 	c #263223",
"< 	c #342315",
"[ 	c #975821",
"} 	c #985821",
"| 	c #B78A62",
"1 	c #BA8D64",
"2 	c #9C5D27",
"3 	c #9B5A22",
"4 	c #2E1F13",
"5 	c #232D20",
"6 	c #1C2518",
"7 	c #202A1D",
"8 	c #2B3727",
"9 	c #263123",
"0 	c #252F22",
"a 	c #73441C",
"b 	c #75451D",
"c 	c #9A5922",
"d 	c #71441C",
"e 	c #2A1D13",
"f 	c #242E21",
"g 	c #1E281A",
"h 	c #242E20",
"i 	c #273323",
"j 	c #2B3728",
"k 	c #283325",
"l 	c #161814",
"m 	c #965721",
"n 	c #7C4F2A",
"o 	c #7A4E2A",
"p 	c #70431C",
"q 	c #191913",
"r 	c #1F2B1C",
"s 	c #202C1D",
"t 	c #232E1F",
"u 	c #253022",
"v 	c #1D2619",
"w 	c #1D271A",
"x 	c #1F281B",
"y 	c #151613",
"z 	c #915420",
"A 	c #955721",
"B 	c #B68A62",
"C 	c #B88C64",
"D 	c #975A27",
"E 	c #955621",
"F 	c #334C20",
"G 	c #324C20",
"H 	c #233219",
"I 	c #273224",
"J 	c #151612",
"K 	c #212F18",
"L 	c #223018",
"M 	c #69411C",
"N 	c #6C421C",
"O 	c #293118",
"P 	c #26381B",
"Q 	c #715722",
"R 	c #75B444",
"S 	c #75B544",
"T 	c #77B845",
"U 	c #72B142",
"V 	c #23321A",
"W 	c #141412",
"X 	c #25371B",
"Y 	c #151713",
"Z 	c #416128",
"` 	c #171B13",
" .	c #6E421C",
"..	c #75B443",
"+.	c #73B243",
"@.	c #5B8A37",
"#.	c #609239",
"$.	c #233119",
"%.	c #161813",
"&.	c #44672A",
"*.	c #426329",
"=.	c #1E2816",
"-.	c #5C8B37",
";.	c #1A2214",
">.	c #6C401B",
",.	c #73AF41",
"'.	c #5A8936",
").	c #405E27",
"!.	c #72B042",
"~.	c #23331A",
"{.	c #223119",
"].	c #74B443",
"^.	c #5F9039",
"/.	c #416028",
"(.	c #5D8D38",
"_.	c #43280F",
":.	c #44280F",
"<.	c #243219",
"[.	c #3D5A26",
"}.	c #598736",
"|.	c #171B14",
"1.	c #1F291B",
"2.	c #263122",
"3.	c #253021",
"4.	c #4F4539",
"5.	c #2A391E",
"6.	c #70AE41",
"7.	c #5C8C38",
"8.	c #72924C",
"9.	c #5E8D39",
"0.	c #283118",
"a.	c #273118",
"b.	c #141512",
"c.	c #E5C5A6",
"d.	c #727650",
"e.	c #45642B",
"f.	c #3F5D27",
"g.	c #E8C8A9",
"h.	c #7C9753",
"i.	c #28381C",
"j.	c #412910",
"k.	c #41270F",
"l.	c #171814",
"m.	c #1F291C",
"n.	c #202A1C",
"o.	c #253122",
"p.	c #E1C1A2",
"q.	c #ECCBAC",
"r.	c #6A8D45",
"s.	c #598836",
"t.	c #E4C4A4",
"u.	c #638B3F",
"v.	c #3D3B1B",
"w.	c #352314",
"x.	c #151412",
"y.	c #1D2719",
"z.	c #171915",
"A.	c #AF8761",
"B.	c #E1C0A2",
"C.	c #474732",
"D.	c #3C5925",
"E.	c #B28A62",
"F.	c #E0C1A3",
"G.	c #4B432A",
"H.	c #955F25",
"I.	c #976025",
"J.	c #1E1813",
"K.	c #283425",
"L.	c #293525",
"M.	c #293425",
"N.	c #222C1E",
"O.	c #1E281B",
"P.	c #293426",
"Q.	c #71431C",
"R.	c #373519",
"S.	c #1E1912",
"T.	c #271C13",
"U.	c #303319",
"V.	c #303419",
"W.	c #3C371A",
"X.	c #5F8C38",
"Y.	c #243519",
"Z.	c #2A3726",
"`.	c #845B3D",
" +	c #5C3E25",
".+	c #805A3D",
"++	c #71441F",
"@+	c #608C37",
"#+	c #25351A",
"$+	c #E0BFA1",
"%+	c #B98F69",
"&+	c #E2C1A2",
"*+	c #795030",
"=+	c #5E8836",
"-+	c #5B8937",
";+	c #243319",
">+	c #283324",
",+	c #915320",
"'+	c #5B3C23",
")+	c #6F431C",
"!+	c #455A25",
"~+	c #588736",
"{+	c #171A14",
"]+	c #262E20",
"^+	c #333322",
"/+	c #251F17",
"(+	c #693F1B",
"_+	c #B28861",
":+	c #714723",
"<+	c #6C411B",
"[+	c #4D2D12",
"}+	c #243018",
"|+	c #161914",
"1+	c #293526",
"2+	c #253023",
"3+	c #293325",
"4+	c #353625",
"5+	c #563D25",
"6+	c #A66F45",
"7+	c #7C5535",
"8+	c #3D2A1A",
"9+	c #382515",
"0+	c #422913",
"a+	c #302013",
"b+	c #362415",
"c+	c #4A2D14",
"d+	c #6E431E",
"e+	c #362417",
"f+	c #3E3926",
"g+	c #3F3927",
"h+	c #413A27",
"i+	c #443C2A",
"j+	c #4F4B40",
"k+	c #464235",
"l+	c #575348",
"m+	c #524F43",
"n+	c #424439",
"o+	c #2B3527",
"p+	c #303425",
"q+	c #4E3B25",
"r+	c #AA7247",
"s+	c #D8925C",
"t+	c #DF965E",
"u+	c #855734",
"v+	c #58381E",
"w+	c #82522D",
"x+	c #805430",
"y+	c #57361C",
"z+	c #7B4F2D",
"A+	c #87552F",
"B+	c #88562F",
"C+	c #885730",
"D+	c #8D5F3F",
"E+	c #A99487",
"F+	c #897465",
"G+	c #AD9B8E",
"H+	c #A08D80",
"I+	c #766E65",
"J+	c #33392D",
"K+	c #232E21",
"L+	c #9A6740",
"M+	c #D38E59",
"N+	c #D28B55",
"O+	c #C4804B",
"P+	c #DB935B",
"Q+	c #855633",
"R+	c #59371E",
"S+	c #87552E",
"T+	c #815433",
"U+	c #5E3A1E",
"V+	c #7D5741",
"W+	c #88552F",
"X+	c #89562E",
"Y+	c #85542D",
"Z+	c #84542F",
"`+	c #83542E",
" @	c #855A3B",
".@	c #99897D",
"+@	c #6D5F55",
"@@	c #988C81",
"#@	c #897D73",
"$@	c #6D665D",
"%@	c #31372B",
"&@	c #5B3E23",
"*@	c #754F2F",
"=@	c #6D492A",
"-@	c #624227",
";@	c #AF7548",
">@	c #724B2D",
",@	c #8F5322",
"'@	c #6E411E",
")@	c #8C5120",
"!@	c #62889C",
"~@	c #946144",
"{@	c #70431F",
"]@	c #6E421D",
"^@	c #492D12",
"/@	c #271C15",
"(@	c #313324",
"_@	c #303525",
":@	c #333A2D",
"<@	c #2D3528",
"[@	c #31392C",
"}@	c #2C3427",
"|@	c #273123",
"1@	c #23291B",
"2@	c #282F21",
"3@	c #293123",
"4@	c #2B3224",
"5@	c #4C3F2B",
"6@	c #2F2218",
"7@	c #492B11",
"8@	c #472A11",
"9@	c #5D879B",
"0@	c #5E899E",
"a@	c #2B2624",
"b@	c #1C1612",
"c@	c #2B3825",
"d@	c #304227",
"e@	c #2E4025",
"f@	c #3F260F",
"g@	c #6B401A",
"h@	c #46290F",
"i@	c #1C2215",
"j@	c #3C5926",
"k@	c #5A8836",
"l@	c #161714",
"m@	c #693F1A",
"n@	c #6B401B",
"o@	c #1D2215",
"p@	c #1B2215",
"q@	c #3F5C27",
"r@	c #416229",
"s@	c #3B5826",
"t@	c #212B1E",
"u@	c #1C2619",
"v@	c #151813",
"w@	c #588535",
"x@	c #20291C",
"  . . . . . + @ @ # + . $ % % % % % % % . . . + @ @ @ # + . . . . . . . . . & * ",
". . . . = @ @ - ; ; ; ; > , , ' ' ' ' ) . . . + @ @ @ . . . . . . . . . . . . . ",
". . . . ! + - ~ { ] ^ / { { { , ' ' ( _ ! ! . = + + = . . . . . . . . & ; : : : ",
"% . . . . ; < [ } | 1 2 3 3 3 4 , ' @ @ @ = . . . . . . . . . . . . 5 6 7 ' ' 8 ",
"_ . % 9 0 < [ } a b c 3 3 3 3 d e f @ + = ! . . . . . 9 9 9 9 % . . 5 6 g h i j ",
"k . % k l m 3 n o c 3 3 3 3 3 d p q r s t t . . . . . k k k k u . . 5 6 6 v % ' ",
"= w * x y z A B C D A A E 3 } d p F G G G H . . . I I k 9 = = ! . . . ; = - + ! ",
"@ 6 6 6 J K L M N O L P J m d Q Q R S T U V . . . k k k 9 @ @ = . . . . ! @ @ @ ",
"@ @ @ @ y W W X P Y W Z `  .Q ..+.@.#.U $.@ @ @ @ I k @ + . . . . . . . . . = @ ",
"@ @ @ @ y %.%.&.*.=.L -.;.>.,.'.).*.!.~.@ @ @ @ @ I k @ + . . . . . . . . . = @ ",
"+ + + + y {.H ].^./.-.(.;._.:.<.[.}.|.f - 1.@ + + 9 I + = . . ! ! u 2.2.2.2.3.. ",
"% . . ; 4.5.P 6.7./.8.9.;._.:.0.a.b.6 6 6 w @ ! . . . . . . . = + ) ' ' ' ' ' 8 ",
"! . . Y c.d.e.*.*.f.g.h.i.j.k.k.k.l.g w 6 v g m.n.. . . . . . 7 g h o.' ' ' ' 8 ",
"+ . . Y p.q.r.s.s./.t.q.u.v.w.x.Y @ @ - 6 6 6 6 6 ! . . . . . 1.6 6 y.' ' ' ' 8 ",
"* g m.z.A.B.C.L L D.E.F.G.H.I.J.K.L.L.M.( ( ( N.- g O.. . . . ! = 1.- . % P.P.k ",
"v 6 g . Y Q.R.S.T.U.V.W.H.X.(.Y.Z.' ' ' ' ' ' $ @ 6 6 . . . . . . + @ @ ! k k I ",
". @ @ @ y m `. +.+++p c @+(.(.(.#+' ' ' ' K.. . . . . . ! @ @ u k k k k k k k k ",
". @ @ @ y m $+%+&+*+p c =+(.(.-+;+' ' ' 8 >+. . . . . . ! @ @ % I k k k k k k k ",
". . . . z.,+a '+)+p p c !+~+}.[.{+k ' ) . . . . . . . . ! @ @ @ 7 I k k k k 9 . ",
"u u % ]+^+/+(+_+:+<+<+E [+}+|+l k k 1+K.u u u u u . . u % ! ! ! ! u 2+k k k 9 . ",
"k 3+4+5+6+7+8+9+0+a+b+c+d+e+f+g+h+i+j+k+l+m+n+o+k . . k k k k k k = + k k k 9 . ",
"p+q+r+s+t+u+v+w+x+y+z+w+A+A+B+C+C+D+E+F+G+H+I+J+u = = K+u k k k k u % u 9 k 9 . ",
"L+M+N+O+P+Q+R+S+T+U+V+W+X+X+Y+Z+`+ @.@+@@@#@$@%@. @ @ @ ! k k k k k k . % k 9 . ",
"&@*@=@-@;@>@e+,@'@)@!@~@{@]@^@/@(@_@:@<@[@}@|@. . ! ! @ + = = > k k k I 9 % % . ",
"1@2@3@4@5@6@_.7@8@7@9@0@a@b@b@b@W c@d@d@c@e@. . . . . @ @ @ @ u k k k k I . . . ",
"k k I ; y W f@g@p p p p p h@k.k.i@f.-+-+j@k@. . . . . . % k k k k % . . . . . . ",
"I k > l@W W W f@m@n@n@n@n@_.o@p@q@f.f.j@l@. . . . . . . % I I k k % % . . . . ! ",
"@ > l W W W W l@l@l@l@l@W p@r@*.f.f.j@l@. . . . . . . . ! @ @ u k k k . . . + 6 ",
"7 Y W W W W l@! . . . ! l.s@7.(.[.j@%.= t@t@t@= ! . . . ! + + % 9 9 9 . . . + u@",
"y W W W W l@! . . . ! @ @ v@w@}.` Y @ - 6 6 6 O.@ . . . . . . . . . . . . . + v ",
"y W W W l@! . . . . ! @ @ @ v@Y Y @ @ - 6 6 6 O.@ . . . . . . . . . . . . . + v ",
"z.l@l@l@! . . . . . . ! = @ = ! ! ! ! ; t@n.O.t@! . . . . . . . . . . . . . ! t@",
". . . . . . . . . . . . = @ ! . . . . . . = @ ! . . . . . . . . . . . . . . . . ",
". . ! @ @ @ ! . . . . . = @ @ @ . . . . . . . . . . . . . . . . . . . v x@k k k ",
". . ! @ @ @ ! . . . . . = @ @ @ ! . . . . . . . . . . . . . . . . . 5 6 m.k k k ",
"k . . . = @ @ @ @ @ @ @ g 6 6 6 6 6 . . . . . . . k k k k k k u . . 5 6 6 u@; k ",
"9 . . . ! + + + + + + @ - v 6 6 6 6 = ; . . ! % % k k k I 9 9 % . . . g * v = 9 ",
"@ . . . . . . . . . ! @ @ @ y.6 6 6 6 * . = @ u k k k k 9 @ @ = . . . . ! @ @ @ ",
"= . . . . . . . = = = @ @ @ O.g g g g - = ! % I k k k % . = = ! . . . . . = + @ ",
". . . . . . . . @ @ @ @ @ @ @ @ @ @ @ @ @ . k k k k k @ + . . . . . . . . . = @ "};
