/* XPM */
static char * door_open_xpm[] = {
"40 40 543 2",
"  	c #1C2518",
". 	c #1E281B",
"+ 	c #232E20",
"@ 	c #232D20",
"# 	c #222B26",
"$ 	c #4F627A",
"% 	c #728FB4",
"& 	c #7796BC",
"* 	c #7897BE",
"= 	c #7998BF",
"- 	c #7897BD",
"; 	c #718DB1",
"> 	c #46576C",
", 	c #1D2220",
"' 	c #1F2A1D",
") 	c #1F2A1C",
"! 	c #202B1D",
"~ 	c #2A3532",
"{ 	c #4A5C6D",
"] 	c #5F7693",
"^ 	c #6B85A7",
"/ 	c #7694BA",
"( 	c #7390B5",
"_ 	c #6882A3",
": 	c #546983",
"< 	c #47576B",
"[ 	c #414F5F",
"} 	c #48586D",
"| 	c #576C87",
"1 	c #6A84A6",
"2 	c #7491B6",
"3 	c #6982A3",
"4 	c #5E7592",
"5 	c #4E6175",
"6 	c #262E2D",
"7 	c #212C1E",
"8 	c #253122",
"9 	c #222D1F",
"0 	c #2B3636",
"a 	c #546880",
"b 	c #728FB3",
"c 	c #7796BD",
"d 	c #728EB3",
"e 	c #667FA0",
"f 	c #49596D",
"g 	c #394452",
"h 	c #2F3640",
"i 	c #2B3037",
"j 	c #2B3036",
"k 	c #303741",
"l 	c #3B4755",
"m 	c #4A5B71",
"n 	c #596F8A",
"o 	c #6781A3",
"p 	c #52657D",
"q 	c #2A3337",
"r 	c #2C3828",
"s 	c #242E20",
"t 	c #1C2418",
"u 	c #2B3638",
"v 	c #4C5D73",
"w 	c #6B86A8",
"x 	c #5C728F",
"y 	c #495A6F",
"z 	c #36414E",
"A 	c #2C323A",
"B 	c #2A2F36",
"C 	c #262B31",
"D 	c #262A2F",
"E 	c #272B31",
"F 	c #2D333C",
"G 	c #384352",
"H 	c #4B5D73",
"I 	c #6D88AB",
"J 	c #4A5A6F",
"K 	c #293236",
"L 	c #222C20",
"M 	c #2A3526",
"N 	c #252F21",
"O 	c #212A1F",
"P 	c #293439",
"Q 	c #46576B",
"R 	c #627A99",
"S 	c #6983A4",
"T 	c #4E6077",
"U 	c #384350",
"V 	c #313842",
"W 	c #282D33",
"X 	c #262A30",
"Y 	c #24282C",
"Z 	c #1C1F22",
"` 	c #1A1D1F",
" .	c #1D1F22",
"..	c #25292E",
"+.	c #262B30",
"@.	c #282D34",
"#.	c #2D333B",
"$.	c #313943",
"%.	c #51647B",
"&.	c #6B87A9",
"*.	c #5F7694",
"=.	c #445367",
"-.	c #2A3438",
";.	c #252F25",
">.	c #253023",
",.	c #242F21",
"'.	c #263123",
").	c #283324",
"!.	c #1C2519",
"~.	c #283236",
"{.	c #4B5E75",
"].	c #5B718E",
"^.	c #617998",
"/.	c #36414D",
"(.	c #2C3139",
"_.	c #2A2E35",
":.	c #272B30",
"<.	c #1F2226",
"[.	c #1A1C1E",
"}.	c #191B1B",
"|.	c #191A1A",
"1.	c #161616",
"2.	c #151615",
"3.	c #161716",
"4.	c #1B1D1F",
"5.	c #202327",
"6.	c #5F7794",
"7.	c #607897",
"8.	c #5A708D",
"9.	c #48596F",
"0.	c #2B3438",
"a.	c #273126",
"b.	c #283325",
"c.	c #232E1F",
"d.	c #283434",
"e.	c #46586C",
"f.	c #5C7390",
"g.	c #566B86",
"h.	c #435265",
"i.	c #333C47",
"j.	c #2C3239",
"k.	c #252A2F",
"l.	c #1F2225",
"m.	c #171818",
"n.	c #141514",
"o.	c #141412",
"p.	c #151514",
"q.	c #181819",
"r.	c #1C1E20",
"s.	c #1F2326",
"t.	c #2C333A",
"u.	c #343D49",
"v.	c #455569",
"w.	c #576D88",
"x.	c #5A718E",
"y.	c #45566A",
"z.	c #293436",
"A.	c #1E271A",
"B.	c #202B20",
"C.	c #384653",
"D.	c #576C88",
"E.	c #607796",
"F.	c #556A85",
"G.	c #445366",
"H.	c #323B46",
"I.	c #2B3139",
"J.	c #24292D",
"K.	c #1E1F22",
"L.	c #191818",
"M.	c #161514",
"N.	c #171918",
"O.	c #1E2124",
"P.	c #343D48",
"Q.	c #46566A",
"R.	c #546984",
"S.	c #34414C",
"T.	c #1E271E",
"U.	c #2D383C",
"V.	c #5F7796",
"W.	c #323A46",
"X.	c #2A2F35",
"Y.	c #26272C",
"Z.	c #1F1E1F",
"`.	c #1F1817",
" +	c #231717",
".+	c #1D1614",
"++	c #151412",
"@+	c #211716",
"#+	c #1B1614",
"$+	c #141513",
"%+	c #161817",
"&+	c #1E2023",
"*+	c #272A2F",
"=+	c #2A3037",
"-+	c #353E4A",
";+	c #4C5E75",
">+	c #5A718D",
",+	c #293333",
"'+	c #252E30",
")+	c #3F4E5F",
"!+	c #5F7795",
"~+	c #5D7391",
"{+	c #414E60",
"]+	c #2C3038",
"^+	c #27282D",
"/+	c #211A1A",
"(+	c #261818",
"_+	c #2A1B1A",
":+	c #2F211D",
"<+	c #291C1A",
"[+	c #221717",
"}+	c #2D1E1C",
"|+	c #241717",
"1+	c #1B1514",
"2+	c #171513",
"3+	c #141413",
"4+	c #282C32",
"5+	c #2E343D",
"6+	c #465569",
"7+	c #5D7492",
"8+	c #5B728F",
"9+	c #384552",
"0+	c #242E2E",
"a+	c #242E2C",
"b+	c #4D5F76",
"c+	c #566A85",
"d+	c #596F8B",
"e+	c #435163",
"f+	c #313841",
"g+	c #23272B",
"h+	c #221C1C",
"i+	c #2C1F1C",
"j+	c #2F201D",
"k+	c #31231F",
"l+	c #281918",
"m+	c #322420",
"n+	c #291919",
"o+	c #201716",
"p+	c #161615",
"q+	c #1D2123",
"r+	c #262C31",
"s+	c #323A45",
"t+	c #5B718D",
"u+	c #546882",
"v+	c #384351",
"w+	c #24272B",
"x+	c #1F1A1B",
"y+	c #2A1C1B",
"z+	c #32241F",
"A+	c #2E1F1C",
"B+	c #32231F",
"C+	c #2D1F1C",
"D+	c #2B1B1A",
"E+	c #2A1E1B",
"F+	c #1C1615",
"G+	c #151513",
"H+	c #3D4A5A",
"I+	c #596E8A",
"J+	c #536781",
"K+	c #4C5D74",
"L+	c #343C48",
"M+	c #201F21",
"N+	c #241818",
"O+	c #2D1D1B",
"P+	c #342620",
"Q+	c #30211D",
"R+	c #362920",
"S+	c #2F211C",
"T+	c #291918",
"U+	c #342720",
"V+	c #352820",
"W+	c #2B1C1A",
"X+	c #332520",
"Y+	c #30221E",
"Z+	c #251A18",
"`+	c #181513",
" @	c #171919",
".@	c #222529",
"+@	c #4D6077",
"@@	c #3D4B5C",
"#@	c #394554",
"$@	c #292E36",
"%@	c #261C1C",
"&@	c #2F201B",
"*@	c #3A2D21",
"=@	c #32241D",
"-@	c #392D20",
";@	c #34261E",
">@	c #3A2E21",
",@	c #1F1615",
"'@	c #1E2123",
")@	c #2E353F",
"!@	c #3A4656",
"~@	c #384452",
"{@	c #323C49",
"]@	c #21252A",
"^@	c #2E211E",
"/@	c #2E1F1B",
"(@	c #382A21",
"_@	c #35261E",
":@	c #403123",
"<@	c #3A2C22",
"[@	c #33241F",
"}@	c #3F3223",
"|@	c #3E3122",
"1@	c #3B2F21",
"2@	c #382B20",
"3@	c #251817",
"4@	c #1B1513",
"5@	c #181A1A",
"6@	c #252B32",
"7@	c #343E4B",
"8@	c #2B3038",
"9@	c #251F21",
"0@	c #34271F",
"a@	c #38271F",
"b@	c #4B3727",
"c@	c #423024",
"d@	c #4D3928",
"e@	c #4C3927",
"f@	c #2C1D1B",
"g@	c #362921",
"h@	c #2B1C1B",
"i@	c #221917",
"j@	c #1E2125",
"k@	c #1F2224",
"l@	c #1E1F21",
"m@	c #281E1D",
"n@	c #30221C",
"o@	c #3D3122",
"p@	c #3A291F",
"q@	c #4C3727",
"r@	c #423125",
"s@	c #4F3A29",
"t@	c #503B29",
"u@	c #2D1E1B",
"v@	c #392C21",
"w@	c #362820",
"x@	c #271E1A",
"y@	c #161513",
"z@	c #181818",
"A@	c #1E2022",
"B@	c #1D2022",
"C@	c #1A1C1C",
"D@	c #161715",
"E@	c #2A211C",
"F@	c #32231D",
"G@	c #413324",
"H@	c #3C2E21",
"I@	c #3B2A20",
"J@	c #4C3827",
"K@	c #3B2E21",
"L@	c #31231D",
"M@	c #2D201C",
"N@	c #1B1C1D",
"O@	c #1E2122",
"P@	c #31383F",
"Q@	c #272C32",
"R@	c #191C1E",
"S@	c #181B1B",
"T@	c #2D241E",
"U@	c #32241E",
"V@	c #38261F",
"W@	c #4A3727",
"X@	c #413024",
"Y@	c #503C29",
"Z@	c #33251E",
"`@	c #443524",
" #	c #3F3022",
".#	c #33241D",
"+#	c #201A17",
"@#	c #181A1C",
"##	c #292E34",
"$#	c #313840",
"%#	c #323941",
"&#	c #333C45",
"*#	c #292F36",
"=#	c #1A1D20",
"-#	c #181B1C",
";#	c #32291F",
">#	c #3C3022",
",#	c #372A1F",
"'#	c #39261F",
")#	c #523D2A",
"!#	c #443225",
"~#	c #3B2C23",
"{#	c #332620",
"]#	c #211B18",
"^#	c #151616",
"/#	c #343D46",
"(#	c #36404C",
"_#	c #2A323A",
":#	c #191B1C",
"<#	c #372C21",
"[#	c #413323",
"}#	c #3B2C21",
"|#	c #3C2C23",
"1#	c #4D3828",
"2#	c #3A2920",
"3#	c #382C21",
"4#	c #241E18",
"5#	c #1A1E20",
"6#	c #2D343E",
"7#	c #37414E",
"8#	c #37424F",
"9#	c #445263",
"0#	c #333D49",
"a#	c #1A1E21",
"b#	c #413224",
"c#	c #4D3A28",
"d#	c #39271F",
"e#	c #392820",
"f#	c #34261F",
"g#	c #362A21",
"h#	c #1B1E21",
"i#	c #455465",
"j#	c #465566",
"k#	c #516277",
"l#	c #3B4856",
"m#	c #1B1F21",
"n#	c #453425",
"o#	c #3D2C22",
"p#	c #3C2A21",
"q#	c #402F23",
"r#	c #28201A",
"s#	c #3F4D5C",
"t#	c #536479",
"u#	c #54657B",
"v#	c #53657A",
"w#	c #3D4A58",
"x#	c #3F2E24",
"y#	c #4E3928",
"z#	c #412F23",
"A#	c #513C2A",
"B#	c #2F261D",
"C#	c #414F5E",
"D#	c #55677C",
"E#	c #56687E",
"F#	c #463426",
"G#	c #4E3A29",
"H#	c #513D2A",
"I#	c #2F261C",
"J#	c #463526",
"K#	c #513C29",
"L#	c #2E251C",
"M#	c #4F3B29",
"N#	c #2D251C",
"O#	c #3E2E23",
"P#	c #4B3828",
"Q#	c #433225",
"R#	c #1A1B1C",
"S#	c #473526",
"T#	c #3A2B22",
"U#	c #443525",
"V#	c #423324",
"W#	c #4C3928",
"X#	c #433125",
"Y#	c #475668",
"Z#	c #35404C",
"`#	c #453525",
" $	c #3D2D23",
".$	c #4A3827",
"+$	c #463525",
"@$	c #372921",
"#$	c #423424",
"$$	c #403223",
"%$	c #3F2F24",
"&$	c #1B1F22",
"*$	c #394451",
"=$	c #49586A",
"-$	c #49586C",
";$	c #414E5F",
">$	c #323B47",
",$	c #1B1E20",
"'$	c #392D21",
")$	c #433424",
"!$	c #403124",
"~$	c #3B2B22",
"{$	c #473726",
"]$	c #402F24",
"^$	c #493627",
"/$	c #4D3929",
"($	c #4C3A28",
"_$	c #483626",
":$	c #353F4B",
"<$	c #424F61",
"[$	c #425062",
"}$	c #526378",
"|$	c #3D4957",
"1$	c #433325",
"2$	c #372A21",
"3$	c #3B2F22",
"4$	c #3E3023",
"5$	c #382B21",
"6$	c #3F3123",
"7$	c #382921",
"8$	c #443425",
"9$	c #3E2F23",
"0$	c #493827",
"a$	c #2C241B",
"b$	c #414E5D",
"c$	c #55677D",
"d$	c #404D5E",
"e$	c #313A45",
"f$	c #3D3023",
"g$	c #483726",
"h$	c #443426",
"i$	c #403024",
"j$	c #483627",
"k$	c #483727",
"l$	c #3C2F22",
"m$	c #3F3122",
"n$	c #262119",
"o$	c #343E4A",
"p$	c #414F61",
"q$	c #465567",
"r$	c #352B20",
"s$	c #392C22",
"t$	c #403224",
"u$	c #3A2D22",
"v$	c #473626",
"w$	c #3C2D22",
"x$	c #493727",
"y$	c #4A3927",
"z$	c #2B241B",
"A$	c #485669",
"B$	c #49576A",
"C$	c #4A596C",
"D$	c #282219",
"E$	c #4C5B6E",
"F$	c #4D5C70",
"G$	c #3B4756",
"H$	c #2D3640",
"I$	c #3B3021",
"J$	c #252019",
"K$	c #303944",
"L$	c #3C4857",
"M$	c #3C4958",
"N$	c #374352",
"O$	c #2B343E",
"P$	c #3C3021",
"Q$	c #2E3742",
"R$	c #384453",
"  . + + + + + + @ # $ % & * = = = = = = = = = = = - & ; > , ' ) ) ! + + + + + + ",
"+ + + + + + + ~ { ] ^ / ( _ : < [ [ [ [ [ [ [ } | 1 2 / 3 4 5 6 ' ) ) 7 + + + + ",
"8 8 8 + 7 9 0 a b c d e | f g h i i j j j i i k l m n o ( - ; p q . ! 9 + + + + ",
"r r r s t u v = & w x y z A i i B C D D D E B i i F G H 4 I * & J K L + + + + + ",
"r M N O P Q R % S T U V A W X D Y Z ` ` `  ...D +.@.#.$.g %.&.b *.=.-.;.>.,.+ '.",
"r ).!.~.{.].^.4 y /.(._.:.<.[.}.|.1.2.2.2.3.|.}.4.5.E _.A U H 6.7.8.9.0.a.,.+ b.",
"c.7 d.e.f.7.g.h.i.j.k.l.4.m.n.o.o.o.o.o.o.o.o.o.p.q.r.s.C t.u.v.w.7.x.y.z.. A.7 ",
") B.C.D.E.F.G.H.I.J.K.L.M.o.o.o.o.o.o.o.o.o.o.o.o.o.p.N.O.X A P.Q.D.E.R.S.T.  ) ",
"' U.m x V.} W.X.Y.Z.`. +.+++@+@+#+o.o.o.o.o.o.o.o.o.o.$+%+&+*+=+-+;+V.>+} ,+) ) ",
"'+)+f.!+~+{+]+^+/+(+_+:+<+[+}+}+|+1+2+o.o.o.o.o.o.o.o.o.3+p.|.4+5+6+7+!+8+9+0+a+",
"b+c+V.d+e+f+g+h+i+j+}+k+}+l+k+m+n+_+o+++o.o.o.o.o.o.o.o.o.o.p+q+r+s+6+t+!+u+;+;+",
"7.7.7.g.v+w+x+y+z+k+A+B+C+l+k+m+D+k+E+F+++o.o.o.o.o.o.o.o.o.G+%+O.+.H+I+7.7.7.7.",
"J+J+J+K+L+M+N+O+P+B+Q+R+S+T+U+V+W+X+Y+Z+`+o.o.o.o.o.o.o.o.o.o.o. @.@U +@J+J+J+J+",
"@@@@@@#@$@%@n+&@*@R+=@-@;@O+*@>@W+U+z+W+,@++o.o.o.o.o.o.o.o.o.o.2.'@)@!@@@@@@@@@",
"~@~@~@{@]@^@A+/@(@V+_@:@<@[@}@|@/@1@2@/@3@4@o.o.o.o.o.o.o.o.o.o.$+5@6@7@~@~@~@~@",
"h h h 8@9@k+Y+&@(@0@a@b@c@P+d@e@f@g@V+A+h@i@++o.o.o.o.o.o.o.o.o.o.p.j@A h h h h ",
"k@k@k@l@m@z+Y+n@o@-@p@q@r@P+s@t@u@v@w@S+k+x@y@o.o.o.o.o.o.o.o.o.o.o.z@A@k@k@k@k@",
"B@C@3.D@E@X+Y+F@G@H@I@J@r@P+s@t@&@o@K@L@k+M@F+o.o.o.o.o.o.o.o.o.o.o.G+2.3.N@A@O@",
"P@Q@R@S@T@w@U@V@t@W@X@d@r@P+s@Y@Z@`@ #.#k+k++#o.o.o.o.o.o.o.o.o.o.o.2.@#` ##$#%#",
"&#*#=#-#;#>#,#'#)#d@!#d@r@P+s@Y@~#Y@W@a@z+{#]#o.o.o.o.o.o.o.o.o.o.o.^#-#=#I./#/#",
"(#_#=#:#<#[#}#'#)#d@!#d@r@P+s@Y@|#)#1#2#R+3#4#o.o.o.o.o.o.o.o.o.o.o.^#-#5#6#7#8#",
"9#0#a#:#b#c#!#d#)#d@!#d@r@P+s@Y@|#)#1#e#f#g#4#o.o.o.o.o.o.o.o.o.o.o.^#-#h#z i#j#",
"k#l#m#:#n#)#W@o#)#d@!#d@r@P+s@Y@|#)#1#p#q#!#r#o.o.o.o.o.o.o.o.o.o.o.^#-#Z s#t#u#",
"v#w#m#:#n#)#W@x#)#d@!#d@r@P+s@Y@|#)#y#z#b@A#B#o.o.o.o.o.o.o.o.o.o.o.^#-#Z C#D#E#",
"v#w#m#:#F#)#W@x#)#d@!#d@r@P+s@Y@|#)#G#!#d@H#I#o.o.o.o.o.o.o.o.o.o.o.^#-#Z C#D#E#",
"v#w#m#:#J#)#W@x#)#d@!#d@r@P+s@Y@|#)#G#!#d@K#I#o.o.o.o.o.o.o.o.o.o.o.^#-#Z C#D#E#",
"v#w#m#:#J#)#W@x#)#d@!#d@r@P+s@Y@|#)#G#!#d@t@L#o.o.o.o.o.o.o.o.o.o.o.^#-#Z C#D#E#",
"v#w#m#:#J#)#W@x#)#d@!#d@r@P+s@Y@|#)#G#!#d@M#N#o.o.o.o.o.o.o.o.o.o.o.^#-#Z C#D#E#",
"v#w#m#:#J#)#W@O#Y@P#Q#d@r@P+s@Y@|#)#G#!#d@M#N#o.o.o.o.o.o.o.o.o.o.o.^#-#Z C#D#E#",
"v#w#m#R#S#)#W@T#U#V#X@d@r@P+s@Y@~#M#W#X#d@M#N#o.o.o.o.o.o.o.o.o.o.o.^#-#Z C#D#E#",
"Y#Z#h#R#`#H#W@ $.$+$X@d@r@P+s@Y@@$#$$$%$d@M#N#o.o.o.o.o.o.o.o.o.o.o.^#-#&$*$=$-$",
";$>$,$:#'$)$!$~${$n#]$^$]$P+/$Y@T#($_$X@d@t@N#o.o.o.o.o.o.o.o.o.o.o.^#-#h#:$<$[$",
"}$|$m#R#b#.$1$2$o@3$v@4$5${#6$G@7$`#8$9$S#0$a$o.o.o.o.o.o.o.o.o.o.o.^#-#Z b$u#c$",
"d$e$,$R#f$g$h$2$o@3$O#.$i$P+j$k$w@o@l$v@6$m$n$o.o.o.o.o.o.o.o.o.o.o.^#-#h#o$[ p$",
"q$:$h#R#r$o@>@2$o@3$s$t$u$P+`#v$w@o@l$w$x$y$z$o.o.o.o.o.o.o.o.o.o.o.^#-#&$v+A$B$",
"C$8#h#R#r$o@>@2$o@3$5$3$5${#l$>#w@o@l$v@6$[#D$o.o.o.o.o.o.o.o.o.o.o.^#-#&$l E$F$",
"G$H$5#R#r$o@>@2$o@3$5$3$5${#l$>#w@o@l$5$3$I$J$o.o.o.o.o.o.o.o.o.o.o.^#-#a#K$L$M$",
"N$O$5#R#r$o@>@2$o@3$5$3$5${#l$>#w@o@l$5$3$P$J$o.o.o.o.o.o.o.o.o.o.o.^#-#a#Q$R$#@",
"N$O$5#R#r$o@>@2$o@3$5$3$5${#l$>#w@o@l$5$3$P$J$o.o.o.o.o.o.o.o.o.o.o.^#-#a#Q$R$#@",
"N$O$5#R#r$o@>@2$o@3$5$3$5${#l$>#w@o@l$5$3$P$J$o.o.o.o.o.o.o.o.o.o.o.^#-#a#Q$R$#@"};
