/* XPM */
static char * door_dark_pl_xpm[] = {
"40 40 593 2",
"  	c #1D2619",
". 	c #1F291C",
"+ 	c #232E20",
"@ 	c #252F2A",
"# 	c #51657E",
"$ 	c #667FA0",
"% 	c #6B86A8",
"& 	c #7492B7",
"* 	c #7391B6",
"= 	c #6680A0",
"- 	c #566A85",
"; 	c #445364",
"> 	c #3C4857",
", 	c #3A4553",
"' 	c #384351",
") 	c #374351",
"! 	c #3A4654",
"~ 	c #404E5E",
"{ 	c #4F6178",
"] 	c #647C9C",
"^ 	c #718EB2",
"/ 	c #7694BA",
"( 	c #6E89AB",
"_ 	c #6781A2",
": 	c #5E7592",
"< 	c #303945",
"[ 	c #1E281D",
"} 	c #202B1D",
"| 	c #202920",
"1 	c #313C48",
"2 	c #5A6F8A",
"3 	c #728FB3",
"4 	c #7491B7",
"5 	c #6C87A9",
"6 	c #5E7591",
"7 	c #49596E",
"8 	c #3B4756",
"9 	c #323B46",
"0 	c #2C323A",
"a 	c #2A3036",
"b 	c #292E34",
"c 	c #282D33",
"d 	c #282C32",
"e 	c #2A2F36",
"f 	c #2C333C",
"g 	c #303741",
"h 	c #374250",
"i 	c #485769",
"j 	c #586D87",
"k 	c #718FB3",
"l 	c #7795BB",
"m 	c #647D9D",
"n 	c #34414B",
"o 	c #1F2A1C",
"p 	c #212C1E",
"q 	c #263123",
"r 	c #222D20",
"s 	c #232A30",
"t 	c #394655",
"u 	c #556A84",
"v 	c #6A85A6",
"w 	c #6D88AB",
"x 	c #5B718C",
"y 	c #425062",
"z 	c #353E4A",
"A 	c #303740",
"B 	c #292F36",
"C 	c #262B30",
"D 	c #272B2E",
"E 	c #24282E",
"F 	c #1F2225",
"G 	c #1C1E20",
"H 	c #1D1F21",
"I 	c #1A1C1D",
"J 	c #1B1E20",
"K 	c #22272C",
"L 	c #252A2F",
"M 	c #282A31",
"N 	c #2B2D36",
"O 	c #2D343D",
"P 	c #333C48",
"Q 	c #3C4959",
"R 	c #52657E",
"S 	c #6E8AAE",
"T 	c #5B718D",
"U 	c #3F4D5E",
"V 	c #222C26",
"W 	c #222D1F",
"X 	c #2C3828",
"Y 	c #2B343C",
"Z 	c #45566A",
"` 	c #566B85",
" .	c #5D7491",
"..	c #596F8B",
"+.	c #4B5C72",
"@.	c #394452",
"#.	c #262B31",
"$.	c #23282C",
"%.	c #1D2022",
"&.	c #1A1C1B",
"*.	c #1B1C15",
"=.	c #171818",
"-.	c #171715",
";.	c #161614",
">.	c #161513",
",.	c #141412",
"'.	c #151615",
").	c #171918",
"!.	c #181A1A",
"~.	c #1C191C",
"{.	c #221F25",
"].	c #23272C",
"^.	c #252A30",
"/.	c #343E4A",
"(.	c #49586B",
"_.	c #586E88",
":.	c #47576B",
"<.	c #293425",
"[.	c #252E27",
"}.	c #4A5A70",
"|.	c #5A708D",
"1.	c #5C7390",
"2.	c #404E5F",
"3.	c #282E36",
"4.	c #21262A",
"5.	c #1A1D1E",
"6.	c #161817",
"7.	c #151514",
"8.	c #141513",
"9.	c #191C1E",
"0.	c #202428",
"a.	c #272D33",
"b.	c #2F3741",
"c.	c #3B4857",
"d.	c #4D6077",
"e.	c #5A718D",
"f.	c #485A6E",
"g.	c #273228",
"h.	c #242F21",
"i.	c #252B2E",
"j.	c #425165",
"k.	c #596F8C",
"l.	c #5D7492",
"m.	c #566A86",
"n.	c #3A4655",
"o.	c #2E363F",
"p.	c #1D2023",
"q.	c #191919",
"r.	c #151513",
"s.	c #1A1918",
"t.	c #1C2022",
"u.	c #24282C",
"v.	c #2A3139",
"w.	c #4F627B",
"x.	c #5E7594",
"y.	c #445465",
"z.	c #242E25",
"A.	c #222C1F",
"B.	c #263023",
"C.	c #333E4A",
"D.	c #415062",
"E.	c #566B86",
"F.	c #404D60",
"G.	c #2B333B",
"H.	c #23282D",
"I.	c #1B1D1F",
"J.	c #151412",
"K.	c #3E4A5A",
"L.	c #51647D",
"M.	c #5B718E",
"N.	c #414F62",
"O.	c #35404E",
"P.	c #5F7795",
"Q.	c #5F7796",
"R.	c #607897",
"S.	c #445365",
"T.	c #292F37",
"U.	c #22272A",
"V.	c #191A1A",
"W.	c #191613",
"X.	c #161512",
"Y.	c #161616",
"Z.	c #1D2124",
"`.	c #425063",
" +	c #5E7593",
".+	c #5F7695",
"++	c #5A708C",
"@+	c #4E6279",
"#+	c #3C4858",
"$+	c #24292F",
"%+	c #171716",
"&+	c #171513",
"*+	c #181B1B",
"=+	c #24272C",
"-+	c #4A5A6C",
";+	c #384452",
">+	c #2B313A",
",+	c #2D343E",
"'+	c #384453",
")+	c #38424F",
"!+	c #364250",
"~+	c #2F3842",
"{+	c #303842",
"]+	c #151616",
"^+	c #21252A",
"/+	c #2E3640",
"(+	c #313A45",
"_+	c #36404E",
":+	c #202427",
"<+	c #202325",
"[+	c #1E2224",
"}+	c #161612",
"|+	c #1B1D14",
"1+	c #1C1D14",
"2+	c #1D1E14",
"3+	c #171919",
"4+	c #1B1E21",
"5+	c #1E2225",
"6+	c #212528",
"7+	c #2F3844",
"8+	c #2A3037",
"9+	c #252B30",
"0+	c #1B1D1E",
"a+	c #232115",
"b+	c #45401E",
"c+	c #5B5322",
"d+	c #706426",
"e+	c #716627",
"f+	c #706526",
"g+	c #4F4820",
"h+	c #161716",
"i+	c #2C343E",
"j+	c #333D48",
"k+	c #191C1D",
"l+	c #1B1A13",
"m+	c #544D21",
"n+	c #7F722B",
"o+	c #88792D",
"p+	c #918130",
"q+	c #928230",
"r+	c #84752C",
"s+	c #786C28",
"t+	c #46421F",
"u+	c #181713",
"v+	c #151512",
"w+	c #181815",
"x+	c #191C1B",
"y+	c #1F2224",
"z+	c #2B323A",
"A+	c #333C47",
"B+	c #36404C",
"C+	c #3B4858",
"D+	c #333D4A",
"E+	c #1F2428",
"F+	c #151D1F",
"G+	c #514A20",
"H+	c #86782D",
"I+	c #90802F",
"J+	c #8E802F",
"K+	c #5B5324",
"L+	c #161615",
"M+	c #151B1D",
"N+	c #1D2226",
"O+	c #3B4757",
"P+	c #54667B",
"Q+	c #435162",
"R+	c #22282F",
"S+	c #141413",
"T+	c #7C702B",
"U+	c #897A2E",
"V+	c #5D5423",
"W+	c #373118",
"X+	c #534B20",
"Y+	c #85762D",
"Z+	c #645A26",
"`+	c #3D3F21",
" @	c #393A20",
".@	c #282919",
"+@	c #536780",
"@@	c #506175",
"#@	c #56687E",
"$@	c #23292F",
"%@	c #1C1F21",
"&@	c #7C6F2C",
"*@	c #5B5223",
"=@	c #191813",
"-@	c #7F712A",
";@	c #655B26",
">@	c #393C20",
",@	c #373A20",
"'@	c #363920",
")@	c #2A2B1A",
"!@	c #22262A",
"~@	c #4D5D70",
"{@	c #516277",
"]@	c #141D1F",
"^@	c #161818",
"/@	c #7A6E2B",
"(@	c #232515",
"_@	c #887A2D",
":@	c #3F4021",
"<@	c #35381F",
"[@	c #272819",
"}@	c #151715",
"|@	c #22272B",
"1@	c #445264",
"2@	c #716629",
"3@	c #1F2D33",
"4@	c #134059",
"5@	c #141615",
"6@	c #133D56",
"7@	c #133246",
"8@	c #786B28",
"9@	c #6D6228",
"0@	c #383B20",
"a@	c #35371F",
"b@	c #2A2C1A",
"c@	c #191914",
"d@	c #23292E",
"e@	c #526478",
"f@	c #445263",
"g@	c #22282E",
"h@	c #514B21",
"i@	c #1B394C",
"j@	c #196288",
"k@	c #141818",
"l@	c #195E84",
"m@	c #174C6A",
"n@	c #261C21",
"o@	c #8E7F2F",
"p@	c #3A3B20",
"q@	c #494622",
"r@	c #474421",
"s@	c #3C3C20",
"t@	c #232417",
"u@	c #161717",
"v@	c #181B1C",
"w@	c #536479",
"x@	c #44401F",
"y@	c #1C1C19",
"z@	c #1A1C1E",
"A@	c #2D2630",
"B@	c #504B23",
"C@	c #5A5324",
"D@	c #534D23",
"E@	c #3A391D",
"F@	c #1D1D15",
"G@	c #4D5E73",
"H@	c #4A596C",
"I@	c #3B4654",
"J@	c #202529",
"K@	c #2F2727",
"L@	c #191713",
"M@	c #261A23",
"N@	c #462444",
"O@	c #342635",
"P@	c #4A4722",
"Q@	c #42401F",
"R@	c #312E19",
"S@	c #4F4561",
"T@	c #4A596D",
"U@	c #4A5B6E",
"V@	c #21262B",
"W@	c #181714",
"X@	c #50274E",
"Y@	c #7A2873",
"Z@	c #7E2877",
"`@	c #692864",
" #	c #552A52",
".#	c #5D2D5A",
"+#	c #564831",
"@#	c #575124",
"##	c #37391F",
"$#	c #31331C",
"%#	c #252618",
"&#	c #161C1E",
"*#	c #22282D",
"=#	c #4C5269",
"-#	c #49596D",
";#	c #4A5B70",
">#	c #425162",
",#	c #36404D",
"'#	c #1F2327",
")#	c #161816",
"!#	c #5A2A57",
"~#	c #8D2D85",
"{#	c #922D8A",
"]#	c #7A2E74",
"^#	c #5F2E5C",
"/#	c #836E43",
"(#	c #645A28",
"_#	c #4E4C24",
":#	c #82752D",
"<#	c #5A5122",
"[#	c #1A1B13",
"}#	c #151716",
"|#	c #171B1C",
"1#	c #1F2427",
"2#	c #465468",
"3#	c #4C5C71",
"4#	c #3D4A59",
"5#	c #7E702F",
"6#	c #8B7935",
"7#	c #65572F",
"8#	c #776832",
"9#	c #907F35",
"0#	c #908033",
"a#	c #8F8030",
"b#	c #4A4822",
"c#	c #635A26",
"d#	c #908030",
"e#	c #554D20",
"f#	c #191A13",
"g#	c #141B1D",
"h#	c #22292E",
"i#	c #475669",
"j#	c #435163",
"k#	c #36424F",
"l#	c #1F2429",
"m#	c #82742C",
"n#	c #6B6027",
"o#	c #5C5325",
"p#	c #625926",
"q#	c #8E7E2E",
"r#	c #8F802F",
"s#	c #161D1F",
"t#	c #414E5F",
"u#	c #475568",
"v#	c #374352",
"w#	c #2E3741",
"x#	c #181C1E",
"y#	c #796D2B",
"z#	c #8C7D2F",
"A#	c #544F24",
"B#	c #625824",
"C#	c #83752B",
"D#	c #80732B",
"E#	c #695F26",
"F#	c #37341A",
"G#	c #35414E",
"H#	c #424F60",
"I#	c #394553",
"J#	c #1E2125",
"K#	c #4C451F",
"L#	c #786B29",
"M#	c #7C6E29",
"N#	c #7A6D29",
"O#	c #635A25",
"P#	c #404021",
"Q#	c #36381F",
"R#	c #1A1A14",
"S#	c #202115",
"T#	c #212215",
"U#	c #1F2115",
"V#	c #1B1E1F",
"W#	c #394554",
"X#	c #303843",
"Y#	c #1C2226",
"Z#	c #151614",
"`#	c #251A13",
" $	c #714420",
".$	c #885329",
"+$	c #A36837",
"@$	c #915A2E",
"#$	c #805126",
"$$	c #7F5327",
"%$	c #4A371B",
"&$	c #7B5026",
"*$	c #311E10",
"=$	c #291B11",
"-$	c #212529",
";$	c #36414F",
">$	c #2F3742",
",$	c #1D2326",
"'$	c #332115",
")$	c #AC6931",
"!$	c #DC8A48",
"~$	c #EE9952",
"{$	c #E3904C",
"]$	c #C27638",
"^$	c #B36A2F",
"/$	c #5E3614",
"($	c #AC662E",
"_$	c #46280D",
":$	c #39230F",
"<$	c #3E4A5B",
"[$	c #302419",
"}$	c #82552A",
"|$	c #D28343",
"1$	c #EE9852",
"2$	c #CC8747",
"3$	c #926830",
"4$	c #856029",
"5$	c #625021",
"6$	c #805C28",
"7$	c #584A1F",
"8$	c #483F1C",
"9$	c #1B1C14",
"0$	c #3A4756",
"a$	c #1A2226",
"b$	c #1A1E1F",
"c$	c #4E4721",
"d$	c #5F5224",
"e$	c #775628",
"f$	c #794D2A",
"g$	c #6D5328",
"h$	c #7C6F2B",
"i$	c #87782D",
"j$	c #86772D",
"k$	c #6C6126",
"l$	c #1E2015",
"m$	c #21272A",
"n$	c #181613",
"o$	c #4E4820",
"p$	c #5D5425",
"q$	c #605625",
"r$	c #524920",
"s$	c #2E2E1A",
"t$	c #7D702B",
"u$	c #907F30",
"v$	c #82752C",
"w$	c #524B21",
"x$	c #5E5525",
"y$	c #514920",
"z$	c #2E2F1B",
"A$	c #84762D",
"B$	c #8C7D2E",
"C$	c #6A5F25",
"D$	c #3D4958",
"E$	c #2D3640",
"F$	c #182125",
"G$	c #181C1D",
"H$	c #4D4720",
"I$	c #585023",
"J$	c #524A21",
"K$	c #181813",
"L$	c #766A28",
"M$	c #87772D",
"N$	c #87782C",
"O$	c #83752C",
"P$	c #605623",
"Q$	c #21272B",
"R$	c #1A2125",
"S$	c #231911",
"T$	c #251A11",
"U$	c #251911",
"V$	c #2D1F15",
"W$	c #623C1D",
"X$	c #5C371C",
"Y$	c #3D2716",
"Z$	c #141514",
"`$	c #171A1B",
" %	c #3C4958",
".%	c #321F10",
"+%	c #362110",
"@%	c #352010",
"#%	c #412917",
"$%	c #985A27",
"%%	c #915625",
"&%	c #603A1C",
"*%	c #141819",
"=%	c #171C1D",
"-%	c #1D2123",
";%	c #171C1E",
">%	c #171512",
",%	c #623C1E",
"'%	c #7D4A22",
")%	c #372112",
"!%	c #1D1712",
"~%	c #6A4221",
"{%	c #B3713B",
"]%	c #A06637",
"^%	c #5E3D23",
"/%	c #37414E",
"(%	c #2D353E",
"_%	c #141D20",
":%	c #5A371D",
"<%	c #724420",
"[%	c #734520",
"}%	c #331F12",
"|%	c #573820",
"1%	c #9F6536",
"2%	c #905C32",
"3%	c #553820",
"4%	c #161A1B",
"5%	c #181D1E",
"6%	c #37424F",
"7%	c #232B32",
"8%	c #1A1D1F",
"9%	c #181918",
"0%	c #222B33",
"a%	c #242A31",
"b%	c #384352",
"  . + + + + + @ # $ % & * = - ; > , , ' , ) ! ~ { ] ^ / ( _ : < [ } + + + + + + ",
"+ + + + + | 1 2 3 4 5 6 7 8 9 0 a b c c d c e f g h i j _ k l m n o o p + + + + ",
"q q q r s t u v w x y z A B C D E F G H I J K L M N O P Q R ( S T U V W + + + + ",
"X X X Y Z `  ...+.@.f #.$.%.&.*.=.-.;.>.,.'.).!.~.{.].^.B /.(._.: T :.+ + + + + ",
"X <.[.}.|.1.# 2.9 3.4.5.6.,.7.,.,.,.,.,.,.,.,.,.,.8.=.9.0.a.b.c.d.e. .f.g.h.+ q ",
"X i.j.k.l.m.n.o.^.p.q.r.,.,.,.,.,.,.,.,.,.,.,.,.,.,.,.8.s.t.u.v.) w.x...y.z.A.B.",
"C.D.k.l.E.F.G.H.I.7.J.,.,.,.,.,.,.,.,.,.,.,.,.,.,.,.,.,.J.7.=.K G.K.L.M.M.N.O.C.",
"P.Q.R.R.S.T.U.V.W.X.,.,.,.,.,.,.,.,.,.,.,.,.,.,.,.,.,.,.,.,.,.Y.Z.c `.M. +.+P.++",
"@+@+@+@+#+$+%+&+,.,.,.,.,.,.,.,.,.,.,.,.,.,.,.,.,.,.,.,.,.,.,.8.*+=+@.+.@+@+d.-+",
";+;+;+;+>+%.,.,.,.,.,.,.,.,.,.,.,.,.,.,.,.,.,.,.,.,.,.,.,.,.,.,.7.J ,+h '+)+h !+",
"~+{+{+{+K ]+,.,.,.,.,.,.,.,.,.,.,.,.,.,.,.,.,.,.,.,.,.,.,.,.,.,.,.7.^+/+(+(+(+_+",
"0.:+<+[+q.,.,.,.,.,.,.,.,.,.}+|+|+1+2+2+1+,.,.,.,.,.,.,.,.,.,.,.,.,.3+4+5+6+6+7+",
"8+9+0+3+-.,.,.,.,.,.,.,.,.,.a+b+c+d+e+f+g+2+1+,.,.,.,.,.,.,.,.X.,.,.h+3+I.^.i+(+",
"j+O Z.k+6.,.,.,.,.,.,.,.,.l+m+n+o+p+q+p+r+s+t+u+,.,.,.,.,.,.,.v+,.,.w+x+y+z+A+B+",
"C+D+E+F+6.,.,.,.,.,.,.,.,.G+H+I+q+q+q+q+q+J+K+b+,.,.,.,.,.,.,.,.,.,.L+M+N+C., O+",
"P+Q+R+k+S+,.,.,.,.,.,.,.,.T+U+V+W+X+Y+q+I+Z+`+ @.@,.,.,.,.,.,.,.,.,.'.*+H.:.+@@@",
"#@S.$@%@W.,.,.,.,.,.,.,.,.&@*@=@,.,.,.-@;@>@,@'@)@v+,.,.,.,.,.,.,.,.'.*+!@~@#@{@",
"#@S.$@]@^@,.,.,.,.,.,.,.,./@(@,.,.,.,.,._@:@,@,@<@[@,.,.,.,.,.,.,.,.}@*+|@~@#@{@",
"#@1@$@k+%+,.,.,.,.,.,.,.,.2@3@4@5@6@7@,.8@9@0@0@a@b@c@,.,.,.,.,.,.,.^@k+d@~@#@e@",
"#@f@g@*+W.,.,.,.,.,.,.,.,.h@i@j@k@l@m@,.n@o@p@q@r@s@t@,.,.,.,.,.,.,.u@v@d@~@#@w@",
"#@f@g@^@&+,.,.,.,.,.,.,.,.x@y@p.,.p.z@,.A@o@B@C@D@E@F@,.,.,.,.,.,.,.).k+d@G@#@w@",
"H@I@J@*+]+,.,.,.,.,.,.,.,.K@L@,.r.r.M@N@O@2@P@Q@R@F@,.,.,.,.,.,.,.,.u@I.4.S@H@T@",
"U@> V@k+W@,.,.,.,.,.,.,.,.X@Y@Z@Z@`@ #.#+#@#>@##$#%#,.,.,.,.,.,.,.7.6.&#*#=#-#;#",
">#,#'#k+)#,.,.,.,.,.,.,.,.!#~#{#{#]#^#/#(#:@_#U+:#<#[#,.,.,.,.,.,.,.}#|#1#~ >#2#",
"3#4#V@k+W.,.,.,.,.,.,.,.,.5#6#7#8#9#0#a#b#c#d#q+p+H+e#f#,.,.,.,.,.,.'.g#h#i#3#G@",
"j#k#l#k+W.,.,.,.,.,.,.,.,.m#q+q+q+q+q+n#o#p#q#I+r#H+e#f#,.,.,.,.,.,.).s#4.t#j#u#",
"v#w#Z.x#6.,.,.,.,.,.,.,.,.y#p+q+q+q+z#A#0@>@B#C#D#E#F#X.,.,.,.,.,.,.=.z@E+G#v#H#",
"I#~+J#F+}#,.,.,.,.,.,.,.,.K#L#M#M#N#O#P#Q#Q#R#S#T#U#f#,.,.,.,.,.,.7.^@V#0.G#W#, ",
"'+X#Y#*+Z#,.,.,.,.,.,.,.,.`# $.$+$@$#$$$%$&$*$=$,.,.,.,.,.,.,.,.,.,.).k+-$;$W#8 ",
"W#>$,$9.6.,.,.,.,.,.,.,.,.'$)$!$~${$]$^$/$($_$:$,.,.,.,.,.,.,.,.,.,.).k+-$) W#<$",
"W#>$5+v@6.,.,.,.,.,.,.,.,.[$}$|$1$2$3$4$5$6$7$8$9$,.,.,.,.,.,.,.,.,.).k+!@) ;+0$",
"W#>$a$b$8.,.,.,.,.,.,.,.,.c$d$e$f$g$h$o+o+i$j$k$l$,.,.,.,.,.,.,.,.X.q.s#m$) I##+",
"W#>$Z.k+n$,.,.,.,.,.,.,.o$p$q$r$&+s$t$I+u$I+I+v$t+1+,.,.,.,.,.,.,.,.3+F+m$) W#Q ",
"W#>$Z.%@6.,.,.,.,.,.,.,.w$x$q$y$&+&+z$A$u$q+q+B$C$2+,.,.,.,.,.,.,.,.'.g#$@) W#D$",
"W#E$F$G$h+,.,.,.,.,.,.,.H$I$J$K$,.X.X.L$M$N$N$O$P$,.,.,.,.,.,.,.,.,.Z#M+Q$) W#t ",
"W#/+R$k+,.,.,.,.,.,.,.,.S$T$U$J.,.,.,.,.,.c@V$W$X$Y$,.,.,.,.,.,.,.,.Z$`$d@;$n. %",
"W#w#Z.k+,.,.,.,.,.,.,.,..%+%@%X.,.,.,.,.,.,.#%$%%%&%J.,.,.,.,.,.,.,.*%=%d@,#> t ",
"W#w#-%;%>%,.,.,.,.,.,.,%'%'%)%X.,.,.,.,.,.,.!%~%{%]%^%,.,.,.,.,.,.8.3+k+d@/%> W#",
") (%-%_%W.,.,.,.,.,.,.:%<%[%}%v+,.,.,.,.,.,.J.|%1%2%3%,.,.,.,.,.,.8.4%5%d@_+6%k#",
"7%J@8%9%v+,.,.,.,.,.,.J.X.v+,.,.,.,.,.,.,.,.,.,.,.,.,.,.,.,.,.,.,.,.`$J 5+0%a%b%"};
