/* XPM */
static char * door_1_xpm[] = {
"40 40 345 2",
"  	c #1D2619",
". 	c #1F291C",
"+ 	c #232E20",
"@ 	c #232D20",
"# 	c #26312B",
"$ 	c #2D3941",
"% 	c #5B7390",
"& 	c #7998BF",
"* 	c #7896BD",
"= 	c #7796BC",
"- 	c #7593B9",
"; 	c #7593B8",
"> 	c #7694BA",
", 	c #4D6079",
"' 	c #202627",
") 	c #232F28",
"! 	c #1F2A1C",
"~ 	c #202B1D",
"{ 	c #222D20",
"] 	c #3F5060",
"^ 	c #526781",
"/ 	c #7795BC",
"( 	c #7492B8",
"_ 	c #718EB2",
": 	c #5C7391",
"< 	c #586E8A",
"[ 	c #36404D",
"} 	c #2B3037",
"| 	c #394554",
"1 	c #425164",
"2 	c #6883A4",
"3 	c #576D89",
"4 	c #4F637B",
"5 	c #48596B",
"6 	c #283133",
"7 	c #1F2A1E",
"8 	c #212C1E",
"9 	c #263123",
"0 	c #212B1E",
"a 	c #222C1F",
"b 	c #3C4C5B",
"c 	c #7491B7",
"d 	c #607796",
"e 	c #5B728F",
"f 	c #46576C",
"g 	c #2E343D",
"h 	c #353F4C",
"i 	c #3C4859",
"j 	c #5B718E",
"k 	c #6D89AC",
"l 	c #728FB3",
"m 	c #7795BB",
"n 	c #5F7695",
"o 	c #566B86",
"p 	c #2A3237",
"q 	c #1E271B",
"r 	c #222D1F",
"s 	c #2C3828",
"t 	c #232D1F",
"u 	c #1C2418",
"v 	c #212826",
"w 	c #5F7795",
"x 	c #6882A3",
"y 	c #333C48",
"z 	c #3C4959",
"A 	c #2C323A",
"B 	c #2A2F35",
"C 	c #24282E",
"D 	c #2B3036",
"E 	c #404E60",
"F 	c #4E6078",
"G 	c #7897BD",
"H 	c #495A71",
"I 	c #202626",
"J 	c #212B1F",
"K 	c #293425",
"L 	c #242E20",
"M 	c #20291E",
"N 	c #1E2523",
"O 	c #495B71",
"P 	c #607897",
"Q 	c #6C87AA",
"R 	c #50637B",
"S 	c #2F363F",
"T 	c #24282D",
"U 	c #22262B",
"V 	c #202327",
"W 	c #1E2124",
"X 	c #161818",
"Y 	c #1F2226",
"Z 	c #202427",
"` 	c #25292F",
" .	c #303741",
"..	c #556984",
"+.	c #6A85A8",
"@.	c #6B87A9",
"#.	c #5D7593",
"$.	c #4D5F78",
"%.	c #3F4E5F",
"&.	c #232D24",
"*.	c #242F21",
"=.	c #273223",
"-.	c #1C2419",
";.	c #445568",
">.	c #5E7694",
",.	c #48596F",
"'.	c #435266",
").	c #2E353E",
"!.	c #262A30",
"~.	c #202328",
"{.	c #171819",
"].	c #161716",
"^.	c #141412",
"/.	c #141513",
"(.	c #181A1A",
"_.	c #1E2125",
":.	c #282C32",
"<.	c #2F3640",
"[.	c #46566B",
"}.	c #495A70",
"|.	c #5B718F",
"1.	c #3F4F60",
"2.	c #263125",
"3.	c #283325",
"4.	c #212C1D",
"5.	c #2B363A",
"6.	c #536881",
"7.	c #2D343C",
"8.	c #272B31",
"9.	c #1A1C1E",
"0.	c #151615",
"a.	c #141413",
"b.	c #251717",
"c.	c #1E1615",
"d.	c #211616",
"e.	c #231716",
"f.	c #1B1E20",
"g.	c #282D34",
"h.	c #4E6179",
"i.	c #293335",
"j.	c #1E271A",
"k.	c #1D271A",
"l.	c #1C2519",
"m.	c #1C231B",
"n.	c #47586E",
"o.	c #5F7796",
"p.	c #2D333B",
"q.	c #161615",
"r.	c #271818",
"s.	c #291919",
"t.	c #322420",
"u.	c #2E1F1C",
"v.	c #2F211D",
"w.	c #281818",
"x.	c #201615",
"y.	c #161616",
"z.	c #2A2E35",
"A.	c #384251",
"B.	c #3F4E61",
"C.	c #1A2117",
"D.	c #2A2F36",
"E.	c #191C1D",
"F.	c #181A1B",
"G.	c #151412",
"H.	c #201715",
"I.	c #291918",
"J.	c #30221E",
"K.	c #332520",
"L.	c #2E201D",
"M.	c #2A1B1A",
"N.	c #2F201D",
"O.	c #1D1615",
"P.	c #181B1D",
"Q.	c #191C1E",
"R.	c #46556A",
"S.	c #343D4A",
"T.	c #1F1615",
"U.	c #291A19",
"V.	c #352720",
"W.	c #30211D",
"X.	c #31231E",
"Y.	c #2C1D1B",
"Z.	c #1D1514",
"`.	c #1C1F22",
" +	c #435165",
".+	c #263132",
"++	c #292F37",
"@+	c #1B1514",
"#+	c #2F211C",
"$+	c #362921",
"%+	c #2A1B19",
"&+	c #3D3122",
"*+	c #36291F",
"=+	c #2C1C1B",
"-+	c #382C20",
";+	c #2B1C1A",
">+	c #2D1F1B",
",+	c #171413",
"'+	c #191A1B",
")+	c #313944",
"!+	c #4D6078",
"~+	c #576C88",
"{+	c #4E6077",
"]+	c #1C2024",
"^+	c #2D1E1C",
"/+	c #31231D",
"(+	c #392C21",
"_+	c #2C1C19",
":+	c #473626",
"<+	c #3F2F23",
"[+	c #3A2E21",
"}+	c #2D1E1A",
"|+	c #30221C",
"1+	c #171818",
"2+	c #25292E",
"3+	c #2E3640",
"4+	c #212428",
"5+	c #342620",
"6+	c #2D1D1A",
"7+	c #523D2A",
"8+	c #463426",
"9+	c #433325",
"0+	c #493827",
"a+	c #382B21",
"b+	c #2E201B",
"c+	c #242930",
"d+	c #323B46",
"e+	c #52667F",
"f+	c #2C3239",
"g+	c #23282D",
"h+	c #171A1A",
"i+	c #33261D",
"j+	c #3A2D21",
"k+	c #4A3727",
"l+	c #2C1D1A",
"m+	c #2F211B",
"n+	c #1E2023",
"o+	c #3D4A5B",
"p+	c #343C45",
"q+	c #292F35",
"r+	c #151514",
"s+	c #31221E",
"t+	c #2E211D",
"u+	c #181A1C",
"v+	c #282E34",
"w+	c #2F363E",
"x+	c #374352",
"y+	c #3F2D21",
"z+	c #503C29",
"A+	c #362720",
"B+	c #32241F",
"C+	c #392921",
"D+	c #39281F",
"E+	c #30231E",
"F+	c #161717",
"G+	c #2C333A",
"H+	c #3A4655",
"I+	c #2C3540",
"J+	c #261919",
"K+	c #372A1F",
"L+	c #402E22",
"M+	c #362821",
"N+	c #3A2A22",
"O+	c #3A291F",
"P+	c #392D20",
"Q+	c #231A1B",
"R+	c #313B47",
"S+	c #1F2224",
"T+	c #56687E",
"U+	c #404D5D",
"V+	c #403323",
"W+	c #413323",
"X+	c #392B20",
"Y+	c #362620",
"Z+	c #392922",
"`+	c #372720",
" @	c #475668",
".@	c #1E2223",
"+@	c #473425",
"@@	c #412F23",
"#@	c #3C2A20",
"$@	c #4C3827",
"%@	c #4D3928",
"&@	c #323941",
"*@	c #493627",
"=@	c #443225",
"-@	c #3F2F24",
";@	c #343D47",
">@	c #37424F",
",@	c #465567",
"'@	c #54657B",
")@	c #3E4B5B",
"!@	c #2F3844",
"~@	c #2C353F",
"{@	c #303A46",
"]@	c #53657A",
"^@	c #3E4B5A",
"/@	c #3A2C21",
"(@	c #382A21",
"_@	c #455364",
":@	c #414F60",
"<@	c #313C48",
"[@	c #4D3A28",
"}@	c #4E3A28",
"|@	c #453425",
"1@	c #413124",
"2@	c #362721",
"3@	c #433225",
"4@	c #473526",
"5@	c #392A22",
"6@	c #3D2D23",
"7@	c #493727",
"8@	c #493726",
"9@	c #364250",
"0@	c #4D5D71",
"a@	c #453625",
"b@	c #403023",
"c@	c #3E2F23",
"d@	c #403124",
"e@	c #372921",
"f@	c #423324",
"g@	c #423223",
"h@	c #493826",
"i@	c #423224",
"j@	c #352721",
"k@	c #403024",
"l@	c #3B2F22",
"m@	c #49596C",
"n@	c #425062",
"o@	c #54667C",
"p@	c #48576A",
"q@	c #4D5D70",
"r@	c #3C4958",
"s@	c #382B20",
"t@	c #35281F",
"u@	c #2F201C",
"v@	c #30221D",
"w@	c #33261E",
"x@	c #32241E",
"y@	c #34261F",
"z@	c #34271F",
"A@	c #35291E",
"B@	c #2B1B1A",
"C@	c #2D1E1B",
"D@	c #32231F",
"  . + + + + + @ # $ % & & * = - ; ; ; ; ; ; ; - > * & & , ' ) ! ! ~ + + + + + + ",
"+ + + + + + { ] ^ & / ( _ : < [ } } } } } } } | 1 2 & & 3 4 5 6 7 ! ! 8 + + + + ",
"9 9 9 + 0 a b & & c d e f g } } } } } } } } } h i j k l m & n o p q ~ r + + + + ",
"s s s t u v w & & x y 1 z A } } B C C C C C D } } g E F : ; & G H I J + + + + + ",
"s K L M N O P Q 2 R S } } T U V W X X X X X Y V Z ` } }  ...+.@.#.$.%.&.9 *.+ 9 ",
"s =.-.;.^ >.P ,.'.).!.~.W {.].^.^.^.^.^.^.^.^.^./.(._.~.:.<.[.}.P P |.1.2.*.+ 3.",
"r 4.5.6.P P '.).7.8.9.0.a.^.^.b.b.b.c.^.d.b.b.b.e.^./.0.f.g.g S ,.P P h.i.j.k.8 ",
"l.m.n.o.P P p.} 8.q.a.^.e.r.r.s.t.t.u.r.v.t.t.w.w.r.x.^.a.y.z.} A.P P w B.m.C.! ",
"P P P P P h D.E.F.G.H.I.J.K.K.s.K.K.L.w.J.K.K.w.M.K.N.I.O.^.P.Q.D.} R.P P P P ! ",
"j j j j j S.P.^.G.T.u.K.K.K.K.U.V.V.W.w.X.V.V.w.M.K.K.K.Y.Z.^.^.`.}  +j >.P P .+",
"| | | | | ++^.@+T.w.#+$+$+$+$+%+&+&+*+=+-+&+&+w.;+$+$+$+>+w.,+^.'+} )+| !+~+~+{+",
"S.S.S.S.S.]+^.^+^+;+/+(+(+(+(+_+:+:+<+K.[+&+&+w.}+&+&+&+|+w.T.c.1+2+3+| | | | P ",
"4+4+4+4+4+].x.K.K.v./+(+(+5+K.6+7+7+8+K.9+0+0+w.;+a+a+a+b+^+L.u./.X c+d+d+d+d+e+",
"f+f+g+h+h+/.w.K.K.v.i+&+&+[+j+6+7+7+8+K.k+7+7+w.l+j+j+j+m+X.K.K.d.^.(.n+n+n+n+o+",
"p+p+q+Q.Q.r+s+K.K.v.i+&+&+&+&+6+7+7+8+K.k+7+7+w.}+&+&+&+|+X.K.K.t+^.].u+v+w+w+x+",
"p+p+q+Q.Q.r+K.K.K.v.y+z+z+z+z+A+7+7+8+K.k+7+7+B+C+z+z+z+D+X.K.K.E+^.F+Q.G+p+p+S ",
"H+H+I+Q.Q.J+&+&+&+K+L+7+7+7+7+M+7+7+8+K.k+7+7+K.N+7+7+7+O+P+&+&+[+w.Q+Q.R+H+H+S+",
"T+T+U+Q.Q.J+V+W+W+X+L+7+7+7+7+M+7+7+8+K.k+7+7+K.N+7+7+7+O+Y+Z+Z+`+w.Q+Q. @T+T+.@",
"T+T+U+Q.Q.J+7+7+7++@@@7+7+7+7+M+7+7+8+K.k+7+7+K.N+7+7+7+#@$@7+7+%@w.Q+Q. @T+T+&@",
"T+T+U+Q.Q.J+7+7+7+*@=@7+7+7+7+M+7+7+8+K.k+7+7+K.N+7+7+7+-@%@7+7+%@w.Q+Q. @T+T+;@",
"T+T+U+Q.Q.J+7+7+7+*@=@7+7+7+7+M+7+7+8+K.k+7+7+K.N+7+7+7+-@%@7+7+%@w.Q+Q. @T+T+>@",
"T+T+U+Q.Q.J+7+7+7+*@=@7+7+7+7+M+7+7+8+K.k+7+7+K.N+7+7+7+-@%@7+7+%@w.Q+Q. @T+T+,@",
"T+T+U+Q.Q.J+7+7+7+*@=@7+7+7+7+M+7+7+8+K.k+7+7+K.N+7+7+7+-@%@7+7+%@w.Q+Q. @T+T+'@",
")@)@!@Q.Q.J+7+7+7+*@=@7+7+7+7+M+7+7+8+K.k+7+7+K.N+7+7+7+-@%@7+7+%@w.Q+Q. @T+T+T+",
"| | ~@Q.Q.J+7+7+7+*@=@7+7+7+7+M+7+7+8+K.k+7+7+K.N+7+7+7+-@%@7+7+%@w.Q+Q.{@| | T+",
"]@]@^@Q.Q.J+7+7+7+*@/@V+V+V+V+M+7+7+8+K.k+7+7+K.M+V+V+V+(@%@7+7+%@w.Q+Q._@]@]@T+",
":@:@<@Q.Q.J+[@}@}@|@1@}@}@}@}@2@}@}@3@K.4@}@}@K.5@}@}@}@6@7@}@}@8@w.Q+Q.9@:@:@T+",
"0@0@| Q.Q.J+a@a@a@b@a+&+&+&+&+V.a@a@c@K.d@a@a@K.V.&+&+&+e@f@a@a@g@w.Q+Q.U+0@0@T+",
"| | ~@Q.Q.J+8@h@h@i@a+&+&+&+&+j@h@h@k@K.9+h@h@K.V.&+&+&+e@|@h@h@|@w.Q+Q.{@| | T+",
"| | ~@Q.Q.J+&+&+&+j+a+&+&+&+&+5+&+&+(+K.[+&+&+K.V.&+&+&+e@l@&+&+[+w.Q+Q.{@| | T+",
"| | ~@Q.Q.J+&+&+&+j+a+&+&+&+&+5+&+&+(+K.[+&+&+K.V.&+&+&+e@l@&+&+[+w.Q+Q.{@| | m@",
"| | ~@Q.Q.J+&+&+&+j+a+&+&+&+&+5+&+&+(+K.[+&+&+K.V.&+&+&+e@l@&+&+[+w.Q+Q.{@| | n@",
"| | ~@Q.Q.J+&+&+&+j+a+&+&+&+&+5+&+&+(+K.[+&+&+K.V.&+&+&+e@l@&+&+[+w.Q+Q.{@| | o@",
"| | ~@Q.Q.J+&+&+&+j+a+&+&+&+&+5+&+&+(+K.[+&+&+K.V.&+&+&+e@l@&+&+[+w.Q+Q.{@| | :@",
"| | ~@Q.Q.J+&+&+&+j+a+&+&+&+&+5+&+&+(+K.[+&+&+K.V.&+&+&+e@l@&+&+[+w.Q+Q.{@| | p@",
"| | ~@Q.Q.J+&+&+&+j+a+&+&+&+&+5+&+&+(+K.[+&+&+K.V.&+&+&+e@l@&+&+[+w.Q+Q.{@| | q@",
"| | ~@Q.Q.J+&+&+&+j+a+&+&+&+&+5+&+&+(+K.[+&+&+K.V.&+&+&+e@l@&+&+[+w.Q+Q.{@| | r@",
"| | ~@Q.Q.J+&+&+&+s@t@&+&+&+&+u@&+&+(+K.[+&+&+^+v@&+&+&+w@[+&+&+[+w.Q+Q.{@| | | ",
"| | ~@Q.Q.J+$+$+$+x@i+&+&+&+&+%+&+&+(+K.[+&+&+w.}+&+&+&+|+y@$+$+z@w.Q+Q.{@| | | ",
"| | ~@Q.Q.J+K.K.K.v.u@V.V.V.V.%+&+&+A@M.s@&+&+w.B@V.V.V.C@X.K.K.D@w.Q+Q.{@| | | "};
