/* XPM */
static char *result[] = {
/* columns rows colors chars-per-pixel */
"45 45 13 1 ",
"  c #141412",
". c #191C1E",
"X c #281818",
"o c #332520",
"O c #3D3122",
"+ c #2B3037",
"@ c #523D2A",
"# c #343C45",
"$ c #394554",
"% c #56687E",
"& c #607897",
"* c #7998BF",
"= c None",
/* pixels */
"            ********************            =",
"          *****&&$++++++++$$&***            =",
"        ****&&$+++++++++++$$&*****          =",
".......&***$+&$++++++++++++++$&&****        =",
".......&***$+++++++......+++++++$***&...... =",
"......&&&&$++++..           .++++$&&&&&.... =",
"....&&&&$$++..                ..++$$&&&&... =",
"...$&&&$+++.     XXXX  XXXXX    .+++$&&&$.. =",
"   &&&&+++    XXXXoooXXoooXXXX    +++&&&&   =",
"&&&&&&++..  XXoooXoooXXoooXXooXX  ..+++&&&&&=",
"&&&&&&+.   XoooooXoooXXoooXXooooX   .++&&&&&=",
"$$$$$$+   XXoooooXOOOXXOOOXXooooXX   ++$$&&&=",
"$$$$$$. XXXXOOOOOXOOOooOOOXXOOOOXX   ++$$$$$=",
"++++++  oooXoooooX@@@ooOOOXXOOOOXXXX ..$$$$$=",
"       XoooXOOOooX@@@oo@@@XXooooXooo   +++++=",
"###... XoooXOOOOOX@@@oo@@@XXOOOOXoooX       =",
"###... ooooXOOOOOX@@@oo@@@XXOOOOXoooo  ..###=",
"###... ooooX@@@@@o@@@oo@@@oo@@@@Xoooo  ..###=",
"$$$...XOOOOX@@@@@o@@@oo@@@oo@@@@XOOOOXX..$$$=",
"%%%...XOOOOX@@@@@o@@@oo@@@oo@@@@XooooXX..%%%=",
"%%%...X@@@@X@@@@@o@@@oo@@@oo@@@@X@@@@XX..%%%=",
"%%%...X@@@@o@@@@@o@@@oo@@@oo@@@@o@@@@XX..%%%=",
"%%%...X@@@@o@@@@@o@@@oo@@@oo@@@@o@@@@XX..%%%=",
"%%%...X@@@@o@@@@@o@@@oo@@@oo@@@@o@@@@XX..%%%=",
"%%%...X@@@@o@@@@@o@@@oo@@@oo@@@@o@@@@XX..%%%=",
"%%%...X@@@@o@@@@@o@@@oo@@@oo@@@@o@@@@XX..%%%=",
"$$$...X@@@@o@@@@@o@@@oo@@@oo@@@@o@@@@XX..%%%=",
"$$$...X@@@@o@@@@@o@@@oo@@@oo@@@@o@@@@XX..$$$=",
"%%%...X@@@@oOOOOOo@@@oo@@@ooOOOOo@@@@XX..%%%=",
"$$$...X@@@@o@@@@@o@@@oo@@@oo@@@@o@@@@XX..$$$=",
"%%%...XOOOOoOOOOOoOOOooOOOooOOOOoOOOOXX..%%%=",
"$$$...X@@@@oOOOOOo@@@oo@@@ooOOOOo@@@@XX..$$$=",
"$$$...XOOOOoOOOOOoOOOooOOOooOOOOoOOOOXX..$$$=",
"$$$...XOOOOoOOOOOoOOOooOOOooOOOOoOOOOXX..$$$=",
"$$$...XOOOOoOOOOOoOOOooOOOooOOOOoOOOOXX..$$$=",
"$$$...XOOOOoOOOOOoOOOooOOOooOOOOoOOOOXX..$$$=",
"$$$...XOOOOoOOOOOoOOOooOOOooOOOOoOOOOXX..$$$=",
"$$$...XOOOOoOOOOOoOOOooOOOooOOOOoOOOOXX..$$$=",
"$$$...XOOOOoOOOOOoOOOooOOOooOOOOoOOOOXX..$$$=",
"$$$...XOOOOoOOOOOoOOOooOOOooOOOOoOOOOXX..$$$=",
"$$$...XOOOOoOOOOOoOOOooOOOooOOOOoOOOOXX..$$$=",
"$$$...XOOOOoOOOOOoOOOooOOOooOOOOoOOOOXX..$$$=",
"$$$...XOOOOXOOOOOXOOOooOOOXXOOOOXOOOOXX..$$$=",
"$$$...XooooXOOOOOXOOOooOOOXXOOOOXooooXX..$$$=",
"$$$...XooooXoooooXOOOXXOOOXXooooXooooXX..$$$="
};
