/* XPM */
static char * door_dark_1_xpm[] = {
"40 40 169 2",
"  	c #1D2619",
". 	c #1F291C",
"+ 	c #232E20",
"@ 	c #232D20",
"# 	c #273231",
"$ 	c #7998BF",
"% 	c #7897BE",
"& 	c #7694BA",
"* 	c #6781A3",
"= 	c #5D7391",
"- 	c #404E60",
"; 	c #2C3138",
"> 	c #2B3037",
", 	c #374251",
"' 	c #5E7694",
") 	c #7593B8",
"! 	c #7594B9",
"~ 	c #7897BD",
"{ 	c #435469",
"] 	c #202B1D",
"^ 	c #222C1F",
"/ 	c #2B3541",
"( 	c #728FB3",
"_ 	c #6F8BAF",
": 	c #6882A3",
"< 	c #4A5C73",
"[ 	c #303842",
"} 	c #282C33",
"| 	c #2A2F36",
"1 	c #2C3139",
"2 	c #36414F",
"3 	c #435266",
"4 	c #637C9B",
"5 	c #39475A",
"6 	c #303B4A",
"7 	c #1F2A1C",
"8 	c #212C1E",
"9 	c #263123",
"0 	c #20291E",
"a 	c #323E4C",
"b 	c #586E8A",
"c 	c #718EB3",
"d 	c #657E9F",
"e 	c #353F4C",
"f 	c #323A45",
"g 	c #282D33",
"h 	c #262A30",
"i 	c #25292E",
"j 	c #24282D",
"k 	c #171A1A",
"l 	c #212529",
"m 	c #262B31",
"n 	c #303741",
"o 	c #5C7390",
"p 	c #708CB0",
"q 	c #617A99",
"r 	c #354351",
"s 	c #222D1F",
"t 	c #2C3828",
"u 	c #26302C",
"v 	c #45566C",
"w 	c #566C88",
"x 	c #607897",
"y 	c #536882",
"z 	c #51647E",
"A 	c #323B47",
"B 	c #292D34",
"C 	c #23272C",
"D 	c #1C1F21",
"E 	c #171919",
"F 	c #141513",
"G 	c #141412",
"H 	c #181A1B",
"I 	c #22262A",
"J 	c #23262B",
"K 	c #272C32",
"L 	c #313943",
"M 	c #4C5E76",
"N 	c #5F7795",
"O 	c #405062",
"P 	c #293425",
"Q 	c #242E20",
"R 	c #3E4E5F",
"S 	c #526680",
"T 	c #313A45",
"U 	c #1E2125",
"V 	c #151615",
"W 	c #151514",
"X 	c #4B5C73",
"Y 	c #4D6078",
"Z 	c #3C4C58",
"` 	c #242F21",
" .	c #29323A",
"..	c #5A718D",
"+.	c #415062",
"@.	c #1C1E20",
"#.	c #161716",
"$.	c #1B1C1E",
"%.	c #2F3740",
"&.	c #343D49",
"*.	c #5C7391",
"=.	c #364451",
"-.	c #283325",
";.	c #576E8A",
">.	c #586F8B",
",.	c #5A718E",
"'.	c #4B5D74",
").	c #2F3640",
"!.	c #1F2327",
"~.	c #1D2023",
"{.	c #1B1E21",
"].	c #415063",
"^.	c #5F7796",
"/.	c #4D5F77",
"(.	c #2D323A",
"_.	c #1C2023",
":.	c #191C1E",
"<.	c #181B1C",
"[.	c #394453",
"}.	c #5E7593",
"|.	c #1F2226",
"1.	c #181B1D",
"2.	c #1A1D1F",
"3.	c #384352",
"4.	c #3A4655",
"5.	c #394554",
"6.	c #323B46",
"7.	c #1B1D1F",
"8.	c #161615",
"9.	c #2C323B",
"0.	c #2A313A",
"a.	c #171A1B",
"b.	c #141413",
"c.	c #1F2429",
"d.	c #23262C",
"e.	c #171818",
"f.	c #17191A",
"g.	c #22272C",
"h.	c #343C45",
"i.	c #2F363E",
"j.	c #171819",
"k.	c #2A3037",
"l.	c #333D49",
"m.	c #2D3640",
"n.	c #55657B",
"o.	c #55667C",
"p.	c #4C5B6F",
"q.	c #424F60",
"r.	c #56687D",
"s.	c #56687E",
"t.	c #4D5D70",
"u.	c #435161",
"v.	c #445264",
"w.	c #3D4959",
"x.	c #35404E",
"y.	c #516277",
"z.	c #49586B",
"A.	c #3F4C5C",
"B.	c #3C4858",
"C.	c #20252A",
"D.	c #2F3945",
"E.	c #55667B",
"F.	c #516176",
"G.	c #364250",
"H.	c #2E3742",
"I.	c #394555",
"J.	c #1F2328",
"K.	c #1D2226",
"L.	c #1E2227",
"  . + + + + + @ # $ $ % & * = - ; > > > > > > > , ' ) ! ~ $ $ { . ] + + + + + + ",
"+ + + + + ^ / ( $ % _ : < [ > > > > } } } } | > > 1 2 3 4 _ & $ 5 6 7 8 + + + + ",
"9 9 9 + 0 a b _ c d e f > g h i i j k k k k l i i m > > n e o p q ' r s + + + + ",
"t t t u v w x y z A > B C D E F G G G G G G G G G H I J K > L M N x o O + + + + ",
"t P Q R x x S 2 T | I U V G G G G G G G G G G G G G G W D I g [ X Y x x Z ` + 9 ",
"t 9  ...x x +.1 > @.#.V G G G G G G G G G G G G G G G G W #.$.B %.&.x x *.=.@ -.",
";.>.,.x x '.).!.~.G G G G G G G G G G G G G G G G G G G G G G {.| 1 ].x x *.>.>.",
"^.x x x /.(.> _.:.G G G G G G G G G G G G G G G G G G G G G G <.| > [.x x x x x ",
"}.}.}.}.< > |.W G G G G G G G G G G G G G G G G G G G G G G G G 1.2.3.}.}.}.}.}.",
"4.5.5.5.6.g 7.G G G G G G G G G G G G G G G G G G G G G G G G G G 8.9.5.5.5.5.5.",
"e e e e 0.a.V G G G G G G G G G G G G G G G G G G G G G G G G G G b.c.e e e e e ",
"d.J J J D G G G G G G G G G G G G G G G G G G G G G G G G G G G G G e.J J J J J ",
"| | m f.#.G G G G G G G G G G G G G G G G G G G G G G G G G G G G G W f.f.g.| | ",
"h.h.i.:.j.G G G G G G G G G G G G G G G G G G G G G G G G G G G G G V :.:.k.h.h.",
"3.3.l.:.j.G G G G G G G G G G G G G G G G G G G G G G G G G G G G G V :.:.m.3.3.",
"n.o.p.:.j.G G G G G G G G G G G G G G G G G G G G G G G G G G G G G V :.:.q.o.o.",
"r.s.t.:.j.G G G G G G G G G G G G G G G G G G G G G G G G G G G G G V :.:.u.s.s.",
"s.s.t.:.j.G G G G G G G G G G G G G G G G G G G G G G G G G G G G G V :.:.u.s.s.",
"s.s.t.:.j.G G G G G G G G G G G G G G G G G G G G G G G G G G G G G V :.:.u.s.s.",
"s.s.t.:.j.G G G G G G G G G G G G G G G G G G G G G G G G G G G G G V :.:.u.s.s.",
"s.s.t.:.j.G G G G G G G G G G G G G G G G G G G G G G G G G G G G G V :.:.u.s.s.",
"v.v.w.:.j.G G G G G G G G G G G G G G G G G G G G G G G G G G G G G V :.:.x.v.v.",
"y.y.z.:.j.G G G G G G G G G G G G G G G G G G G G G G G G G G G G G V :.:.A.y.y.",
"B.5.C.:.j.G G G G G G G G G G G G G G G G G G G G G G G G G G G G G V :.:.D.B.B.",
"E.F.:.:.j.G G G G G G G G G G G G G G G G G G G G G G G G G G G G G V :.:.q.o.o.",
"4.G.:.:.j.G G G G G G G G G G G G G G G G G G G G G G G G G G G G G V :.:.H.5.5.",
"5.G.:.:.j.G G G G G G G G G G G G G G G G G G G G G G G G G G G G G V :.:.H.5.5.",
"I.G.:.:.j.G G G G G G G G G G G G G G G G G G G G G G G G G G G G G V :.:.H.5.5.",
"5.G.:.:.j.G G G G G G G G G G G G G G G G G G G G G G G G G G G G G V :.:.H.5.5.",
"5.G.:.:.j.G G G G G G G G G G G G G G G G G G G G G G G G G G G G G V :.:.H.5.5.",
"5.G.:.:.j.G G G G G G G G G G G G G G G G G G G G G G G G G G G G G V :.:.H.5.5.",
"5.G.:.:.j.G G G G G G G G G G G G G G G G G G G G G G G G G G G G G V :.:.H.5.5.",
"5.G.:.:.j.G G G G G G G G G G G G G G G G G G G G G G G G G G G G G V :.:.H.5.5.",
"5.G.:.:.j.G G G G G G G G G G G G G G G G G G G G G G G G G G G G G V :.:.H.5.5.",
"5.G.:.:.j.G G G G G G G G G G G G G G G G G G G G G G G G G G G G G V :.:.H.5.5.",
"5.G.:.:.j.G G G G G G G G G G G G G G G G G G G G G G G G G G G G G V :.:.H.5.5.",
"5.G.:.:.j.G G G G G G G G G G G G G G G G G G G G G G G G G G G G G V :.:.H.5.5.",
"5.G.:.:.j.G G G G G G G G G G G G G G G G G G G G G G G G G G G G G V :.:.H.5.5.",
"5.G.:.:.j.G G G G G G G G G G G G G G G G G G G G G G G G G G G G G V :.:.H.5.5.",
"J.K.:.:.j.G G G G G G G G G G G G G G G G G G G G G G G G G G G G G V :.:._.L.L."};
