/* XPM */
static char * door_dark_pr_xpm[] = {
"40 40 505 2",
"  	c #1D2619",
". 	c #1F291C",
"+ 	c #232E20",
"@ 	c #222D20",
"# 	c #27302E",
"$ 	c #536780",
"% 	c #6882A2",
"& 	c #6B86A8",
"* 	c #7390B5",
"= 	c #728EB3",
"- 	c #6680A0",
"; 	c #546883",
"> 	c #425061",
", 	c #3A4654",
"' 	c #39434F",
") 	c #394350",
"! 	c #3E4A5A",
"~ 	c #4B5C72",
"{ 	c #5F7694",
"] 	c #6D88AB",
"^ 	c #7491B6",
"/ 	c #6F8AAD",
"( 	c #6983A3",
"_ 	c #647C9A",
": 	c #364351",
"< 	c #1F2A1C",
"[ 	c #202B1D",
"} 	c #222D1F",
"| 	c #222C20",
"1 	c #323D49",
"2 	c #5A6F8A",
"3 	c #728FB4",
"4 	c #7491B7",
"5 	c #6983A4",
"6 	c #5A718D",
"7 	c #48586D",
"8 	c #323A44",
"9 	c #2D333C",
"0 	c #2B3037",
"a 	c #282D33",
"b 	c #272C32",
"c 	c #2A2F36",
"d 	c #2C323A",
"e 	c #303740",
"f 	c #37404D",
"g 	c #425062",
"h 	c #536781",
"i 	c #637C9B",
"j 	c #6F8BAF",
"k 	c #7896BC",
"l 	c #6982A3",
"m 	c #3E4C5C",
"n 	c #1F2A1E",
"o 	c #212C1E",
"p 	c #263123",
"q 	c #222B26",
"r 	c #3B4859",
"s 	c #556A84",
"t 	c #6883A4",
"u 	c #6C87AA",
"v 	c #5A708C",
"w 	c #353E4B",
"x 	c #2F353E",
"y 	c #292E35",
"z 	c #262A2F",
"A 	c #25292E",
"B 	c #24272C",
"C 	c #1E2124",
"D 	c #1B1D1F",
"E 	c #22252A",
"F 	c #282C33",
"G 	c #2D333B",
"H 	c #323A45",
"I 	c #3A4655",
"J 	c #4E6076",
"K 	c #6E8BAE",
"L 	c #5E7593",
"M 	c #46576C",
"N 	c #242E29",
"O 	c #2C3828",
"P 	c #232D20",
"Q 	c #435366",
"R 	c #596E8B",
"S 	c #5E7694",
"T 	c #576D88",
"U 	c #495A70",
"V 	c #384351",
"W 	c #262A30",
"X 	c #1E2123",
"Y 	c #191B1C",
"Z 	c #181918",
"` 	c #171818",
" .	c #161615",
"..	c #151514",
"+.	c #171717",
"@.	c #181A1A",
"#.	c #1C1F21",
"$.	c #222529",
"%.	c #333B46",
"&.	c #424F62",
"*.	c #536882",
"=.	c #5C7390",
"-.	c #5C7290",
";.	c #4D6079",
">.	c #232E21",
",.	c #293425",
"'.	c #242E24",
").	c #49596F",
"!.	c #5B728F",
"~.	c #5D7391",
"{.	c #50637C",
"].	c #3F4C5D",
"^.	c #292F35",
"/.	c #171819",
"(.	c #141513",
"_.	c #141412",
":.	c #141413",
"<.	c #151614",
"[.	c #171817",
"}.	c #191A1B",
"|.	c #1F2226",
"1.	c #272B31",
"2.	c #2E343D",
"3.	c #586E8A",
"4.	c #5D7593",
"5.	c #29342E",
"6.	c #242F21",
"7.	c #252F27",
"8.	c #425265",
"9.	c #586E89",
"0.	c #607896",
"a.	c #576B85",
"b.	c #384452",
"c.	c #2E353E",
"d.	c #1E2023",
"e.	c #1C1E1F",
"f.	c #232629",
"g.	c #2B3038",
"h.	c #353F4C",
"i.	c #4C5E75",
"j.	c #5F7795",
"k.	c #5B718E",
"l.	c #4B5C73",
"m.	c #283132",
"n.	c #273224",
"o.	c #384451",
"p.	c #414F61",
"q.	c #596E8A",
"r.	c #607796",
"s.	c #556882",
"t.	c #414E5F",
"u.	c #2C333A",
"v.	c #24282D",
"w.	c #1B1D1E",
"x.	c #151513",
"y.	c #212528",
"z.	c #2A2F37",
"A.	c #3B4553",
"B.	c #4F6179",
"C.	c #5C7391",
"D.	c #46566A",
"E.	c #394453",
"F.	c #374351",
"G.	c #5F7796",
"H.	c #475569",
"I.	c #292D33",
"J.	c #212529",
"K.	c #191C1C",
"L.	c #171918",
"M.	c #1F2225",
"N.	c #3E4A5B",
"O.	c #5E7594",
"P.	c #4D5F76",
"Q.	c #3C4857",
"R.	c #24292E",
"S.	c #171919",
"T.	c #36404D",
"U.	c #48596E",
"V.	c #4C5E74",
"W.	c #2C343E",
"X.	c #1D2123",
"Y.	c #292F37",
"Z.	c #384350",
"`.	c #2E3740",
" +	c #22272C",
".+	c #161616",
"++	c #151515",
"@+	c #1F2327",
"#+	c #2C333B",
"$+	c #2F3943",
"%+	c #202326",
"&+	c #1F2325",
"*+	c #1D2022",
"=+	c #181813",
"-+	c #1E1F14",
";+	c #1D1F14",
">+	c #1C1E20",
",+	c #24292F",
"'+	c #2D333A",
")+	c #181A1B",
"!+	c #161716",
"~+	c #161612",
"{+	c #202115",
"]+	c #363319",
"^+	c #645A24",
"/+	c #786B28",
"(+	c #534C21",
"_+	c #4D4720",
":+	c #151615",
"<+	c #17191A",
"[+	c #1A1C1E",
"}+	c #272D32",
"|+	c #353D47",
"1+	c #1E2326",
"2+	c #191C1E",
"3+	c #161817",
"4+	c #2B2A17",
"5+	c #615724",
"6+	c #83752C",
"7+	c #8C7D2F",
"8+	c #928230",
"9+	c #88792E",
"0+	c #85772D",
"a+	c #4D461F",
"b+	c #191B1D",
"c+	c #1C1F23",
"d+	c #2D353D",
"e+	c #343D47",
"f+	c #353D48",
"g+	c #3C4858",
"h+	c #343E4A",
"i+	c #20252A",
"j+	c #161717",
"k+	c #5A5223",
"l+	c #6D6228",
"m+	c #4D451F",
"n+	c #1D2125",
"o+	c #55677D",
"p+	c #475667",
"q+	c #262D34",
"r+	c #363920",
"s+	c #383B20",
"t+	c #444321",
"u+	c #756929",
"v+	c #736729",
"w+	c #342F18",
"x+	c #201D13",
"y+	c #645A26",
"z+	c #7D6F2A",
"A+	c #202529",
"B+	c #485769",
"C+	c #55677C",
"D+	c #54667C",
"E+	c #56687E",
"F+	c #191913",
"G+	c #373A20",
"H+	c #4B4822",
"I+	c #796C2A",
"J+	c #5F5521",
"K+	c #1C1A13",
"L+	c #675C26",
"M+	c #7E702A",
"N+	c #21262A",
"O+	c #495869",
"P+	c #34371F",
"Q+	c #3A3C20",
"R+	c #675E27",
"S+	c #6F6225",
"T+	c #413A19",
"U+	c #21262B",
"V+	c #4A586B",
"W+	c #56677D",
"X+	c #475567",
"Y+	c #262C33",
"Z+	c #202216",
"`+	c #35381F",
" @	c #4A4722",
".@	c #5D5320",
"+@	c #124E6E",
"@@	c #142D3D",
"#@	c #125A7F",
"$@	c #3B3518",
"%@	c #726627",
"&@	c #22272B",
"*@	c #4A596B",
"=@	c #475566",
"-@	c #31341D",
";@	c #4A4622",
">@	c #4C4822",
",@	c #575224",
"'@	c #7A6C2C",
")@	c #1E171D",
"!@	c #146791",
"~@	c #143A50",
"{@	c #1477A6",
"]@	c #2B2816",
"^@	c #524A21",
"/@	c #4B5A6C",
"(@	c #465566",
"_@	c #252C33",
":@	c #242518",
"<@	c #484521",
"[@	c #5F5625",
"}@	c #5D5525",
"|@	c #645B26",
"1@	c #7B6C31",
"2@	c #281A27",
"3@	c #172329",
"4@	c #15191A",
"5@	c #18272F",
"6@	c #242215",
"7@	c #423E1F",
"8@	c #22282D",
"9@	c #4B5A6D",
"0@	c #475669",
"a@	c #3B4755",
"b@	c #22272D",
"c@	c #222317",
"d@	c #3A341A",
"e@	c #474522",
"f@	c #534E23",
"g@	c #62562C",
"h@	c #422340",
"i@	c #3E213C",
"j@	c #1D161C",
"k@	c #1C1918",
"l@	c #2E2527",
"m@	c #3F4B5B",
"n@	c #475568",
"o@	c #4D5C70",
"p@	c #23292E",
"q@	c #2F321C",
"r@	c #32341E",
"s@	c #434221",
"t@	c #5D5326",
"u@	c #5B4246",
"v@	c #5B2C58",
"w@	c #562A54",
"x@	c #7D2977",
"y@	c #84297D",
"z@	c #7F2978",
"A@	c #4C264A",
"B@	c #21272C",
"C@	c #435162",
"D@	c #4C5C70",
"E@	c #435061",
"F@	c #37424F",
"G@	c #20252B",
"H@	c #212215",
"I@	c #85772C",
"J@	c #8D7D2F",
"K@	c #86782D",
"L@	c #786A2E",
"M@	c #765A4F",
"N@	c #5F2E5C",
"O@	c #8B2D84",
"P@	c #932D8B",
"Q@	c #8C2D85",
"R@	c #52284F",
"S@	c #191C1D",
"T@	c #3B4756",
"U@	c #445162",
"V@	c #4D5E71",
"W@	c #3F4C5B",
"X@	c #23282E",
"Y@	c #82742B",
"Z@	c #887A2E",
"`@	c #544E23",
" #	c #6D6328",
".#	c #655B26",
"+#	c #455365",
"@#	c #4D5D70",
"##	c #424F60",
"$#	c #36414E",
"%#	c #7D702A",
"&#	c #918130",
"*#	c #5B5324",
"=#	c #7E712B",
"-#	c #3B4857",
";#	c #394554",
">#	c #303945",
",#	c #1E2327",
"'#	c #4C461F",
")#	c #7C6F2A",
"!#	c #81732B",
"~#	c #4E4821",
"{#	c #6E6428",
"]#	c #8F7F2F",
"^#	c #908130",
"/#	c #756828",
"(#	c #161818",
"_#	c #1F2428",
":#	c #343F4C",
"<#	c #3A4656",
"[#	c #1D1E14",
"}#	c #1F2014",
"|#	c #202116",
"1#	c #494622",
"2#	c #6D6226",
"3#	c #766927",
"4#	c #716426",
"5#	c #433C1C",
"6#	c #343F4D",
"7#	c #341F10",
"8#	c #513318",
"9#	c #754D24",
"0#	c #694621",
"a#	c #885729",
"b#	c #855125",
"c#	c #A96B39",
"d#	c #B0703C",
"e#	c #844F24",
"f#	c #7A4922",
"g#	c #1F2429",
"h#	c #35404D",
"i#	c #2F3944",
"j#	c #1E2227",
"k#	c #47280D",
"l#	c #6D4019",
"m#	c #9A5B27",
"n#	c #885022",
"o#	c #B56C30",
"p#	c #D18242",
"q#	c #EC9751",
"r#	c #F09A53",
"s#	c #DA8947",
"t#	c #A7642D",
"u#	c #35404E",
"v#	c #212315",
"w#	c #594D20",
"x#	c #635122",
"y#	c #735826",
"z#	c #6C5424",
"A#	c #7E5D28",
"B#	c #926932",
"C#	c #E3934F",
"D#	c #C4793B",
"E#	c #664824",
"F#	c #2A2C1A",
"G#	c #1F2529",
"H#	c #1E2226",
"I#	c #161617",
"J#	c #252716",
"K#	c #8C7C2E",
"L#	c #6F6428",
"M#	c #684725",
"N#	c #6A4325",
"O#	c #715A27",
"P#	c #5A5224",
"Q#	c #4E4720",
"R#	c #151617",
"S#	c #232515",
"T#	c #5D5524",
"U#	c #605926",
"V#	c #1F1F15",
"W#	c #4A431E",
"X#	c #2F3844",
"Y#	c #1D2226",
"Z#	c #151616",
"`#	c #222415",
" $	c #696027",
".$	c #5C5324",
"+$	c #4C451F",
"@$	c #2F3843",
"#$	c #84762C",
"$$	c #85762C",
"%$	c #5A501F",
"&$	c #1B1A13",
"*$	c #564E22",
"=$	c #453E1D",
"-$	c #653C1D",
";$	c #6B401E",
">$	c #663D1D",
",$	c #161412",
"'$	c #2B1C11",
")$	c #241911",
"!$	c #20262B",
"~$	c #1D2126",
"{$	c #8B5223",
"]$	c #935725",
"^$	c #8B5224",
"/$	c #171512",
"($	c #38210F",
"_$	c #2D1C10",
":$	c #35414E",
"<$	c #2E3843",
"[$	c #A36838",
"}$	c #BB773F",
"|$	c #BC773E",
"1$	c #301E10",
"2$	c #4C2D14",
"3$	c #8A5225",
"4$	c #643C1D",
"5$	c #21262C",
"6$	c #2D3741",
"7$	c #84542E",
"8$	c #955F33",
"9$	c #3E2614",
"0$	c #70431F",
"a$	c #513119",
"b$	c #22282F",
"c$	c #1A1D20",
"d$	c #1B1F21",
"e$	c #21272D",
"f$	c #394553",
"  . + + + + @ # $ % & * = - ; > , ' ' ' ' ' ) ! ~ { ] ^ / ( _ : < [ + + + + + + ",
"+ + + + } | 1 2 3 4 5 6 7 , 8 9 0 a b b b b c d e f g h i j k l m n < o + + + + ",
"p p p + q r s t u v > w x y z A B C D D D D E A A F G H I J 5 K L M N } + + + + ",
"O O O P Q R S T U V G W B X Y Z `  .........+.Z @.#.$.A y %.&.*.=.-.;.>.+ + + + ",
"O ,.'.).!.~.{.].8 ^.E D /. .(._._._._._._._._._.:.<.[.}.|.1.2.V U 3.4.{.5.6.+ p ",
"O 7.8.9.0.a.b.c.z d.@..._._._._._._._._._._._._._._._.:.` e.f.g.h.i.j.k.l.m.@ n.",
"o.p.q.r.s.t.u.v.w.x._._._._._._._._._._._._._._._._._._._.(.+.y.z.A.B.C.C.D.E.F.",
"G.G.G.G.H.I.J.K.<._._._._._._._._._._._._._._._._._._._._._.(.L.M.1.N.q.G.G.G.O.",
"P.P.P.P.Q.R.S.x._._._._._._._._._._._._._._._._._._._._._._._._.` y.T.U.P.P.P.V.",
"V V V V W.X.x._._._._._._._._._._._._._._._._._._._._._._._._._...D Y.h.V V V Z.",
"`.`.`.`. +.+_._._._._._._._._._._._._._._._._._._._._._._._._._._.++@+#+`.`.`.$+",
"%+&+X *+@._._._._._._._._._._._.=+-+-+-+-+-+;+_._._._._._._._._._._.[.>+d.M.%+,+",
"'+a #.)+!+_._._._._._._._._.~+{+]+^+/+/+/+(+_+_._._._._._._._._._._.:+<+[+}+u.x ",
"|+c.1+2+3+_._._._._._._._._.4+5+6+7+8+8+8+9+0+a+_._._._._._._._._._.!+b+c+d+e+f+",
"g+h+i+2+j+_._._._._._._._._.k+l+8+8+8+8+8+8+8+0+m+_._._._._._._._._.!+b+n+h+Q.g+",
"o+p+q+2+j+_._._._._._._._.r+s+t+u+8+8+v+w+x+y+8+z+_._._._._._._._._.!+b+A+B+C+D+",
"E+p+q+2+j+_._._._._._._.F+G+G+G+H+I+J+_._._.K+L+M+_._._._._._._._._.j+b+N+O+o+C+",
"E+p+q+2+j+_._._._._._._.P+G+G+Q+R+S+_._._._._.T+M+_._._._._._._._._.j+b+U+V+W+C+",
"E+X+Y+2+j+_._._._._._.Z+`+G+G+ @u+.@_.+@@@_.#@$@%@_._._._._._._._._.j+b+&@*@W+o+",
"E+=@Y+2+j+_._._._._._.-@;@>@ @,@'@)@_.!@~@_.{@]@^@_._._._._._._._._.j+b+ +/@W+o+",
"E+(@_@2+j+_._._._._._.:@<@[@}@|@1@2@_.3@4@_.5@6@7@_._._._._._._._._.j+b+8@9@W+o+",
"0@a@b@2+j+_._._._._._._.c@d@e@f@g@h@i@j@_._._.k@l@_._._._._._._._._.j+b+i+m@n@0@",
"o@m@p@2+j+_._._._._._._.q@r@G+s@t@u@v@w@x@y@y@z@A@_._._._._._._._._.j+b+B@C@D@o@",
"E@F@G@2+j+_._._._._._.H@I@J@K@s+ @L@M@N@O@P@P@Q@R@_._._._._._._._._.3+S@A+T@> U@",
"V@W@X@2+j+_._._._._.{+Y@8+8+8+Z@`@ #8+8+8+.#y+8+M+_._._._._._._._._.3+S@8@+#@#V@",
"##$#i+2+j+_._._._._.{+%#&#8+&#6+*#*#=#8+8+8+8+8+M+_._._._._._._._._.3+S@i+-###E@",
";#>#,#2+j+_._._._._.;+'#)#!#)#~#G+G+{#]#8+8+8+^#/#_._._._._._._._._.(#S@_#:#;#<#",
";#>#,#2+j+_._._._._._.[#{+{+}#|#G+G+1#2#3#3#3#4#5#_._._._._._._._.:.(#S@_#6#;#<#",
";#>#,#2+j+_._._._._._._._._.7#8#9#0#a#b#c#d#e#f#_._._._._._._._._.:.(#S@g#h#;#<#",
";#i#j#2+j+_._._._._._._._._.k#l#m#n#o#p#q#r#s#t#_._._._._._._._._.:.(#S@g#u#;#<#",
";#i#j#2+j+_._._._._._._._.v#w#x#y#z#A#B#C#r#D#E#F#_._._._._._._._.:.(#S@G#u#;#I ",
";#i#H#2+I#_._._._._._._._.J#K#K#K#K#K#L#M#N#O#P#Q#_._._._._._._._.:.(#2+i+u#;#;#",
";#i#H#2+R#_._._._._._._.S#T#8+8+8+8+8+U#V#_.[@[@[@W#_._._._._._._.:.(#2+i+u#;#<#",
";#X#Y#2+Z#_._._._._._._.`#8+8+8+8+8+ $c@_._..$[@[@+$_._._._._._._.:.(#2+i+u#;#;#",
";#@$Y#2+Z#_._._._._._._._.#$$$$$$$$$%$_._._.&$*$*$=$_._._._._._._.:.(#2+i+u#;#I ",
";#@$Y#2+Z#_._._._._._._.-$;$>$_._._._._._._.,$'$'$)$_._._._._._._.(.` 2+!$u#;#I ",
";#@$~$2+Z#_._._._._._._.{$]$^$_._._._._._._./$($($_$_._._._._._._.(./.2+U+:$;#;#",
";#<$n+2+Z#_._._._._._.[$}$|$1$_._._._._._._./$2$3$3$4$_._._._._._.(./.2+5$:$;#;#",
"b.6$n+S@Z#_._._._._._.7$8$8$_._._._._._._._.,$9$0$0$a$_._._._._._.(./.2+U+6#b.b.",
"b$_#c$S@Z#_._._._._._._._._._._._._._._._._._._._._._._._._._._._.(.S.2+d$e$b$f$"};
