/* XPM */
static char * 1_xpm[] = {
"40 40 150 2",
"  	c #1D2619",
". 	c #212B1D",
"+ 	c #232E20",
"@ 	c #202B1D",
"# 	c #1F2A1D",
"$ 	c #1F2A1C",
"% 	c #242F21",
"& 	c #242F20",
"* 	c #2A3626",
"= 	c #2C3828",
"- 	c #273224",
"; 	c #212C1E",
"> 	c #263223",
", 	c #222C1F",
"' 	c #222D1F",
") 	c #273223",
"! 	c #283424",
"~ 	c #2C3728",
"{ 	c #2B3627",
"] 	c #273324",
"^ 	c #253022",
"/ 	c #1F291C",
"( 	c #1C2518",
"_ 	c #283325",
": 	c #242E20",
"< 	c #1E271A",
"[ 	c #141412",
"} 	c #263122",
"| 	c #2A3526",
"1 	c #293426",
"2 	c #263123",
"3 	c #9B5A22",
"4 	c #BD9168",
"5 	c #1E291B",
"6 	c #70431C",
"7 	c #273124",
"8 	c #1F281B",
"9 	c #1D271A",
"0 	c #232D1F",
"a 	c #233219",
"b 	c #1E281A",
"c 	c #77B845",
"d 	c #253021",
"e 	c #5D8D38",
"f 	c #3F5D27",
"g 	c #242E21",
"h 	c #232D20",
"i 	c #1E281B",
"j 	c #202A1C",
"k 	c #44280F",
"l 	c #ECCBAC",
"m 	c #293525",
"n 	c #283425",
"o 	c #2B3727",
"p 	c #253023",
"q 	c #293526",
"r 	c #232E21",
"s 	c #281D12",
"t 	c #2A1D11",
"u 	c #2D3223",
"v 	c #564029",
"w 	c #5B4126",
"x 	c #3E4036",
"y 	c #897A6F",
"z 	c #7E695B",
"A 	c #867267",
"B 	c #7F6A5D",
"C 	c #766152",
"D 	c #5A3B21",
"E 	c #573A22",
"F 	c #54361F",
"G 	c #53351F",
"H 	c #51331E",
"I 	c #4F311C",
"J 	c #4C301C",
"K 	c #482C17",
"L 	c #3F2614",
"M 	c #754C2B",
"N 	c #4C321A",
"O 	c #3E3121",
"P 	c #1C221A",
"Q 	c #A16C41",
"R 	c #DD955C",
"S 	c #9E6A40",
"T 	c #463722",
"U 	c #273022",
"V 	c #605B52",
"W 	c #CEBDB0",
"X 	c #A89588",
"Y 	c #C2B0A3",
"Z 	c #B8A599",
"` 	c #C5A38E",
" .	c #AE6D38",
"..	c #AF6F3D",
"+.	c #B06F3D",
"@.	c #B1703D",
"#.	c #AF703D",
"$.	c #975F33",
"%.	c #7F4E28",
"&.	c #B77A4C",
"*.	c #895832",
"=.	c #A46738",
"-.	c #4F2F16",
";.	c #8E5B33",
">.	c #DA9158",
",.	c #D99058",
"'.	c #DE955D",
").	c #8B5B36",
"!.	c #493B26",
"~.	c #2A3022",
"{.	c #252F22",
"].	c #31332A",
"^.	c #2C3026",
"/.	c #34352C",
"(.	c #35372E",
"_.	c #3D392E",
":.	c #352217",
"<.	c #482C16",
"[.	c #603A1D",
"}.	c #613A1D",
"|.	c #794720",
"1.	c #784620",
"2.	c #58636C",
"3.	c #70421E",
"4.	c #673C1B",
"5.	c #7F5230",
"6.	c #47301D",
"7.	c #4D351F",
"8.	c #241D15",
"9.	c #925D35",
"0.	c #D48D56",
"a.	c #A56838",
"b.	c #B77643",
"c.	c #D68E57",
"d.	c #D18C57",
"e.	c #79512E",
"f.	c #302C1C",
"g.	c #5C8EA5",
"h.	c #3D230E",
"i.	c #131412",
"j.	c #694526",
"k.	c #815735",
"l.	c #192218",
"m.	c #352B19",
"n.	c #382B19",
"o.	c #3D2E1A",
"p.	c #3B2C18",
"q.	c #2D2D1D",
"r.	c #212B1E",
"s.	c #1D2719",
"  . + + + + + + + + + @ # $ $ $ @ + + + % % % % % % % & + @ # $ $ @ + + + + + + ",
"+ + + + + + + + + + + + + $ $ $ @ + + + * = = = = = = - + + + + $ $ $ ; + + + + ",
"> > > , . + + + + + + + + ; @ @ ; + ' ' ) ! = = = ~ { ] ^ ' ' ' $ $ @ ' + + + + ",
"= = = / ( + + + + + + + + + + + + + ; $ $ $ = = = { _ _ _ ; $ $ $ @ + + + + + + ",
"= ) : < ( + + + % [ [ [ [ [ [ [ [ + ' ; @ $ ^ } | 1 _ _ _ ; $ $ % ^ 2 2 2 % + 2 ",
"= + ( ( ( + + + [ 3 3 3 3 4 4 3 3 [ + + @ $ $ @ _ _ _ _ _ ; $ $ _ _ _ _ _ % + _ ",
"' @ 5 ; , + + [ 6 3 3 3 3 3 6 6 3 3 [ - - 2 2 - _ _ _ _ _ - 2 7 _ _ _ : 8 < 9 ; ",
"$ $ $ ' + + [ 6 6 3 3 3 3 3 3 6 6 3 3 [ _ _ _ _ _ _ _ _ _ _ _ _ _ _ _ 0 ( ( ( $ ",
"$ ; a a a a a 6 6 3 3 3 3 3 3 4 4 3 3 [ 2 _ _ _ _ 2 + 2 _ _ _ _ _ ^ ( b $ $ $ $ ",
"$ ; a c c c c 6 6 6 3 [ a a a 6 6 a a [ 2 _ _ _ _ 2 + 2 _ _ _ _ _ ^ ( b $ $ $ $ ",
"+ d } a c e e c c 6 6 [ f [ [ a a [ [ [ g ^ _ _ _ - % 2 - _ _ _ ^ h ( i @ @ @ @ ",
"= = = = a c f f e c 6 [ e [ [ f f [ [ [ ( ( _ _ _ _ _ ^ + - _ _ ( ( ( j + + + + ",
"= = = = = [ e f a k k [ e e f e c a a [ 9 b % % 2 2 2 % + % % g b i j ; + + + ; ",
"= = = = = ( [ a a k k [ e e f e c a a [ 5 $ $ # + + + + + @ $ $ $ @ + + + + + $ ",
"1 1 1 % + 5 [ k k k k [ e l f f f f f l [ m m n + + + + + ' ' ' ' ' + + + / b   ",
"_ _ _ ; $ $ @ [ [ [ a e l l f e e e l l [ = = o + + + + + + + + + + + + + b ( ( ",
"_ _ _ _ _ _ _ _ [ 3 3 a l 4 f a a a l 4 [ = = ~ _ 2 + + + + + + + + + ; $ $ $ + ",
"_ _ _ _ _ _ _ [ e e 3 3 a a a [ [ a 6 [ = = = o _ 2 + + + + + + + + + ; $ $ $ + ",
"+ 2 _ _ _ _ a e e e e 3 3 6 6 6 k 6 3 [ * = _ _ _ 2 + 2 _ _ _ _ _ - + + + + + + ",
"+ 2 _ _ _ p a e e e e 3 3 6 6 l 4 l 3 [ n q _ _ _ - ^ - _ _ _ _ p ^ ' ' + % ^ ^ ",
"+ 2 _ _ _ $ [ f e e f 3 3 6 6 6 k 6 3 [ % + _ _ _ _ _ _ _ _ _ _ $ $ $ ; + - _ _ ",
"+ 2 _ 2 ^ % ^ [ [ a k 3 3 6 6 6 4 6 [ _ 2 2 ^ 2 _ _ _ _ _ % r + $ @ ; % 2 - _ _ ",
"+ 2 _ % : _ _ _ _ [ 3 6 k s s s s t u _ _ v w ' _ _ _ _ _ ; $ $ $ @ + 2 _ _ _ _ ",
"+ % x y z A B C D E F G H I J K L M N O P Q R S T U _ 2 % + ' ' ' + - - _ _ _ ' ",
"+ + V W X Y Z `  ...+.@.@.@.#.$.%.&.*.=.-.;.>.,.'.).!.~.+ + + + + % _ _ _ _ _ $ ",
"+ + {.].^./.(._.:.<.[.}.|.1.2.3.4.5.6.7.8.9.0.a.b.c.d.e.f.+ + + + + + + + - _ _ ",
"' + + + + % % _ [ [ [ [ k g.g.k k h.i.+ ' j.k.l.m.n.o.p.q.+ + + + + + + % - _ - ",
"( @ + + + _ _ [ k k k 6 6 6 6 6 6 6 [ + + + + + $ @ + + + + + + + + + 2 _ _ _ $ ",
"( @ + + + 2 2 [ [ k k 6 6 6 6 6 6 k [ r.; ' ' ; $ @ ' ' ' + + + + + + ^ 2 2 2 ; ",
"( @ + + + + + [ [ [ [ [ [ [ [ [ [ [ ( ( 5 $ $ $ $ $ $ $ $ ' + + + + + + + + + + ",
"( @ + + + + + [ f f f f f e e [ [ [ ( ( 5 $ $ $ $ $ $ $ $ ' + + + + + + + + + + ",
"r.' + + + + + e f f f f f e e [ [ [ [ r., ' ' ' ' ; $ ; ' + + + + + + + + + + + ",
"+ + + + + + + f f f f f f f [ [ [ [ [ + + + + + + ' $ ; + + + + + + + + + + + + ",
"_ _ _ 8   + + e [ [ [ [ [ [ [ [ [ [ + + + + + + $ $ $ ; + + + + + ' $ $ $ ' + + ",
"_ _ _ i ( + + [ [ + + + + [ [ [ [ [ + + + + + ' $ $ $ ; + + + + + ' $ $ $ ' + + ",
"_ r.( ( ( + + + ^ _ _ _ _ [ [ [ [ [ [ + + + ( ( ( ( ( b $ $ $ $ $ $ $ ; + + + _ ",
"2 .   < b + + + % 2 2 - _ _ _ % % ' + + , ; ( ( ( (   5 $ @ @ @ @ @ @ ' + + + 2 ",
"$ $ $ ' + + + + ; $ $ 2 _ _ _ _ ^ $ ; + < ( ( ( ( s.$ $ $ ' + + + + + + + + + $ ",
"$ @ ; + + + + + ' ; ; + % _ _ _ - % ' ; 5 b b b b i $ $ $ ; ; ; + + + + + + + ; ",
"$ ; + + + + + + + + + @ $ _ _ _ _ _ + $ $ $ $ $ $ $ $ $ $ $ $ $ + + + + + + + + "};
