/* XPM */
static char * 2_xpm[] = {
"40 40 148 2",
"  	c #1D2619",
". 	c #212B1D",
"+ 	c #232E20",
"@ 	c #202B1D",
"# 	c #1F2A1D",
"$ 	c #1F2A1C",
"% 	c #242F21",
"& 	c #242F20",
"* 	c #2A3626",
"= 	c #2C3828",
"- 	c #273224",
"; 	c #212C1E",
"> 	c #263223",
", 	c #222C1F",
"' 	c #222D1F",
") 	c #273223",
"! 	c #283424",
"~ 	c #2C3728",
"{ 	c #2B3627",
"] 	c #273324",
"^ 	c #253022",
"/ 	c #1F291C",
"( 	c #1C2518",
"_ 	c #283325",
": 	c #242E20",
"< 	c #1E271A",
"[ 	c #263123",
"} 	c #141412",
"| 	c #263122",
"1 	c #2A3526",
"2 	c #293426",
"3 	c #9B5A22",
"4 	c #BD9168",
"5 	c #1E291B",
"6 	c #70431C",
"7 	c #273124",
"8 	c #1F281B",
"9 	c #1D271A",
"0 	c #232D1F",
"a 	c #233219",
"b 	c #1E281A",
"c 	c #77B845",
"d 	c #253021",
"e 	c #5D8D38",
"f 	c #3F5D27",
"g 	c #232D20",
"h 	c #1E281B",
"i 	c #202A1C",
"j 	c #202A1D",
"k 	c #44280F",
"l 	c #242E21",
"m 	c #1F291B",
"n 	c #ECCBAC",
"o 	c #253023",
"p 	c #232E21",
"q 	c #281D12",
"r 	c #262C1E",
"s 	c #2A2E1F",
"t 	c #564029",
"u 	c #5C4229",
"v 	c #404238",
"w 	c #897A6F",
"x 	c #7E695B",
"y 	c #867266",
"z 	c #7F6A5D",
"A 	c #766052",
"B 	c #59381F",
"C 	c #583820",
"D 	c #55371F",
"E 	c #53351F",
"F 	c #51331E",
"G 	c #54341C",
"H 	c #52331B",
"I 	c #482C17",
"J 	c #342B1D",
"K 	c #754D2C",
"L 	c #4D321A",
"M 	c #3C2F1E",
"N 	c #1B2119",
"O 	c #A16C41",
"P 	c #DD955C",
"Q 	c #9E6940",
"R 	c #463621",
"S 	c #242C1E",
"T 	c #615C53",
"U 	c #CEBDB0",
"V 	c #A89588",
"W 	c #C2B0A3",
"X 	c #B8A599",
"Y 	c #C5A38E",
"Z 	c #AE6D38",
"` 	c #AF6F3D",
" .	c #B06F3D",
"..	c #B1703D",
"+.	c #AF703D",
"@.	c #975F33",
"#.	c #7F4E28",
"$.	c #B77A4C",
"%.	c #895832",
"&.	c #A46738",
"*.	c #4F2F16",
"=.	c #8E5B33",
"-.	c #DA9158",
";.	c #D99058",
">.	c #DE955D",
",.	c #8A5B36",
"'.	c #473823",
").	c #292F20",
"!.	c #2A3326",
"~.	c #33362C",
"{.	c #2F3329",
"].	c #36382E",
"^.	c #35372E",
"/.	c #382E27",
"(.	c #462A15",
"_.	c #603A1C",
":.	c #603A1D",
"<.	c #7A4720",
"[.	c #794720",
"}.	c #784620",
"|.	c #58636C",
"1.	c #70421E",
"2.	c #312015",
"3.	c #805330",
"4.	c #47301D",
"5.	c #4D351F",
"6.	c #241D15",
"7.	c #925D35",
"8.	c #D48D56",
"9.	c #A56838",
"0.	c #B77643",
"a.	c #D68E57",
"b.	c #D18C57",
"c.	c #79512E",
"d.	c #302C1C",
"e.	c #5C8EA5",
"f.	c #111111",
"g.	c #202B1E",
"h.	c #694526",
"i.	c #815735",
"j.	c #192218",
"k.	c #352B19",
"l.	c #382B19",
"m.	c #3D2E1A",
"n.	c #3B2C18",
"o.	c #2D2D1D",
"p.	c #212B1E",
"q.	c #1D2719",
"  . + + + + + + + + + @ # $ $ $ @ + + + % % % % % % % & + @ # $ $ @ + + + + + + ",
"+ + + + + + + + + + + + + $ $ $ @ + + + * = = = = = = - + + + + $ $ $ ; + + + + ",
"> > > , . + + + + + + + + ; @ @ ; + ' ' ) ! = = = ~ { ] ^ ' ' ' $ $ @ ' + + + + ",
"= = = / ( + + + + + + + + + + + + + ; $ $ $ = = = { _ _ _ ; $ $ $ @ + + + + + + ",
"= ) : < ( + + + % [ [ [ [ } } } } } } } } $ ^ | 1 2 _ _ _ ; $ $ % ^ [ [ [ % + [ ",
"= + ( ( ( + + + ^ _ _ _ } 3 3 3 3 4 4 3 3 } $ @ _ _ _ _ _ ; $ $ _ _ _ _ _ % + _ ",
"' @ 5 ; , + + + ' ; ; } 6 3 3 3 3 3 6 6 3 3 } - _ _ _ _ _ - [ 7 _ _ _ : 8 < 9 ; ",
"$ $ $ ' + + + + ; $ } 6 6 3 3 3 3 3 3 6 6 3 3 } _ _ _ _ _ _ _ _ _ _ _ 0 ( ( ( $ ",
"$ ; + + + + a a a a a 6 6 3 3 3 3 3 3 4 4 3 3 } _ [ + [ _ _ _ _ _ ^ ( b $ $ $ $ ",
"$ ; + + + + a c c c c 6 6 6 3 } a a a 6 6 a a } _ [ + [ _ _ _ _ _ ^ ( b $ $ $ $ ",
"+ d | | | | ^ a c e e c c 6 6 } f } } a a } } } _ - % [ - _ _ _ ^ g ( h @ @ @ @ ",
"= = = = = = * $ a c f f e c 6 } e } } f f } } } _ _ _ ^ + - _ _ ( ( ( i + + + + ",
"= = = = = d : b j } e f a k k } e e f e c a a } [ [ [ % + % % l b h i ; + + + ; ",
"= = = = = ( ( ( m + } a a k k } e e f e c a a } + + + + + @ $ $ $ @ + + + + + $ ",
"2 2 2 % + 5 m ; ' + } k k k k } e n f f f f f n } + + + + ' ' ' ' ' + + + / b   ",
"_ _ _ ; $ $ @ + + + + } } } a e n n f e e e n n } + + + + + + + + + + + + b ( ( ",
"_ _ _ _ _ _ _ _ ^ $ $ } 3 3 } a n 4 f a a a n 4 } [ + + + + + + + + + ; $ $ $ + ",
"_ _ _ _ _ _ _ - % $ } e e 3 3 6 a a a } } a 6 } _ [ + + + + + + + + + ; $ $ $ + ",
"+ [ _ _ _ _ - $ $ a e e e e 3 3 6 6 6 k k 6 3 } _ [ + [ _ _ _ _ _ - + + + + + + ",
"+ [ _ _ _ o ^ ' ' a e e e e 3 3 6 6 n 4 4 n 3 } _ - ^ - _ _ _ _ o ^ ' ' + % ^ ^ ",
"+ [ _ _ _ $ ; _ _ } f e e f 3 3 6 6 6 k k 6 3 } _ _ _ _ _ _ _ _ $ $ $ ; + - _ _ ",
"+ [ _ [ ^ % ^ _ _ _ } } a k 3 3 6 6 6 4 4 6 } [ _ _ _ _ _ % p + $ @ ; % [ - _ _ ",
"+ [ _ % + _ _ _ _ _ _ ' } 3 6 k q q q q q q r s _ _ t u [ ; $ $ $ @ + [ _ _ _ _ ",
"+ % % [ - _ _ v w x y z A B C D E F G H I J K L M N O P Q R S ' ' + - - _ _ _ ' ",
"+ + + - _ _ _ T U V W X Y Z `  .......+.@.#.$.%.&.*.=.-.;.>.,.'.).% _ _ _ _ _ $ ",
"+ + + + + + % !.~.{.].^./.(._.:.<.[.}.|.1.2.3.4.5.6.7.8.9.0.a.b.c.d.+ + + - _ _ ",
"' + + + + % % _ _ - - % } } } } k k e.e.k k f.g.+ ' h.i.j.k.l.m.n.o.+ + % - _ - ",
"( @ + + + _ _ _ ^ $ $ } k k k 6 6 6 6 6 6 6 } + $ @ + + + + + + + + + [ _ _ _ $ ",
"( @ + + + [ [ [ % @ @ } } k k 6 6 6 6 6 k } } } $ @ ' ' ' + + + + + + ^ [ [ [ ; ",
"( @ + + + + + + + + } } } } } } } } } } } } } } $ $ $ $ $ ' + + + + + + + + + + ",
"( @ + + + + + + + } f f e e } $ h ( ( } } } } } $ $ $ $ $ ' + + + + + + + + + + ",
"p.' + + + + + + } f f f f } + ' p.} } } } } } } ' ; $ ; ' + + + + + + + + + + + ",
"+ + + + + + + + } e f f } + + + ' } } } } } } } + ' $ ; + + + + + + + + + + + + ",
"_ _ _ 8   + + + } e f } + + + + + } } } } } } + $ $ $ ; + + + + + ' $ $ $ ' + + ",
"_ _ _ h ( + + + + } f e + + + + + } } + + + + ' $ $ $ ; + + + + + ' $ $ $ ' + + ",
"_ p.( ( ( + + + ^ _ _ _ _ _ _ + + + + + + + ( ( ( ( ( b $ $ $ $ $ $ $ ; + + + _ ",
"[ .   < b + + + % [ [ - _ _ _ % % ' + + , ; ( ( ( (   5 $ @ @ @ @ @ @ ' + + + [ ",
"$ $ $ ' + + + + ; $ $ [ _ _ _ _ ^ $ ; + < ( ( ( ( q.$ $ $ ' + + + + + + + + + $ ",
"$ @ ; + + + + + ' ; ; + % _ _ _ - % ' ; 5 b b b b h $ $ $ ; ; ; + + + + + + + ; ",
"$ ; + + + + + + + + + @ $ _ _ _ _ _ + $ $ $ $ $ $ $ $ $ $ $ $ $ + + + + + + + + "};
