/* XPM */
static char * 3_xpm[] = {
"40 40 143 2",
"  	c #1D2619",
". 	c #212B1D",
"+ 	c #232E20",
"@ 	c #202B1D",
"# 	c #1F2A1D",
"$ 	c #1F2A1C",
"% 	c #242F21",
"& 	c #242F20",
"* 	c #2A3626",
"= 	c #2C3828",
"- 	c #273224",
"; 	c #212C1E",
"> 	c #263223",
", 	c #222C1F",
"' 	c #222D1F",
") 	c #273223",
"! 	c #283424",
"~ 	c #2C3728",
"{ 	c #2B3627",
"] 	c #273324",
"^ 	c #253022",
"/ 	c #1F291C",
"( 	c #1C2518",
"_ 	c #283325",
": 	c #242E20",
"< 	c #1E271A",
"[ 	c #263123",
"} 	c #141412",
"| 	c #9B5A22",
"1 	c #BD9168",
"2 	c #1E291B",
"3 	c #70431C",
"4 	c #273124",
"5 	c #1F281B",
"6 	c #1D271A",
"7 	c #232D1F",
"8 	c #233219",
"9 	c #1E281A",
"0 	c #77B845",
"a 	c #253021",
"b 	c #263122",
"c 	c #5D8D38",
"d 	c #3F5D27",
"e 	c #232D20",
"f 	c #1E281B",
"g 	c #202A1C",
"h 	c #202A1D",
"i 	c #44280F",
"j 	c #242E21",
"k 	c #1F291B",
"l 	c #293426",
"m 	c #222C1E",
"n 	c #ECCBAC",
"o 	c #253023",
"p 	c #232E21",
"q 	c #281D12",
"r 	c #22291A",
"s 	c #262A1A",
"t 	c #543E27",
"u 	c #5C4228",
"v 	c #263023",
"w 	c #3E3F36",
"x 	c #897A6F",
"y 	c #7E695B",
"z 	c #867267",
"A 	c #7F6A5D",
"B 	c #765F51",
"C 	c #5A391F",
"D 	c #583820",
"E 	c #55371F",
"F 	c #53351F",
"G 	c #56351D",
"H 	c #54341C",
"I 	c #52331B",
"J 	c #3F2E1D",
"K 	c #33281B",
"L 	c #754C2B",
"M 	c #4C3119",
"N 	c #3C2E1D",
"O 	c #191F17",
"P 	c #A16C41",
"Q 	c #DD955C",
"R 	c #9E6A40",
"S 	c #483924",
"T 	c #293224",
"U 	c #605B52",
"V 	c #CEBDB0",
"W 	c #A89588",
"X 	c #C2B0A3",
"Y 	c #B8A599",
"Z 	c #C5A38E",
"` 	c #AE6D38",
" .	c #AF6F3D",
"..	c #B06F3D",
"+.	c #B1703D",
"@.	c #AF703D",
"#.	c #975F33",
"$.	c #7F4E28",
"%.	c #B77A4C",
"&.	c #895832",
"*.	c #A46738",
"=.	c #4F2F16",
"-.	c #8E5B33",
";.	c #DA9158",
">.	c #D99058",
",.	c #DE955D",
"'.	c #8B5C36",
").	c #463520",
"!.	c #252F22",
"~.	c #31332A",
"{.	c #2C3026",
"].	c #34352C",
"^.	c #302D29",
"/.	c #493427",
"(.	c #603A1C",
"_.	c #7B481F",
":.	c #7A4720",
"<.	c #794720",
"[.	c #58656F",
"}.	c #764620",
"|.	c #3E2819",
"1.	c #34281A",
"2.	c #805330",
"3.	c #47301D",
"4.	c #4D351F",
"5.	c #241D15",
"6.	c #925D35",
"7.	c #D48D56",
"8.	c #A56838",
"9.	c #B77643",
"0.	c #D68E57",
"a.	c #D18C57",
"b.	c #5C8EA5",
"c.	c #1F291D",
"d.	c #202B1E",
"e.	c #694526",
"f.	c #815735",
"g.	c #1A2219",
"h.	c #372D1C",
"i.	c #3A2E1C",
"j.	c #3E301C",
"k.	c #212B1E",
"l.	c #1D2719",
"  . + + + + + + + + + @ # $ $ $ @ + + + % % % % % % % & + @ # $ $ @ + + + + + + ",
"+ + + + + + + + + + + + + $ $ $ @ + + + * = = = = = = - + + + + $ $ $ ; + + + + ",
"> > > , . + + + + + + + + ; @ @ ; + ' ' ) ! = = = ~ { ] ^ ' ' ' $ $ @ ' + + + + ",
"= = = / ( + + + + + + + + + + + + + ; $ $ $ = = = { _ _ _ ; $ $ $ @ + + + + + + ",
"= ) : < ( + + + % [ [ [ [ + + + + + ' ; } } } } } } } } _ ; $ $ % ^ [ [ [ % + [ ",
"= + ( ( ( + + + ^ _ _ _ _ + + + + + + } | | | | 1 1 | | } ; $ $ _ _ _ _ _ % + _ ",
"' @ 2 ; , + + + ' ; ; [ _ - - + + + } 3 | | | | | 3 3 | | } [ 4 _ _ _ : 5 < 6 ; ",
"$ $ $ ' + + + + ; $ $ [ _ _ _ + + } 3 3 | | | | | | 3 3 | | } _ _ _ _ 7 ( ( ( $ ",
"$ ; + + + + + + + + + @ $ 8 8 8 8 8 3 3 | | | | | | 1 1 | | } _ _ ^ ( 9 $ $ $ $ ",
"$ ; + + + + + + + + + @ $ 8 0 0 0 0 3 3 3 | } 8 8 8 3 3 8 8 } _ _ ^ ( 9 $ $ $ $ ",
"+ a b b b b ^ ' ' + + ; @ - 8 0 c c 0 0 3 3 } d } } 8 8 } } } _ ^ e ( f @ @ @ @ ",
"= = = = = = * $ ; + + + + + + 8 0 d d c 0 3 } c } } d d } } } _ ( ( ( g + + + + ",
"= = = = = a : 9 h + + + + + + g } c d 8 i i } c c d c 0 8 8 } j 9 f g ; + + + ; ",
"= = = = = ( ( ( k + + + + + ' ( ( } 8 8 i i } c c d c 0 8 8 } $ $ @ + + + + + $ ",
"l l l % + 2 k ; ' + + + + f 9 2 m } i i i i } c n d d d d d n } ' ' + + + / 9   ",
"_ _ _ ; $ $ @ + + + + + + ( ( $ & = } } } 8 c n n d c c c n n } + + + + + 9 ( ( ",
"_ _ _ _ _ _ _ _ ^ $ $ ' + + + + + + } | | } 8 n 1 d 8 8 8 n 1 } + + + ; $ $ $ + ",
"_ _ _ _ _ _ _ - % $ $ ' + + + + + } c c | | 3 8 8 8 } } 8 3 } + + + + ; $ $ $ + ",
"+ [ _ _ _ _ - $ $ $ $ ' + + + + 8 c c c c | | 3 3 3 i i 3 | } _ _ - + + + + + + ",
"+ [ _ _ _ o ^ ' ' ' ' % ^ + + ^ 8 c c c c | | 3 3 n 1 1 n | } _ o ^ ' ' + % ^ ^ ",
"+ [ _ _ _ $ ; _ _ _ _ _ _ + + _ } d c c d | | 3 3 3 i i 3 | } _ $ $ $ ; + - _ _ ",
"+ [ _ [ ^ % ^ _ _ _ _ ^ p ; ; ^ [ } } 8 i | | 3 3 3 1 1 3 } p + $ @ ; % [ - _ _ ",
"+ [ _ % + _ _ _ _ _ _ ' $ $ $ + ^ _ _ } | 3 i q q q q q q ; r s $ @ t u [ _ _ _ ",
"+ % % [ - _ _ _ v ; ; @ $ ' ' w x y z A B C D E F G H I J K L M N O P Q R S T ' ",
"+ + + - _ _ _ _ ^ $ $ $ $ + + U V W X Y Z `  ...+.+.+.@.#.$.%.&.*.=.-.;.>.,.'.).",
"+ + + + + + % _ _ _ _ % + + + !.~.{.].^./.(.(._.:.<.[.}.|.1.2.3.4.5.6.7.8.9.0.a.",
"' + + + + % % _ _ - - % + + + + + + + } } } } i i b.b.i i } c.d.+ ' e.f.g.h.i.j.",
"( @ + + + _ _ _ ^ $ $ ' + + + + + + } i i i 3 3 3 3 3 3 3 i } + + + + [ _ _ _ $ ",
"( @ + + + [ [ [ % @ @ ' + + + ' ; k.} } i i 3 3 3 3 3 3 i } } + + + + ^ [ [ [ ; ",
"( @ + + + + + + + + + + + + + $ f } } } } } } } } } } } } } } + + + + + + + + + ",
"( @ + + + + + + + + + + + + + $ } } } } } } $ $ $ } d c c } + + + + + + + + + + ",
"k.' + + + + + + + + + + + + + } } } } } } ' ' } } d d d d } + + + + + + + + + + ",
"+ + + + + + + + + + + + + + + } } } } } + + + } c d d d } + + + + + + + + + + + ",
"_ _ _ 5   + + + + + + + + + + } } } } + + + + } c d d } + + + + + ' $ $ $ ' + + ",
"_ _ _ f ( + + + + + + + + + + + } } } + + + + ' } d c ; + + + + + ' $ $ $ ' + + ",
"_ k.( ( ( + + + ^ _ _ _ _ _ _ + + + + + + + ( ( ( ( ( 9 $ $ $ $ $ $ $ ; + + + _ ",
"[ .   < 9 + + + % [ [ - _ _ _ % % ' + + , ; ( ( ( (   2 $ @ @ @ @ @ @ ' + + + [ ",
"$ $ $ ' + + + + ; $ $ [ _ _ _ _ ^ $ ; + < ( ( ( ( l.$ $ $ ' + + + + + + + + + $ ",
"$ @ ; + + + + + ' ; ; + % _ _ _ - % ' ; 2 9 9 9 9 f $ $ $ ; ; ; + + + + + + + ; ",
"$ ; + + + + + + + + + @ $ _ _ _ _ _ + $ $ $ $ $ $ $ $ $ $ $ $ $ + + + + + + + + "};
