/* XPM */
static char * 4_xpm[] = {
"40 40 147 2",
"  	c #1D2619",
". 	c #212B1D",
"+ 	c #232E20",
"@ 	c #202B1D",
"# 	c #1F2A1D",
"$ 	c #1F2A1C",
"% 	c #242F21",
"& 	c #242F20",
"* 	c #2A3626",
"= 	c #2C3828",
"- 	c #273224",
"; 	c #212C1E",
"> 	c #263223",
", 	c #222C1F",
"' 	c #222D1F",
") 	c #273223",
"! 	c #283424",
"~ 	c #2C3728",
"{ 	c #2B3627",
"] 	c #273324",
"^ 	c #253022",
"/ 	c #1F291C",
"( 	c #1C2518",
"_ 	c #141412",
": 	c #283325",
"< 	c #242E20",
"[ 	c #1E271A",
"} 	c #263123",
"| 	c #9B5A22",
"1 	c #BD9168",
"2 	c #70431C",
"3 	c #1E291B",
"4 	c #273124",
"5 	c #1F281B",
"6 	c #1D271A",
"7 	c #233219",
"8 	c #232D1F",
"9 	c #77B845",
"0 	c #1E281A",
"a 	c #5D8D38",
"b 	c #3F5D27",
"c 	c #253021",
"d 	c #263122",
"e 	c #232D20",
"f 	c #1E281B",
"g 	c #44280F",
"h 	c #202A1C",
"i 	c #202A1D",
"j 	c #242E21",
"k 	c #1F291B",
"l 	c #ECCBAC",
"m 	c #293426",
"n 	c #253023",
"o 	c #232E21",
"p 	c #281D12",
"q 	c #2A3123",
"r 	c #2D3223",
"s 	c #533D25",
"t 	c #5B3F25",
"u 	c #263023",
"v 	c #3D3E34",
"w 	c #89796F",
"x 	c #7E695B",
"y 	c #867266",
"z 	c #7F6A5D",
"A 	c #766152",
"B 	c #5C3A1E",
"C 	c #643E22",
"D 	c #623E21",
"E 	c #714522",
"F 	c #724421",
"G 	c #734521",
"H 	c #595F66",
"I 	c #70421E",
"J 	c #301F15",
"K 	c #754D2B",
"L 	c #4C311A",
"M 	c #3C2F1E",
"N 	c #191F16",
"O 	c #A16C41",
"P 	c #DD955C",
"Q 	c #9E6940",
"R 	c #473824",
"S 	c #283123",
"T 	c #605A52",
"U 	c #CEBDB0",
"V 	c #A89588",
"W 	c #C2B0A3",
"X 	c #B8A599",
"Y 	c #C5A38E",
"Z 	c #AE6D38",
"` 	c #AF6F3D",
" .	c #B06F3D",
"..	c #B1703D",
"+.	c #AF703D",
"@.	c #975F33",
"#.	c #7F4E28",
"$.	c #B77A4C",
"%.	c #895832",
"&.	c #A46738",
"*.	c #4F2F16",
"=.	c #8E5B33",
"-.	c #DA9158",
";.	c #D99058",
">.	c #DE955D",
",.	c #8B5C36",
"'.	c #493B26",
").	c #2D3324",
"!.	c #252F22",
"~.	c #31332A",
"{.	c #2C3026",
"].	c #34352C",
"^.	c #35362E",
"/.	c #382E27",
"(.	c #352217",
"_.	c #382417",
":.	c #3B2618",
"<.	c #4B2E18",
"[.	c #4D2F19",
"}.	c #58656F",
"|.	c #58636C",
"1.	c #492D18",
"2.	c #3D2514",
"3.	c #7F5230",
"4.	c #47301D",
"5.	c #4D351F",
"6.	c #241D15",
"7.	c #925D35",
"8.	c #D48D56",
"9.	c #A56838",
"0.	c #B77643",
"a.	c #D68E57",
"b.	c #D18C57",
"c.	c #79512F",
"d.	c #333020",
"e.	c #111111",
"f.	c #202B1E",
"g.	c #694526",
"h.	c #815735",
"i.	c #192218",
"j.	c #352B19",
"k.	c #382B19",
"l.	c #3D2F1B",
"m.	c #3C2E1B",
"n.	c #303121",
"o.	c #212B1E",
"p.	c #1D2719",
"  . + + + + + + + + + @ # $ $ $ @ + + + % % % % % % % & + @ # $ $ @ + + + + + + ",
"+ + + + + + + + + + + + + $ $ $ @ + + + * = = = = = = - + + + + $ $ $ ; + + + + ",
"> > > , . + + + + + + + + ; @ @ ; + ' ' ) ! = = = ~ { ] ^ ' ' ' $ $ @ ' + + + + ",
"= = = / ( + + + + + + + + + + + + + _ _ _ _ _ _ _ _ : : : ; $ $ $ @ + + + + + + ",
"= ) < [ ( + + + % } } } } + + + + _ | | | | 1 1 | | _ : : ; $ $ % ^ } } } % + } ",
"= + ( ( ( + + + ^ : : : : + + + _ 2 | | | | | 2 2 | | _ : ; $ $ : : : : : % + : ",
"' @ 3 ; , + + + ' ; ; } : - - _ 2 2 | | | | | | 2 2 | | _ - } 4 : : : < 5 [ 6 ; ",
"$ $ $ ' + + + + ; $ $ 7 7 7 7 7 2 2 | | | | | | 1 1 | | _ : : : : : : 8 ( ( ( $ ",
"$ ; + + + + + + + + + 7 9 9 9 9 2 2 2 | _ 7 7 7 2 2 7 7 _ : : : : ^ ( 0 $ $ $ $ ",
"$ ; + + + + + + + + + @ 7 9 a a 9 9 2 2 _ b _ _ 7 7 _ _ _ : : : : ^ ( 0 $ $ $ $ ",
"+ c d d d d ^ ' ' + + ; @ 7 9 b b a 9 2 _ a _ _ b b _ _ _ : : : ^ e ( f @ @ @ @ ",
"= = = = = = * $ ; + + + + + _ a b 7 g g _ a a b a 9 7 7 _ - : : ( ( ( h + + + + ",
"= = = = = c < 0 i + + + + + + _ 7 7 g g _ a a b a 9 7 7 _ % % j 0 f h ; + + + ; ",
"= = = = = ( ( ( k + + + + + ' _ g g g g _ a l b b b b b l _ $ $ $ @ + + + + + $ ",
"m m m % + 3 k ; ' + + + + f 0 3 _ _ _ 7 a l l b a a a l l _ ' ' ' ' + + + / 0   ",
": : : ; $ $ @ + + + + + + ( ( _ | | g _ 7 l 1 b 7 7 7 l 1 _ + + + + + + + 0 ( ( ",
": : : : : : : : ^ $ $ ' + + _ a a | | 2 g 7 7 7 _ _ 7 2 _ _ + + + + + ; $ $ $ + ",
": : : : : : : - % $ $ ' + 7 a a a a | | 2 2 2 2 g g 2 | _ _ + + + + + ; $ $ $ + ",
"+ } : : : : - $ $ $ $ ' + 7 a a a a | | 2 2 2 l 1 1 l | _ _ : : : - + + + + + + ",
"+ } : : : n ^ ' ' ' ' % ^ _ b a a b | | 2 2 2 2 g g 2 | _ _ : : n ^ ' ' + % ^ ^ ",
"+ } : : : $ ; : : : : : : + _ _ 7 g | | 2 2 2 2 1 1 2 _ _ : : : $ $ $ ; + - : : ",
"+ } : } ^ % ^ : : : : ^ o ; ; ^ _ | 2 g p p p p p p p : : % o + $ @ ; % } - : : ",
"+ } : % + : : : : : : ' $ $ h + ^ _ p p p p p g g g : q r ; $ s t / + } : : : : ",
"+ % % } - : : : u ; ; @ v w x y z A B C D E F G H I J K L M N O P Q R S : : : ' ",
"+ + + - : : : : ^ $ $ $ T U V W X Y Z `  .......+.@.#.$.%.&.*.=.-.;.>.,.'.).: $ ",
"+ + + + + + % : : : : % !.~.{.].^./.(._.:.<.[.}.|.1.2.3.4.5.6.7.8.9.0.a.b.c.d.: ",
"' + + + + % % : : - - % + + + + _ g g g 2 2 2 2 2 2 2 e.f.+ ' g.h.i.j.k.l.m.n.- ",
"( @ + + + : : : ^ $ $ ' + + + + _ _ g g 2 2 2 2 2 2 g _ + + + + + + + } : : : $ ",
"( @ + + + } } } % @ @ ' + + + ' _ _ _ _ _ _ _ _ _ _ _ _ ' + + + + + + ^ } } } ; ",
"( @ + + + + + + + + + + + + + $ _ _ _ _ _ _ _ b a a _ $ $ ' + + + + + + + + + + ",
"( @ + + + + + + + + + + + + + $ _ _ _ _ _ _ _ b a a _ $ $ ' + + + + + + + + + + ",
"o.' + + + + + + + + + + + + + ' _ _ _ _ _ ' _ b b b _ ; ' + + + + + + + + + + + ",
"+ + + + + + + + + + + + + + + + _ _ _ _ _ + _ b b b _ ; + + + + + + + + + + + + ",
": : : 5   + + + + + + + + + + + _ _ + + + + _ b b b _ ; + + + + + ' $ $ $ ' + + ",
": : : f ( + + + + + + + + + + + + + + + + + _ a a b a _ + + + + + ' $ $ $ ' + + ",
": o.( ( ( + + + ^ : : : : : : + + + + + + + ( ( ( ( ( 0 $ $ $ $ $ $ $ ; + + + : ",
"} .   [ 0 + + + % } } - : : : % % ' + + , ; ( ( ( (   3 $ @ @ @ @ @ @ ' + + + } ",
"$ $ $ ' + + + + ; $ $ } : : : : ^ $ ; + [ ( ( ( ( p.$ $ $ ' + + + + + + + + + $ ",
"$ @ ; + + + + + ' ; ; + % : : : - % ' ; 3 0 0 0 0 f $ $ $ ; ; ; + + + + + + + ; ",
"$ ; + + + + + + + + + @ $ : : : : : + $ $ $ $ $ $ $ $ $ $ $ $ $ + + + + + + + + "};
