/* XPM */
static char * 5_xpm[] = {
"40 40 150 2",
"  	c #1D2619",
". 	c #212B1D",
"+ 	c #232E20",
"@ 	c #202B1D",
"# 	c #1F2A1D",
"$ 	c #1F2A1C",
"% 	c #242F21",
"& 	c #242F20",
"* 	c #2A3626",
"= 	c #2C3828",
"- 	c #273224",
"; 	c #212C1E",
"> 	c #263223",
", 	c #222C1F",
"' 	c #222D1F",
") 	c #273223",
"! 	c #283424",
"~ 	c #2C3728",
"{ 	c #2B3627",
"] 	c #273324",
"^ 	c #253022",
"/ 	c #1F291C",
"( 	c #1C2518",
"_ 	c #283325",
": 	c #242E20",
"< 	c #1E271A",
"[ 	c #263123",
"} 	c #263122",
"| 	c #2A3526",
"1 	c #293426",
"2 	c #141412",
"3 	c #1E291B",
"4 	c #9B5A22",
"5 	c #BD9168",
"6 	c #273124",
"7 	c #1F281B",
"8 	c #1D271A",
"9 	c #70431C",
"0 	c #232D1F",
"a 	c #1E281A",
"b 	c #233219",
"c 	c #253021",
"d 	c #77B845",
"e 	c #232D20",
"f 	c #1E281B",
"g 	c #5D8D38",
"h 	c #3F5D27",
"i 	c #202A1C",
"j 	c #202A1D",
"k 	c #242E21",
"l 	c #1F291B",
"m 	c #44280F",
"n 	c #ECCBAC",
"o 	c #253023",
"p 	c #232E21",
"q 	c #263023",
"r 	c #281D12",
"s 	c #2A1D11",
"t 	c #2B3021",
"u 	c #553F27",
"v 	c #5B4126",
"w 	c #202B1E",
"x 	c #3D3E34",
"y 	c #89796F",
"z 	c #7E685B",
"A 	c #867266",
"B 	c #7F6A5D",
"C 	c #766152",
"D 	c #593B21",
"E 	c #573720",
"F 	c #55371F",
"G 	c #53351F",
"H 	c #51331E",
"I 	c #4F311C",
"J 	c #52331B",
"K 	c #482C17",
"L 	c #3F2614",
"M 	c #754C2B",
"N 	c #4C321A",
"O 	c #3E3121",
"P 	c #1B2118",
"Q 	c #A16C41",
"R 	c #DD955C",
"S 	c #9E6940",
"T 	c #463621",
"U 	c #252D1F",
"V 	c #615C53",
"W 	c #CEBDB0",
"X 	c #A89588",
"Y 	c #C2B0A3",
"Z 	c #B8A599",
"` 	c #C5A38E",
" .	c #AE6D38",
"..	c #AF6F3D",
"+.	c #B06F3D",
"@.	c #B1703D",
"#.	c #AF703D",
"$.	c #975F33",
"%.	c #7F4E28",
"&.	c #B77A4C",
"*.	c #895832",
"=.	c #A46738",
"-.	c #4F2F16",
";.	c #8E5B33",
">.	c #DA9158",
",.	c #D99058",
"'.	c #DE955D",
").	c #8A5B36",
"!.	c #473823",
"~.	c #292F20",
"{.	c #293225",
"].	c #32352C",
"^.	c #2D3126",
"/.	c #34352C",
"(.	c #35362E",
"_.	c #3C372C",
":.	c #352217",
"<.	c #482C16",
"[.	c #603A1D",
"}.	c #613A1D",
"|.	c #794720",
"1.	c #784620",
"2.	c #764620",
"3.	c #515F69",
"4.	c #673C1B",
"5.	c #7F5230",
"6.	c #47301D",
"7.	c #4D351F",
"8.	c #241D15",
"9.	c #925D35",
"0.	c #D48D56",
"a.	c #A56838",
"b.	c #B77643",
"c.	c #D68E57",
"d.	c #D18C57",
"e.	c #79512E",
"f.	c #302C1C",
"g.	c #5C8EA5",
"h.	c #3D230E",
"i.	c #131412",
"j.	c #694526",
"k.	c #815735",
"l.	c #192218",
"m.	c #352B19",
"n.	c #382B19",
"o.	c #3D2E1A",
"p.	c #3B2C18",
"q.	c #2F2F20",
"r.	c #212B1E",
"s.	c #1D2719",
"  . + + + + + + + + + @ # $ $ $ @ + + + % % % % % % % & + @ # $ $ @ + + + + + + ",
"+ + + + + + + + + + + + + $ $ $ @ + + + * = = = = = = - + + + + $ $ $ ; + + + + ",
"> > > , . + + + + + + + + ; @ @ ; + ' ' ) ! = = = ~ { ] ^ ' ' ' $ $ @ ' + + + + ",
"= = = / ( + + + + + + + + + + + + + ; $ $ $ = = = { _ _ _ ; $ $ $ @ + + + + + + ",
"= ) : < ( + + + % [ [ [ [ + + + + + ' ; @ $ ^ } | 1 _ _ _ ; $ $ % ^ [ [ [ % + [ ",
"= + ( ( ( + + + ^ _ _ _ _ + + + 2 2 2 2 2 2 2 2 _ _ _ _ _ ; $ $ _ _ _ _ _ % + _ ",
"' @ 3 ; , + + + ' ; ; [ _ - - 2 4 4 4 4 5 5 4 4 2 _ _ _ _ - [ 6 _ _ _ : 7 < 8 ; ",
"$ $ $ ' + + + + ; $ $ [ _ _ 2 9 4 4 4 4 4 9 9 4 4 2 _ _ _ _ _ _ _ _ _ 0 ( ( ( $ ",
"$ ; + + + + + + + + + @ $ 2 9 9 4 4 4 4 4 4 9 9 4 4 2 [ _ _ _ _ _ ^ ( a $ $ $ $ ",
"$ ; + + + + + + + b b b b b 9 9 4 4 4 4 4 4 5 5 4 4 2 [ _ _ _ _ _ ^ ( a $ $ $ $ ",
"+ c } } } } ^ ' ' b d d d d 9 9 9 4 2 b b b 9 9 b b 2 [ - _ _ _ ^ e ( f @ @ @ @ ",
"= = = = = = * $ ; + b d g g d d 9 9 2 h 2 2 b b 2 2 2 ^ + - _ _ ( ( ( i + + + + ",
"= = = = = c : a j + + b d h h g d 9 2 g 2 2 h h 2 2 2 % + % % k a f i ; + + + ; ",
"= = = = = ( ( ( l + + + 2 g h b m m 2 g g h g d b b 2 + + @ $ $ $ @ + + + + + $ ",
"1 1 1 % + 3 l ; ' + + + + 2 b b m m 2 g g h g d b b 2 + + ' ' ' ' ' + + + / a   ",
"_ _ _ ; $ $ @ + + + + + + 2 m m m m 2 g n h h h h h n 2 + + + + + + + + + a ( ( ",
"_ _ _ _ _ _ _ _ ^ $ $ ' + + 2 2 2 b g n n h g g g n n 2 + + + + + + + ; $ $ $ + ",
"_ _ _ _ _ _ _ - % $ $ ' + + 2 4 4 2 b n 5 h b b b n 5 2 + + + + + + + ; $ $ $ + ",
"+ [ _ _ _ _ - $ $ $ $ ' + 2 g g 4 4 9 b b b 2 2 b 9 2 [ _ _ _ _ _ - + + + + + + ",
"+ [ _ _ _ o ^ ' ' ' ' % b g g g g 4 4 9 9 9 m m 9 4 2 - _ _ _ _ o ^ ' ' + % ^ ^ ",
"+ [ _ _ _ $ ; _ _ _ _ _ b g g g g 4 4 9 9 n 5 5 n 4 2 _ _ _ _ _ $ $ $ ; + - _ _ ",
"+ [ _ [ ^ % ^ _ _ _ _ ^ 2 h g g h 4 4 9 9 9 m m 9 4 2 _ _ % p + $ @ ; % [ - _ _ ",
"+ [ _ % + _ _ _ _ _ _ ' $ 2 2 b m 4 4 9 9 9 5 5 9 2 _ _ _ ; $ $ $ @ + [ _ _ _ _ ",
"+ % % [ - _ _ _ q ; ; . $ ' ' 2 4 9 m r r r r r s t _ [ u v w ' ' + - - _ _ _ ' ",
"+ + + - _ _ _ _ ^ x y z A B C D E F G H I J K L M N O P Q R S T U % _ _ _ _ _ $ ",
"+ + + + + + % _ _ V W X Y Z `  ...+.@.@.@.#.$.%.&.*.=.-.;.>.,.'.).!.~.+ + - _ _ ",
"' + + + + % % _ _ {.].^./.(._.:.<.[.}.|.1.2.3.4.5.6.7.8.9.0.a.b.c.d.e.f.% - _ - ",
"( @ + + + _ _ _ ^ $ $ ' + + + 2 2 2 2 m g.g.g.m h.i.+ ' j.k.l.m.n.o.p.q._ _ _ $ ",
"( @ + + + [ [ [ % @ @ ' + + 2 m m m 9 9 9 9 9 9 9 2 ' ' ' + + + + + + ^ [ [ [ ; ",
"( @ + + + + + + + + + + + + 2 m m m 9 9 9 9 9 9 9 m 2 $ $ ' + + + + + + + + + + ",
"( @ + + + + + + + + + + + + 2 2 2 2 2 2 2 2 2 2 2 2 2 $ $ ' + + + + + + + + + + ",
"r.' + + + + + + + + + + + + 2 h h h b 2 , ' 2 b h h 2 ; ' + + + + + + + + + + + ",
"+ + + + + + + + + + + + + 2 b h h h 2 + + + 2 h h h 2 ; + + + + + + + + + + + + ",
"_ _ _ 7   + + + + + + + + 2 h h h 2 + + + + 2 h h h b 2 + + + + + ' $ $ $ ' + + ",
"_ _ _ f ( + + + + + + + 2 g h g g 2 + + + + 2 h g g h g 2 + + + + ' $ $ $ ' + + ",
"_ r.( ( ( + + + ^ _ _ _ _ _ _ + + + + + + + ( ( ( ( ( a $ $ $ $ $ $ $ ; + + + _ ",
"[ .   < a + + + % [ [ - _ _ _ % % ' + + , ; ( ( ( (   3 $ @ @ @ @ @ @ ' + + + [ ",
"$ $ $ ' + + + + ; $ $ [ _ _ _ _ ^ $ ; + < ( ( ( ( s.$ $ $ ' + + + + + + + + + $ ",
"$ @ ; + + + + + ' ; ; + % _ _ _ - % ' ; 3 a a a a f $ $ $ ; ; ; + + + + + + + ; ",
"$ ; + + + + + + + + + @ $ _ _ _ _ _ + $ $ $ $ $ $ $ $ $ $ $ $ $ + + + + + + + + "};
