/* XPM */
static char * _1_xpm[] = {
"40 40 282 2",
"  	c #1D2619",
". 	c #212B1D",
"+ 	c #232E20",
"@ 	c #202B1D",
"# 	c #1F2A1D",
"$ 	c #1F2A1C",
"% 	c #242F21",
"& 	c #242F20",
"* 	c #2A3626",
"= 	c #2C3828",
"- 	c #273224",
"; 	c #212C1E",
"> 	c #263223",
", 	c #222C1F",
"' 	c #222D1F",
") 	c #273223",
"! 	c #283424",
"~ 	c #2C3728",
"{ 	c #2B3627",
"] 	c #273324",
"^ 	c #253022",
"/ 	c #1F291C",
"( 	c #1C2518",
"_ 	c #283325",
": 	c #242E20",
"< 	c #1E271A",
"[ 	c #263123",
"} 	c #263122",
"| 	c #2A3526",
"1 	c #293426",
"2 	c #1E291B",
"3 	c #273124",
"4 	c #1F281B",
"5 	c #1D271A",
"6 	c #232D1F",
"7 	c #1E281A",
"8 	c #22291A",
"9 	c #222919",
"0 	c #262D1E",
"a 	c #272E1F",
"b 	c #283324",
"c 	c #253021",
"d 	c #443F1D",
"e 	c #665C24",
"f 	c #695E24",
"g 	c #4A451E",
"h 	c #46411E",
"i 	c #262B1E",
"j 	c #232D20",
"k 	c #1E281B",
"l 	c #242B1C",
"m 	c #786C2A",
"n 	c #908030",
"o 	c #928230",
"p 	c #7C6F2B",
"q 	c #7A6D2A",
"r 	c #4A431E",
"s 	c #252A1E",
"t 	c #202A1C",
"u 	c #202A1D",
"v 	c #1E261B",
"w 	c #5D5424",
"x 	c #8E7F2F",
"y 	c #24291C",
"z 	c #242E21",
"A 	c #1F291B",
"B 	c #272919",
"C 	c #4D4922",
"D 	c #504B23",
"E 	c #7B6E2B",
"F 	c #908130",
"G 	c #80722C",
"H 	c #716426",
"I 	c #6F6325",
"J 	c #7D702B",
"K 	c #2B2715",
"L 	c #161714",
"M 	c #35381F",
"N 	c #373A20",
"O 	c #4E4923",
"P 	c #736627",
"Q 	c #4D461F",
"R 	c #1D1B13",
"S 	c #141412",
"T 	c #453F1D",
"U 	c #322D16",
"V 	c #36391F",
"W 	c #75692A",
"X 	c #706426",
"Y 	c #282414",
"Z 	c #8D7E2F",
"` 	c #161713",
" .	c #4B4722",
"..	c #8C7D2E",
"+.	c #1B2318",
"@.	c #116691",
"#.	c #142633",
"$.	c #796C2A",
"%.	c #2C2815",
"&.	c #151713",
"*.	c #4C4822",
"=.	c #393B20",
"-.	c #8D7D2F",
";.	c #3B3025",
">.	c #161514",
",.	c #18272F",
"'.	c #1574A2",
").	c #142A39",
"!.	c #1573A1",
"~.	c #183647",
"{.	c #5B5326",
"].	c #232014",
"^.	c #252F22",
"/.	c #253023",
"(.	c #292B1A",
"_.	c #5E5525",
":.	c #5F5625",
"<.	c #4E4A23",
"[.	c #433232",
"}.	c #181517",
"|.	c #182A33",
"1.	c #192C35",
"2.	c #141717",
"3.	c #4D4925",
"4.	c #1F1E14",
"5.	c #263023",
"6.	c #20271D",
"7.	c #151613",
"8.	c #46401E",
"9.	c #4F4A22",
"0.	c #3F2D31",
"a.	c #42223F",
"b.	c #291A28",
"c.	c #332E28",
"d.	c #191815",
"e.	c #161814",
"f.	c #272819",
"g.	c #282A19",
"h.	c #5C5425",
"i.	c #4D412C",
"j.	c #5D3059",
"k.	c #4D274B",
"l.	c #442341",
"m.	c #65225F",
"n.	c #672261",
"o.	c #4E264B",
"p.	c #1E161C",
"q.	c #232E21",
"r.	c #272E20",
"s.	c #635822",
"t.	c #6C6228",
"u.	c #6D6328",
"v.	c #3E3F21",
"w.	c #775F49",
"x.	c #62355B",
"y.	c #5F2E5C",
"z.	c #8F2D88",
"A.	c #932D8B",
"B.	c #652E61",
"C.	c #231821",
"D.	c #1F271D",
"E.	c #232A1B",
"F.	c #655B24",
"G.	c #8F7F2F",
"H.	c #716629",
"I.	c #4F4B23",
"J.	c #8E7E2F",
"K.	c #7C634A",
"L.	c #7A604C",
"M.	c #7E4669",
"N.	c #7F436C",
"O.	c #915D6D",
"P.	c #93606D",
"Q.	c #7C6050",
"R.	c #2B231D",
"S.	c #1D241A",
"T.	c #222D20",
"U.	c #242717",
"V.	c #655B26",
"W.	c #252818",
"X.	c #554F24",
"Y.	c #49431F",
"Z.	c #6E6326",
"`.	c #716526",
" +	c #1B2119",
".+	c #242A1A",
"++	c #1F2115",
"@+	c #1E2014",
"#+	c #151512",
"$+	c #363920",
"%+	c #6D6125",
"&+	c #22261A",
"*+	c #1C2219",
"=+	c #311E10",
"-+	c #321F10",
";+	c #7F5227",
">+	c #49371B",
",+	c #805327",
"'+	c #845528",
")+	c #804D23",
"!+	c #A66A39",
"~+	c #AA6C3A",
"{+	c #844F26",
"]+	c #7F4C23",
"^+	c #2D1E14",
"/+	c #212B1E",
"(+	c #1E2015",
"_+	c #44270E",
":+	c #47280D",
"<+	c #AE682E",
"[+	c #593313",
"}+	c #B56C30",
"|+	c #D08241",
"1+	c #EE9852",
"2+	c #F09A53",
"3+	c #D58644",
"4+	c #B86E32",
"5+	c #3E2716",
"6+	c #1A2117",
"7+	c #252817",
"8+	c #50401A",
"9+	c #53421A",
"0+	c #91602A",
"a+	c #5C451C",
"b+	c #96632B",
"c+	c #BD7E41",
"d+	c #EC9852",
"e+	c #DA8947",
"f+	c #9D672E",
"g+	c #4F411E",
"h+	c #1C1A13",
"i+	c #766A29",
"j+	c #B1723D",
"k+	c #B8753F",
"l+	c #99652E",
"m+	c #665726",
"n+	c #463F1D",
"o+	c #222619",
"p+	c #1D251A",
"q+	c #242617",
"r+	c #756929",
"s+	c #3E3B1D",
"t+	c #171713",
"u+	c #1E1F14",
"v+	c #776B2A",
"w+	c #292615",
"x+	c #1E231A",
"y+	c #48421E",
"z+	c #1C231A",
"A+	c #1F251C",
"B+	c #6B5F24",
"C+	c #2C2D1B",
"D+	c #181E15",
"E+	c #181D15",
"F+	c #141512",
"G+	c #7A4922",
"H+	c #3F2512",
"I+	c #1E2117",
"J+	c #1F261C",
"K+	c #1B2118",
"L+	c #844F25",
"M+	c #905524",
"N+	c #512E10",
"O+	c #352010",
"P+	c #1E2218",
"Q+	c #7C4D26",
"R+	c #34301E",
"S+	c #1C221A",
"T+	c #191F16",
"U+	c #342011",
"V+	c #46270D",
"W+	c #7C4921",
"X+	c #B16A2F",
"Y+	c #41311D",
"Z+	c #1A2118",
"`+	c #834D20",
" @	c #8F5527",
".@	c #302014",
"+@	c #372815",
"@@	c #865327",
"#@	c #8B5628",
"$@	c #322819",
"  . + + + + + + + + + @ # $ $ $ @ + + + % % % % % % % & + @ # $ $ @ + + + + + + ",
"+ + + + + + + + + + + + + $ $ $ @ + + + * = = = = = = - + + + + $ $ $ ; + + + + ",
"> > > , . + + + + + + + + ; @ @ ; + ' ' ) ! = = = ~ { ] ^ ' ' ' $ $ @ ' + + + + ",
"= = = / ( + + + + + + + + + + + + + ; $ $ $ = = = { _ _ _ ; $ $ $ @ + + + + + + ",
"= ) : < ( + + + % [ [ [ [ + + + + + ' ; @ $ ^ } | 1 _ _ _ ; $ $ % ^ [ [ [ % + [ ",
"= + ( ( ( + + + ^ _ _ _ _ + + + + + + + @ $ $ @ _ _ _ _ _ ; $ $ _ _ _ _ _ % + _ ",
"' @ 2 ; , + + + ' ; ; [ _ - - + + + ^ - - [ [ - _ _ _ _ _ - [ 3 _ _ _ : 4 < 5 ; ",
"$ $ $ ' + + + + ; $ $ [ _ _ _ + + + [ _ _ _ _ _ _ _ _ _ _ _ _ _ _ _ _ 6 ( ( ( $ ",
"$ ; + + + + + + + + + @ $ _ - $ $ $ $ $ [ _ _ _ _ [ + [ _ _ _ _ _ ^ ( 7 $ $ $ $ ",
"$ ; + + + + + + + + + @ $ _ - $ $ 8 9 9 0 a a a b [ + [ _ _ _ _ _ ^ ( 7 $ $ $ $ ",
"+ c } } } } ^ ' ' + + ; @ - [ 8 8 d e f f f g h i [ % [ - _ _ _ ^ j ( k @ @ @ @ ",
"= = = = = = * $ ; + + + + + l d e m n o o o p q r s - ^ + - _ _ ( ( ( t + + + + ",
"= = = = = c : 7 u + + + + v d w x o o o o o o o p r y + + % % z 7 k t ; + + + ; ",
"= = = = = ( ( ( A + + + v B C D E F o o G H I J F p K , + @ $ $ $ @ + + + + + $ ",
"1 1 1 % + 2 A ; ' + + + L M N N O E F P Q R S T q F U , + ' ' ' ' ' + + + / 7   ",
"_ _ _ ; $ $ @ + + + + v B V N N N W X Y S S S S T Z U , + + + + + + + + + 7 ( ( ",
"_ _ _ _ _ _ _ _ ^ $ $ ` M N N N  .Z U S S S S S S ..U , + + + + + + + ; $ $ $ + ",
"_ _ _ _ _ _ _ - % $ +.B V N N N W X Y S @.#.S @.#.$.%., + + + + + + + ; $ $ $ + ",
"+ [ _ _ _ _ - $ $ $ &.M  .*.*.=.-.;.>.,.'.).S !.~.{.].^._ _ _ _ _ - + + + + + + ",
"+ [ _ _ _ /.^ ' ' ' ` (.C _.:.<.Z [.}.|.1.2.S |.1.3.4.5._ _ _ _ /.^ ' ' + % ^ ^ ",
"+ [ _ _ _ $ ; _ _ _ 6.7.(.8.9.D E 0.a.b.>.S S S S c.d.3 _ _ _ _ $ $ $ ; + - _ _ ",
"+ [ _ [ ^ % ^ _ _ _ _ e.f.g.V N h.i.j.k.l.m.n.n.n.o.p.3 _ % q.+ $ @ ; % [ - _ _ ",
"+ [ _ % + _ _ _ _ _ r.s.t.u.v.N O _.w.x.y.z.A.A.A.B.C.D.- ; $ $ $ @ + [ _ _ _ _ ",
"+ % % [ - _ _ _ 5.E.F.G.o o H.D *.I.J.K.L.M.N.O.P.Q.R.S S.T.' ' ' + - - _ _ _ ' ",
"+ + + - _ _ _ _ ^ U...o o o o V.:.<.E F o p q n o o U S S , + + + % _ _ _ _ _ $ ",
"+ + + + + + % _ _ W.$.F o o G X._.:.:.x o o o o o o U S S , + + + + + + + - _ _ ",
"' + + + + % % _ _ 0 Y.Z.`.`.Q =.O D D E F o o o o G %.S  +' + + + + + + % - _ - ",
"( @ + + + _ _ _ ^ $ 9 .+++@+#+(.$+N N O %+I I I I Q &+*+' + + + + + + [ _ _ _ $ ",
"( @ + + + [ [ [ % @ @ ' S.7.=+-+;+>+,+'+)+!+~+{+]+^+/+' ' + + + + + + ^ [ [ [ ; ",
"( @ + + + + + + + + + + + (+_+:+<+[+<+}+|+1+2+3+4+5+6+/ $ ' + + + + + + + + + + ",
"( @ + + + + + + + + + + + 7+8+9+0+a+0+b+c+d+2+e+f+g+h+2 $ ' + + + + + + + + + + ",
"/+' + + + + + + + + + + l d i+q q q q q X.j+k+l+m+:.n+o+, + + + + + + + + + + + ",
"+ + + + + + + + + v p+p+q+r+n o o o o o s+t+S *._.:.:.]., + + + + + + + + + + + ",
"_ _ _ 4   + + + + L S S u+..o o o o o v+w+S S (.C _.:.]., + + + + ' $ $ $ ' + + ",
"_ _ _ k ( + + + + L S S S ..o o o o o s+x+*+7.S (.8.y+R z+T.+ + + ' $ $ $ ' + + ",
"_ /+( ( ( + + + ^ 6.A+7.S B+I I I I I C+' + D+E+F+G+]+H+-+I+/ $ $ $ $ ; + + + _ ",
"[ .   < 7 + + + % [ [ J+7.S S S S K+*+' , ; ( ( D+L+M+N+:+O+P+Q+R+@ @ ' + + + [ ",
"$ $ $ ' + + + + ; $ $ [ 6.7.S S S+/ ; + < ( ( ( ( T+U+V+:+:+W+X+Y+T.+ + + + + $ ",
"$ @ ; + + + + + ' ; ; + % 6.A+A+[ % ' ; 2 7 7 7 7 k Z+U+V+`+X+ @.@, + + + + + ; ",
"$ ; + + + + + + + + + @ $ _ _ _ _ _ + $ $ $ $ $ $ $ $ Z++@@@#@$@*+' + + + + + + "};
