/* XPM */
static char * _2_xpm[] = {
"40 40 128 2",
"  	c #1D2619",
". 	c #212B1D",
"+ 	c #232E20",
"@ 	c #202B1D",
"# 	c #1F2A1D",
"$ 	c #1F2A1C",
"% 	c #242F21",
"& 	c #242F20",
"* 	c #2A3626",
"= 	c #2C3828",
"- 	c #273224",
"; 	c #212C1E",
"> 	c #263223",
", 	c #222C1F",
"' 	c #222D1F",
") 	c #273223",
"! 	c #283424",
"~ 	c #2C3728",
"{ 	c #2B3627",
"] 	c #273324",
"^ 	c #253022",
"/ 	c #1F291C",
"( 	c #1C2518",
"_ 	c #283325",
": 	c #242E20",
"< 	c #1E271A",
"[ 	c #263123",
"} 	c #263122",
"| 	c #2A3526",
"1 	c #293426",
"2 	c #1E291B",
"3 	c #252E1F",
"4 	c #262F21",
"5 	c #262E20",
"6 	c #273022",
"7 	c #273124",
"8 	c #1F281B",
"9 	c #1D271A",
"0 	c #242C1E",
"a 	c #3C381B",
"b 	c #554E1F",
"c 	c #242D21",
"d 	c #232D1F",
"e 	c #21291A",
"f 	c #706428",
"g 	c #928230",
"h 	c #363119",
"i 	c #20291D",
"j 	c #1E281A",
"k 	c #232C20",
"l 	c #5F5625",
"m 	c #222B1F",
"n 	c #253021",
"o 	c #212317",
"p 	c #565024",
"q 	c #86782D",
"r 	c #7F712A",
"s 	c #141412",
"t 	c #232D20",
"u 	c #1E281B",
"v 	c #373A20",
"w 	c #524B21",
"x 	c #202A1C",
"y 	c #202A1D",
"z 	c #242E21",
"A 	c #1F291B",
"B 	c #454321",
"C 	c #125578",
"D 	c #20171E",
"E 	c #162227",
"F 	c #1286BC",
"G 	c #30331D",
"H 	c #331E32",
"I 	c #1A313C",
"J 	c #191D16",
"K 	c #361D33",
"L 	c #363426",
"M 	c #42342F",
"N 	c #5F2E5C",
"O 	c #422341",
"P 	c #521D4D",
"Q 	c #253023",
"R 	c #1A1A13",
"S 	c #5C5525",
"T 	c #705053",
"U 	c #932D8B",
"V 	c #93507A",
"W 	c #873C79",
"X 	c #252716",
"Y 	c #232E21",
"Z 	c #263023",
"` 	c #242818",
" .	c #544C22",
"..	c #80722B",
"+.	c #191E17",
"@.	c #232818",
"#.	c #242919",
"$.	c #212315",
"%.	c #81742C",
"&.	c #1A1E17",
"*.	c #191D17",
"=.	c #291B11",
"-.	c #3C361C",
";.	c #6D4C25",
">.	c #87562F",
",.	c #653D1D",
"'.	c #47280D",
").	c #B56C30",
"!.	c #C77B3C",
"~.	c #F09A53",
"{.	c #4E3916",
"].	c #A3672D",
"^.	c #D58C4A",
"/.	c #E28F4B",
"(.	c #9F612C",
"_.	c #D18648",
":.	c #9D5E2A",
"<.	c #1C251A",
"[.	c #212B1E",
"}.	c #73431B",
"|.	c #3E240E",
"1.	c #171B14",
"2.	c #1B2019",
"3.	c #181D16",
"4.	c #161A14",
"5.	c #171A14",
"6.	c #9E602D",
"7.	c #1D2719",
"  . + + + + + + + + + @ # $ $ $ @ + + + % % % % % % % & + @ # $ $ @ + + + + + + ",
"+ + + + + + + + + + + + + $ $ $ @ + + + * = = = = = = - + + + + $ $ $ ; + + + + ",
"> > > , . + + + + + + + + ; @ @ ; + ' ' ) ! = = = ~ { ] ^ ' ' ' $ $ @ ' + + + + ",
"= = = / ( + + + + + + + + + + + + + ; $ $ $ = = = { _ _ _ ; $ $ $ @ + + + + + + ",
"= ) : < ( + + + % [ [ [ [ + + + + + ' ; @ $ ^ } | 1 _ _ _ ; $ $ % ^ [ [ [ % + [ ",
"= + ( ( ( + + + ^ _ _ _ _ + + + + + + + @ $ $ @ _ _ _ _ _ ; $ $ _ _ _ _ _ % + _ ",
"' @ 2 ; , + + + ' ; ; [ _ - - + + + 3 4 4 5 5 4 6 _ _ _ _ - [ 7 _ _ _ : 8 < 9 ; ",
"$ $ $ ' + + + + ; $ $ [ _ _ _ + 0 0 a b b b b a a c _ _ _ _ _ _ _ _ _ d ( ( ( $ ",
"$ ; + + + + + + + + + @ $ _ - e a b f g g g g f f h i [ _ _ _ _ _ ^ ( j $ $ $ $ ",
"$ ; + + + + + + + + + @ $ _ k a l g g g g g g g g f h m _ _ _ _ _ ^ ( j $ $ $ $ ",
"+ n } } } } ^ ' ' + + ; @ k o p p q g g g q r r q g f s - _ _ _ ^ t ( u @ @ @ @ ",
"= = = = = = * $ ; + + + + s v v v p q g r w s s w q g s + - _ _ ( ( ( x + + + + ",
"= = = = = n : j y + + + i o v v v v f r s s s s s w g s + % % z j u x ; + + + ; ",
"= = = = = ( ( ( A + + + s v v v v B g s s s s s s s g s + @ $ $ $ @ + + + + + $ ",
"1 1 1 % + 2 A ; ' + + i o v v v v f r s s C s s C s q s + ' ' ' ' ' + + + / j   ",
"_ _ _ ; $ $ @ + + + + s v B B B v g D s E F s s F E l s + + + + + + + + + j ( ( ",
"_ _ _ _ _ _ _ _ ^ $ $ s G p l l B g H s I I s s I I p s + + + + + + + ; $ $ $ + ",
"_ _ _ _ _ _ _ - % $ $ J s G w p p q H K D s s s s s L s + + + + + + + ; $ $ $ + ",
"+ [ _ _ _ _ - $ $ $ $ ' s o o v v l M N O K P P P P O s _ _ _ _ _ - + + + + + + ",
"+ [ _ _ _ Q ^ ' ' ' ' % R S S S v p l T N N U U U U N s c _ _ _ Q ^ ' ' + % ^ ^ ",
"+ [ _ _ _ $ ; _ _ _ _ 6 b g g g S B p g T T V W W V T s s _ _ _ $ $ $ ; + - _ _ ",
"+ [ _ [ ^ % ^ _ _ _ _ X g g g g g l B g g g g f f g g s s % Y + $ @ ; % [ - _ _ ",
"+ [ _ % + _ _ _ _ _ _ X q g g g q p p q g g g g g g g s s ; $ $ $ @ + [ _ _ _ _ ",
"+ % % [ - _ _ _ Z ; ; `  .......w v v p g g g g g g q s +.+ ' ' ' + - - _ _ _ ' ",
"+ + + - _ _ _ _ ^ $ $ $ @.#.$.$.o v v v %.r r r r r w &.+ + + + + % _ _ _ _ _ $ ",
"+ + + + + + % _ _ _ _ % + + *.=.-.;.-.;.;.>.>.,.,.,.s + + + + + + + + + + - _ _ ",
"' + + + + % % _ _ - - % + + + '.'.).'.).!.~.~.!.).).s + + + + + + + + + % - _ - ",
"( @ + + + _ _ _ ^ $ $ ' + + 0 {.{.].{.].^.~.~./.(.(.o i + + + + + + + [ _ _ _ $ ",
"( @ + + + [ [ [ % @ @ ' + + X f f f f f l _._.:.B B B s ' + + + + + + ^ [ [ [ ; ",
"( @ + + + + + + + + + + + 0 a g g g g g p s s s l l l h <.' + + + + + + + + + + ",
"( @ + + + + + + + + + + + X f g g g g %.G s s s p l l l s ' + + + + + + + + + + ",
"[.' + + + + + + + + + + i $.g g g g g G J s s s G p l l s + + + + + + + + + + + ",
"+ + + + + + + + + + + + s s r r r r r s + *.*.s s G w w s + + + + + + + + + + + ",
"_ _ _ 8   + + + + + + + s =.=.=.=.s *.*.+ i i s s s s s *.+ + + + ' $ $ $ ' + + ",
"_ _ _ u ( + + + + + + + s }.'.'.|.*.+ + + s s s s s s s + + + + + ' $ $ $ ' + + ",
"_ [.( ( ( + + + ^ _ _ _ s ).}.|.*.+ + + + s s s s s s 1.$ $ $ $ $ $ $ ; + + + _ ",
"[ .   < j + + + % [ [ - 2.:.).,.% ' + + , 3.4.4.4.4.5.2 $ @ @ @ @ @ @ ' + + + [ ",
"$ $ $ ' + + + + ; $ $ [ _ 2.6.6.^ $ ; + < ( ( ( ( 7.$ $ $ ' + + + + + + + + + $ ",
"$ @ ; + + + + + ' ; ; + % _ _ _ - % ' ; 2 j j j j u $ $ $ ; ; ; + + + + + + + ; ",
"$ ; + + + + + + + + + @ $ _ _ _ _ _ + $ $ $ $ $ $ $ $ $ $ $ $ $ + + + + + + + + "};
