/* XPM */
static char * _3_xpm[] = {
"40 40 292 2",
"  	c #1D2619",
". 	c #212B1D",
"+ 	c #232E20",
"@ 	c #202B1D",
"# 	c #1F2A1D",
"$ 	c #1F2A1C",
"% 	c #242F21",
"& 	c #242F20",
"* 	c #2A3626",
"= 	c #2C3828",
"- 	c #273224",
"; 	c #212C1E",
"> 	c #263223",
", 	c #222C1F",
"' 	c #222D1F",
") 	c #273223",
"! 	c #283424",
"~ 	c #2C3728",
"{ 	c #2B3627",
"] 	c #273324",
"^ 	c #253022",
"/ 	c #1F291C",
"( 	c #1C2518",
"_ 	c #283325",
": 	c #242E20",
"< 	c #1E271A",
"[ 	c #263123",
"} 	c #232D1F",
"| 	c #232A1B",
"1 	c #22291A",
"2 	c #222919",
"3 	c #252C1D",
"4 	c #262D1D",
"5 	c #293122",
"6 	c #293426",
"7 	c #242B1C",
"8 	c #33341D",
"9 	c #554D20",
"0 	c #695E24",
"a 	c #5E5522",
"b 	c #46411E",
"c 	c #3C3A1E",
"d 	c #232C21",
"e 	c #1E291B",
"f 	c #273022",
"g 	c #6F6427",
"h 	c #83752D",
"i 	c #928230",
"j 	c #8A7B2E",
"k 	c #7A6D2A",
"l 	c #6A5F26",
"m 	c #39361D",
"n 	c #273124",
"o 	c #1F281B",
"p 	c #1D271A",
"q 	c #252F23",
"r 	c #32331E",
"s 	c #504A21",
"t 	c #756929",
"u 	c #1D271B",
"v 	c #24291C",
"w 	c #3A381D",
"x 	c #504B23",
"y 	c #645B26",
"z 	c #86772D",
"A 	c #8B7C2E",
"B 	c #796C29",
"C 	c #6F6325",
"D 	c #756828",
"E 	c #635923",
"F 	c #1C2219",
"G 	c #1E281A",
"H 	c #1B2419",
"I 	c #252718",
"J 	c #373A20",
"K 	c #414121",
"L 	c #87782C",
"M 	c #3B361A",
"N 	c #141412",
"O 	c #2F2B17",
"P 	c #605623",
"Q 	c #776A28",
"R 	c #253021",
"S 	c #263122",
"T 	c #212519",
"U 	c #2E301C",
"V 	c #575124",
"W 	c #766929",
"X 	c #5B5120",
"Y 	c #6B5F25",
"Z 	c #232D20",
"` 	c #1E281B",
" .	c #1E271C",
"..	c #404021",
"+.	c #6C6228",
"@.	c #5D5320",
"#.	c #1B2119",
"$.	c #202A1C",
"%.	c #202A1D",
"&.	c #212B1E",
"*.	c #22271A",
"=.	c #134460",
"-.	c #12577B",
";.	c #50481E",
">.	c #675C24",
",.	c #1B2018",
"'.	c #242E21",
").	c #1F291B",
"!.	c #4C4822",
"~.	c #454422",
"{.	c #655C27",
"].	c #796B2C",
"^.	c #20171F",
"/.	c #151D21",
"(.	c #175170",
"_.	c #14628A",
":.	c #144D6B",
"<.	c #16648C",
"[.	c #3D3E2D",
"}.	c #4E461F",
"|.	c #1A2018",
"1.	c #1E1F15",
"2.	c #3B3A1E",
"3.	c #564F24",
"4.	c #5F5625",
"5.	c #595124",
"6.	c #7A6B31",
"7.	c #2A1B29",
"8.	c #161F23",
"9.	c #192C35",
"0.	c #17252B",
"a.	c #35392F",
"b.	c #413D1E",
"c.	c #212A1E",
"d.	c #191E17",
"e.	c #38361C",
"f.	c #4B4520",
"g.	c #6A5D2E",
"h.	c #392038",
"i.	c #3A1F38",
"j.	c #24211D",
"k.	c #2C2823",
"l.	c #1E261B",
"m.	c #1D1E15",
"n.	c #282A19",
"o.	c #494622",
"p.	c #584E28",
"q.	c #533943",
"r.	c #582B56",
"s.	c #482546",
"t.	c #52224E",
"u.	c #672261",
"v.	c #5E2359",
"w.	c #3D213B",
"x.	c #20281B",
"y.	c #47411D",
"z.	c #6D6328",
"A.	c #5D5725",
"B.	c #6A5A37",
"C.	c #715252",
"D.	c #5F2E5C",
"E.	c #752E70",
"F.	c #932D8B",
"G.	c #832D7C",
"H.	c #4E274B",
"I.	c #181B15",
"J.	c #1F281D",
"K.	c #202A1B",
"L.	c #46431F",
"M.	c #7A6D29",
"N.	c #86782D",
"O.	c #625A26",
"P.	c #4E4923",
"Q.	c #6E6328",
"R.	c #8A773C",
"S.	c #7A604C",
"T.	c #7B5759",
"U.	c #7F436C",
"V.	c #864F6C",
"W.	c #8A6063",
"X.	c #634E3E",
"Y.	c #1D231A",
"Z.	c #253023",
"`.	c #232B1C",
" +	c #605622",
".+	c #82742C",
"++	c #272F20",
"@+	c #544C1F",
"#+	c #706528",
"$+	c #273123",
"%+	c #36371D",
"&+	c #5B5322",
"*+	c #716526",
"=+	c #655A24",
"-+	c #433F1F",
";+	c #181C16",
">+	c #222B20",
",+	c #232E21",
"'+	c #232C1D",
")+	c #222819",
"!+	c #212517",
"~+	c #1E2014",
"{+	c #1B1C13",
"]+	c #544F24",
"^+	c #726728",
"/+	c #3D391D",
"(+	c #263023",
"_+	c #20291D",
":+	c #262116",
"<+	c #321F10",
"[+	c #5B3A1B",
"}+	c #714B23",
"|+	c #5F421F",
"1+	c #845528",
"2+	c #825226",
"3+	c #91592D",
"4+	c #AA6C3A",
"5+	c #9C6233",
"6+	c #7F4C23",
"7+	c #683E1E",
"8+	c #332C1B",
"9+	c #47280D",
"0+	c #7E4A1E",
"a+	c #995A27",
"b+	c #B56C30",
"c+	c #C07538",
"d+	c #DE8C49",
"e+	c #F09A53",
"f+	c #E6924E",
"g+	c #C87C3D",
"h+	c #945828",
"i+	c #3A351C",
"j+	c #53421A",
"k+	c #715022",
"l+	c #825826",
"m+	c #96632B",
"n+	c #A76F35",
"o+	c #D38B49",
"p+	c #E8944E",
"q+	c #C1793D",
"r+	c #754C24",
"s+	c #25281A",
"t+	c #242C1D",
"u+	c #514A1F",
"v+	c #716529",
"w+	c #886330",
"x+	c #B8753F",
"y+	c #AC6F39",
"z+	c #815A28",
"A+	c #3E3B1D",
"B+	c #6A5F25",
"C+	c #7F722C",
"D+	c #3D371A",
"E+	c #564E22",
"F+	c #38351B",
"G+	c #887A2E",
"H+	c #615925",
"I+	c #242618",
"J+	c #333019",
"K+	c #1A1F17",
"L+	c #1D2318",
"M+	c #5E5521",
"N+	c #796D2A",
"O+	c #191E16",
"P+	c #473F1B",
"Q+	c #222317",
"R+	c #48421E",
"S+	c #32351E",
"T+	c #161914",
"U+	c #1B2118",
"V+	c #171A15",
"W+	c #54371C",
"X+	c #5C371A",
"Y+	c #905524",
"Z+	c #8E5425",
"`+	c #714521",
" @	c #1C2419",
".@	c #1F271C",
"+@	c #2E1D10",
"@@	c #3A220F",
"#@	c #252F22",
"$@	c #563319",
"%@	c #885022",
"&@	c #854E22",
"*@	c #683F1F",
"=@	c #1A2116",
"-@	c #20281D",
";@	c #593B1F",
">@	c #8B5527",
",@	c #724622",
"'@	c #1A2117",
")@	c #1D2719",
"  . + + + + + + + + + @ # $ $ $ @ + + + % % % % % % % & + @ # $ $ @ + + + + + + ",
"+ + + + + + + + + + + + + $ $ $ @ + + + * = = = = = = - + + + + $ $ $ ; + + + + ",
"> > > , . + + + + + + + + ; @ @ ; + ' ' ) ! = = = ~ { ] ^ ' ' ' $ $ @ ' + + + + ",
"= = = / ( + + + + + + + + + + + + + ; $ $ $ = = = { _ _ _ ; $ $ $ @ + + + + + + ",
"= ) : < ( + + + % [ [ [ [ + + + + } | | 1 2 3 4 5 6 _ _ _ ; $ $ % ^ [ [ [ % + [ ",
"= + ( ( ( + + + ^ _ _ _ _ + + } 7 8 9 0 0 0 a b c d _ _ _ ; $ $ _ _ _ _ _ % + _ ",
"' @ e ; , + + + ' ; ; [ _ - f 8 9 g h i i i j k l m d _ _ - [ n _ _ _ : o < p ; ",
"$ $ $ ' + + + + ; $ $ [ _ q r s t i i i i i i i j l m d _ _ _ _ _ _ _ } ( ( ( $ ",
"$ ; + + + + + + + + + @ u v w x y z i i A B C D z j E F _ _ _ _ _ ^ ( G $ $ $ $ ",
"$ ; + + + + + + + + + @ H I J J K y z L E M N O P z Q F _ _ _ _ _ ^ ( G $ $ $ $ ",
"+ R S S S S ^ ' ' + + / T U J J J V W X N N N N O Y Q F - _ _ _ ^ Z ( ` @ @ @ @ ",
"= = = = = = * $ ; + +  .I J J J ..+.Q N N N N N N @.Q #.+ - _ _ ( ( ( $.+ + + + ",
"= = = = = R : G %.+ &.*.U J J J V W X N =.-.N =.-.;.>.,.+ % % '.G ` $.; + + + ; ",
"= = = = = ( ( ( ).+  .I ..!.!.~.{.].^./.(._.N :.<.[.}.|.+ @ $ $ $ @ + + + + + $ ",
"6 6 6 % + e ).; ' +  .1.2.3.4.5.+.6.7.8.9.0.N 8.9.a.b.|.+ ' ' ' ' ' + + + / G   ",
"_ _ _ ; $ $ @ + + + c.d.1.e.f.x y g.h.i.^.N N N N j.k.|.+ + + + + + + + + G ( ( ",
"_ _ _ _ _ _ _ _ ^ $ $ l.m.n.U J o.p.q.r.s.t.u.u.u.v.w.|.+ + + + + + + ; $ $ $ + ",
"_ _ _ _ _ _ _ - % $ $ x.y.z.z.A.K 3.B.C.D.E.F.F.F.G.H.I.J.+ + + + + + ; $ $ $ + ",
"+ [ _ _ _ _ - $ $ $ K.L.M.i i N.O.P.Q.R.S.T.U.U.V.W.X.N Y._ _ _ _ - + + + + + + ",
"+ [ _ _ _ Z.^ ' ' ' `. +i i i i .+5.+.i i j k k h i Q N Y._ _ _ Z.^ ' ' + % ^ ^ ",
"+ [ _ _ _ $ ; _ _ _ ++@+z i i A #+x y z i i i i i i Q N Y._ _ _ $ $ $ ; + - _ _ ",
"+ [ _ [ ^ % ^ _ _ _ $+%+&+*+*+=+-+J K Q.i i i i i A >.;+>+% ,++ $ @ ; % [ - _ _ ",
"+ [ _ % + _ _ _ _ _ _ '+)+!+~+{+I J J ]+^+C C C C E /+>+_ ; $ $ $ @ + [ _ _ _ _ ",
"+ % % [ - _ _ _ (+; ; @ $ _+:+<+[+}+|+1+2+3+4+5+6+7+Y.[ % + ' ' ' + - - _ _ _ ' ",
"+ + + - _ _ _ _ ^ $ $ $ $ + 8+9+0+a+0+b+c+d+e+f+g+h+Y.^ + + + + + % _ _ _ _ _ $ ",
"+ + + + + + % _ _ _ _ % + } i+j+k+l+k+m+n+o+e+p+q+r+s+J.+ + + + + + + + + - _ _ ",
"' + + + + % % _ _ - - % + t+u+k k k k k v+w+x+y+z+!.A+|.+ + + + + + + + % - _ - ",
"( @ + + + _ _ _ ^ $ $ ' } 8 B+i i i i i C+b.N D+4.4.E+F+J.+ + + + + + [ _ _ _ $ ",
"( @ + + + [ [ [ % @ @ ' t+u+h i i i i G+H+I+N J+3.4.4.}.K++ + + + + + ^ [ [ [ ; ",
"( @ + + + + + + + + + &.L+M+i i i i i N+I+N N 1.2.3.4.}.O+' + + + + + + + + + + ",
"( @ + + + + + + + + +  .N P+C C C C C X N m.Q+N 1.e.R+M O+' + + + + + + + + + + ",
"&.' + + + + + + + + + c.F F d.N N N N N N I S+n.Q+N T+U+l.+ + + + + + + + + + + ",
"+ + + + + + + + + + + + + +  .N N N N V+d.W+1+1+2+7+O+; + + + + + + + + + + + + ",
"_ _ _ o   + + + + + + + + +  .N N N N |. .X+Y+Y+Z+`+ @; + + + + + ' $ $ $ ' + + ",
"_ _ _ ` ( + + + + + + + + +  .N V+F F .@ .+@9+9+@@O+$ ; + + + + + ' $ $ $ ' + + ",
"_ &.( ( ( + + + ^ _ _ _ _ _ #@F .@+ + +  .$@%@%@&@*@=@G $ $ $ $ $ $ $ ; + + + _ ",
"[ .   < G + + + % [ [ - _ _ _ % % ' + + -@;@>@>@>@,@'@e $ @ @ @ @ @ @ ' + + + [ ",
"$ $ $ ' + + + + ; $ $ [ _ _ _ _ ^ $ ; + < ( ( ( ( )@$ $ $ ' + + + + + + + + + $ ",
"$ @ ; + + + + + ' ; ; + % _ _ _ - % ' ; e G G G G ` $ $ $ ; ; ; + + + + + + + ; ",
"$ ; + + + + + + + + + @ $ _ _ _ _ _ + $ $ $ $ $ $ $ $ $ $ $ $ $ + + + + + + + + "};
