/* XPM */
static char * 1_xpm[] = {
"40 40 60 1",
" 	c #1D2619",
".	c #212B1D",
"+	c #232E20",
"@	c #202B1D",
"#	c #1F2A1D",
"$	c #1F2A1C",
"%	c #242F21",
"&	c #242F20",
"*	c #2A3626",
"=	c #2C3828",
"-	c #273224",
";	c #212C1E",
">	c #263223",
",	c #222C1F",
"'	c #222D1F",
")	c #273223",
"!	c #283424",
"~	c #2C3728",
"{	c #2B3627",
"]	c #273324",
"^	c #253022",
"/	c #1F291C",
"(	c #1C2518",
"_	c #283325",
":	c #242E20",
"<	c #1E271A",
"[	c #263123",
"}	c #252716",
"|	c #293426",
"1	c #5F5625",
"2	c #928230",
"3	c #141412",
"4	c #1E291B",
"5	c #273124",
"6	c #1F281B",
"7	c #1D271A",
"8	c #232D1F",
"9	c #373A20",
"0	c #1E281A",
"a	c #253021",
"b	c #263122",
"c	c #232D20",
"d	c #1E281B",
"e	c #202A1C",
"f	c #202A1D",
"g	c #0C98D6",
"h	c #242E21",
"i	c #1F291B",
"j	c #331E32",
"k	c #1C3845",
"l	c #5F2E5C",
"m	c #932D8B",
"n	c #253023",
"o	c #232E21",
"p	c #263023",
"q	c #47280D",
"r	c #B56C30",
"s	c #F09A53",
"t	c #212B1E",
"u	c #1D2719",
" .+++++++++@#$$$@+++%%%%%%%&+@#$$@++++++",
"+++++++++++++$$$@+++*======-++++$$$;++++",
">>>,.++++++++;@@;+'')!===~{]^'''$$@'++++",
"===/(+++++++++++++;$$$==={___;$$$@++++++",
"=):<(+++%[[[[+++++}}}}}}}|___;$$%^[[[%+[",
"=+(((+++^____+++}}12222113___;$$_____%+_",
"'@4;,+++';;[_--}12222222213__-[5___:6<7;",
"$$$'++++;$$[__31122222222213_______8((($",
"$;+++++++++@$399912221331223_____^(0$$$$",
"$;+++++++++@$399991233333123_____^(0$$$$",
"+abbbb^''++;3999992333333323-___^c(d@@@@",
"======*$;+++3999912333333323+-__(((e++++",
"=====a:0f++3999992333g33g313+%%h0de;+++;",
"=====(((i++3911192j3kk33kk13+@$$$@+++++$",
"|||%+4i;'++3391112j333333393+'''''+++/0 ",
"___;$$@+++++333991jlj33333j3+++++++++0((",
"________^$$'3999911lllmmmml3+++++++;$$$+",
"_______-%$$'}2229912llmmmml33++++++;$$$+",
"+[____-$$$$}22222192221112233____-++++++",
"+[___n^''''}22222112222222233___n^''+%^^",
"+[___$;____}12221991222222233___$$$;+-__",
"+[_[^%^____^}}}}399922222213_%o+$@;%[-__",
"+[_%+______'$$3339999333333__;$$$@+[____",
"+%%[-___p;;@$''qqrqrrrssrr3[%+'''+--___'",
"+++-____^$$$$++qqrqrrssssr3^+++++%_____$",
"++++++%____%++}1111111ssr993+++++++++-__",
"'++++%%__--%++}2222221331113++++++++%-_-",
"(@+++___^$$'+}122222293311113++++++[___$",
"(@+++[[[%@@'+}222222933391113++++++^[[[;",
"(@++++++++++33222222333339113'++++++++++",
"(@++++++++++33333333339333333'++++++++++",
"t'+++++++++++++333333399933;'+++++++++++",
"+++++++++++++++33333+3rrrr3;++++++++++++",
"___6 ++++++++++33333+3qqq3$;+++++'$$$'++",
"___d(++++++++++33++++3qqq3$;+++++'$$$'++",
"_t(((+++^______++++++3rrrr30$$$$$$$;+++_",
"[. <0+++%[[-___%%'++,;(((( 4$@@@@@@'+++[",
"$$$'++++;$$[____^$;+<((((u$$$'+++++++++$",
"$@;+++++';;+%___-%';40000d$$$;;;+++++++;",
"$;+++++++++@$_____+$$$$$$$$$$$$$++++++++"};
