/* XPM */
static char * 2_xpm[] = {
"40 40 267 2",
"  	c #1D2619",
". 	c #212B1D",
"+ 	c #232E20",
"@ 	c #202B1D",
"# 	c #1F2A1D",
"$ 	c #1F2A1C",
"% 	c #242F21",
"& 	c #242F20",
"* 	c #2A3626",
"= 	c #2C3828",
"- 	c #273224",
"; 	c #212C1E",
"> 	c #263223",
", 	c #222C1F",
"' 	c #232D1F",
") 	c #242818",
"! 	c #252919",
"~ 	c #262A19",
"{ 	c #262B1A",
"] 	c #272D1D",
"^ 	c #2C3728",
"/ 	c #2B3627",
"( 	c #273324",
"_ 	c #253022",
": 	c #222D1F",
"< 	c #1F291C",
"[ 	c #1C2518",
"} 	c #252818",
"| 	c #33321A",
"1 	c #625925",
"2 	c #86782C",
"3 	c #7F722B",
"4 	c #585023",
"5 	c #504A21",
"6 	c #1E231B",
"7 	c #283325",
"8 	c #273223",
"9 	c #242E20",
"0 	c #1E271A",
"a 	c #263123",
"b 	c #87782D",
"c 	c #8C7D2F",
"d 	c #928230",
"e 	c #918130",
"f 	c #8A7B2E",
"g 	c #83752C",
"h 	c #504820",
"i 	c #1C211A",
"j 	c #212B1E",
"k 	c #2C2A19",
"l 	c #595123",
"m 	c #6B6027",
"n 	c #1E291B",
"o 	c #263023",
"p 	c #1F2218",
"q 	c #35371E",
"r 	c #414021",
"s 	c #4A4722",
"t 	c #736729",
"u 	c #655B25",
"v 	c #443D1A",
"w 	c #4D451D",
"x 	c #7F712A",
"y 	c #191C17",
"z 	c #273124",
"A 	c #1F281B",
"B 	c #1D271A",
"C 	c #252F22",
"D 	c #1E1F15",
"E 	c #373A20",
"F 	c #393B20",
"G 	c #88792D",
"H 	c #413A19",
"I 	c #2A2616",
"J 	c #141412",
"K 	c #1A1913",
"L 	c #3E381A",
"M 	c #85772C",
"N 	c #1E281C",
"O 	c #1D2016",
"P 	c #33361E",
"Q 	c #4F4B23",
"R 	c #81732B",
"S 	c #3E3819",
"T 	c #181B16",
"U 	c #1E281A",
"V 	c #1E281B",
"W 	c #3F3F21",
"X 	c #675D27",
"Y 	c #253021",
"Z 	c #263122",
"` 	c #1E2017",
" .	c #13415B",
"..	c #0F7FB3",
"+.	c #322E17",
"@.	c #615824",
"#.	c #232D20",
"$.	c #212A1E",
"%.	c #595224",
"&.	c #544E23",
"*.	c #524E23",
"=.	c #867730",
"-.	c #2B1B2A",
";.	c #151C1F",
">.	c #1B3B4C",
",.	c #194D69",
"'.	c #152935",
").	c #1A506C",
"!.	c #303B3B",
"~.	c #574F22",
"{.	c #202A1C",
"].	c #202A1D",
"^.	c #161613",
"/.	c #272718",
"(.	c #474522",
"_.	c #5F5625",
":.	c #5E5525",
"<.	c #877730",
"[.	c #2F1C2E",
"}.	c #141616",
"|.	c #161E22",
"1.	c #222722",
"2.	c #3B3B1F",
"3.	c #181B15",
"4.	c #242E21",
"5.	c #1F291B",
"6.	c #1F271C",
"7.	c #212115",
"8.	c #312F19",
"9.	c #635829",
"0.	c #3B213A",
"a.	c #51284F",
"b.	c #1C181A",
"c.	c #30222B",
"d.	c #171B15",
"e.	c #293426",
"f.	c #1C1D15",
"g.	c #33351E",
"h.	c #5A4A36",
"i.	c #5E2E5B",
"j.	c #592B56",
"k.	c #622A5E",
"l.	c #862A7F",
"m.	c #802A79",
"n.	c #232C1E",
"o.	c #443F1B",
"p.	c #87792E",
"q.	c #7D702B",
"r.	c #695D2A",
"s.	c #846F42",
"t.	c #5F2E5C",
"u.	c #6B2E67",
"v.	c #932D8B",
"w.	c #8B2D84",
"x.	c #572A54",
"y.	c #151513",
"z.	c #1A1F17",
"A.	c #202A1B",
"B.	c #44401C",
"C.	c #887A2D",
"D.	c #908030",
"E.	c #80732C",
"F.	c #554F24",
"G.	c #575124",
"H.	c #918032",
"I.	c #8A783B",
"J.	c #8C783E",
"K.	c #8C724B",
"L.	c #6B5046",
"M.	c #735947",
"N.	c #917849",
"O.	c #7F6E36",
"P.	c #20291B",
"Q.	c #49441C",
"R.	c #3A371A",
"S.	c #655B26",
"T.	c #253023",
"U.	c #282F1E",
"V.	c #45401B",
"W.	c #2F2D19",
"X.	c #273123",
"Y.	c #212A1D",
"Z.	c #181813",
"`.	c #1F2015",
" +	c #3D3E21",
".+	c #4F4B22",
"++	c #2C2B19",
"@+	c #232E21",
"#+	c #27281A",
"$+	c #42260F",
"%+	c #603B19",
"&+	c #9B5E2A",
"*+	c #A7652E",
"=+	c #B26E35",
"-+	c #DC8D4C",
";+	c #D38647",
">+	c #A6632C",
",+	c #975A29",
"'+	c #292A1A",
")+	c #47280D",
"!+	c #673C17",
"~+	c #A8642C",
"{+	c #BF7437",
"]+	c #E8944F",
"^+	c #F09A53",
"/+	c #EE9952",
"(+	c #DF8D4A",
"_+	c #B56C30",
":+	c #222C1E",
"<+	c #34321A",
"[+	c #5B5022",
"}+	c #615223",
"|+	c #715926",
"1+	c #795D29",
"2+	c #A37239",
"3+	c #B56F35",
"4+	c #5F4623",
"5+	c #594423",
"6+	c #2F321C",
"7+	c #1B2019",
"8+	c #232D1E",
"9+	c #46411C",
"0+	c #84762D",
"a+	c #635425",
"b+	c #714827",
"c+	c #6C4525",
"d+	c #553A1C",
"e+	c #524B22",
"f+	c #665C26",
"g+	c #88792E",
"h+	c #2D2917",
"i+	c #897A2E",
"j+	c #4B4821",
"k+	c #181A15",
"l+	c #453E1A",
"m+	c #86772C",
"n+	c #1E2117",
"o+	c #222014",
"p+	c #171A15",
"q+	c #1E271B",
"r+	c #211811",
"s+	c #41250E",
"t+	c #3C230F",
"u+	c #151713",
"v+	c #1B2317",
"w+	c #161914",
"x+	c #161814",
"y+	c #4E2F19",
"z+	c #9C5C28",
"A+	c #42260E",
"B+	c #221C13",
"C+	c #1C261A",
"D+	c #54331A",
"E+	c #B36B2F",
"F+	c #9A5B28",
"G+	c #231D14",
"H+	c #1F281D",
"I+	c #20291D",
"J+	c #1F291D",
"K+	c #2F2C1D",
"L+	c #6F421F",
"M+	c #B26A2F",
"N+	c #985C2A",
"O+	c #302F1F",
"P+	c #583F23",
"Q+	c #513C23",
"R+	c #1D2719",
"  . + + + + + + + + + @ # $ $ $ @ + + + % % % % % % % & + @ # $ $ @ + + + + + + ",
"+ + + + + + + + + + + + + $ $ $ @ + + + * = = = = = = - + + + + $ $ $ ; + + + + ",
"> > > , . + + + + + + + + ; @ @ ; ' ) ) ! ~ { { ] ^ / ( _ : : : $ $ @ : + + + + ",
"= = = < [ + + + + + + + + + + ' } | 1 2 2 2 3 4 5 6 7 7 7 ; $ $ $ @ + + + + + + ",
"= 8 9 0 [ + + + % a a a a + ' | 1 b c d d d e f g h i 7 7 ; $ $ % _ a a a % + a ",
"= + [ [ [ + + + _ 7 7 7 7 j k l m d d d d d d d e g h i 7 ; $ $ 7 7 7 7 7 % + 7 ",
": @ n ; , + + + : ; ; a o p q r s t d d c u v w t e x y 7 - a z 7 7 7 9 A 0 B ; ",
"$ $ $ : + + + + ; $ $ a C D E E F s t G H I J K L t M y 7 7 7 7 7 7 7 ' [ [ [ $ ",
"$ ; + + + + + + + + + N O P E E E Q R S J J J J K w M T 7 7 7 7 7 _ [ U $ $ $ $ ",
"$ ; + + + + + + + + + V D E E E W X M J J J J J J v M T 7 7 7 7 7 _ [ U $ $ $ $ ",
"+ Y Z Z Z Z _ : : + j ` P E E E Q R S J  ...J  ...+.@.T - 7 7 7 _ #.[ V @ @ @ @ ",
"= = = = = = * $ ; + $.D W %.%.&.*.=.-.;.>.,.J '.).!.~.T + - 7 7 [ [ [ {.+ + + + ",
"= = = = = Y 9 U ].+ $.^./.(._.:.X <.[.}.|.;.J }.|.1.2.3.+ % % 4.U V {.; + + + ; ",
"= = = = = [ [ [ 5.+ #.6.^.7.8.r s 9.0.a.-.J J J J b.c.d.+ @ $ $ $ @ + + + + + $ ",
"e.e.e.% + n 5.; : + + $.f.g.P E r :.h.i.j.k.l.l.l.m.a.d.+ : : : : : + + + < U   ",
"7 7 7 ; $ $ @ + + + + n.o.p.p.q.F (.r.s.t.u.v.v.v.w.x.y.z.+ + + + + + + + U [ [ ",
"7 7 7 7 7 7 7 7 _ $ A.B.C.d d D.E.F.G.H.I.J.K.L.M.N.O.J d.+ + + + + + ; $ $ $ + ",
"7 7 7 7 7 7 7 - % $ P.Q.d d d d f :.X d d d e f c d M J d.+ + + + + + ; $ $ $ + ",
"+ a 7 7 7 7 - $ $ $ P.R.t d d c S.r s t d d d d d d M J y 7 7 7 7 - + + + + + + ",
"+ a 7 7 7 T._ : : : : U.R.Q.Q.V.W.E F G.d d d d d c @.T o 7 7 7 T._ : : + % _ _ ",
"+ a 7 7 7 $ ; 7 7 7 7 7 X.Y.Z.`.P E E  +.+v v v v H ++o 7 7 7 7 $ $ $ ; + - 7 7 ",
"+ a 7 a _ % _ 7 7 7 7 _ @+j #+$+%+&+%+*+=+-+;+>+>+,+y 7 7 % @++ $ @ ; % a - 7 7 ",
"+ a 7 % + 7 7 7 7 7 7 : $ $ '+)+!+~+!+{+]+^+/+(+_+>+y 7 7 ; $ $ $ @ + a 7 7 7 7 ",
"+ % % a - 7 7 7 o ; ; @ $ :+<+[+}+|+}+1+2+^+]+3+4+5+6+7+% + : : : + - - 7 7 7 : ",
"+ + + - 7 7 7 7 _ $ $ $ $ 8+9+f f f f 0+a+b+c+d+%.%.e+T + + + + + % 7 7 7 7 7 $ ",
"+ + + + + + % 7 7 7 7 % ' | f+d d d d g+2.J J h+_._.:.h z.+ + + + + + + + - 7 7 ",
": + + + + % % 7 7 - - % 8+9+c d d d i+j+f.J J 7.(._._.~.d.+ + + + + + + % - 7 - ",
"[ @ + + + 7 7 7 _ $ $ ].k+l+d d d d m+n+6.J J ^./.(._.~.d.+ + + + + + a 7 7 7 $ ",
"[ @ + + + a a a % @ @ ].J o+v v v v S p+j ].q+J ^.7.h+I p++ + + + + + _ a a a ; ",
"[ @ + + + + + + + + + $.r+s+s+s+t+u+v+v+B w+x+J J J J x+V : + + + + + + + + + + ",
"[ @ + + + + + + + + + $.y+z+)+A+B+v+[ [ C+J J J J J J w+$ : + + + + + + + + + + ",
"j : + + + + + + + + + $.D+E+F+G+H+V {.j I+J J J J J x+J+: + + + + + + + + + + + ",
"+ + + + + + + + + + + #.K+L+M+N+: $ ; + #.$.$.$.$.].V ; + + + + + + + + + + + + ",
"7 7 7 A   + + + + + + + #.O+P+Q++ + + + + + + + $ $ $ ; + + + + + : $ $ $ : + + ",
"7 7 7 V [ + + + + + + + + + + + + + + + + + + : $ $ $ ; + + + + + : $ $ $ : + + ",
"7 j [ [ [ + + + _ 7 7 7 7 7 7 + + + + + + + [ [ [ [ [ U $ $ $ $ $ $ $ ; + + + 7 ",
"a .   0 U + + + % a a - 7 7 7 % % : + + , ; [ [ [ [   n $ @ @ @ @ @ @ : + + + a ",
"$ $ $ : + + + + ; $ $ a 7 7 7 7 _ $ ; + 0 [ [ [ [ R+$ $ $ : + + + + + + + + + $ ",
"$ @ ; + + + + + : ; ; + % 7 7 7 - % : ; n U U U U V $ $ $ ; ; ; + + + + + + + ; ",
"$ ; + + + + + + + + + @ $ 7 7 7 7 7 + $ $ $ $ $ $ $ $ $ $ $ $ $ + + + + + + + + "};
