/* XPM */
static char * 3_xpm[] = {
"40 40 117 2",
"  	c #1D2619",
". 	c #212B1D",
"+ 	c #232E20",
"@ 	c #202B1D",
"# 	c #1F2A1D",
"$ 	c #20291B",
"% 	c #252716",
"& 	c #353319",
"* 	c #6B6027",
"= 	c #928230",
"- 	c #8A7B2E",
"; 	c #5F5625",
"> 	c #574F22",
", 	c #181B15",
"' 	c #242F21",
") 	c #242F20",
"! 	c #1F2A1C",
"~ 	c #232D1E",
"{ 	c #1A1E17",
"] 	c #2C3828",
"^ 	c #273224",
"/ 	c #212C1E",
"( 	c #263223",
"_ 	c #222C1F",
": 	c #212A1E",
"< 	c #2D2917",
"[ 	c #1A1D17",
"} 	c #2B3627",
"| 	c #273324",
"1 	c #253022",
"2 	c #222D1F",
"3 	c #1F291C",
"4 	c #1C2518",
"5 	c #1E1F15",
"6 	c #373A20",
"7 	c #414021",
"8 	c #141412",
"9 	c #85772C",
"0 	c #283325",
"a 	c #273223",
"b 	c #242E20",
"c 	c #1E271A",
"d 	c #263123",
"e 	c #232D21",
"f 	c #191C17",
"g 	c #252F22",
"h 	c #524E23",
"i 	c #443D1A",
"j 	c #1E291B",
"k 	c #273124",
"l 	c #1F281B",
"m 	c #1D271A",
"n 	c #134764",
"o 	c #0E8BC4",
"p 	c #232D1F",
"q 	c #595224",
"r 	c #877730",
"s 	c #2F1C2E",
"t 	c #161E22",
"u 	c #1C3845",
"v 	c #1B333F",
"w 	c #313F40",
"x 	c #181B16",
"y 	c #1E281A",
"z 	c #33351E",
"A 	c #253021",
"B 	c #263122",
"C 	c #594F28",
"D 	c #3E213C",
"E 	c #592C56",
"F 	c #1C161B",
"G 	c #181C16",
"H 	c #232D20",
"I 	c #1E281B",
"J 	c #2A3626",
"K 	c #5F5034",
"L 	c #5F2E5C",
"M 	c #6B2E67",
"N 	c #932D8B",
"O 	c #8B2D84",
"P 	c #572A54",
"Q 	c #202A1C",
"R 	c #21291C",
"S 	c #49441C",
"T 	c #87792E",
"U 	c #8A783B",
"V 	c #242E21",
"W 	c #1E2518",
"X 	c #171B15",
"Y 	c #293426",
"Z 	c #1F291B",
"` 	c #222B1D",
" .	c #252F20",
"..	c #232415",
"+.	c #202A1D",
"@.	c #231911",
"#.	c #47280D",
"$.	c #673C17",
"%.	c #A8642C",
"&.	c #B56C30",
"*.	c #C27638",
"=.	c #F09A53",
"-.	c #E7934E",
";.	c #A6632C",
">.	c #253023",
",.	c #242E1F",
"'.	c #2D2715",
").	c #273123",
"!.	c #896731",
"~.	c #A9682E",
"{.	c #232E21",
"].	c #181813",
"^.	c #54331A",
"/.	c #41250E",
"(.	c #A6642E",
"_.	c #212B1E",
":.	c #1D2719",
"  . + + + + + + + + + @ # $ % & * = = = - ; > , ' ' ' ) + @ # ! ! @ + + + + + + ",
"+ + + + + + + + + + + + ~ & * = = = = = = = - > { ] ] ^ + + + + ! ! ! / + + + + ",
"( ( ( _ . + + + + + + : < ; * = = = = = = = = - > [ } | 1 2 2 2 ! ! @ 2 + + + + ",
"] ] ] 3 4 + + + + + : 5 6 6 7 * = = - > 8 < * = 9 [ 0 0 0 / ! ! ! @ + + + + + + ",
"] a b c 4 + + + ' d e 5 6 6 6 7 * 9 8 8 8 8 < * 9 f 0 0 0 / ! ! ' 1 d d d ' + d ",
"] + 4 4 4 + + + 1 g 5 6 6 6 6 h 9 8 8 8 8 8 8 i 9 f 0 0 0 / ! ! 0 0 0 0 0 ' + 0 ",
"2 @ j / _ + + + 2 3 5 6 6 6 7 * 9 8 8 8 8 8 8 i 9 f 0 0 0 ^ d k 0 0 0 b l c m / ",
"! ! ! 2 + + + + 3 5 6 6 6 6 h 9 8 8 n o 8 n o < > f 0 0 0 0 0 0 0 0 0 p 4 4 4 ! ",
"! / + + + + + + : 5 7 ; ; q h r s t u v 8 t u w > x + d 0 0 0 0 0 1 4 y ! ! ! ! ",
"! / + + + + + + : 8 5 7 ; ; * r s 8 8 8 8 8 8 5 z x + d 0 0 0 0 0 1 4 y ! ! ! ! ",
"+ A B B B B 1 2 2 : 8 8 5 6 7 C D E s 8 8 8 8 F s G ' d ^ 0 0 0 1 H 4 I @ @ @ @ ",
"] ] ] ] ] ] J ! / : 5 6 6 6 7 ; K L L M N N N O P f 0 1 + ^ 0 0 4 4 4 Q + + + + ",
"] ] ] ] ] A b y R S = = T 6 6 7 * U L M N N N O P 8 x ' + ' ' V y I Q / + + + / ",
"] ] ] ] ] 4 4 W S = = = = - ; q h = = - ; * = = 9 8 8 X + @ ! ! ! @ + + + + + ! ",
"Y Y Y ' + j Z ` S = = = = - ; ; ; * = = = = = = 9 8 8 X + 2 2 2 2 2 + + + 3 y   ",
"0 0 0 / ! ! @ ~ & * = = - q 7 ; ; * = = = = = = 9 8 8 X + + + + + + + + + y 4 4 ",
"0 0 0 0 0 0 0 0  .% % % ..5 6 6 6 7 * = = = = - > 8 X + + + + + + + + / ! ! ! + ",
"0 0 0 0 0 0 0 ^ ' ! m 8 8 8 5 6 6 6 z 8 8 8 8 8 f d + + + + + + + + + / ! ! ! + ",
"+ d 0 0 0 0 ^ ! ! ! ! +.@.#.$.%.$.&.&.*.=.-.&.;.f d + d 0 0 0 0 0 ^ + + + + + + ",
"+ d 0 0 0 >.1 2 2 2 2 ,.'.#.$.%.$.&.*.=.=.=.-.;.8 G 1 ^ 0 0 0 0 >.1 2 2 + ' 1 1 ",
"+ d 0 0 0 ! / 0 0 0 0 ).& ; ; ; ; ; ; !.=.-.~.; > f 0 0 0 0 0 0 ! ! ! / + ^ 0 0 ",
"+ d 0 d 1 ' 1 0 0 0 ).& * = = = = = T z 8 < ; ; ; > f 0 0 ' {.+ ! @ / ' d ^ 0 0 ",
"+ d 0 ' + 0 0 g 8 8 ].S = = = = = = 9 8 8 5 7 ; ; > f 0 0 / ! ! ! @ + d 0 0 0 0 ",
"+ ' ' d ^ 0 0 g 8 8 8 i = = = = = T z 8 8 8 5 7 ; > f d ' + 2 2 2 + ^ ^ 0 0 0 2 ",
"+ + + ^ 0 0 0 g 8 8 8 i = = = = = 9 x 0 g 8 8 8 8 8 8 x + + + + + ' 0 0 0 0 0 ! ",
"+ + + + + + ' 0 0 g 8 8 8 8 8 8 8 X + + + + : ^.&.%.#./.X + + + + + + + + ^ 0 0 ",
"2 + + + + ' ' 0 0 ^ V 8 8 8 8 X + + + + + + + : @.#.#.#./.^.(.+ + + + + ' ^ 0 ^ ",
"4 @ + + + 0 0 0 1 ! ! +.8 8 X + + + + + + + + + m @.#.#.$.&.;.X + + + d 0 0 0 ! ",
"4 @ + + + d d d ' @ @ 2 + + + 2 / _._._./ 2 2 / ! I @.$.&.;.8 X + + + 1 d d d / ",
"4 @ + + + + + + + + + + + + + ! I 4 4 4 j ! ! ! ! ! ! ! ! 2 + + + + + + + + + + ",
"4 @ + + + + + + + + + + + + + ! I 4 4 4 j ! ! ! ! ! ! ! ! 2 + + + + + + + + + + ",
"_.2 + + + + + + + + + + + + + 2 _.I Q _._ 2 2 2 2 / ! / 2 + + + + + + + + + + + ",
"+ + + + + + + + + + + + + + + + 2 ! / + + + + + + 2 ! / + + + + + + + + + + + + ",
"0 0 0 l   + + + + + + + + + + + + + + + + + + + ! ! ! / + + + + + 2 ! ! ! 2 + + ",
"0 0 0 I 4 + + + + + + + + + + + + + + + + + + 2 ! ! ! / + + + + + 2 ! ! ! 2 + + ",
"0 _.4 4 4 + + + 1 0 0 0 0 0 0 + + + + + + + 4 4 4 4 4 y ! ! ! ! ! ! ! / + + + 0 ",
"d .   c y + + + ' d d ^ 0 0 0 ' ' 2 + + _ / 4 4 4 4   j ! @ @ @ @ @ @ 2 + + + d ",
"! ! ! 2 + + + + / ! ! d 0 0 0 0 1 ! / + c 4 4 4 4 :.! ! ! 2 + + + + + + + + + ! ",
"! @ / + + + + + 2 / / + ' 0 0 0 ^ ' 2 / j y y y y I ! ! ! / / / + + + + + + + / ",
"! / + + + + + + + + + @ ! 0 0 0 0 0 + ! ! ! ! ! ! ! ! ! ! ! ! ! + + + + + + + + "};
