/* XPM */
static char * 1_xpm[] = {
"40 40 150 2",
"  	c #232E20",
". 	c #202B1D",
"+ 	c #1F2A1C",
"@ 	c #1F2A1D",
"# 	c #242F20",
"$ 	c #242F21",
"% 	c #212B1D",
"& 	c #1D2619",
"* 	c #212C1E",
"= 	c #273224",
"- 	c #2C3828",
"; 	c #2A3626",
"> 	c #222D1F",
", 	c #253022",
"' 	c #273324",
") 	c #2B3627",
"! 	c #2C3728",
"~ 	c #283424",
"{ 	c #273223",
"] 	c #222C1F",
"^ 	c #263223",
"/ 	c #283325",
"( 	c #1C2518",
"_ 	c #1F291C",
": 	c #263123",
"< 	c #293426",
"[ 	c #2A3526",
"} 	c #263122",
"| 	c #141412",
"1 	c #1E271A",
"2 	c #242E20",
"3 	c #9B5A22",
"4 	c #BD9168",
"5 	c #1D271A",
"6 	c #1F281B",
"7 	c #273124",
"8 	c #70431C",
"9 	c #1E291B",
"0 	c #232D1F",
"a 	c #1E281A",
"b 	c #233219",
"c 	c #77B845",
"d 	c #1E281B",
"e 	c #232D20",
"f 	c #242E21",
"g 	c #3F5D27",
"h 	c #5D8D38",
"i 	c #253021",
"j 	c #202A1C",
"k 	c #44280F",
"l 	c #283425",
"m 	c #293525",
"n 	c #ECCBAC",
"o 	c #2B3727",
"p 	c #253023",
"q 	c #293526",
"r 	c #232E21",
"s 	c #5B4126",
"t 	c #564029",
"u 	c #2D3223",
"v 	c #2A1D11",
"w 	c #281D12",
"x 	c #273022",
"y 	c #463722",
"z 	c #9E6A40",
"A 	c #DD955C",
"B 	c #A16C41",
"C 	c #1C221A",
"D 	c #3E3121",
"E 	c #4C321A",
"F 	c #754C2B",
"G 	c #3F2614",
"H 	c #482C17",
"I 	c #4C301C",
"J 	c #4F311C",
"K 	c #51331E",
"L 	c #53351F",
"M 	c #54361F",
"N 	c #573A22",
"O 	c #5A3B21",
"P 	c #766152",
"Q 	c #7F6A5D",
"R 	c #867267",
"S 	c #7E695B",
"T 	c #897A6F",
"U 	c #3E4036",
"V 	c #2A3022",
"W 	c #493B26",
"X 	c #8B5B36",
"Y 	c #DE955D",
"Z 	c #D99058",
"` 	c #DA9158",
" .	c #8E5B33",
"..	c #4F2F16",
"+.	c #A46738",
"@.	c #895832",
"#.	c #B77A4C",
"$.	c #7F4E28",
"%.	c #975F33",
"&.	c #AF703D",
"*.	c #B1703D",
"=.	c #B06F3D",
"-.	c #AF6F3D",
";.	c #AE6D38",
">.	c #C5A38E",
",.	c #B8A599",
"'.	c #C2B0A3",
").	c #A89588",
"!.	c #CEBDB0",
"~.	c #605B52",
"{.	c #302C1C",
"].	c #79512E",
"^.	c #D18C57",
"/.	c #D68E57",
"(.	c #B77643",
"_.	c #A56838",
":.	c #D48D56",
"<.	c #925D35",
"[.	c #241D15",
"}.	c #4D351F",
"|.	c #47301D",
"1.	c #7F5230",
"2.	c #673C1B",
"3.	c #70421E",
"4.	c #58636C",
"5.	c #784620",
"6.	c #794720",
"7.	c #613A1D",
"8.	c #603A1D",
"9.	c #482C16",
"0.	c #352217",
"a.	c #3D392E",
"b.	c #35372E",
"c.	c #34352C",
"d.	c #2C3026",
"e.	c #31332A",
"f.	c #252F22",
"g.	c #2D2D1D",
"h.	c #3B2C18",
"i.	c #3D2E1A",
"j.	c #382B19",
"k.	c #352B19",
"l.	c #192218",
"m.	c #815735",
"n.	c #694526",
"o.	c #131412",
"p.	c #3D230E",
"q.	c #5C8EA5",
"r.	c #212B1E",
"s.	c #1D2719",
"            . + + @ .   # $ $ $ $ $ $ $       . + + + @ .                   % & ",
"        * + + +         = - - - - - - ;       . + + +                           ",
"        > . + + > > > , ' ) ! - - - ~ { > >   * . . *                 % ] ^ ^ ^ ",
"            . + + + * / / / ) - - - + + + *                           ( _ - - - ",
":   $ : : : , $ + + * / / / < [ } , + . * >   | | | | | | | | $       ( 1 2 { - ",
"/   $ / / / / / + + * / / / / / . + + .     | 3 3 4 4 3 3 3 3 |       ( ( (   - ",
"* 5 1 6 2 / / / 7 : = / / / / / = : : = = | 3 3 8 8 3 3 3 3 3 8 |     ] * 9 . > ",
"+ ( ( ( 0 / / / / / / / / / / / / / / / | 3 3 8 8 3 3 3 3 3 3 8 8 |     > + + + ",
"+ + + + a ( , / / / / / :   : / / / / : | 3 3 4 4 3 3 3 3 3 3 8 8 b b b b b * + ",
"+ + + + a ( , / / / / / :   : / / / / : | b b 8 8 b b b | 3 8 8 8 c c c c b * + ",
". . . . d ( e , / / / = : $ = / / / , f | | | b b | | g | 8 8 c c h h c b } i   ",
"        j ( ( ( / / =   , / / / / / ( ( | | | g g | | h | 8 c h g g c b - - - - ",
"*       * j d a f $ $   $ : : : $ $ a 5 | b b c h g h h | k k b g h | - - - - - ",
"+           . + + + .           @ + + 9 | b b c h g h h | k k b b | ( - - - - - ",
"& a _       > > > > >           l m m | n g g g g g n h | k k k k | 9   $ < < < ",
"( ( a                           o - - | n n h h h g n n h b | | | . + + * / / / ",
"  + + + *                   : / ! - - | 4 n b b b g 4 n b 3 3 | / / / / / / / / ",
"  + + + *                   : / o - - - | 8 b | | b b b 3 3 h h | / / / / / / / ",
"            = / / / / / :   : / / / - ; | 3 8 k 8 8 8 3 3 h h h h b / / / / :   ",
", , $   > > , p / / / / = , = / / / q l | 3 n 4 n 8 8 3 3 h h h h b p / / / :   ",
"/ / =   * + + + / / / / / / / / / /   $ | 3 8 k 8 8 8 3 3 g h h g | + / / / :   ",
"/ / = : $ * . +   r $ / / / / / : , : : / | 8 4 8 8 8 3 3 k b | | , $ , : / :   ",
"/ / / / :   . + + + * / / / / / > s t / / u v w w w w k 8 3 | / / / / 2 $ / :   ",
"> / / / = =   > > >   $ : / x y z A B C D E F G H I J K L M N O P Q R S T U $   ",
"+ / / / / / $           V W X Y Z `  ...+.@.#.$.%.&.*.*.*.=.-.;.>.,.'.).!.~.    ",
"/ / =                 {.].^./.(._.:.<.[.}.|.1.2.3.4.5.6.7.8.9.0.a.b.c.d.e.f.    ",
"= / = $               g.h.i.j.k.l.m.n.>   o.p.k k q.q.k | | | | / $ $         > ",
"+ / / / :                   . +           | 8 8 8 8 8 8 8 k k k | / /       . ( ",
"* : : : ,             > > > . + * > > * r.| k 8 8 8 8 8 8 k k | | : :       . ( ",
"                    > + + + + + + + + 9 ( ( | | | | | | | | | | |           . ( ",
"                    > + + + + + + + + 9 ( ( | | | h h g g g g g |           . ( ",
"                      > * + * > > > > ] r.| | | | h h g g g g g h           > r.",
"                        * + >             | | | | | g g g g g g g               ",
"    > + + + >           * + + +             | | | | | | | | | | h     & 6 / / / ",
"    > + + + >           * + + + >           | | | | |         | |     ( d / / / ",
"/       * + + + + + + + a ( ( ( ( (       | | | | | | / / / / ,       ( ( ( r./ ",
":       > . . . . . . + 9 & ( ( ( ( * ]     > $ $ / / / = : : $       a 1 & % : ",
"+                   > + + + s.( ( ( ( 1   * + , / / / / : + + *         > + + + ",
"*               * * * + + + d a a a a 9 * > $ = / / / $   * * >           * . + ",
"                + + + + + + + + + + + + +   / / / / / + .                   * + "};
