/* XPM */
static char * 2_xpm[] = {
"40 40 148 2",
"  	c #232E20",
". 	c #202B1D",
"+ 	c #1F2A1C",
"@ 	c #1F2A1D",
"# 	c #242F20",
"$ 	c #242F21",
"% 	c #212B1D",
"& 	c #1D2619",
"* 	c #212C1E",
"= 	c #273224",
"- 	c #2C3828",
"; 	c #2A3626",
"> 	c #222D1F",
", 	c #253022",
"' 	c #273324",
") 	c #2B3627",
"! 	c #2C3728",
"~ 	c #283424",
"{ 	c #273223",
"] 	c #222C1F",
"^ 	c #263223",
"/ 	c #283325",
"( 	c #1C2518",
"_ 	c #1F291C",
": 	c #263123",
"< 	c #293426",
"[ 	c #2A3526",
"} 	c #263122",
"| 	c #141412",
"1 	c #1E271A",
"2 	c #242E20",
"3 	c #9B5A22",
"4 	c #BD9168",
"5 	c #1D271A",
"6 	c #1F281B",
"7 	c #273124",
"8 	c #70431C",
"9 	c #1E291B",
"0 	c #232D1F",
"a 	c #1E281A",
"b 	c #233219",
"c 	c #77B845",
"d 	c #1E281B",
"e 	c #232D20",
"f 	c #3F5D27",
"g 	c #5D8D38",
"h 	c #253021",
"i 	c #202A1C",
"j 	c #242E21",
"k 	c #44280F",
"l 	c #202A1D",
"m 	c #1F291B",
"n 	c #ECCBAC",
"o 	c #253023",
"p 	c #232E21",
"q 	c #5C4229",
"r 	c #564029",
"s 	c #2A2E1F",
"t 	c #262C1E",
"u 	c #281D12",
"v 	c #242C1E",
"w 	c #463621",
"x 	c #9E6940",
"y 	c #DD955C",
"z 	c #A16C41",
"A 	c #1B2119",
"B 	c #3C2F1E",
"C 	c #4D321A",
"D 	c #754D2C",
"E 	c #342B1D",
"F 	c #482C17",
"G 	c #52331B",
"H 	c #54341C",
"I 	c #51331E",
"J 	c #53351F",
"K 	c #55371F",
"L 	c #583820",
"M 	c #59381F",
"N 	c #766052",
"O 	c #7F6A5D",
"P 	c #867266",
"Q 	c #7E695B",
"R 	c #897A6F",
"S 	c #404238",
"T 	c #292F20",
"U 	c #473823",
"V 	c #8A5B36",
"W 	c #DE955D",
"X 	c #D99058",
"Y 	c #DA9158",
"Z 	c #8E5B33",
"` 	c #4F2F16",
" .	c #A46738",
"..	c #895832",
"+.	c #B77A4C",
"@.	c #7F4E28",
"#.	c #975F33",
"$.	c #AF703D",
"%.	c #B1703D",
"&.	c #B06F3D",
"*.	c #AF6F3D",
"=.	c #AE6D38",
"-.	c #C5A38E",
";.	c #B8A599",
">.	c #C2B0A3",
",.	c #A89588",
"'.	c #CEBDB0",
").	c #615C53",
"!.	c #302C1C",
"~.	c #79512E",
"{.	c #D18C57",
"].	c #D68E57",
"^.	c #B77643",
"/.	c #A56838",
"(.	c #D48D56",
"_.	c #925D35",
":.	c #241D15",
"<.	c #4D351F",
"[.	c #47301D",
"}.	c #805330",
"|.	c #312015",
"1.	c #70421E",
"2.	c #58636C",
"3.	c #784620",
"4.	c #794720",
"5.	c #7A4720",
"6.	c #603A1D",
"7.	c #603A1C",
"8.	c #462A15",
"9.	c #382E27",
"0.	c #35372E",
"a.	c #36382E",
"b.	c #2F3329",
"c.	c #33362C",
"d.	c #2A3326",
"e.	c #2D2D1D",
"f.	c #3B2C18",
"g.	c #3D2E1A",
"h.	c #382B19",
"i.	c #352B19",
"j.	c #192218",
"k.	c #815735",
"l.	c #694526",
"m.	c #202B1E",
"n.	c #111111",
"o.	c #5C8EA5",
"p.	c #212B1E",
"q.	c #1D2719",
"            . + + @ .   # $ $ $ $ $ $ $       . + + + @ .                   % & ",
"        * + + +         = - - - - - - ;       . + + +                           ",
"        > . + + > > > , ' ) ! - - - ~ { > >   * . . *                 % ] ^ ^ ^ ",
"            . + + + * / / / ) - - - + + + *                           ( _ - - - ",
":   $ : : : , $ + + * / / / < [ } , + | | | | | | | | : : : : $       ( 1 2 { - ",
"/   $ / / / / / + + * / / / / / . + | 3 3 4 4 3 3 3 3 | / / / ,       ( ( (   - ",
"* 5 1 6 2 / / / 7 : = / / / / / = | 3 3 8 8 3 3 3 3 3 8 | * * >       ] * 9 . > ",
"+ ( ( ( 0 / / / / / / / / / / / | 3 3 8 8 3 3 3 3 3 3 8 8 | + *         > + + + ",
"+ + + + a ( , / / / / / :   : / | 3 3 4 4 3 3 3 3 3 3 8 8 b b b b b         * + ",
"+ + + + a ( , / / / / / :   : / | b b 8 8 b b b | 3 8 8 8 c c c c b         * + ",
". . . . d ( e , / / / = : $ = / | | | b b | | f | 8 8 c c g g c b , } } } } h   ",
"        i ( ( ( / / =   , / / / | | | f f | | g | 8 c g f f c b + ; - - - - - - ",
"*       * i d a j $ $   $ : : : | b b c g f g g | k k b f g | l a 2 h - - - - - ",
"+           . + + + .           | b b c g f g g | k k b b |   m ( ( ( - - - - - ",
"& a _       > > > > >         | n f f f f f n g | k k k k |   > * m 9   $ < < < ",
"( ( a                         | n n g g g f n n g b | | |         . + + * / / / ",
"  + + + *                   : | 4 n b b b f 4 n b | 3 3 | + + , / / / / / / / / ",
"  + + + *                   : / | 8 b | | b b b 8 3 3 g g | + $ = / / / / / / / ",
"            = / / / / / :   : / | 3 8 k k 8 8 8 3 3 g g g g b + + = / / / / :   ",
", , $   > > , o / / / / = , = / | 3 n 4 4 n 8 8 3 3 g g g g b > > , o / / / :   ",
"/ / =   * + + + / / / / / / / / | 3 8 k k 8 8 8 3 3 f g g f | / / * + / / / :   ",
"/ / = : $ * . +   p $ / / / / / : | 8 4 4 8 8 8 3 3 k b | | / / / , $ , : / :   ",
"/ / / / :   . + + + * : q r / / s t u u u u u u k 8 3 | > / / / / / /   $ / :   ",
"> / / / = =   > > v w x y z A B C D E F G H I J K L M N O P Q R S / / = : $ $   ",
"+ / / / / / $ T U V W X Y Z `  ...+.@.#.$.%.%.%.&.*.=.-.;.>.,.'.)./ / / =       ",
"/ / =       !.~.{.].^./.(._.:.<.[.}.|.1.2.3.4.5.6.7.8.9.0.a.b.c.d.$             ",
"= / = $     e.f.g.h.i.j.k.l.>   m.n.k k o.o.k k | | | | $ = = / / $ $         > ",
"+ / / / :                   . +   | 8 8 8 8 8 8 8 k k k | + + , / / /       . ( ",
"* : : : ,             > > > . + | | | k 8 8 8 8 8 k k | | . . $ : : :       . ( ",
"                    > + + + + + | | | | | | | | | | | | | |                 . ( ",
"                    > + + + + + | | | | | ( ( d + | g g f f |               . ( ",
"                      > * + * > | | | | | | | p.>   | f f f f |             > p.",
"                        * + >   | | | | | | | >       | f f g |                 ",
"    > + + + >           * + + +   | | | | | |           | f g |       & 6 / / / ",
"    > + + + >           * + + + >         | |           g f |         ( d / / / ",
"/       * + + + + + + + a ( ( ( ( (               / / / / / / ,       ( ( ( p./ ",
":       > . . . . . . + 9 & ( ( ( ( * ]     > $ $ / / / = : : $       a 1 & % : ",
"+                   > + + + q.( ( ( ( 1   * + , / / / / : + + *         > + + + ",
"*               * * * + + + d a a a a 9 * > $ = / / / $   * * >           * . + ",
"                + + + + + + + + + + + + +   / / / / / + .                   * + "};
