/* XPM */
static char * 3_xpm[] = {
"40 40 216 2",
"  	c #232D1F",
". 	c #232E20",
"+ 	c #202B1D",
"@ 	c #1F2A1C",
"# 	c #1F2A1D",
"$ 	c #242F20",
"% 	c #242F21",
"& 	c #212B1D",
"* 	c #1E271A",
"= 	c #212C1E",
"- 	c #273224",
"; 	c #2C3828",
"> 	c #2A3626",
", 	c #222D1F",
"' 	c #253022",
") 	c #273324",
"! 	c #2B3627",
"~ 	c #2C3728",
"{ 	c #283424",
"] 	c #273223",
"^ 	c #222C1F",
"/ 	c #263223",
"( 	c #283325",
"_ 	c #232D20",
": 	c #1C2518",
"< 	c #202A1D",
"[ 	c #2B3727",
"} 	c #263123",
"| 	c #151613",
"1 	c #141412",
"2 	c #1E281A",
"3 	c #242E20",
"4 	c #273323",
"5 	c #2B3728",
"6 	c #151513",
"7 	c #995922",
"8 	c #9B5A22",
"9 	c #BC9067",
"0 	c #BD9168",
"a 	c #9C5B24",
"b 	c #1D2619",
"c 	c #1D271A",
"d 	c #1F281B",
"e 	c #273124",
"f 	c #985822",
"g 	c #72441C",
"h 	c #70431C",
"i 	c #9A5A22",
"j 	c #1E291B",
"k 	c #232C1F",
"l 	c #985821",
"m 	c #252F21",
"n 	c #BC9066",
"o 	c #9C5C26",
"p 	c #233219",
"q 	c #223119",
"r 	c #6E421C",
"s 	c #273319",
"t 	c #141512",
"u 	c #70451D",
"v 	c #77B845",
"w 	c #76B644",
"x 	c #1E281B",
"y 	c #233119",
"z 	c #151512",
"A 	c #3F5C27",
"B 	c #151612",
"C 	c #5D8D38",
"D 	c #5D8E38",
"E 	c #263122",
"F 	c #253021",
"G 	c #202A1C",
"H 	c #3E5C26",
"I 	c #3F5D27",
"J 	c #161913",
"K 	c #5C8C38",
"L 	c #405F27",
"M 	c #76B745",
"N 	c #242E21",
"O 	c #75B544",
"P 	c #5E8F38",
"Q 	c #405F28",
"R 	c #44280F",
"S 	c #5D8C38",
"T 	c #253122",
"U 	c #1F291B",
"V 	c #1D2719",
"W 	c #1F291C",
"X 	c #E7C7A8",
"Y 	c #526536",
"Z 	c #EAC9AA",
"` 	c #628E3C",
" .	c #222C1E",
"..	c #293426",
"+.	c #ECCBAC",
"@.	c #689042",
"#.	c #608E3B",
"$.	c #243319",
"%.	c #B98E66",
"&.	c #3E422C",
"*.	c #3E5C27",
"=.	c #BB9067",
"-.	c #EBCAAB",
";.	c #2D3720",
">.	c #293319",
",.	c #6F431C",
"'.	c #462910",
").	c #6F421C",
"!.	c #253023",
"~.	c #EAC8A9",
"{.	c #BF936B",
"].	c #744927",
"^.	c #232E21",
"/.	c #BB8F66",
"(.	c #734620",
"_.	c #594128",
":.	c #553E27",
"<.	c #262C1E",
"[.	c #262A1A",
"}.	c #22291A",
"|.	c #281E13",
"1.	c #281D12",
"2.	c #283224",
"3.	c #463824",
"4.	c #9A673E",
"5.	c #D9925A",
"6.	c #A66F43",
"7.	c #31291C",
"8.	c #3B2D1D",
"9.	c #4B3119",
"0.	c #734B2A",
"a.	c #382A1C",
"b.	c #3F2E1D",
"c.	c #51331B",
"d.	c #54341C",
"e.	c #56351D",
"f.	c #53351F",
"g.	c #55371F",
"h.	c #583820",
"i.	c #5A391F",
"j.	c #765F51",
"k.	c #7F6A5D",
"l.	c #867267",
"m.	c #7E695B",
"n.	c #88796E",
"o.	c #3E3F36",
"p.	c #263023",
"q.	c #443420",
"r.	c #875935",
"s.	c #D9915B",
"t.	c #D99058",
"u.	c #DA9158",
"v.	c #956036",
"w.	c #553319",
"x.	c #A16537",
"y.	c #8B5932",
"z.	c #B5794B",
"A.	c #82512A",
"B.	c #965E33",
"C.	c #AE6F3D",
"D.	c #B1703D",
"E.	c #B06F3D",
"F.	c #AF6F3D",
"G.	c #AE6D38",
"H.	c #C5A38E",
"I.	c #B8A599",
"J.	c #C2B0A3",
"K.	c #A89689",
"L.	c #CDBCAF",
"M.	c #5F5A51",
"N.	c #C98754",
"O.	c #D68E57",
"P.	c #BA7845",
"Q.	c #A66939",
"R.	c #D18B54",
"S.	c #986138",
"T.	c #342518",
"U.	c #4B341F",
"V.	c #47301D",
"W.	c #7E522F",
"X.	c #3A2B1B",
"Y.	c #3E2819",
"Z.	c #754520",
"`.	c #59646E",
" +	c #784824",
".+	c #7A4720",
"++	c #7B481F",
"@+	c #603A1C",
"#+	c #493427",
"$+	c #302D29",
"%+	c #34352C",
"&+	c #2C3026",
"*+	c #31332A",
"=+	c #252F22",
"-+	c #3C301C",
";+	c #3A2E1C",
">+	c #372D1C",
",+	c #1D2319",
"'+	c #7D5434",
")+	c #6B4627",
"!+	c #2B2F1F",
"~+	c #202B1E",
"{+	c #1F291D",
"]+	c #43270F",
"^+	c #5B8CA3",
"/+	c #5C8EA5",
"(+	c #452D1D",
"_+	c #151412",
":+	c #212B1E",
"<+	c #1C2619",
"[+	c #5B8B37",
"}+	c #3E5B26",
"|+	c #161813",
"1+	c #171B13",
"2+	c #20291C",
"3+	c #5C8B37",
"  . . . . . + @ @ # + . $ % % % % % % % . . . + @ @ @ # + . . . . . . . . . & * ",
". . . . = @ @ @ . . . . - ; ; ; ; ; ; > . . . + @ @ @ . . . . . . . . . . . . . ",
". . . . , + @ @ , , , ' ) ! ~ ; ; ; { ] , , . = + + = . . . . . . . . & ^ / / / ",
"% . . . . . + @ @ @ = ( ( ( ! ; ; ; @ @ @ = . . . . . . . . . . . . _ : < ; ; [ ",
"] . % } } } ' % @ @ = ( | 1 1 1 1 1 1 1 = , . . . . . } } } } % . . _ : 2 3 4 5 ",
"( . % ( ( ( ( ( + @ = 6 7 8 9 0 a 8 8 8 1 . . . . . . ( ( ( ( ' . . _ : : b % ; ",
"= c * d 3 ( ( ( e } | f 8 g h i 8 8 8 8 h 1 . . . - - ( } = = , . . . ^ = j + , ",
"@ : : : k ( ( ( ( | l 8 g h i 8 8 8 8 8 h h 1 . . ( ( ( } @ @ = . . . . , @ @ @ ",
"@ @ @ @ 2 : m ( ( | l 8 n 0 o 8 8 8 8 8 h h p p p p p @ + . . . . . . . . . = @ ",
"@ @ @ @ 2 : m ( ( | q p r h s p p t 8 h h u v v v w p @ + . . . . . . . . . = @ ",
"+ + + + x : _ ' ( | 1 1 y p z 1 A B h h v v C D w p - + = . . , , ' E E E E F . ",
"% . . . G : : : - | 1 1 H I J 1 K J h v C I L M p . . . . . . = + > ; ; ; ; ; [ ",
", . . . = G x 2 N | q p O P Q K C J R R p I S t G . . . . . . < 2 3 T ; ; ; ; [ ",
"+ . . . . . + @ @ | q p O P Q K C J R R p p 1 : : , . . . . . U : : V ; ; ; ; [ ",
"* 2 W . . . , , | X Y I I I I Z ` J R R R R 1  .j 2 x . . . . , = U j . % ....( ",
"b : 2 . . . . . | X +.@.C C Q Z +.#.$.1 1 1 ; $ @ : : . . . . . . + @ @ , ( ( - ",
". @ @ @ = . . . | %.Z &.p p *.=.-.;.1 8 8 1 . . . . . . , @ @ ' ( ( ( ( ( ( ( ( ",
". @ @ @ = . . . . | r >.B 1 y p p ,.8 8 C C 1 . . . . . , @ @ % - ( ( ( ( ( ( ( ",
". . . . . . - ( ( | l g '.R ).h h 8 8 C C C S p . . . . , @ @ @ < - ( ( ( ( } . ",
"' ' % . , , ' !.( | l ~.{.0 -.].h 8 8 C C C S p ' . . ' % , , , , ' !.( ( ( } . ",
"( ( - . = @ @ @ ( | l g '.R ).h h 8 8 I C C I t ( . . ( ( ( ( ( ( = + ( ( ( } . ",
"( ( - } % = + @ . ^.| r /.0 (.h h 8 8 R p 1 t } ' = = ^.' ( ( ( ( ' % ' } ( } . ",
"( ( ( } _.:.<.@ [.}.= |.1.1.1.1.1.R h 8 1 ( ( ' . @ @ @ , ( ( ( ( ( ( . % ( } . ",
", 2.3.4.5.6.7.8.9.0.a.b.c.d.e.f.g.h.i.j.k.l.m.n.o., , @ + = = p.( ( ( - } % % . ",
"q.r.s.t.u.v.w.x.y.z.A.B.C.D.D.D.E.F.G.H.I.J.K.L.M.. . @ @ @ @ ' ( ( ( ( - . . . ",
"N.O.P.Q.R.S.T.U.V.W.X.Y.Z.`. +.+++@+@+#+$+%+&+*+=+. . . % ( ( ( ( % . . . . . . ",
"-+;+>+,+'+)+!+. ~+{+6 ]+R ^+/+(+R _+1 1 1 . . . . . . . % - - ( ( % % . . . . , ",
"@ - ( ( } . . . . | ]+).h h h h h h R R R 1 . . . . . . , @ @ ' ( ( ( . . . + : ",
":+} } } ' . . . . | 1 ]+).h h h h h R R 1 1 :+= , . . . , + + % } } } . . . + <+",
", . . . . . . . . | 1 1 1 1 1 1 1 1 1 1 1 1 1 x @ . . . . . . . . . . . . . + b ",
", . . . . . . . . . | [+C Q J @ @ @ 1 1 1 1 1 t @ . . . . . . . . . . . . . + b ",
". . . . . . . . . . | }+I I I |+1 , , 1 1 1 1 1 t . . . . . . . . . . . . . , :+",
". . . . . . . . . . . | H I I K 1+. . . 1 1 1 1 t . . . . . . . . . . . . . . . ",
". . , @ @ @ , . . . . . 6 *.I K 1+. . . . 1 1 1 t . . . . . . . . . . b 2+( ( ( ",
". . , @ @ @ , . . . . . = 3+Q |+, . . . . 1 1 t . . . . . . . . . . _ : W ( ( ( ",
"( . . . = @ @ @ @ @ @ @ 2 : : : : : . . . . . . . ( ( ( ( ( ( ' . . _ : : <+^ ( ",
"} . . . , + + + + + + @ j b : : : : = ^ . . , % % ( ( ( - } } % . . . 2 * b = } ",
"@ . . . . . . . . . , @ @ @ V : : : : * . = @ ' ( ( ( ( } @ @ = . . . . , @ @ @ ",
"= . . . . . . . = = = @ @ @ x 2 2 2 2 j = , % - ( ( ( % . = = , . . . . . = + @ ",
". . . . . . . . @ @ @ @ @ @ @ @ @ @ @ @ @ . ( ( ( ( ( @ + . . . . . . . . . = @ "};
