/* XPM */
static char * 4_xpm[] = {
"40 40 241 2",
"  	c #222D1F",
". 	c #232E20",
"+ 	c #202B1D",
"@ 	c #1F2A1C",
"# 	c #1F2A1D",
"$ 	c #242F20",
"% 	c #242F21",
"& 	c #202A1C",
"* 	c #1E281A",
"= 	c #212C1E",
"- 	c #273224",
"; 	c #2C3828",
"> 	c #2A3626",
", 	c #253022",
"' 	c #273324",
") 	c #2B3627",
"! 	c #2C3728",
"~ 	c #283424",
"{ 	c #273223",
"] 	c #212B1D",
"^ 	c #232D20",
"/ 	c #263223",
"( 	c #253122",
"_ 	c #283224",
": 	c #283325",
"< 	c #151713",
"[ 	c #141412",
"} 	c #141512",
"| 	c #1C2619",
"1 	c #263123",
"2 	c #161714",
"3 	c #975821",
"4 	c #9B5A22",
"5 	c #BC9067",
"6 	c #BD9168",
"7 	c #9C5B24",
"8 	c #9A5922",
"9 	c #1C2518",
"0 	c #1F281B",
"a 	c #283324",
"b 	c #2B3727",
"c 	c #293426",
"d 	c #72441C",
"e 	c #70431C",
"f 	c #9A5A22",
"g 	c #6F421C",
"h 	c #151513",
"i 	c #1D2719",
"j 	c #253021",
"k 	c #1E281B",
"l 	c #1E271A",
"m 	c #232D1F",
"n 	c #273124",
"o 	c #161814",
"p 	c #965721",
"q 	c #73441C",
"r 	c #6E421C",
"s 	c #151613",
"t 	c #222C1F",
"u 	c #1E291B",
"v 	c #1D2619",
"w 	c #222C1E",
"x 	c #BB8F66",
"y 	c #9C5C27",
"z 	c #6E431C",
"A 	c #233219",
"B 	c #233119",
"C 	c #223119",
"D 	c #283319",
"E 	c #704B1E",
"F 	c #77B845",
"G 	c #73B343",
"H 	c #23321A",
"I 	c #151612",
"J 	c #3F5C27",
"K 	c #70461D",
"L 	c #76B745",
"M 	c #5D8D38",
"N 	c #5F9039",
"O 	c #74B343",
"P 	c #3E5B26",
"Q 	c #3F5D27",
"R 	c #171A13",
"S 	c #5C8C38",
"T 	c #70441C",
"U 	c #77B745",
"V 	c #426329",
"W 	c #74B444",
"X 	c #263122",
"Y 	c #5E8F39",
"Z 	c #405F28",
"` 	c #44280F",
" .	c #243319",
"..	c #5B8A37",
"+.	c #202C1D",
"@.	c #202A1D",
"#.	c #1F291B",
"$.	c #242E20",
"%.	c #E4C4A6",
"&.	c #5B6A3D",
"*.	c #EAC9AA",
"=.	c #618E3C",
"-.	c #43280F",
";.	c #1F291C",
">.	c #161713",
",.	c #ECCBAC",
"'.	c #6D9246",
").	c #5E8D39",
"!.	c #B68C64",
"~.	c #E9C8A8",
"{.	c #494834",
"].	c #3E5C27",
"^.	c #BB9067",
"/.	c #EBCAAB",
"(.	c #27341C",
"_.	c #46290F",
":.	c #995922",
"<.	c #6C411B",
"[.	c #2C3319",
"}.	c #9A5C23",
"|.	c #73451C",
"1.	c #472A10",
"2.	c #9A5B22",
"3.	c #E8C6A7",
"4.	c #C0956D",
"5.	c #EBC9AA",
"6.	c #754A28",
"7.	c #253023",
"8.	c #405E27",
"9.	c #5C8B37",
"0.	c #6D411B",
"a.	c #BA8E66",
"b.	c #744722",
"c.	c #232E21",
"d.	c #281F14",
"e.	c #281D12",
"f.	c #71431C",
"g.	c #573D24",
"h.	c #543D25",
"i.	c #272C1D",
"j.	c #2C3223",
"k.	c #2A3123",
"l.	c #432911",
"m.	c #291D12",
"n.	c #151512",
"o.	c #232E1F",
"p.	c #283123",
"q.	c #443724",
"r.	c #97643D",
"s.	c #D79159",
"t.	c #A97144",
"u.	c #3B2E1D",
"v.	c #3A2E1D",
"w.	c #4B311A",
"x.	c #734B2A",
"y.	c #372417",
"z.	c #6E411E",
"A.	c #5A5E64",
"B.	c #724626",
"C.	c #724421",
"D.	c #714522",
"E.	c #623E21",
"F.	c #643E22",
"G.	c #5C3B1F",
"H.	c #766152",
"I.	c #7F6A5D",
"J.	c #867266",
"K.	c #7F6A5C",
"L.	c #86766D",
"M.	c #3B3D33",
"N.	c #263023",
"O.	c #2C3324",
"P.	c #463A26",
"Q.	c #845834",
"R.	c #D58F59",
"S.	c #DA9159",
"T.	c #DA9158",
"U.	c #986238",
"V.	c #58351A",
"W.	c #9F6436",
"X.	c #8B5932",
"Y.	c #B4784B",
"Z.	c #83512B",
"`.	c #965E33",
" +	c #AE6F3D",
".+	c #B1703D",
"++	c #B06F3D",
"@+	c #AF6F3D",
"#+	c #AE6E3A",
"$+	c #C5A38E",
"%+	c #B8A599",
"&+	c #C1AFA2",
"*+	c #AA978A",
"=+	c #CAB9AC",
"-+	c #5D5850",
";+	c #313121",
">+	c #714D2D",
",+	c #C78552",
"'+	c #D58E57",
")+	c #BC7A46",
"!+	c #A76A39",
"~+	c #CF8953",
"{+	c #9B633A",
"]+	c #3B281A",
"^+	c #4A331E",
"/+	c #47301D",
"(+	c #7C502F",
"_+	c #432917",
":+	c #482D18",
"<+	c #57616A",
"[+	c #58656F",
"}+	c #4D311E",
"|+	c #4B2E18",
"1+	c #3B2618",
"2+	c #382417",
"3+	c #352217",
"4+	c #382E27",
"5+	c #35362E",
"6+	c #34352C",
"7+	c #2C3026",
"8+	c #30332A",
"9+	c #252F22",
"0+	c #2F3122",
"a+	c #3A2E1C",
"b+	c #3D2F1B",
"c+	c #392C19",
"d+	c #352B19",
"e+	c #1E2318",
"f+	c #7A5333",
"g+	c #6C4728",
"h+	c #2F3020",
"i+	c #202B1E",
"j+	c #121412",
"k+	c #42270F",
"l+	c #6E421B",
"m+	c #161813",
"n+	c #1D271A",
"o+	c #212A1D",
"p+	c #5A8937",
"q+	c #416028",
"r+	c #181E14",
"  . . . . . + @ @ # + . $ % % % % % % % . . . + @ @ @ # + . . . . . . . . . & * ",
". . . . = @ @ @ . . . . - ; ; ; ; ; ; > . . . + @ @ @ . . . . . . . . . . . . . ",
"% . . .   + @ @       , ' ) ! ; ; ; ~ {     . = + + = . . . . . . . . ] ^ / / ( ",
", . . . . . + @ @ @ = _ : : < [ [ [ [ [ [ } . . . . . . . . . . . .   | = ; ; ) ",
"- % % 1 1 1 , % + @ = _ : 2 3 4 5 6 7 4 4 8 } . . . . 1 1 1 1 % . .   9 0 $ a b ",
"c % % - : : : : + @ = _ 2 3 4 d e f 4 4 4 4 g h . . . : : : : , . .   9 9 i j b ",
"= k l 0 m - : : n 1 - o p 4 q e 8 4 4 4 4 4 e r s - - : 1 = =   . . . t = u +   ",
"@ v 9 9 w - : : : : : o p 4 x 6 y 4 4 4 4 4 e z A A A A B @ @ = . . . .   @ @ @ ",
"@ @ @ @ * 9 % : : : : o C A r e D A A [ 4 e e E F F F G H . . . . . . . . . = @ ",
"@ @ @ @ * 9 % : : : : o [ [ C A I [ J } e K F L M N O A + . . . . . . . . . = @ ",
"= + + + k 9 t , : : : o [ [ P Q R [ S I T U S Q V W A + = . .     , X X X X j   ",
", . . . + v 9 9 - : - o C A W Y Z S M I ` `  .Z ..s . . . . . = +.> ; ; ; ; ; ) ",
". . . . = & k * ^ % % 2 C A W Y Z S M I ` ` A B s . . . . . . @.#.$.X ; ; ; ; > ",
"    . . . . + @ @ @ < %.&.Q Q Q Q *.=.I ` ` ` -.s   . . . . . #.9 9 0 ; ; ; ; > ",
";.* ;.  . .         >.%.,.'.M M Z *.,.).A [ [ } u * k . . . .   = #.@ . , c c - ",
"0 9 *   . . . . . . 2 !.~.{.A A ].^./.(.[ _.4 :.} 9 | . . . . . . + @ @   : : 1 ",
"% + @ @ = . . . . . 2 [ <.[.I [ B A A ` e 4 }.M ..s . .   @ + , : : : : : : : - ",
"% + @ @ = . . . . . 2 [ p |.1.` g e e e 4 2.M M M ..A .   @ + % - : : : : : : - ",
". . . . . . - : : : o [ p 3.4.6 5.6.e e 4 2.M M M ..A .   @ @ @ + - : : : : 1 . ",
", , % .     , 7.: : o [ p |.1.` g e e e 4 f 8.M 9.P < , %         , 7.: : : 1 . ",
"- : - % = @ @ @ - : : o [ 0.a.6 b.e e e 4 f -.B [ s . : : : : : - = + : : : 1 % ",
"- : - 1 % = + @ . c.% : : d.e.e.e.e.e.e.` f.:.h , = = c., : : : : , % , 1 : 1 % ",
"- : : : 1 . @.g.h.i.= j.k.: l.` ` m.e.e.e.e.n., . & @ @ o.: : : : : - . , : 1 % ",
"  - : : p.q.r.s.t.u.v.w.x.y.z.A.B.C.D.E.F.G.H.I.J.K.L.M.+ = t N.: : : - 1 % % . ",
"+ - O.P.Q.R.S.T.U.V.W.X.Y.Z.`. +.+.+.+++@+#+$+%+&+*+=+-+@ @ + , : : : : 1 . .   ",
"- ;+>+,+'+)+!+~+{+]+^+/+(+_+:+<+[+}+|+1+2+3+4+5+6+7+8+9+% : : : : % . . . . . % ",
"1 0+a+b+c+d+e+f+g+h+. i+j+0.e e e e e e ` ` -.h . . . . % - - : : % % . . . . . ",
"u - : : 1 . . . . . . . < k+l+e e e e e ` ` [ h . . . .   @ + , : : - . . . @ v ",
"+ , 1 1 , . . . . . .   < [ [ [ [ [ [ [ [ [ [ h   . . .   + + % 1 1 1 . . . @ v ",
"  . . . . . . . . .   @ @ s ..M Z m+[ [ [ [ [ } @ . . . . . . . . . . . . . @ n+",
"  . . . . . . . . .   @ @ s ..M Z m+[ [ [ [ [ } @ . . . . . . . . . . . . . @ n+",
"^ . . . . . . . . . .   = s P Q Q m+  [ [ [ [ h   . . . . . . . . . . . . .   = ",
". . . . . . . . . . . . = s P Q Q m+. [ [ [ [ h . . . . . . . . . . . . . . . . ",
"% .   @ @ @   . . . . . = s P Q Q m+. . . . [ h . . . . . . . . . .   v o+: : - ",
"% .   @ @ @   . . . . . < p+q+9.M r+. . . . . . . . . . . . . . . .   9 @.: : - ",
": % . . = @ @ @ @ @ @ @ * 9 9 9 9 9 . . . . . . . : : : : : : , . .   9 9 v t : ",
"1 % . .   + + + + + + @ u v 9 9 9 9 = t . .   % % : : : - 1 1 % . .   * l l w 1 ",
"@   . . . . . . . .   @ @ @ i 9 9 9 9 l . = @ , : : : : 7.@ @ = . . . .   @ @ @ ",
"= . . . . . . . = = = @ @ @ k * * * * u =   % - : : : % . = =   . . . . . = + @ ",
"  . . . . . . . @ @ @ @ @ @ @ @ @ @ @ @ @ . : : : : : @ + . . . . . . . . . = + "};
