/* XPM */
static char * 5_xpm[] = {
"40 40 150 2",
"  	c #232E20",
". 	c #202B1D",
"+ 	c #1F2A1C",
"@ 	c #1F2A1D",
"# 	c #242F20",
"$ 	c #242F21",
"% 	c #212B1D",
"& 	c #1D2619",
"* 	c #212C1E",
"= 	c #273224",
"- 	c #2C3828",
"; 	c #2A3626",
"> 	c #222D1F",
", 	c #253022",
"' 	c #273324",
") 	c #2B3627",
"! 	c #2C3728",
"~ 	c #283424",
"{ 	c #273223",
"] 	c #222C1F",
"^ 	c #263223",
"/ 	c #283325",
"( 	c #1C2518",
"_ 	c #1F291C",
": 	c #263123",
"< 	c #293426",
"[ 	c #2A3526",
"} 	c #263122",
"| 	c #1E271A",
"1 	c #242E20",
"2 	c #141412",
"3 	c #1D271A",
"4 	c #1F281B",
"5 	c #273124",
"6 	c #9B5A22",
"7 	c #BD9168",
"8 	c #1E291B",
"9 	c #232D1F",
"0 	c #70431C",
"a 	c #1E281A",
"b 	c #233219",
"c 	c #1E281B",
"d 	c #232D20",
"e 	c #77B845",
"f 	c #253021",
"g 	c #202A1C",
"h 	c #3F5D27",
"i 	c #5D8D38",
"j 	c #242E21",
"k 	c #202A1D",
"l 	c #44280F",
"m 	c #1F291B",
"n 	c #ECCBAC",
"o 	c #253023",
"p 	c #232E21",
"q 	c #202B1E",
"r 	c #5B4126",
"s 	c #553F27",
"t 	c #2B3021",
"u 	c #2A1D11",
"v 	c #281D12",
"w 	c #263023",
"x 	c #252D1F",
"y 	c #463621",
"z 	c #9E6940",
"A 	c #DD955C",
"B 	c #A16C41",
"C 	c #1B2118",
"D 	c #3E3121",
"E 	c #4C321A",
"F 	c #754C2B",
"G 	c #3F2614",
"H 	c #482C17",
"I 	c #52331B",
"J 	c #4F311C",
"K 	c #51331E",
"L 	c #53351F",
"M 	c #55371F",
"N 	c #573720",
"O 	c #593B21",
"P 	c #766152",
"Q 	c #7F6A5D",
"R 	c #867266",
"S 	c #7E685B",
"T 	c #89796F",
"U 	c #3D3E34",
"V 	c #292F20",
"W 	c #473823",
"X 	c #8A5B36",
"Y 	c #DE955D",
"Z 	c #D99058",
"` 	c #DA9158",
" .	c #8E5B33",
"..	c #4F2F16",
"+.	c #A46738",
"@.	c #895832",
"#.	c #B77A4C",
"$.	c #7F4E28",
"%.	c #975F33",
"&.	c #AF703D",
"*.	c #B1703D",
"=.	c #B06F3D",
"-.	c #AF6F3D",
";.	c #AE6D38",
">.	c #C5A38E",
",.	c #B8A599",
"'.	c #C2B0A3",
").	c #A89588",
"!.	c #CEBDB0",
"~.	c #615C53",
"{.	c #302C1C",
"].	c #79512E",
"^.	c #D18C57",
"/.	c #D68E57",
"(.	c #B77643",
"_.	c #A56838",
":.	c #D48D56",
"<.	c #925D35",
"[.	c #241D15",
"}.	c #4D351F",
"|.	c #47301D",
"1.	c #7F5230",
"2.	c #673C1B",
"3.	c #515F69",
"4.	c #764620",
"5.	c #784620",
"6.	c #794720",
"7.	c #613A1D",
"8.	c #603A1D",
"9.	c #482C16",
"0.	c #352217",
"a.	c #3C372C",
"b.	c #35362E",
"c.	c #34352C",
"d.	c #2D3126",
"e.	c #32352C",
"f.	c #293225",
"g.	c #2F2F20",
"h.	c #3B2C18",
"i.	c #3D2E1A",
"j.	c #382B19",
"k.	c #352B19",
"l.	c #192218",
"m.	c #815735",
"n.	c #694526",
"o.	c #131412",
"p.	c #3D230E",
"q.	c #5C8EA5",
"r.	c #212B1E",
"s.	c #1D2719",
"            . + + @ .   # $ $ $ $ $ $ $       . + + + @ .                   % & ",
"        * + + +         = - - - - - - ;       . + + +                           ",
"        > . + + > > > , ' ) ! - - - ~ { > >   * . . *                 % ] ^ ^ ^ ",
"            . + + + * / / / ) - - - + + + *                           ( _ - - - ",
":   $ : : : , $ + + * / / / < [ } , + . * >           : : : : $       ( | 1 { - ",
"/   $ / / / / / + + * / / / / / 2 2 2 2 2 2 2 2       / / / / ,       ( ( (   - ",
"* 3 | 4 1 / / / 5 : = / / / / 2 6 6 7 7 6 6 6 6 2 = = / : * * >       ] * 8 . > ",
"+ ( ( ( 9 / / / / / / / / / 2 6 6 0 0 6 6 6 6 6 0 2 / / : + + *         > + + + ",
"+ + + + a ( , / / / / / : 2 6 6 0 0 6 6 6 6 6 6 0 0 2 + .                   * + ",
"+ + + + a ( , / / / / / : 2 6 6 7 7 6 6 6 6 6 6 0 0 b b b b b               * + ",
". . . . c ( d , / / / = : 2 b b 0 0 b b b 2 6 0 0 0 e e e e b > > , } } } } f   ",
"        g ( ( ( / / =   , 2 2 2 b b 2 2 h 2 0 0 e e i i e b   * + ; - - - - - - ",
"*       * g c a j $ $   $ 2 2 2 h h 2 2 i 2 0 e i h h e b     k a 1 f - - - - - ",
"+           . + + + .     2 b b e i h i i 2 l l b h i 2       m ( ( ( - - - - - ",
"& a _       > > > > >     2 b b e i h i i 2 l l b b 2         > * m 8   $ < < < ",
"( ( a                   2 n h h h h h n i 2 l l l l 2             . + + * / / / ",
"  + + + *               2 n n i i i h n n i b 2 2 2     > + + , / / / / / / / / ",
"  + + + *               2 7 n b b b h 7 n b 2 6 6 2     > + + $ = / / / / / / / ",
"            = / / / / / : 2 0 b 2 2 b b b 0 6 6 i i 2   > + + + + = / / / / :   ",
", , $   > > , o / / / / = 2 6 0 l l 0 0 0 6 6 i i i i b $ > > > > , o / / / :   ",
"/ / =   * + + + / / / / / 2 6 n 7 7 n 0 0 6 6 i i i i b / / / / / * + / / / :   ",
"/ / = : $ * . +   p $ / / 2 6 0 l l 0 0 0 6 6 h i i h 2 , / / / / , $ , : / :   ",
"/ / / / :   . + + + * / / / 2 0 7 7 0 0 0 6 6 l b 2 2 + > / / / / / /   $ / :   ",
"> / / / = =   > > q r s : / t u v v v v v l 0 6 2 > > + % * * w / / / = : $ $   ",
"+ / / / / / $ x y z A B C D E F G H I J K L M N O P Q R S T U , / / / / =       ",
"/ / =     V W X Y Z `  ...+.@.#.$.%.&.*.*.*.=.-.;.>.,.'.).!.~./ / $             ",
"= / = $ {.].^./.(._.:.<.[.}.|.1.2.3.4.5.6.7.8.9.0.a.b.c.d.e.f./ / $ $         > ",
"+ / / / g.h.i.j.k.l.m.n.>   o.p.l q.q.q.l 2 2 2 2       > + + , / / /       . ( ",
"* : : : ,             > > > 2 0 0 0 0 0 0 0 l l l 2     > . . $ : : :       . ( ",
"                    > + + 2 l 0 0 0 0 0 0 0 l l l 2                         . ( ",
"                    > + + 2 2 2 2 2 2 2 2 2 2 2 2 2                         . ( ",
"                      > * 2 h h b 2 > ] 2 b h h h 2                         > r.",
"                        * 2 h h h 2       2 h h h b 2                           ",
"    > + + + >           2 b h h h 2         2 h h h 2                 & 4 / / / ",
"    > + + + >         2 i h i i h 2         2 i i h i 2               ( c / / / ",
"/       * + + + + + + + a ( ( ( ( (               / / / / / / ,       ( ( ( r./ ",
":       > . . . . . . + 8 & ( ( ( ( * ]     > $ $ / / / = : : $       a | & % : ",
"+                   > + + + s.( ( ( ( |   * + , / / / / : + + *         > + + + ",
"*               * * * + + + c a a a a 8 * > $ = / / / $   * * >           * . + ",
"                + + + + + + + + + + + + +   / / / / / + .                   * + "};
