/* XPM */
static char * 2_xpm[] = {
"40 40 267 2",
"  	c #1D2619",
". 	c #212B1D",
"+ 	c #232E20",
"@ 	c #202B1D",
"# 	c #1F2A1D",
"$ 	c #1F2A1C",
"% 	c #242F21",
"& 	c #242F20",
"* 	c #2A3626",
"= 	c #2C3828",
"- 	c #273224",
"; 	c #212C1E",
"> 	c #263223",
", 	c #222C1F",
"' 	c #222D1F",
") 	c #273223",
"! 	c #283424",
"~ 	c #2C3728",
"{ 	c #2B3627",
"] 	c #273324",
"^ 	c #253022",
"/ 	c #1F291C",
"( 	c #1C2518",
"_ 	c #283325",
": 	c #242E20",
"< 	c #1E271A",
"[ 	c #263123",
"} 	c #263122",
"| 	c #2A3526",
"1 	c #293426",
"2 	c #1E291B",
"3 	c #273124",
"4 	c #1F281B",
"5 	c #1D271A",
"6 	c #232D1F",
"7 	c #1E281A",
"8 	c #253021",
"9 	c #1F291B",
"0 	c #242E21",
"a 	c #232D20",
"b 	c #1E281B",
"c 	c #202A1C",
"d 	c #202A1D",
"e 	c #222C1E",
"f 	c #293425",
"g 	c #293525",
"h 	c #283425",
"i 	c #2B3727",
"j 	c #282E1E",
"k 	c #282F1F",
"l 	c #242A1A",
"m 	c #262C1C",
"n 	c #393A1F",
"o 	c #786B28",
"p 	c #716527",
"q 	c #1D231B",
"r 	c #1E241B",
"s 	c #2C2F1B",
"t 	c #564E21",
"u 	c #7B6E29",
"v 	c #928230",
"w 	c #8F7F2F",
"x 	c #726627",
"y 	c #49421E",
"z 	c #1C2219",
"A 	c #253023",
"B 	c #26281A",
"C 	c #514A21",
"D 	c #675D27",
"E 	c #908030",
"F 	c #80732C",
"G 	c #706326",
"H 	c #1E251C",
"I 	c #1D2219",
"J 	c #32331C",
"K 	c #494622",
"L 	c #504C23",
"M 	c #796D2A",
"N 	c #736728",
"O 	c #5E5421",
"P 	c #615722",
"Q 	c #1F251C",
"R 	c #232E21",
"S 	c #1B1C14",
"T 	c #373A20",
"U 	c #3A3C20",
"V 	c #8D7D2E",
"W 	c #5B5120",
"X 	c #3A351A",
"Y 	c #141412",
"Z 	c #1D1B13",
"` 	c #47411D",
" .	c #8A7A2D",
"..	c #171A15",
"+.	c #1C2117",
"@.	c #2F311C",
"#.	c #464522",
"$.	c #7E712B",
"%.	c #594F1F",
"&.	c #4F471E",
"*.	c #263023",
"=.	c #3B3D20",
"-.	c #5E5625",
";.	c #3A3418",
">.	c #171914",
",.	c #34341D",
"'.	c #534D23",
").	c #504B23",
"!.	c #7F712D",
"~.	c #5F502F",
"{.	c #15191A",
"].	c #192C35",
"^.	c #2F2B16",
"/.	c #6F6327",
"(.	c #161914",
"_.	c #171713",
":.	c #2C2C1A",
"<.	c #4C4822",
"[.	c #5F5625",
"}.	c #5E5525",
"|.	c #8A7B30",
"1.	c #301D2F",
"2.	c #141717",
"3.	c #17242A",
"4.	c #201F15",
"5.	c #454220",
"6.	c #1D251A",
"7.	c #292918",
"8.	c #3F3A1C",
"9.	c #70632B",
"0.	c #371F36",
"a.	c #4A2547",
"b.	c #281A27",
"c.	c #1A1817",
"d.	c #32292A",
"e.	c #212C1F",
"f.	c #191913",
"g.	c #2D301C",
"h.	c #3E3E21",
"i.	c #5D5426",
"j.	c #544434",
"k.	c #5D2D5B",
"l.	c #51284F",
"m.	c #542650",
"n.	c #772671",
"o.	c #73266D",
"p.	c #4D274B",
"q.	c #363318",
"r.	c #7A6E2B",
"s.	c #74692A",
"t.	c #64592A",
"u.	c #7E6748",
"v.	c #5F2E5C",
"w.	c #672E63",
"x.	c #932D8B",
"y.	c #8E2D86",
"z.	c #592C57",
"A.	c #151613",
"B.	c #37371C",
"C.	c #8F802F",
"D.	c #766A2A",
"E.	c #524C23",
"F.	c #575124",
"G.	c #907F33",
"H.	c #826C44",
"I.	c #846C48",
"J.	c #8F685F",
"K.	c #764A5D",
"L.	c #7A4F5D",
"M.	c #906C5C",
"N.	c #7A6640",
"O.	c #161814",
"P.	c #373519",
"Q.	c #716629",
"R.	c #474522",
"S.	c #3F4021",
"T.	c #6C6328",
"U.	c #82742C",
"V.	c #84762D",
"W.	c #212B1E",
"X.	c #292E1D",
"Y.	c #47421D",
"Z.	c #5D5421",
"`.	c #3D381B",
" +	c #434221",
".+	c #151713",
"++	c #1F271C",
"@+	c #242C1D",
"#+	c #232A1C",
"$+	c #1C1D14",
"%+	c #1B1C13",
"&+	c #3A361A",
"*+	c #23261A",
"=+	c #3A220F",
"-+	c #4D2E14",
";+	c #8E5929",
">+	c #523819",
",+	c #965D2B",
"'+	c #955C2A",
")+	c #9A5D2C",
"!+	c #C37D43",
"~+	c #BE7940",
"{+	c #935727",
"]+	c #8A5225",
"^+	c #292D1E",
"/+	c #47280D",
"(+	c #5E3614",
"_+	c #AC662D",
":+	c #B56C30",
"<+	c #BB7034",
"[+	c #DF8D4A",
"}+	c #F09A53",
"|+	c #EE9852",
"1+	c #D88846",
"2+	c #AB662D",
"3+	c #282819",
"4+	c #57491E",
"5+	c #5F4C20",
"6+	c #835D28",
"7+	c #885F29",
"8+	c #8C622C",
"9+	c #B47B3F",
"0+	c #EC9751",
"a+	c #C67B3D",
"b+	c #744E26",
"c+	c #2B2E1B",
"d+	c #1A2017",
"e+	c #4F3922",
"f+	c #B97841",
"g+	c #4C2D14",
"h+	c #161612",
"i+	c #282816",
"j+	c #564D21",
"k+	c #7C6F2B",
"l+	c #594A25",
"m+	c #9C6335",
"n+	c #996334",
"o+	c #825D29",
"p+	c #1A2018",
"q+	c #5F3D22",
"r+	c #E3924E",
"s+	c #3B381A",
"t+	c #8D7E2F",
"u+	c #605925",
"v+	c #242517",
"w+	c #272415",
"x+	c #595123",
"y+	c #E3914E",
"z+	c #3D2513",
"A+	c #6E421F",
"B+	c #151512",
"C+	c #3C3719",
"D+	c #8A7B2E",
"E+	c #433D1C",
"F+	c #413421",
"G+	c #946337",
"H+	c #1C2419",
"I+	c #1B2319",
"J+	c #222A1F",
"K+	c #303321",
"L+	c #625B29",
"M+	c #615A27",
"N+	c #605825",
"O+	c #5B5423",
"P+	c #22281A",
"Q+	c #403F20",
"R+	c #3D3C1F",
"  . + + + + + + + + + @ # $ $ $ @ + + + % % % % % % % & + @ # $ $ @ + + + + + + ",
"+ + + + + + + + + + + + + $ $ $ @ + + + * = = = = = = - + + + + $ $ $ ; + + + + ",
"> > > , . + + + + + + + + ; @ @ ; + ' ' ) ! = = = ~ { ] ^ ' ' ' $ $ @ ' + + + + ",
"= = = / ( + + + + + + + + + + + + + ; $ $ $ = = = { _ _ _ ; $ $ $ @ + + + + + + ",
"= ) : < ( + + + % [ [ [ [ + + + + + ' ; @ $ ^ } | 1 _ _ _ ; $ $ % ^ [ [ [ % + [ ",
"= + ( ( ( + + + ^ _ _ _ _ + + + + + + + @ $ $ @ _ _ _ _ _ ; $ $ _ _ _ _ _ % + _ ",
"' @ 2 ; , + + + ' ; ; [ _ - - + + + ^ - - [ [ - _ _ _ _ _ - [ 3 _ _ _ : 4 < 5 ; ",
"$ $ $ ' + + + + ; $ $ [ _ _ _ + + + [ _ _ _ _ _ _ _ _ _ _ _ _ _ _ _ _ 6 ( ( ( $ ",
"$ ; + + + + + + + + + @ $ _ - $ $ $ $ $ [ _ _ _ _ [ + [ _ _ _ _ _ ^ ( 7 $ $ $ $ ",
"$ ; + + + + + + + + + @ $ _ - $ $ $ $ $ [ _ _ _ _ [ + [ _ _ _ _ _ ^ ( 7 $ $ $ $ ",
"+ 8 } } } } ^ ' ' + + ; @ - [ @ @ $ 9 2 0 ^ _ _ _ - % [ - _ _ _ ^ a ( b @ @ @ @ ",
"= = = = = = * $ ; + + + + + + + ' $ 5 ( ( ( _ _ _ _ _ ^ + - _ _ ( ( ( c + + + + ",
"= = = = = 8 : 7 d + + + + + + c / 7   ( 5 7 % % [ [ [ % + % % 0 7 b c ; + + + ; ",
"= = = = = ( ( ( 9 + + + + + ' ( ( ( ( ( 2 $ $ # + + + + + @ $ $ $ @ + + + + + $ ",
"1 1 1 % + 2 9 ; ' + + + + b 7 2 e ! ! ! f g g h + + + + + ' ' ' ' ' + + + / 7   ",
"_ _ _ ; $ $ @ + + + + + + ( ( $ & = = = = = = i + + + + + + + + + + + + + 7 ( ( ",
"_ _ _ _ _ _ _ _ ^ $ $ ' + + + + + + h i j j j k _ [ + + + + + + + + + ; $ $ $ + ",
"_ _ _ _ _ _ _ - % $ $ ' + + + + 6 l m n o o o p q r + + + + + + + + + ; $ $ $ + ",
"+ [ _ _ _ _ - $ $ $ $ ' + + + 6 s t o u v v v w x y z [ _ _ _ _ _ - + + + + + + ",
"+ [ _ _ _ A ^ ' ' ' ' % ^ + ' B C D v v v v v v E F G H _ _ _ _ A ^ ' ' + % ^ ^ ",
"+ [ _ _ _ $ ; _ _ _ _ _ _ ' I J K L M v v w N O P M w G Q _ _ _ $ $ $ ; + - _ _ ",
"+ [ _ [ ^ % ^ _ _ _ _ ^ R d S T T U L M V W X Y Z ` M  ...% R + $ @ ; % [ - _ _ ",
"+ [ _ % + _ _ _ _ _ _ ' 2 +.@.T T T #.$.%.Y Y Y Y Z &. ...; $ $ $ @ + [ _ _ _ _ ",
"+ % % [ - _ _ _ *.; ; @ b S T T T =.-. .Y Y Y Y Y Y ;. .>.+ ' ' ' + - - _ _ _ ' ",
"+ + + - _ _ _ _ ^ $ $ 2 +.,.'.'.).#.!.~.Y {.].Y {.].^./.(.+ + + + % _ _ _ _ _ $ ",
"+ + + + + + % _ _ _ _ ' _.:.<.[.}.-.|.1.Y 2.3.Y 2.3.4.5.(.+ + + + + + + + - _ _ ",
"' + + + + % % _ _ - - + 6._.7.8.K L 9.0.a.b.Y Y Y Y c.d.(.+ + + + + + + % - _ - ",
"( @ + + + _ _ _ ^ $ $ ' e.f.g.@.T h.i.j.k.l.m.n.n.n.o.p.(.+ + + + + + [ _ _ _ $ ",
"( @ + + + [ [ [ % @ @ ' 6 q.r.r.s.U <.t.u.v.w.x.x.x.y.z.A.z + + + + + ^ [ [ [ ; ",
"( @ + + + + + + + + + 6 B.u v v C.D.E.F.G.H.I.J.K.L.M.N.Y O.+ + + + + + + + + + ",
"( @ + + + + + + + + + 6 P.M v v w Q.R.S.T.v v E U.V.v  .Y O.+ + + + + + + + + + ",
"W.' + + + + + + + + + + X.Y.P P Z.`.T T  +M v v v v w /..++++ + + + + + + + + + ",
"+ + + + + + + + + + + + + @+#+$+%+S T T U <.O O O O W &++++ + + + + + + + + + + ",
"_ _ _ 4   + + + + + + + + + ' *+=+-+;+>+,+'+)+!+~+{+]+O.+ + + + + ' $ $ $ ' + + ",
"_ _ _ b ( + + + + + + + + + + ^+/+(+_+(+:+<+[+}+|+1+2+O.+ + + + + ' $ $ $ ' + + ",
"_ W.( ( ( + + + ^ _ 3 q q q q 3+4+5+6+5+7+8+9+}+0+a+b+c+d+$ $ $ $ $ $ ; + + + _ ",
"[ .   < 7 + + + a e+f+g+]+h+i+j+U.U.U.U.U.k+l+m+n+o+'.E.y p+@ @ @ @ @ ' + + + [ ",
"$ $ $ ' + + + + d q+r+(+2+_.s+V.v v v v t+u+v+Y w+[.[.[.x+O.+ + + + + + + + + $ ",
"$ @ ; + + + + + W.q+y+z+A+B+C+v v v v v D+v+Y Y Z E+[.[.x+O.; ; + + + + + + + ; ",
"$ ; + + + + + + ' F+G+H+I+J+K+L+L+L+M+N+O+I+I+I+I+P+Q+Q+R+H+$ $ + + + + + + + + "};
