/* XPM */
static char * 3_xpm[] = {
"40 40 272 2",
"  	c #1D2619",
". 	c #212B1D",
"+ 	c #232E20",
"@ 	c #202B1D",
"# 	c #1F2A1D",
"$ 	c #1F2A1C",
"% 	c #242F21",
"& 	c #242F20",
"* 	c #2A3626",
"= 	c #2C3828",
"- 	c #273224",
"; 	c #212C1E",
"> 	c #263223",
", 	c #222C1F",
"' 	c #222D1F",
") 	c #273223",
"! 	c #283424",
"~ 	c #2C3728",
"{ 	c #2B3627",
"] 	c #273324",
"^ 	c #253022",
"/ 	c #1F291C",
"( 	c #1C2518",
"_ 	c #283325",
": 	c #242E20",
"< 	c #1E271A",
"[ 	c #263123",
"} 	c #263122",
"| 	c #2A3526",
"1 	c #293426",
"2 	c #1E291B",
"3 	c #273124",
"4 	c #1F281B",
"5 	c #1D271A",
"6 	c #232D1F",
"7 	c #1E281A",
"8 	c #253021",
"9 	c #1F291B",
"0 	c #242E21",
"a 	c #232D20",
"b 	c #1E281B",
"c 	c #202A1C",
"d 	c #202A1D",
"e 	c #222C1E",
"f 	c #293425",
"g 	c #293525",
"h 	c #283425",
"i 	c #2B3727",
"j 	c #2B3527",
"k 	c #1D231B",
"l 	c #1C221A",
"m 	c #1B2018",
"n 	c #1C2219",
"o 	c #283324",
"p 	c #1F261C",
"q 	c #282B1C",
"r 	c #544B20",
"s 	c #766927",
"t 	c #726627",
"u 	c #4A431F",
"v 	c #242A1A",
"w 	c #242A1B",
"x 	c #20261B",
"y 	c #2D301C",
"z 	c #32331C",
"A 	c #575124",
"B 	c #928230",
"C 	c #908030",
"D 	c #81732C",
"E 	c #746727",
"F 	c #4C451F",
"G 	c #262D1E",
"H 	c #253023",
"I 	c #1E2319",
"J 	c #2F311C",
"K 	c #373A20",
"L 	c #3B3D20",
"M 	c #5E5625",
"N 	c #7D702B",
"O 	c #252B1D",
"P 	c #1C211A",
"Q 	c #1B1C14",
"R 	c #464522",
"S 	c #84762D",
"T 	c #7B6E2A",
"U 	c #242717",
"V 	c #232E21",
"W 	c #1E241A",
"X 	c #4B441F",
"Y 	c #444322",
"Z 	c #7D712B",
"` 	c #8D7D2E",
" .	c #5E5421",
"..	c #615722",
"+.	c #756929",
"@.	c #796D2A",
"#.	c #8C7D2E",
"$.	c #4B451F",
"%.	c #1A2018",
"&.	c #212C1F",
"*.	c #3E3E21",
"=.	c #5E5525",
"-.	c #504B23",
";.	c #594F1F",
">.	c #141412",
",.	c #1D1B13",
"'.	c #3D381B",
").	c #433C1B",
"!.	c #7A6D2A",
"~.	c #161814",
"{.	c #263023",
"].	c #171713",
"^.	c #2C2C1A",
"/.	c #4C4822",
"(.	c #80732C",
"_.	c #6F6327",
":.	c #4F471E",
"<.	c #8A7A2D",
"[.	c #161914",
"}.	c #31301A",
"|.	c #5F5625",
"1.	c #635926",
"2.	c #8B7C2E",
"3.	c #3A351A",
"4.	c #2F2B16",
"5.	c #171914",
"6.	c #2B2E1B",
"7.	c #494622",
"8.	c #8D7D30",
"9.	c #5F502F",
"0.	c #342F17",
"a.	c #7E712B",
"b.	c #595020",
"c.	c #1F271C",
"d.	c #383519",
"e.	c #796C29",
"f.	c #766A2A",
"g.	c #585124",
"h.	c #70632B",
"i.	c #301D2F",
"j.	c #3A3418",
"k.	c #37371C",
"l.	c #7B6E29",
"m.	c #7B6F2B",
"n.	c #3A3C20",
"o.	c #5B5127",
"p.	c #321E31",
"q.	c #281A27",
"r.	c #211F14",
"s.	c #4F481F",
"t.	c #413C1B",
"u.	c #8C7D2F",
"v.	c #534D23",
"w.	c #544E23",
"x.	c #635927",
"y.	c #756536",
"z.	c #51284F",
"A.	c #492546",
"B.	c #272415",
"C.	c #595123",
"D.	c #313018",
"E.	c #645A23",
"F.	c #8F7F2F",
"G.	c #736729",
"H.	c #5D5425",
"I.	c #534E23",
"J.	c #8D7B38",
"K.	c #642E61",
"L.	c #812C7B",
"M.	c #73266D",
"N.	c #181516",
"O.	c #2D2028",
"P.	c #3A361B",
"Q.	c #242C1D",
"R.	c #292E1D",
"S.	c #47421D",
"T.	c #5C5221",
"U.	c #4A4722",
"V.	c #907F33",
"W.	c #806848",
"X.	c #7A4764",
"Y.	c #912D89",
"Z.	c #772671",
"`.	c #4D274B",
" +	c #212B1E",
".+	c #1C1D14",
"++	c #1B1C13",
"@+	c #675D27",
"#+	c #807035",
"$+	c #932D8B",
"%+	c #902D88",
"&+	c #712C6C",
"*+	c #3A2138",
"=+	c #202017",
"-+	c #3A220F",
";+	c #382411",
">+	c #847336",
",+	c #926C5F",
"'+	c #906C5C",
")+	c #7A6640",
"!+	c #252719",
"~+	c #4C431D",
"{+	c #47280D",
"]+	c #563213",
"^+	c #965D2B",
"/+	c #8E5A2A",
"(+	c #665B23",
"_+	c #4F4820",
":+	c #5E5424",
"<+	c #57491E",
"[+	c #694E21",
"}+	c #B56C30",
"|+	c #B16A2F",
"1+	c #9D622F",
"2+	c #C58045",
"3+	c #C07C41",
"4+	c #A2712E",
"5+	c #27291B",
"6+	c #564D21",
"7+	c #82742C",
"8+	c #655726",
"9+	c #885F29",
"0+	c #875D28",
"a+	c #945A2A",
"b+	c #F09A53",
"c+	c #EE9852",
"d+	c #D98948",
"e+	c #BA7940",
"f+	c #59501F",
"g+	c #1B2318",
"h+	c #1B2119",
"i+	c #1D2219",
"j+	c #393519",
"k+	c #7C6E2A",
"l+	c #513C1F",
"m+	c #A36737",
"n+	c #D28343",
"o+	c #E7944F",
"p+	c #8A5225",
"q+	c #151613",
"r+	c #1A2117",
"s+	c #4F3721",
"t+	c #BE7940",
"u+	c #6F6428",
"v+	c #242517",
"w+	c #362716",
"x+	c #8C622C",
"y+	c #A9753B",
"z+	c #A67339",
"A+	c #805927",
"B+	c #151713",
"C+	c #CA8145",
"D+	c #EA9550",
"E+	c #AB662D",
"F+	c #151512",
"G+	c #3C3719",
"H+	c #706528",
"I+	c #413421",
"J+	c #9D6839",
"K+	c #996538",
"L+	c #714925",
"M+	c #1E261B",
"N+	c #2C2F1B",
"O+	c #605825",
"P+	c #625B29",
"Q+	c #5F5929",
"R+	c #404024",
"S+	c #1B2319",
"T+	c #22281A",
"U+	c #403F20",
"V+	c #3D3C1F",
"W+	c #1C2419",
"  . + + + + + + + + + @ # $ $ $ @ + + + % % % % % % % & + @ # $ $ @ + + + + + + ",
"+ + + + + + + + + + + + + $ $ $ @ + + + * = = = = = = - + + + + $ $ $ ; + + + + ",
"> > > , . + + + + + + + + ; @ @ ; + ' ' ) ! = = = ~ { ] ^ ' ' ' $ $ @ ' + + + + ",
"= = = / ( + + + + + + + + + + + + + ; $ $ $ = = = { _ _ _ ; $ $ $ @ + + + + + + ",
"= ) : < ( + + + % [ [ [ [ + + + + + ' ; @ $ ^ } | 1 _ _ _ ; $ $ % ^ [ [ [ % + [ ",
"= + ( ( ( + + + ^ _ _ _ _ + + + + + + + @ $ $ @ _ _ _ _ _ ; $ $ _ _ _ _ _ % + _ ",
"' @ 2 ; , + + + ' ; ; [ _ - - + + + ^ - - [ [ - _ _ _ _ _ - [ 3 _ _ _ : 4 < 5 ; ",
"$ $ $ ' + + + + ; $ $ [ _ _ _ + + + [ _ _ _ _ _ _ _ _ _ _ _ _ _ _ _ _ 6 ( ( ( $ ",
"$ ; + + + + + + + + + @ $ _ - $ $ $ $ $ [ _ _ _ _ [ + [ _ _ _ _ _ ^ ( 7 $ $ $ $ ",
"$ ; + + + + + + + + + @ $ _ - $ $ $ $ $ [ _ _ _ _ [ + [ _ _ _ _ _ ^ ( 7 $ $ $ $ ",
"+ 8 } } } } ^ ' ' + + ; @ - [ @ @ $ 9 2 0 ^ _ _ _ - % [ - _ _ _ ^ a ( b @ @ @ @ ",
"= = = = = = * $ ; + + + + + + + ' $ 5 ( ( ( _ _ _ _ _ ^ + - _ _ ( ( ( c + + + + ",
"= = = = = 8 : 7 d + + + + + + c / 7   ( 5 7 % % [ [ [ % + % % 0 7 b c ; + + + ; ",
"= = = = = ( ( ( 9 + + + + + ' ( ( ( ( ( 2 $ $ # + + + + + @ $ $ $ @ + + + + + $ ",
"1 1 1 % + 2 9 ; ' + + + + b 7 2 e ! ! ! f g g h + + + + + ' ' ' ' ' + + + / 7   ",
"_ _ _ ; $ $ @ + + + + + + ( ( $ & = = = = = = i + + + + + + + + + + + + + 7 ( ( ",
"_ _ _ _ _ _ _ _ ^ $ $ ' + + + + + + h = = = = j k l m m n + + + + + + ; $ $ $ + ",
"_ _ _ _ _ _ _ - % $ $ ' + + + + + + o i { p p q r s s t u v w + + + + ; $ $ $ + ",
"+ [ _ _ _ _ - $ $ $ $ ' + + + + + + ' m x y y z A B B C D E F G _ - + + + + + + ",
"+ [ _ _ _ H ^ ' ' ' ' % ^ + + ^ ^ 0 I y J K K L M B B B B C N F O ^ ' ' + % ^ ^ ",
"+ [ _ _ _ $ ; _ _ _ _ _ _ + + _ 3 P Q K K K K R S B B B B B C T U $ $ ; + - _ _ ",
"+ [ _ [ ^ % ^ _ _ _ _ ^ V ; ; 0 W z X K K K Y Z `  ...+.@.B B #.$.%.; % [ - _ _ ",
"+ [ _ % + _ _ _ _ _ _ ' $ $ $ &.Q *.=.-.K L M ` ;.>.,.'.)...@.C !.~.+ [ _ _ _ _ ",
"+ % % [ - _ _ _ {.; ; @ $ ' ' &.].^./.=.-.R (._.>.>.>.>.>.,.:.B <.[.- - _ _ _ ' ",
"+ + + - _ _ _ _ ^ $ $ $ $ + + &.>.].}.|.1.Z 2.3.>.>.>.>.>.>.4.@.<.5._ _ _ _ _ $ ",
"+ + + + + + % _ _ _ _ % + 6 v 6.u y z 7.A 8.9.>.>.>.>.>.>.>.0.a.b.c.+ + + - _ _ ",
"' + + + + % % _ _ - - % + 6 d.e.D f.-.L g.h.i.>.>.>.>.>.>.>.j.<.[.+ + + % - _ - ",
"( @ + + + _ _ _ ^ $ $ ' 6 k.l.B B C m.n./.o.p.q.>.>.>.>.>.r.s.b.c.+ + [ _ _ _ $ ",
"( @ + + + [ [ [ % @ @ ' 6 t.B B B B u.v.w.x.y.z.A.>.>.>.>.B.C.[.+ + + ^ [ [ [ ; ",
"( @ + + + + + + + + + + 6 D.E.@.B F.G.H.I.S J.K.L.M.A.>.N.O.P.c.+ + + + + + + + ",
"( @ + + + + + + + + + + + Q.R.S...T.7.U.M B V.W.X.Y.L.Z.M.`.[.+ + + + + + + + + ",
" +' + + + + + + + + + + + + , .+++Q K *.@+B B C #+X.$+%+&+*+c.+ + + + + + + + + ",
"+ + + + + + + + + + + + + ' =+-+;+J K *.@+B B B C >+,+'+)+[.+ + + + + + + + + + ",
"_ _ _ 4   + + + + + + + ' !+~+{+]+^+/+n./.(+B B B B B ` b.c.+ + + ' $ $ $ ' + + ",
"_ _ _ b ( + + + + + + ' !+_+:+<+[+}+|+1+2+3+4+(+B B ` b.c.+ + + + ' $ $ $ ' + + ",
"_  +( ( ( + + + ^ _ 3 5+6+7+7+a.8+9+0+a+b+c+d+e+ . .f+g+$ $ $ $ $ $ $ ; + + + _ ",
"[ .   < 7 + + ' h+l i+j+S B B C 7+7+k+l+m+n+b+o+p+q+r+2 $ @ @ @ @ @ @ ' + + + [ ",
"$ $ $ ' + + ' s+t+p+].t.B B B B B F.u+v+w+x+y+z+A+B+$ $ $ ' + + + + + + + + + $ ",
"$ @ ; + + ' s+C+D+E+F+G+B B B B F.H+3.>.B.|.|.|.C.B+$ $ $ ; ; ; + + + + + + + ; ",
"$ ; + + + ' I+J+K+L+M+N+O+P+P+P+Q+R+M+S+T+U+U+U+V+W+$ $ $ $ $ $ + + + + + + + + "};
