/* XPM */
static char * 1_xpm[] = {
"40 40 94 2",
"  	c #232E20",
". 	c #202B1D",
"+ 	c #1F2A1C",
"@ 	c #1F2A1D",
"# 	c #242F20",
"$ 	c #242F21",
"% 	c #212B1D",
"& 	c #1D2619",
"* 	c #212C1E",
"= 	c #273224",
"- 	c #2C3828",
"; 	c #2A3626",
"> 	c #222D1F",
", 	c #253022",
"' 	c #273324",
") 	c #2B3627",
"! 	c #2C3728",
"~ 	c #283424",
"{ 	c #273223",
"] 	c #222C1F",
"^ 	c #263223",
"/ 	c #283325",
"( 	c #1C2518",
"_ 	c #202A1D",
": 	c #263123",
"< 	c #293426",
"[ 	c #2A3526",
"} 	c #263122",
"| 	c #1E271A",
"1 	c #242E20",
"2 	c #252716",
"3 	c #1D271A",
"4 	c #1F281B",
"5 	c #273124",
"6 	c #141512",
"7 	c #5F5625",
"8 	c #928230",
"9 	c #1E291B",
"0 	c #232D1F",
"a 	c #1E281A",
"b 	c #5E5625",
"c 	c #141412",
"d 	c #918130",
"e 	c #605625",
"f 	c #151512",
"g 	c #373A20",
"h 	c #1E281B",
"i 	c #232D20",
"j 	c #605725",
"k 	c #161512",
"l 	c #253021",
"m 	c #202A1C",
"n 	c #191813",
"o 	c #222D1E",
"p 	c #242E21",
"q 	c #161612",
"r 	c #0C97D5",
"s 	c #141719",
"t 	c #0C98D6",
"u 	c #171612",
"v 	c #1F291B",
"w 	c #1F291C",
"x 	c #1C3845",
"y 	c #141413",
"z 	c #342032",
"A 	c #383A20",
"B 	c #293326",
"C 	c #283225",
"D 	c #331E32",
"E 	c #151413",
"F 	c #5F2E5C",
"G 	c #331F32",
"H 	c #5E2E5B",
"I 	c #932D8B",
"J 	c #393B20",
"K 	c #253023",
"L 	c #232E21",
"M 	c #5E5525",
"N 	c #263023",
"O 	c #B46C30",
"P 	c #B56C30",
"Q 	c #F09A53",
"R 	c #48290D",
"S 	c #47280D",
"T 	c #918230",
"U 	c #212B1E",
"V 	c #151412",
"W 	c #1C1713",
"X 	c #B46B30",
"Y 	c #46280D",
"Z 	c #49290E",
"` 	c #241B14",
" .	c #EE9952",
"..	c #1D2719",
"            . + + @ .   # $ $ $ $ $ $ $       . + + + @ .                   % & ",
"        * + + +         = - - - - - - ;       . + + +                           ",
"        > . + + > > > , ' ) ! - - - ~ { > >   * . . *                 % ] ^ ^ ^ ",
"            . + + + * / / / ) - - - + + + *                           ( _ - - - ",
":   $ : : : , $ + + * / / / < [ } , + . * >           : : : : $       ( | 1 { - ",
"/   $ / / / / / + + * / / / / / 2 2 2 2 2 2 2         / / / / ,       ( ( (   - ",
"* 3 | 4 1 / / / 5 : = / / / / 6 7 7 8 8 8 8 7 2 2 = = / : * * >       ] * 9 . > ",
"+ ( ( ( 0 / / / / / / / / / 6 7 8 8 8 8 8 8 8 8 7 2 / / : + + *         > + + + ",
"+ + + + a ( , / / / / / : 6 b 8 8 8 8 8 8 8 8 8 7 b c + .                   * + ",
"+ + + + a ( , / / / / / : 6 d 8 e f c 7 8 8 8 7 g g g 6 .                   * + ",
". . . . h ( i , / / / = : 6 d j k c c c f 8 7 g g g g 6 *     > > , } } } } l   ",
"        m ( ( ( / / =   , 6 d n c c c c c k 8 g g g g g 6     * + ; - - - - - - ",
"o       * m h a p $ $   $ 6 d n c c c c c k 8 7 g g g g 6     _ a 1 l - - - - - ",
".           . + + + .     6 b q r s c t c c u 8 g g g g g 6   v ( ( & - - - - ! ",
"| a w       > > > > >     6 b q x y c x c c z 8 A 7 7 b g 6   > * v 9   $ < < B ",
"& ( a                     6 g f c c c c c c z 8 7 7 7 g c 6       . + + * / / C ",
"  + + + *                 6 D E c c c c D F G 7 g g c c 6 + + , / / / / / / / / ",
"  + + + *                 6 H I I I I F F F 7 7 g g g g 6 + + $ = / / / / / / / ",
"            = / / / / / 6 c H I I I I F F 8 7 g J 8 8 d 2 + + + + = / / / / :   ",
", , $   > > , K / / / / 6 c d 8 e 7 8 8 8 8 7 e 8 8 8 8 d 2 > > > , K / / / :   ",
"/ / =   * + + + / / / / 6 c d 8 8 8 8 8 8 7 7 e 8 8 8 8 d 2 / / / * + / / / :   ",
"/ / = : $ * . +   L $ / 6 c d 8 8 8 8 8 8 g g g j 8 8 d M 2 / / / , $ , : / :   ",
"/ / / / :   . + + + * / / 6 b 8 8 8 8 8 7 g g g c 2 2 2 2 / / / / / /   $ / :   ",
"> / / / = =   > > >   $ : / 6 c c c c c g g g g c c c + . * * N / / / = : $ $   ",
"+ / / / / / $           , / 6 O P Q Q P P P R O S S   + + + + , / / / / =       ",
"/ / =                       6 O Q Q Q Q P P R O S S     $ / / / / $             ",
"= / = $                   6 g g O Q Q 7 7 7 7 7 7 7 2   $ = = / / $ $         > ",
"+ / / / :                 6 b 7 7 f c 7 8 8 8 8 8 d 2   > + + , / / /       . ( ",
"* : : : ,             > 6 M 7 7 7 f c g 8 8 8 8 8 T b 2 > . . $ : : :       . ( ",
"                    > + 6 M 7 7 7 f c c g 8 8 8 8 8 d 2                     . ( ",
"                    > + 6 M 7 7 k c c 9 f 8 8 8 8 8 d c 6                   . ( ",
"                      > 6 c c c c c > ] c c c c c c c c 6                   > U ",
"                        6 S S S V         * + c W P P X 6                       ",
"    > + + + >         6 c c c c c               V S S Y c 6           & 4 / / / ",
"    > + + + >         6 X P P Z V               c ` Q Q  .6           ( h / / / ",
"/       * + + + + + + + a ( ( ( ( (               / / / / / / ,       ( ( ( U / ",
":       > . . . . . . + 9 & ( ( ( ( * ]     > $ $ / / / = : : $       a | & % : ",
"+                   > + + + ..( ( ( ( |   * + , / / / / : + + *         > + + + ",
"*               * * * + + + h a a a a 9 * > $ = / / / $   * * >           * . + ",
"                + + + + + + + + + + + + +   / / / / / + .                   * + "};
