/* XPM */
static char * 2_xpm[] = {
"40 40 126 2",
"  	c #232E20",
". 	c #202B1D",
"+ 	c #1F2A1C",
"@ 	c #1F2A1D",
"# 	c #242F20",
"$ 	c #242F21",
"% 	c #212B1D",
"& 	c #1D2619",
"* 	c #212C1E",
"= 	c #273224",
"- 	c #2C3828",
"; 	c #2A3626",
"> 	c #222D1F",
", 	c #253022",
"' 	c #273324",
") 	c #2B3627",
"! 	c #2C3728",
"~ 	c #283424",
"{ 	c #273223",
"] 	c #222C1F",
"^ 	c #263223",
"/ 	c #283325",
"( 	c #1F291C",
"_ 	c #2B3727",
": 	c #263123",
"< 	c #293426",
"[ 	c #2A3526",
"} 	c #263122",
"| 	c #1E271A",
"1 	c #242D20",
"2 	c #1C2518",
"3 	c #1D271A",
"4 	c #1F281B",
"5 	c #242E20",
"6 	c #273124",
"7 	c #252716",
"8 	c #1E291B",
"9 	c #232D1F",
"0 	c #283225",
"a 	c #181713",
"b 	c #5F5625",
"c 	c #605725",
"d 	c #928230",
"e 	c #272816",
"f 	c #1E281A",
"g 	c #232D20",
"h 	c #191813",
"i 	c #282916",
"j 	c #263023",
"k 	c #1A1913",
"l 	c #615725",
"m 	c #1E281B",
"n 	c #211F13",
"o 	c #918130",
"p 	c #5E5525",
"q 	c #141412",
"r 	c #151512",
"s 	c #383B20",
"t 	c #373A20",
"u 	c #161613",
"v 	c #212B1E",
"w 	c #253021",
"x 	c #202A1C",
"y 	c #252F22",
"z 	c #293525",
"A 	c #242E21",
"B 	c #90812F",
"C 	c #3A3C20",
"D 	c #161713",
"E 	c #222D20",
"F 	c #202A1D",
"G 	c #1F291B",
"H 	c #141E26",
"I 	c #0C97D5",
"J 	c #14181A",
"K 	c #0C98D6",
"L 	c #141515",
"M 	c #3B3D20",
"N 	c #171713",
"O 	c #141514",
"P 	c #1C3845",
"Q 	c #141413",
"R 	c #331E32",
"S 	c #393B20",
"T 	c #363920",
"U 	c #161414",
"V 	c #321E31",
"W 	c #5F2E5C",
"X 	c #341E33",
"Y 	c #1A1518",
"Z 	c #612E5E",
"` 	c #932D8B",
" .	c #5F5626",
"..	c #253023",
"+.	c #2F2F18",
"@.	c #303018",
"#.	c #283324",
"$.	c #232E21",
"%.	c #5E5625",
"&.	c #625825",
"*.	c #292A17",
"=.	c #273225",
"-.	c #251A13",
";.	c #B56C30",
">.	c #B66D31",
",.	c #F09A53",
"'.	c #492A0E",
").	c #B46B30",
"!.	c #4B2B0E",
"~.	c #47280D",
"{.	c #252E20",
"].	c #3D3C20",
"^.	c #EF9A53",
"/.	c #282917",
"(.	c #2D2D17",
"_.	c #1C2618",
":.	c #615825",
"<.	c #2E2E17",
"[.	c #181512",
"}.	c #46280D",
"|.	c #141512",
"1.	c #B36B2F",
"2.	c #2B1D14",
"3.	c #ED9852",
"4.	c #3B2719",
"5.	c #1D2719",
"            . + + @ .   # $ $ $ $ $ $ $       . + + + @ .                   % & ",
"        * + + +         = - - - - - - ;       . + + +                           ",
"        > . + + > > > , ' ) ! - - - ~ { > >   * . . *                 % ] ^ ^ ^ ",
"            . + + + * / / / ) - - - + + + *                           & ( _ - - ",
":   $ : : : , $ + + * / / / < [ } , + . * >           : : : : $       & | 1 { ! ",
"/   $ / / / / / + + * / / / / / . + + .               / / / / ,       & 2 2 > _ ",
"* 3 | 4 5 / / / 6 : = / / / / / 7 7 7 7 7 7 7     = = / : * * >       ] * 8 . > ",
"+ 2 2 & 9 / / / / / / / / / 0 a b c d d d d c e 7 / / / : + + *         > + + + ",
"+ + + + f & , / / / / / : g h c d d d d d d d d c i / + .                   * + ",
"+ + + + f & , / / / / / j k l d d d d d d d d d c b k ( .                   * + ",
". . . . m & g , / / / = j n d o p q r b d d d c s t t u v     > > , } } } } w   ",
"        x 2 2 & / / =   y n o p q q q q q d c s t t t u g     * + z - - - - - - ",
"*       * x m f A $ $   A n B q q q q q q q o C t t t t D E   F f 5 w ! - - - - ",
"+           . + + + .   g n B q q q q q q q o c s t t t D E   G 2 2 2 _ - - - - ",
"& f (       > > > > >   g k p H I q J K L q q o M t t t t N > > * G 8   $ < < < ",
"2 2 8                   g k p O P q Q P q q R o M p b b S N >     . + + * = / / ",
"  + + + *               g u T q q q q q q q R o c b b S D q ( , / / / / / / / / ",
"  + + + *               g U V q q q q q R W X p s t u q q ( + $ = / / / / / / / ",
"            = / / / / / j Y Z ` ` ` ` W W W  .b s t t t D ( + + + = / / / / :   ",
", , $   > > , ../ / / = q Y Z ` ` ` ` W W d c s t o d d +.> > > > , ../ / / :   ",
"/ / =   * + + . / / / = q n d o b c d d d d c b o d d d d @.#./ / * + = / / :   ",
"/ / = : $ * . +   $.$ = q n d d d d d d d b b s %.o d d &.*.#./ / , $ , : / :   ",
"/ / / / :   . + + + * / =.k l d d d d d b t t t r 7 7 7 7 #./ / / / /   $ / :   ",
"  / / / = =   > > >   $ : 0 q q q q q q t t t t r q q ( . * * j / / / = : $ $   ",
". / / / / / $           , 0 -.;.>.,.,.;.;.;.'.).!.~.{.+ + + + , / / / / =       ",
"/ / =                     g -.>.,.,.,.,.;.;.'.).!.~.{.  $ / / / / $             ",
"= / = $                 g u t ].>.,.^.b b b b b b b /.  $ = = / / $ $         > ",
". / / / :               g k b b p q r b d d d d d d (.  > + + , / / /       . _.",
"* : : : ,             ] k b b b p q q t d d d d d d :.*.> . . $ : : :       . _.",
"                    > ( k b b b p q q q t d d d d d d <.                    . _.",
"                    > ( q q q q q q q 8 q q q q q q q q q E                 . _.",
"                      ] [.~.~.}.|.> > ] q q q q q 1.;.;.2.E                 > v ",
"                    E q q q q q |.        * + > |.}.~.~.[.q >                   ",
"    > + + + >       E 2.;.;.1.}.|.              |.q 3.,.,.4.>         3 4 = / / ",
"    > + + + >           * + + + >                                     & m = / / ",
"/       * + + + + + + + f 2 2 2 2 2               / / / / / / ,       & 2 2 v = ",
":       > . . . . . . + 8 & 2 2 2 2 * ]     > $ $ / / / = : : $       f | & % : ",
"+                   > + + + 5.2 2 2 2 |   * + , / / / / : + + *         > + + + ",
"*               * * * + + + m f f f f 8 * > $ = / / / $   * * >           * . + ",
"                + + + + + + + + + + + + +   / / / / / + .                   * + "};
