/* XPM */
static char * 3_xpm[] = {
"40 40 94 2",
"  	c #232E20",
". 	c #202B1D",
"+ 	c #1F2A1C",
"@ 	c #1F2A1D",
"# 	c #242F20",
"$ 	c #242F21",
"% 	c #212B1D",
"& 	c #1D2619",
"* 	c #212C1E",
"= 	c #273224",
"- 	c #2C3828",
"; 	c #2A3626",
"> 	c #222D1F",
", 	c #253022",
"' 	c #273324",
") 	c #2B3627",
"! 	c #2C3728",
"~ 	c #283424",
"{ 	c #273223",
"] 	c #222C1F",
"^ 	c #263223",
"/ 	c #283325",
"( 	c #1C2518",
"_ 	c #202A1D",
": 	c #263123",
"< 	c #293426",
"[ 	c #2A3526",
"} 	c #263122",
"| 	c #1E271A",
"1 	c #242E20",
"2 	c #1D271A",
"3 	c #1F281B",
"4 	c #273124",
"5 	c #252716",
"6 	c #1E291B",
"7 	c #232D1F",
"8 	c #141512",
"9 	c #5F5625",
"0 	c #928230",
"a 	c #1E281A",
"b 	c #5E5625",
"c 	c #141412",
"d 	c #1E281B",
"e 	c #232D20",
"f 	c #373A20",
"g 	c #253021",
"h 	c #202A1C",
"i 	c #918130",
"j 	c #605625",
"k 	c #151512",
"l 	c #222D1E",
"m 	c #242E21",
"n 	c #605725",
"o 	c #161512",
"p 	c #191813",
"q 	c #1F291B",
"r 	c #1F291C",
"s 	c #293326",
"t 	c #161612",
"u 	c #0C97D5",
"v 	c #141719",
"w 	c #0C98D6",
"x 	c #342032",
"y 	c #383A20",
"z 	c #283225",
"A 	c #1C3845",
"B 	c #141413",
"C 	c #331E32",
"D 	c #151413",
"E 	c #5F2E5C",
"F 	c #331F32",
"G 	c #5E2E5B",
"H 	c #932D8B",
"I 	c #253023",
"J 	c #393B20",
"K 	c #232E21",
"L 	c #383B20",
"M 	c #263023",
"N 	c #B46C30",
"O 	c #B56C30",
"P 	c #F09A53",
"Q 	c #48290D",
"R 	c #47280D",
"S 	c #5E5525",
"T 	c #918230",
"U 	c #151412",
"V 	c #1C1713",
"W 	c #B46B30",
"X 	c #212B1E",
"Y 	c #46280D",
"Z 	c #49290E",
"` 	c #241B14",
" .	c #EE9952",
"..	c #1D2719",
"            . + + @ .   # $ $ $ $ $ $ $       . + + + @ .                   % & ",
"        * + + +         = - - - - - - ;       . + + +                           ",
"        > . + + > > > , ' ) ! - - - ~ { > >   * . . *                 % ] ^ ^ ^ ",
"            . + + + * / / / ) - - - + + + *                           ( _ - - - ",
":   $ : : : , $ + + * / / / < [ } , + . * >           : : : : $       ( | 1 { - ",
"/   $ / / / / / + + * / / / / / . + + .               / / / / ,       ( ( (   - ",
"* 2 | 3 1 / / / 4 : = / / / / / 5 5 5 5 5 5 5     = = / : * * >       ] * 6 . > ",
"+ ( ( ( 7 / / / / / / / / / / 8 9 9 0 0 0 0 9 5 5 / / / : + + *         > + + + ",
"+ + + + a ( , / / / / / :   8 9 0 0 0 0 0 0 0 0 9 5 / + .                   * + ",
"+ + + + a ( , / / / / / : 8 b 0 0 0 0 0 0 0 0 0 9 b c + .                   * + ",
". . . . d ( e , / / / = : 8 b 0 0 0 0 0 0 0 0 0 f f f 8 *     > > , } } } } g   ",
"        h ( ( ( / / =   , 8 i 0 j k c 9 0 0 0 9 f f f 8       * + ; - - - - - - ",
"l       * h d a m $ $   $ 8 i n o c c c k 0 9 f f f f f 8     _ a 1 g - - - - - ",
".           . + + + .     8 i p c c c c c o 0 f f f f f 8     q ( ( & - - - - ! ",
"| a r       > > > > >     8 i p c c c c c o 0 9 f f f f f 8   > * q 6   $ < < s ",
"& ( a                     8 b t u v c w c c x 0 y 9 9 b f 8       . + + * / / z ",
"  + + + *                 8 f k A B c A c c x 0 9 9 9 f c 8 + , / / / / / / / / ",
"  + + + *                 8 C D c c c c C E F 9 f f c c 8 + + $ = / / / / / / / ",
"            = / / / / / : 8 G H H H H E E E 9 9 f f f f 8 + + + + = / / / / :   ",
", , $   > > , I / / / / 8 c G H H H H E E 0 9 f J 0 0 i 5 > > > > , I / / / :   ",
"/ / =   * + + + / / / / 8 c i 0 j 9 0 0 0 0 9 j 0 0 0 0 i 5 / / / * + / / / :   ",
"/ / = : $ * . +   K $ / 8 c i 0 0 0 0 0 0 9 9 L 0 0 0 0 i 5 / / / , $ , : / :   ",
"/ / / / :   . + + + * / / 8 b 0 0 0 0 0 9 f f f n 0 0 i 5 / / / / / /   $ / :   ",
"> / / / = =   > > >   $ : / 8 c c c c c f f f f c c c 8 . * * M / / / = : $ $   ",
"+ / / / / / $           , / 8 N O P P O O O Q N R R   + + + + , / / / / =       ",
"/ / =                       8 N P P P P O O Q N R R     $ / / / / $             ",
"= / = $                   8 f f N P P 9 9 9 9 9 9 9 5   $ = = / / $ $         > ",
"+ / / / :                 8 b 9 9 k c 9 0 0 0 0 0 i 5   > + + , / / /       . ( ",
"* : : : ,             > 8 S 9 9 9 k c f 0 0 0 0 0 T b 5 > . . $ : : :       . ( ",
"                    > + 8 S 9 9 9 k c c f 0 0 0 0 0 i 5                     . ( ",
"                    > + 8 S 9 9 o c c 6 k 0 0 0 0 0 i c 8                   . ( ",
"                      > 8 R R R U > > ] c c c c V O O W 8                   > X ",
"                      8 c c c c c         * + > U R R Y c 8                     ",
"    > + + + >         8 W O O Z U               c ` P P  .8           & 3 / / / ",
"    > + + + >           * + + + >                                     ( d / / / ",
"/       * + + + + + + + a ( ( ( ( (               / / / / / / ,       ( ( ( X / ",
":       > . . . . . . + 6 & ( ( ( ( * ]     > $ $ / / / = : : $       a | & % : ",
"+                   > + + + ..( ( ( ( |   * + , / / / / : + + *         > + + + ",
"*               * * * + + + d a a a a 6 * > $ = / / / $   * * >           * . + ",
"                + + + + + + + + + + + + +   / / / / / + .                   * + "};
