/* XPM */
static char * 1_xpm[] = {
"40 40 170 2",
"  	c #1D2619",
". 	c #212B1D",
"+ 	c #232E20",
"@ 	c #202B1D",
"# 	c #1F2A1D",
"$ 	c #1F2A1C",
"% 	c #242F21",
"& 	c #242F20",
"* 	c #2A3626",
"= 	c #2C3828",
"- 	c #273224",
"; 	c #212C1E",
"> 	c #263223",
", 	c #222C1F",
"' 	c #222D1F",
") 	c #273223",
"! 	c #283424",
"~ 	c #2C3728",
"{ 	c #2B3627",
"] 	c #273324",
"^ 	c #253022",
"/ 	c #1F291C",
"( 	c #1C2518",
"_ 	c #283325",
": 	c #242E20",
"< 	c #1E271A",
"[ 	c #263123",
"} 	c #263122",
"| 	c #2A3526",
"1 	c #293426",
"2 	c #141412",
"3 	c #1E291B",
"4 	c #9B5A22",
"5 	c #BD9168",
"6 	c #273124",
"7 	c #1F281B",
"8 	c #1D271A",
"9 	c #70431C",
"0 	c #232D1F",
"a 	c #1E281A",
"b 	c #233219",
"c 	c #253021",
"d 	c #77B845",
"e 	c #232D20",
"f 	c #1E281B",
"g 	c #5D8D38",
"h 	c #3F5D27",
"i 	c #202A1C",
"j 	c #202A1D",
"k 	c #242E21",
"l 	c #1F291B",
"m 	c #44280F",
"n 	c #ECCBAC",
"o 	c #253023",
"p 	c #232E21",
"q 	c #151412",
"r 	c #161512",
"s 	c #243219",
"t 	c #9A5A22",
"u 	c #BC9068",
"v 	c #2A3324",
"w 	c #293325",
"x 	c #232C1E",
"y 	c #35301F",
"z 	c #3D3320",
"A 	c #302F1E",
"B 	c #232C1D",
"C 	c #263023",
"D 	c #283023",
"E 	c #424237",
"F 	c #434134",
"G 	c #413832",
"H 	c #9A6139",
"I 	c #724725",
"J 	c #4E2F16",
"K 	c #3D2817",
"L 	c #392616",
"M 	c #362515",
"N 	c #413724",
"O 	c #44331F",
"P 	c #3B311E",
"Q 	c #3A3321",
"R 	c #885D39",
"S 	c #A87146",
"T 	c #855A37",
"U 	c #574129",
"V 	c #373625",
"W 	c #2A3224",
"X 	c #48463D",
"Y 	c #A5978B",
"Z 	c #9E8D80",
"` 	c #A59488",
" .	c #AF9B8D",
"..	c #9A6F52",
"+.	c #935E35",
"@.	c #935D33",
"#.	c #955E33",
"$.	c #945D33",
"%.	c #89562F",
"&.	c #794E2B",
"*.	c #855833",
"=.	c #774E2D",
"-.	c #784D2B",
";.	c #6D4626",
">.	c #8A5933",
",.	c #C5824F",
"'.	c #D38C58",
").	c #C18250",
"!.	c #855B37",
"~.	c #57432C",
"{.	c #343625",
"].	c #3B3C33",
"^.	c #80756C",
"/.	c #776B61",
"(.	c #7D7168",
"_.	c #87776C",
":.	c #7C5840",
"<.	c #764C2B",
"[.	c #7C4D29",
"}.	c #7C4E29",
"|.	c #735646",
"1.	c #734826",
"2.	c #5D3B22",
"3.	c #724A2B",
"4.	c #684428",
"5.	c #5C3C23",
"6.	c #55371F",
"7.	c #7E502C",
"8.	c #BD7D4B",
"9.	c #C17E4A",
"0.	c #BF7E4B",
"a.	c #C98653",
"b.	c #B57A4C",
"c.	c #5F4228",
"d.	c #2D3223",
"e.	c #3D3F34",
"f.	c #393B30",
"g.	c #35312C",
"h.	c #513C2E",
"i.	c #6F4524",
"j.	c #6E431E",
"k.	c #935623",
"l.	c #5E8497",
"m.	c #925622",
"n.	c #291D15",
"o.	c #393221",
"p.	c #362F1F",
"q.	c #2F2E1F",
"r.	c #312F1F",
"s.	c #5F4125",
"t.	c #835735",
"u.	c #6C4A2D",
"v.	c #614328",
"w.	c #6B4B2D",
"x.	c #64472B",
"y.	c #3F321F",
"z.	c #2A3223",
"A.	c #161613",
"B.	c #161614",
"C.	c #161513",
"D.	c #5C8EA4",
"E.	c #313121",
"F.	c #3C3623",
"G.	c #303121",
"H.	c #292F20",
"I.	c #2A2F20",
"J.	c #2B3123",
"K.	c #2B3324",
"L.	c #212B1E",
"M.	c #1D2719",
"  . + + + + + + + + + @ # $ $ $ @ + + + % % % % % % % & + @ # $ $ @ + + + + + + ",
"+ + + + + + + + + + + + + $ $ $ @ + + + * = = = = = = - + + + + $ $ $ ; + + + + ",
"> > > , . + + + + + + + + ; @ @ ; + ' ' ) ! = = = ~ { ] ^ ' ' ' $ $ @ ' + + + + ",
"= = = / ( + + + + + + + + + + + + + ; $ $ $ = = = { _ _ _ ; $ $ $ @ + + + + + + ",
"= ) : < ( + + + % [ [ [ [ + + + + + ' ; @ $ ^ } | 1 _ _ _ ; $ $ % ^ [ [ [ % + [ ",
"= + ( ( ( + + + ^ _ _ _ _ + + + + 2 2 2 2 2 2 2 2 _ _ _ _ ; $ $ _ _ _ _ _ % + _ ",
"' @ 3 ; , + + + ' ; ; [ _ - - + 2 4 4 4 4 5 5 4 4 2 _ _ _ - [ 6 _ _ _ : 7 < 8 ; ",
"$ $ $ ' + + + + ; $ $ [ _ _ _ 2 9 4 4 4 4 4 9 9 4 4 2 _ _ _ _ _ _ _ _ 0 ( ( ( $ ",
"$ ; + + + + + + + + + @ $ _ 2 9 9 4 4 4 4 4 4 9 9 4 4 2 _ _ _ _ _ ^ ( a $ $ $ $ ",
"$ ; + + + + + + + + b b b b b 9 9 4 4 4 4 4 4 5 5 4 4 2 _ _ _ _ _ ^ ( a $ $ $ $ ",
"+ c } } } } ^ ' ' + b d d d d 9 9 9 4 2 b b b 9 9 b b 2 - _ _ _ ^ e ( f @ @ @ @ ",
"= = = = = = * $ ; + + b d g g d d 9 9 2 h 2 2 b b 2 2 2 + - _ _ ( ( ( i + + + + ",
"= = = = = c : a j + + + b d h h g d 9 2 g 2 2 h h 2 2 2 + % % k a f i ; + + + ; ",
"= = = = = ( ( ( l + + + + 2 g h b m m 2 g g h g d b b 2 + @ $ $ $ @ + + + + + $ ",
"1 1 1 % + 3 l ; ' + + + + f 2 b b m m 2 g g h g d b b 2 + ' ' ' ' ' + + + / a   ",
"_ _ _ ; $ $ @ + + + + + + ( 2 m m m m 2 g n h h h h h n 2 + + + + + + + + a ( ( ",
"_ _ _ _ _ _ _ _ ^ $ $ ' + + + 2 2 2 b g n n h g g g n n 2 + + + + + + ; $ $ $ + ",
"_ _ _ _ _ _ _ - % $ $ ' + + + 2 4 4 2 b n 5 h b b b n 5 2 + + + + + + ; $ $ $ + ",
"+ [ _ _ _ _ - $ $ $ $ ' + + 2 g g 4 4 9 b b b 2 2 b 9 2 _ _ _ _ _ - + + + + + + ",
"+ [ _ _ _ o ^ ' ' ' ' % ^ b g g g g 4 4 9 9 9 m m 9 4 2 _ _ _ _ o ^ ' ' + % ^ ^ ",
"+ [ _ _ _ $ ; _ _ _ _ _ _ b g g g g 4 4 9 9 n 5 5 n 4 2 _ _ _ _ $ $ $ ; + - _ _ ",
"+ [ _ [ ^ % ^ _ _ _ _ ^ p 2 h g g h 4 4 9 9 9 m m 9 4 2 _ % p + $ @ ; % [ - _ _ ",
"+ [ _ % + _ _ _ _ _ _ ' $ $ q r s m t t 9 9 9 u u 9 r v w x y z A B + [ _ _ _ _ ",
"+ % % [ - _ _ _ C ; ; @ $ D E F G H I J K K K K L M N O P Q R S T U V W _ _ _ ' ",
"+ + + - _ _ _ _ ^ $ $ $ . X Y Z `  ...+.@.@.#.$.%.&.*.=.-.;.>.,.'.).!.~.{.w _ $ ",
"+ + + + + + % _ _ _ _ % : ].^./.(._.:.<.[.[.}.|.1.2.3.4.5.6.7.8.9.0.a.b.c.d._ _ ",
"' + + + + % % _ _ - - % + D e.f.g.h.i.j.k.k.k.l.m.n.o.p.q.r.s.t.u.v.w.x.y.z._ - ",
"( @ + + + _ _ _ ^ $ $ ' + + % % A.B.C.r m D.D.D.m m r : + : E.F.G.H.I.J.K.w _ $ ",
"( @ + + + [ [ [ % @ @ ' + + + 2 m m m 9 9 9 9 9 9 9 2 ' ' + + + + + + ^ [ [ [ ; ",
"( @ + + + + + + + + + + + + + 2 m m m 9 9 9 9 9 9 9 m 2 $ ' + + + + + + + + + + ",
"( @ + + + + + + + + + + + + + 2 2 2 2 2 2 2 2 2 2 2 2 2 $ ' + + + + + + + + + + ",
"L.' + + + + + + + + + + + + + 2 h h h b 2 ' ' 2 b h h 2 ' + + + + + + + + + + + ",
"+ + + + + + + + + + + + + + 2 b h h h 2 + + + 2 h h h 2 + + + + + + + + + + + + ",
"_ _ _ 7   + + + + + + + + + 2 h h h 2 + + + + 2 h h h b 2 + + + + ' $ $ $ ' + + ",
"_ _ _ f ( + + + + + + + + 2 g h g g 2 + + + + 2 h g g h g 2 + + + ' $ $ $ ' + + ",
"_ L.( ( ( + + + ^ _ _ _ _ _ _ + + + + + + + ( ( ( ( ( a $ $ $ $ $ $ $ ; + + + _ ",
"[ .   < a + + + % [ [ - _ _ _ % % ' + + , ; ( ( ( (   3 $ @ @ @ @ @ @ ' + + + [ ",
"$ $ $ ' + + + + ; $ $ [ _ _ _ _ ^ $ ; + < ( ( ( ( M.$ $ $ ' + + + + + + + + + $ ",
"$ @ ; + + + + + ' ; ; + % _ _ _ - % ' ; 3 a a a a f $ $ $ ; ; ; + + + + + + + ; ",
"$ ; + + + + + + + + + @ $ _ _ _ _ _ + $ $ $ $ $ $ $ $ $ $ $ $ $ + + + + + + + + "};
