/* XPM */
static char * 2_xpm[] = {
"40 40 172 2",
"  	c #1D2619",
". 	c #212B1D",
"+ 	c #232E20",
"@ 	c #202B1D",
"# 	c #1F2A1D",
"$ 	c #1F2A1C",
"% 	c #242F21",
"& 	c #242F20",
"* 	c #2A3626",
"= 	c #2C3828",
"- 	c #273224",
"; 	c #212C1E",
"> 	c #263223",
", 	c #222C1F",
"' 	c #222D1F",
") 	c #273223",
"! 	c #283424",
"~ 	c #2C3728",
"{ 	c #2B3627",
"] 	c #273324",
"^ 	c #253022",
"/ 	c #1F291C",
"( 	c #1C2518",
"_ 	c #283325",
": 	c #242E20",
"< 	c #1E271A",
"[ 	c #263123",
"} 	c #263122",
"| 	c #2A3526",
"1 	c #293426",
"2 	c #1E291B",
"3 	c #141412",
"4 	c #273124",
"5 	c #1F281B",
"6 	c #1D271A",
"7 	c #9B5A22",
"8 	c #BD9168",
"9 	c #232D1F",
"0 	c #70431C",
"a 	c #1E281A",
"b 	c #253021",
"c 	c #233219",
"d 	c #232D20",
"e 	c #1E281B",
"f 	c #77B845",
"g 	c #202A1C",
"h 	c #202A1D",
"i 	c #5D8D38",
"j 	c #3F5D27",
"k 	c #242E21",
"l 	c #1F291B",
"m 	c #44280F",
"n 	c #ECCBAC",
"o 	c #253023",
"p 	c #232E21",
"q 	c #263023",
"r 	c #151412",
"s 	c #161512",
"t 	c #243219",
"u 	c #9A5A22",
"v 	c #BC9068",
"w 	c #283122",
"x 	c #252F21",
"y 	c #373321",
"z 	c #3F3623",
"A 	c #323121",
"B 	c #262F20",
"C 	c #283124",
"D 	c #434237",
"E 	c #434134",
"F 	c #464337",
"G 	c #433A33",
"H 	c #402D20",
"I 	c #3D2818",
"J 	c #3D2817",
"K 	c #4E2F15",
"L 	c #4C2E14",
"M 	c #343222",
"N 	c #413724",
"O 	c #44331E",
"P 	c #3B301D",
"Q 	c #3A3321",
"R 	c #885D3A",
"S 	c #A87146",
"T 	c #855B38",
"U 	c #58422A",
"V 	c #383726",
"W 	c #2B3325",
"X 	c #48463D",
"Y 	c #A5978B",
"Z 	c #9E8D80",
"` 	c #A59488",
" .	c #B19C8D",
"..	c #A07252",
"+.	c #996236",
"@.	c #A16435",
"#.	c #A16535",
"$.	c #96705D",
"%.	c #965D31",
"&.	c #784C29",
"*.	c #855732",
"=.	c #764E2D",
"-.	c #784D2B",
";.	c #6D4626",
">.	c #8A5933",
",.	c #C5824F",
"'.	c #D38C58",
").	c #C18250",
"!.	c #845A36",
"~.	c #554129",
"{.	c #313121",
"].	c #283224",
"^.	c #3B3C33",
"/.	c #80756C",
"(.	c #776B61",
"_.	c #7C7067",
":.	c #87776C",
"<.	c #7C5840",
"[.	c #764C2B",
"}.	c #7C4D29",
"|.	c #7C4E29",
"1.	c #735646",
"2.	c #734826",
"3.	c #5D3B22",
"4.	c #724A2B",
"5.	c #684428",
"6.	c #5C3C23",
"7.	c #55371F",
"8.	c #7E502C",
"9.	c #BD7D4B",
"0.	c #C17E4A",
"a.	c #BF7E4B",
"b.	c #C98653",
"c.	c #B57A4C",
"d.	c #5F4228",
"e.	c #2D3223",
"f.	c #283023",
"g.	c #3D3F34",
"h.	c #393B30",
"i.	c #35312C",
"j.	c #3A332F",
"k.	c #33261E",
"l.	c #312217",
"m.	c #4C2E15",
"n.	c #5E8497",
"o.	c #4A2C14",
"p.	c #472B13",
"q.	c #342317",
"r.	c #362F1F",
"s.	c #2F2E1F",
"t.	c #312F1F",
"u.	c #5F4125",
"v.	c #835735",
"w.	c #6C4A2D",
"x.	c #614328",
"y.	c #6B4B2D",
"z.	c #64482C",
"A.	c #413522",
"B.	c #2B3324",
"C.	c #161513",
"D.	c #442911",
"E.	c #452911",
"F.	c #442810",
"G.	c #3C3623",
"H.	c #303121",
"I.	c #292F20",
"J.	c #2A2F20",
"K.	c #2B3022",
"L.	c #293122",
"M.	c #273123",
"N.	c #212B1E",
"O.	c #1D2719",
"  . + + + + + + + + + @ # $ $ $ @ + + + % % % % % % % & + @ # $ $ @ + + + + + + ",
"+ + + + + + + + + + + + + $ $ $ @ + + + * = = = = = = - + + + + $ $ $ ; + + + + ",
"> > > , . + + + + + + + + ; @ @ ; + ' ' ) ! = = = ~ { ] ^ ' ' ' $ $ @ ' + + + + ",
"= = = / ( + + + + + + + + + + + + + ; $ $ $ = = = { _ _ _ ; $ $ $ @ + + + + + + ",
"= ) : < ( + + + % [ [ [ [ + + + + + ' ; @ $ ^ } | 1 _ _ _ ; $ $ % ^ [ [ [ % + [ ",
"= + ( ( ( + + + ^ _ _ _ _ + + + + + + + @ $ $ @ _ _ _ _ _ ; $ $ _ _ _ _ _ % + _ ",
"' @ 2 ; , + + + ' ; ; [ _ - - + + 3 3 3 3 3 3 3 3 _ _ _ _ - [ 4 _ _ _ : 5 < 6 ; ",
"$ $ $ ' + + + + ; $ $ [ _ _ _ + 3 7 7 7 7 8 8 7 7 3 _ _ _ _ _ _ _ _ _ 9 ( ( ( $ ",
"$ ; + + + + + + + + + @ $ _ - 3 0 7 7 7 7 7 0 0 7 7 3 [ _ _ _ _ _ ^ ( a $ $ $ $ ",
"$ ; + + + + + + + + + @ $ _ 3 0 0 7 7 7 7 7 7 0 0 7 7 3 _ _ _ _ _ ^ ( a $ $ $ $ ",
"+ b } } } } ^ ' ' + c c c c c 0 0 7 7 7 7 7 7 8 8 7 7 3 - _ _ _ ^ d ( e @ @ @ @ ",
"= = = = = = * $ ; + c f f f f 0 0 0 7 3 c c c 0 0 c c 3 + - _ _ ( ( ( g + + + + ",
"= = = = = b : a h + + c f i i f f 0 0 3 j 3 3 c c 3 3 3 + % % k a e g ; + + + ; ",
"= = = = = ( ( ( l + + + c f j j i f 0 3 i 3 3 j j 3 3 3 + @ $ $ $ @ + + + + + $ ",
"1 1 1 % + 2 l ; ' + + + + 3 i j c m m 3 i i j i f c c 3 + ' ' ' ' ' + + + / a   ",
"_ _ _ ; $ $ @ + + + + + + ( 3 c c m m 3 i i j i f c c 3 + + + + + + + + + a ( ( ",
"_ _ _ _ _ _ _ _ ^ $ $ ' + + 3 m m m m 3 i n j j j j j n 3 + + + + + + ; $ $ $ + ",
"_ _ _ _ _ _ _ - % $ $ ' + + + 3 3 3 c i n n j i i i n n 3 + + + + + + ; $ $ $ + ",
"+ [ _ _ _ _ - $ $ $ $ ' + + + 3 7 7 3 c n 8 j c c c n 8 3 _ _ _ _ - + + + + + + ",
"+ [ _ _ _ o ^ ' ' ' ' % ^ + 3 i i 7 7 0 c c c 3 3 c 0 3 _ _ _ _ o ^ ' ' + % ^ ^ ",
"+ [ _ _ _ $ ; _ _ _ _ _ _ c i i i i 7 7 0 0 0 m m 0 7 3 _ _ _ _ $ $ $ ; + - _ _ ",
"+ [ _ [ ^ % ^ _ _ _ _ ^ p c i i i i 7 7 0 0 n 8 8 n 7 3 _ % p + $ @ ; % [ - _ _ ",
"+ [ _ % + _ _ _ _ _ _ ' $ 3 j i i j 7 7 0 0 0 m m 0 7 3 _ ; $ $ $ @ + [ _ _ _ _ ",
"+ % % [ - _ _ _ q ; ; @ $ ' r s t m u u 0 0 0 v v 0 s w x : y z A B - - _ _ _ ' ",
"+ + + - _ _ _ _ ^ $ $ $ $ C D E F G H I J J K K L M N O P Q R S T U V W _ _ _ $ ",
"+ + + + + + % _ _ _ _ % k X Y Z `  ...+.@.@.#.$.%.&.*.=.-.;.>.,.'.).!.~.{.]._ _ ",
"' + + + + % % _ _ - - % : ^./.(._.:.<.[.}.}.|.1.2.3.4.5.6.7.8.9.0.a.b.c.d.e._ - ",
"( @ + + + _ _ _ ^ $ $ ' + f.g.h.i.j.k.l.m.n.n.n.o.p.q.r.s.t.u.v.w.x.y.z.A.B._ $ ",
"( @ + + + [ [ [ % @ @ ' + + % C.D.E.F.0 0 0 0 0 0 0 s 9 ' : {.G.H.I.J.K.L.M.[ ; ",
"( @ + + + + + + + + + + + + + 3 m m m 0 0 0 0 0 0 0 m 3 $ ' + + + + + + + + + + ",
"( @ + + + + + + + + + + + + + 3 3 3 3 3 3 3 3 3 3 3 3 3 $ ' + + + + + + + + + + ",
"N.' + + + + + + + + + + + + 3 c j j c 3 , ' ' 3 c j j 3 ' + + + + + + + + + + + ",
"+ + + + + + + + + + + + + + 3 j j j 3 + + + + 3 j j j c 3 + + + + + + + + + + + ",
"_ _ _ 5   + + + + + + + + 3 i j i i 3 + + + + 3 j i i j i 3 + + + ' $ $ $ ' + + ",
"_ _ _ e ( + + + + + + + + + + + + + + + + + + ' $ $ $ ; + + + + + ' $ $ $ ' + + ",
"_ N.( ( ( + + + ^ _ _ _ _ _ _ + + + + + + + ( ( ( ( ( a $ $ $ $ $ $ $ ; + + + _ ",
"[ .   < a + + + % [ [ - _ _ _ % % ' + + , ; ( ( ( (   2 $ @ @ @ @ @ @ ' + + + [ ",
"$ $ $ ' + + + + ; $ $ [ _ _ _ _ ^ $ ; + < ( ( ( ( O.$ $ $ ' + + + + + + + + + $ ",
"$ @ ; + + + + + ' ; ; + % _ _ _ - % ' ; 2 a a a a e $ $ $ ; ; ; + + + + + + + ; ",
"$ ; + + + + + + + + + @ $ _ _ _ _ _ + $ $ $ $ $ $ $ $ $ $ $ $ $ + + + + + + + + "};
