/* XPM */
static char * 3_xpm[] = {
"40 40 170 2",
"  	c #1D2619",
". 	c #212B1D",
"+ 	c #232E20",
"@ 	c #202B1D",
"# 	c #1F2A1D",
"$ 	c #1F2A1C",
"% 	c #242F21",
"& 	c #242F20",
"* 	c #2A3626",
"= 	c #2C3828",
"- 	c #273224",
"; 	c #212C1E",
"> 	c #263223",
", 	c #222C1F",
"' 	c #222D1F",
") 	c #273223",
"! 	c #283424",
"~ 	c #2C3728",
"{ 	c #2B3627",
"] 	c #273324",
"^ 	c #253022",
"/ 	c #1F291C",
"( 	c #1C2518",
"_ 	c #283325",
": 	c #242E20",
"< 	c #1E271A",
"[ 	c #263123",
"} 	c #263122",
"| 	c #2A3526",
"1 	c #293426",
"2 	c #1E291B",
"3 	c #141412",
"4 	c #273124",
"5 	c #1F281B",
"6 	c #1D271A",
"7 	c #9B5A22",
"8 	c #BD9168",
"9 	c #232D1F",
"0 	c #70431C",
"a 	c #1E281A",
"b 	c #253021",
"c 	c #232D20",
"d 	c #1E281B",
"e 	c #233219",
"f 	c #202A1C",
"g 	c #202A1D",
"h 	c #77B845",
"i 	c #242E21",
"j 	c #1F291B",
"k 	c #5D8D38",
"l 	c #3F5D27",
"m 	c #44280F",
"n 	c #ECCBAC",
"o 	c #253023",
"p 	c #232E21",
"q 	c #263023",
"r 	c #9A5A22",
"s 	c #BC9068",
"t 	c #161512",
"u 	c #283122",
"v 	c #252F21",
"w 	c #373321",
"x 	c #3F3623",
"y 	c #323121",
"z 	c #262F20",
"A 	c #283124",
"B 	c #3E3731",
"C 	c #3E352F",
"D 	c #464534",
"E 	c #433A33",
"F 	c #402D20",
"G 	c #3D2818",
"H 	c #3D2817",
"I 	c #4E2F15",
"J 	c #4C2E14",
"K 	c #343222",
"L 	c #413724",
"M 	c #44331E",
"N 	c #3B301D",
"O 	c #3A3321",
"P 	c #885D3A",
"Q 	c #A87146",
"R 	c #855B38",
"S 	c #58422A",
"T 	c #383726",
"U 	c #2B3325",
"V 	c #48463D",
"W 	c #A5978B",
"X 	c #9E8D80",
"Y 	c #A59488",
"Z 	c #B19C8D",
"` 	c #A07252",
" .	c #996236",
"..	c #A16435",
"+.	c #A16535",
"@.	c #96705D",
"#.	c #965D31",
"$.	c #784C29",
"%.	c #855732",
"&.	c #764E2D",
"*.	c #784D2B",
"=.	c #6D4626",
"-.	c #8A5933",
";.	c #C5824F",
">.	c #D38C58",
",.	c #C18250",
"'.	c #845A36",
").	c #554129",
"!.	c #313121",
"~.	c #283224",
"{.	c #3B3C33",
"].	c #80756C",
"^.	c #776B61",
"/.	c #7C7067",
"(.	c #87776C",
"_.	c #7C5840",
":.	c #764C2B",
"<.	c #7C4D29",
"[.	c #7C4E29",
"}.	c #735646",
"|.	c #734826",
"1.	c #5D3B22",
"2.	c #724A2B",
"3.	c #684428",
"4.	c #5C3C23",
"5.	c #55371F",
"6.	c #7E502C",
"7.	c #BD7D4B",
"8.	c #C17E4A",
"9.	c #BF7E4B",
"0.	c #C98653",
"a.	c #B57A4C",
"b.	c #5F4228",
"c.	c #2D3223",
"d.	c #283023",
"e.	c #3D3F34",
"f.	c #393B30",
"g.	c #35312C",
"h.	c #3A332F",
"i.	c #33261E",
"j.	c #312217",
"k.	c #4C2E15",
"l.	c #5E8497",
"m.	c #4A2C14",
"n.	c #472B13",
"o.	c #342317",
"p.	c #362F1F",
"q.	c #2F2E1F",
"r.	c #312F1F",
"s.	c #5F4125",
"t.	c #835735",
"u.	c #6C4A2D",
"v.	c #614328",
"w.	c #6B4B2D",
"x.	c #64482C",
"y.	c #413522",
"z.	c #2B3324",
"A.	c #161513",
"B.	c #442911",
"C.	c #452911",
"D.	c #442810",
"E.	c #3C3623",
"F.	c #303121",
"G.	c #292F20",
"H.	c #2A2F20",
"I.	c #2B3022",
"J.	c #293122",
"K.	c #273123",
"L.	c #212B1E",
"M.	c #1D2719",
"  . + + + + + + + + + @ # $ $ $ @ + + + % % % % % % % & + @ # $ $ @ + + + + + + ",
"+ + + + + + + + + + + + + $ $ $ @ + + + * = = = = = = - + + + + $ $ $ ; + + + + ",
"> > > , . + + + + + + + + ; @ @ ; + ' ' ) ! = = = ~ { ] ^ ' ' ' $ $ @ ' + + + + ",
"= = = / ( + + + + + + + + + + + + + ; $ $ $ = = = { _ _ _ ; $ $ $ @ + + + + + + ",
"= ) : < ( + + + % [ [ [ [ + + + + + ' ; @ $ ^ } | 1 _ _ _ ; $ $ % ^ [ [ [ % + [ ",
"= + ( ( ( + + + ^ _ _ _ _ + + + + + + + @ $ $ @ _ _ _ _ _ ; $ $ _ _ _ _ _ % + _ ",
"' @ 2 ; , + + + ' ; ; [ _ - - + + 3 3 3 3 3 3 3 3 _ _ _ _ - [ 4 _ _ _ : 5 < 6 ; ",
"$ $ $ ' + + + + ; $ $ [ _ _ _ + 3 7 7 7 7 8 8 7 7 3 _ _ _ _ _ _ _ _ _ 9 ( ( ( $ ",
"$ ; + + + + + + + + + @ $ _ - 3 0 7 7 7 7 7 0 0 7 7 3 [ _ _ _ _ _ ^ ( a $ $ $ $ ",
"$ ; + + + + + + + + + @ $ _ 3 0 0 7 7 7 7 7 7 0 7 7 7 3 _ _ _ _ _ ^ ( a $ $ $ $ ",
"+ b } } } } ^ ' ' + + ; @ - 3 0 0 7 7 7 7 7 7 0 0 7 7 3 - _ _ _ ^ c ( d @ @ @ @ ",
"= = = = = = * $ ; + e e e e e 0 0 0 7 7 7 7 7 8 8 7 7 3 + - _ _ ( ( ( f + + + + ",
"= = = = = b : a g + e h h h h h h 0 0 3 e e e 0 0 e e 3 + % % i a d f ; + + + ; ",
"= = = = = ( ( ( j + + e h k k l k h 0 3 l 3 3 e e 3 3 3 + @ $ $ $ @ + + + + + $ ",
"1 1 1 % + 2 j ; ' + + + e h l l e m m 3 k 3 3 l l 3 3 3 + ' ' ' ' ' + + + / a   ",
"_ _ _ ; $ $ @ + + + + + + ( 3 e e m m 3 k k l k h e e 3 + + + + + + + + + a ( ( ",
"_ _ _ _ _ _ _ _ ^ $ $ ' + + 3 m m m m 3 k k l k h e e 3 + + + + + + + ; $ $ $ + ",
"_ _ _ _ _ _ _ - % $ $ ' + + + 3 3 3 e 3 k n l l l l l n 3 + + + + + + ; $ $ $ + ",
"+ [ _ _ _ _ - $ $ $ $ ' + + + 3 7 7 3 k n n l k k k n n 3 _ _ _ _ - + + + + + + ",
"+ [ _ _ _ o ^ ' ' ' ' % ^ + + 3 7 7 7 e n 8 l e e e n 8 3 _ _ _ o ^ ' ' + % ^ ^ ",
"+ [ _ _ _ $ ; _ _ _ _ _ _ + 3 k k 7 7 0 e e e 3 3 e 0 3 _ _ _ _ $ $ $ ; + - _ _ ",
"+ [ _ [ ^ % ^ _ _ _ _ ^ p e k k k k 7 7 0 0 n 8 8 n 7 3 _ % p + $ @ ; % [ - _ _ ",
"+ [ _ % + _ _ _ _ _ _ ' $ e k k k k 7 7 0 0 0 m m 0 7 3 _ ; $ $ $ @ + [ _ _ _ _ ",
"+ % % [ - _ _ _ q ; ; @ $ 3 l k k l r r 0 0 0 s s 0 t u v : w x y z - - _ _ _ ' ",
"+ + + - _ _ _ _ ^ $ $ $ $ A B C D E F G H H I I J K L M N O P Q R S T U _ _ _ $ ",
"+ + + + + + % _ _ _ _ % i V W X Y Z `  .....+.@.#.$.%.&.*.=.-.;.>.,.'.).!.~._ _ ",
"' + + + + % % _ _ - - % : {.].^./.(._.:.<.<.[.}.|.1.2.3.4.5.6.7.8.9.0.a.b.c._ - ",
"( @ + + + _ _ _ ^ $ $ ' + d.e.f.g.h.i.j.k.l.l.l.m.n.o.p.q.r.s.t.u.v.w.x.y.z._ $ ",
"( @ + + + [ [ [ % @ @ ' + + % A.B.C.D.0 0 0 0 0 0 0 t 9 ' : !.E.F.G.H.I.J.K.[ ; ",
"( @ + + + + + + + + + + + + + 3 m m m 0 0 0 0 0 0 0 m 3 $ ' + + + + + + + + + + ",
"( @ + + + + + + + + + + + + + 3 3 3 3 3 3 3 3 3 3 3 3 3 $ ' + + + + + + + + + + ",
"L.' + + + + + + + + + + + + 3 e l l e 3 , ' ' 3 e l l 3 ' + + + + + + + + + + + ",
"+ + + + + + + + + + + + + + 3 l l l 3 + + + + 3 l l l e 3 + + + + + + + + + + + ",
"_ _ _ 5   + + + + + + + + 3 k l k k 3 + + + + 3 l k k l k 3 + + + ' $ $ $ ' + + ",
"_ _ _ d ( + + + + + + + + + + + + + + + + + + ' $ $ $ ; + + + + + ' $ $ $ ' + + ",
"_ L.( ( ( + + + ^ _ _ _ _ _ _ + + + + + + + ( ( ( ( ( a $ $ $ $ $ $ $ ; + + + _ ",
"[ .   < a + + + % [ [ - _ _ _ % % ' + + , ; ( ( ( (   2 $ @ @ @ @ @ @ ' + + + [ ",
"$ $ $ ' + + + + ; $ $ [ _ _ _ _ ^ $ ; + < ( ( ( ( M.$ $ $ ' + + + + + + + + + $ ",
"$ @ ; + + + + + ' ; ; + % _ _ _ - % ' ; 2 a a a a d $ $ $ ; ; ; + + + + + + + ; ",
"$ ; + + + + + + + + + @ $ _ _ _ _ _ + $ $ $ $ $ $ $ $ $ $ $ $ $ + + + + + + + + "};
