/* XPM */
static char * _1_xpm[] = {
"40 40 363 2",
"  	c #232E20",
". 	c #202B1D",
"+ 	c #1F2A1C",
"@ 	c #1F2A1D",
"# 	c #242F20",
"$ 	c #242F21",
"% 	c #202A1C",
"& 	c #1D2619",
"* 	c #212C1E",
"= 	c #273224",
"- 	c #2C3828",
"; 	c #2A3626",
"> 	c #222D1F",
", 	c #253022",
"' 	c #273324",
") 	c #2B3627",
"! 	c #2C3728",
"~ 	c #283424",
"{ 	c #273223",
"] 	c #212B1D",
"^ 	c #232D20",
"/ 	c #263223",
"( 	c #283224",
"_ 	c #283325",
": 	c #1C2619",
"< 	c #263123",
"[ 	c #293426",
"} 	c #2A3526",
"| 	c #263122",
"1 	c #1C2518",
"2 	c #1F281B",
"3 	c #283324",
"4 	c #1D2719",
"5 	c #253021",
"6 	c #1E281B",
"7 	c #1E271A",
"8 	c #232D1F",
"9 	c #273124",
"0 	c #222C1F",
"a 	c #1E291B",
"b 	c #222C1E",
"c 	c #253023",
"d 	c #1E281A",
"e 	c #272E1F",
"f 	c #262D1E",
"g 	c #222919",
"h 	c #22291A",
"i 	c #262B1E",
"j 	c #45401E",
"k 	c #4A451E",
"l 	c #695E24",
"m 	c #665C24",
"n 	c #433F1D",
"o 	c #252A1E",
"p 	c #49421E",
"q 	c #796C2A",
"r 	c #7C6F2B",
"s 	c #928230",
"t 	c #908030",
"u 	c #786C2A",
"v 	c #655B24",
"w 	c #433E1D",
"x 	c #242B1C",
"y 	c #202C1D",
"z 	c #24291C",
"A 	c #7A6E2B",
"B 	c #918130",
"C 	c #8D7E2F",
"D 	c #5C5324",
"E 	c #1E271B",
"F 	c #202A1D",
"G 	c #1F291B",
"H 	c #242E20",
"I 	c #2B2716",
"J 	c #796D2A",
"K 	c #8F8030",
"L 	c #7E712B",
"M 	c #6F6325",
"N 	c #716426",
"O 	c #80722C",
"P 	c #908130",
"Q 	c #7A6D2B",
"R 	c #504B23",
"S 	c #4C4822",
"T 	c #272919",
"U 	c #1F291C",
"V 	c #312D17",
"W 	c #7B6E2A",
"X 	c #47411E",
"Y 	c #161612",
"Z 	c #1D1B13",
"` 	c #4D461F",
" .	c #736627",
"..	c #4D4923",
"+.	c #373A20",
"@.	c #34371E",
"#.	c #171915",
"$.	c #8A7B2E",
"%.	c #4A431E",
"&.	c #171712",
"*.	c #141412",
"=.	c #292514",
"-.	c #706426",
";.	c #74682A",
">.	c #35381F",
",.	c #262919",
"'.	c #897A2D",
").	c #242114",
"!.	c #352F17",
"~.	c #8C7D2F",
"{.	c #4A4722",
"].	c #33361E",
"^.	c #171914",
"/.	c #2B2816",
"(.	c #776A29",
"_.	c #202C33",
":.	c #11658F",
"<.	c #14191D",
"[.	c #142633",
"}.	c #116691",
"|.	c #2A2614",
"1.	c #1B2418",
"2.	c #252F22",
"3.	c #232115",
"4.	c #595125",
"5.	c #1E3846",
"6.	c #15729F",
"7.	c #141B20",
"8.	c #142A39",
"9.	c #1574A2",
"0.	c #18272F",
"a.	c #171614",
"b.	c #3E3325",
"c.	c #8B7C2F",
"d.	c #3A3C20",
"e.	c #4A4622",
"f.	c #161914",
"g.	c #263023",
"h.	c #1F1F15",
"i.	c #4B4824",
"j.	c #1D2E34",
"k.	c #182A33",
"l.	c #141513",
"m.	c #141717",
"n.	c #192C35",
"o.	c #191618",
"p.	c #463532",
"q.	c #4F4B23",
"r.	c #5F5625",
"s.	c #5D5425",
"t.	c #4B4722",
"u.	c #282A1A",
"v.	c #171A14",
"w.	c #1A1A16",
"x.	c #322D27",
"y.	c #161613",
"z.	c #161514",
"A.	c #291A28",
"B.	c #42223F",
"C.	c #413031",
"D.	c #4F4A22",
"E.	c #453F1E",
"F.	c #161814",
"G.	c #21281E",
"H.	c #232E21",
"I.	c #1F181D",
"J.	c #4C2549",
"K.	c #662260",
"L.	c #672261",
"M.	c #65225F",
"N.	c #442341",
"O.	c #4D274B",
"P.	c #5D3059",
"Q.	c #4D422C",
"R.	c #5B5325",
"S.	c #282A19",
"T.	c #262719",
"U.	c #181B16",
"V.	c #20281E",
"W.	c #231921",
"X.	c #632D5F",
"Y.	c #912D8A",
"Z.	c #932D8B",
"`.	c #8F2D88",
" +	c #5F2E5C",
".+	c #62355B",
"++	c #775F49",
"@+	c #5E5525",
"#+	c #414121",
"$+	c #6D6328",
"%+	c #6B6128",
"&+	c #605622",
"*+	c #272E20",
"=+	c #222D20",
"-+	c #1D251B",
";+	c #151513",
">+	c #2A221C",
",+	c #795E4E",
"'+	c #92606C",
")+	c #915D6D",
"!+	c #7F446C",
"~+	c #7E4669",
"{+	c #7A604C",
"]+	c #7C634A",
"^+	c #8D7D2F",
"/+	c #524C23",
"(+	c #736829",
"_+	c #8C7D2E",
":+	c #615823",
"<+	c #232B1C",
"[+	c #151713",
"}+	c #312C16",
"|+	c #8F7F2F",
"1+	c #7B6D2A",
"2+	c #7B6E2B",
"3+	c #4E4A23",
"4+	c #675D26",
"5+	c #87782C",
"6+	c #242818",
"7+	c #8E7F2F",
"8+	c #575124",
"9+	c #81732C",
"0+	c #8E8030",
"a+	c #746829",
"b+	c #25291A",
"c+	c #1C221A",
"d+	c #2B2715",
"e+	c #7D702B",
"f+	c #4F481F",
"g+	c #716526",
"h+	c #6C6125",
"i+	c #47411F",
"j+	c #262E1F",
"k+	c #1C2319",
"l+	c #22261A",
"m+	c #4B451F",
"n+	c #6E6225",
"o+	c #6D6125",
"p+	c #4E4923",
"q+	c #363920",
"r+	c #1E2014",
"s+	c #1F2215",
"t+	c #242A1A",
"u+	c #212B1E",
"v+	c #2C1F15",
"w+	c #7D4B23",
"x+	c #844F26",
"y+	c #A96B3A",
"z+	c #A66A39",
"A+	c #804D23",
"B+	c #845528",
"C+	c #7F5327",
"D+	c #4B381B",
"E+	c #7D5126",
"F+	c #321F10",
"G+	c #301E10",
"H+	c #161713",
"I+	c #1D251A",
"J+	c #1A2217",
"K+	c #3D2716",
"L+	c #B56C31",
"M+	c #D48544",
"N+	c #EF9A53",
"O+	c #EE9852",
"P+	c #D08241",
"Q+	c #B56C30",
"R+	c #AD672E",
"S+	c #5C3514",
"T+	c #AC672D",
"U+	c #47280D",
"V+	c #43270E",
"W+	c #1E2116",
"X+	c #1C1B14",
"Y+	c #4D401E",
"Z+	c #9B662D",
"`+	c #D88846",
" @	c #F09A53",
".@	c #EC9852",
"+@	c #BD7E41",
"@@	c #96632B",
"#@	c #90602A",
"$@	c #5E461C",
"%@	c #905F2A",
"&@	c #53421A",
"*@	c #4E3F1A",
"=@	c #252818",
"-@	c #222619",
";@	c #443E1D",
">@	c #665726",
",@	c #98652E",
"'@	c #B7753F",
")@	c #B1723D",
"!@	c #564F24",
"~@	c #7A6D2A",
"{@	c #746828",
"]@	c #5D5424",
"^@	c #4D4822",
"/@	c #171713",
"(@	c #3E3B1D",
"_@	c #8F7F30",
":@	c #726628",
"<@	c #242617",
"[@	c #1F271C",
"}@	c #4E4A22",
"|@	c #2B2C1A",
"1@	c #151512",
"2@	c #292615",
"3@	c #776B2A",
"4@	c #887A2D",
"5@	c #1D1E14",
"6@	c #181A15",
"7@	c #212A1D",
"8@	c #1D241B",
"9@	c #1D1C14",
"0@	c #46401D",
"a@	c #46401E",
"b@	c #151613",
"c@	c #1C2219",
"d@	c #1E231A",
"e@	c #3F3C1D",
"f@	c #1E2217",
"g@	c #311F11",
"h@	c #3E2512",
"i@	c #7C4A22",
"j@	c #7A4922",
"k@	c #201913",
"l@	c #181D15",
"m@	c #181E15",
"n@	c #2D2D1B",
"o@	c #685C23",
"p@	c #161714",
"q@	c #1F251C",
"r@	c #322F1E",
"s@	c #774B25",
"t@	c #31281A",
"u@	c #332011",
"v@	c #46270D",
"w@	c #502E10",
"x@	c #8D5323",
"y@	c #854F25",
"z@	c #252216",
"A@	c #1B2118",
"B@	c #20271D",
"C@	c #3E311D",
"D@	c #A9662D",
"E@	c #824D23",
"F@	c #4D2C10",
"G@	c #352011",
"H@	c #1B1F16",
"I@	c #20281D",
"J@	c #2F2216",
"K@	c #895125",
"L@	c #AE682E",
"M@	c #885022",
"N@	c #4D2B0F",
"O@	c #352111",
"P@	c #1C2118",
"Q@	c #1D231A",
"R@	c #302719",
"S@	c #855327",
"T@	c #865327",
"U@	c #422D17",
"V@	c #1D2218",
"            . + + @ .   # $ $ $ $ $ $ $       . + + + @ .                   % & ",
"        * + + +         = - - - - - - ;       . + + +                           ",
"        > . + + > > > , ' ) ! - - - ~ { > >   * . . *                 ] ^ / / / ",
"            . + + + * ( _ _ ) - - - + + + *                         > : * - - - ",
"< $ $ < < < , $ . + * ( _ _ [ } | , + . * >           < < < < $     > 1 2 # 3 - ",
"_ $ $ = _ _ _ _ . + * ( _ _ _ _ . + + .               _ _ _ _ ,     > 1 1 4 5 - ",
"* 6 7 2 8 = _ _ 9 < = _ _ _ _ _ = < < = = ,       = = _ < * * >       0 * a . > ",
"+ & 1 1 b = _ _ _ _ _ _ _ _ _ _ _ _ _ _ _ <       _ _ _ c + + *         > + + + ",
"+ + + + d 1 $ _ _ _ _ _ <   < _ _ _ _ < + + + + + = _ + .                   * + ",
"+ + + + d 1 $ _ _ _ _ _ <   < 3 e e e f g g h + + = _ + .                   * + ",
". . . . 6 1 0 , _ _ _ = < $ < i j k l l l m n h h < = . *     > > , | | | | 5   ",
"        . & 1 1 = _ =   , = o p q r s s s t u v w x           * y ; - - - - - - ",
"*       * % 6 d ^ $ $     z p A B s s s s s s C D w E         F G H | - - - - - ",
"+ >         . + + + .   0 I J K L M N O s s P Q R S T E       G 1 1 2 - - - - - ",
"& d U >     > > > > >   0 V C W X Y Z `  .P Q ..+.+.@.#.      > * G +   , [ [ [ ",
"1 1 d >                 0 V $.%.&.*.*.*.=.-.;.+.+.+.>.,.E         . + + > _ _ _ ",
"  . + + *               0 V '.).*.*.*.*.*.!.~.{.+.+.+.].^.+ . , _ _ _ _ _ _ _ _ ",
"  . + + *               0 /.(._.:.<.[.}.*.|.-.;.+.+.+.>.,.1.. $ = _ _ _ _ _ _ _ ",
"            = _ _ _ _ _ 2.3.4.5.6.7.8.9.0.a.b.c.d.S S e.].f.+ + . = _ _ _ _ <   ",
", , $   > > , c _ _ _ _ g.h.i.j.k.l.m.n.k.o.p.~.q.r.s.t.u.v.> > > , c _ _ _ <   ",
"_ _ = $ * + + + = _ _ _ 9 w.x.y.*.*.*.z.A.B.C.Q R D.E.u.F.G._ _ = * . _ _ _ <   ",
"_ _ = < $ * . +   H.$ _ 9 I.J.K.L.L.M.N.O.P.Q.R.+.>.S.T.U._ _ _ _ , $ , < _ <   ",
"_ _ _ _ <   . + + + * = V.W.X.Y.Z.Z.`. +.+++@+..+.#+$+%+&+*+_ _ _ _ =   , _ <   ",
"> = _ _ = = $ > > > =+-+;+>+,+'+)+!+~+{+]+^+q.S /+(+s s _+:+<+g._ _ _ = < $ $   ",
"+ = _ _ _ _ ,       0 [+*.}+|+s t 1+r s P 2+3+r.4+s s s s 5+6+, _ _ _ _ <       ",
"_ _ = $             0 [+*.}+|+s s s s s 7+r.r.@+8+9+s s 0+a+b+_ _ $             ",
"= _ = $             > c+;+d+e+B s s s P 2+R R ..d.f+g+g+h+i+j+_ _ $ $         > ",
"+ = _ _ <             > k+l+m+n+M M M o+p++.+.q+u.Y r+s+t+g . , _ _ =       + 1 ",
"* , < < ,             > > u+v+w+x+y+z+A+B+C+D+E+F+G+H+I+> . . $ < < <       + 1 ",
"                    > + U J+K+L+M+N+O+P+Q+R+S+T+U+V+W+                      + 1 ",
"                    > + a X+Y+Z+`+ @.@+@@@#@$@%@&@*@=@                      + 1 ",
"                      0 -@;@@+>@,@'@)@!@~@~@~@~@~@{@w x                     > u+",
"                      0 3.]@r.@+^@&./@(@s s s s s _@:@<@I+I+[@                  ",
"    > + + + >         0 3.]@@+}@|@1@*.2@3@s s s s s 4@5@*.*.6@      > & 7@_ _ _ ",
"    > + + + >       =+8@9@0@a@|@1@b@c@d@e@s s s s s 4@*.*.*.6@      > 1 F _ _ _ ",
"_ $     * + + + + U f@g@h@i@j@k@l@m@  > n@M M M M M o@*.p@q@G.,     > 1 1 & 0 _ ",
"< $     > . . r@s@t@u@v@w@x@y@z@1 1 * 0 > c@A@*.*.*.*.p@B@< < $     > d 7 7 b < ",
"+ >         =+C@D@E@F@U+v@G@H@1 1 1 1 7   * U c+*.*.p@I@c + + *         > + + + ",
"*           0 J@K@L@M@N@O@P@6 d d d d a * > $ < q@q@I@$   * * >           * . + ",
"            > Q@R@S@T@U@V@+ + + + + + + +   _ _ _ _ _ + .                   * + "};
