/* XPM */
static char * _2_xpm[] = {
"40 40 260 2",
"  	c #222D1F",
". 	c #232E20",
"+ 	c #202B1D",
"@ 	c #1F2A1C",
"# 	c #1F2A1D",
"$ 	c #242F20",
"% 	c #242F21",
"& 	c #202A1C",
"* 	c #1E281A",
"= 	c #212C1E",
"- 	c #273224",
"; 	c #2C3828",
"> 	c #2A3626",
", 	c #253022",
"' 	c #273324",
") 	c #2B3627",
"! 	c #2C3728",
"~ 	c #283424",
"{ 	c #273223",
"] 	c #212B1D",
"^ 	c #232D20",
"/ 	c #263223",
"( 	c #253122",
"_ 	c #283224",
": 	c #283325",
"< 	c #1C2619",
"[ 	c #263123",
"} 	c #293426",
"| 	c #2A3526",
"1 	c #263122",
"2 	c #1C2518",
"3 	c #1F281B",
"4 	c #283324",
"5 	c #2B3727",
"6 	c #1D2719",
"7 	c #253021",
"8 	c #1E281B",
"9 	c #1E271A",
"0 	c #232D1F",
"a 	c #273124",
"b 	c #273022",
"c 	c #262F21",
"d 	c #262E20",
"e 	c #252E1F",
"f 	c #222C1F",
"g 	c #1E291B",
"h 	c #1D2619",
"i 	c #222C1E",
"j 	c #242D21",
"k 	c #3B381B",
"l 	c #3C381B",
"m 	c #554E1F",
"n 	c #242C1E",
"o 	c #253023",
"p 	c #202A1D",
"q 	c #353119",
"r 	c #6E6227",
"s 	c #706428",
"t 	c #918130",
"u 	c #928230",
"v 	c #21291A",
"w 	c #5E5525",
"x 	c #232C20",
"y 	c #161714",
"z 	c #6D6127",
"A 	c #87782D",
"B 	c #7F712A",
"C 	c #86782D",
"D 	c #85772D",
"E 	c #565024",
"F 	c #554F24",
"G 	c #212418",
"H 	c #151713",
"I 	c #8E7E2F",
"J 	c #87792D",
"K 	c #554E22",
"L 	c #191813",
"M 	c #141412",
"N 	c #514B21",
"O 	c #85782D",
"P 	c #555024",
"Q 	c #373A20",
"R 	c #36391F",
"S 	c #151613",
"T 	c #202C1D",
"U 	c #574F22",
"V 	c #1A1913",
"W 	c #6F6428",
"X 	c #363920",
"Y 	c #212317",
"Z 	c #20291D",
"` 	c #1F291B",
" .	c #242E20",
"..	c #282414",
"+.	c #161612",
"@.	c #454321",
"#.	c #36381F",
"$.	c #1F291C",
"%.	c #82752C",
"&.	c #252214",
"*.	c #125376",
"=.	c #14191C",
"-.	c #125477",
";.	c #141514",
">.	c #161512",
",.	c #6F6328",
"'.	c #5C5424",
").	c #1F2727",
"!.	c #1284B9",
"~.	c #142029",
"{.	c #1285BB",
"].	c #162329",
"^.	c #251C1E",
"/.	c #383A20",
"(.	c #444221",
"_.	c #35381F",
":.	c #161713",
"<.	c #544E23",
"[.	c #20333B",
"}.	c #1A313C",
"|.	c #141515",
"1.	c #362232",
"2.	c #464421",
"3.	c #5F5625",
"4.	c #544F24",
"5.	c #2F321C",
"6.	c #353325",
"7.	c #171713",
"8.	c #20171E",
"9.	c #361D33",
"0.	c #352132",
"a.	c #514A21",
"b.	c #141512",
"c.	c #1A1E17",
"d.	c #40223F",
"e.	c #511D4C",
"f.	c #521D4D",
"g.	c #422341",
"h.	c #5F2E5C",
"i.	c #42352F",
"j.	c #202217",
"k.	c #242E21",
"l.	c #5C2D59",
"m.	c #912D89",
"n.	c #932D8B",
"o.	c #602E5D",
"p.	c #705053",
"q.	c #393B20",
"r.	c #5C5525",
"s.	c #5A5324",
"t.	c #1B1C14",
"u.	c #161814",
"v.	c #6D4E51",
"w.	c #915078",
"x.	c #883D79",
"y.	c #873C79",
"z.	c #93507A",
"A.	c #715054",
"B.	c #464321",
"C.	c #5E5725",
"D.	c #8F802F",
"E.	c #534C1F",
"F.	c #232E21",
"G.	c #726528",
"H.	c #615725",
"I.	c #252817",
"J.	c #575124",
"K.	c #1A2018",
"L.	c #918230",
"M.	c #544D21",
"N.	c #80722B",
"O.	c #7E702B",
"P.	c #524A21",
"Q.	c #242819",
"R.	c #263023",
"S.	c #1B1F18",
"T.	c #504920",
"U.	c #7D6F2A",
"V.	c #81742C",
"W.	c #212315",
"X.	c #242919",
"Y.	c #232818",
"Z.	c #633C1D",
"`.	c #653D1D",
" +	c #86562F",
".+	c #87562F",
"++	c #6D4C25",
"@+	c #3D361C",
"#+	c #6C4C25",
"$+	c #3B351C",
"%+	c #281B11",
"&+	c #1A1E18",
"*+	c #B16A2F",
"=+	c #B56C30",
"-+	c #C67B3C",
";+	c #EF9953",
">+	c #F09A53",
",+	c #C77B3C",
"'+	c #4A2A0E",
")+	c #B36B2F",
"!+	c #47280D",
"~+	c #46280E",
"{+	c #9B5F2B",
"]+	c #9F612C",
"^+	c #E08E4A",
"/+	c #D58C4A",
"(+	c #A3672D",
"_+	c #503A16",
":+	c #A2662D",
"<+	c #4E3916",
"[+	c #4D3916",
"}+	c #434120",
"|+	c #9B5D2A",
"1+	c #D08547",
"2+	c #D18648",
"3+	c #605625",
"4+	c #252717",
"5+	c #1D261A",
"6+	c #353019",
"7+	c #5D5424",
"8+	c #90802F",
"9+	c #3B371B",
"0+	c #1D271A",
"a+	c #5C5324",
"b+	c #30331D",
"c+	c #32351D",
"d+	c #151612",
"e+	c #191D16",
"f+	c #31341D",
"g+	c #8F7F2F",
"h+	c #212316",
"i+	c #4F4920",
"j+	c #524B21",
"k+	c #161613",
"l+	c #191D17",
"m+	c #7C6E29",
"n+	c #1A1F18",
"o+	c #151412",
"p+	c #291B11",
"q+	c #212A1D",
"r+	c #1A1D17",
"s+	c #3E240E",
"t+	c #70411B",
"u+	c #181C15",
"v+	c #1B1D17",
"w+	c #41260F",
"x+	c #77461C",
"y+	c #B0692F",
"z+	c #171B14",
"A+	c #161A14",
"B+	c #181D16",
"C+	c #283021",
"D+	c #6A401E",
"E+	c #B46B30",
"F+	c #995C29",
"G+	c #1C221A",
"H+	c #2F3222",
"I+	c #9E602D",
"J+	c #9A5E2C",
"K+	c #1C211A",
"  . . . . . + @ @ # + . $ % % % % % % % . . . + @ @ @ # + . . . . . . . . . & * ",
". . . . = @ @ @ . . . . - ; ; ; ; ; ; > . . . + @ @ @ . . . . . . . . . . . . . ",
"% . . .   + @ @       , ' ) ! ; ; ; ~ {     . = + + = . . . . . . . . ] ^ / / ( ",
", . . . . . + @ @ @ = _ : : ) ; ; ; @ @ @ = . . . . . . . . . . . .   < = ; ; ) ",
"- % % [ [ [ , % + @ = _ : : } | 1 , @ + =   . . . . . [ [ [ [ % . .   2 3 $ 4 5 ",
"} % % - : : : : + @ = _ : : : : + @ @ + . . . . . . . : : : : , . .   2 2 6 7 5 ",
"= 8 9 3 0 - : : a [ - : : : : b c d d c c e . . . - - : [ = =   . . . f = g +   ",
"@ h 2 2 i - : : : : : : : : j k l m m m m l n n . : : : o @ @ = . . . .   @ @ @ ",
"@ @ @ @ * 2 % : : : : : [ p q r s t u u u s m k v - : @ + . . . . . . . . . = @ ",
"@ @ @ @ * 2 % : : : : : f q r t u u u u u u t w k x : @ + . . . . . . . . . = @ ",
"= + + + 8 2 f , : : : - y z t A B B C u u u D E F G x + = . .     , 1 1 1 1 7   ",
", . . . + h 2 2 - : - . H I J K L M N B u O P Q Q R S . . . . = T > ; ; ; ; ; ) ",
". . . . = & 8 * ^ % % . H I U V M M M M B W Q Q Q X Y Z . . . p `  .1 ; ; ; ; > ",
"    . . . . + @ @ @ + . H I ..M M M M M +.t @.Q Q Q #.H . . . ` 2 2 3 ; ; ; ; > ",
"$.* $.  . .           . H %.&.*.=.M -.;.>.B ,.Q Q Q X Y Z . .   = ` @ . , } } - ",
"3 2 *   . . . . . . . . H '.).!.~.M {.].M ^.t /.@.@.(._.:.. . . . + @ @   : : [ ",
"% + @ @ = . . . . . . . H <.[.}.|.M }.}.M 1.t 2.3.3.4.5.S @ + , : : : : : : : - ",
"% + @ @ = . . . . . . . H 6.7.M M M M 8.9.0.D E E a.5.b.c.@ + % - : : : : : : - ",
". . . . . . - : : : : : y d.e.f.f.f.9.g.h.i.w Q X Y j.H   @ @ @ + - : : : : [ . ",
", , % .     , o : : : k.H l.m.n.n.n.o.h.p.3.P q.r.r.s.t.%         , o : : : [ . ",
"- : - % = @ @ @ - : : u.M v.w.x.y.z.A.p.u E B.C.u u D.E.b : : : - = + : : : [ % ",
"- : - [ % = + @ . F.% y M I u G.s t u u u @.H.u u u u I I.: : : : , % , [ : [ % ",
"- : : : [ . + @ @ @ = H M I u u u u u u C E J.C u u t %.I.: : : : : - . , : [ % ",
"  - : : - - %       . K.b.%.L.u u u u u E Q /.M.N.N.O.P.Q.= f R.: : : - [ % % . ",
"+ - : : : : , . . . . . S.T.U.B B B B V.Q Q Q Y W.W.X.Y.@ @ + , : : : : [ . .   ",
"- : - % . . . . . . . . . S Z.`.`. +.+++++@+#+$+%+&+. . % : : : : % . . . . . % ",
"[ : - % . . . . . . . . . S *+=+-+;+>+,+=+'+)+!+~+. . . % - - : : % % . . . . . ",
"g - : : [ . . . . . . . Z Y {+]+^+>+>+/+(+_+:+<+[+n . .   @ + , : : - . . . @ h ",
"+ , [ [ , . . . . . .   H }+@.@.|+1+2+3+s s s s r 4+. .   + + % [ [ [ . . . @ h ",
"  . . . . . . . . .   5+6+7+3.3.V M M E u u u u 8+9+n . . . . . . . . . . . @ 0+",
"  . . . . . . . . .   H a+3.3.E L M M b+V.u u u t r 4+. . . . . . . . . . . @ 0+",
"^ . . . . . . . . . . :.a+3.E c+d+M M e+f+u u u u g+h+Z . . . . . . . . . .   = ",
". . . . . . . . . . . :.i+j+c+k+M l+l+. >.B B B B m+M H . . . . . . . . . . . . ",
"% .   @ @ @   . . . . n+b.M M M M Z Z . l+l+o+p+p+p+%+H . . . . . .   h q+: : - ",
"% .   @ @ @   . . . . . H M M M M M M . . . r+s+!+'+t+H . . . . . .   2 p : : - ",
": % . . = @ @ @ @ @ @ @ u+M M M M M M . . . . v+w+x+y+y : : : , . .   2 2 h f : ",
"[ % . .   + + + + + + @ g z+A+A+A+A+B+f . .   C+D+E+F+G+- [ [ % . .   * 9 9 i [ ",
"@   . . . . . . . .   @ @ @ 6 2 2 2 2 9 . = @ H+I+J+K+: o @ @ = . . . .   @ @ @ ",
"= . . . . . . . = = = @ @ @ 8 * * * * g =   % - : : : % . = =   . . . . . = + @ ",
"  . . . . . . . @ @ @ @ @ @ @ @ @ @ @ @ @ . : : : : : @ + . . . . . . . . . = + "};
