/* XPM */
static char * _3_xpm[] = {
"40 40 332 2",
"  	c #232E20",
". 	c #202B1D",
"+ 	c #1F2A1C",
"@ 	c #1F2A1D",
"# 	c #242F20",
"$ 	c #242F21",
"% 	c #212B1D",
"& 	c #1D2619",
"* 	c #212C1E",
"= 	c #273224",
"- 	c #2C3828",
"; 	c #2A3626",
"> 	c #222D1F",
", 	c #253022",
"' 	c #273324",
") 	c #2B3627",
"! 	c #2C3728",
"~ 	c #283424",
"{ 	c #273223",
"] 	c #222C1F",
"^ 	c #263223",
"/ 	c #283325",
"( 	c #232D20",
"_ 	c #1C2518",
": 	c #202A1D",
"< 	c #263123",
"[ 	c #293426",
"} 	c #293122",
"| 	c #262D1D",
"1 	c #252C1D",
"2 	c #222919",
"3 	c #22291A",
"4 	c #232A1B",
"5 	c #232D1F",
"6 	c #1E281A",
"7 	c #242E20",
"8 	c #273323",
"9 	c #232C21",
"0 	c #3C3A1E",
"a 	c #46411E",
"b 	c #5E5522",
"c 	c #695E24",
"d 	c #554D20",
"e 	c #33341D",
"f 	c #242B1C",
"g 	c #1D271A",
"h 	c #1E271A",
"i 	c #1F281B",
"j 	c #273124",
"k 	c #39361D",
"l 	c #695E26",
"m 	c #7A6D2A",
"n 	c #8A7B2E",
"o 	c #928230",
"p 	c #83752D",
"q 	c #6F6427",
"r 	c #273022",
"s 	c #1E291B",
"t 	c #232C1F",
"u 	c #38361D",
"v 	c #897B2E",
"w 	c #756929",
"x 	c #504A21",
"y 	c #32331E",
"z 	c #252F23",
"A 	c #252F21",
"B 	c #1D231A",
"C 	c #625823",
"D 	c #897A2E",
"E 	c #86772D",
"F 	c #756828",
"G 	c #6F6325",
"H 	c #796C29",
"I 	c #8B7C2E",
"J 	c #645B26",
"K 	c #504B23",
"L 	c #3A381D",
"M 	c #24291C",
"N 	c #1D271B",
"O 	c #756928",
"P 	c #615723",
"Q 	c #302C17",
"R 	c #141412",
"S 	c #3B361A",
"T 	c #635923",
"U 	c #87782C",
"V 	c #414121",
"W 	c #373A20",
"X 	c #252718",
"Y 	c #1B2419",
"Z 	c #1E281B",
"` 	c #1C2319",
" .	c #6B5F25",
"..	c #312D17",
"+.	c #151512",
"@.	c #5B5120",
"#.	c #766929",
"$.	c #575124",
"%.	c #2E301C",
"&.	c #212519",
"*.	c #1F291C",
"=.	c #263122",
"-.	c #253021",
";.	c #202A1C",
">.	c #1B2219",
",.	c #5E5420",
"'.	c #181712",
").	c #776A28",
"!.	c #6C6228",
"~.	c #404021",
"{.	c #1E271C",
"].	c #242E21",
"^.	c #1B2118",
"/.	c #665B24",
"(.	c #51491E",
"_.	c #15577A",
":.	c #134461",
"<.	c #141515",
"[.	c #12577B",
"}.	c #134460",
"|.	c #22271A",
"1.	c #212B1E",
"2.	c #253122",
"3.	c #1A2118",
"4.	c #4D451F",
"5.	c #3D3E2D",
"6.	c #17638B",
"7.	c #144D6C",
"8.	c #141615",
"9.	c #14628A",
"0.	c #175170",
"a.	c #151D21",
"b.	c #22191F",
"c.	c #796B2C",
"d.	c #655C27",
"e.	c #454422",
"f.	c #4C4822",
"g.	c #3F3F21",
"h.	c #1F291B",
"i.	c #1D2719",
"j.	c #403C1E",
"k.	c #35392F",
"l.	c #1A2C35",
"m.	c #161F23",
"n.	c #17252B",
"o.	c #192C35",
"p.	c #2B1C29",
"q.	c #7A6B31",
"r.	c #595124",
"s.	c #5F5625",
"t.	c #554E24",
"u.	c #3A391E",
"v.	c #1E1F15",
"w.	c #2C2823",
"x.	c #24211D",
"y.	c #20171F",
"z.	c #3A1F38",
"A.	c #3A2138",
"B.	c #6A5D2E",
"C.	c #4B4520",
"D.	c #37351C",
"E.	c #191F17",
"F.	c #212A1E",
"G.	c #3C213A",
"H.	c #5D2358",
"I.	c #672261",
"J.	c #52224E",
"K.	c #482546",
"L.	c #582B56",
"M.	c #533943",
"N.	c #584E28",
"O.	c #494622",
"P.	c #282A19",
"Q.	c #1D1E15",
"R.	c #1E261B",
"S.	c #1F281D",
"T.	c #181C15",
"U.	c #4D274A",
"V.	c #822D7B",
"W.	c #932D8B",
"X.	c #752E70",
"Y.	c #5F2E5C",
"Z.	c #715252",
"`.	c #6A5A37",
" +	c #564F24",
".+	c #424121",
"++	c #5D5725",
"@+	c #6D6328",
"#+	c #46401D",
"$+	c #20281B",
"%+	c #1E241B",
"&+	c #141512",
"*+	c #624D3D",
"=+	c #896062",
"-+	c #864F6C",
";+	c #7F436C",
">+	c #7B5759",
",+	c #7A604C",
"'+	c #8A773C",
")+	c #6E6328",
"!+	c #4E4923",
"~+	c #635B26",
"{+	c #86782D",
"]+	c #918130",
"^+	c #45421F",
"/+	c #202A1B",
"(+	c #253023",
"_+	c #5A5224",
":+	c #82742C",
"<+	c #232B1C",
"[+	c #706528",
"}+	c #85762D",
"|+	c #534B1F",
"1+	c #272F20",
"2+	c #232E21",
"3+	c #222B20",
"4+	c #181D16",
"5+	c #44401F",
"6+	c #655A24",
"7+	c #716526",
"8+	c #706526",
"9+	c #5A5222",
"0+	c #35371D",
"a+	c #273123",
"b+	c #3C391D",
"c+	c #726728",
"d+	c #544F24",
"e+	c #1B1C13",
"f+	c #1E2014",
"g+	c #212517",
"h+	c #222819",
"i+	c #232C1D",
"j+	c #1D241A",
"k+	c #673D1E",
"l+	c #7F4C23",
"m+	c #9C6233",
"n+	c #AA6C3A",
"o+	c #91592D",
"p+	c #825226",
"q+	c #845528",
"r+	c #5F421F",
"s+	c #714B23",
"t+	c #5B3A1B",
"u+	c #321F10",
"v+	c #262116",
"w+	c #20291D",
"x+	c #263023",
"y+	c #925728",
"z+	c #C77B3D",
"A+	c #E6924E",
"B+	c #F09A53",
"C+	c #DE8C49",
"D+	c #C07538",
"E+	c #B56C30",
"F+	c #7E4A1E",
"G+	c #995A27",
"H+	c #7D4A1E",
"I+	c #47280D",
"J+	c #332C1B",
"K+	c #25281A",
"L+	c #744B24",
"M+	c #C0783D",
"N+	c #E7944E",
"O+	c #D38B49",
"P+	c #A76F35",
"Q+	c #96632B",
"R+	c #715022",
"S+	c #825826",
"T+	c #53421A",
"U+	c #3A351C",
"V+	c #3D3A1D",
"W+	c #805A28",
"X+	c #AB6F39",
"Y+	c #B8753F",
"Z+	c #886330",
"`+	c #716529",
" @	c #796C2A",
".@	c #50491F",
"+@	c #242C1D",
"@@	c #37351B",
"#@	c #554D22",
"$@	c #3E381A",
"%@	c #413D1E",
"&@	c #7F722C",
"*@	c #695E25",
"=@	c #1A2017",
"-@	c #343119",
";@	c #242618",
">@	c #615925",
",@	c #887A2E",
"'@	c #82742D",
")@	c #191F16",
"!@	c #3C3B1E",
"~@	c #1F2015",
"{@	c #796D2A",
"]@	c #5D5421",
"^@	c #1D2318",
"/@	c #3A351A",
"(@	c #48421E",
"_@	c #38361C",
":@	c #222317",
"<@	c #6E6225",
"[@	c #463E1B",
"}@	c #161914",
"|@	c #32351E",
"1@	c #191E17",
"2@	c #1C2219",
"3@	c #54371C",
"4@	c #171A15",
"5@	c #1C2419",
"6@	c #704421",
"7@	c #8D5425",
"8@	c #905524",
"9@	c #5C371A",
"0@	c #1A2018",
"a@	c #20291C",
"b@	c #191E16",
"c@	c #3A220F",
"d@	c #2E1D10",
"e@	c #1F271C",
"f@	c #1A2116",
"g@	c #673E1F",
"h@	c #844E22",
"i@	c #885022",
"j@	c #563319",
"k@	c #252F22",
"l@	c #1C2619",
"m@	c #1A2117",
"n@	c #714522",
"o@	c #8B5527",
"p@	c #593B1F",
"q@	c #20281D",
"            . + + @ .   # $ $ $ $ $ $ $       . + + + @ .                   % & ",
"        * + + +         = - - - - - - ;       . + + +                           ",
"        > . + + > > > , ' ) ! - - - ~ { > >   * . . *                 % ] ^ ^ ^ ",
"            . + + + * / / / ) - - - + + + *                         ( _ : - - - ",
"<   $ < < < , $ + + * / / / [ } | 1 2 3 4 4 5         < < < < $     ( _ 6 7 8 - ",
"/   $ / / / / / . + * / / / 9 0 a b c c c d e f 5     / / / / ,     ( _ _ & $ - ",
"* g h i 7 / / / j < = / / 9 k l m n o o o p q d e r = / < * * >       ] * s . > ",
"+ _ _ _ t / / / / / / / 9 u l v o o o o o o o w x y z / < + + *         > + + + ",
"+ + + + 6 _ A / / / / / B C D E F G H I o o E J K L M N .                   * + ",
"+ + + + 6 _ A / / / / / B O E P Q R S T U E J V W W X Y .                   * + ",
". . . . Z _ ( , / / / = ` O  ...+.R R R @.#.$.W W W %.&.*.    > > , =.=.=.=.-.  ",
"        ;._ _ _ = / =   >.O ,.'.R R R R +.).!.~.W W W X {.    * . ; - - - - - - ",
"*       * ;.Z 6 ].$ $   ^./.(._.:.<.[.}.R @.#.$.W W W %.|.1.  : 6 7 2.- - - - - ",
"+           . + + + .   3.4.5.6.7.8.9.0.a.b.c.d.e.f.f.g.X {.  h._ _ i.- - - - - ",
"& 6 *.      > > > > >   3.j.k.l.m.R n.o.m.p.q.!.r.s.t.u.v.{.  > * h.s   $ [ [ [ ",
"_ _ 6                   3.w.x.R R R R y.z.A.B.J K C.D.v.E.F.      . + + > / / / ",
"  + + + *               3.G.H.I.I.I.J.K.L.M.N.O.W %.P.Q.R.+ + , / / / / / / / / ",
"  + + + *             S.T.U.V.W.W.W.X.Y.Z.`. +.+++@+!.#+$++ + $ = / / / / / / / ",
"            = / / / / %+&+*+=+-+;+;+>+,+'+)+!+~+{+o ]+H ^+/++ + : = / / / / <   ",
", , $   > > , (+/ / / %+&+O ]+p m m n o o !._+:+o o o ]+b <+> > > , (+/ / / <   ",
"/ / =   * + + + / / / %+&+O ]+o o o o o E J K [+I o o }+|+1+/ / / * . / / / <   ",
"/ / = < $ * . +   2+$ 3+4+/.n o o o o o )+V W 5+6+7+8+9+0+a+/ / / , $ , < / <   ",
"/ / / / <   . + + + * / 3+b+C G G G G c+d+W W X e+f+g+h+i+/ / / / / /   $ / <   ",
"> / / / = =   > > >   $ < j+k+l+m+n+o+p+q+r+s+t+u+v+w++ . * * x+/ / / = < $ $   ",
"+ = / / / / $           , B y+z+A+B+C+D+E+F+G+H+I+J+  + + + + , / / / / =       ",
"/ / =                   S.K+L+M+N+B+O+P+Q+R+S+R+T+U+5   $ / / / / $             ",
"= / = $                 3.V+f.W+X+Y+Z+`+m m m m  @.@+@  $ = = / / $ $         > ",
"+ = / / <             S.@@#@s.s.$@+.%@&@o o o o ]+*@e 5 > + + , / / /       . _ ",
"* < < < ,             =@4.s.s. +-@+.;@>@,@o o o o '@.@+@> . . $ < < <       . _ ",
"                    > )@4.s. +!@~@R R ;@{@o o o o ]+]@^@1.                  . _ ",
"                    > )@/@(@_@~@R :@Q.R @.G G G G <@[@&+{.                  . _ ",
"                      R.^.}@R :@P.|@X R R R R R R 1@2@2@F.                  > 1.",
"                        * )@k+p+q+q+3@1@4@R R R &+{.                            ",
"    > + + + >           * 5@6@7@8@8@9@{.0@R R R &+{.                  & a@/ / / ",
"    > + + + >           * + b@c@I+I+d@{.e@2@2@4@&+{.                ( _ *./ / / ",
"/       * + + + + + + + 6 f@g@h@i@i@j@{.      e@2@k@/ / / / / ,     ( _ _ l@] / ",
"<       > . . . . . . + s m@n@o@o@o@p@q@    > $ $ / / / = < < $       6 h & * < ",
"+                   > + + + i._ _ _ _ h   * + , / / / / < + + *         > + + + ",
"*               * * * + + + Z 6 6 6 6 s * > $ = / / / $   * * >           * . + ",
"                + + + + + + + + + + + + +   / / / / / + .                   * + "};
