/* XPM */
static char * 1_xpm[] = {
"40 40 60 1",
" 	c #232E20",
".	c #202B1D",
"+	c #1F2A1C",
"@	c #1F2A1D",
"#	c #242F20",
"$	c #242F21",
"%	c #212B1D",
"&	c #1D2619",
"*	c #212C1E",
"=	c #273224",
"-	c #2C3828",
";	c #2A3626",
">	c #222D1F",
",	c #253022",
"'	c #273324",
")	c #2B3627",
"!	c #2C3728",
"~	c #283424",
"{	c #273223",
"]	c #222C1F",
"^	c #263223",
"/	c #283325",
"(	c #1C2518",
"_	c #1F291C",
":	c #263123",
"<	c #293426",
"[	c #252716",
"}	c #1E271A",
"|	c #242E20",
"1	c #141412",
"2	c #5F5625",
"3	c #928230",
"4	c #1D271A",
"5	c #1F281B",
"6	c #273124",
"7	c #1E291B",
"8	c #232D1F",
"9	c #1E281A",
"0	c #373A20",
"a	c #1E281B",
"b	c #232D20",
"c	c #263122",
"d	c #253021",
"e	c #202A1C",
"f	c #242E21",
"g	c #0C98D6",
"h	c #202A1D",
"i	c #1C3845",
"j	c #331E32",
"k	c #1F291B",
"l	c #5F2E5C",
"m	c #932D8B",
"n	c #253023",
"o	c #232E21",
"p	c #B56C30",
"q	c #F09A53",
"r	c #47280D",
"s	c #263023",
"t	c #212B1E",
"u	c #1D2719",
"      .++@. #$$$$$$$   .+++@.         %&",
"    *+++    =------;   .+++             ",
"    >.++>>>,')!---~{>> *..*        %]^^^",
"      .+++*///)---+++*             (_---",
": $:::,$++*///<[[[[[[[     ::::$   (}|{-",
"/ $/////++*///12233332[[   ////,   ((( -",
"*4}5|///6:=//12333333332[==/:**>   ]*7.>",
"+(((8///////12333333333221//:++*    >+++",
"++++9(,/////133211233320001+.         *+",
"++++9(,/////132111113200001+.         *+",
"....a(b,///=1311111113000001*  >>,ccccd ",
"    e(((//= 1311111113200001   *+;------",
"*   *ea9f$$ 121g11g1113000001  h9|d-----",
"+     .+++. 12ii11ii1j3022201  k(((-----",
"&9_   >>>>> 101111111j3222011  >*k7 $<<<",
"((9         1j11111jlj200111     .++*///",
" +++*       1lmmmmlll2200001>++,////////",
" +++*      11lmmmmll3200333[>++$=///////",
"      =////11332223330233333[++++=////: ",
",,$ >>,n///11333333332233333[>>>>,n///: ",
"//= *+++///11333333320023332[////*+///: ",
"//=:$*.+ o$/123333330001[[[[,////,$,:/: ",
"////: .+++*//1111110000111++>////// $/: ",
">///== >>> $:1ppqqppprprr>>+.**s///=:$$ ",
"+/////$     ,1pqqqqpprprr  ++++,////=   ",
"//=         100pqq2222222[  $////$      ",
"=/=$        1222112333333[  $==//$$    >",
"+///:      122221103333332[ >++,///   .(",
"*:::,      122201110333333[ >..$:::   .(",
"          >12201111133333311          .(",
"          >11111101111111111          .(",
"           >*110001111111             >t",
"            *1pppp1 11111               ",
"  >+++>     *+1rrr1 11111          &5///",
"  >+++>     *+1rrr1    11          (a///",
"/   *+++++++91pppp1      //////,   (((t/",
":   >......+7&((((*]  >$$///=::$   9}&%:",
"+         >+++u((((} *+,////:++*    >+++",
"*       ***+++a99997*>$=///$ **>     *.+",
"        +++++++++++++ /////+.         *+"};
