/* XPM */
static char * 2_xpm[] = {
"40 40 267 2",
"  	c #232E20",
". 	c #202B1D",
"+ 	c #1F2A1C",
"@ 	c #1F2A1D",
"# 	c #242F20",
"$ 	c #242F21",
"% 	c #212B1D",
"& 	c #1D2619",
"* 	c #212C1E",
"= 	c #273224",
"- 	c #2C3828",
"; 	c #2A3626",
"> 	c #222D1F",
", 	c #253022",
"' 	c #273324",
") 	c #2B3627",
"! 	c #2C3728",
"~ 	c #272D1D",
"{ 	c #262B1A",
"] 	c #262A19",
"^ 	c #252919",
"/ 	c #242818",
"( 	c #232D1F",
"_ 	c #222C1F",
": 	c #263223",
"< 	c #283325",
"[ 	c #1E231B",
"} 	c #504A21",
"| 	c #585023",
"1 	c #7F722B",
"2 	c #86782C",
"3 	c #625925",
"4 	c #33321A",
"5 	c #252818",
"6 	c #1C2518",
"7 	c #1F291C",
"8 	c #263123",
"9 	c #1C211A",
"0 	c #504820",
"a 	c #83752C",
"b 	c #8A7B2E",
"c 	c #918130",
"d 	c #928230",
"e 	c #8C7D2F",
"f 	c #87782D",
"g 	c #1E271A",
"h 	c #242E20",
"i 	c #273223",
"j 	c #6B6027",
"k 	c #595123",
"l 	c #2C2A19",
"m 	c #212B1E",
"n 	c #1D271A",
"o 	c #1F281B",
"p 	c #273124",
"q 	c #191C17",
"r 	c #7F712A",
"s 	c #736729",
"t 	c #4D451D",
"u 	c #443D1A",
"v 	c #655B25",
"w 	c #4A4722",
"x 	c #414021",
"y 	c #35371E",
"z 	c #1F2218",
"A 	c #263023",
"B 	c #1E291B",
"C 	c #85772C",
"D 	c #3E381A",
"E 	c #1A1913",
"F 	c #141412",
"G 	c #2A2616",
"H 	c #413A19",
"I 	c #88792D",
"J 	c #393B20",
"K 	c #373A20",
"L 	c #1E1F15",
"M 	c #252F22",
"N 	c #1E281A",
"O 	c #181B16",
"P 	c #3E3819",
"Q 	c #81732B",
"R 	c #4F4B23",
"S 	c #33361E",
"T 	c #1D2016",
"U 	c #1E281C",
"V 	c #675D27",
"W 	c #3F3F21",
"X 	c #1E281B",
"Y 	c #232D20",
"Z 	c #615824",
"` 	c #322E17",
" .	c #0F7FB3",
"..	c #13415B",
"+.	c #1E2017",
"@.	c #263122",
"#.	c #253021",
"$.	c #202A1C",
"%.	c #574F22",
"&.	c #303B3B",
"*.	c #1A506C",
"=.	c #152935",
"-.	c #194D69",
";.	c #1B3B4C",
">.	c #151C1F",
",.	c #2B1B2A",
"'.	c #867730",
").	c #524E23",
"!.	c #544E23",
"~.	c #595224",
"{.	c #212A1E",
"].	c #242E21",
"^.	c #181B15",
"/.	c #3B3B1F",
"(.	c #222722",
"_.	c #161E22",
":.	c #141616",
"<.	c #2F1C2E",
"[.	c #877730",
"}.	c #5E5525",
"|.	c #5F5625",
"1.	c #474522",
"2.	c #272718",
"3.	c #161613",
"4.	c #202A1D",
"5.	c #171B15",
"6.	c #30222B",
"7.	c #1C181A",
"8.	c #51284F",
"9.	c #3B213A",
"0.	c #635829",
"a.	c #312F19",
"b.	c #212115",
"c.	c #1F271C",
"d.	c #1F291B",
"e.	c #802A79",
"f.	c #862A7F",
"g.	c #622A5E",
"h.	c #592B56",
"i.	c #5E2E5B",
"j.	c #5A4A36",
"k.	c #33351E",
"l.	c #1C1D15",
"m.	c #293426",
"n.	c #1A1F17",
"o.	c #151513",
"p.	c #572A54",
"q.	c #8B2D84",
"r.	c #932D8B",
"s.	c #6B2E67",
"t.	c #5F2E5C",
"u.	c #846F42",
"v.	c #695D2A",
"w.	c #7D702B",
"x.	c #87792E",
"y.	c #443F1B",
"z.	c #232C1E",
"A.	c #7F6E36",
"B.	c #917849",
"C.	c #735947",
"D.	c #6B5046",
"E.	c #8C724B",
"F.	c #8C783E",
"G.	c #8A783B",
"H.	c #918032",
"I.	c #575124",
"J.	c #554F24",
"K.	c #80732C",
"L.	c #908030",
"M.	c #887A2D",
"N.	c #44401C",
"O.	c #202A1B",
"P.	c #49441C",
"Q.	c #20291B",
"R.	c #655B26",
"S.	c #3A371A",
"T.	c #253023",
"U.	c #2F2D19",
"V.	c #45401B",
"W.	c #282F1E",
"X.	c #2C2B19",
"Y.	c #4F4B22",
"Z.	c #3D3E21",
"`.	c #1F2015",
" +	c #181813",
".+	c #212A1D",
"++	c #273123",
"@+	c #232E21",
"#+	c #975A29",
"$+	c #A6632C",
"%+	c #D38647",
"&+	c #DC8D4C",
"*+	c #B26E35",
"=+	c #A7652E",
"-+	c #603B19",
";+	c #9B5E2A",
">+	c #42260F",
",+	c #27281A",
"'+	c #B56C30",
")+	c #DF8D4A",
"!+	c #EE9952",
"~+	c #F09A53",
"{+	c #E8944F",
"]+	c #BF7437",
"^+	c #673C17",
"/+	c #A8642C",
"(+	c #47280D",
"_+	c #292A1A",
":+	c #1B2019",
"<+	c #2F321C",
"[+	c #594423",
"}+	c #5F4623",
"|+	c #B56F35",
"1+	c #A37239",
"2+	c #795D29",
"3+	c #615223",
"4+	c #715926",
"5+	c #5B5022",
"6+	c #34321A",
"7+	c #222C1E",
"8+	c #524B22",
"9+	c #553A1C",
"0+	c #6C4525",
"a+	c #714827",
"b+	c #635425",
"c+	c #84762D",
"d+	c #46411C",
"e+	c #232D1E",
"f+	c #2D2917",
"g+	c #88792E",
"h+	c #665C26",
"i+	c #4B4821",
"j+	c #897A2E",
"k+	c #1E2117",
"l+	c #86772C",
"m+	c #453E1A",
"n+	c #181A15",
"o+	c #171A15",
"p+	c #1E271B",
"q+	c #222014",
"r+	c #161814",
"s+	c #161914",
"t+	c #1B2317",
"u+	c #151713",
"v+	c #3C230F",
"w+	c #41250E",
"x+	c #211811",
"y+	c #1C261A",
"z+	c #221C13",
"A+	c #42260E",
"B+	c #9C5C28",
"C+	c #4E2F19",
"D+	c #1F291D",
"E+	c #20291D",
"F+	c #1F281D",
"G+	c #231D14",
"H+	c #9A5B28",
"I+	c #B36B2F",
"J+	c #54331A",
"K+	c #985C2A",
"L+	c #B26A2F",
"M+	c #6F421F",
"N+	c #2F2C1D",
"O+	c #513C23",
"P+	c #583F23",
"Q+	c #302F1F",
"R+	c #1D2719",
"            . + + @ .   # $ $ $ $ $ $ $       . + + + @ .                   % & ",
"        * + + +         = - - - - - - ;       . + + +                           ",
"        > . + + > > > , ' ) ! ~ { { ] ^ / / ( * . . *                 % _ : : : ",
"            . + + + * < < < [ } | 1 2 2 2 3 4 5 (                     6 7 - - - ",
"8   $ 8 8 8 , $ + + * < < 9 0 a b c d d d e f 3 4 (   8 8 8 8 $       6 g h i - ",
"<   $ < < < < < + + * < 9 0 a c d d d d d d d j k l m < < < < ,       6 6 6   - ",
"* n g o h < < < p 8 = < q r c s t u v e d d s w x y z A 8 * * >       _ * B . > ",
"+ 6 6 6 ( < < < < < < < q C s D E F G H I s w J K K L M 8 + + *         > + + + ",
"+ + + + N 6 , < < < < < O C t E F F F F P Q R K K K S T U                   * + ",
"+ + + + N 6 , < < < < < O C u F F F F F F C V W K K K L X                   * + ",
". . . . X 6 Y , < < < = O Z `  ...F  ...F P Q R K K K S +.m   > > , @.@.@.@.#.  ",
"        $.6 6 6 < < =   O %.&.*.=.F -.;.>.,.'.).!.~.~.W L {.  * + ; - - - - - - ",
"*       * $.X N ].$ $   ^./.(._.:.F >._.:.<.[.V }.|.1.2.3.{.  4.N h #.- - - - - ",
"+           . + + + .   5.6.7.F F F F ,.8.9.0.w x a.b.3.c.Y   d.6 6 6 - - - - - ",
"& N 7       > > > > >   5.8.e.f.f.f.g.h.i.j.}.x K S k.l.{.    > * d.B   $ m.m.m.",
"6 6 N                 n.o.p.q.r.r.r.s.t.u.v.1.J w.x.x.y.z.        . + + * < < < ",
"  + + + *             5.F A.B.C.D.E.F.G.H.I.J.K.L.d d M.N.O.+ , < < < < < < < < ",
"  + + + *             5.F C d e b c d d d V }.b d d d d P.Q.+ $ = < < < < < < < ",
"            = < < < < q F C d d d d d d s w x R.e d d s S.Q.+ + + = < < < < 8   ",
", , $   > > , T.< < < A O Z e d d d d d I.J K U.V.P.P.S.W.> > > > , T.< < < 8   ",
"< < =   * + + + < < < < A X.H u u u u Y.Z.K K S `. +.+++< < < < < * + < < < 8   ",
"< < = 8 $ * . +   @+$ < < q #+$+$+%+&+*+=+-+;+-+>+,+m @+, < < < < , $ , 8 < 8   ",
"< < < < 8   . + + + * < < q $+'+)+!+~+{+]+^+/+^+(+_++ + > < < < < < <   $ < 8   ",
"> < < < = =   > > >   $ :+<+[+}+|+{+~+1+2+3+4+3+5+6+7++ . * * A < < < = 8 $ $   ",
"+ < < < < < $           O 8+~.~.9+0+a+b+c+b b b b d+e++ + + + , < < < < =       ",
"< < =                 n.0 }.|.|.f+F F /.g+d d d d h+4 ( $ < < < < $             ",
"= < = $               5.%.|.|.1.b.F F l.i+j+d d d e d+e+$ = = < < $ $         > ",
"+ < < < 8             5.%.|.1.2.3.F F c.k+l+d d d d m+n+4.+ + , < < <       . 6 ",
"* 8 8 8 ,             o+G f+b.3.F p+4.m o+P u u u u q+F 4.. . $ 8 8 8       . 6 ",
"                    > X r+F F F F r+s+n t+t+u+v+w+w+w+x+{.                  . 6 ",
"                    > + s+F F F F F F y+6 6 t+z+A+(+B+C+{.                  . 6 ",
"                      > D+r+F F F F F E+m $.X F+G+H+I+J+{.                  > m ",
"                        * X 4.{.{.{.{.Y   * + > K+L+M+N+Y                       ",
"    > + + + >           * + + +                 O+P+Q+Y               & o < < < ",
"    > + + + >           * + + + >                                     6 X < < < ",
"<       * + + + + + + + N 6 6 6 6 6               < < < < < < ,       6 6 6 m < ",
"8       > . . . . . . + B & 6 6 6 6 * _     > $ $ < < < = 8 8 $       N g & % 8 ",
"+                   > + + + R+6 6 6 6 g   * + , < < < < 8 + + *         > + + + ",
"*               * * * + + + X N N N N B * > $ = < < < $   * * >           * . + ",
"                + + + + + + + + + + + + +   < < < < < + .                   * + "};
