/* XPM */
static char * 3_xpm[] = {
"40 40 222 2",
"  	c #222D1F",
". 	c #232E20",
"+ 	c #202B1D",
"@ 	c #1F2A1C",
"# 	c #1F2A1D",
"$ 	c #242F20",
"% 	c #242F21",
"& 	c #181C15",
"* 	c #564E22",
"= 	c #5F5625",
"- 	c #8A7B2E",
"; 	c #928230",
"> 	c #918130",
", 	c #6A5F27",
"' 	c #343319",
") 	c #252716",
"! 	c #20291B",
"~ 	c #202A1C",
"{ 	c #1E281A",
"] 	c #212C1E",
"^ 	c #273224",
"/ 	c #2C3828",
"( 	c #1B2018",
"_ 	c #897A2E",
": 	c #695E26",
"< 	c #232D1E",
"[ 	c #253022",
"} 	c #273324",
"| 	c #2B3627",
"1 	c #1B1F18",
"2 	c #554E22",
"3 	c #6A6027",
"4 	c #5D5424",
"5 	c #2C2918",
"6 	c #212A1E",
"7 	c #212B1D",
"8 	c #232D20",
"9 	c #263223",
"0 	c #253122",
"a 	c #283224",
"b 	c #283325",
"c 	c #1B1E18",
"d 	c #83752B",
"e 	c #6C6127",
"f 	c #2F2A17",
"g 	c #141412",
"h 	c #574F22",
"i 	c #414021",
"j 	c #373A20",
"k 	c #36391F",
"l 	c #1E2016",
"m 	c #1C2619",
"n 	c #263123",
"o 	c #1A1E18",
"p 	c #302B17",
"q 	c #151412",
"r 	c #1A1913",
"s 	c #84772C",
"t 	c #232D21",
"u 	c #1C2518",
"v 	c #1F281B",
"w 	c #283324",
"x 	c #2B3727",
"y 	c #293426",
"z 	c #47401B",
"A 	c #161612",
"B 	c #1D1B13",
"C 	c #84762C",
"D 	c #514D23",
"E 	c #35381F",
"F 	c #1F2116",
"G 	c #252F22",
"H 	c #1D2719",
"I 	c #253021",
"J 	c #1E281B",
"K 	c #1E271A",
"L 	c #232D1F",
"M 	c #273124",
"N 	c #1F291C",
"O 	c #222C1F",
"P 	c #1E291B",
"Q 	c #1D2619",
"R 	c #222C1E",
"S 	c #2F2B17",
"T 	c #0F8AC2",
"U 	c #134866",
"V 	c #141513",
"W 	c #0E8BC4",
"X 	c #134763",
"Y 	c #201E13",
"Z 	c #83762C",
"` 	c #191C17",
" .	c #33403F",
"..	c #1D3845",
"+.	c #161F23",
"@.	c #1B333F",
"#.	c #1C3845",
"$.	c #171E22",
"%.	c #35232E",
"&.	c #857630",
"*.	c #524E23",
"=.	c #595224",
"-.	c #5D5525",
";.	c #3F3E20",
">.	c #32341E",
",.	c #1F2015",
"'.	c #151413",
").	c #867630",
"!.	c #1D1E15",
"~.	c #161713",
"{.	c #191D17",
"].	c #2E1C2D",
"^.	c #1D161C",
"/.	c #301C2F",
"(.	c #582C56",
"_.	c #3F243B",
":.	c #584E28",
"<.	c #151713",
"[.	c #263122",
"}.	c #552A52",
"|.	c #8A2D83",
"1.	c #932D8B",
"2.	c #6B2E67",
"3.	c #5F2E5C",
"4.	c #5F2F5B",
"5.	c #5F5034",
"6.	c #5E5525",
"7.	c #202C1D",
"8.	c #2A3626",
"9.	c #552952",
"0.	c #60305C",
"a.	c #89783B",
"b.	c #3F4021",
"c.	c #887A2E",
"d.	c #8D7E2F",
"e.	c #46421C",
"f.	c #21291C",
"g.	c #1F291B",
"h.	c #242E20",
"i.	c #181D16",
"j.	c #625826",
"k.	c #8D7E2E",
"l.	c #46411C",
"m.	c #1E2518",
"n.	c #6B6027",
"o.	c #222B1D",
"p.	c #424121",
"q.	c #8B7B2E",
"r.	c #8F7F2F",
"s.	c #675D26",
"t.	c #33321A",
"u.	c #181C16",
"v.	c #554E21",
"w.	c #363920",
"x.	c #1E1F15",
"y.	c #232415",
"z.	c #252817",
"A.	c #252F21",
"B.	c #1A1D18",
"C.	c #33351E",
"D.	c #151613",
"E.	c #1D271A",
"F.	c #A4622B",
"G.	c #B56C30",
"H.	c #E6934E",
"I.	c #F09A53",
"J.	c #C27638",
"K.	c #B46B30",
"L.	c #6A3E18",
"M.	c #A6632B",
"N.	c #663B17",
"O.	c #45270D",
"P.	c #231B12",
"Q.	c #202A1D",
"R.	c #253023",
"S.	c #E6924D",
"T.	c #46280E",
"U.	c #2C2816",
"V.	c #242E1F",
"W.	c #A8682E",
"X.	c #896731",
"Y.	c #34331A",
"Z.	c #273123",
"`.	c #232E21",
" +	c #554D22",
".+	c #2E2A17",
"++	c #34361E",
"@+	c #87792E",
"#+	c #908030",
"$+	c #685E26",
"%+	c #85772C",
"&+	c #8E7F2F",
"*+	c #47421B",
"=+	c #181813",
"-+	c #161814",
";+	c #35371E",
">+	c #423B19",
",+	c #1D1F16",
"'+	c #3F240F",
")+	c #47280D",
"!+	c #A5622B",
"~+	c #B46C30",
"{+	c #59361B",
"]+	c #232A1E",
"^+	c #171B15",
"/+	c #9F602D",
"(+	c #5F391C",
"_+	c #43260F",
":+	c #251A11",
"<+	c #161714",
"[+	c #242E21",
"}+	c #191E16",
"|+	c #9F5F2A",
"1+	c #70411A",
"2+	c #4A2A0E",
"3+	c #261A11",
"4+	c #141512",
"5+	c #6F4119",
"6+	c #2B1C11",
"7+	c #1E271B",
"8+	c #212B1E",
"9+	c #212A1D",
"  . . . . . + @ @ # + . $ % % % & * = - ; ; > , ' ) ! # + . . . . . . . . . ~ { ",
". . . . ] @ @ @ . . . . ^ / / ( * _ ; ; ; ; ; ; > : ' < . . . . . . . . . . . . ",
"% . . .   + @ @       [ } | 1 2 _ ; ; ; ; ; ; ; > 3 4 5 6 . . . . . . 7 8 9 9 0 ",
"[ . . . . . + @ @ @ ] a b b c d ; e f g h - ; > , i j k l 6 . . . .   m ] / / | ",
"^ % % n n n [ % + @ ] a b b o d e p q g g r s , i j j k l t n % . .   u v $ w x ",
"y % % ^ b b b b + @ ] a b b o d z A g g g g B C D j j j E F G [ . .   u u H I x ",
"] J K v L ^ b b M n ^ b b b o d z A g g g g B C , i j j E l N   . . . O ] P +   ",
"@ Q u u R ^ b b b b b b b b o 2 S T U V W X g Y Z D j j j E l @ . . . .   @ @ @ ",
"@ @ @ @ { u % b b b b b n . ` 2  ...+.g @.#.$.%.&.*.=.= -.;.l 6 . . . . . . ] @ ",
"@ @ @ @ { u % b b b b b n . ` >.,.g g g g g '.%.).3 = -.;.!.~.6 . . . . . . ] @ ",
"] + + + J u O [ b b b ^ n % {.].^.g g g g /.(._.:.i k !.g <.6     [ [.[.[.[.I   ",
"[ . . . + Q u u ^ b ^ . [ b o }.|.1.1.1.2.3.4.5.6.i j j E l 6 ] 7.8./ / / / / | ",
". . . . ] ~ J { 8 % % . % {.g 9.|.1.1.1.2.0.a., i j b.c.; d.e.f.g.h.[./ / / / 8.",
"    . . . . + @ @ @ + . i.g g d ; ; e = - ; > *.=.j.- ; ; ; k.l.m.u v / / / / 8.",
"N { N   . .           . i.g g d ; ; ; ; ; ; n.= = j.- ; ; ; k.e.o.g.@ . [ y y ^ ",
"v u {   . . . . . . . . i.g g d ; ; ; ; ; ; n.= 6.p.-.q.; r.s.t.< + @ @   b b n ",
"% + @ @ ] . . . . . . . . u.g v._ ; ; ; ; n.i j j w.x.y.) ) z.A.b b b b b b b ^ ",
"% + @ @ ] . . . . . . . . . n B.g g g g g C.j j w.x.g g D.E.+ % ^ b b b b b b ^ ",
". . . . . . ^ b b b b b n . n B.F.G.H.I.J.G.K.L.M.N.O.P.Q.@ @ @ + ^ b b b b n . ",
"[ [ % .     [ R.b b b b ^ [ {.g F.S.I.I.I.J.K.L.M.N.T.U.V.        [ R.b b b n . ",
"^ b ^ % ] @ @ @ ^ b b b b b o 2 = W.H.I.X.= = = = = 4 Y.Z.b b b ^ ] + b b b n % ",
"^ b ^ n % ] + @ . `.% b b o  += = = .+g ++@+; ; ; ; #+$+Y.Z.b b b [ % [ n b n % ",
"^ b b b n . + @ @ @ ] a b o  += = p.,.g A %+; ; ; ; ; &+*+=+g -+G b ^ . [ b n % ",
"  ^ b b ^ ^ %       . % n o  += p.,.g g g ;+@+; ; ; ; &+>+g g -+G b b ^ n % % . ",
"+ ^ b b b b [ . . . . . {.g g g g g g G b ,+%+; ; ; ; &+>+g g -+G b b b n . .   ",
"^ b ^ % . . . . . . . i.'+)+!+~+{+]+. . . . ^+g g g g g g -+G b b % . . . . . % ",
"n b ^ % . . . . . /+(+_+)+)+)+:+6 . . . . . . . ^+g g g <+[+^ b b % % . . . . . ",
"P ^ b b n . . . }+|+K.1+2+)+3+E.. . . . . . . . 8 ^+g D.Q.@ + [ b b ^ . . . @ Q ",
"+ [ n n [ . . . }+4+|+K.5+6+7+@ ]     ] 8+8+8+]   . . .   + + % n n n . . . @ Q ",
"  . . . . . . . . .   @ @ @ @ @ @ @ @ P u u u J @ . . . . . . . . . . . . . @ E.",
"  . . . . . . . . .   @ @ @ @ @ @ @ @ P u u u J @ . . . . . . . . . . . . . @ E.",
"8 . . . . . . . . . .   ] @ ]         O 8+~ J 8+  . . . . . . . . . . . . .   ] ",
". . . . . . . . . . . . ] @   . . . . . . ] @   . . . . . . . . . . . . . . . . ",
"% .   @ @ @   . . . . . ] @ @ @ . . . . . . . . . . . . . . . . . .   Q 9+b b ^ ",
"% .   @ @ @   . . . . . ] @ @ @   . . . . . . . . . . . . . . . . .   u Q.b b ^ ",
"b % . . ] @ @ @ @ @ @ @ { u u u u u . . . . . . . b b b b b b [ . .   u u Q O b ",
"n % . .   + + + + + + @ P Q u u u u ] O . .   % % b b b ^ n n % . .   { K K R n ",
"@   . . . . . . . .   @ @ @ H u u u u K . ] @ [ b b b b R.@ @ ] . . . .   @ @ @ ",
"] . . . . . . . ] ] ] @ @ @ J { { { { P ]   % ^ b b b % . ] ]   . . . . . ] + @ ",
"  . . . . . . . @ @ @ @ @ @ @ @ @ @ @ @ @ . b b b b b @ + . . . . . . . . . ] + "};
