/* XPM */
static char * 2_xpm[] = {
"40 40 241 2",
"  	c #232D1F",
". 	c #232E20",
"+ 	c #202B1D",
"@ 	c #1F2A1C",
"# 	c #1F2A1D",
"$ 	c #242F20",
"% 	c #242F21",
"& 	c #212B1D",
"* 	c #1E271A",
"= 	c #212C1E",
"- 	c #273224",
"; 	c #2C3828",
"> 	c #2A3626",
", 	c #222D1F",
"' 	c #253022",
") 	c #273324",
"! 	c #2B3627",
"~ 	c #2C3728",
"{ 	c #283424",
"] 	c #273223",
"^ 	c #222C1F",
"/ 	c #263223",
"( 	c #283325",
"_ 	c #232D20",
": 	c #1C2518",
"< 	c #202A1D",
"[ 	c #2B3727",
"} 	c #263123",
"| 	c #293426",
"1 	c #2A3526",
"2 	c #263122",
"3 	c #1E281A",
"4 	c #242E20",
"5 	c #273323",
"6 	c #2B3728",
"7 	c #1D2619",
"8 	c #1D271A",
"9 	c #1F281B",
"0 	c #273124",
"a 	c #151513",
"b 	c #141412",
"c 	c #1E291B",
"d 	c #232C1F",
"e 	c #9A5922",
"f 	c #9B5A22",
"g 	c #BD9168",
"h 	c #9A5A22",
"i 	c #141512",
"j 	c #252F21",
"k 	c #995922",
"l 	c #71431C",
"m 	c #70431C",
"n 	c #6F431C",
"o 	c #151613",
"p 	c #71441C",
"q 	c #6F421C",
"r 	c #1E281B",
"s 	c #BC9067",
"t 	c #9B5B24",
"u 	c #233219",
"v 	c #253021",
"w 	c #202A1C",
"x 	c #233119",
"y 	c #253219",
"z 	c #151412",
"A 	c #70481D",
"B 	c #77B845",
"C 	c #75B544",
"D 	c #242E21",
"E 	c #3F5D27",
"F 	c #70461D",
"G 	c #77B745",
"H 	c #5D8D38",
"I 	c #5E8F38",
"J 	c #253122",
"K 	c #3E5C27",
"L 	c #151612",
"M 	c #70451D",
"N 	c #5D8C38",
"O 	c #416128",
"P 	c #75B644",
"Q 	c #1F291B",
"R 	c #1D2719",
"S 	c #1F291C",
"T 	c #76B644",
"U 	c #5D8E38",
"V 	c #3F5E27",
"W 	c #44280F",
"X 	c #243319",
"Y 	c #405E27",
"Z 	c #5C8B37",
"` 	c #E8C8A9",
" .	c #4C6332",
"..	c #EBCAAB",
"+.	c #5E8D39",
"@.	c #43280F",
"#.	c #151512",
"$.	c #ECCBAC",
"%.	c #648F3E",
"&.	c #BA8F66",
"*.	c #EBCAAA",
"=.	c #363D27",
"-.	c #BC9168",
";.	c #181512",
">.	c #253023",
",.	c #6E421C",
"'.	c #273319",
").	c #9A5B22",
"!.	c #5C8C37",
"~.	c #45290F",
"{.	c #232E21",
"].	c #EAC9AA",
"^.	c #BE926A",
"/.	c #ECCAAB",
"(.	c #714520",
"_.	c #5C8C38",
":.	c #262F20",
"<.	c #313121",
"[.	c #3E3623",
"}.	c #373321",
"|.	c #252E20",
"1.	c #283122",
"2.	c #171613",
"3.	c #BB8F67",
"4.	c #BC9068",
"5.	c #71451E",
"6.	c #243219",
"7.	c #161512",
"8.	c #263023",
"9.	c #2B3325",
"0.	c #373726",
"a.	c #56412A",
"b.	c #835A37",
"c.	c #A67045",
"d.	c #8A5E3B",
"e.	c #403622",
"f.	c #3B301D",
"g.	c #44331E",
"h.	c #413724",
"i.	c #343222",
"j.	c #4C2E14",
"k.	c #4E2F15",
"l.	c #3D2817",
"m.	c #3D2818",
"n.	c #402D20",
"o.	c #433A33",
"p.	c #464337",
"q.	c #434134",
"r.	c #424237",
"s.	c #283124",
"t.	c #283224",
"u.	c #303121",
"v.	c #534028",
"w.	c #825935",
"x.	c #BE804F",
"y.	c #D28B58",
"z.	c #C68350",
"A.	c #8E5B35",
"B.	c #6E4727",
"C.	c #784D2B",
"D.	c #764E2D",
"E.	c #855732",
"F.	c #784C29",
"G.	c #955D31",
"H.	c #96705C",
"I.	c #A16536",
"J.	c #A16435",
"K.	c #996236",
"L.	c #A07253",
"M.	c #B19C8D",
"N.	c #A59488",
"O.	c #9E8D80",
"P.	c #A3968A",
"Q.	c #47453C",
"R.	c #2D3223",
"S.	c #5C4128",
"T.	c #B1774A",
"U.	c #C88553",
"V.	c #C07F4C",
"W.	c #C17E4A",
"X.	c #BD7D4B",
"Y.	c #82532E",
"Z.	c #573820",
"`.	c #5C3C23",
" +	c #684428",
".+	c #724A2B",
"++	c #5E3B22",
"@+	c #734826",
"#+	c #735646",
"$+	c #7C4E29",
"%+	c #7C4D29",
"&+	c #764C2B",
"*+	c #7C5840",
"=+	c #87776C",
"-+	c #7C7067",
";+	c #776B61",
">+	c #7F746B",
",+	c #3A3C33",
"'+	c #2B3324",
")+	c #403522",
"!+	c #62472B",
"~+	c #6B4B2D",
"{+	c #624428",
"]+	c #6B4A2D",
"^+	c #825635",
"/+	c #614226",
"(+	c #34301F",
"_+	c #2F2E1F",
":+	c #362F1F",
"<+	c #342317",
"[+	c #472B13",
"}+	c #4A2C14",
"|+	c #5E8396",
"1+	c #5E8497",
"2+	c #4C2E16",
"3+	c #312217",
"4+	c #33261E",
"5+	c #3A332F",
"6+	c #35312C",
"7+	c #393B30",
"8+	c #3D3F34",
"9+	c #283023",
"0+	c #212B1E",
"a+	c #273123",
"b+	c #293122",
"c+	c #2B3022",
"d+	c #2A2F20",
"e+	c #292F20",
"f+	c #3B3623",
"g+	c #323121",
"h+	c #161612",
"i+	c #442810",
"j+	c #452911",
"k+	c #442911",
"l+	c #161613",
"m+	c #1C2619",
"n+	c #3F5C27",
"o+	c #151712",
"p+	c #5B8B37",
"q+	c #405F28",
"r+	c #20291C",
"  . . . . . + @ @ # + . $ % % % % % % % . . . + @ @ @ # + . . . . . . . . . & * ",
". . . . = @ @ @ . . . . - ; ; ; ; ; ; > . . . + @ @ @ . . . . . . . . . . . . . ",
". . . . , + @ @ , , , ' ) ! ~ ; ; ; { ] , , . = + + = . . . . . . . . & ^ / / / ",
"% . . . . . + @ @ @ = ( ( ( ! ; ; ; @ @ @ = . . . . . . . . . . . . _ : < ; ; [ ",
"] . % } } } ' % @ @ = ( ( ( | 1 2 ' @ + = , . . . . . } } } } % . . _ : 3 4 5 6 ",
"( . % ( ( ( ( ( + @ = ( ( ( ( ( + @ @ + . . . . . . . ( ( ( ( ' . . _ : : 7 % ; ",
"= 8 * 9 4 ( ( ( 0 } - ( ( ( ( a b b b b b b b . . - - ( } = = , . . . ^ = c + , ",
"@ : : : d ( ( ( ( ( ( ( ( ( a e f g g f f f h i . ( ( ( } @ @ = . . . . , @ @ @ ",
"@ @ @ @ 3 : j ( ( ( ( ( } a k f l m f f f f f n a - ( @ + . . . . . . . . . = @ ",
"@ @ @ @ 3 : j ( ( ( ( ( o k f p m f f f f f f m q a ( @ + . . . . . . . . . = @ ",
"+ + + + r : _ ' ( ( ( - o k f s g t f f f f f m n u u u u u . , , ' 2 2 2 2 v . ",
"% . . . w : : : - ( - . a x u n m y u u z f m m A B B B C u . = + > ; ; ; ; ; [ ",
", . . . = w r 3 D % % . a b b u u i b E z m F B G H I C u . . < 3 4 J ; ; ; ; [ ",
"+ . . . . . + @ @ @ + . a b b K E L b H z M B N E O P u . . . Q : : R ; ; ; ; [ ",
"* 3 S . . . , , , , , . a x u T U V H H b W W X Y Z a . . . . , = Q c . % | | ( ",
"7 : 3 . . . . . . . . . a x u T U V H H b W W u u i : . . . . . . + @ @ , ( ( - ",
". @ @ @ = . . . . . . o `  .E E E E ..+.b W W W @.#.. . , @ @ ' ( ( ( ( ( ( ( ( ",
". @ @ @ = . . . . . . o ` $.%.H H V ..$.H u b b i . . . , @ @ % - ( ( ( ( ( ( ( ",
". . . . . . - ( ( ( ( o &.*.=.u u E -.$.u ;.f e i . . . , @ @ @ < - ( ( ( ( } . ",
"' ' % . , , ' >.( ( ( ( o ,.'.i b u u u m f ).H !.#.. ' % , , , , ' >.( ( ( } . ",
"( ( - . = @ @ @ ( ( ( ( o k p ~.W m m m f f H H H !.u ( ( ( ( ( ( = + ( ( ( } . ",
"( ( - } % = + @ . {.% ( o k ].^.g /.(.m f f H H H !.u {.' ( ( ( ( ' % ' } ( } . ",
"( ( ( ( } . + @ @ @ = ( o k p ~.W m m m f f V H _.K i @ , ( ( ( ( ( ( . % ( } . ",
", ( ( ( - - :.<.[.}.|.j 1.2.q 3.4.5.m m h h W 6.7.#., @ + = = 8.( ( ( - } % % . ",
"@ - ( ( 9.0.a.b.c.d.e.f.g.h.i.j.k.k.l.l.m.n.o.p.q.r.s.@ @ @ @ ' ( ( ( ( - . . . ",
"( ( t.u.v.w.x.y.z.A.B.C.D.E.F.G.H.I.J.J.K.L.M.N.O.P.Q.D % ( ( ( ( % . . . . . . ",
"- ( R.S.T.U.V.W.X.Y.Z.`. +.+++@+#+$+%+%+&+*+=+-+;+>+,+4 % - - ( ( % % . . . . , ",
"@ - '+)+!+~+{+]+^+/+(+_+:+<+[+}+|+1+1+2+3+4+5+6+7+8+9+. , @ @ ' ( ( ( . . . + : ",
"0+} a+b+c+d+e+u.f+g+|.,   h+q m m m m m m i+j+k+l+% . . , + + % } } } . . . + m+",
", . . . . . . . . . , @ i @.q m m m m m m W W W i . . . . . . . . . . . . . + 7 ",
", . . . . . . . . . , @ i b b b b b b b b b b b i . . . . . . . . . . . . . + 7 ",
". . . . . . . . . . . , a K E X i , , ^ b u E n+u #.. . . . . . . . . . . . , 0+",
". . . . . . . . . . . o x K E E o+. . . . #.E E K #.. . . . . . . . . . . . . . ",
". . , @ @ @ , . . . o p+q+_.H Y o+. . . . o+H N Y Z a . . . . . . . . 7 r+( ( ( ",
". . , @ @ @ , . . . . . = @ @ @ , . . . . . . . . . . . . . . . . . _ : S ( ( ( ",
"( . . . = @ @ @ @ @ @ @ 3 : : : : : . . . . . . . ( ( ( ( ( ( ' . . _ : : m+^ ( ",
"} . . . , + + + + + + @ c 7 : : : : = ^ . . , % % ( ( ( - } } % . . . 3 * 7 = } ",
"@ . . . . . . . . . , @ @ @ R : : : : * . = @ ' ( ( ( ( } @ @ = . . . . , @ @ @ ",
"= . . . . . . . = = = @ @ @ r 3 3 3 3 c = , % - ( ( ( % . = = , . . . . . = + @ ",
". . . . . . . . @ @ @ @ @ @ @ @ @ @ @ @ @ . ( ( ( ( ( @ + . . . . . . . . . = @ "};
