/* XPM */
static char * 3_xpm[] = {
"40 40 260 2",
"  	c #222D1F",
". 	c #232E20",
"+ 	c #202B1D",
"@ 	c #1F2A1C",
"# 	c #1F2A1D",
"$ 	c #242F20",
"% 	c #242F21",
"& 	c #202A1C",
"* 	c #1E281A",
"= 	c #212C1E",
"- 	c #273224",
"; 	c #2C3828",
"> 	c #2A3626",
", 	c #253022",
"' 	c #273324",
") 	c #2B3627",
"! 	c #2C3728",
"~ 	c #283424",
"{ 	c #273223",
"] 	c #212B1D",
"^ 	c #232D20",
"/ 	c #263223",
"( 	c #253122",
"_ 	c #283224",
": 	c #283325",
"< 	c #1C2619",
"[ 	c #263123",
"} 	c #293426",
"| 	c #2A3526",
"1 	c #263122",
"2 	c #1C2518",
"3 	c #1F281B",
"4 	c #283324",
"5 	c #2B3727",
"6 	c #1D2719",
"7 	c #253021",
"8 	c #1E281B",
"9 	c #1E271A",
"0 	c #232D1F",
"a 	c #273124",
"b 	c #151613",
"c 	c #141412",
"d 	c #141512",
"e 	c #222C1F",
"f 	c #1E291B",
"g 	c #1D2619",
"h 	c #222C1E",
"i 	c #151713",
"j 	c #985821",
"k 	c #9B5A22",
"l 	c #BC9067",
"m 	c #BD9168",
"n 	c #9B5A23",
"o 	c #995922",
"p 	c #151513",
"q 	c #253023",
"r 	c #975821",
"s 	c #72441C",
"t 	c #70431C",
"u 	c #9A5A22",
"v 	c #6E421C",
"w 	c #161714",
"x 	c #BC8F66",
"y 	c #9C5C25",
"z 	c #233219",
"A 	c #23321A",
"B 	c #202C1D",
"C 	c #223119",
"D 	c #273219",
"E 	c #151412",
"F 	c #70491E",
"G 	c #77B845",
"H 	c #73B243",
"I 	c #202A1D",
"J 	c #1F291B",
"K 	c #242E20",
"L 	c #233119",
"M 	c #3F5D27",
"N 	c #70461D",
"O 	c #76B745",
"P 	c #5C8C38",
"Q 	c #416028",
"R 	c #5D8D38",
"S 	c #5F9039",
"T 	c #73B343",
"U 	c #1F291C",
"V 	c #3E5B26",
"W 	c #161813",
"X 	c #44280F",
"Y 	c #43280F",
"Z 	c #24341A",
"` 	c #436429",
" .	c #74B343",
"..	c #75B544",
"+.	c #5E8F38",
"@.	c #405E27",
"#.	c #5D8C38",
"$.	c #43270F",
"%.	c #161713",
"&.	c #E5C5A7",
"*.	c #58683B",
"=.	c #EBCAAB",
"-.	c #5E8D39",
";.	c #161814",
">.	c #ECCBAC",
",.	c #6B9144",
"'.	c #1C1712",
").	c #B78C65",
"!.	c #EAC8A9",
"~.	c #444630",
"{.	c #3F5C27",
"].	c #253219",
"^.	c #6D411B",
"/.	c #2B3319",
"(.	c #151612",
"_.	c #9A5C23",
":.	c #5B8A37",
"<.	c #232E21",
"[.	c #E9C7A8",
"}.	c #BF946C",
"|.	c #734723",
"1.	c #9A5B22",
"2.	c #73441C",
"3.	c #462910",
"4.	c #6F431C",
"5.	c #232E1F",
"6.	c #262F21",
"7.	c #313121",
"8.	c #3E3523",
"9.	c #383321",
"0.	c #262E20",
"a.	c #252F21",
"b.	c #283122",
"c.	c #171813",
"d.	c #6D421C",
"e.	c #BA8E66",
"f.	c #BC9068",
"g.	c #724620",
"h.	c #995A22",
"i.	c #5C8B37",
"j.	c #263023",
"k.	c #2B3325",
"l.	c #363626",
"m.	c #55412A",
"n.	c #815937",
"o.	c #A56F45",
"p.	c #8B5F3B",
"q.	c #453824",
"r.	c #3B301D",
"s.	c #43331E",
"t.	c #413724",
"u.	c #353222",
"v.	c #4B2E15",
"w.	c #4E2F15",
"x.	c #3D2817",
"y.	c #3D2818",
"z.	c #402D20",
"A.	c #433A33",
"B.	c #464534",
"C.	c #3E352F",
"D.	c #3D3730",
"E.	c #283124",
"F.	c #303121",
"G.	c #513F28",
"H.	c #7F5734",
"I.	c #BB7E4D",
"J.	c #D18B57",
"K.	c #C78350",
"L.	c #915E36",
"M.	c #704827",
"N.	c #774C2B",
"O.	c #764E2D",
"P.	c #845632",
"Q.	c #794D29",
"R.	c #955C31",
"S.	c #966F5C",
"T.	c #A16536",
"U.	c #A16435",
"V.	c #996236",
"W.	c #A07353",
"X.	c #B19C8D",
"Y.	c #A59488",
"Z.	c #9E8D80",
"`.	c #A29488",
" +	c #46453C",
".+	c #242E21",
"++	c #2C3223",
"@+	c #5A4027",
"#+	c #AC7448",
"$+	c #C68452",
"%+	c #C07F4C",
"&+	c #C17E4A",
"*+	c #BD7D4B",
"=+	c #865630",
"-+	c #5A3A20",
";+	c #5B3C23",
">+	c #674328",
",+	c #714A2B",
"'+	c #5E3C23",
")+	c #724826",
"!+	c #735645",
"~+	c #7C4E2A",
"{+	c #7C4D29",
"]+	c #764C2B",
"^+	c #7C5941",
"/+	c #87776C",
"(+	c #7C7067",
"_+	c #776B61",
":+	c #7E736A",
"<+	c #3A3B32",
"[+	c #2B3324",
"}+	c #3E3522",
"|+	c #60462B",
"1+	c #6A4B2D",
"2+	c #624429",
"3+	c #6B492C",
"4+	c #815634",
"5+	c #634327",
"6+	c #373120",
"7+	c #2F2E1F",
"8+	c #362F1F",
"9+	c #342418",
"0+	c #462B13",
"a+	c #4A2C14",
"b+	c #5D8295",
"c+	c #5E8497",
"d+	c #4C2F18",
"e+	c #312217",
"f+	c #33261E",
"g+	c #3A332F",
"h+	c #35312C",
"i+	c #393B30",
"j+	c #3C3E33",
"k+	c #283023",
"l+	c #273123",
"m+	c #293122",
"n+	c #2B3022",
"o+	c #2A2F20",
"p+	c #292F20",
"q+	c #2F3121",
"r+	c #3B3523",
"s+	c #323221",
"t+	c #252E20",
"u+	c #171713",
"v+	c #442810",
"w+	c #452911",
"x+	c #432911",
"y+	c #171714",
"z+	c #42270F",
"A+	c #6E421B",
"B+	c #1D271A",
"C+	c #3D5A26",
"D+	c #25351A",
"E+	c #243319",
"F+	c #3E5C27",
"G+	c #171A13",
"H+	c #151712",
"I+	c #5A8836",
"J+	c #426128",
"K+	c #212A1D",
"  . . . . . + @ @ # + . $ % % % % % % % . . . + @ @ @ # + . . . . . . . . . & * ",
". . . . = @ @ @ . . . . - ; ; ; ; ; ; > . . . + @ @ @ . . . . . . . . . . . . . ",
"% . . .   + @ @       , ' ) ! ; ; ; ~ {     . = + + = . . . . . . . . ] ^ / / ( ",
", . . . . . + @ @ @ = _ : : ) ; ; ; @ @ @ = . . . . . . . . . . . .   < = ; ; ) ",
"- % % [ [ [ , % + @ = _ : : } | 1 , @ + =   . . . . . [ [ [ [ % . .   2 3 $ 4 5 ",
"} % % - : : : : + @ = _ : : : : + @ @ + . . . . . . . : : : : , . .   2 2 6 7 5 ",
"= 8 9 3 0 - : : a [ - : : : : b c c c c c c d . . - - : [ = =   . . . e = f +   ",
"@ g 2 2 h - : : : : : : : : i j k l m n k k o p . : : : q @ @ = . . . .   @ @ @ ",
"@ @ @ @ * 2 % : : : : : [ i r k s t k k k k u v b - : @ + . . . . . . . . . = @ ",
"@ @ @ @ * 2 % : : : : : w r k k s u k k k k u t v i : @ + . . . . . . . . . = @ ",
"= + + + 8 2 e , : : : - w r k s t u k k k k u t v b - + = . .     , 1 1 1 1 7   ",
", . . . + g 2 2 - : - . i r k x m y k k k k t t v z z z z A . = B > ; ; ; ; ; ) ",
". . . . = & 8 * ^ % % . i C z v t D z z E t F G G G G G H A . I J K 1 ; ; ; ; > ",
"    . . . . + @ @ @ + . i c c L z d c M E N O P Q R S T A . . J 2 2 3 ; ; ; ; > ",
"U * U   . .           . i c c V M W c R c X Y Z M `  .A . . .   = J @ . , } } - ",
"3 2 *   . . . . . . . . i C z ..+.@.#.R c X Y z L d < . . . . . . + @ @   : : [ ",
"% + @ @ = . . . . . . . i C z ..+.@.#.R c X X X $.b . .   @ + , : : : : : : : - ",
"% + @ @ = . . . . . . %.&.*.M M M M =.-.c z c c b . . .   @ + % - : : : : : : - ",
". . . . . . - : : : : ;.&.>.,.R R @.=.>.R '.k o b . . .   @ @ @ + - : : : : [ . ",
", , % .     , q : : : ;.).!.~.z z {.l >.].k k o b . . , %         , q : : : [ . ",
"- : - % = @ @ @ - : : : w ^./.(.c z z z t k _.R :.b . : : : : : - = + : : : [ % ",
"- : - [ % = + @ . <.% : w r [.}.m =.|.t k 1.R R R :.A <., : : : : , % , [ : [ % ",
"- : : : [ . + @ @ @ = _ w r 2.3.X 4.t t k 1.R R R :.z @ 5.: : : : : - . , : [ % ",
"  - : : - - 6.7.8.9.0.a.b.c.d.e.f.g.t t u h.@.R i.V b @ + = e j.: : : - [ % % . ",
"+ - : : k.l.m.n.o.p.q.r.s.t.u.v.w.w.x.x.y.z.A.B.C.D.E.@ @ @ + , : : : : [ . .   ",
"- : _ F.G.H.I.J.K.L.M.N.O.P.Q.R.S.T.U.U.V.W.X.Y.Z.`. +.+% : : : : % . . . . . % ",
"[ : ++@+#+$+%+&+*+=+-+;+>+,+'+)+!+~+{+{+]+^+/+(+_+:+<+K % - - : : % % . . . . . ",
"f - [+}+|+1+2+3+4+5+6+7+8+9+0+a+b+c+c+d+e+f+g+h+i+j+k+.   @ + , : : - . . . @ g ",
"+ , l+m+n+o+p+q+r+s+t+  0 u+d.t t t t t t v+w+x+y+% . .   + + % [ [ [ . . . @ g ",
"  . . . . . . . . .   @ b z+A+t t t t t t X X Y b . . . . . . . . . . . . . @ B+",
"  . . . . . . . . .   @ b c c c c c c c c c c c b . . . . . . . . . . . . . @ B+",
"^ . . . . . . . . . .   i C+M D+(.    e c E+M F+L b . . . . . . . . . . . .   = ",
". . . . . . . . . . . %.C V M M G+. . . . H+M M V b . . . . . . . . . . . . . . ",
"% .   @ @ @   . . . w I+J+i.R Q G+. . . . G+R P Q :.b . . . . . . .   g K+: : - ",
"% .   @ @ @   . . . . . = @ @ @   . . . . . . . . . . . . . . . . .   2 I : : - ",
": % . . = @ @ @ @ @ @ @ * 2 2 2 2 2 . . . . . . . : : : : : : , . .   2 2 g e : ",
"[ % . .   + + + + + + @ f g 2 2 2 2 = e . .   % % : : : - [ [ % . .   * 9 9 h [ ",
"@   . . . . . . . .   @ @ @ 6 2 2 2 2 9 . = @ , : : : : q @ @ = . . . .   @ @ @ ",
"= . . . . . . . = = = @ @ @ 8 * * * * f =   % - : : : % . = =   . . . . . = + @ ",
"  . . . . . . . @ @ @ @ @ @ @ @ @ @ @ @ @ . : : : : : @ + . . . . . . . . . = + "};
