/* XPM */
static char * 4_xpm[] = {
"40 40 240 2",
"  	c #232D1F",
". 	c #232E20",
"+ 	c #202B1D",
"@ 	c #1F2A1C",
"# 	c #1F2A1D",
"$ 	c #242F20",
"% 	c #242F21",
"& 	c #212B1D",
"* 	c #1E271A",
"= 	c #212C1E",
"- 	c #273224",
"; 	c #2C3828",
"> 	c #2A3626",
", 	c #222D1F",
"' 	c #253022",
") 	c #273324",
"! 	c #2B3627",
"~ 	c #2C3728",
"{ 	c #283424",
"] 	c #273223",
"^ 	c #222C1F",
"/ 	c #263223",
"( 	c #283325",
"_ 	c #232D20",
": 	c #1C2518",
"< 	c #202A1D",
"[ 	c #2B3727",
"} 	c #263123",
"| 	c #293426",
"1 	c #2A3526",
"2 	c #263122",
"3 	c #1E281A",
"4 	c #242E20",
"5 	c #273323",
"6 	c #2B3728",
"7 	c #151513",
"8 	c #141412",
"9 	c #1D2619",
"0 	c #1D271A",
"a 	c #1F281B",
"b 	c #273124",
"c 	c #9A5922",
"d 	c #9B5A22",
"e 	c #BD9168",
"f 	c #9A5A22",
"g 	c #141512",
"h 	c #1E291B",
"i 	c #232C1F",
"j 	c #151613",
"k 	c #995922",
"l 	c #71431C",
"m 	c #70431C",
"n 	c #6F431C",
"o 	c #252F21",
"p 	c #71441C",
"q 	c #6F421C",
"r 	c #BC9067",
"s 	c #9B5B24",
"t 	c #233219",
"u 	c #1E281B",
"v 	c #233119",
"w 	c #253219",
"x 	c #151412",
"y 	c #70481D",
"z 	c #77B845",
"A 	c #75B544",
"B 	c #253021",
"C 	c #202A1C",
"D 	c #3F5D27",
"E 	c #70461D",
"F 	c #77B745",
"G 	c #5D8D38",
"H 	c #5E8F38",
"I 	c #242E21",
"J 	c #3E5C27",
"K 	c #151612",
"L 	c #70451D",
"M 	c #5D8C38",
"N 	c #416128",
"O 	c #75B644",
"P 	c #253122",
"Q 	c #76B644",
"R 	c #5D8E38",
"S 	c #3F5E27",
"T 	c #44280F",
"U 	c #243319",
"V 	c #405E27",
"W 	c #5C8B37",
"X 	c #1F291B",
"Y 	c #1D2719",
"Z 	c #1F291C",
"` 	c #E8C8A9",
" .	c #4C6332",
"..	c #EBCAAB",
"+.	c #5E8D39",
"@.	c #43280F",
"#.	c #ECCBAC",
"$.	c #648F3E",
"%.	c #BA8F66",
"&.	c #EBCAAA",
"*.	c #363D27",
"=.	c #BC9168",
"-.	c #181512",
";.	c #6E421C",
">.	c #273319",
",.	c #9A5B22",
"'.	c #5C8C37",
").	c #151512",
"!.	c #253023",
"~.	c #45290F",
"{.	c #EAC9AA",
"].	c #BE926A",
"^.	c #ECCAAB",
"/.	c #714520",
"(.	c #232E21",
"_.	c #5C8C38",
":.	c #232C1D",
"<.	c #2F2F1E",
"[.	c #3C3320",
"}.	c #35301F",
"|.	c #242C1E",
"1.	c #293325",
"2.	c #2A3324",
"3.	c #171613",
"4.	c #BB8F67",
"5.	c #BC9068",
"6.	c #71451E",
"7.	c #243219",
"8.	c #161512",
"9.	c #2A3224",
"0.	c #363625",
"a.	c #554029",
"b.	c #835936",
"c.	c #A67045",
"d.	c #8A5E3A",
"e.	c #403622",
"f.	c #3B311E",
"g.	c #44331F",
"h.	c #413724",
"i.	c #353323",
"j.	c #4C2E14",
"k.	c #4E2F15",
"l.	c #3D2817",
"m.	c #3D2818",
"n.	c #402D20",
"o.	c #433A33",
"p.	c #464337",
"q.	c #434134",
"r.	c #414237",
"s.	c #283023",
"t.	c #263023",
"u.	c #333625",
"v.	c #55422C",
"w.	c #835A36",
"x.	c #BE804F",
"y.	c #D28B58",
"z.	c #C68350",
"A.	c #8E5B35",
"B.	c #6E4727",
"C.	c #784D2B",
"D.	c #774E2D",
"E.	c #855833",
"F.	c #784C29",
"G.	c #955D31",
"H.	c #96705C",
"I.	c #A16536",
"J.	c #A16435",
"K.	c #996236",
"L.	c #A07253",
"M.	c #B19C8D",
"N.	c #A59488",
"O.	c #9E8D80",
"P.	c #A3968A",
"Q.	c #47453C",
"R.	c #2D3223",
"S.	c #5C4128",
"T.	c #B1774A",
"U.	c #C88553",
"V.	c #C07F4C",
"W.	c #C17E4A",
"X.	c #BD7D4B",
"Y.	c #82532E",
"Z.	c #573820",
"`.	c #5C3C23",
" +	c #684428",
".+	c #724A2B",
"++	c #5E3B22",
"@+	c #734826",
"#+	c #735646",
"$+	c #7C4E29",
"%+	c #7C4D29",
"&+	c #764C2B",
"*+	c #7C5840",
"=+	c #87776C",
"-+	c #7C7067",
";+	c #776B61",
">+	c #7F746B",
",+	c #3A3C33",
"'+	c #2A3223",
")+	c #3E321F",
"!+	c #62462A",
"~+	c #6B4B2D",
"{+	c #624428",
"]+	c #6B4A2D",
"^+	c #825635",
"/+	c #614226",
"(+	c #34301F",
"_+	c #2F2E1F",
":+	c #362F1F",
"<+	c #342317",
"[+	c #472B13",
"}+	c #4A2C14",
"|+	c #5E8396",
"1+	c #5E8497",
"2+	c #4C2E16",
"3+	c #312217",
"4+	c #33261E",
"5+	c #3A332F",
"6+	c #35312C",
"7+	c #393B30",
"8+	c #3D3F34",
"9+	c #2B3324",
"0+	c #2B3123",
"a+	c #2A2F20",
"b+	c #292F20",
"c+	c #303121",
"d+	c #3B3623",
"e+	c #323121",
"f+	c #252E20",
"g+	c #442810",
"h+	c #452911",
"i+	c #442911",
"j+	c #161613",
"k+	c #212B1E",
"l+	c #1C2619",
"m+	c #3F5C27",
"n+	c #151712",
"o+	c #5B8B37",
"p+	c #405F28",
"q+	c #20291C",
"  . . . . . + @ @ # + . $ % % % % % % % . . . + @ @ @ # + . . . . . . . . . & * ",
". . . . = @ @ @ . . . . - ; ; ; ; ; ; > . . . + @ @ @ . . . . . . . . . . . . . ",
". . . . , + @ @ , , , ' ) ! ~ ; ; ; { ] , , . = + + = . . . . . . . . & ^ / / / ",
"% . . . . . + @ @ @ = ( ( ( ! ; ; ; @ @ @ = . . . . . . . . . . . . _ : < ; ; [ ",
"] . % } } } ' % @ @ = ( ( ( | 1 2 ' @ + = , . . . . . } } } } % . . _ : 3 4 5 6 ",
"( . % ( ( ( ( ( + @ = ( ( ( ( 7 8 8 8 8 8 8 8 . . . . ( ( ( ( ' . . _ : : 9 % ; ",
"= 0 * a 4 ( ( ( b } - ( ( ( 7 c d e e d d d f g . - - ( } = = , . . . ^ = h + , ",
"@ : : : i ( ( ( ( ( ( ( ( j k d l m d d d d d n 7 ( ( ( } @ @ = . . . . , @ @ @ ",
"@ @ @ @ 3 : o ( ( ( ( ( j k d p m d d d d d d m q 7 ( @ + . . . . . . . . . = @ ",
"@ @ @ @ 3 : o ( ( ( ( ( j k d r e s d d d d d m n t t t t t . . . . . . . . = @ ",
"+ + + + u : _ ' ( ( ( - j v t n m w t t x d m m y z z z A t . , , ' 2 2 2 2 B . ",
"% . . . C : : : - ( - . 7 8 8 t t g 8 D x m E z F G H A t . . = + > ; ; ; ; ; [ ",
", . . . = C u 3 I % % . 7 8 8 J D K 8 G x L z M D N O t . . . < 3 4 P ; ; ; ; [ ",
"+ . . . . . + @ @ @ + . 7 v t Q R S G G 8 T T U V W 7 . . . . X : : Y ; ; ; ; [ ",
"* 3 Z . . . , , , , , . 7 v t Q R S G G 8 T T t t g u . . . . , = X h . % | | ( ",
"9 : 3 . . . . . . . . j `  .D D D D ..+.8 T T T @.g : . . . . . . + @ @ , ( ( - ",
". @ @ @ = . . . . . . j ` #.$.G G S ..#.G t 8 8 g . . . , @ @ ' ( ( ( ( ( ( ( ( ",
". @ @ @ = . . . . . . j %.&.*.t t D =.#.t -.d c g . . . , @ @ % - ( ( ( ( ( ( ( ",
". . . . . . - ( ( ( ( ( j ;.>.g 8 t t t m d ,.G '.).. . , @ @ @ < - ( ( ( ( } . ",
"' ' % . , , ' !.( ( ( ( j k p ~.T m m m d d G G G '.t ' % , , , , ' !.( ( ( } . ",
"( ( - . = @ @ @ ( ( ( ( j k {.].e ^./.m d d G G G '.t ( ( ( ( ( ( = + ( ( ( } . ",
"( ( - } % = + @ . (.% ( j k p ~.T m m m d d S G _.J 7 (.' ( ( ( ( ' % ' } ( } . ",
"( ( ( ( } . :.<.[.}.|.1.2.3.q 4.5.6.m m f f T 7.8.).@ @ , ( ( ( ( ( ( . % ( } . ",
", ( ( ( 9.0.a.b.c.d.e.f.g.h.i.j.k.k.l.l.m.n.o.p.q.r.s.@ + = = t.( ( ( - } % % . ",
"@ - 1.u.v.w.x.y.z.A.B.C.D.E.F.G.H.I.J.J.K.L.M.N.O.P.Q.& @ @ @ ' ( ( ( ( - . . . ",
"( ( R.S.T.U.V.W.X.Y.Z.`. +.+++@+#+$+%+%+&+*+=+-+;+>+,+4 % ( ( ( ( % . . . . . . ",
"- ( '+)+!+~+{+]+^+/+(+_+:+<+[+}+|+1+1+2+3+4+5+6+7+8+s.. % - - ( ( % % . . . . , ",
"@ - 1.9+0+a+b+c+d+e+f+. 4 3.q m m m m m m g+h+i+j+% . . , @ @ ' ( ( ( . . . + : ",
"k+} } } ' . . . . . . , 7 @.q m m m m m m T T T g . . . , + + % } } } . . . + l+",
", . . . . . . . . . , @ g 8 8 8 8 8 8 8 8 8 8 8 g . . . . . . . . . . . . . + 9 ",
", . . . . . . . . . , @ g J D U g @ @ 8 t D D m+g . . . . . . . . . . . . . + 9 ",
". . . . . . . . . . . , 7 J D D n+, , ^ 8 D D m+t ).. . . . . . . . . . . . , k+",
". . . . . . . . . . . j v J D D n+. . . . ).D D J ).. . . . . . . . . . . . . . ",
". . , @ @ @ , . . . j o+p+_.G V n+. . . . n+G M V W 7 . . . . . . . . 9 q+( ( ( ",
". . , @ @ @ , . . . . . = @ @ @ , . . . . . . . . . . . . . . . . . _ : Z ( ( ( ",
"( . . . = @ @ @ @ @ @ @ 3 : : : : : . . . . . . . ( ( ( ( ( ( ' . . _ : : l+^ ( ",
"} . . . , + + + + + + @ h 9 : : : : = ^ . . , % % ( ( ( - } } % . . . 3 * 9 = } ",
"@ . . . . . . . . . , @ @ @ Y : : : : * . = @ ' ( ( ( ( } @ @ = . . . . , @ @ @ ",
"= . . . . . . . = = = @ @ @ u 3 3 3 3 h = , % - ( ( ( % . = = , . . . . . = + @ ",
". . . . . . . . @ @ @ @ @ @ @ @ @ @ @ @ @ . ( ( ( ( ( @ + . . . . . . . . . = @ "};
